G04 ================== begin FILE IDENTIFICATION RECORD ==================*
G04 Layout Name:  F:/对外部分项目/信号发生器改版/Hardware/Pcb/DDS.brd*
G04 Film Name:    PASTEMASK_TOP*
G04 File Format:  Gerber RS274X*
G04 File Origin:  Cadence Allegro 16.6-2015-S066*
G04 Origin Date:  Sat Mar 04 10:38:13 2017*
G04 *
G04 Layer:  PIN/PASTEMASK_TOP*
G04 Layer:  PACKAGE GEOMETRY/PASTEMASK_TOP*
G04 Layer:  BOARD GEOMETRY/OUTLINE*
G04 *
G04 Offset:    (0.000 0.000)*
G04 Mirror:    No*
G04 Mode:      Positive*
G04 Rotation:  0*
G04 FullContactRelief:  No*
G04 UndefLineWidth:     6.000*
G04 ================== end FILE IDENTIFICATION RECORD ====================*
%FSLAX25Y25*MOIN*%
%IR0*IPPOS*OFA0.00000B0.00000*MIA0B0*SFA1.00000B1.00000*%
%ADD21R,.062992X.062992*%
%ADD23R,.068898X.026575*%
%ADD22R,.127953X.07874*%
%ADD18R,.01X.059055*%
%ADD17R,.059055X.01*%
%ADD14R,.061024X.023622*%
%ADD11R,.037402X.016732*%
%ADD10R,.016732X.037402*%
%ADD19R,.043307X.055118*%
%ADD16R,.023622X.03937*%
%ADD15R,.03937X.023622*%
%ADD12O,.015748X.051181*%
%ADD28R,.090551X.090551*%
%ADD13R,.055118X.022638*%
%ADD20R,.022638X.055118*%
%ADD24R,.076772X.023622*%
%ADD27R,.047244X.070866*%
%ADD26R,.070866X.047244*%
%ADD25R,.058232X.093665*%
%ADD29C,.007874*%
G75*
%LPD*%
G75*
G54D10*
X30561Y80354D03*
Y87579D03*
Y94803D03*
Y102028D03*
Y109252D03*
Y116476D03*
Y123701D03*
Y130925D03*
X36073Y80354D03*
Y87579D03*
Y94803D03*
Y102028D03*
Y109252D03*
Y116476D03*
Y123701D03*
Y130925D03*
X57934Y81773D03*
Y90878D03*
X63446Y81773D03*
Y90878D03*
X69085Y81773D03*
X74597D03*
Y90878D03*
X69085D03*
X88972Y54057D03*
X88937Y60837D03*
Y69134D03*
Y77431D03*
X94484Y54057D03*
X94449Y60837D03*
Y69134D03*
Y77431D03*
X115364Y69547D03*
X109852D03*
X113406Y87972D03*
Y100827D03*
Y94399D03*
X124781Y54860D03*
Y61701D03*
X118917Y87972D03*
Y100827D03*
Y94399D03*
X130293Y54860D03*
Y61701D03*
X218616Y38151D03*
X229955Y38152D03*
X224128Y38151D03*
X235467Y38152D03*
X246805D03*
X241294D03*
X252632Y38151D03*
X258144D03*
X263971D03*
X262068Y91832D03*
X262501Y119273D03*
X269482Y38151D03*
X267580Y91832D03*
X268013Y119273D03*
X280306Y61181D03*
Y68712D03*
Y76242D03*
X280493Y83614D03*
X281588Y42174D03*
X287100D03*
X285818Y61181D03*
Y68712D03*
Y76242D03*
X286005Y83614D03*
X291598Y42174D03*
X297110D03*
X290056Y121525D03*
X295568D03*
X290282Y127716D03*
X295794D03*
X301720Y42228D03*
X300005Y61181D03*
X305517D03*
X300005Y67934D03*
X305517D03*
Y74686D03*
X300005D03*
Y81438D03*
X305517D03*
X301926Y134507D03*
X302084Y143857D03*
X311617Y42174D03*
X307232Y42228D03*
X306477Y98215D03*
X311989D03*
X311910Y104741D03*
X306398D03*
X307438Y134507D03*
X313934Y134556D03*
X307595Y143857D03*
X314032Y143759D03*
X321627Y42174D03*
X317129D03*
X319154Y61181D03*
X319517Y82506D03*
X320046Y98186D03*
X320021Y104741D03*
X319446Y134556D03*
X319544Y143759D03*
X327139Y42174D03*
X324666Y61181D03*
X325029Y82506D03*
X325558Y98186D03*
X325532Y104741D03*
X337149Y42174D03*
X331637D03*
X336422Y79743D03*
X335460Y116918D03*
X335568Y123129D03*
X347159Y42174D03*
X341647D03*
X342390Y60172D03*
Y67218D03*
Y74264D03*
X341934Y79743D03*
X340971Y116918D03*
X341080Y123129D03*
X351657Y42174D03*
X347902Y60172D03*
Y67218D03*
Y74264D03*
X348897Y79743D03*
X354409D03*
X357169Y42174D03*
X361667D03*
X361373Y65562D03*
Y72657D03*
X361373Y79752D03*
X367178Y42174D03*
X371676D03*
X366885Y65562D03*
Y72657D03*
X366885Y79752D03*
X377188Y42174D03*
X387198D03*
X381686D03*
X391696D03*
X397208D03*
X421162Y74254D03*
X422648Y41793D03*
X428160D03*
X426674Y74254D03*
X435818Y63240D03*
X436211Y135374D03*
X430699D03*
X441330Y63240D03*
X448869D03*
X453938Y74254D03*
X454381Y63240D03*
X459450Y74254D03*
X465749D03*
X471261D03*
G54D20*
X319083Y68678D03*
X319024Y75940D03*
X325973Y68678D03*
X325914Y75940D03*
X422078Y52876D03*
X428967D03*
X422078Y64126D03*
X428967D03*
X461231Y63535D03*
X468121D03*
G54D11*
X51260Y152037D03*
Y157549D03*
X57234Y152037D03*
Y157549D03*
X63209Y152037D03*
Y157549D03*
X72845Y99813D03*
Y105325D03*
X69183Y152037D03*
Y157549D03*
X75158Y152037D03*
Y157549D03*
X81132Y152037D03*
Y157549D03*
X88180Y36121D03*
Y41633D03*
X91326Y117343D03*
Y122855D03*
X91092Y140965D03*
Y135453D03*
X87106Y152037D03*
Y157549D03*
X96648Y36170D03*
Y41682D03*
X93081Y152037D03*
Y157549D03*
X106212Y35944D03*
Y41456D03*
X103419Y157547D03*
Y152035D03*
X114611Y35778D03*
Y41290D03*
X111230Y157547D03*
Y152035D03*
X123304Y41456D03*
Y35944D03*
X119041Y157547D03*
Y152035D03*
X131849Y35944D03*
Y41456D03*
X132835Y122851D03*
Y128363D03*
X132619Y140524D03*
Y135012D03*
X128155Y152035D03*
Y157547D03*
X140934Y122851D03*
Y128362D03*
X140718Y140524D03*
Y135012D03*
X135377Y157547D03*
Y152035D03*
X142600D03*
Y157547D03*
X255109Y102639D03*
Y108151D03*
X335942Y131160D03*
Y136672D03*
X378496Y149344D03*
Y143832D03*
X413662Y115130D03*
Y124657D03*
Y120641D03*
Y130169D03*
X422481Y91616D03*
X428770Y91576D03*
X422481Y97128D03*
X428770Y97088D03*
X422481Y100838D03*
Y106350D03*
X428652Y106301D03*
Y100789D03*
X453662Y114460D03*
Y119972D03*
G54D12*
X57155Y118533D03*
Y141073D03*
X64833Y118533D03*
X62274D03*
X59715D03*
Y141073D03*
X62274D03*
X64833D03*
X75069Y118533D03*
X72510D03*
X69951D03*
X67392D03*
Y141073D03*
X69951D03*
X72510D03*
X75069D03*
X82746Y118533D03*
X80187D03*
X77628D03*
Y141073D03*
X80187D03*
X82746D03*
X85305Y118533D03*
Y141073D03*
X97726Y118533D03*
Y141073D03*
X107963Y118533D03*
X105404D03*
X102844D03*
X100286D03*
Y141073D03*
X102844D03*
X105404D03*
X107963D03*
X115640Y118533D03*
X113081D03*
X110522D03*
Y141073D03*
X113081D03*
X115640D03*
X123317Y118533D03*
X120758D03*
X118199D03*
Y141073D03*
X120758D03*
X123317D03*
X125876Y118533D03*
Y141073D03*
G54D21*
X380621Y132521D03*
X398337D03*
G54D13*
X64429Y99685D03*
Y106575D03*
X343993Y131712D03*
Y138602D03*
G54D22*
X390060Y98053D03*
Y122462D03*
G54D14*
X83553Y90532D03*
Y95532D03*
Y100532D03*
Y105532D03*
X104813Y90532D03*
Y100532D03*
Y95532D03*
Y105532D03*
X304259Y112342D03*
Y117342D03*
Y122342D03*
Y127342D03*
X325519Y112342D03*
Y122342D03*
Y117342D03*
Y127342D03*
X342033Y89491D03*
Y94491D03*
Y99491D03*
Y104491D03*
X363293Y89491D03*
Y99491D03*
Y94491D03*
Y104491D03*
X441969Y37816D03*
Y42816D03*
Y47816D03*
Y52816D03*
X447934Y86488D03*
Y91488D03*
Y96488D03*
Y101488D03*
X463229Y42816D03*
Y37816D03*
Y47816D03*
Y52816D03*
X469194Y91488D03*
Y86488D03*
Y96488D03*
Y101488D03*
G54D23*
X413958Y91675D03*
Y102895D03*
G54D24*
X423426Y114716D03*
Y119716D03*
Y124716D03*
Y129716D03*
X443111Y114716D03*
Y124716D03*
Y119716D03*
Y129716D03*
G54D15*
X107776Y58976D03*
X116831Y55236D03*
Y62717D03*
G54D25*
X433269Y122216D03*
G54D16*
X124169Y78841D03*
X127910Y69786D03*
X131650Y78841D03*
G54D26*
X434162Y74533D03*
X447548D03*
G54D17*
X157726Y61073D03*
Y63041D03*
Y65010D03*
Y66978D03*
Y68947D03*
Y70915D03*
Y72884D03*
Y74852D03*
Y76821D03*
Y78789D03*
Y80758D03*
Y82726D03*
Y84695D03*
Y86663D03*
Y88632D03*
Y90600D03*
Y92569D03*
Y94537D03*
Y96506D03*
Y98474D03*
Y100443D03*
Y102412D03*
Y104380D03*
Y106348D03*
Y108317D03*
Y110286D03*
Y112254D03*
Y114222D03*
Y116191D03*
Y118160D03*
Y120128D03*
Y122096D03*
Y124065D03*
Y126034D03*
Y128002D03*
Y129970D03*
X241978Y66978D03*
Y65010D03*
Y63041D03*
Y61073D03*
Y74852D03*
Y72884D03*
Y70915D03*
Y68947D03*
Y82726D03*
Y80758D03*
Y78789D03*
Y76821D03*
Y90600D03*
Y88632D03*
Y86663D03*
Y84695D03*
Y98474D03*
Y96506D03*
Y94537D03*
Y92569D03*
Y106348D03*
Y104380D03*
Y102412D03*
Y100443D03*
Y116191D03*
Y114222D03*
Y112254D03*
Y110286D03*
Y108317D03*
Y124065D03*
Y122096D03*
Y120128D03*
Y118160D03*
Y129970D03*
Y128002D03*
Y126034D03*
G54D27*
X437593Y88763D03*
Y102149D03*
G54D18*
X165404Y53396D03*
Y137648D03*
X173278Y53396D03*
X171309D03*
X169341D03*
X167372D03*
Y137648D03*
X169341D03*
X171309D03*
X173278D03*
X181152Y53396D03*
X179183D03*
X177215D03*
X175246D03*
Y137648D03*
X177215D03*
X179183D03*
X181152D03*
X189026Y53396D03*
X187057D03*
X185089D03*
X183120D03*
Y137648D03*
X185089D03*
X187057D03*
X189026D03*
X196900Y53396D03*
X194931D03*
X192963D03*
X190994D03*
Y137648D03*
X192963D03*
X194931D03*
X196900D03*
X206742Y53396D03*
X204774D03*
X202805D03*
X200837D03*
X198868D03*
Y137648D03*
X200837D03*
X202805D03*
X204774D03*
X206742D03*
X214616Y53396D03*
X212648D03*
X210679D03*
X208711D03*
Y137648D03*
X210679D03*
X212648D03*
X214616D03*
X222490Y53396D03*
X220522D03*
X218553D03*
X216585D03*
Y137648D03*
X218553D03*
X220522D03*
X222490D03*
X230364Y53396D03*
X228396D03*
X226427D03*
X224459D03*
Y137648D03*
X226427D03*
X228396D03*
X230364D03*
X234301Y53396D03*
X232333D03*
Y137648D03*
X234301D03*
G54D28*
X464834Y112728D03*
Y132019D03*
G54D19*
X264597Y100553D03*
Y110395D03*
X272471Y100553D03*
Y110395D03*
G54D29*
G01X486909Y0D02*
X19685D01*
G02X0Y19685I0J19685D01*
G01Y208661D01*
G02X19685Y228346I19685J0D01*
G01X486909D01*
G02X506594Y208661I0J-19685D01*
G01Y19685D01*
G02X486909Y0I-19685J0D01*
M02*
