G04 ================== begin FILE IDENTIFICATION RECORD ==================*
G04 Layout Name:  F:/对外部分项目/信号发生器改版/Hardware/Pcb/DDS.brd*
G04 Film Name:    PASTEMASK_TOP*
G04 File Format:  Gerber RS274X*
G04 File Origin:  Cadence Allegro 16.6-2015-S066*
G04 Origin Date:  Mon Feb 20 20:23:19 2017*
G04 *
G04 Layer:  PIN/PASTEMASK_TOP*
G04 Layer:  PACKAGE GEOMETRY/PASTEMASK_TOP*
G04 Layer:  BOARD GEOMETRY/OUTLINE*
G04 *
G04 Offset:    (0.000 0.000)*
G04 Mirror:    No*
G04 Mode:      Positive*
G04 Rotation:  0*
G04 FullContactRelief:  No*
G04 UndefLineWidth:     6.000*
G04 ================== end FILE IDENTIFICATION RECORD ====================*
%FSLAX25Y25*MOIN*%
%IR0*IPPOS*OFA0.00000B0.00000*MIA0B0*SFA1.00000B1.00000*%
%ADD19R,.062992X.062992*%
%ADD22R,.068898X.026575*%
%ADD21R,.127953X.07874*%
%ADD16R,.01X.059055*%
%ADD15R,.059055X.01*%
%ADD10R,.061024X.023622*%
%ADD12R,.037402X.016732*%
%ADD11R,.016732X.037402*%
%ADD18R,.043307X.055118*%
%ADD17O,.015748X.051181*%
%ADD13R,.03937X.023622*%
%ADD27R,.090551X.090551*%
%ADD14R,.055118X.022638*%
%ADD20R,.022638X.055118*%
%ADD23R,.076772X.023622*%
%ADD26R,.047244X.070866*%
%ADD25R,.058232X.093665*%
%ADD24R,.070866X.047244*%
%ADD28C,.000394*%
G75*
%LPD*%
G75*
G54D10*
X18278Y216919D03*
Y221919D03*
Y226919D03*
Y231919D03*
X39537Y221919D03*
Y216919D03*
Y231919D03*
Y226919D03*
X82480Y102028D03*
Y107028D03*
Y112028D03*
Y117028D03*
X103740Y107028D03*
Y102028D03*
Y117028D03*
Y112028D03*
X181476Y279006D03*
Y284006D03*
Y289006D03*
Y294006D03*
X202736Y279006D03*
Y289006D03*
Y284006D03*
Y294006D03*
X316152Y204222D03*
Y209222D03*
Y214222D03*
Y219222D03*
X322116Y252894D03*
Y257894D03*
Y262894D03*
Y267894D03*
X337411Y204222D03*
Y214222D03*
Y209222D03*
Y219222D03*
X343376Y252894D03*
Y262894D03*
Y257894D03*
Y267894D03*
G54D20*
X264557Y220335D03*
Y230236D03*
X271447Y220335D03*
Y230236D03*
X296260Y219282D03*
Y230532D03*
X303150Y219282D03*
Y230532D03*
X335413Y229941D03*
X342303D03*
G54D11*
X31718Y249924D03*
X26206D03*
X31718Y260849D03*
X26206D03*
X31718Y271774D03*
X26206D03*
X31718Y282700D03*
X26206D03*
X46939Y294577D03*
Y303868D03*
Y313159D03*
Y322451D03*
X58996Y48337D03*
X53484D03*
X55236Y98966D03*
Y108071D03*
X56752Y211988D03*
X51240D03*
Y220079D03*
X56752D03*
Y228169D03*
X51240D03*
X52451Y294577D03*
Y303868D03*
Y313159D03*
Y322451D03*
X65896Y48337D03*
X60748Y98966D03*
X66388D03*
Y108071D03*
X60748D03*
X66388Y117175D03*
X65541Y294577D03*
Y303868D03*
Y313159D03*
Y322451D03*
X71408Y48337D03*
X71900Y98966D03*
Y108071D03*
Y117175D03*
X71053Y294577D03*
Y303868D03*
Y313159D03*
Y322451D03*
X78307Y48337D03*
X82825Y159842D03*
X77313D03*
X90718Y48337D03*
X83819D03*
X88346Y159744D03*
X89587Y170079D03*
X84075D03*
X89587Y179665D03*
X84075D03*
X89587Y189252D03*
X84075D03*
X89587Y198839D03*
X84075D03*
X89587Y208425D03*
X84075D03*
X89587Y218012D03*
X84075D03*
X89587Y227598D03*
X84075D03*
X89587Y237185D03*
X84075D03*
X89587Y246772D03*
X84075D03*
X89587Y256358D03*
X84075D03*
X89665Y294577D03*
X84154D03*
X89665Y303868D03*
X84154D03*
X89665Y313159D03*
X84154D03*
X89656Y322441D03*
X84144D03*
X96230Y48337D03*
X99124Y71929D03*
X93858Y159744D03*
X104636Y71929D03*
X110433D03*
X115945D03*
X112825Y105945D03*
X112904Y111988D03*
X121742Y71929D03*
X118337Y105945D03*
X118415Y111988D03*
X127254Y71929D03*
X167274Y288189D03*
X172785D03*
X167500Y294380D03*
X173012D03*
X179941Y264331D03*
X179862Y270856D03*
X179144Y301171D03*
X179301Y310522D03*
X185453Y264331D03*
X185374Y270856D03*
X184656Y301171D03*
X184813Y310522D03*
X198346Y264331D03*
X198189Y270856D03*
X196663Y301220D03*
X191152D03*
X196762Y310423D03*
X191250D03*
X203858Y264331D03*
X203701Y270856D03*
X212785Y289793D03*
X212677Y283583D03*
X218297Y289793D03*
X218189Y283583D03*
X242628Y157746D03*
X248140D03*
X242628Y165276D03*
X248140D03*
X242628Y172805D03*
X248140D03*
X242815Y180177D03*
X248327D03*
X242628Y187864D03*
X248140D03*
X242628Y195394D03*
X248140D03*
Y202923D03*
X242628D03*
X243061Y230364D03*
Y242185D03*
X248573Y230364D03*
Y242185D03*
X264262Y210433D03*
Y240138D03*
X269774Y210433D03*
Y240138D03*
X291919Y74754D03*
X297431D03*
X296831Y208199D03*
X295345Y240659D03*
X302342Y208199D03*
X300856Y240659D03*
X304449Y306437D03*
X314065Y175216D03*
X308553D03*
X310000Y229646D03*
X309961Y306437D03*
X315512Y229646D03*
X317461Y359980D03*
X323051Y229646D03*
X328563D03*
X328120Y240659D03*
X322972Y359980D03*
X333632Y240659D03*
X345443D03*
X339931D03*
X370787Y204941D03*
X365276D03*
X376998Y204961D03*
X382510D03*
G54D12*
X48287Y57411D03*
Y62923D03*
Y71112D03*
Y76624D03*
Y84813D03*
Y90325D03*
Y98514D03*
Y104026D03*
Y114803D03*
Y120315D03*
Y141191D03*
Y135679D03*
Y164744D03*
Y170256D03*
Y184321D03*
Y189833D03*
X87612Y83077D03*
Y77565D03*
X87720Y87277D03*
Y92788D03*
X110994Y121004D03*
Y126516D03*
X153154Y105603D03*
Y111114D03*
X153154Y127888D03*
Y133400D03*
X167698Y75350D03*
X173950Y75399D03*
X167698Y80862D03*
X173950Y80911D03*
X179842Y75502D03*
Y81014D03*
X207313Y75502D03*
Y81014D03*
X202155Y106436D03*
Y111948D03*
Y127888D03*
Y133400D03*
X213908Y75502D03*
Y81014D03*
X213159Y303337D03*
Y297825D03*
X220502Y75502D03*
Y81014D03*
X227097Y75502D03*
Y81014D03*
X240285Y75502D03*
X233691D03*
X240285Y81014D03*
X233691D03*
X235669Y213730D03*
Y219242D03*
X246880Y75502D03*
Y81014D03*
X253474Y75502D03*
Y81014D03*
X287844Y287047D03*
Y281535D03*
Y296575D03*
Y291063D03*
X296663Y263534D03*
Y258022D03*
Y267244D03*
Y272756D03*
X302953Y263494D03*
Y257982D03*
X302835Y272707D03*
Y267195D03*
X327677Y284528D03*
Y290039D03*
G54D21*
X264242Y264459D03*
Y288868D03*
G54D13*
X96240Y86171D03*
X105295Y82431D03*
Y89912D03*
X303553Y67677D03*
Y75158D03*
X312608Y71417D03*
G54D22*
X288140Y258081D03*
Y269301D03*
G54D23*
X297441Y284784D03*
Y289784D03*
Y294784D03*
Y299784D03*
X317126Y289784D03*
Y284784D03*
Y294784D03*
Y299784D03*
G54D14*
X117923Y121348D03*
Y128238D03*
X221211Y305266D03*
Y298376D03*
G54D24*
X308344Y240939D03*
X321730D03*
G54D15*
X133947Y172618D03*
Y174587D03*
Y176555D03*
Y178524D03*
Y180492D03*
Y182461D03*
Y184429D03*
Y186398D03*
Y188366D03*
Y190335D03*
Y192303D03*
Y194272D03*
Y196240D03*
Y198209D03*
Y200177D03*
Y202146D03*
Y204114D03*
Y206083D03*
Y208051D03*
Y210020D03*
Y211988D03*
Y213957D03*
Y215925D03*
Y217894D03*
Y219862D03*
Y221831D03*
Y223799D03*
Y225768D03*
Y227736D03*
Y229705D03*
Y231673D03*
Y233642D03*
Y235610D03*
Y237579D03*
Y239547D03*
Y241516D03*
X218199Y172618D03*
Y180492D03*
Y178524D03*
Y176555D03*
Y174587D03*
Y190335D03*
Y188366D03*
Y186398D03*
Y184429D03*
Y182461D03*
Y198209D03*
Y196240D03*
Y194272D03*
Y192303D03*
Y206083D03*
Y204114D03*
Y202146D03*
Y200177D03*
Y213957D03*
Y211988D03*
Y210020D03*
Y208051D03*
Y221831D03*
Y219862D03*
Y217894D03*
Y215925D03*
Y229705D03*
Y227736D03*
Y225768D03*
Y223799D03*
Y239547D03*
Y237579D03*
Y235610D03*
Y233642D03*
Y231673D03*
Y241516D03*
G54D25*
X307284Y292284D03*
G54D16*
X147530Y164941D03*
X145561D03*
X143592D03*
X141624D03*
Y249193D03*
X143592D03*
X145561D03*
X147530D03*
X157372Y164941D03*
X155404D03*
X153435D03*
X151466D03*
X149498D03*
Y249193D03*
X151466D03*
X153435D03*
X155404D03*
X157372D03*
X165246Y164941D03*
X163278D03*
X161309D03*
X159340D03*
Y249193D03*
X161309D03*
X163278D03*
X165246D03*
X173120Y164941D03*
X171152D03*
X169183D03*
X167214D03*
Y249193D03*
X169183D03*
X171152D03*
X173120D03*
X180994Y164941D03*
X179026D03*
X177057D03*
X175088D03*
Y249193D03*
X177057D03*
X179026D03*
X180994D03*
X188868Y164941D03*
X186900D03*
X184931D03*
X182963D03*
Y249193D03*
X184931D03*
X186900D03*
X188868D03*
X196742Y164941D03*
X194774D03*
X192805D03*
X190837D03*
Y249193D03*
X192805D03*
X194774D03*
X196742D03*
X206585Y164941D03*
X204616D03*
X202648D03*
X200679D03*
X198711D03*
Y249193D03*
X200679D03*
X202648D03*
X204616D03*
X206585D03*
X210522Y164941D03*
X208553D03*
Y249193D03*
X210522D03*
G54D26*
X311776Y255169D03*
Y268555D03*
G54D17*
X164718Y105684D03*
X162159D03*
Y128223D03*
X164718D03*
X172395Y105684D03*
X169836D03*
X167277D03*
Y128223D03*
X169836D03*
X172395D03*
X180072Y105684D03*
X177513D03*
X174954D03*
Y128223D03*
X177513D03*
X180072D03*
X190308Y105684D03*
X187749D03*
X185190D03*
X182631D03*
Y128223D03*
X185190D03*
X187749D03*
X190308D03*
X214639Y105684D03*
X212080D03*
Y128223D03*
X214639D03*
X222316Y105684D03*
X219757D03*
X217198D03*
Y128223D03*
X219757D03*
X222316D03*
X229993Y105684D03*
X227434D03*
X224875D03*
Y128223D03*
X227434D03*
X229993D03*
X237670Y105684D03*
X235111D03*
X232552D03*
Y128223D03*
X235111D03*
X237670D03*
X240229Y105684D03*
Y128223D03*
G54D27*
X338848Y282795D03*
Y302087D03*
G54D18*
X245158Y211644D03*
Y221486D03*
X253032Y211644D03*
Y221486D03*
G54D28*
G01X19685Y0D02*
X374016D01*
G03X393701Y19685I0J19685D01*
G01Y374016D01*
G03X374016Y393701I-19685J0D01*
G01X19685D01*
G03X0Y374016I0J-19685D01*
G01Y19685D01*
G03X19685Y0I19685J0D01*
G54D19*
X254803Y298927D03*
X272520D03*
M02*
