G04 ================== begin FILE IDENTIFICATION RECORD ==================*
G04 Layout Name:  F:/对外部分项目/信号发生器改版/Hardware/Pcb/DDS.brd*
G04 Film Name:    SILKSCREEN_TOP*
G04 File Format:  Gerber RS274X*
G04 File Origin:  Cadence Allegro 16.6-2015-S066*
G04 Origin Date:  Mon Feb 20 20:23:19 2017*
G04 *
G04 Layer:  REF DES/SILKSCREEN_TOP*
G04 Layer:  PACKAGE GEOMETRY/SILKSCREEN_TOP*
G04 Layer:  BOARD GEOMETRY/SILKSCREEN_TOP*
G04 Layer:  BOARD GEOMETRY/OUTLINE*
G04 *
G04 Offset:    (0.000 0.000)*
G04 Mirror:    No*
G04 Mode:      Positive*
G04 Rotation:  0*
G04 FullContactRelief:  No*
G04 UndefLineWidth:     6.000*
G04 ================== end FILE IDENTIFICATION RECORD ====================*
%FSLAX25Y25*MOIN*%
%IR0*IPPOS*OFA0.00000B0.00000*MIA0B0*SFA1.00000B1.00000*%
%ADD10C,.004*%
%ADD11C,.006*%
%ADD12C,.005906*%
%ADD13C,.003937*%
%ADD14C,.009843*%
%ADD15C,.007874*%
%ADD16C,.01*%
%ADD17C,.000394*%
%ADD18C,.019685*%
G75*
%LPD*%
G75*
G36*
G01X119757Y290562D02*
G02X121005Y292624I597194J-360019D01*
G01X122135Y294483D01*
G02X122165Y294500I30J-18D01*
G02X122198Y294491I0J-68D01*
G02X122350Y294405I-8116J-14568D01*
G02X122526Y294302I-4258J-7441D01*
G02X122726Y294179I-7672J-12709D01*
G01X123239Y293858D01*
X122894Y293111D01*
G03X122744Y292775I14130J-6515D01*
G03X122578Y292382I25670J-11110D01*
G03X122421Y291996I25159J-10437D01*
G03X122301Y291681I10877J-4320D01*
G03X122166Y291277I7513J-2736D01*
G03X122103Y290992I1742J-531D01*
G03X122087Y290701I1814J-248D01*
G03X122109Y290272I8124J195D01*
G03X122254Y289233I8392J645D01*
G03X122582Y287800I30654J6263D01*
G03X122964Y286360I65860J16715D01*
G03X123171Y286085I455J126D01*
G03X123214Y286073I41J67D01*
G03X123280Y286080I-5J376D01*
G03X123357Y286101I-94J484D01*
G03X123433Y286135I-205J560D01*
G02X123752Y286138I163J-304D01*
G02X124048Y285867I-344J-673D01*
G02X124282Y285323I-1616J-1014D01*
G02X124414Y284573I-4929J-1255D01*
G03X124461Y284160I15612J1559D01*
G03X124505Y284000I565J71D01*
G03X124582Y283921I145J65D01*
G03X124722Y283881I190J399D01*
G03X125036Y283952I56J484D01*
G03X125262Y284207I-320J512D01*
G03X125395Y284680I-1354J635D01*
G03X125432Y285397I-6388J694D01*
G03X125408Y285941I-6566J-23D01*
G03X125336Y286369I-2698J-234D01*
G03X125203Y286750I-2202J-555D01*
G03X124992Y287145I-3114J-1410D01*
G02X124841Y287403I4663J2898D01*
G02X124780Y287561I573J314D01*
G02X124773Y287699I354J87D01*
G02X124814Y287868I887J-125D01*
G03X124886Y288280I-1221J426D01*
G03X124863Y288933I-7141J78D01*
G03X124778Y289595I-7023J-567D01*
G03X124637Y290056I-1972J-349D01*
G01X124451Y290477D01*
X124902Y290920D01*
G03X125095Y291123I-3061J3115D01*
G03X125304Y291367I-5585J4994D01*
G03X125496Y291612I-5586J4582D01*
G03X125638Y291818I-2409J1808D01*
G01X125749Y291994D01*
G02X125847Y292148I66477J-41882D01*
G01X125930Y292280D01*
G02X125947Y292305I502J-318D01*
G02X125968Y292309I12J-9D01*
G02X126119Y292195I-8455J-11351D01*
G02X126294Y292056I-3732J-4878D01*
G02X126498Y291884I-7807J-9462D01*
G03X127020Y291466I5894J6835D01*
G03X127575Y291086I5504J7435D01*
G03X128143Y290755I4747J7493D01*
G03X128707Y290484I3407J6379D01*
G02X128932Y290380I-1544J-3615D01*
G02X129117Y290275I-966J-1916D01*
G02X129253Y290180I-1018J-1601D01*
G02X129271Y290126I-32J-41D01*
G02X129164Y289915I-523J133D01*
G02X128811Y289508I-8343J6888D01*
G02X128334Y289014I-9278J8476D01*
G02X127742Y288451I-17641J17971D01*
G03X127053Y287762I7918J-8610D01*
G03X126660Y287216I2066J-1902D01*
G03X126458Y286668I1691J-932D01*
G03X126391Y286000I3307J-672D01*
G03X126396Y285744I6471J-7D01*
G03X126411Y285500I5309J207D01*
G03X126433Y285296I4852J411D01*
G03X126459Y285193I409J52D01*
G03X126511Y285127I142J58D01*
G03X126572Y285125I32J43D01*
G03X126662Y285206I-204J320D01*
G03X126847Y285440I-7691J6251D01*
G02X127335Y285930I2082J-1590D01*
G02X127903Y286234I1212J-1581D01*
G02X128484Y286320I526J-1537D01*
G02X129013Y286181I-42J-1234D01*
G03X129118Y286129I1455J2790D01*
G03X129216Y286085I981J2064D01*
G03X129299Y286052I876J2097D01*
G03X129338Y286045I39J103D01*
G03X129378Y286063I0J54D01*
G03X129568Y286275I-19767J17884D01*
G03X129786Y286528I-8595J7613D01*
G03X130032Y286829I-16104J13440D01*
G02X130609Y287505I11751J-9449D01*
G02X131168Y288074I7282J-6598D01*
G02X131656Y288500I6302J-6719D01*
G02X131910Y288590I254J-312D01*
G02X132051Y288552I0J-274D01*
G01X133663Y287582D01*
G02X135483Y286474I-116880J-194072D01*
G02X137608Y285159I-223277J-362984D01*
G01X143114Y281727D01*
X135904Y281704D01*
G02X132627Y281696I-5244J1618256D01*
G01X128720Y281694D01*
X124820Y281696D01*
G02X121573Y281704I1921J1576899D01*
G01X114452Y281727D01*
X118284Y288113D01*
G02X119757Y290562I1169952J-701986D01*
G37*
G36*
G01X131002Y308937D02*
G02X131105Y309085I3146J-2065D01*
G02X131193Y309204I5098J-3713D01*
G02X131214Y309205I11J-8D01*
G02X131420Y308921I-792J-792D01*
G01X133572Y304687D01*
X135742Y300406D01*
G02X135798Y300173I-461J-234D01*
G02X135721Y299816I-862J0D01*
G02X135490Y299439I-1629J741D01*
G02X135141Y299092I-1725J1380D01*
G02X134715Y298818I-1540J1931D01*
G02X133890Y298481I-2507J4962D01*
G02X132926Y298236I-2606J8213D01*
G02X131696Y298052I-2714J13978D01*
G02X130026Y297908I-4798J45814D01*
G03X129251Y297847I2591J-38072D01*
G03X128504Y297773I2952J-33323D01*
G03X127867Y297695I3381J-30383D01*
G03X127526Y297630I401J-3029D01*
G03X126829Y297407I1383J-5516D01*
G03X126100Y297078I2959J-7531D01*
G03X125441Y296697I3435J-6710D01*
G03X124962Y296317I1725J-2667D01*
G01X124501Y295873D01*
X123966Y296237D01*
G02X123763Y296381I3292J4846D01*
G02X123598Y296512I1811J2439D01*
G02X123473Y296625I2397J2796D01*
G02X123467Y296664I22J23D01*
G02X123542Y296788I6753J-3971D01*
G01X127052Y302508D01*
X130362Y307904D01*
G02X130886Y308754I348374J-213779D01*
G02X131002Y308937I6544J-4036D01*
G37*
G36*
G01X138362Y294168D02*
G02X138551Y294234I1363J-3633D01*
G02X138710Y294280I1141J-3600D01*
G02X138784Y294286I52J-193D01*
G02X138902Y294207I-17J-153D01*
G01X141656Y289198D01*
X144414Y284178D01*
G02X144399Y284070I-80J-44D01*
G02X144376Y284067I-13J13D01*
G01X142908Y284910D01*
G02X141284Y285847I253570J441564D01*
G02X139359Y286964I503285J868928D01*
G02X136533Y288616I469353J806215D01*
G02X135225Y289408I28463J48499D01*
G02X134441Y289912I17945J28764D01*
G02X134344Y290094I121J182D01*
G02X134377Y290217I242J0D01*
G02X134479Y290348I569J-335D01*
G02X134663Y290506I1112J-1110D01*
G02X134968Y290719I4885J-6676D01*
G03X135584Y291191I-3194J4805D01*
G03X136199Y291789I-5719J6506D01*
G03X136764Y292457I-6538J6096D01*
G03X137224Y293138I-5558J4248D01*
G02X137494Y293575I11289J-6689D01*
G02X137671Y293795I1161J-751D01*
G02X137864Y293942I617J-610D01*
G02X138162Y294088I1447J-2575D01*
G02X138362Y294168I2058J-4870D01*
G37*
G36*
G01X162159Y100565D02*
G03I-787J0D01*
G37*
G36*
G01X212080D02*
G03I-787J0D01*
G37*
G36*
G01X1554053Y5042530D02*
X1553640Y5041868D01*
X1554426Y5040793D01*
X1555831Y5038147D01*
X1556203Y5036990D01*
X1556906Y5033765D01*
X1558229D01*
X1559345Y5034922D01*
X1560172Y5037486D01*
X1559676Y5038395D01*
X1557650Y5040256D01*
X1554053Y5042530D01*
G37*
G36*
G01X1588782Y5038809D02*
X1586839Y5036824D01*
X1576999D01*
X1591841Y5035749D01*
X1588782Y5038809D01*
G37*
G36*
G01X1643190Y5038147D02*
X1639882Y5035088D01*
X1630084D01*
X1628347D01*
X1612389D01*
X1614332Y5033103D01*
X1616399Y5033558D01*
X1619583Y5033765D01*
X1647117D01*
X1643190Y5038147D01*
G37*
G36*
G01X1624626Y5042943D02*
X1624172Y5042530D01*
X1625949Y5040462D01*
X1627479Y5037816D01*
X1628347Y5035088D01*
X1630084D01*
X1631241Y5036700D01*
X1631159Y5039222D01*
X1630538Y5039884D01*
X1628223Y5041372D01*
X1624626Y5042943D01*
G37*
G36*
G01X1691437Y5042075D02*
X1689494Y5039884D01*
X1670476D01*
X1694951Y5039222D01*
X1691437Y5042075D01*
G37*
%LPC*%
G75*
G36*
G01X126900Y291085D02*
G03X126773Y291205I-6323J-6624D01*
G03X126617Y291344I-5398J-5877D01*
G03X126442Y291493I-7676J-8809D01*
G01X125996Y291867D01*
X125892Y291555D01*
G02X125830Y291402I-1086J359D01*
G02X125719Y291194I-4108J2052D01*
G02X125585Y290971I-4470J2528D01*
G02X125446Y290765I-3592J2277D01*
G03X125229Y290452I8345J-6004D01*
G03X125163Y290301I403J-268D01*
G03X125162Y290158I291J-73D01*
G03X125234Y289916I2388J578D01*
G02X125286Y289714I-1144J-404D01*
G02X125334Y289384I-7148J-1206D01*
G02X125371Y289005I-8170J-993D01*
G02X125391Y288626I-8097J-609D01*
G03X125427Y288011I9944J278D01*
G03X125504Y287603I2149J194D01*
G03X125650Y287252I1640J476D01*
G03X125910Y286836I4010J2222D01*
G01X126089Y286582D01*
X126354Y287142D01*
G02X126468Y287375I7411J-3505D01*
G02X126594Y287613I8437J-4319D01*
G02X126714Y287823I7423J-4074D01*
G02X126803Y287960I1597J-937D01*
G01X126988Y288220D01*
X126749Y289094D01*
X126511Y289969D01*
X126752Y290460D01*
G03X126840Y290655I-3376J1651D01*
G03X126906Y290832I-2146J903D01*
G03X126949Y290979I-2163J709D01*
G03X126940Y291036I-71J18D01*
G03X126900Y291085I-214J-132D01*
G37*
G36*
G01X128736Y286025D02*
G03X128590Y286083I-668J-1460D01*
G03X128452Y286123I-470J-1368D01*
G03X128344Y286136I-108J-460D01*
G03X127883Y286028I-1J-1036D01*
G03X127356Y285694I1320J-2664D01*
G03X126929Y285276I1765J-2228D01*
G03X126798Y284911I442J-365D01*
G03X126828Y284737I519J0D01*
G03X126916Y284634I180J64D01*
G03X127085Y284584I197J355D01*
G03X127401Y284576I244J3560D01*
G03X127781Y284626I-35J1751D01*
G03X128174Y284758I-567J2324D01*
G03X128532Y284954I-933J2129D01*
G03X128808Y285192I-820J1229D01*
G03X129037Y285474I-2616J2365D01*
G03X129104Y285656I-285J208D01*
G03X129051Y285805I-196J15D01*
G03X128864Y285956I-654J-614D01*
G03X128736Y286025I-641J-1051D01*
G37*
G36*
G01X128227Y290430D02*
G03X128123Y290524I-830J-814D01*
G03X127981Y290625I-918J-1145D01*
G03X127812Y290720I-1172J-1886D01*
G01X127371Y290943D01*
X127176Y290595D01*
G03X127035Y290265I1441J-810D01*
G03X126991Y289952I966J-293D01*
G03X127046Y289607I1283J27D01*
G03X127205Y289178I3555J1072D01*
G03X127384Y288820I3860J1708D01*
G03X127512Y288754I115J64D01*
G03X127681Y288827I-31J301D01*
G03X128183Y289277I-17698J20246D01*
G01X128683Y289737D01*
X128468Y289987D01*
G02X128386Y290092I1088J935D01*
G02X128316Y290202I1038J737D01*
G02X128267Y290300I923J523D01*
G02X128253Y290367I152J66D01*
G03X128227Y290430I-91J0D01*
G37*
G36*
G01X123910Y285663D02*
G03X123811Y285756I-430J-357D01*
G03X123700Y285817I-283J-385D01*
G03X123575Y285848I-184J-475D01*
G01X123316Y285878D01*
X123374Y285258D01*
G03X123450Y284786I3602J337D01*
G03X123582Y284453I1140J261D01*
G03X123774Y284247I567J334D01*
G03X124026Y284151I317J456D01*
G01X124280Y284121D01*
X124221Y284689D01*
G03X124186Y284926I-2934J-307D01*
G03X124131Y285172I-3477J-653D01*
G03X124065Y285390I-3039J-797D01*
G03X123998Y285537I-774J-265D01*
G03X123910Y285663I-802J-466D01*
G37*
G36*
G01X130157Y286193D02*
G03X130142Y286306I-949J-71D01*
G03X130120Y286389I-692J-135D01*
G03X130094Y286408I-26J-9D01*
G03X129984Y286355I2J-144D01*
G03X129585Y285852I28244J-22835D01*
G03X129189Y285337I35830J-27939D01*
G03X129194Y285255I50J-38D01*
G03X129291Y285230I70J70D01*
G03X129551Y285316I-854J3012D01*
G03X129816Y285434I-892J2342D01*
G03X129997Y285560I-398J766D01*
G03X130067Y285646I-242J267D01*
G03X130119Y285762I-530J308D01*
G03X130151Y285902I-745J246D01*
G03X130162Y286059I-1146J158D01*
G03X130157Y286193I-1826J0D01*
G37*
G36*
G01X131219Y287672D02*
G03X131123Y287725I-74J-19D01*
G03X130959Y287620I103J-340D01*
G03X130644Y287241I7332J-6418D01*
G03X130465Y287008I8570J-6766D01*
G03X130321Y286806I4514J-3372D01*
G03X130207Y286634I8910J-6066D01*
G03X130210Y286603I21J-14D01*
G03X130241Y286594I24J24D01*
G03X130358Y286622I-590J2716D01*
G03X130500Y286664I-576J2192D01*
G03X130661Y286722I-1271J3809D01*
G03X130940Y286854I-700J1830D01*
G03X131120Y287005I-336J583D01*
G03X131219Y287190I-391J328D01*
G03X131251Y287425I-789J230D01*
G03X131219Y287672I-995J-6D01*
G37*
%LPD*%
G75*
G54D10*
G01X24667Y67624D02*
Y70724D01*
G01X26277D02*
Y67624D01*
G01Y69174D02*
X24667D01*
G01X27129Y68089D02*
X27359Y67831D01*
X27627Y67676D01*
X27972Y67624D01*
X28317Y67727D01*
X28586Y67934D01*
X28777Y68296D01*
X28816Y68709D01*
X28739Y69122D01*
X28547Y69381D01*
X28279Y69587D01*
X28011Y69639D01*
X27742Y69587D01*
X27397Y69381D01*
X27512Y70724D01*
X28547D01*
G01X24569Y128018D02*
Y131118D01*
G01X26179D02*
Y128018D01*
G01Y129568D02*
X24569D01*
G01X27797Y128018D02*
X27874Y128689D01*
X27989Y129258D01*
X28142Y129774D01*
X28334Y130343D01*
X28641Y131118D01*
X27107D01*
G01X24648Y179140D02*
Y182240D01*
G01X26258D02*
Y179140D01*
G01Y180690D02*
X24648D01*
G01X27953Y179140D02*
X28221Y179192D01*
X28528Y179346D01*
X28719Y179605D01*
X28796Y179966D01*
X28719Y180328D01*
X28490Y180638D01*
X28144Y180793D01*
X27761D01*
X27531Y180896D01*
X27339Y181155D01*
X27263Y181516D01*
X27378Y181878D01*
X27646Y182136D01*
X27953Y182240D01*
X28259Y182136D01*
X28528Y181878D01*
X28643Y181516D01*
X28566Y181155D01*
X28375Y180896D01*
X28144Y180793D01*
X27761D01*
X27416Y180638D01*
X27186Y180328D01*
X27110Y179966D01*
X27186Y179605D01*
X27378Y179346D01*
X27684Y179192D01*
X27953Y179140D01*
G01X25741Y226265D02*
Y224044D01*
X25895Y223579D01*
X26201Y223269D01*
X26585Y223165D01*
X26968Y223269D01*
X27275Y223579D01*
X27428Y224044D01*
Y226265D01*
G01X29085Y223165D02*
Y226265D01*
X28625Y225645D01*
G01Y223165D02*
X29544D01*
G01X31585D02*
Y226265D01*
X31125Y225645D01*
G01Y223165D02*
X32044D01*
G01X27305Y288185D02*
X27075Y288340D01*
X26807Y288443D01*
X26500D01*
X26155Y288288D01*
X25887Y288030D01*
X25695Y287720D01*
X25542Y287203D01*
X25503Y286738D01*
X25580Y286273D01*
X25695Y285963D01*
X25925Y285653D01*
X26193Y285447D01*
X26462Y285343D01*
X26730D01*
X26998Y285447D01*
X27228Y285602D01*
X27420Y285808D01*
G01X29422Y285343D02*
Y288443D01*
X28003Y286222D01*
X29920D01*
G01X31462Y288443D02*
X31155Y288340D01*
X30925Y288082D01*
X30772Y287772D01*
X30657Y287358D01*
X30618Y286893D01*
X30657Y286428D01*
X30772Y286015D01*
X30925Y285705D01*
X31155Y285447D01*
X31462Y285343D01*
X31768Y285447D01*
X31998Y285705D01*
X32152Y286015D01*
X32267Y286428D01*
X32305Y286893D01*
X32267Y287358D01*
X32152Y287772D01*
X31998Y288082D01*
X31768Y288340D01*
X31462Y288443D01*
G01X24451Y326236D02*
Y329336D01*
G01X26061D02*
Y326236D01*
G01Y327786D02*
X24451D01*
G01X28216Y326236D02*
Y329336D01*
X26798Y327114D01*
X28714D01*
G01X27551Y255803D02*
X27321Y255958D01*
X27053Y256062D01*
X26746D01*
X26401Y255906D01*
X26133Y255648D01*
X25941Y255338D01*
X25788Y254822D01*
X25749Y254356D01*
X25826Y253891D01*
X25941Y253582D01*
X26171Y253271D01*
X26439Y253065D01*
X26708Y252961D01*
X26976D01*
X27244Y253065D01*
X27474Y253220D01*
X27666Y253426D01*
G01X29668Y252961D02*
Y256062D01*
X28249Y253840D01*
X30166D01*
G01X31631Y252961D02*
X31708Y253633D01*
X31823Y254201D01*
X31976Y254718D01*
X32168Y255286D01*
X32474Y256062D01*
X30941D01*
G01X26039Y263867D02*
Y266967D01*
X26998D01*
X27304Y266812D01*
X27496Y266605D01*
X27573Y266192D01*
X27496Y265779D01*
X27266Y265520D01*
X26998Y265365D01*
X26039D01*
G01X26998D02*
X27573Y263867D01*
G01X28463Y264487D02*
X28693Y264125D01*
X28999Y263919D01*
X29344Y263867D01*
X29651Y263919D01*
X29958Y264177D01*
X30149Y264487D01*
X30188Y264797D01*
X30111Y265159D01*
X29843Y265417D01*
X29574Y265520D01*
X29229D01*
G01X29574D02*
X29804Y265675D01*
X29996Y265934D01*
X30073Y266244D01*
X29996Y266554D01*
X29804Y266812D01*
X29459Y266967D01*
X29114Y266915D01*
X28769Y266709D01*
G01X32266Y263867D02*
Y266967D01*
X30848Y264745D01*
X32764D01*
G01X27905Y277929D02*
X27675Y278084D01*
X27407Y278188D01*
X27100D01*
X26755Y278032D01*
X26487Y277774D01*
X26295Y277464D01*
X26142Y276948D01*
X26104Y276482D01*
X26180Y276018D01*
X26295Y275708D01*
X26525Y275397D01*
X26794Y275191D01*
X27062Y275088D01*
X27330D01*
X27599Y275191D01*
X27829Y275346D01*
X28020Y275552D01*
G01X30022Y275088D02*
Y278188D01*
X28604Y275966D01*
X30520D01*
G01X32062Y275088D02*
Y278188D01*
X31602Y277568D01*
G01Y275088D02*
X32522D01*
G01X36154Y50481D02*
X37113Y47381D01*
X38071Y50481D01*
G01X37419Y69576D02*
X37573Y69730D01*
X37688Y69989D01*
X37764Y70351D01*
X37688Y70660D01*
X37534Y70867D01*
X37266Y71022D01*
X36231D01*
Y67922D01*
X37496D01*
X37764Y68129D01*
X37918Y68439D01*
X37994Y68800D01*
X37918Y69162D01*
X37688Y69472D01*
X37419Y69576D01*
X36231D01*
G01X36154Y88463D02*
X37113Y91563D01*
X38071Y88463D01*
G01X37726Y89548D02*
X36499D01*
G01X37183Y305497D02*
X38142Y302397D01*
X39100Y305497D01*
G01X38448Y318554D02*
X38602Y318709D01*
X38717Y318968D01*
X38793Y319329D01*
X38717Y319639D01*
X38563Y319846D01*
X38295Y320001D01*
X37260D01*
Y316901D01*
X38525D01*
X38793Y317108D01*
X38947Y317418D01*
X39023Y317779D01*
X38947Y318141D01*
X38717Y318451D01*
X38448Y318554D01*
X37260D01*
G01X37183Y331405D02*
X38142Y334505D01*
X39100Y331405D01*
G01X38755Y332490D02*
X37528D01*
G01X46513Y36464D02*
X47471Y39564D01*
X48430Y36464D01*
G01X48084Y37549D02*
X46858D01*
G01X46995Y67523D02*
X46765Y67678D01*
X46497Y67781D01*
X46190D01*
X45845Y67626D01*
X45577Y67368D01*
X45385Y67058D01*
X45232Y66541D01*
X45193Y66076D01*
X45270Y65611D01*
X45385Y65301D01*
X45615Y64991D01*
X45883Y64784D01*
X46152Y64681D01*
X46420D01*
X46688Y64784D01*
X46918Y64939D01*
X47110Y65146D01*
G01X49112Y64681D02*
Y67781D01*
X47693Y65559D01*
X49610D01*
G01X51152Y64681D02*
X51420Y64733D01*
X51727Y64888D01*
X51918Y65146D01*
X51995Y65508D01*
X51918Y65869D01*
X51688Y66179D01*
X51343Y66335D01*
X50960D01*
X50730Y66438D01*
X50538Y66696D01*
X50462Y67058D01*
X50577Y67419D01*
X50845Y67678D01*
X51152Y67781D01*
X51458Y67678D01*
X51727Y67419D01*
X51842Y67058D01*
X51765Y66696D01*
X51573Y66438D01*
X51343Y66335D01*
X50960D01*
X50615Y66179D01*
X50385Y65869D01*
X50308Y65508D01*
X50385Y65146D01*
X50577Y64888D01*
X50883Y64733D01*
X51152Y64681D01*
G01X45385Y78530D02*
Y81630D01*
X46343D01*
X46650Y81474D01*
X46842Y81268D01*
X46918Y80854D01*
X46842Y80441D01*
X46612Y80183D01*
X46343Y80028D01*
X45385D01*
G01X46343D02*
X46918Y78530D01*
G01X47808Y79150D02*
X48038Y78788D01*
X48345Y78581D01*
X48690Y78530D01*
X48997Y78581D01*
X49303Y78839D01*
X49495Y79150D01*
X49533Y79460D01*
X49457Y79821D01*
X49188Y80079D01*
X48920Y80183D01*
X48575D01*
G01X48920D02*
X49150Y80338D01*
X49342Y80596D01*
X49418Y80906D01*
X49342Y81216D01*
X49150Y81474D01*
X48805Y81630D01*
X48460Y81578D01*
X48115Y81371D01*
G01X50308Y78994D02*
X50538Y78736D01*
X50807Y78581D01*
X51152Y78530D01*
X51497Y78633D01*
X51765Y78839D01*
X51957Y79201D01*
X51995Y79614D01*
X51918Y80028D01*
X51727Y80286D01*
X51458Y80493D01*
X51190Y80544D01*
X50922Y80493D01*
X50577Y80286D01*
X50692Y81630D01*
X51727D01*
G01X46837Y94993D02*
X46607Y95148D01*
X46339Y95252D01*
X46032D01*
X45687Y95096D01*
X45419Y94838D01*
X45227Y94528D01*
X45074Y94012D01*
X45036Y93547D01*
X45112Y93082D01*
X45227Y92772D01*
X45457Y92462D01*
X45726Y92255D01*
X45994Y92152D01*
X46262D01*
X46531Y92255D01*
X46761Y92410D01*
X46952Y92616D01*
G01X48954Y92152D02*
Y95252D01*
X47536Y93030D01*
X49452D01*
G01X50151Y92772D02*
X50381Y92410D01*
X50687Y92203D01*
X51032Y92152D01*
X51339Y92203D01*
X51646Y92462D01*
X51837Y92772D01*
X51876Y93082D01*
X51799Y93443D01*
X51531Y93702D01*
X51262Y93805D01*
X50917D01*
G01X51262D02*
X51492Y93960D01*
X51684Y94218D01*
X51761Y94528D01*
X51684Y94838D01*
X51492Y95096D01*
X51147Y95252D01*
X50802Y95200D01*
X50457Y94993D01*
G01X46837Y108812D02*
X46607Y108967D01*
X46339Y109070D01*
X46032D01*
X45687Y108915D01*
X45419Y108657D01*
X45227Y108347D01*
X45074Y107830D01*
X45036Y107366D01*
X45112Y106901D01*
X45227Y106591D01*
X45457Y106280D01*
X45726Y106074D01*
X45994Y105970D01*
X46262D01*
X46531Y106074D01*
X46761Y106229D01*
X46952Y106435D01*
G01X48954Y105970D02*
Y109070D01*
X47536Y106849D01*
X49452D01*
G01X50266Y108554D02*
X50496Y108864D01*
X50764Y109019D01*
X51071Y109070D01*
X51454Y108967D01*
X51723Y108709D01*
X51799Y108399D01*
X51761Y108089D01*
X51607Y107830D01*
X50841Y107314D01*
X50496Y106952D01*
X50266Y106435D01*
X50189Y105970D01*
X51799D01*
G01X45513Y122043D02*
Y125143D01*
X46471D01*
X46778Y124988D01*
X46970Y124782D01*
X47046Y124368D01*
X46970Y123955D01*
X46740Y123697D01*
X46471Y123542D01*
X45513D01*
G01X46471D02*
X47046Y122043D01*
G01X47936Y122663D02*
X48166Y122302D01*
X48473Y122095D01*
X48818Y122043D01*
X49124Y122095D01*
X49431Y122353D01*
X49623Y122663D01*
X49661Y122973D01*
X49584Y123335D01*
X49316Y123593D01*
X49048Y123697D01*
X48703D01*
G01X49048D02*
X49278Y123852D01*
X49470Y124110D01*
X49546Y124420D01*
X49470Y124730D01*
X49278Y124988D01*
X48933Y125143D01*
X48588Y125092D01*
X48243Y124885D01*
G01X50551Y123335D02*
X50819Y123697D01*
X51050Y123903D01*
X51356Y124007D01*
X51625Y123903D01*
X51816Y123697D01*
X51970Y123387D01*
X52008Y123025D01*
X51970Y122715D01*
X51816Y122405D01*
X51586Y122147D01*
X51318Y122043D01*
X51011Y122147D01*
X50743Y122457D01*
X50590Y122922D01*
X50551Y123438D01*
X50628Y124110D01*
X50743Y124472D01*
X50935Y124833D01*
X51203Y125092D01*
X51471Y125143D01*
X51739Y125040D01*
X51931Y124782D01*
G01X46611Y146086D02*
X46381Y146241D01*
X46113Y146344D01*
X45806D01*
X45461Y146189D01*
X45193Y145931D01*
X45001Y145621D01*
X44848Y145104D01*
X44809Y144639D01*
X44886Y144174D01*
X45001Y143864D01*
X45231Y143554D01*
X45499Y143347D01*
X45768Y143244D01*
X46036D01*
X46304Y143347D01*
X46534Y143502D01*
X46726Y143709D01*
G01X47424D02*
X47654Y143451D01*
X47923Y143296D01*
X48268Y143244D01*
X48613Y143347D01*
X48881Y143554D01*
X49073Y143916D01*
X49111Y144329D01*
X49034Y144742D01*
X48843Y145001D01*
X48574Y145207D01*
X48306Y145259D01*
X48038Y145207D01*
X47693Y145001D01*
X47808Y146344D01*
X48843D01*
G01X50039Y145827D02*
X50269Y146137D01*
X50538Y146292D01*
X50844Y146344D01*
X51228Y146241D01*
X51496Y145982D01*
X51573Y145672D01*
X51534Y145362D01*
X51381Y145104D01*
X50614Y144587D01*
X50269Y144226D01*
X50039Y143709D01*
X49963Y143244D01*
X51573D01*
G01X45227Y172398D02*
Y175498D01*
X46186D01*
X46492Y175342D01*
X46684Y175136D01*
X46761Y174723D01*
X46684Y174309D01*
X46454Y174051D01*
X46186Y173896D01*
X45227D01*
G01X46186D02*
X46761Y172398D01*
G01X47651Y173018D02*
X47881Y172656D01*
X48187Y172449D01*
X48532Y172398D01*
X48839Y172449D01*
X49146Y172708D01*
X49337Y173018D01*
X49376Y173328D01*
X49299Y173689D01*
X49031Y173948D01*
X48762Y174051D01*
X48417D01*
G01X48762D02*
X48992Y174206D01*
X49184Y174464D01*
X49261Y174774D01*
X49184Y175084D01*
X48992Y175342D01*
X48647Y175498D01*
X48302Y175446D01*
X47957Y175239D01*
G01X50917Y172398D02*
X50994Y173069D01*
X51109Y173638D01*
X51262Y174154D01*
X51454Y174723D01*
X51761Y175498D01*
X50227D01*
G01X47202Y195052D02*
X46972Y195207D01*
X46703Y195311D01*
X46397D01*
X46052Y195156D01*
X45783Y194897D01*
X45592Y194587D01*
X45438Y194071D01*
X45400Y193606D01*
X45477Y193141D01*
X45592Y192831D01*
X45822Y192520D01*
X46090Y192314D01*
X46358Y192211D01*
X46627D01*
X46895Y192314D01*
X47125Y192469D01*
X47317Y192676D01*
G01X48015D02*
X48245Y192417D01*
X48513Y192262D01*
X48858Y192211D01*
X49203Y192314D01*
X49472Y192520D01*
X49663Y192882D01*
X49702Y193296D01*
X49625Y193709D01*
X49433Y193967D01*
X49165Y194174D01*
X48897Y194226D01*
X48628Y194174D01*
X48283Y193967D01*
X48398Y195311D01*
X49433D01*
G01X50515Y192831D02*
X50745Y192469D01*
X51052Y192262D01*
X51397Y192211D01*
X51703Y192262D01*
X52010Y192520D01*
X52202Y192831D01*
X52240Y193141D01*
X52163Y193502D01*
X51895Y193761D01*
X51627Y193864D01*
X51282D01*
G01X51627D02*
X51857Y194019D01*
X52048Y194277D01*
X52125Y194587D01*
X52048Y194897D01*
X51857Y195156D01*
X51512Y195311D01*
X51167Y195259D01*
X50822Y195052D01*
G01X42843Y269142D02*
X43073Y269452D01*
X43341Y269607D01*
X43648Y269658D01*
X44031Y269555D01*
X44300Y269297D01*
X44376Y268987D01*
X44338Y268677D01*
X44185Y268418D01*
X43418Y267902D01*
X43073Y267540D01*
X42843Y267023D01*
X42766Y266558D01*
X44376D01*
G01X46071Y269658D02*
X45764Y269555D01*
X45535Y269297D01*
X45381Y268987D01*
X45266Y268573D01*
X45228Y268108D01*
X45266Y267643D01*
X45381Y267230D01*
X45535Y266920D01*
X45764Y266662D01*
X46071Y266558D01*
X46378Y266662D01*
X46608Y266920D01*
X46761Y267230D01*
X46876Y267643D01*
X46914Y268108D01*
X46876Y268573D01*
X46761Y268987D01*
X46608Y269297D01*
X46378Y269555D01*
X46071Y269658D01*
G01X48571Y266558D02*
Y269658D01*
X48111Y269038D01*
G01Y266558D02*
X49031D01*
G01X50994D02*
X51071Y267230D01*
X51186Y267798D01*
X51340Y268315D01*
X51531Y268883D01*
X51838Y269658D01*
X50305D01*
G01X53073Y267592D02*
X54070D01*
G01X56071Y269658D02*
X55764Y269555D01*
X55535Y269297D01*
X55381Y268987D01*
X55266Y268573D01*
X55228Y268108D01*
X55266Y267643D01*
X55381Y267230D01*
X55535Y266920D01*
X55764Y266662D01*
X56071Y266558D01*
X56378Y266662D01*
X56608Y266920D01*
X56761Y267230D01*
X56876Y267643D01*
X56914Y268108D01*
X56876Y268573D01*
X56761Y268987D01*
X56608Y269297D01*
X56378Y269555D01*
X56071Y269658D01*
G01X57843Y269142D02*
X58073Y269452D01*
X58341Y269607D01*
X58648Y269658D01*
X59031Y269555D01*
X59300Y269297D01*
X59376Y268987D01*
X59338Y268677D01*
X59185Y268418D01*
X58418Y267902D01*
X58073Y267540D01*
X57843Y267023D01*
X57766Y266558D01*
X59376D01*
G01X60573Y267592D02*
X61570D01*
G01X63571Y266558D02*
Y269658D01*
X63111Y269038D01*
G01Y266558D02*
X64031D01*
G01X65420Y266920D02*
X65688Y266662D01*
X65995Y266558D01*
X66301Y266662D01*
X66570Y266972D01*
X66761Y267437D01*
X66838Y267902D01*
Y268470D01*
X66761Y268935D01*
X66570Y269348D01*
X66340Y269555D01*
X66071Y269658D01*
X65764Y269555D01*
X65535Y269348D01*
X65381Y269038D01*
X65304Y268625D01*
X65381Y268263D01*
X65573Y267902D01*
X65803Y267695D01*
X66071Y267643D01*
X66378Y267747D01*
X66608Y268005D01*
X66838Y268470D01*
G01X50309Y276672D02*
X51267Y273572D01*
X52226Y276672D01*
G01X53767Y273572D02*
Y276672D01*
X53307Y276053D01*
G01Y273572D02*
X54227D01*
G01X56267Y273469D02*
X56190Y273521D01*
Y273624D01*
X56267Y273676D01*
X56344Y273624D01*
Y273521D01*
X56267Y273469D01*
G01X58767Y276672D02*
X58461Y276569D01*
X58230Y276311D01*
X58077Y276001D01*
X57962Y275587D01*
X57924Y275122D01*
X57962Y274658D01*
X58077Y274244D01*
X58230Y273934D01*
X58461Y273676D01*
X58767Y273572D01*
X59074Y273676D01*
X59304Y273934D01*
X59457Y274244D01*
X59572Y274658D01*
X59610Y275122D01*
X59572Y275587D01*
X59457Y276001D01*
X59304Y276311D01*
X59074Y276569D01*
X58767Y276672D01*
G01X48792Y376030D02*
Y379130D01*
G01X50402D02*
Y376030D01*
G01Y377580D02*
X48792D01*
G01X52096Y376030D02*
Y379130D01*
X51637Y378510D01*
G01Y376030D02*
X52556D01*
G01X55233Y54580D02*
X55003Y54735D01*
X54735Y54838D01*
X54428D01*
X54083Y54683D01*
X53815Y54425D01*
X53623Y54115D01*
X53470Y53598D01*
X53431Y53133D01*
X53508Y52668D01*
X53623Y52358D01*
X53853Y52048D01*
X54122Y51841D01*
X54390Y51738D01*
X54658D01*
X54926Y51841D01*
X55157Y51996D01*
X55348Y52203D01*
G01X57350Y51738D02*
Y54838D01*
X55931Y52616D01*
X57848D01*
G01X58738Y52100D02*
X59006Y51841D01*
X59313Y51738D01*
X59620Y51841D01*
X59888Y52151D01*
X60080Y52616D01*
X60156Y53082D01*
Y53650D01*
X60080Y54115D01*
X59888Y54528D01*
X59658Y54735D01*
X59390Y54838D01*
X59083Y54735D01*
X58853Y54528D01*
X58700Y54218D01*
X58623Y53805D01*
X58700Y53443D01*
X58892Y53082D01*
X59122Y52875D01*
X59390Y52823D01*
X59696Y52926D01*
X59927Y53185D01*
X60156Y53650D01*
G01X56123Y102014D02*
Y105114D01*
X57082D01*
X57388Y104959D01*
X57580Y104752D01*
X57657Y104339D01*
X57580Y103925D01*
X57350Y103667D01*
X57082Y103512D01*
X56123D01*
G01X57082D02*
X57657Y102014D01*
G01X59850D02*
Y105114D01*
X58431Y102892D01*
X60348D01*
G01X57782Y114117D02*
X57552Y114272D01*
X57284Y114376D01*
X56977D01*
X56632Y114220D01*
X56364Y113962D01*
X56172Y113652D01*
X56019Y113136D01*
X55981Y112671D01*
X56057Y112206D01*
X56172Y111896D01*
X56402Y111586D01*
X56671Y111379D01*
X56939Y111276D01*
X57207D01*
X57476Y111379D01*
X57706Y111534D01*
X57897Y111740D01*
G01X58596Y111896D02*
X58826Y111534D01*
X59132Y111327D01*
X59477Y111276D01*
X59784Y111327D01*
X60091Y111586D01*
X60282Y111896D01*
X60321Y112206D01*
X60244Y112567D01*
X59976Y112826D01*
X59707Y112929D01*
X59362D01*
G01X59707D02*
X59937Y113084D01*
X60129Y113342D01*
X60206Y113652D01*
X60129Y113962D01*
X59937Y114220D01*
X59592Y114376D01*
X59247Y114324D01*
X58902Y114117D01*
G01X57113Y296105D02*
X56883Y296260D01*
X56615Y296364D01*
X56308D01*
X55963Y296209D01*
X55695Y295950D01*
X55503Y295640D01*
X55350Y295124D01*
X55311Y294659D01*
X55388Y294194D01*
X55503Y293884D01*
X55733Y293574D01*
X56001Y293367D01*
X56270Y293264D01*
X56538D01*
X56806Y293367D01*
X57036Y293522D01*
X57228Y293729D01*
G01X59230Y293264D02*
Y296364D01*
X57811Y294142D01*
X59728D01*
G01X60541Y294555D02*
X60810Y294917D01*
X61040Y295124D01*
X61346Y295227D01*
X61615Y295124D01*
X61806Y294917D01*
X61960Y294607D01*
X61998Y294245D01*
X61960Y293935D01*
X61806Y293625D01*
X61576Y293367D01*
X61308Y293264D01*
X61001Y293367D01*
X60733Y293677D01*
X60580Y294142D01*
X60541Y294659D01*
X60618Y295330D01*
X60733Y295692D01*
X60925Y296054D01*
X61193Y296312D01*
X61461Y296364D01*
X61730Y296260D01*
X61921Y296002D01*
G01X55503Y302280D02*
Y305380D01*
X56461D01*
X56768Y305224D01*
X56960Y305018D01*
X57036Y304605D01*
X56960Y304191D01*
X56730Y303933D01*
X56461Y303778D01*
X55503D01*
G01X56461D02*
X57036Y302280D01*
G01X57926Y302900D02*
X58156Y302538D01*
X58463Y302331D01*
X58808Y302280D01*
X59115Y302331D01*
X59421Y302589D01*
X59613Y302900D01*
X59651Y303210D01*
X59575Y303571D01*
X59306Y303830D01*
X59038Y303933D01*
X58693D01*
G01X59038D02*
X59268Y304088D01*
X59460Y304346D01*
X59536Y304656D01*
X59460Y304966D01*
X59268Y305224D01*
X58923Y305380D01*
X58578Y305328D01*
X58233Y305121D01*
G01X60426Y302900D02*
X60656Y302538D01*
X60963Y302331D01*
X61308Y302280D01*
X61615Y302331D01*
X61921Y302589D01*
X62113Y302900D01*
X62151Y303210D01*
X62075Y303571D01*
X61806Y303830D01*
X61538Y303933D01*
X61193D01*
G01X61538D02*
X61768Y304088D01*
X61960Y304346D01*
X62036Y304656D01*
X61960Y304966D01*
X61768Y305224D01*
X61423Y305380D01*
X61078Y305328D01*
X60733Y305121D01*
G01X57113Y314501D02*
X56883Y314656D01*
X56615Y314759D01*
X56308D01*
X55963Y314604D01*
X55695Y314346D01*
X55503Y314036D01*
X55350Y313519D01*
X55311Y313054D01*
X55388Y312589D01*
X55503Y312279D01*
X55733Y311969D01*
X56001Y311763D01*
X56270Y311659D01*
X56538D01*
X56806Y311763D01*
X57036Y311918D01*
X57228Y312124D01*
G01X57926Y312279D02*
X58156Y311918D01*
X58463Y311711D01*
X58808Y311659D01*
X59115Y311711D01*
X59421Y311969D01*
X59613Y312279D01*
X59651Y312589D01*
X59575Y312951D01*
X59306Y313209D01*
X59038Y313313D01*
X58693D01*
G01X59038D02*
X59268Y313468D01*
X59460Y313726D01*
X59536Y314036D01*
X59460Y314346D01*
X59268Y314604D01*
X58923Y314759D01*
X58578Y314708D01*
X58233Y314501D01*
G01X60618Y312021D02*
X60886Y311763D01*
X61193Y311659D01*
X61500Y311763D01*
X61768Y312073D01*
X61960Y312538D01*
X62036Y313003D01*
Y313571D01*
X61960Y314036D01*
X61768Y314449D01*
X61538Y314656D01*
X61270Y314759D01*
X60963Y314656D01*
X60733Y314449D01*
X60580Y314139D01*
X60503Y313726D01*
X60580Y313364D01*
X60771Y313003D01*
X61001Y312796D01*
X61270Y312744D01*
X61576Y312848D01*
X61806Y313106D01*
X62036Y313571D01*
G01X57113Y323891D02*
X56883Y324046D01*
X56615Y324149D01*
X56308D01*
X55963Y323994D01*
X55695Y323736D01*
X55503Y323426D01*
X55350Y322909D01*
X55311Y322444D01*
X55388Y321979D01*
X55503Y321669D01*
X55733Y321359D01*
X56001Y321152D01*
X56270Y321049D01*
X56538D01*
X56806Y321152D01*
X57036Y321308D01*
X57228Y321514D01*
G01X57926Y321669D02*
X58156Y321308D01*
X58463Y321101D01*
X58808Y321049D01*
X59115Y321101D01*
X59421Y321359D01*
X59613Y321669D01*
X59651Y321979D01*
X59575Y322341D01*
X59306Y322599D01*
X59038Y322703D01*
X58693D01*
G01X59038D02*
X59268Y322858D01*
X59460Y323116D01*
X59536Y323426D01*
X59460Y323736D01*
X59268Y323994D01*
X58923Y324149D01*
X58578Y324098D01*
X58233Y323891D01*
G01X61270Y321049D02*
X61538Y321101D01*
X61845Y321256D01*
X62036Y321514D01*
X62113Y321876D01*
X62036Y322238D01*
X61806Y322548D01*
X61461Y322703D01*
X61078D01*
X60848Y322806D01*
X60656Y323064D01*
X60580Y323426D01*
X60695Y323788D01*
X60963Y324046D01*
X61270Y324149D01*
X61576Y324046D01*
X61845Y323788D01*
X61960Y323426D01*
X61883Y323064D01*
X61691Y322806D01*
X61461Y322703D01*
X61078D01*
X60733Y322548D01*
X60503Y322238D01*
X60426Y321876D01*
X60503Y321514D01*
X60695Y321256D01*
X61001Y321101D01*
X61270Y321049D01*
G01X51478Y342093D02*
Y345192D01*
G01X53089D02*
Y342093D01*
G01Y343642D02*
X51478D01*
G01X53940Y342712D02*
X54170Y342351D01*
X54477Y342144D01*
X54822Y342093D01*
X55128Y342144D01*
X55435Y342402D01*
X55627Y342712D01*
X55665Y343022D01*
X55588Y343384D01*
X55320Y343642D01*
X55052Y343746D01*
X54707D01*
G01X55052D02*
X55282Y343901D01*
X55474Y344159D01*
X55550Y344469D01*
X55474Y344779D01*
X55282Y345037D01*
X54937Y345192D01*
X54592Y345141D01*
X54247Y344934D01*
G01X65140Y24789D02*
Y27889D01*
G01X66750D02*
Y24789D01*
G01Y26339D02*
X65140D01*
G01X67716Y26081D02*
X67985Y26443D01*
X68215Y26649D01*
X68522Y26753D01*
X68790Y26649D01*
X68982Y26443D01*
X69135Y26133D01*
X69173Y25771D01*
X69135Y25461D01*
X68982Y25151D01*
X68752Y24893D01*
X68483Y24789D01*
X68177Y24893D01*
X67908Y25203D01*
X67755Y25668D01*
X67716Y26184D01*
X67793Y26856D01*
X67908Y27218D01*
X68100Y27579D01*
X68368Y27838D01*
X68637Y27889D01*
X68905Y27786D01*
X69097Y27528D01*
G01X68103Y38118D02*
X68256Y38273D01*
X68371Y38531D01*
X68448Y38893D01*
X68371Y39202D01*
X68218Y39409D01*
X67950Y39564D01*
X66915D01*
Y36464D01*
X68180D01*
X68448Y36671D01*
X68601Y36981D01*
X68678Y37342D01*
X68601Y37704D01*
X68371Y38014D01*
X68103Y38118D01*
X66915D01*
G01X67231Y54476D02*
X67001Y54631D01*
X66733Y54734D01*
X66426D01*
X66081Y54579D01*
X65813Y54321D01*
X65621Y54011D01*
X65468Y53494D01*
X65429Y53029D01*
X65506Y52564D01*
X65621Y52254D01*
X65851Y51944D01*
X66120Y51737D01*
X66388Y51634D01*
X66656D01*
X66924Y51737D01*
X67154Y51892D01*
X67346Y52099D01*
G01X68045D02*
X68274Y51840D01*
X68543Y51686D01*
X68888Y51634D01*
X69233Y51737D01*
X69501Y51944D01*
X69693Y52305D01*
X69731Y52719D01*
X69654Y53132D01*
X69463Y53391D01*
X69194Y53597D01*
X68926Y53649D01*
X68658Y53597D01*
X68313Y53391D01*
X68428Y54734D01*
X69463D01*
G01X71388D02*
X71081Y54631D01*
X70851Y54372D01*
X70698Y54062D01*
X70583Y53649D01*
X70545Y53184D01*
X70583Y52719D01*
X70698Y52305D01*
X70851Y51996D01*
X71081Y51737D01*
X71388Y51634D01*
X71694Y51737D01*
X71924Y51996D01*
X72078Y52305D01*
X72193Y52719D01*
X72231Y53184D01*
X72193Y53649D01*
X72078Y54062D01*
X71924Y54372D01*
X71694Y54631D01*
X71388Y54734D01*
G01X59706Y210439D02*
Y213539D01*
X60664D01*
X60971Y213384D01*
X61162Y213177D01*
X61239Y212764D01*
X61162Y212351D01*
X60932Y212092D01*
X60664Y211937D01*
X59706D01*
G01X60664D02*
X61239Y210439D01*
G01X63432D02*
Y213539D01*
X62014Y211317D01*
X63931D01*
G01X64629Y210904D02*
X64859Y210646D01*
X65127Y210491D01*
X65472Y210439D01*
X65817Y210542D01*
X66086Y210749D01*
X66277Y211111D01*
X66316Y211524D01*
X66239Y211937D01*
X66047Y212196D01*
X65779Y212402D01*
X65511Y212454D01*
X65242Y212402D01*
X64897Y212196D01*
X65012Y213539D01*
X66047D01*
G01X59656Y218707D02*
Y221807D01*
X60615D01*
X60922Y221652D01*
X61113Y221445D01*
X61190Y221032D01*
X61113Y220618D01*
X60883Y220360D01*
X60615Y220205D01*
X59656D01*
G01X60615D02*
X61190Y218707D01*
G01X63383D02*
Y221807D01*
X61965Y219585D01*
X63882D01*
G01X65883Y218707D02*
Y221807D01*
X64465Y219585D01*
X66382D01*
G01X61395Y229905D02*
X61164Y230060D01*
X60896Y230163D01*
X60590D01*
X60244Y230008D01*
X59976Y229750D01*
X59785Y229440D01*
X59631Y228923D01*
X59593Y228458D01*
X59670Y227993D01*
X59785Y227683D01*
X60015Y227373D01*
X60283Y227166D01*
X60551Y227063D01*
X60820D01*
X61088Y227166D01*
X61318Y227321D01*
X61510Y227528D01*
G01X62208D02*
X62438Y227270D01*
X62706Y227115D01*
X63051Y227063D01*
X63396Y227166D01*
X63664Y227373D01*
X63856Y227735D01*
X63895Y228148D01*
X63818Y228561D01*
X63626Y228820D01*
X63358Y229026D01*
X63090Y229078D01*
X62821Y229026D01*
X62476Y228820D01*
X62591Y230163D01*
X63626D01*
G01X64823Y228355D02*
X65091Y228716D01*
X65321Y228923D01*
X65628Y229026D01*
X65896Y228923D01*
X66088Y228716D01*
X66241Y228406D01*
X66280Y228045D01*
X66241Y227735D01*
X66088Y227425D01*
X65858Y227166D01*
X65590Y227063D01*
X65283Y227166D01*
X65014Y227476D01*
X64861Y227941D01*
X64823Y228458D01*
X64900Y229130D01*
X65014Y229491D01*
X65206Y229853D01*
X65474Y230111D01*
X65743Y230163D01*
X66011Y230060D01*
X66203Y229801D01*
G01X68806Y104688D02*
X68576Y104843D01*
X68308Y104946D01*
X68001D01*
X67656Y104791D01*
X67388Y104533D01*
X67196Y104223D01*
X67043Y103707D01*
X67004Y103242D01*
X67081Y102776D01*
X67196Y102466D01*
X67426Y102156D01*
X67694Y101950D01*
X67963Y101846D01*
X68231D01*
X68499Y101950D01*
X68729Y102105D01*
X68921Y102311D01*
G01X70923Y101846D02*
Y104946D01*
X69504Y102725D01*
X71421D01*
G01X67127Y111030D02*
Y114130D01*
X68085D01*
X68392Y113974D01*
X68584Y113768D01*
X68660Y113354D01*
X68584Y112941D01*
X68354Y112683D01*
X68085Y112528D01*
X67127D01*
G01X68085D02*
X68660Y111030D01*
G01X69550Y111494D02*
X69780Y111236D01*
X70049Y111081D01*
X70394Y111030D01*
X70739Y111133D01*
X71007Y111339D01*
X71199Y111701D01*
X71237Y112114D01*
X71160Y112528D01*
X70969Y112786D01*
X70700Y112993D01*
X70432Y113044D01*
X70164Y112993D01*
X69819Y112786D01*
X69934Y114130D01*
X70969D01*
G01X67324Y120094D02*
Y123194D01*
X68282D01*
X68589Y123039D01*
X68781Y122833D01*
X68857Y122419D01*
X68781Y122006D01*
X68551Y121748D01*
X68282Y121593D01*
X67324D01*
G01X68282D02*
X68857Y120094D01*
G01X70591D02*
Y123194D01*
X70131Y122574D01*
G01Y120094D02*
X71050D01*
G01X75332Y295820D02*
X75102Y295975D01*
X74833Y296078D01*
X74527D01*
X74182Y295923D01*
X73913Y295665D01*
X73722Y295355D01*
X73568Y294838D01*
X73530Y294373D01*
X73607Y293908D01*
X73722Y293598D01*
X73952Y293288D01*
X74220Y293082D01*
X74488Y292978D01*
X74756D01*
X75025Y293082D01*
X75255Y293237D01*
X75447Y293443D01*
G01X77448Y292978D02*
Y296078D01*
X76030Y293857D01*
X77947D01*
G01X79948Y292978D02*
Y296078D01*
X78530Y293857D01*
X80447D01*
G01X73722Y302526D02*
Y305626D01*
X74680D01*
X74986Y305470D01*
X75178Y305264D01*
X75255Y304851D01*
X75178Y304437D01*
X74948Y304179D01*
X74680Y304024D01*
X73722D01*
G01X74680D02*
X75255Y302526D01*
G01X76145Y303146D02*
X76375Y302784D01*
X76682Y302577D01*
X77027Y302526D01*
X77333Y302577D01*
X77640Y302836D01*
X77832Y303146D01*
X77870Y303456D01*
X77793Y303817D01*
X77525Y304076D01*
X77256Y304179D01*
X76912D01*
G01X77256D02*
X77486Y304334D01*
X77678Y304592D01*
X77755Y304902D01*
X77678Y305212D01*
X77486Y305470D01*
X77142Y305626D01*
X76796Y305574D01*
X76452Y305367D01*
G01X79488Y302526D02*
Y305626D01*
X79028Y305006D01*
G01Y302526D02*
X79948D01*
G01X75332Y314600D02*
X75102Y314755D01*
X74833Y314858D01*
X74527D01*
X74182Y314703D01*
X73913Y314445D01*
X73722Y314134D01*
X73568Y313618D01*
X73530Y313153D01*
X73607Y312688D01*
X73722Y312378D01*
X73952Y312068D01*
X74220Y311861D01*
X74488Y311758D01*
X74756D01*
X75025Y311861D01*
X75255Y312016D01*
X75447Y312223D01*
G01X76145Y312378D02*
X76375Y312016D01*
X76682Y311810D01*
X77027Y311758D01*
X77333Y311810D01*
X77640Y312068D01*
X77832Y312378D01*
X77870Y312688D01*
X77793Y313050D01*
X77525Y313308D01*
X77256Y313411D01*
X76912D01*
G01X77256D02*
X77486Y313566D01*
X77678Y313824D01*
X77755Y314134D01*
X77678Y314445D01*
X77486Y314703D01*
X77142Y314858D01*
X76796Y314806D01*
X76452Y314600D01*
G01X78645Y312223D02*
X78875Y311964D01*
X79143Y311810D01*
X79488Y311758D01*
X79833Y311861D01*
X80102Y312068D01*
X80293Y312430D01*
X80332Y312843D01*
X80255Y313256D01*
X80063Y313515D01*
X79795Y313721D01*
X79527Y313773D01*
X79258Y313721D01*
X78913Y313515D01*
X79028Y314858D01*
X80063D01*
G01X75332Y323694D02*
X75102Y323849D01*
X74833Y323952D01*
X74527D01*
X74182Y323797D01*
X73913Y323539D01*
X73722Y323229D01*
X73568Y322712D01*
X73530Y322247D01*
X73607Y321782D01*
X73722Y321472D01*
X73952Y321162D01*
X74220Y320956D01*
X74488Y320852D01*
X74756D01*
X75025Y320956D01*
X75255Y321111D01*
X75447Y321317D01*
G01X76145Y321472D02*
X76375Y321111D01*
X76682Y320904D01*
X77027Y320852D01*
X77333Y320904D01*
X77640Y321162D01*
X77832Y321472D01*
X77870Y321782D01*
X77793Y322144D01*
X77525Y322402D01*
X77256Y322506D01*
X76912D01*
G01X77256D02*
X77486Y322661D01*
X77678Y322919D01*
X77755Y323229D01*
X77678Y323539D01*
X77486Y323797D01*
X77142Y323952D01*
X76796Y323901D01*
X76452Y323694D01*
G01X79948Y320852D02*
Y323952D01*
X78530Y321731D01*
X80447D01*
G01X74136Y376256D02*
Y379356D01*
G01X75746D02*
Y376256D01*
G01Y377806D02*
X74136D01*
G01X76712Y378839D02*
X76943Y379149D01*
X77211Y379304D01*
X77518Y379356D01*
X77901Y379253D01*
X78169Y378994D01*
X78246Y378684D01*
X78208Y378374D01*
X78054Y378116D01*
X77288Y377599D01*
X76943Y377238D01*
X76712Y376721D01*
X76636Y376256D01*
X78246D01*
G01X78269Y51152D02*
Y54252D01*
X79227D01*
X79534Y54096D01*
X79725Y53890D01*
X79802Y53477D01*
X79725Y53063D01*
X79495Y52805D01*
X79227Y52650D01*
X78269D01*
G01X79227D02*
X79802Y51152D01*
G01X81995D02*
Y54252D01*
X80577Y52030D01*
X82494D01*
G01X84035Y51152D02*
Y54252D01*
X83575Y53632D01*
G01Y51152D02*
X84495D01*
G01X76388Y79066D02*
Y82166D01*
X77346D01*
X77653Y82011D01*
X77844Y81804D01*
X77921Y81391D01*
X77844Y80977D01*
X77614Y80719D01*
X77346Y80564D01*
X76388D01*
G01X77346D02*
X77921Y79066D01*
G01X78811Y79686D02*
X79041Y79324D01*
X79348Y79118D01*
X79693Y79066D01*
X79999Y79118D01*
X80306Y79376D01*
X80498Y79686D01*
X80536Y79996D01*
X80459Y80357D01*
X80191Y80616D01*
X79923Y80719D01*
X79578D01*
G01X79923D02*
X80153Y80874D01*
X80344Y81132D01*
X80421Y81442D01*
X80344Y81752D01*
X80153Y82011D01*
X79808Y82166D01*
X79463Y82114D01*
X79118Y81907D01*
G01X81503Y79427D02*
X81771Y79169D01*
X82078Y79066D01*
X82384Y79169D01*
X82653Y79479D01*
X82844Y79944D01*
X82921Y80409D01*
Y80977D01*
X82844Y81442D01*
X82653Y81856D01*
X82423Y82062D01*
X82154Y82166D01*
X81848Y82062D01*
X81618Y81856D01*
X81464Y81546D01*
X81388Y81132D01*
X81464Y80771D01*
X81656Y80409D01*
X81886Y80202D01*
X82154Y80151D01*
X82461Y80254D01*
X82691Y80512D01*
X82921Y80977D01*
G01X79056Y91266D02*
X78826Y91422D01*
X78558Y91525D01*
X78251D01*
X77906Y91370D01*
X77638Y91112D01*
X77446Y90801D01*
X77293Y90285D01*
X77254Y89820D01*
X77331Y89355D01*
X77446Y89045D01*
X77676Y88735D01*
X77944Y88528D01*
X78213Y88425D01*
X78481D01*
X78750Y88528D01*
X78980Y88683D01*
X79171Y88890D01*
G01X79870D02*
X80099Y88631D01*
X80368Y88476D01*
X80713Y88425D01*
X81058Y88528D01*
X81326Y88735D01*
X81518Y89096D01*
X81556Y89510D01*
X81480Y89923D01*
X81288Y90182D01*
X81019Y90388D01*
X80751Y90440D01*
X80483Y90388D01*
X80138Y90182D01*
X80253Y91525D01*
X81288D01*
G01X83213Y88425D02*
Y91525D01*
X82753Y90905D01*
G01Y88425D02*
X83673D01*
G01X83111Y142959D02*
X83303Y142648D01*
X83533Y142442D01*
X83801Y142339D01*
X84108Y142442D01*
X84338Y142648D01*
X84568Y142959D01*
X84645Y143372D01*
Y145439D01*
G01X86378Y142339D02*
Y145439D01*
X85918Y144819D01*
G01Y142339D02*
X86838D01*
G01X77156Y162742D02*
Y165842D01*
X78115D01*
X78422Y165687D01*
X78613Y165480D01*
X78690Y165067D01*
X78613Y164654D01*
X78383Y164396D01*
X78115Y164240D01*
X77156D01*
G01X78115D02*
X78690Y162742D01*
G01X80423D02*
Y165842D01*
X79963Y165222D01*
G01Y162742D02*
X80883D01*
G01X82846D02*
X82923Y163414D01*
X83038Y163982D01*
X83192Y164499D01*
X83383Y165067D01*
X83690Y165842D01*
X82157D01*
G01X87163Y39564D02*
X88122Y36464D01*
X89080Y39564D01*
G01X92290Y53993D02*
X92060Y54148D01*
X91792Y54252D01*
X91485D01*
X91140Y54096D01*
X90872Y53838D01*
X90680Y53528D01*
X90527Y53012D01*
X90488Y52547D01*
X90565Y52082D01*
X90680Y51772D01*
X90910Y51462D01*
X91179Y51255D01*
X91447Y51152D01*
X91715D01*
X91984Y51255D01*
X92214Y51410D01*
X92405Y51616D01*
G01X93104D02*
X93334Y51358D01*
X93602Y51203D01*
X93947Y51152D01*
X94292Y51255D01*
X94560Y51462D01*
X94752Y51823D01*
X94790Y52237D01*
X94714Y52650D01*
X94522Y52908D01*
X94254Y53115D01*
X93985Y53166D01*
X93717Y53115D01*
X93372Y52908D01*
X93487Y54252D01*
X94522D01*
G01X95604Y51616D02*
X95834Y51358D01*
X96102Y51203D01*
X96447Y51152D01*
X96792Y51255D01*
X97060Y51462D01*
X97252Y51823D01*
X97290Y52237D01*
X97214Y52650D01*
X97022Y52908D01*
X96754Y53115D01*
X96485Y53166D01*
X96217Y53115D01*
X95872Y52908D01*
X95987Y54252D01*
X97022D01*
G01X91568Y110842D02*
Y108620D01*
X91721Y108155D01*
X92028Y107845D01*
X92411Y107742D01*
X92795Y107845D01*
X93101Y108155D01*
X93255Y108620D01*
Y110842D01*
G01X94911Y107742D02*
Y110842D01*
X94451Y110222D01*
G01Y107742D02*
X95371D01*
G01X88111Y162594D02*
Y165694D01*
X89070D01*
X89376Y165539D01*
X89568Y165333D01*
X89645Y164920D01*
X89568Y164506D01*
X89338Y164248D01*
X89070Y164093D01*
X88111D01*
G01X89070D02*
X89645Y162594D01*
G01X91378D02*
Y165694D01*
X90918Y165074D01*
G01Y162594D02*
X91838D01*
G01X93150Y163886D02*
X93418Y164248D01*
X93648Y164454D01*
X93955Y164558D01*
X94223Y164454D01*
X94415Y164248D01*
X94568Y163938D01*
X94606Y163576D01*
X94568Y163266D01*
X94415Y162956D01*
X94185Y162698D01*
X93916Y162594D01*
X93610Y162698D01*
X93341Y163008D01*
X93188Y163473D01*
X93150Y163990D01*
X93226Y164661D01*
X93341Y165023D01*
X93533Y165384D01*
X93801Y165643D01*
X94070Y165694D01*
X94338Y165591D01*
X94530Y165333D01*
G01X85174Y175578D02*
X84944Y175733D01*
X84676Y175836D01*
X84369D01*
X84024Y175681D01*
X83756Y175423D01*
X83564Y175113D01*
X83411Y174596D01*
X83372Y174131D01*
X83449Y173666D01*
X83564Y173356D01*
X83794Y173046D01*
X84062Y172840D01*
X84331Y172736D01*
X84599D01*
X84867Y172840D01*
X85097Y172994D01*
X85289Y173201D01*
G01X86102Y175320D02*
X86332Y175630D01*
X86601Y175784D01*
X86907Y175836D01*
X87291Y175733D01*
X87559Y175474D01*
X87636Y175165D01*
X87597Y174854D01*
X87444Y174596D01*
X86677Y174080D01*
X86332Y173718D01*
X86102Y173201D01*
X86026Y172736D01*
X87636D01*
G01X88602Y175320D02*
X88832Y175630D01*
X89101Y175784D01*
X89407Y175836D01*
X89791Y175733D01*
X90059Y175474D01*
X90136Y175165D01*
X90097Y174854D01*
X89944Y174596D01*
X89177Y174080D01*
X88832Y173718D01*
X88602Y173201D01*
X88526Y172736D01*
X90136D01*
G01X85174Y185164D02*
X84944Y185320D01*
X84676Y185423D01*
X84369D01*
X84024Y185268D01*
X83756Y185010D01*
X83564Y184699D01*
X83411Y184183D01*
X83372Y183718D01*
X83449Y183253D01*
X83564Y182943D01*
X83794Y182633D01*
X84062Y182426D01*
X84331Y182323D01*
X84599D01*
X84867Y182426D01*
X85097Y182581D01*
X85289Y182788D01*
G01X86831Y182323D02*
Y185423D01*
X86371Y184803D01*
G01Y182323D02*
X87291D01*
G01X89791D02*
Y185423D01*
X88372Y183201D01*
X90289D01*
G01X85174Y194751D02*
X84944Y194906D01*
X84676Y195009D01*
X84369D01*
X84024Y194854D01*
X83756Y194596D01*
X83564Y194286D01*
X83411Y193769D01*
X83372Y193304D01*
X83449Y192839D01*
X83564Y192529D01*
X83794Y192219D01*
X84062Y192013D01*
X84331Y191909D01*
X84599D01*
X84867Y192013D01*
X85097Y192168D01*
X85289Y192374D01*
G01X86102Y194493D02*
X86332Y194803D01*
X86601Y194958D01*
X86907Y195009D01*
X87291Y194906D01*
X87559Y194648D01*
X87636Y194338D01*
X87597Y194028D01*
X87444Y193769D01*
X86677Y193253D01*
X86332Y192891D01*
X86102Y192374D01*
X86026Y191909D01*
X87636D01*
G01X88487Y192529D02*
X88717Y192168D01*
X89024Y191961D01*
X89369Y191909D01*
X89676Y191961D01*
X89982Y192219D01*
X90174Y192529D01*
X90212Y192839D01*
X90136Y193201D01*
X89867Y193459D01*
X89599Y193563D01*
X89254D01*
G01X89599D02*
X89829Y193718D01*
X90021Y193976D01*
X90097Y194286D01*
X90021Y194596D01*
X89829Y194854D01*
X89484Y195009D01*
X89139Y194958D01*
X88794Y194751D01*
G01X85174Y204338D02*
X84944Y204493D01*
X84676Y204596D01*
X84369D01*
X84024Y204441D01*
X83756Y204183D01*
X83564Y203873D01*
X83411Y203356D01*
X83372Y202891D01*
X83449Y202426D01*
X83564Y202116D01*
X83794Y201806D01*
X84062Y201599D01*
X84331Y201496D01*
X84599D01*
X84867Y201599D01*
X85097Y201754D01*
X85289Y201961D01*
G01X86102Y204079D02*
X86332Y204389D01*
X86601Y204544D01*
X86907Y204596D01*
X87291Y204493D01*
X87559Y204234D01*
X87636Y203924D01*
X87597Y203614D01*
X87444Y203356D01*
X86677Y202839D01*
X86332Y202478D01*
X86102Y201961D01*
X86026Y201496D01*
X87636D01*
G01X89791D02*
Y204596D01*
X88372Y202374D01*
X90289D01*
G01X85174Y213924D02*
X84944Y214079D01*
X84676Y214183D01*
X84369D01*
X84024Y214028D01*
X83756Y213769D01*
X83564Y213459D01*
X83411Y212943D01*
X83372Y212478D01*
X83449Y212013D01*
X83564Y211703D01*
X83794Y211393D01*
X84062Y211186D01*
X84331Y211083D01*
X84599D01*
X84867Y211186D01*
X85097Y211341D01*
X85289Y211548D01*
G01X86102Y213666D02*
X86332Y213976D01*
X86601Y214131D01*
X86907Y214183D01*
X87291Y214079D01*
X87559Y213821D01*
X87636Y213511D01*
X87597Y213201D01*
X87444Y212943D01*
X86677Y212426D01*
X86332Y212064D01*
X86102Y211548D01*
X86026Y211083D01*
X87636D01*
G01X88487Y211548D02*
X88717Y211289D01*
X88986Y211134D01*
X89331Y211083D01*
X89676Y211186D01*
X89944Y211393D01*
X90136Y211754D01*
X90174Y212168D01*
X90097Y212581D01*
X89906Y212839D01*
X89637Y213046D01*
X89369Y213098D01*
X89101Y213046D01*
X88756Y212839D01*
X88871Y214183D01*
X89906D01*
G01X85174Y223511D02*
X84944Y223666D01*
X84676Y223769D01*
X84369D01*
X84024Y223614D01*
X83756Y223356D01*
X83564Y223046D01*
X83411Y222529D01*
X83372Y222064D01*
X83449Y221599D01*
X83564Y221289D01*
X83794Y220979D01*
X84062Y220773D01*
X84331Y220669D01*
X84599D01*
X84867Y220773D01*
X85097Y220928D01*
X85289Y221134D01*
G01X86102Y223253D02*
X86332Y223563D01*
X86601Y223718D01*
X86907Y223769D01*
X87291Y223666D01*
X87559Y223408D01*
X87636Y223098D01*
X87597Y222788D01*
X87444Y222529D01*
X86677Y222013D01*
X86332Y221651D01*
X86102Y221134D01*
X86026Y220669D01*
X87636D01*
G01X88602Y221961D02*
X88871Y222323D01*
X89101Y222529D01*
X89407Y222633D01*
X89676Y222529D01*
X89867Y222323D01*
X90021Y222013D01*
X90059Y221651D01*
X90021Y221341D01*
X89867Y221031D01*
X89637Y220773D01*
X89369Y220669D01*
X89062Y220773D01*
X88794Y221082D01*
X88641Y221548D01*
X88602Y222064D01*
X88679Y222736D01*
X88794Y223098D01*
X88986Y223459D01*
X89254Y223718D01*
X89522Y223769D01*
X89791Y223666D01*
X89982Y223408D01*
G01X85174Y233098D02*
X84944Y233253D01*
X84676Y233356D01*
X84369D01*
X84024Y233201D01*
X83756Y232943D01*
X83564Y232632D01*
X83411Y232116D01*
X83372Y231651D01*
X83449Y231186D01*
X83564Y230876D01*
X83794Y230566D01*
X84062Y230359D01*
X84331Y230256D01*
X84599D01*
X84867Y230359D01*
X85097Y230514D01*
X85289Y230721D01*
G01X86102Y232839D02*
X86332Y233149D01*
X86601Y233304D01*
X86907Y233356D01*
X87291Y233253D01*
X87559Y232994D01*
X87636Y232684D01*
X87597Y232374D01*
X87444Y232116D01*
X86677Y231599D01*
X86332Y231237D01*
X86102Y230721D01*
X86026Y230256D01*
X87636D01*
G01X89254D02*
X89331Y230928D01*
X89446Y231496D01*
X89599Y232013D01*
X89791Y232581D01*
X90097Y233356D01*
X88564D01*
G01X85174Y242684D02*
X84944Y242839D01*
X84676Y242943D01*
X84369D01*
X84024Y242787D01*
X83756Y242529D01*
X83564Y242219D01*
X83411Y241703D01*
X83372Y241238D01*
X83449Y240772D01*
X83564Y240463D01*
X83794Y240152D01*
X84062Y239946D01*
X84331Y239842D01*
X84599D01*
X84867Y239946D01*
X85097Y240101D01*
X85289Y240307D01*
G01X86102Y242426D02*
X86332Y242736D01*
X86601Y242891D01*
X86907Y242943D01*
X87291Y242839D01*
X87559Y242581D01*
X87636Y242271D01*
X87597Y241961D01*
X87444Y241703D01*
X86677Y241186D01*
X86332Y240824D01*
X86102Y240307D01*
X86026Y239842D01*
X87636D01*
G01X89331D02*
X89599Y239894D01*
X89906Y240049D01*
X90097Y240307D01*
X90174Y240669D01*
X90097Y241031D01*
X89867Y241341D01*
X89522Y241496D01*
X89139D01*
X88909Y241599D01*
X88717Y241857D01*
X88641Y242219D01*
X88756Y242581D01*
X89024Y242839D01*
X89331Y242943D01*
X89637Y242839D01*
X89906Y242581D01*
X90021Y242219D01*
X89944Y241857D01*
X89752Y241599D01*
X89522Y241496D01*
X89139D01*
X88794Y241341D01*
X88564Y241031D01*
X88487Y240669D01*
X88564Y240307D01*
X88756Y240049D01*
X89062Y239894D01*
X89331Y239842D01*
G01X85174Y252271D02*
X84944Y252426D01*
X84676Y252529D01*
X84369D01*
X84024Y252374D01*
X83756Y252116D01*
X83564Y251806D01*
X83411Y251289D01*
X83372Y250824D01*
X83449Y250359D01*
X83564Y250049D01*
X83794Y249739D01*
X84062Y249532D01*
X84331Y249429D01*
X84599D01*
X84867Y249532D01*
X85097Y249687D01*
X85289Y249894D01*
G01X86102Y252012D02*
X86332Y252322D01*
X86601Y252477D01*
X86907Y252529D01*
X87291Y252426D01*
X87559Y252167D01*
X87636Y251857D01*
X87597Y251547D01*
X87444Y251289D01*
X86677Y250772D01*
X86332Y250411D01*
X86102Y249894D01*
X86026Y249429D01*
X87636D01*
G01X88679Y249791D02*
X88947Y249532D01*
X89254Y249429D01*
X89561Y249532D01*
X89829Y249842D01*
X90021Y250307D01*
X90097Y250772D01*
Y251341D01*
X90021Y251806D01*
X89829Y252219D01*
X89599Y252426D01*
X89331Y252529D01*
X89024Y252426D01*
X88794Y252219D01*
X88641Y251909D01*
X88564Y251496D01*
X88641Y251134D01*
X88832Y250772D01*
X89062Y250566D01*
X89331Y250514D01*
X89637Y250617D01*
X89867Y250876D01*
X90097Y251341D01*
G01X85174Y261857D02*
X84944Y262012D01*
X84676Y262116D01*
X84369D01*
X84024Y261961D01*
X83756Y261702D01*
X83564Y261392D01*
X83411Y260876D01*
X83372Y260411D01*
X83449Y259946D01*
X83564Y259636D01*
X83794Y259326D01*
X84062Y259119D01*
X84331Y259016D01*
X84599D01*
X84867Y259119D01*
X85097Y259274D01*
X85289Y259481D01*
G01X86831Y259016D02*
Y262116D01*
X86371Y261496D01*
G01Y259016D02*
X87291D01*
G01X88487Y259636D02*
X88717Y259274D01*
X89024Y259067D01*
X89369Y259016D01*
X89676Y259067D01*
X89982Y259326D01*
X90174Y259636D01*
X90212Y259946D01*
X90136Y260307D01*
X89867Y260566D01*
X89599Y260669D01*
X89254D01*
G01X89599D02*
X89829Y260824D01*
X90021Y261082D01*
X90097Y261392D01*
X90021Y261702D01*
X89829Y261961D01*
X89484Y262116D01*
X89139Y262064D01*
X88794Y261857D01*
G01X98525Y65784D02*
Y68884D01*
X99483D01*
X99790Y68728D01*
X99981Y68522D01*
X100058Y68108D01*
X99981Y67695D01*
X99751Y67437D01*
X99483Y67282D01*
X98525D01*
G01X99483D02*
X100058Y65784D01*
G01X102251D02*
Y68884D01*
X100833Y66662D01*
X102750D01*
G01X103563Y68367D02*
X103793Y68677D01*
X104061Y68832D01*
X104368Y68884D01*
X104751Y68780D01*
X105020Y68522D01*
X105096Y68212D01*
X105058Y67902D01*
X104905Y67644D01*
X104138Y67127D01*
X103793Y66765D01*
X103563Y66248D01*
X103486Y65784D01*
X105096D01*
G01X94170Y295997D02*
X93940Y296152D01*
X93672Y296256D01*
X93365D01*
X93020Y296100D01*
X92752Y295842D01*
X92560Y295532D01*
X92407Y295016D01*
X92368Y294550D01*
X92445Y294086D01*
X92560Y293776D01*
X92790Y293465D01*
X93059Y293259D01*
X93327Y293156D01*
X93595D01*
X93864Y293259D01*
X94094Y293414D01*
X94285Y293620D01*
G01X96287Y293156D02*
Y296256D01*
X94868Y294034D01*
X96785D01*
G01X97484Y293620D02*
X97713Y293362D01*
X97982Y293207D01*
X98327Y293156D01*
X98672Y293259D01*
X98940Y293465D01*
X99132Y293827D01*
X99170Y294241D01*
X99094Y294654D01*
X98902Y294912D01*
X98633Y295119D01*
X98365Y295170D01*
X98097Y295119D01*
X97752Y294912D01*
X97867Y296256D01*
X98902D01*
G01X92560Y302270D02*
Y305370D01*
X93518D01*
X93825Y305215D01*
X94017Y305008D01*
X94094Y304595D01*
X94017Y304181D01*
X93787Y303923D01*
X93518Y303768D01*
X92560D01*
G01X93518D02*
X94094Y302270D01*
G01X94984Y302890D02*
X95213Y302528D01*
X95520Y302321D01*
X95865Y302270D01*
X96172Y302321D01*
X96478Y302580D01*
X96670Y302890D01*
X96709Y303200D01*
X96632Y303561D01*
X96364Y303820D01*
X96095Y303923D01*
X95750D01*
G01X96095D02*
X96325Y304078D01*
X96517Y304336D01*
X96594Y304646D01*
X96517Y304956D01*
X96325Y305215D01*
X95980Y305370D01*
X95635Y305318D01*
X95290Y305111D01*
G01X97598Y304853D02*
X97828Y305163D01*
X98097Y305318D01*
X98404Y305370D01*
X98787Y305266D01*
X99055Y305008D01*
X99132Y304698D01*
X99094Y304388D01*
X98940Y304130D01*
X98174Y303613D01*
X97828Y303251D01*
X97598Y302735D01*
X97522Y302270D01*
X99132D01*
G01X94170Y314521D02*
X93940Y314676D01*
X93672Y314779D01*
X93365D01*
X93020Y314624D01*
X92752Y314366D01*
X92560Y314056D01*
X92407Y313539D01*
X92368Y313074D01*
X92445Y312609D01*
X92560Y312299D01*
X92790Y311989D01*
X93059Y311782D01*
X93327Y311679D01*
X93595D01*
X93864Y311782D01*
X94094Y311937D01*
X94285Y312144D01*
G01X94984Y312299D02*
X95213Y311937D01*
X95520Y311731D01*
X95865Y311679D01*
X96172Y311731D01*
X96478Y311989D01*
X96670Y312299D01*
X96709Y312609D01*
X96632Y312971D01*
X96364Y313229D01*
X96095Y313332D01*
X95750D01*
G01X96095D02*
X96325Y313487D01*
X96517Y313746D01*
X96594Y314056D01*
X96517Y314366D01*
X96325Y314624D01*
X95980Y314779D01*
X95635Y314727D01*
X95290Y314521D01*
G01X98250Y311679D02*
X98327Y312351D01*
X98442Y312919D01*
X98595Y313436D01*
X98787Y314004D01*
X99094Y314779D01*
X97560D01*
G01X94170Y323851D02*
X93940Y324006D01*
X93672Y324110D01*
X93365D01*
X93020Y323955D01*
X92752Y323696D01*
X92560Y323386D01*
X92407Y322870D01*
X92368Y322405D01*
X92445Y321940D01*
X92560Y321630D01*
X92790Y321320D01*
X93059Y321113D01*
X93327Y321010D01*
X93595D01*
X93864Y321113D01*
X94094Y321268D01*
X94285Y321475D01*
G01X94984Y321630D02*
X95213Y321268D01*
X95520Y321062D01*
X95865Y321010D01*
X96172Y321062D01*
X96478Y321320D01*
X96670Y321630D01*
X96709Y321940D01*
X96632Y322301D01*
X96364Y322560D01*
X96095Y322663D01*
X95750D01*
G01X96095D02*
X96325Y322818D01*
X96517Y323076D01*
X96594Y323386D01*
X96517Y323696D01*
X96325Y323955D01*
X95980Y324110D01*
X95635Y324058D01*
X95290Y323851D01*
G01X97598Y322301D02*
X97867Y322663D01*
X98097Y322870D01*
X98404Y322973D01*
X98672Y322870D01*
X98864Y322663D01*
X99017Y322353D01*
X99055Y321991D01*
X99017Y321681D01*
X98864Y321371D01*
X98633Y321113D01*
X98365Y321010D01*
X98058Y321113D01*
X97790Y321423D01*
X97637Y321888D01*
X97598Y322405D01*
X97675Y323076D01*
X97790Y323438D01*
X97982Y323800D01*
X98250Y324058D01*
X98518Y324110D01*
X98787Y324006D01*
X98978Y323748D01*
G01X105128Y84789D02*
X104821Y84841D01*
X104553Y85048D01*
X104323Y85358D01*
X104170Y85719D01*
X104093Y86133D01*
Y86546D01*
X104170Y86959D01*
X104323Y87321D01*
X104553Y87631D01*
X104821Y87838D01*
X105128Y87889D01*
X105435Y87838D01*
X105703Y87631D01*
X105933Y87321D01*
X106086Y86959D01*
X106163Y86546D01*
Y86133D01*
X106086Y85719D01*
X105933Y85358D01*
X105703Y85048D01*
X105435Y84841D01*
X105128Y84789D01*
G01X105435Y85616D02*
X105895Y84789D01*
G01X107628D02*
Y87889D01*
X107168Y87269D01*
G01Y84789D02*
X108088D01*
G01X109844Y65656D02*
Y68755D01*
X110802D01*
X111109Y68600D01*
X111300Y68394D01*
X111377Y67980D01*
X111300Y67567D01*
X111070Y67309D01*
X110802Y67154D01*
X109844D01*
G01X110802D02*
X111377Y65656D01*
G01X113570D02*
Y68755D01*
X112152Y66534D01*
X114069D01*
G01X114767Y66276D02*
X114997Y65914D01*
X115304Y65707D01*
X115649Y65656D01*
X115955Y65707D01*
X116262Y65965D01*
X116454Y66276D01*
X116492Y66586D01*
X116415Y66947D01*
X116147Y67206D01*
X115879Y67309D01*
X115534D01*
G01X115879D02*
X116109Y67464D01*
X116300Y67722D01*
X116377Y68032D01*
X116300Y68342D01*
X116109Y68600D01*
X115764Y68755D01*
X115418Y68704D01*
X115073Y68497D01*
G01X110617Y132247D02*
X110387Y132402D01*
X110119Y132506D01*
X109812D01*
X109467Y132350D01*
X109199Y132092D01*
X109007Y131782D01*
X108854Y131266D01*
X108815Y130801D01*
X108892Y130336D01*
X109007Y130026D01*
X109237Y129715D01*
X109505Y129509D01*
X109774Y129406D01*
X110042D01*
X110310Y129509D01*
X110540Y129664D01*
X110732Y129870D01*
G01X112274Y129406D02*
Y132506D01*
X111814Y131886D01*
G01Y129406D02*
X112734D01*
G01X117300Y134157D02*
X117070Y134312D01*
X116802Y134415D01*
X116495D01*
X116150Y134260D01*
X115882Y134002D01*
X115690Y133692D01*
X115537Y133175D01*
X115498Y132710D01*
X115575Y132245D01*
X115690Y131935D01*
X115920Y131625D01*
X116188Y131418D01*
X116457Y131315D01*
X116725D01*
X116993Y131418D01*
X117223Y131573D01*
X117415Y131780D01*
G01X118228Y133898D02*
X118458Y134208D01*
X118727Y134363D01*
X119033Y134415D01*
X119417Y134312D01*
X119685Y134053D01*
X119762Y133743D01*
X119723Y133433D01*
X119570Y133175D01*
X118803Y132658D01*
X118458Y132297D01*
X118228Y131780D01*
X118152Y131315D01*
X119762D01*
G01X121468Y65715D02*
Y68815D01*
X122426D01*
X122733Y68660D01*
X122924Y68453D01*
X123001Y68040D01*
X122924Y67626D01*
X122694Y67368D01*
X122426Y67213D01*
X121468D01*
G01X122426D02*
X123001Y65715D01*
G01X125194D02*
Y68815D01*
X123776Y66593D01*
X125693D01*
G01X127234Y68815D02*
X126928Y68711D01*
X126698Y68453D01*
X126544Y68143D01*
X126429Y67730D01*
X126391Y67265D01*
X126429Y66800D01*
X126544Y66386D01*
X126698Y66076D01*
X126928Y65818D01*
X127234Y65715D01*
X127541Y65818D01*
X127771Y66076D01*
X127924Y66386D01*
X128039Y66800D01*
X128078Y67265D01*
X128039Y67730D01*
X127924Y68143D01*
X127771Y68453D01*
X127541Y68711D01*
X127234Y68815D01*
G01X121517Y104435D02*
Y107535D01*
X122475D01*
X122782Y107380D01*
X122974Y107173D01*
X123050Y106760D01*
X122974Y106347D01*
X122744Y106088D01*
X122475Y105933D01*
X121517D01*
G01X122475D02*
X123050Y104435D01*
G01X123940Y105055D02*
X124170Y104693D01*
X124477Y104487D01*
X124822Y104435D01*
X125129Y104487D01*
X125435Y104745D01*
X125627Y105055D01*
X125665Y105365D01*
X125588Y105727D01*
X125320Y105985D01*
X125052Y106088D01*
X124707D01*
G01X125052D02*
X125282Y106243D01*
X125474Y106502D01*
X125550Y106812D01*
X125474Y107122D01*
X125282Y107380D01*
X124937Y107535D01*
X124592Y107483D01*
X124247Y107277D01*
G01X121556Y110409D02*
Y113509D01*
X122514D01*
X122821Y113354D01*
X123013Y113148D01*
X123090Y112734D01*
X123013Y112321D01*
X122783Y112063D01*
X122514Y111908D01*
X121556D01*
G01X122514D02*
X123090Y110409D01*
G01X124094Y112993D02*
X124324Y113303D01*
X124593Y113458D01*
X124899Y113509D01*
X125283Y113406D01*
X125551Y113148D01*
X125628Y112838D01*
X125590Y112528D01*
X125436Y112269D01*
X124669Y111753D01*
X124324Y111391D01*
X124094Y110874D01*
X124018Y110409D01*
X125628D01*
G01X151498Y115911D02*
X151268Y116066D01*
X150999Y116169D01*
X150693D01*
X150348Y116014D01*
X150079Y115756D01*
X149888Y115446D01*
X149734Y114929D01*
X149696Y114464D01*
X149773Y113999D01*
X149888Y113689D01*
X150118Y113379D01*
X150386Y113172D01*
X150654Y113069D01*
X150923D01*
X151191Y113172D01*
X151421Y113328D01*
X151613Y113534D01*
G01X152311Y113689D02*
X152541Y113328D01*
X152848Y113121D01*
X153193Y113069D01*
X153499Y113121D01*
X153806Y113379D01*
X153998Y113689D01*
X154036Y113999D01*
X153959Y114361D01*
X153691Y114619D01*
X153423Y114723D01*
X153078D01*
G01X153423D02*
X153653Y114878D01*
X153844Y115136D01*
X153921Y115446D01*
X153844Y115756D01*
X153653Y116014D01*
X153308Y116169D01*
X152963Y116118D01*
X152618Y115911D01*
G01X154811Y113689D02*
X155041Y113328D01*
X155348Y113121D01*
X155693Y113069D01*
X155999Y113121D01*
X156306Y113379D01*
X156498Y113689D01*
X156536Y113999D01*
X156459Y114361D01*
X156191Y114619D01*
X155923Y114723D01*
X155578D01*
G01X155923D02*
X156153Y114878D01*
X156344Y115136D01*
X156421Y115446D01*
X156344Y115756D01*
X156153Y116014D01*
X155808Y116169D01*
X155463Y116118D01*
X155118Y115911D01*
G01X151508Y138051D02*
X151278Y138206D01*
X151009Y138309D01*
X150703D01*
X150358Y138154D01*
X150089Y137896D01*
X149898Y137586D01*
X149744Y137069D01*
X149706Y136604D01*
X149783Y136139D01*
X149898Y135829D01*
X150128Y135519D01*
X150396Y135312D01*
X150664Y135209D01*
X150932D01*
X151201Y135312D01*
X151431Y135467D01*
X151623Y135674D01*
G01X152321Y135829D02*
X152551Y135467D01*
X152858Y135261D01*
X153203Y135209D01*
X153509Y135261D01*
X153816Y135519D01*
X154008Y135829D01*
X154046Y136139D01*
X153969Y136501D01*
X153701Y136759D01*
X153433Y136862D01*
X153088D01*
G01X153433D02*
X153662Y137017D01*
X153854Y137276D01*
X153931Y137586D01*
X153854Y137896D01*
X153662Y138154D01*
X153318Y138309D01*
X152972Y138257D01*
X152628Y138051D01*
G01X155664Y138309D02*
X155358Y138206D01*
X155128Y137947D01*
X154974Y137637D01*
X154859Y137224D01*
X154821Y136759D01*
X154859Y136294D01*
X154974Y135881D01*
X155128Y135571D01*
X155358Y135312D01*
X155664Y135209D01*
X155971Y135312D01*
X156201Y135571D01*
X156354Y135881D01*
X156469Y136294D01*
X156508Y136759D01*
X156469Y137224D01*
X156354Y137637D01*
X156201Y137947D01*
X155971Y138206D01*
X155664Y138309D01*
G01X164186Y70501D02*
Y73601D01*
X165144D01*
X165451Y73446D01*
X165643Y73239D01*
X165719Y72826D01*
X165643Y72412D01*
X165413Y72154D01*
X165144Y71999D01*
X164186D01*
G01X165144D02*
X165719Y70501D01*
G01X166724Y73084D02*
X166954Y73394D01*
X167223Y73549D01*
X167529Y73601D01*
X167913Y73497D01*
X168181Y73239D01*
X168258Y72929D01*
X168219Y72619D01*
X168066Y72361D01*
X167299Y71844D01*
X166954Y71482D01*
X166724Y70966D01*
X166648Y70501D01*
X168258D01*
G01X169953D02*
X170221Y70552D01*
X170528Y70707D01*
X170719Y70966D01*
X170796Y71327D01*
X170719Y71689D01*
X170489Y71999D01*
X170144Y72154D01*
X169761D01*
X169531Y72257D01*
X169339Y72516D01*
X169263Y72877D01*
X169378Y73239D01*
X169646Y73497D01*
X169953Y73601D01*
X170259Y73497D01*
X170528Y73239D01*
X170643Y72877D01*
X170566Y72516D01*
X170374Y72257D01*
X170144Y72154D01*
X169761D01*
X169416Y71999D01*
X169186Y71689D01*
X169109Y71327D01*
X169186Y70966D01*
X169378Y70707D01*
X169684Y70552D01*
X169953Y70501D01*
G01X171036Y82702D02*
Y85802D01*
X171994D01*
X172301Y85646D01*
X172493Y85440D01*
X172570Y85027D01*
X172493Y84613D01*
X172263Y84355D01*
X171994Y84200D01*
X171036D01*
G01X171994D02*
X172570Y82702D01*
G01X173574Y85285D02*
X173804Y85595D01*
X174073Y85750D01*
X174380Y85802D01*
X174763Y85698D01*
X175031Y85440D01*
X175108Y85130D01*
X175070Y84820D01*
X174916Y84562D01*
X174150Y84045D01*
X173804Y83683D01*
X173574Y83166D01*
X173498Y82702D01*
X175108D01*
G01X176151Y83063D02*
X176419Y82805D01*
X176726Y82702D01*
X177033Y82805D01*
X177301Y83115D01*
X177493Y83580D01*
X177570Y84045D01*
Y84613D01*
X177493Y85078D01*
X177301Y85492D01*
X177071Y85698D01*
X176803Y85802D01*
X176496Y85698D01*
X176266Y85492D01*
X176113Y85182D01*
X176036Y84768D01*
X176113Y84407D01*
X176305Y84045D01*
X176535Y83838D01*
X176803Y83787D01*
X177109Y83890D01*
X177340Y84148D01*
X177570Y84613D01*
G01X173582Y117347D02*
Y115125D01*
X173735Y114660D01*
X174041Y114350D01*
X174425Y114247D01*
X174808Y114350D01*
X175115Y114660D01*
X175268Y115125D01*
Y117347D01*
G01X176082Y114712D02*
X176311Y114453D01*
X176580Y114298D01*
X176925Y114247D01*
X177270Y114350D01*
X177538Y114557D01*
X177730Y114918D01*
X177768Y115332D01*
X177692Y115745D01*
X177500Y116004D01*
X177231Y116210D01*
X176963Y116262D01*
X176695Y116210D01*
X176350Y116004D01*
X176465Y117347D01*
X177500D01*
G01X173960Y205261D02*
Y203040D01*
X174113Y202575D01*
X174420Y202265D01*
X174803Y202161D01*
X175186Y202265D01*
X175493Y202575D01*
X175646Y203040D01*
Y205261D01*
G01X176460Y202781D02*
X176690Y202420D01*
X176996Y202213D01*
X177342Y202161D01*
X177648Y202213D01*
X177955Y202471D01*
X178146Y202781D01*
X178185Y203091D01*
X178108Y203453D01*
X177840Y203711D01*
X177571Y203815D01*
X177226D01*
G01X177571D02*
X177801Y203970D01*
X177993Y204228D01*
X178070Y204538D01*
X177993Y204848D01*
X177801Y205106D01*
X177456Y205261D01*
X177111Y205210D01*
X176766Y205003D01*
G01X171673Y263140D02*
Y266240D01*
X172632D01*
X172938Y266085D01*
X173130Y265878D01*
X173207Y265465D01*
X173130Y265051D01*
X172900Y264793D01*
X172632Y264638D01*
X171673D01*
G01X172632D02*
X173207Y263140D01*
G01X174940D02*
Y266240D01*
X174480Y265620D01*
G01Y263140D02*
X175400D01*
G01X177440D02*
Y266240D01*
X176980Y265620D01*
G01Y263140D02*
X177900D01*
G01X174790Y272306D02*
X174560Y272461D01*
X174292Y272565D01*
X173985D01*
X173640Y272410D01*
X173372Y272151D01*
X173180Y271841D01*
X173027Y271325D01*
X172988Y270860D01*
X173065Y270395D01*
X173180Y270085D01*
X173410Y269774D01*
X173679Y269568D01*
X173947Y269465D01*
X174215D01*
X174484Y269568D01*
X174714Y269723D01*
X174905Y269930D01*
G01X175795Y269826D02*
X176064Y269568D01*
X176370Y269465D01*
X176677Y269568D01*
X176945Y269878D01*
X177137Y270343D01*
X177214Y270808D01*
Y271376D01*
X177137Y271841D01*
X176945Y272255D01*
X176715Y272461D01*
X176447Y272565D01*
X176140Y272461D01*
X175910Y272255D01*
X175757Y271945D01*
X175680Y271531D01*
X175757Y271170D01*
X175949Y270808D01*
X176179Y270601D01*
X176447Y270550D01*
X176754Y270653D01*
X176984Y270911D01*
X177214Y271376D01*
G01X177363Y70104D02*
Y73204D01*
X178322D01*
X178628Y73049D01*
X178820Y72843D01*
X178897Y72429D01*
X178820Y72016D01*
X178590Y71758D01*
X178322Y71603D01*
X177363D01*
G01X178322D02*
X178897Y70104D01*
G01X179787Y70724D02*
X180016Y70363D01*
X180323Y70156D01*
X180668Y70104D01*
X180975Y70156D01*
X181282Y70414D01*
X181473Y70724D01*
X181512Y71034D01*
X181435Y71396D01*
X181167Y71654D01*
X180898Y71758D01*
X180553D01*
G01X180898D02*
X181128Y71913D01*
X181320Y72171D01*
X181397Y72481D01*
X181320Y72791D01*
X181128Y73049D01*
X180783Y73204D01*
X180438Y73153D01*
X180093Y72946D01*
G01X183130Y73204D02*
X182823Y73101D01*
X182593Y72843D01*
X182440Y72533D01*
X182325Y72119D01*
X182287Y71654D01*
X182325Y71189D01*
X182440Y70776D01*
X182593Y70466D01*
X182823Y70208D01*
X183130Y70104D01*
X183436Y70208D01*
X183667Y70466D01*
X183820Y70776D01*
X183935Y71189D01*
X183973Y71654D01*
X183935Y72119D01*
X183820Y72533D01*
X183667Y72843D01*
X183436Y73101D01*
X183130Y73204D01*
G01X188790Y262968D02*
Y266068D01*
X189749D01*
X190055Y265913D01*
X190247Y265707D01*
X190324Y265294D01*
X190247Y264880D01*
X190017Y264622D01*
X189749Y264467D01*
X188790D01*
G01X189749D02*
X190324Y262968D01*
G01X192057D02*
Y266068D01*
X191597Y265448D01*
G01Y262968D02*
X192517D01*
G01X193714Y263589D02*
X193944Y263227D01*
X194250Y263020D01*
X194596Y262968D01*
X194902Y263020D01*
X195209Y263278D01*
X195400Y263589D01*
X195439Y263899D01*
X195362Y264260D01*
X195094Y264518D01*
X194825Y264622D01*
X194480D01*
G01X194825D02*
X195055Y264777D01*
X195247Y265035D01*
X195324Y265345D01*
X195247Y265655D01*
X195055Y265913D01*
X194710Y266068D01*
X194365Y266017D01*
X194020Y265810D01*
G01X190253Y272306D02*
X190023Y272461D01*
X189754Y272565D01*
X189448D01*
X189103Y272410D01*
X188834Y272151D01*
X188643Y271841D01*
X188489Y271325D01*
X188451Y270860D01*
X188528Y270395D01*
X188643Y270085D01*
X188873Y269774D01*
X189141Y269568D01*
X189409Y269465D01*
X189678D01*
X189946Y269568D01*
X190176Y269723D01*
X190368Y269930D01*
G01X191909Y269465D02*
Y272565D01*
X191449Y271945D01*
G01Y269465D02*
X192369D01*
G01X194409Y272565D02*
X194103Y272461D01*
X193873Y272203D01*
X193719Y271893D01*
X193604Y271480D01*
X193566Y271015D01*
X193604Y270550D01*
X193719Y270136D01*
X193873Y269826D01*
X194103Y269568D01*
X194409Y269465D01*
X194716Y269568D01*
X194946Y269826D01*
X195099Y270136D01*
X195214Y270550D01*
X195253Y271015D01*
X195214Y271480D01*
X195099Y271893D01*
X194946Y272203D01*
X194716Y272461D01*
X194409Y272565D01*
G01X189987Y287956D02*
Y285734D01*
X190140Y285269D01*
X190447Y284959D01*
X190830Y284856D01*
X191213Y284959D01*
X191520Y285269D01*
X191673Y285734D01*
Y287956D01*
G01X192602Y287439D02*
X192832Y287749D01*
X193100Y287904D01*
X193407Y287956D01*
X193790Y287853D01*
X194058Y287594D01*
X194135Y287284D01*
X194097Y286974D01*
X193943Y286716D01*
X193177Y286199D01*
X192832Y285838D01*
X192602Y285321D01*
X192525Y284856D01*
X194135D01*
G01X197572Y5984D02*
Y3762D01*
X197725Y3297D01*
X198032Y2987D01*
X198415Y2884D01*
X198799Y2987D01*
X199105Y3297D01*
X199259Y3762D01*
Y5984D01*
G01X200839Y2884D02*
X200915Y3556D01*
X201030Y4124D01*
X201184Y4641D01*
X201375Y5209D01*
X201682Y5984D01*
X200149D01*
G01X193599Y315922D02*
X193369Y316077D01*
X193101Y316181D01*
X192794D01*
X192449Y316026D01*
X192181Y315767D01*
X191989Y315457D01*
X191836Y314941D01*
X191798Y314476D01*
X191874Y314011D01*
X191989Y313701D01*
X192219Y313391D01*
X192488Y313184D01*
X192756Y313081D01*
X193024D01*
X193293Y313184D01*
X193523Y313339D01*
X193714Y313546D01*
G01X195256Y313081D02*
X195524Y313132D01*
X195831Y313287D01*
X196023Y313546D01*
X196099Y313907D01*
X196023Y314269D01*
X195793Y314579D01*
X195448Y314734D01*
X195064D01*
X194834Y314837D01*
X194642Y315096D01*
X194566Y315457D01*
X194681Y315819D01*
X194949Y316077D01*
X195256Y316181D01*
X195562Y316077D01*
X195831Y315819D01*
X195946Y315457D01*
X195869Y315096D01*
X195678Y314837D01*
X195448Y314734D01*
X195064D01*
X194719Y314579D01*
X194489Y314269D01*
X194413Y313907D01*
X194489Y313546D01*
X194681Y313287D01*
X194988Y313132D01*
X195256Y313081D01*
G01X196027Y369868D02*
Y367646D01*
X196180Y367181D01*
X196487Y366871D01*
X196870Y366768D01*
X197254Y366871D01*
X197560Y367181D01*
X197713Y367646D01*
Y369868D01*
G01X198642Y368059D02*
X198910Y368421D01*
X199140Y368628D01*
X199447Y368731D01*
X199715Y368628D01*
X199907Y368421D01*
X200060Y368111D01*
X200098Y367749D01*
X200060Y367439D01*
X199907Y367129D01*
X199677Y366871D01*
X199408Y366768D01*
X199102Y366871D01*
X198833Y367181D01*
X198680Y367646D01*
X198642Y368163D01*
X198718Y368834D01*
X198833Y369196D01*
X199025Y369558D01*
X199293Y369816D01*
X199562Y369868D01*
X199830Y369764D01*
X200022Y369506D01*
G01X204125Y70577D02*
Y73677D01*
X205083D01*
X205390Y73522D01*
X205582Y73315D01*
X205658Y72902D01*
X205582Y72488D01*
X205352Y72230D01*
X205083Y72075D01*
X204125D01*
G01X205083D02*
X205658Y70577D01*
G01X206663Y73160D02*
X206893Y73470D01*
X207162Y73625D01*
X207468Y73677D01*
X207852Y73574D01*
X208120Y73315D01*
X208197Y73005D01*
X208158Y72695D01*
X208005Y72437D01*
X207238Y71920D01*
X206893Y71558D01*
X206663Y71042D01*
X206587Y70577D01*
X208197D01*
G01X209815D02*
X209892Y71248D01*
X210007Y71817D01*
X210160Y72334D01*
X210352Y72902D01*
X210658Y73677D01*
X209125D01*
G01X200615Y116628D02*
X200385Y116783D01*
X200117Y116886D01*
X199810D01*
X199465Y116731D01*
X199197Y116473D01*
X199005Y116163D01*
X198852Y115646D01*
X198814Y115181D01*
X198890Y114716D01*
X199005Y114406D01*
X199235Y114096D01*
X199504Y113890D01*
X199772Y113786D01*
X200040D01*
X200309Y113890D01*
X200539Y114044D01*
X200730Y114251D01*
G01X201429Y114406D02*
X201659Y114044D01*
X201965Y113838D01*
X202310Y113786D01*
X202617Y113838D01*
X202924Y114096D01*
X203115Y114406D01*
X203154Y114716D01*
X203077Y115078D01*
X202809Y115336D01*
X202540Y115440D01*
X202195D01*
G01X202540D02*
X202770Y115594D01*
X202962Y115853D01*
X203039Y116163D01*
X202962Y116473D01*
X202770Y116731D01*
X202425Y116886D01*
X202080Y116834D01*
X201735Y116628D01*
G01X204044Y116369D02*
X204274Y116680D01*
X204542Y116834D01*
X204849Y116886D01*
X205232Y116783D01*
X205500Y116524D01*
X205577Y116215D01*
X205539Y115905D01*
X205385Y115646D01*
X204619Y115130D01*
X204274Y114768D01*
X204044Y114251D01*
X203967Y113786D01*
X205577D01*
G01X200762Y138051D02*
X200532Y138206D01*
X200264Y138309D01*
X199957D01*
X199612Y138154D01*
X199344Y137896D01*
X199152Y137586D01*
X198999Y137069D01*
X198961Y136604D01*
X199037Y136139D01*
X199152Y135829D01*
X199382Y135519D01*
X199651Y135312D01*
X199919Y135209D01*
X200187D01*
X200456Y135312D01*
X200686Y135467D01*
X200877Y135674D01*
G01X201576Y135829D02*
X201806Y135467D01*
X202112Y135261D01*
X202457Y135209D01*
X202764Y135261D01*
X203071Y135519D01*
X203262Y135829D01*
X203301Y136139D01*
X203224Y136501D01*
X202956Y136759D01*
X202687Y136862D01*
X202342D01*
G01X202687D02*
X202917Y137017D01*
X203109Y137276D01*
X203186Y137586D01*
X203109Y137896D01*
X202917Y138154D01*
X202572Y138309D01*
X202227Y138257D01*
X201882Y138051D01*
G01X204919Y135209D02*
Y138309D01*
X204459Y137689D01*
G01Y135209D02*
X205379D01*
G01X211763Y82890D02*
Y85990D01*
X212721D01*
X213028Y85835D01*
X213220Y85628D01*
X213296Y85215D01*
X213220Y84801D01*
X212990Y84543D01*
X212721Y84388D01*
X211763D01*
G01X212721D02*
X213296Y82890D01*
G01X214301Y85473D02*
X214531Y85783D01*
X214800Y85938D01*
X215106Y85990D01*
X215490Y85886D01*
X215758Y85628D01*
X215834Y85318D01*
X215796Y85008D01*
X215643Y84750D01*
X214876Y84233D01*
X214531Y83871D01*
X214301Y83355D01*
X214224Y82890D01*
X215834D01*
G01X216801Y84181D02*
X217070Y84543D01*
X217299Y84750D01*
X217606Y84853D01*
X217875Y84750D01*
X218066Y84543D01*
X218220Y84233D01*
X218258Y83871D01*
X218220Y83561D01*
X218066Y83251D01*
X217836Y82993D01*
X217568Y82890D01*
X217261Y82993D01*
X216993Y83303D01*
X216839Y83768D01*
X216801Y84285D01*
X216878Y84956D01*
X216993Y85318D01*
X217184Y85680D01*
X217453Y85938D01*
X217721Y85990D01*
X217990Y85886D01*
X218181Y85628D01*
G01X212802Y307818D02*
X212572Y307973D01*
X212304Y308076D01*
X211997D01*
X211652Y307921D01*
X211384Y307663D01*
X211192Y307353D01*
X211039Y306836D01*
X211000Y306371D01*
X211077Y305906D01*
X211192Y305596D01*
X211422Y305286D01*
X211690Y305080D01*
X211959Y304976D01*
X212227D01*
X212495Y305080D01*
X212725Y305235D01*
X212917Y305441D01*
G01X213730Y306268D02*
X213999Y306630D01*
X214229Y306836D01*
X214535Y306940D01*
X214804Y306836D01*
X214995Y306630D01*
X215149Y306320D01*
X215187Y305958D01*
X215149Y305648D01*
X214995Y305338D01*
X214765Y305080D01*
X214497Y304976D01*
X214190Y305080D01*
X213922Y305390D01*
X213769Y305855D01*
X213730Y306371D01*
X213807Y307043D01*
X213922Y307405D01*
X214114Y307766D01*
X214382Y308025D01*
X214650Y308076D01*
X214919Y307973D01*
X215110Y307715D01*
G01X217393Y70577D02*
Y73677D01*
X218351D01*
X218658Y73522D01*
X218849Y73315D01*
X218926Y72902D01*
X218849Y72488D01*
X218619Y72230D01*
X218351Y72075D01*
X217393D01*
G01X218351D02*
X218926Y70577D01*
G01X219931Y73160D02*
X220161Y73470D01*
X220429Y73625D01*
X220736Y73677D01*
X221119Y73574D01*
X221388Y73315D01*
X221464Y73005D01*
X221426Y72695D01*
X221273Y72437D01*
X220506Y71920D01*
X220161Y71558D01*
X219931Y71042D01*
X219854Y70577D01*
X221464D01*
G01X222316Y71197D02*
X222546Y70835D01*
X222853Y70628D01*
X223198Y70577D01*
X223504Y70628D01*
X223811Y70887D01*
X224003Y71197D01*
X224041Y71507D01*
X223964Y71868D01*
X223696Y72127D01*
X223428Y72230D01*
X223083D01*
G01X223428D02*
X223658Y72385D01*
X223849Y72643D01*
X223926Y72953D01*
X223849Y73264D01*
X223658Y73522D01*
X223313Y73677D01*
X222968Y73625D01*
X222623Y73418D01*
G01X221674Y288392D02*
Y291492D01*
X222633D01*
X222939Y291337D01*
X223131Y291130D01*
X223208Y290717D01*
X223131Y290303D01*
X222901Y290045D01*
X222633Y289890D01*
X221674D01*
G01X222633D02*
X223208Y288392D01*
G01X224941D02*
Y291492D01*
X224481Y290872D01*
G01Y288392D02*
X225401D01*
G01X227441Y291492D02*
X227134Y291388D01*
X226904Y291130D01*
X226751Y290820D01*
X226636Y290407D01*
X226598Y289942D01*
X226636Y289477D01*
X226751Y289063D01*
X226904Y288753D01*
X227134Y288495D01*
X227441Y288392D01*
X227748Y288495D01*
X227978Y288753D01*
X228131Y289063D01*
X228246Y289477D01*
X228284Y289942D01*
X228246Y290407D01*
X228131Y290820D01*
X227978Y291130D01*
X227748Y291388D01*
X227441Y291492D01*
G01X221674Y282191D02*
Y285291D01*
X222633D01*
X222939Y285136D01*
X223131Y284929D01*
X223208Y284516D01*
X223131Y284102D01*
X222901Y283844D01*
X222633Y283689D01*
X221674D01*
G01X222633D02*
X223208Y282191D01*
G01X224941D02*
Y285291D01*
X224481Y284671D01*
G01Y282191D02*
X225401D01*
G01X226712Y284774D02*
X226943Y285084D01*
X227211Y285239D01*
X227518Y285291D01*
X227901Y285188D01*
X228169Y284929D01*
X228246Y284619D01*
X228208Y284309D01*
X228054Y284051D01*
X227288Y283534D01*
X226943Y283172D01*
X226712Y282656D01*
X226636Y282191D01*
X228246D01*
G01X220804Y310259D02*
X220574Y310414D01*
X220306Y310517D01*
X219999D01*
X219654Y310362D01*
X219386Y310104D01*
X219194Y309794D01*
X219041Y309277D01*
X219002Y308812D01*
X219079Y308347D01*
X219194Y308037D01*
X219424Y307727D01*
X219692Y307521D01*
X219961Y307417D01*
X220229D01*
X220497Y307521D01*
X220727Y307676D01*
X220919Y307882D01*
G01X222384Y307417D02*
X222461Y308089D01*
X222576Y308657D01*
X222729Y309174D01*
X222921Y309742D01*
X223227Y310517D01*
X221694D01*
G01X230661Y70577D02*
Y73677D01*
X231619D01*
X231926Y73522D01*
X232117Y73315D01*
X232194Y72902D01*
X232117Y72488D01*
X231887Y72230D01*
X231619Y72075D01*
X230661D01*
G01X231619D02*
X232194Y70577D01*
G01X233199Y73160D02*
X233429Y73470D01*
X233697Y73625D01*
X234004Y73677D01*
X234387Y73574D01*
X234656Y73315D01*
X234732Y73005D01*
X234694Y72695D01*
X234541Y72437D01*
X233774Y71920D01*
X233429Y71558D01*
X233199Y71042D01*
X233122Y70577D01*
X234732D01*
G01X235699Y73160D02*
X235929Y73470D01*
X236197Y73625D01*
X236504Y73677D01*
X236887Y73574D01*
X237156Y73315D01*
X237232Y73005D01*
X237194Y72695D01*
X237041Y72437D01*
X236274Y71920D01*
X235929Y71558D01*
X235699Y71042D01*
X235622Y70577D01*
X237232D01*
G01X224588Y82890D02*
Y85990D01*
X225546D01*
X225853Y85835D01*
X226044Y85628D01*
X226121Y85215D01*
X226044Y84801D01*
X225814Y84543D01*
X225546Y84388D01*
X224588D01*
G01X225546D02*
X226121Y82890D01*
G01X227126Y85473D02*
X227356Y85783D01*
X227624Y85938D01*
X227931Y85990D01*
X228314Y85886D01*
X228583Y85628D01*
X228659Y85318D01*
X228621Y85008D01*
X228468Y84750D01*
X227701Y84233D01*
X227356Y83871D01*
X227126Y83355D01*
X227049Y82890D01*
X228659D01*
G01X229511Y83355D02*
X229741Y83096D01*
X230009Y82942D01*
X230354Y82890D01*
X230699Y82993D01*
X230968Y83200D01*
X231159Y83561D01*
X231198Y83975D01*
X231121Y84388D01*
X230929Y84646D01*
X230661Y84853D01*
X230393Y84905D01*
X230124Y84853D01*
X229779Y84646D01*
X229894Y85990D01*
X230929D01*
G01X225130Y117680D02*
Y115458D01*
X225283Y114993D01*
X225589Y114683D01*
X225973Y114580D01*
X226356Y114683D01*
X226663Y114993D01*
X226816Y115458D01*
Y117680D01*
G01X228933Y114580D02*
Y117680D01*
X227514Y115458D01*
X229431D01*
G01X237412Y82890D02*
Y85990D01*
X238371D01*
X238677Y85835D01*
X238869Y85628D01*
X238946Y85215D01*
X238869Y84801D01*
X238639Y84543D01*
X238371Y84388D01*
X237412D01*
G01X238371D02*
X238946Y82890D01*
G01X239951Y85473D02*
X240181Y85783D01*
X240449Y85938D01*
X240756Y85990D01*
X241139Y85886D01*
X241408Y85628D01*
X241484Y85318D01*
X241446Y85008D01*
X241292Y84750D01*
X240526Y84233D01*
X240181Y83871D01*
X239951Y83355D01*
X239874Y82890D01*
X241484D01*
G01X243179D02*
Y85990D01*
X242719Y85370D01*
G01Y82890D02*
X243639D01*
G01X232668Y221413D02*
Y224513D01*
X233627D01*
X233933Y224358D01*
X234125Y224152D01*
X234202Y223738D01*
X234125Y223325D01*
X233895Y223067D01*
X233627Y222912D01*
X232668D01*
G01X233627D02*
X234202Y221413D01*
G01X235935D02*
Y224513D01*
X235475Y223893D01*
G01Y221413D02*
X236395D01*
G01X237592Y221878D02*
X237822Y221620D01*
X238090Y221465D01*
X238435Y221413D01*
X238780Y221517D01*
X239048Y221723D01*
X239240Y222085D01*
X239278Y222498D01*
X239202Y222912D01*
X239010Y223170D01*
X238742Y223377D01*
X238473Y223428D01*
X238205Y223377D01*
X237860Y223170D01*
X237975Y224513D01*
X239010D01*
G01X243928Y70577D02*
Y73677D01*
X244887D01*
X245193Y73522D01*
X245385Y73315D01*
X245462Y72902D01*
X245385Y72488D01*
X245155Y72230D01*
X244887Y72075D01*
X243928D01*
G01X244887D02*
X245462Y70577D01*
G01X246466Y73160D02*
X246697Y73470D01*
X246965Y73625D01*
X247272Y73677D01*
X247655Y73574D01*
X247923Y73315D01*
X248000Y73005D01*
X247962Y72695D01*
X247808Y72437D01*
X247042Y71920D01*
X246697Y71558D01*
X246466Y71042D01*
X246390Y70577D01*
X248000D01*
G01X250155D02*
Y73677D01*
X248736Y71455D01*
X250653D01*
G01X247894Y215311D02*
X247587Y215363D01*
X247319Y215569D01*
X247089Y215879D01*
X246935Y216241D01*
X246859Y216654D01*
Y217068D01*
X246935Y217481D01*
X247089Y217843D01*
X247319Y218153D01*
X247587Y218359D01*
X247894Y218411D01*
X248200Y218359D01*
X248469Y218153D01*
X248699Y217843D01*
X248852Y217481D01*
X248929Y217068D01*
Y216654D01*
X248852Y216241D01*
X248699Y215879D01*
X248469Y215569D01*
X248200Y215363D01*
X247894Y215311D01*
G01X250394D02*
Y218411D01*
X249934Y217791D01*
G01Y215311D02*
X250854D01*
G01X244032Y236479D02*
X243802Y236634D01*
X243534Y236738D01*
X243227D01*
X242882Y236583D01*
X242614Y236324D01*
X242422Y236014D01*
X242269Y235498D01*
X242231Y235033D01*
X242307Y234568D01*
X242422Y234258D01*
X242652Y233948D01*
X242921Y233741D01*
X243189Y233638D01*
X243457D01*
X243726Y233741D01*
X243956Y233896D01*
X244147Y234103D01*
G01X245689Y233638D02*
Y236738D01*
X245229Y236118D01*
G01Y233638D02*
X246149D01*
G01X247461Y234929D02*
X247729Y235291D01*
X247959Y235498D01*
X248266Y235601D01*
X248534Y235498D01*
X248726Y235291D01*
X248879Y234981D01*
X248917Y234619D01*
X248879Y234309D01*
X248726Y233999D01*
X248496Y233741D01*
X248227Y233638D01*
X247921Y233741D01*
X247652Y234051D01*
X247499Y234516D01*
X247461Y235033D01*
X247537Y235704D01*
X247652Y236066D01*
X247844Y236428D01*
X248112Y236686D01*
X248381Y236738D01*
X248649Y236634D01*
X248841Y236376D01*
G01X250237Y82890D02*
Y85990D01*
X251196D01*
X251502Y85835D01*
X251694Y85628D01*
X251771Y85215D01*
X251694Y84801D01*
X251464Y84543D01*
X251196Y84388D01*
X250237D01*
G01X251196D02*
X251771Y82890D01*
G01X252776Y85473D02*
X253006Y85783D01*
X253274Y85938D01*
X253581Y85990D01*
X253964Y85886D01*
X254232Y85628D01*
X254309Y85318D01*
X254271Y85008D01*
X254117Y84750D01*
X253351Y84233D01*
X253006Y83871D01*
X252776Y83355D01*
X252699Y82890D01*
X254309D01*
G01X256004Y85990D02*
X255697Y85886D01*
X255467Y85628D01*
X255314Y85318D01*
X255199Y84905D01*
X255161Y84440D01*
X255199Y83975D01*
X255314Y83561D01*
X255467Y83251D01*
X255697Y82993D01*
X256004Y82890D01*
X256311Y82993D01*
X256541Y83251D01*
X256694Y83561D01*
X256809Y83975D01*
X256847Y84440D01*
X256809Y84905D01*
X256694Y85318D01*
X256541Y85628D01*
X256311Y85886D01*
X256004Y85990D01*
G01X252861Y159117D02*
X252631Y159272D01*
X252363Y159376D01*
X252056D01*
X251711Y159220D01*
X251443Y158962D01*
X251251Y158652D01*
X251098Y158136D01*
X251059Y157671D01*
X251136Y157206D01*
X251251Y156896D01*
X251481Y156586D01*
X251749Y156379D01*
X252018Y156276D01*
X252286D01*
X252554Y156379D01*
X252784Y156534D01*
X252976Y156740D01*
G01X253789Y158859D02*
X254019Y159169D01*
X254288Y159324D01*
X254594Y159376D01*
X254978Y159272D01*
X255246Y159014D01*
X255323Y158704D01*
X255284Y158394D01*
X255131Y158136D01*
X254364Y157619D01*
X254019Y157257D01*
X253789Y156740D01*
X253713Y156276D01*
X255323D01*
G01X257018D02*
Y159376D01*
X256558Y158756D01*
G01Y156276D02*
X257478D01*
G01X252861Y166716D02*
X252631Y166871D01*
X252363Y166974D01*
X252056D01*
X251711Y166819D01*
X251443Y166561D01*
X251251Y166251D01*
X251098Y165734D01*
X251059Y165269D01*
X251136Y164804D01*
X251251Y164494D01*
X251481Y164184D01*
X251749Y163977D01*
X252018Y163874D01*
X252286D01*
X252554Y163977D01*
X252784Y164132D01*
X252976Y164339D01*
G01X253789Y166457D02*
X254019Y166767D01*
X254288Y166922D01*
X254594Y166974D01*
X254978Y166871D01*
X255246Y166612D01*
X255323Y166302D01*
X255284Y165992D01*
X255131Y165734D01*
X254364Y165217D01*
X254019Y164856D01*
X253789Y164339D01*
X253713Y163874D01*
X255323D01*
G01X257018Y166974D02*
X256711Y166871D01*
X256481Y166612D01*
X256328Y166302D01*
X256213Y165889D01*
X256174Y165424D01*
X256213Y164959D01*
X256328Y164546D01*
X256481Y164236D01*
X256711Y163977D01*
X257018Y163874D01*
X257324Y163977D01*
X257554Y164236D01*
X257708Y164546D01*
X257823Y164959D01*
X257861Y165424D01*
X257823Y165889D01*
X257708Y166302D01*
X257554Y166612D01*
X257324Y166871D01*
X257018Y166974D01*
G01X252861Y174521D02*
X252631Y174676D01*
X252363Y174779D01*
X252056D01*
X251711Y174624D01*
X251443Y174366D01*
X251251Y174056D01*
X251098Y173539D01*
X251059Y173074D01*
X251136Y172609D01*
X251251Y172299D01*
X251481Y171989D01*
X251749Y171782D01*
X252018Y171679D01*
X252286D01*
X252554Y171782D01*
X252784Y171937D01*
X252976Y172144D01*
G01X254518Y171679D02*
Y174779D01*
X254058Y174159D01*
G01Y171679D02*
X254978D01*
G01X256366Y172041D02*
X256634Y171782D01*
X256941Y171679D01*
X257248Y171782D01*
X257516Y172092D01*
X257708Y172557D01*
X257784Y173022D01*
Y173591D01*
X257708Y174056D01*
X257516Y174469D01*
X257286Y174676D01*
X257018Y174779D01*
X256711Y174676D01*
X256481Y174469D01*
X256328Y174159D01*
X256251Y173746D01*
X256328Y173384D01*
X256519Y173022D01*
X256749Y172816D01*
X257018Y172764D01*
X257324Y172867D01*
X257554Y173126D01*
X257784Y173591D01*
G01X251251Y178628D02*
Y181728D01*
X252209D01*
X252516Y181573D01*
X252708Y181366D01*
X252784Y180953D01*
X252708Y180540D01*
X252478Y180281D01*
X252209Y180126D01*
X251251D01*
G01X252209D02*
X252784Y178628D01*
G01X254518D02*
Y181728D01*
X254058Y181108D01*
G01Y178628D02*
X254978D01*
G01X257018D02*
X257286Y178680D01*
X257593Y178835D01*
X257784Y179093D01*
X257861Y179455D01*
X257784Y179816D01*
X257554Y180126D01*
X257209Y180281D01*
X256826D01*
X256596Y180385D01*
X256404Y180643D01*
X256328Y181005D01*
X256443Y181366D01*
X256711Y181625D01*
X257018Y181728D01*
X257324Y181625D01*
X257593Y181366D01*
X257708Y181005D01*
X257631Y180643D01*
X257439Y180385D01*
X257209Y180281D01*
X256826D01*
X256481Y180126D01*
X256251Y179816D01*
X256174Y179455D01*
X256251Y179093D01*
X256443Y178835D01*
X256749Y178680D01*
X257018Y178628D01*
G01X252861Y189422D02*
X252631Y189577D01*
X252363Y189681D01*
X252056D01*
X251711Y189526D01*
X251443Y189267D01*
X251251Y188957D01*
X251098Y188441D01*
X251059Y187976D01*
X251136Y187511D01*
X251251Y187201D01*
X251481Y186891D01*
X251749Y186684D01*
X252018Y186581D01*
X252286D01*
X252554Y186684D01*
X252784Y186839D01*
X252976Y187046D01*
G01X254518Y186581D02*
Y189681D01*
X254058Y189061D01*
G01Y186581D02*
X254978D01*
G01X257018D02*
X257286Y186632D01*
X257593Y186787D01*
X257784Y187046D01*
X257861Y187407D01*
X257784Y187769D01*
X257554Y188079D01*
X257209Y188234D01*
X256826D01*
X256596Y188337D01*
X256404Y188596D01*
X256328Y188957D01*
X256443Y189319D01*
X256711Y189577D01*
X257018Y189681D01*
X257324Y189577D01*
X257593Y189319D01*
X257708Y188957D01*
X257631Y188596D01*
X257439Y188337D01*
X257209Y188234D01*
X256826D01*
X256481Y188079D01*
X256251Y187769D01*
X256174Y187407D01*
X256251Y187046D01*
X256443Y186787D01*
X256749Y186632D01*
X257018Y186581D01*
G01X252861Y196922D02*
X252631Y197077D01*
X252363Y197181D01*
X252056D01*
X251711Y197026D01*
X251443Y196767D01*
X251251Y196457D01*
X251098Y195941D01*
X251059Y195476D01*
X251136Y195011D01*
X251251Y194701D01*
X251481Y194391D01*
X251749Y194184D01*
X252018Y194081D01*
X252286D01*
X252554Y194184D01*
X252784Y194339D01*
X252976Y194546D01*
G01X254518Y194081D02*
Y197181D01*
X254058Y196561D01*
G01Y194081D02*
X254978D01*
G01X256941D02*
X257018Y194752D01*
X257133Y195321D01*
X257286Y195837D01*
X257478Y196406D01*
X257784Y197181D01*
X256251D01*
G01X252861Y203989D02*
X252631Y204144D01*
X252363Y204248D01*
X252056D01*
X251711Y204092D01*
X251443Y203834D01*
X251251Y203524D01*
X251098Y203008D01*
X251059Y202543D01*
X251136Y202078D01*
X251251Y201768D01*
X251481Y201458D01*
X251749Y201251D01*
X252018Y201148D01*
X252286D01*
X252554Y201251D01*
X252784Y201406D01*
X252976Y201613D01*
G01X254518Y201148D02*
Y204248D01*
X254058Y203628D01*
G01Y201148D02*
X254978D01*
G01X256174Y201613D02*
X256404Y201354D01*
X256673Y201199D01*
X257018Y201148D01*
X257363Y201251D01*
X257631Y201458D01*
X257823Y201819D01*
X257861Y202233D01*
X257784Y202646D01*
X257593Y202904D01*
X257324Y203111D01*
X257056Y203162D01*
X256788Y203111D01*
X256443Y202904D01*
X256558Y204248D01*
X257593D01*
G01X251753Y240488D02*
Y243588D01*
X252711D01*
X253018Y243433D01*
X253210Y243226D01*
X253286Y242813D01*
X253210Y242400D01*
X252980Y242142D01*
X252711Y241986D01*
X251753D01*
G01X252711D02*
X253286Y240488D01*
G01X255020D02*
Y243588D01*
X254560Y242968D01*
G01Y240488D02*
X255480D01*
G01X256868Y240850D02*
X257136Y240591D01*
X257443Y240488D01*
X257750Y240591D01*
X258018Y240901D01*
X258210Y241366D01*
X258286Y241832D01*
Y242400D01*
X258210Y242865D01*
X258018Y243278D01*
X257788Y243485D01*
X257520Y243588D01*
X257213Y243485D01*
X256983Y243278D01*
X256830Y242968D01*
X256753Y242555D01*
X256830Y242193D01*
X257021Y241832D01*
X257251Y241625D01*
X257520Y241573D01*
X257826Y241676D01*
X258056Y241935D01*
X258286Y242400D01*
G01X263180Y278145D02*
Y275045D01*
X264714D01*
G01X265718Y277629D02*
X265949Y277939D01*
X266217Y278094D01*
X266524Y278145D01*
X266907Y278042D01*
X267175Y277784D01*
X267252Y277474D01*
X267214Y277164D01*
X267060Y276905D01*
X266294Y276389D01*
X265949Y276027D01*
X265718Y275510D01*
X265642Y275045D01*
X267252D01*
G01X261420Y305085D02*
Y308185D01*
X262187D01*
X262494Y308030D01*
X262724Y307823D01*
X262916Y307513D01*
X263069Y307151D01*
X263107Y306635D01*
X263069Y306118D01*
X262916Y305756D01*
X262724Y305446D01*
X262494Y305240D01*
X262187Y305085D01*
X261420D01*
G01X264764D02*
Y308185D01*
X264304Y307565D01*
G01Y305085D02*
X265224D01*
G01X272727Y208992D02*
Y212092D01*
X273686D01*
X273992Y211937D01*
X274184Y211730D01*
X274261Y211317D01*
X274184Y210904D01*
X273954Y210646D01*
X273686Y210490D01*
X272727D01*
G01X273686D02*
X274261Y208992D01*
G01X275994D02*
Y212092D01*
X275534Y211472D01*
G01Y208992D02*
X276454D01*
G01X278954D02*
Y212092D01*
X277536Y209870D01*
X279452D01*
G01X274446Y241529D02*
X274216Y241684D01*
X273947Y241787D01*
X273641D01*
X273296Y241632D01*
X273027Y241374D01*
X272836Y241064D01*
X272682Y240547D01*
X272644Y240082D01*
X272721Y239617D01*
X272836Y239307D01*
X273066Y238997D01*
X273334Y238790D01*
X273602Y238687D01*
X273871D01*
X274139Y238790D01*
X274369Y238945D01*
X274561Y239152D01*
G01X276102Y238687D02*
Y241787D01*
X275642Y241167D01*
G01Y238687D02*
X276562D01*
G01X277874Y241270D02*
X278104Y241580D01*
X278372Y241735D01*
X278679Y241787D01*
X279062Y241684D01*
X279331Y241425D01*
X279407Y241115D01*
X279369Y240805D01*
X279216Y240547D01*
X278449Y240030D01*
X278104Y239669D01*
X277874Y239152D01*
X277797Y238687D01*
X279407D01*
G01X274765Y222092D02*
Y218992D01*
X276298D01*
G01X278032D02*
Y222092D01*
X277572Y221472D01*
G01Y218992D02*
X278491D01*
G01X276522Y231539D02*
X276292Y231694D01*
X276024Y231797D01*
X275718D01*
X275372Y231642D01*
X275104Y231384D01*
X274912Y231074D01*
X274759Y230557D01*
X274721Y230092D01*
X274797Y229627D01*
X274912Y229317D01*
X275142Y229007D01*
X275411Y228800D01*
X275679Y228697D01*
X275947D01*
X276216Y228800D01*
X276446Y228955D01*
X276638Y229162D01*
G01X278179Y228697D02*
Y231797D01*
X277719Y231177D01*
G01Y228697D02*
X278639D01*
G01X280679D02*
Y231797D01*
X280219Y231177D01*
G01Y228697D02*
X281139D01*
G01X283310Y265485D02*
X283465Y265715D01*
X283568Y265984D01*
Y266290D01*
X283413Y266635D01*
X283155Y266904D01*
X282845Y267095D01*
X282328Y267249D01*
X281864Y267287D01*
X281398Y267210D01*
X281089Y267095D01*
X280778Y266865D01*
X280572Y266597D01*
X280468Y266329D01*
Y266060D01*
X280572Y265792D01*
X280727Y265562D01*
X280933Y265370D01*
G01X281760Y264557D02*
X282122Y264289D01*
X282328Y264059D01*
X282432Y263752D01*
X282328Y263484D01*
X282122Y263292D01*
X281812Y263139D01*
X281450Y263100D01*
X281140Y263139D01*
X280830Y263292D01*
X280572Y263522D01*
X280468Y263790D01*
X280572Y264097D01*
X280882Y264365D01*
X281347Y264519D01*
X281864Y264557D01*
X282535Y264480D01*
X282897Y264365D01*
X283258Y264174D01*
X283517Y263905D01*
X283568Y263637D01*
X283465Y263369D01*
X283207Y263177D01*
G01X280933Y262172D02*
X280675Y261942D01*
X280520Y261674D01*
X280468Y261329D01*
X280572Y260984D01*
X280778Y260715D01*
X281140Y260524D01*
X281554Y260485D01*
X281967Y260562D01*
X282225Y260754D01*
X282432Y261022D01*
X282483Y261290D01*
X282432Y261559D01*
X282225Y261904D01*
X283568Y261789D01*
Y260754D01*
G01X281305Y286849D02*
X284405D01*
Y285891D01*
X284250Y285584D01*
X284043Y285393D01*
X283630Y285316D01*
X283217Y285393D01*
X282958Y285623D01*
X282803Y285891D01*
Y286849D01*
G01Y285891D02*
X281305Y285316D01*
G01X281770Y284426D02*
X281512Y284196D01*
X281357Y283928D01*
X281305Y283583D01*
X281408Y283238D01*
X281615Y282969D01*
X281977Y282778D01*
X282390Y282739D01*
X282803Y282816D01*
X283062Y283008D01*
X283268Y283276D01*
X283320Y283544D01*
X283268Y283813D01*
X283062Y284158D01*
X284405Y284043D01*
Y283008D01*
G01X281305Y281083D02*
X284405D01*
X283785Y281543D01*
G01X281305D02*
Y280623D01*
G01X284255Y295515D02*
X284410Y295745D01*
X284513Y296013D01*
Y296320D01*
X284358Y296665D01*
X284100Y296933D01*
X283790Y297125D01*
X283273Y297278D01*
X282808Y297317D01*
X282343Y297240D01*
X282033Y297125D01*
X281723Y296895D01*
X281517Y296627D01*
X281413Y296358D01*
Y296090D01*
X281517Y295822D01*
X281672Y295592D01*
X281878Y295400D01*
G01Y294702D02*
X281620Y294472D01*
X281465Y294203D01*
X281413Y293858D01*
X281517Y293513D01*
X281723Y293245D01*
X282085Y293053D01*
X282498Y293015D01*
X282912Y293092D01*
X283170Y293283D01*
X283377Y293552D01*
X283428Y293820D01*
X283377Y294088D01*
X283170Y294433D01*
X284513Y294318D01*
Y293283D01*
G01X281775Y292010D02*
X281517Y291742D01*
X281413Y291435D01*
X281517Y291128D01*
X281827Y290860D01*
X282292Y290668D01*
X282757Y290592D01*
X283325D01*
X283790Y290668D01*
X284203Y290860D01*
X284410Y291090D01*
X284513Y291358D01*
X284410Y291665D01*
X284203Y291895D01*
X283893Y292048D01*
X283480Y292125D01*
X283118Y292048D01*
X282757Y291857D01*
X282550Y291627D01*
X282498Y291358D01*
X282602Y291052D01*
X282860Y290822D01*
X283325Y290592D01*
G01X291497Y67890D02*
Y70990D01*
X292456D01*
X292762Y70835D01*
X292954Y70628D01*
X293030Y70215D01*
X292954Y69801D01*
X292724Y69543D01*
X292456Y69388D01*
X291497D01*
G01X292456D02*
X293030Y67890D01*
G01X295224D02*
Y70990D01*
X293805Y68768D01*
X295722D01*
G01X296535Y69181D02*
X296804Y69543D01*
X297034Y69750D01*
X297340Y69853D01*
X297609Y69750D01*
X297800Y69543D01*
X297954Y69233D01*
X297992Y68871D01*
X297954Y68561D01*
X297800Y68251D01*
X297570Y67993D01*
X297302Y67890D01*
X296996Y67993D01*
X296727Y68303D01*
X296574Y68768D01*
X296535Y69285D01*
X296612Y69956D01*
X296727Y70318D01*
X296919Y70680D01*
X297187Y70938D01*
X297456Y70990D01*
X297724Y70887D01*
X297916Y70628D01*
G01X298097Y213999D02*
X297867Y214154D01*
X297599Y214258D01*
X297292D01*
X296947Y214102D01*
X296679Y213844D01*
X296487Y213534D01*
X296334Y213018D01*
X296296Y212552D01*
X296372Y212087D01*
X296487Y211778D01*
X296717Y211467D01*
X296986Y211261D01*
X297254Y211157D01*
X297522D01*
X297791Y211261D01*
X298021Y211416D01*
X298212Y211622D01*
G01X299677Y211157D02*
X299754Y211829D01*
X299869Y212397D01*
X300022Y212914D01*
X300214Y213482D01*
X300521Y214258D01*
X298987D01*
G01X302254D02*
X301947Y214154D01*
X301717Y213896D01*
X301564Y213586D01*
X301449Y213172D01*
X301411Y212708D01*
X301449Y212243D01*
X301564Y211829D01*
X301717Y211519D01*
X301947Y211261D01*
X302254Y211157D01*
X302560Y211261D01*
X302791Y211519D01*
X302944Y211829D01*
X303059Y212243D01*
X303097Y212708D01*
X303059Y213172D01*
X302944Y213586D01*
X302791Y213896D01*
X302560Y214154D01*
X302254Y214258D01*
G01X297005Y225879D02*
X296775Y226034D01*
X296506Y226137D01*
X296200D01*
X295855Y225982D01*
X295586Y225724D01*
X295395Y225414D01*
X295241Y224897D01*
X295203Y224432D01*
X295280Y223967D01*
X295395Y223657D01*
X295625Y223347D01*
X295893Y223141D01*
X296161Y223037D01*
X296430D01*
X296698Y223141D01*
X296928Y223296D01*
X297120Y223502D01*
G01X298585Y223037D02*
X298661Y223709D01*
X298776Y224277D01*
X298930Y224794D01*
X299121Y225362D01*
X299428Y226137D01*
X297895D01*
G01X301161Y223037D02*
Y226137D01*
X300701Y225517D01*
G01Y223037D02*
X301621D01*
G01X296513Y237365D02*
X296283Y237520D01*
X296014Y237624D01*
X295708D01*
X295363Y237468D01*
X295094Y237210D01*
X294903Y236900D01*
X294749Y236384D01*
X294711Y235919D01*
X294788Y235454D01*
X294903Y235144D01*
X295133Y234834D01*
X295401Y234627D01*
X295669Y234524D01*
X295938D01*
X296206Y234627D01*
X296436Y234782D01*
X296628Y234989D01*
G01X297441Y235815D02*
X297709Y236177D01*
X297939Y236384D01*
X298246Y236487D01*
X298514Y236384D01*
X298706Y236177D01*
X298859Y235867D01*
X298898Y235505D01*
X298859Y235195D01*
X298706Y234885D01*
X298476Y234627D01*
X298208Y234524D01*
X297901Y234627D01*
X297633Y234937D01*
X297479Y235402D01*
X297441Y235919D01*
X297518Y236590D01*
X297633Y236952D01*
X297824Y237314D01*
X298093Y237572D01*
X298361Y237624D01*
X298629Y237520D01*
X298821Y237262D01*
G01X300669Y234524D02*
X300938Y234575D01*
X301244Y234730D01*
X301436Y234989D01*
X301513Y235350D01*
X301436Y235712D01*
X301206Y236022D01*
X300861Y236177D01*
X300478D01*
X300248Y236280D01*
X300056Y236539D01*
X299979Y236900D01*
X300094Y237262D01*
X300363Y237520D01*
X300669Y237624D01*
X300976Y237520D01*
X301244Y237262D01*
X301359Y236900D01*
X301283Y236539D01*
X301091Y236280D01*
X300861Y236177D01*
X300478D01*
X300133Y236022D01*
X299903Y235712D01*
X299826Y235350D01*
X299903Y234989D01*
X300094Y234730D01*
X300401Y234575D01*
X300669Y234524D01*
G01X297005Y247523D02*
X296775Y247678D01*
X296506Y247781D01*
X296200D01*
X295855Y247626D01*
X295586Y247368D01*
X295395Y247058D01*
X295241Y246541D01*
X295203Y246076D01*
X295280Y245611D01*
X295395Y245301D01*
X295625Y244991D01*
X295893Y244784D01*
X296161Y244681D01*
X296430D01*
X296698Y244784D01*
X296928Y244939D01*
X297120Y245146D01*
G01X297933Y245973D02*
X298201Y246334D01*
X298431Y246541D01*
X298738Y246644D01*
X299006Y246541D01*
X299198Y246334D01*
X299351Y246024D01*
X299390Y245663D01*
X299351Y245353D01*
X299198Y245043D01*
X298968Y244784D01*
X298700Y244681D01*
X298393Y244784D01*
X298125Y245094D01*
X297971Y245559D01*
X297933Y246076D01*
X298010Y246748D01*
X298125Y247110D01*
X298316Y247471D01*
X298585Y247729D01*
X298853Y247781D01*
X299121Y247678D01*
X299313Y247419D01*
G01X301085Y244681D02*
X301161Y245353D01*
X301276Y245921D01*
X301430Y246438D01*
X301621Y247006D01*
X301928Y247781D01*
X300395D01*
G01X291926Y254334D02*
X291696Y254489D01*
X291428Y254592D01*
X291121D01*
X290776Y254437D01*
X290508Y254179D01*
X290316Y253869D01*
X290163Y253352D01*
X290124Y252887D01*
X290201Y252422D01*
X290316Y252112D01*
X290546Y251802D01*
X290814Y251595D01*
X291083Y251492D01*
X291351D01*
X291619Y251595D01*
X291849Y251750D01*
X292041Y251957D01*
G01X292854Y252784D02*
X293123Y253145D01*
X293353Y253352D01*
X293659Y253455D01*
X293928Y253352D01*
X294119Y253145D01*
X294273Y252835D01*
X294311Y252474D01*
X294273Y252164D01*
X294119Y251854D01*
X293889Y251595D01*
X293621Y251492D01*
X293314Y251595D01*
X293046Y251905D01*
X292893Y252370D01*
X292854Y252887D01*
X292931Y253559D01*
X293046Y253920D01*
X293238Y254282D01*
X293506Y254540D01*
X293774Y254592D01*
X294043Y254489D01*
X294234Y254230D01*
G01X296543Y251492D02*
Y254592D01*
X295124Y252370D01*
X297041D01*
G01X292324Y275390D02*
Y278490D01*
X293282D01*
X293589Y278335D01*
X293781Y278128D01*
X293857Y277715D01*
X293781Y277301D01*
X293551Y277043D01*
X293282Y276888D01*
X292324D01*
G01X293282D02*
X293857Y275390D01*
G01X296051D02*
Y278490D01*
X294632Y276268D01*
X296549D01*
G01X298014Y275390D02*
X298091Y276061D01*
X298206Y276630D01*
X298359Y277146D01*
X298551Y277715D01*
X298857Y278490D01*
X297324D01*
G01X301959Y69957D02*
X301652Y70008D01*
X301384Y70215D01*
X301154Y70525D01*
X301000Y70887D01*
X300924Y71300D01*
Y71713D01*
X301000Y72127D01*
X301154Y72488D01*
X301384Y72798D01*
X301652Y73005D01*
X301959Y73057D01*
X302265Y73005D01*
X302534Y72798D01*
X302764Y72488D01*
X302917Y72127D01*
X302994Y71713D01*
Y71300D01*
X302917Y70887D01*
X302764Y70525D01*
X302534Y70215D01*
X302265Y70008D01*
X301959Y69957D01*
G01X302265Y70783D02*
X302725Y69957D01*
G01X303730Y72540D02*
X303960Y72850D01*
X304229Y73005D01*
X304535Y73057D01*
X304919Y72953D01*
X305187Y72695D01*
X305264Y72385D01*
X305225Y72075D01*
X305072Y71817D01*
X304305Y71300D01*
X303960Y70938D01*
X303730Y70422D01*
X303654Y69957D01*
X305264D01*
G01X302920Y254334D02*
X302690Y254489D01*
X302422Y254592D01*
X302115D01*
X301770Y254437D01*
X301502Y254179D01*
X301310Y253869D01*
X301157Y253352D01*
X301118Y252887D01*
X301195Y252422D01*
X301310Y252112D01*
X301540Y251802D01*
X301808Y251595D01*
X302077Y251492D01*
X302345D01*
X302614Y251595D01*
X302844Y251750D01*
X303035Y251957D01*
G01X303848Y252784D02*
X304117Y253145D01*
X304347Y253352D01*
X304654Y253455D01*
X304922Y253352D01*
X305114Y253145D01*
X305267Y252835D01*
X305305Y252474D01*
X305267Y252164D01*
X305114Y251854D01*
X304883Y251595D01*
X304615Y251492D01*
X304308Y251595D01*
X304040Y251905D01*
X303887Y252370D01*
X303848Y252887D01*
X303925Y253559D01*
X304040Y253920D01*
X304232Y254282D01*
X304500Y254540D01*
X304768Y254592D01*
X305037Y254489D01*
X305228Y254230D01*
G01X307077Y251492D02*
Y254592D01*
X306617Y253972D01*
G01Y251492D02*
X307537D01*
G01X303151Y275390D02*
Y278490D01*
X304109D01*
X304416Y278335D01*
X304607Y278128D01*
X304684Y277715D01*
X304607Y277301D01*
X304377Y277043D01*
X304109Y276888D01*
X303151D01*
G01X304109D02*
X304684Y275390D01*
G01X306877D02*
Y278490D01*
X305459Y276268D01*
X307376D01*
G01X308266Y275751D02*
X308534Y275493D01*
X308841Y275390D01*
X309147Y275493D01*
X309416Y275803D01*
X309607Y276268D01*
X309684Y276733D01*
Y277301D01*
X309607Y277766D01*
X309416Y278180D01*
X309186Y278386D01*
X308917Y278490D01*
X308611Y278386D01*
X308381Y278180D01*
X308227Y277870D01*
X308151Y277456D01*
X308227Y277095D01*
X308419Y276733D01*
X308649Y276526D01*
X308917Y276475D01*
X309224Y276578D01*
X309454Y276836D01*
X309684Y277301D01*
G01X309652Y180716D02*
X309422Y180871D01*
X309154Y180974D01*
X308848D01*
X308502Y180819D01*
X308234Y180561D01*
X308042Y180251D01*
X307889Y179734D01*
X307851Y179269D01*
X307927Y178804D01*
X308042Y178494D01*
X308272Y178184D01*
X308541Y177977D01*
X308809Y177874D01*
X309077D01*
X309346Y177977D01*
X309576Y178132D01*
X309768Y178339D01*
G01X310466D02*
X310696Y178081D01*
X310964Y177926D01*
X311309Y177874D01*
X311654Y177977D01*
X311922Y178184D01*
X312114Y178546D01*
X312152Y178959D01*
X312076Y179372D01*
X311884Y179631D01*
X311616Y179837D01*
X311348Y179889D01*
X311079Y179837D01*
X310734Y179631D01*
X310849Y180974D01*
X311884D01*
G01X313809Y177874D02*
X314077Y177926D01*
X314384Y178081D01*
X314576Y178339D01*
X314652Y178701D01*
X314576Y179062D01*
X314346Y179372D01*
X314001Y179527D01*
X313617D01*
X313387Y179631D01*
X313196Y179889D01*
X313119Y180251D01*
X313234Y180612D01*
X313502Y180871D01*
X313809Y180974D01*
X314116Y180871D01*
X314384Y180612D01*
X314499Y180251D01*
X314422Y179889D01*
X314231Y179631D01*
X314001Y179527D01*
X313617D01*
X313272Y179372D01*
X313042Y179062D01*
X312966Y178701D01*
X313042Y178339D01*
X313234Y178081D01*
X313541Y177926D01*
X313809Y177874D01*
G01X311099Y235987D02*
X310869Y236142D01*
X310601Y236246D01*
X310294D01*
X309949Y236091D01*
X309681Y235832D01*
X309489Y235522D01*
X309336Y235006D01*
X309298Y234541D01*
X309374Y234076D01*
X309489Y233766D01*
X309719Y233456D01*
X309988Y233249D01*
X310256Y233146D01*
X310524D01*
X310793Y233249D01*
X311023Y233404D01*
X311214Y233611D01*
G01X312028Y234437D02*
X312296Y234799D01*
X312526Y235006D01*
X312833Y235109D01*
X313101Y235006D01*
X313293Y234799D01*
X313446Y234489D01*
X313484Y234127D01*
X313446Y233817D01*
X313293Y233507D01*
X313062Y233249D01*
X312794Y233146D01*
X312488Y233249D01*
X312219Y233559D01*
X312066Y234024D01*
X312028Y234541D01*
X312104Y235212D01*
X312219Y235574D01*
X312411Y235936D01*
X312679Y236194D01*
X312948Y236246D01*
X313216Y236142D01*
X313408Y235884D01*
G01X314604Y233507D02*
X314872Y233249D01*
X315179Y233146D01*
X315486Y233249D01*
X315754Y233559D01*
X315946Y234024D01*
X316023Y234489D01*
Y235057D01*
X315946Y235522D01*
X315754Y235936D01*
X315524Y236142D01*
X315256Y236246D01*
X314949Y236142D01*
X314719Y235936D01*
X314566Y235626D01*
X314489Y235212D01*
X314566Y234851D01*
X314758Y234489D01*
X314988Y234282D01*
X315256Y234231D01*
X315562Y234334D01*
X315793Y234592D01*
X316023Y235057D01*
G01X313373Y248202D02*
X313143Y248357D01*
X312874Y248460D01*
X312568D01*
X312223Y248305D01*
X311954Y248047D01*
X311763Y247737D01*
X311610Y247220D01*
X311571Y246755D01*
X311648Y246290D01*
X311763Y245980D01*
X311993Y245670D01*
X312261Y245464D01*
X312530Y245360D01*
X312798D01*
X313066Y245464D01*
X313296Y245618D01*
X313488Y245825D01*
G01X314301Y246652D02*
X314570Y247014D01*
X314800Y247220D01*
X315106Y247324D01*
X315374Y247220D01*
X315566Y247014D01*
X315720Y246704D01*
X315758Y246342D01*
X315720Y246032D01*
X315566Y245722D01*
X315336Y245464D01*
X315068Y245360D01*
X314761Y245464D01*
X314493Y245773D01*
X314340Y246239D01*
X314301Y246755D01*
X314378Y247427D01*
X314493Y247789D01*
X314684Y248150D01*
X314953Y248408D01*
X315221Y248460D01*
X315490Y248357D01*
X315681Y248098D01*
G01X316801Y246652D02*
X317070Y247014D01*
X317300Y247220D01*
X317606Y247324D01*
X317874Y247220D01*
X318066Y247014D01*
X318220Y246704D01*
X318258Y246342D01*
X318220Y246032D01*
X318066Y245722D01*
X317836Y245464D01*
X317568Y245360D01*
X317261Y245464D01*
X316993Y245773D01*
X316840Y246239D01*
X316801Y246755D01*
X316878Y247427D01*
X316993Y247789D01*
X317184Y248150D01*
X317453Y248408D01*
X317721Y248460D01*
X317990Y248357D01*
X318181Y248098D01*
G01X315056Y307808D02*
X314826Y307963D01*
X314558Y308066D01*
X314251D01*
X313906Y307911D01*
X313638Y307653D01*
X313446Y307343D01*
X313293Y306826D01*
X313254Y306362D01*
X313331Y305896D01*
X313446Y305586D01*
X313676Y305276D01*
X313944Y305070D01*
X314213Y304966D01*
X314481D01*
X314749Y305070D01*
X314979Y305225D01*
X315171Y305431D01*
G01X315984Y306258D02*
X316253Y306620D01*
X316483Y306826D01*
X316789Y306930D01*
X317058Y306826D01*
X317249Y306620D01*
X317403Y306310D01*
X317441Y305948D01*
X317403Y305638D01*
X317249Y305328D01*
X317019Y305070D01*
X316751Y304966D01*
X316444Y305070D01*
X316176Y305380D01*
X316023Y305845D01*
X315984Y306362D01*
X316061Y307033D01*
X316176Y307395D01*
X316368Y307757D01*
X316636Y308015D01*
X316904Y308066D01*
X317173Y307963D01*
X317364Y307705D01*
G01X318369Y305586D02*
X318599Y305225D01*
X318906Y305018D01*
X319251Y304966D01*
X319558Y305018D01*
X319864Y305276D01*
X320056Y305586D01*
X320094Y305896D01*
X320018Y306258D01*
X319749Y306516D01*
X319481Y306620D01*
X319136D01*
G01X319481D02*
X319711Y306775D01*
X319903Y307033D01*
X319979Y307343D01*
X319903Y307653D01*
X319711Y307911D01*
X319366Y308066D01*
X319021Y308015D01*
X318676Y307808D01*
G01X314019Y282732D02*
Y280510D01*
X314172Y280045D01*
X314479Y279735D01*
X314862Y279632D01*
X315246Y279735D01*
X315552Y280045D01*
X315706Y280510D01*
Y282732D01*
G01X317362Y279632D02*
Y282732D01*
X316902Y282112D01*
G01Y279632D02*
X317822D01*
G01X319134Y282215D02*
X319364Y282525D01*
X319632Y282680D01*
X319939Y282732D01*
X320322Y282629D01*
X320591Y282370D01*
X320667Y282060D01*
X320629Y281750D01*
X320476Y281492D01*
X319709Y280975D01*
X319364Y280614D01*
X319134Y280097D01*
X319057Y279632D01*
X320667D01*
G01X315706Y276499D02*
X315476Y276654D01*
X315207Y276758D01*
X314901D01*
X314556Y276602D01*
X314287Y276344D01*
X314096Y276034D01*
X313942Y275518D01*
X313904Y275052D01*
X313980Y274588D01*
X314096Y274278D01*
X314326Y273967D01*
X314594Y273761D01*
X314862Y273658D01*
X315130D01*
X315399Y273761D01*
X315629Y273916D01*
X315821Y274122D01*
G01X316634Y274949D02*
X316902Y275311D01*
X317132Y275518D01*
X317439Y275621D01*
X317707Y275518D01*
X317899Y275311D01*
X318052Y275001D01*
X318091Y274639D01*
X318052Y274329D01*
X317899Y274019D01*
X317669Y273761D01*
X317401Y273658D01*
X317094Y273761D01*
X316826Y274071D01*
X316672Y274536D01*
X316634Y275052D01*
X316710Y275724D01*
X316826Y276086D01*
X317017Y276448D01*
X317286Y276706D01*
X317554Y276758D01*
X317822Y276654D01*
X318014Y276396D01*
G01X319862Y276758D02*
X319555Y276654D01*
X319326Y276396D01*
X319172Y276086D01*
X319057Y275672D01*
X319019Y275208D01*
X319057Y274742D01*
X319172Y274329D01*
X319326Y274019D01*
X319555Y273761D01*
X319862Y273658D01*
X320169Y273761D01*
X320399Y274019D01*
X320552Y274329D01*
X320667Y274742D01*
X320706Y275208D01*
X320667Y275672D01*
X320552Y276086D01*
X320399Y276396D01*
X320169Y276654D01*
X319862Y276758D01*
G01X318686Y365798D02*
X318456Y365953D01*
X318188Y366056D01*
X317881D01*
X317536Y365901D01*
X317268Y365643D01*
X317076Y365333D01*
X316923Y364816D01*
X316884Y364351D01*
X316961Y363886D01*
X317076Y363576D01*
X317306Y363266D01*
X317575Y363060D01*
X317843Y362956D01*
X318111D01*
X318380Y363060D01*
X318610Y363215D01*
X318801Y363421D01*
G01X319500D02*
X319730Y363163D01*
X319998Y363008D01*
X320343Y362956D01*
X320688Y363060D01*
X320956Y363266D01*
X321148Y363628D01*
X321186Y364041D01*
X321110Y364455D01*
X320918Y364713D01*
X320650Y364920D01*
X320381Y364971D01*
X320113Y364920D01*
X319768Y364713D01*
X319883Y366056D01*
X320918D01*
G01X322766Y362956D02*
X322843Y363628D01*
X322958Y364196D01*
X323111Y364713D01*
X323303Y365281D01*
X323610Y366056D01*
X322076D01*
G01X329058Y194041D02*
Y191819D01*
X329212Y191354D01*
X329518Y191044D01*
X329902Y190941D01*
X330285Y191044D01*
X330592Y191354D01*
X330745Y191819D01*
Y194041D01*
G01X332402Y190941D02*
X332670Y190993D01*
X332977Y191148D01*
X333168Y191406D01*
X333245Y191768D01*
X333168Y192129D01*
X332938Y192439D01*
X332593Y192594D01*
X332210D01*
X331980Y192698D01*
X331788Y192956D01*
X331712Y193318D01*
X331827Y193679D01*
X332095Y193938D01*
X332402Y194041D01*
X332708Y193938D01*
X332977Y193679D01*
X333092Y193318D01*
X333015Y192956D01*
X332823Y192698D01*
X332593Y192594D01*
X332210D01*
X331865Y192439D01*
X331635Y192129D01*
X331558Y191768D01*
X331635Y191406D01*
X331827Y191148D01*
X332133Y190993D01*
X332402Y190941D01*
G01X323251Y213401D02*
Y211180D01*
X323404Y210714D01*
X323711Y210405D01*
X324095Y210301D01*
X324478Y210405D01*
X324784Y210714D01*
X324938Y211180D01*
Y213401D01*
G01X326595Y210301D02*
Y213401D01*
X326134Y212781D01*
G01Y210301D02*
X327054D01*
G01X329554D02*
Y213401D01*
X328136Y211180D01*
X330053D01*
G01X322540Y233146D02*
Y236246D01*
X323499D01*
X323805Y236091D01*
X323997Y235884D01*
X324074Y235471D01*
X323997Y235057D01*
X323767Y234799D01*
X323499Y234644D01*
X322540D01*
G01X323499D02*
X324074Y233146D01*
G01X324964Y233611D02*
X325194Y233352D01*
X325462Y233197D01*
X325807Y233146D01*
X326152Y233249D01*
X326420Y233456D01*
X326612Y233817D01*
X326650Y234231D01*
X326574Y234644D01*
X326382Y234902D01*
X326114Y235109D01*
X325846Y235161D01*
X325577Y235109D01*
X325232Y234902D01*
X325347Y236246D01*
X326382D01*
G01X327464Y233766D02*
X327694Y233404D01*
X328000Y233197D01*
X328346Y233146D01*
X328652Y233197D01*
X328959Y233456D01*
X329150Y233766D01*
X329189Y234076D01*
X329112Y234437D01*
X328844Y234696D01*
X328575Y234799D01*
X328230D01*
G01X328575D02*
X328805Y234954D01*
X328997Y235212D01*
X329074Y235522D01*
X328997Y235832D01*
X328805Y236091D01*
X328460Y236246D01*
X328115Y236194D01*
X327770Y235987D01*
G01X327068Y244681D02*
Y247781D01*
X328026D01*
X328333Y247626D01*
X328525Y247419D01*
X328601Y247006D01*
X328525Y246593D01*
X328295Y246334D01*
X328026Y246179D01*
X327068D01*
G01X328026D02*
X328601Y244681D01*
G01X329491Y245146D02*
X329721Y244888D01*
X329990Y244733D01*
X330335Y244681D01*
X330680Y244784D01*
X330948Y244991D01*
X331140Y245353D01*
X331178Y245766D01*
X331101Y246179D01*
X330910Y246438D01*
X330641Y246644D01*
X330373Y246696D01*
X330105Y246644D01*
X329760Y246438D01*
X329875Y247781D01*
X330910D01*
G01X332106Y247264D02*
X332336Y247574D01*
X332605Y247729D01*
X332911Y247781D01*
X333295Y247678D01*
X333563Y247419D01*
X333640Y247110D01*
X333601Y246799D01*
X333448Y246541D01*
X332681Y246024D01*
X332336Y245663D01*
X332106Y245146D01*
X332030Y244681D01*
X333640D01*
G01X329816Y261295D02*
Y259073D01*
X329969Y258608D01*
X330276Y258298D01*
X330659Y258195D01*
X331043Y258298D01*
X331349Y258608D01*
X331503Y259073D01*
Y261295D01*
G01X333159Y258195D02*
Y261295D01*
X332699Y260675D01*
G01Y258195D02*
X333619D01*
G01X334816Y258815D02*
X335046Y258453D01*
X335353Y258247D01*
X335698Y258195D01*
X336004Y258247D01*
X336311Y258505D01*
X336503Y258815D01*
X336541Y259125D01*
X336464Y259486D01*
X336196Y259745D01*
X335928Y259848D01*
X335583D01*
G01X335928D02*
X336158Y260003D01*
X336349Y260261D01*
X336426Y260572D01*
X336349Y260882D01*
X336158Y261140D01*
X335813Y261295D01*
X335468Y261243D01*
X335123Y261036D01*
G01X323712Y292122D02*
Y295222D01*
X324670D01*
X324977Y295067D01*
X325168Y294860D01*
X325245Y294447D01*
X325168Y294034D01*
X324938Y293775D01*
X324670Y293620D01*
X323712D01*
G01X324670D02*
X325245Y292122D01*
G01X326135Y292587D02*
X326365Y292329D01*
X326633Y292174D01*
X326978Y292122D01*
X327323Y292225D01*
X327592Y292432D01*
X327783Y292794D01*
X327822Y293207D01*
X327745Y293620D01*
X327553Y293879D01*
X327285Y294085D01*
X327017Y294137D01*
X326748Y294085D01*
X326403Y293879D01*
X326518Y295222D01*
X327553D01*
G01X329478D02*
X329172Y295119D01*
X328942Y294860D01*
X328788Y294550D01*
X328673Y294137D01*
X328635Y293672D01*
X328673Y293207D01*
X328788Y292794D01*
X328942Y292484D01*
X329172Y292225D01*
X329478Y292122D01*
X329785Y292225D01*
X330015Y292484D01*
X330168Y292794D01*
X330283Y293207D01*
X330322Y293672D01*
X330283Y294137D01*
X330168Y294550D01*
X330015Y294860D01*
X329785Y295119D01*
X329478Y295222D01*
G01X333191Y24406D02*
Y27506D01*
G01X334801D02*
Y24406D01*
G01Y25956D02*
X333191D01*
G01X336496Y24406D02*
Y27506D01*
X336036Y26886D01*
G01Y24406D02*
X336956D01*
G01X338996Y27506D02*
X338689Y27402D01*
X338459Y27144D01*
X338306Y26834D01*
X338191Y26420D01*
X338153Y25956D01*
X338191Y25490D01*
X338306Y25077D01*
X338459Y24767D01*
X338689Y24509D01*
X338996Y24406D01*
X339303Y24509D01*
X339533Y24767D01*
X339686Y25077D01*
X339801Y25490D01*
X339839Y25956D01*
X339801Y26420D01*
X339686Y26834D01*
X339533Y27144D01*
X339303Y27402D01*
X338996Y27506D01*
G01X335874Y236956D02*
Y234734D01*
X336027Y234269D01*
X336334Y233959D01*
X336717Y233856D01*
X337101Y233959D01*
X337407Y234269D01*
X337560Y234734D01*
Y236956D01*
G01X339217Y233856D02*
Y236956D01*
X338757Y236336D01*
G01Y233856D02*
X339677D01*
G01X340874Y234321D02*
X341104Y234062D01*
X341372Y233907D01*
X341717Y233856D01*
X342062Y233959D01*
X342330Y234166D01*
X342522Y234527D01*
X342560Y234941D01*
X342484Y235354D01*
X342292Y235612D01*
X342024Y235819D01*
X341756Y235871D01*
X341487Y235819D01*
X341142Y235612D01*
X341257Y236956D01*
X342292D01*
G01X336985Y293901D02*
X336755Y294056D01*
X336487Y294159D01*
X336180D01*
X335835Y294004D01*
X335567Y293746D01*
X335375Y293436D01*
X335222Y292919D01*
X335183Y292454D01*
X335260Y291989D01*
X335375Y291679D01*
X335605Y291369D01*
X335873Y291162D01*
X336142Y291059D01*
X336410D01*
X336678Y291162D01*
X336908Y291317D01*
X337100Y291524D01*
G01X337913Y292351D02*
X338182Y292712D01*
X338412Y292919D01*
X338718Y293022D01*
X338987Y292919D01*
X339178Y292712D01*
X339332Y292402D01*
X339370Y292041D01*
X339332Y291731D01*
X339178Y291421D01*
X338948Y291162D01*
X338680Y291059D01*
X338373Y291162D01*
X338105Y291472D01*
X337952Y291937D01*
X337913Y292454D01*
X337990Y293126D01*
X338105Y293488D01*
X338297Y293849D01*
X338565Y294107D01*
X338833Y294159D01*
X339102Y294056D01*
X339293Y293797D01*
G01X340413Y293642D02*
X340643Y293952D01*
X340912Y294107D01*
X341218Y294159D01*
X341602Y294056D01*
X341870Y293797D01*
X341947Y293488D01*
X341908Y293177D01*
X341755Y292919D01*
X340988Y292402D01*
X340643Y292041D01*
X340413Y291524D01*
X340337Y291059D01*
X341947D01*
G01X339981Y244681D02*
Y247781D01*
X340940D01*
X341246Y247626D01*
X341438Y247419D01*
X341515Y247006D01*
X341438Y246593D01*
X341208Y246334D01*
X340940Y246179D01*
X339981D01*
G01X340940D02*
X341515Y244681D01*
G01X343708D02*
Y247781D01*
X342290Y245559D01*
X344206D01*
G01X345748Y244681D02*
X346016Y244733D01*
X346323Y244888D01*
X346515Y245146D01*
X346591Y245508D01*
X346515Y245869D01*
X346285Y246179D01*
X345940Y246334D01*
X345556D01*
X345326Y246438D01*
X345135Y246696D01*
X345058Y247058D01*
X345173Y247419D01*
X345441Y247678D01*
X345748Y247781D01*
X346055Y247678D01*
X346323Y247419D01*
X346438Y247058D01*
X346361Y246696D01*
X346170Y246438D01*
X345940Y246334D01*
X345556D01*
X345211Y246179D01*
X344981Y245869D01*
X344905Y245508D01*
X344981Y245146D01*
X345173Y244888D01*
X345480Y244733D01*
X345748Y244681D01*
G01X343058Y339439D02*
Y337217D01*
X343212Y336752D01*
X343518Y336442D01*
X343902Y336339D01*
X344285Y336442D01*
X344592Y336752D01*
X344745Y337217D01*
Y339439D01*
G01X346402Y336339D02*
Y339439D01*
X345942Y338819D01*
G01Y336339D02*
X346862D01*
G01X348902Y339439D02*
X348595Y339335D01*
X348365Y339077D01*
X348212Y338767D01*
X348097Y338354D01*
X348058Y337889D01*
X348097Y337424D01*
X348212Y337010D01*
X348365Y336700D01*
X348595Y336442D01*
X348902Y336339D01*
X349208Y336442D01*
X349438Y336700D01*
X349592Y337010D01*
X349707Y337424D01*
X349745Y337889D01*
X349707Y338354D01*
X349592Y338767D01*
X349438Y339077D01*
X349208Y339335D01*
X348902Y339439D01*
G01X349633Y59547D02*
Y57325D01*
X349786Y56860D01*
X350093Y56550D01*
X350476Y56447D01*
X350860Y56550D01*
X351166Y56860D01*
X351320Y57325D01*
Y59547D01*
G01X352325Y56809D02*
X352593Y56550D01*
X352900Y56447D01*
X353206Y56550D01*
X353475Y56860D01*
X353666Y57325D01*
X353743Y57790D01*
Y58358D01*
X353666Y58824D01*
X353475Y59237D01*
X353245Y59444D01*
X352976Y59547D01*
X352670Y59444D01*
X352440Y59237D01*
X352286Y58927D01*
X352210Y58513D01*
X352286Y58152D01*
X352478Y57790D01*
X352708Y57584D01*
X352976Y57532D01*
X353283Y57635D01*
X353513Y57894D01*
X353743Y58358D01*
G01X348482Y275930D02*
X349248D01*
Y275000D01*
X349018Y274690D01*
X348750Y274483D01*
X348367Y274380D01*
X347984Y274483D01*
X347715Y274690D01*
X347485Y275000D01*
X347332Y275361D01*
X347255Y275775D01*
Y276136D01*
X347332Y276446D01*
X347485Y276808D01*
X347715Y277118D01*
X347945Y277325D01*
X348252Y277480D01*
X348520D01*
X348827Y277376D01*
X349057Y277170D01*
G01X349870Y274380D02*
Y277480D01*
X351634Y274380D01*
Y277480D01*
G01X352408Y274380D02*
Y277480D01*
X353175D01*
X353482Y277325D01*
X353712Y277118D01*
X353904Y276808D01*
X354057Y276446D01*
X354095Y275930D01*
X354057Y275413D01*
X353904Y275051D01*
X353712Y274741D01*
X353482Y274535D01*
X353175Y274380D01*
X352408D01*
G01X348236Y296120D02*
X349156D01*
G01X348658Y296792D02*
Y295449D01*
G01X351158Y295087D02*
Y298187D01*
X350698Y297567D01*
G01Y295087D02*
X351618D01*
G01X352815Y295552D02*
X353045Y295294D01*
X353313Y295139D01*
X353658Y295087D01*
X354003Y295191D01*
X354271Y295397D01*
X354463Y295759D01*
X354501Y296172D01*
X354425Y296586D01*
X354233Y296844D01*
X353965Y297050D01*
X353696Y297102D01*
X353428Y297050D01*
X353083Y296844D01*
X353198Y298187D01*
X354233D01*
G01X355200D02*
X356158Y295087D01*
X357116Y298187D01*
G01X348160Y316828D02*
X349156D01*
G01X351158Y315795D02*
Y318895D01*
X350698Y318275D01*
G01Y315795D02*
X351618D01*
G01X352815Y316260D02*
X353045Y316001D01*
X353313Y315846D01*
X353658Y315795D01*
X354003Y315898D01*
X354271Y316104D01*
X354463Y316466D01*
X354501Y316880D01*
X354425Y317293D01*
X354233Y317551D01*
X353965Y317758D01*
X353696Y317810D01*
X353428Y317758D01*
X353083Y317551D01*
X353198Y318895D01*
X354233D01*
G01X355200D02*
X356158Y315795D01*
X357116Y318895D01*
G01X366375Y210440D02*
X366145Y210595D01*
X365876Y210698D01*
X365570D01*
X365225Y210543D01*
X364956Y210285D01*
X364765Y209975D01*
X364612Y209458D01*
X364573Y208993D01*
X364650Y208528D01*
X364765Y208218D01*
X364995Y207908D01*
X365263Y207702D01*
X365532Y207598D01*
X365800D01*
X366068Y207702D01*
X366298Y207857D01*
X366490Y208063D01*
G01X367188D02*
X367418Y207805D01*
X367686Y207650D01*
X368032Y207598D01*
X368376Y207702D01*
X368645Y207908D01*
X368836Y208270D01*
X368875Y208683D01*
X368798Y209097D01*
X368606Y209355D01*
X368338Y209562D01*
X368070Y209613D01*
X367802Y209562D01*
X367457Y209355D01*
X367572Y210698D01*
X368606D01*
G01X370992Y207598D02*
Y210698D01*
X369573Y208477D01*
X371490D01*
G01X367618Y233331D02*
X364518D01*
G01Y234941D02*
X367618D01*
G01X366068D02*
Y233331D01*
G01X367257Y235984D02*
X367515Y236253D01*
X367618Y236560D01*
X367515Y236866D01*
X367205Y237134D01*
X366740Y237326D01*
X366275Y237403D01*
X365707D01*
X365242Y237326D01*
X364828Y237134D01*
X364622Y236905D01*
X364518Y236636D01*
X364622Y236330D01*
X364828Y236100D01*
X365138Y235946D01*
X365552Y235870D01*
X365913Y235946D01*
X366275Y236138D01*
X366482Y236368D01*
X366533Y236636D01*
X366430Y236943D01*
X366172Y237173D01*
X365707Y237403D01*
G01X364908Y300490D02*
X368008D01*
G01Y298880D02*
X364908D01*
G01X366457D02*
Y300490D01*
G01X364908Y297185D02*
X368008D01*
X367388Y297645D01*
G01X364908D02*
Y296725D01*
G01Y294685D02*
X368008D01*
X367388Y295145D01*
G01X364908D02*
Y294225D01*
G01X376891Y207762D02*
Y210862D01*
X377849D01*
X378156Y210707D01*
X378348Y210500D01*
X378424Y210087D01*
X378348Y209673D01*
X378118Y209415D01*
X377849Y209260D01*
X376891D01*
G01X377849D02*
X378424Y207762D01*
G01X379314Y208382D02*
X379544Y208020D01*
X379851Y207814D01*
X380196Y207762D01*
X380502Y207814D01*
X380809Y208072D01*
X381001Y208382D01*
X381039Y208692D01*
X380962Y209053D01*
X380694Y209312D01*
X380426Y209415D01*
X380081D01*
G01X380426D02*
X380656Y209570D01*
X380848Y209828D01*
X380924Y210138D01*
X380848Y210449D01*
X380656Y210707D01*
X380311Y210862D01*
X379966Y210810D01*
X379621Y210603D01*
G01X382658Y207762D02*
X382926Y207814D01*
X383232Y207968D01*
X383424Y208227D01*
X383501Y208589D01*
X383424Y208950D01*
X383194Y209260D01*
X382849Y209415D01*
X382466D01*
X382236Y209518D01*
X382044Y209777D01*
X381968Y210138D01*
X382082Y210500D01*
X382351Y210759D01*
X382658Y210862D01*
X382964Y210759D01*
X383232Y210500D01*
X383348Y210138D01*
X383271Y209777D01*
X383079Y209518D01*
X382849Y209415D01*
X382466D01*
X382121Y209260D01*
X381891Y208950D01*
X381814Y208589D01*
X381891Y208227D01*
X382082Y207968D01*
X382389Y207814D01*
X382658Y207762D01*
G54D11*
G01X95325Y138839D02*
Y133839D01*
X75325D01*
Y153839D01*
X95325D01*
Y138839D01*
G01X160316Y286738D02*
Y289838D01*
X161274D01*
X161581Y289683D01*
X161773Y289476D01*
X161849Y289063D01*
X161773Y288650D01*
X161543Y288392D01*
X161274Y288236D01*
X160316D01*
G01X161274D02*
X161849Y286738D01*
G01X162931Y287100D02*
X163199Y286842D01*
X163506Y286738D01*
X163813Y286842D01*
X164081Y287151D01*
X164273Y287616D01*
X164349Y288082D01*
Y288650D01*
X164273Y289115D01*
X164081Y289528D01*
X163851Y289735D01*
X163583Y289838D01*
X163276Y289735D01*
X163046Y289528D01*
X162893Y289218D01*
X162816Y288805D01*
X162893Y288443D01*
X163084Y288082D01*
X163314Y287875D01*
X163583Y287823D01*
X163889Y287926D01*
X164119Y288185D01*
X164349Y288650D01*
G01X160818Y292978D02*
Y296078D01*
X161776D01*
X162083Y295923D01*
X162275Y295717D01*
X162351Y295303D01*
X162275Y294890D01*
X162045Y294632D01*
X161776Y294477D01*
X160818D01*
G01X161776D02*
X162351Y292978D01*
G01X164085D02*
X164353Y293030D01*
X164660Y293185D01*
X164851Y293443D01*
X164928Y293805D01*
X164851Y294167D01*
X164621Y294477D01*
X164276Y294632D01*
X163893D01*
X163663Y294735D01*
X163471Y294993D01*
X163395Y295355D01*
X163510Y295717D01*
X163778Y295975D01*
X164085Y296078D01*
X164391Y295975D01*
X164660Y295717D01*
X164775Y295355D01*
X164698Y294993D01*
X164506Y294735D01*
X164276Y294632D01*
X163893D01*
X163548Y294477D01*
X163318Y294167D01*
X163241Y293805D01*
X163318Y293443D01*
X163510Y293185D01*
X163816Y293030D01*
X164085Y292978D01*
G01X179637Y303953D02*
Y307053D01*
X180595D01*
X180902Y306898D01*
X181094Y306691D01*
X181170Y306278D01*
X181094Y305864D01*
X180864Y305606D01*
X180595Y305451D01*
X179637D01*
G01X180595D02*
X181170Y303953D01*
G01X182175Y305244D02*
X182444Y305606D01*
X182674Y305813D01*
X182980Y305916D01*
X183248Y305813D01*
X183440Y305606D01*
X183594Y305296D01*
X183632Y304934D01*
X183594Y304624D01*
X183440Y304314D01*
X183210Y304056D01*
X182942Y303953D01*
X182635Y304056D01*
X182367Y304366D01*
X182214Y304831D01*
X182175Y305348D01*
X182252Y306019D01*
X182367Y306381D01*
X182558Y306743D01*
X182827Y307001D01*
X183095Y307053D01*
X183364Y306950D01*
X183555Y306691D01*
G01X181650Y316021D02*
X181420Y316176D01*
X181152Y316279D01*
X180846D01*
X180500Y316124D01*
X180232Y315866D01*
X180040Y315556D01*
X179887Y315039D01*
X179849Y314574D01*
X179925Y314109D01*
X180040Y313799D01*
X180270Y313489D01*
X180539Y313282D01*
X180807Y313179D01*
X181075D01*
X181344Y313282D01*
X181574Y313437D01*
X181766Y313644D01*
G01X182464D02*
X182694Y313386D01*
X182962Y313231D01*
X183307Y313179D01*
X183652Y313282D01*
X183920Y313489D01*
X184112Y313851D01*
X184150Y314264D01*
X184074Y314677D01*
X183882Y314936D01*
X183614Y315142D01*
X183346Y315194D01*
X183077Y315142D01*
X182732Y314936D01*
X182847Y316279D01*
X183882D01*
G01X191891Y303878D02*
Y306978D01*
X192849D01*
X193156Y306823D01*
X193348Y306616D01*
X193424Y306203D01*
X193348Y305790D01*
X193118Y305531D01*
X192849Y305376D01*
X191891D01*
G01X192849D02*
X193424Y303878D01*
G01X195081D02*
X195158Y304550D01*
X195272Y305118D01*
X195426Y305635D01*
X195618Y306203D01*
X195924Y306978D01*
X194391D01*
G01X1588782Y5038809D02*
X1586839Y5036824D01*
X1576999D01*
X1591841Y5035749D01*
X1588782Y5038809D01*
G01X1643190Y5038147D02*
X1639882Y5035088D01*
X1630084D01*
X1628347D01*
X1612389D01*
X1614332Y5033103D01*
X1616399Y5033558D01*
X1619583Y5033765D01*
X1647117D01*
X1643190Y5038147D01*
G01X1624626Y5042943D02*
X1624172Y5042530D01*
X1625949Y5040462D01*
X1627479Y5037816D01*
X1628347Y5035088D01*
X1630084D01*
X1631241Y5036700D01*
X1631159Y5039222D01*
X1630538Y5039884D01*
X1628223Y5041372D01*
X1624626Y5042943D01*
G01X1691437Y5042075D02*
X1689494Y5039884D01*
X1670476D01*
X1694951Y5039222D01*
X1691437Y5042075D01*
G54D12*
G01X269419Y196348D02*
X392254D01*
Y82963D01*
X269419D01*
Y196348D01*
G54D13*
G01X25025Y247956D02*
Y252286D01*
X32899D01*
Y247562D01*
X25025D01*
Y247956D01*
G01Y258881D02*
Y263212D01*
X32899D01*
Y258487D01*
X25025D01*
Y258881D01*
G01Y269806D02*
Y274137D01*
X32899D01*
Y269412D01*
X25025D01*
Y269806D01*
G01Y280731D02*
Y285062D01*
X32899D01*
Y280338D01*
X25025D01*
Y280731D01*
G01X46319Y64104D02*
X50650D01*
Y56230D01*
X45925D01*
Y64104D01*
X46319D01*
G01Y77805D02*
X50650D01*
Y69931D01*
X45925D01*
Y77805D01*
X46319D01*
G01Y91506D02*
X50650D01*
Y83632D01*
X45925D01*
Y91506D01*
X46319D01*
G01X50256Y97333D02*
X45925D01*
Y105207D01*
X50650D01*
Y97333D01*
X50256D01*
G01Y113622D02*
X45925D01*
Y121496D01*
X50650D01*
Y113622D01*
X50256D01*
G01Y134498D02*
X45925D01*
Y142372D01*
X50650D01*
Y134498D01*
X50256D01*
G01Y163563D02*
X45925D01*
Y171437D01*
X50650D01*
Y163563D01*
X50256D01*
G01X46319Y191014D02*
X50650D01*
Y183140D01*
X45925D01*
Y191014D01*
X46319D01*
G01X50059Y210020D02*
Y214350D01*
X57933D01*
Y209626D01*
X50059D01*
Y210020D01*
G01X57933Y222047D02*
Y217716D01*
X50059D01*
Y222441D01*
X57933D01*
Y222047D01*
G01X50059Y226201D02*
Y230532D01*
X57933D01*
Y225807D01*
X50059D01*
Y226201D01*
G01X45758Y292608D02*
Y296939D01*
X53632D01*
Y292215D01*
X45758D01*
Y292608D01*
G01Y301900D02*
Y306230D01*
X53632D01*
Y301506D01*
X45758D01*
Y301900D01*
G01Y311191D02*
Y315522D01*
X53632D01*
Y310797D01*
X45758D01*
Y311191D01*
G01Y320482D02*
Y324813D01*
X53632D01*
Y320089D01*
X45758D01*
Y320482D01*
G01X52303Y46368D02*
Y50699D01*
X60177D01*
Y45974D01*
X52303D01*
Y46368D01*
G01X61929Y100935D02*
Y96604D01*
X54055D01*
Y101329D01*
X61929D01*
Y100935D01*
G01X54055Y106102D02*
Y110433D01*
X61929D01*
Y105709D01*
X54055D01*
Y106102D01*
G01X64715Y46368D02*
Y50699D01*
X72589D01*
Y45974D01*
X64715D01*
Y46368D01*
G01X73081Y100935D02*
Y96604D01*
X65207D01*
Y101329D01*
X73081D01*
Y100935D01*
G01X65207Y106102D02*
Y110433D01*
X73081D01*
Y105709D01*
X65207D01*
Y106102D01*
G01X73081Y119144D02*
Y114813D01*
X65207D01*
Y119537D01*
X73081D01*
Y119144D01*
G01X64360Y292608D02*
Y296939D01*
X72234D01*
Y292215D01*
X64360D01*
Y292608D01*
G01Y301900D02*
Y306230D01*
X72234D01*
Y301506D01*
X64360D01*
Y301900D01*
G01Y311191D02*
Y315522D01*
X72234D01*
Y310797D01*
X64360D01*
Y311191D01*
G01Y320482D02*
Y324813D01*
X72234D01*
Y320089D01*
X64360D01*
Y320482D01*
G01X77126Y46368D02*
Y50699D01*
X85000D01*
Y45974D01*
X77126D01*
Y46368D01*
G01X76132Y157874D02*
Y162205D01*
X84006D01*
Y157480D01*
X76132D01*
Y157874D01*
G01X82894Y168110D02*
Y172441D01*
X90768D01*
Y167716D01*
X82894D01*
Y168110D01*
G01Y177697D02*
Y182028D01*
X90768D01*
Y177303D01*
X82894D01*
Y177697D01*
G01Y187284D02*
Y191614D01*
X90768D01*
Y186890D01*
X82894D01*
Y187284D01*
G01Y196870D02*
Y201201D01*
X90768D01*
Y196476D01*
X82894D01*
Y196870D01*
G01Y206457D02*
Y210787D01*
X90768D01*
Y206063D01*
X82894D01*
Y206457D01*
G01Y216043D02*
Y220374D01*
X90768D01*
Y215650D01*
X82894D01*
Y216043D01*
G01Y225630D02*
Y229961D01*
X90768D01*
Y225236D01*
X82894D01*
Y225630D01*
G01Y235216D02*
Y239547D01*
X90768D01*
Y234823D01*
X82894D01*
Y235216D01*
G01Y244803D02*
Y249134D01*
X90768D01*
Y244409D01*
X82894D01*
Y244803D01*
G01Y254390D02*
Y258720D01*
X90768D01*
Y253996D01*
X82894D01*
Y254390D01*
G01X82972Y292608D02*
Y296939D01*
X90847D01*
Y292215D01*
X82972D01*
Y292608D01*
G01Y301900D02*
Y306230D01*
X90847D01*
Y301506D01*
X82972D01*
Y301900D01*
G01Y311191D02*
Y315522D01*
X90847D01*
Y310797D01*
X82972D01*
Y311191D01*
G01X82963Y320472D02*
Y324803D01*
X90837D01*
Y320079D01*
X82963D01*
Y320472D01*
G01X89537Y46368D02*
Y50699D01*
X97411D01*
Y45974D01*
X89537D01*
Y46368D01*
G01X89580Y76384D02*
X85250D01*
Y84258D01*
X89974D01*
Y76384D01*
X89580D01*
G01X89688Y86096D02*
X85358D01*
Y93970D01*
X90082D01*
Y86096D01*
X89688D01*
G01X95039Y161713D02*
Y157382D01*
X87165D01*
Y162106D01*
X95039D01*
Y161713D01*
G01X97943Y69961D02*
Y74291D01*
X105817D01*
Y69567D01*
X97943D01*
Y69961D01*
G01X117126Y73898D02*
Y69567D01*
X109252D01*
Y74291D01*
X117126D01*
Y73898D01*
G01X119518Y107913D02*
Y103583D01*
X111644D01*
Y108307D01*
X119518D01*
Y107913D01*
G01X119596Y113957D02*
Y109626D01*
X111722D01*
Y114350D01*
X119596D01*
Y113957D01*
G01X112963Y119823D02*
X108632D01*
Y127697D01*
X113356D01*
Y119823D01*
X112963D01*
G01X121073Y120069D02*
Y129911D01*
X114774D01*
Y119675D01*
X121073D01*
Y120069D01*
G01X128435Y73898D02*
Y69567D01*
X120561D01*
Y74291D01*
X128435D01*
Y73898D01*
G01X155123Y104421D02*
X150792D01*
Y112295D01*
X155516D01*
Y104421D01*
X155123D01*
G01X155123Y126707D02*
X150792D01*
Y134581D01*
X155517D01*
Y126707D01*
X155123D01*
G01X165729Y82043D02*
X170060D01*
Y74169D01*
X165335D01*
Y82043D01*
X165729D01*
G01X171982Y82092D02*
X176312D01*
Y74218D01*
X171588D01*
Y82092D01*
X171982D01*
G01X173966Y290158D02*
Y285827D01*
X166092D01*
Y290551D01*
X173966D01*
Y290158D01*
G01X174193Y296348D02*
Y292018D01*
X166319D01*
Y296742D01*
X174193D01*
Y296348D01*
G01X177874Y82195D02*
X182205D01*
Y74321D01*
X177480D01*
Y82195D01*
X177874D01*
G01X186634Y266299D02*
Y261968D01*
X178760D01*
Y266693D01*
X186634D01*
Y266299D01*
G01X178681Y268888D02*
Y273218D01*
X186555D01*
Y268494D01*
X178681D01*
Y268888D01*
G01X185837Y303140D02*
Y298809D01*
X177963D01*
Y303534D01*
X185837D01*
Y303140D01*
G01X178120Y308553D02*
Y312884D01*
X185994D01*
Y308159D01*
X178120D01*
Y308553D01*
G01X189970Y299252D02*
Y303583D01*
X197844D01*
Y298858D01*
X189970D01*
Y299252D01*
G01X190069Y308455D02*
Y312785D01*
X197943D01*
Y308061D01*
X190069D01*
Y308455D01*
G01X197165Y262362D02*
Y266693D01*
X205039D01*
Y261968D01*
X197165D01*
Y262362D01*
G01X197008Y268888D02*
Y273218D01*
X204882D01*
Y268494D01*
X197008D01*
Y268888D01*
G01X209282Y74321D02*
X204951D01*
Y82195D01*
X209675D01*
Y74321D01*
X209282D01*
G01X204123Y105255D02*
X199792D01*
Y113129D01*
X204517D01*
Y105255D01*
X204123D01*
G01Y126707D02*
X199792D01*
Y134581D01*
X204517D01*
Y126707D01*
X204123D01*
G01X215876Y74321D02*
X211545D01*
Y82195D01*
X216270D01*
Y74321D01*
X215876D01*
G01X219478Y291762D02*
Y287431D01*
X211604D01*
Y292155D01*
X219478D01*
Y291762D01*
G01X219370Y285551D02*
Y281220D01*
X211496D01*
Y285945D01*
X219370D01*
Y285551D01*
G01X215128Y296644D02*
X210797D01*
Y304518D01*
X215522D01*
Y296644D01*
X215128D01*
G01X222471Y74321D02*
X218140D01*
Y82195D01*
X222864D01*
Y74321D01*
X222471D01*
G01X224360Y297096D02*
Y306939D01*
X218061D01*
Y296703D01*
X224360D01*
Y297096D01*
G01X229065Y74321D02*
X224734D01*
Y82195D01*
X229459D01*
Y74321D01*
X229065D01*
G01X242254D02*
X237923D01*
Y82195D01*
X242648D01*
Y74321D01*
X242254D01*
G01X235659D02*
X231329D01*
Y82195D01*
X236053D01*
Y74321D01*
X235659D01*
G01X233701Y220423D02*
X238032D01*
Y212549D01*
X233307D01*
Y220423D01*
X233701D01*
G01X248848Y74321D02*
X244518D01*
Y82195D01*
X249242D01*
Y74321D01*
X248848D01*
G01X249321Y159715D02*
Y155384D01*
X241447D01*
Y160108D01*
X249321D01*
Y159715D01*
G01Y167244D02*
Y162913D01*
X241447D01*
Y167638D01*
X249321D01*
Y167244D01*
G01Y174774D02*
Y170443D01*
X241447D01*
Y175167D01*
X249321D01*
Y174774D01*
G01X249508Y182146D02*
Y177815D01*
X241634D01*
Y182539D01*
X249508D01*
Y182146D01*
G01X249321Y189833D02*
Y185502D01*
X241447D01*
Y190226D01*
X249321D01*
Y189833D01*
G01Y197362D02*
Y193032D01*
X241447D01*
Y197756D01*
X249321D01*
Y197362D01*
G01X241447Y200955D02*
Y205285D01*
X249321D01*
Y200561D01*
X241447D01*
Y200955D01*
G01X249754Y232333D02*
Y228002D01*
X241880D01*
Y232726D01*
X249754D01*
Y232333D01*
G01Y244154D02*
Y239823D01*
X241880D01*
Y244547D01*
X249754D01*
Y244154D01*
G01X255443Y74321D02*
X251112D01*
Y82195D01*
X255837D01*
Y74321D01*
X255443D01*
G01X263081Y208465D02*
Y212795D01*
X270955D01*
Y208071D01*
X263081D01*
Y208465D01*
G01X272726Y223484D02*
X262884D01*
Y217185D01*
X273120D01*
Y223484D01*
X272726D01*
G01X263278Y227087D02*
X273120D01*
Y233386D01*
X262884D01*
Y227087D01*
X263278D01*
G01X263081Y238169D02*
Y242500D01*
X270955D01*
Y237776D01*
X263081D01*
Y238169D01*
G01X291683Y270778D02*
X284203D01*
Y256604D01*
X292077D01*
Y270778D01*
X291683D01*
G01X289813Y280354D02*
X285482D01*
Y288228D01*
X290207D01*
Y280354D01*
X289813D01*
G01Y289882D02*
X285482D01*
Y297756D01*
X290207D01*
Y289882D01*
X289813D01*
G01X298612Y76722D02*
Y72392D01*
X290738D01*
Y77116D01*
X298612D01*
Y76722D01*
G01X303524Y210167D02*
Y205837D01*
X295650D01*
Y210561D01*
X303524D01*
Y210167D01*
G01X304429Y222431D02*
X294587D01*
Y216132D01*
X304823D01*
Y222431D01*
X304429D01*
G01Y233681D02*
X294587D01*
Y227382D01*
X304823D01*
Y233681D01*
X304429D01*
G01X294163Y238691D02*
Y243022D01*
X302037D01*
Y238297D01*
X294163D01*
Y238691D01*
G01X298632Y256841D02*
X294301D01*
Y264715D01*
X299026D01*
Y256841D01*
X298632D01*
G01X294695Y273937D02*
X299026D01*
Y266063D01*
X294301D01*
Y273937D01*
X294695D01*
G01X304921Y256801D02*
X300591D01*
Y264675D01*
X305315D01*
Y256801D01*
X304921D01*
G01X304803Y266014D02*
X300472D01*
Y273888D01*
X305197D01*
Y266014D01*
X304803D01*
G01X303268Y304468D02*
Y308799D01*
X311142D01*
Y304075D01*
X303268D01*
Y304468D01*
G01X307372Y173248D02*
Y177579D01*
X315246D01*
Y172854D01*
X307372D01*
Y173248D01*
G01X308819Y227677D02*
Y232008D01*
X316693D01*
Y227284D01*
X308819D01*
Y227677D01*
G01X316280Y358012D02*
Y362342D01*
X324154D01*
Y357618D01*
X316280D01*
Y358012D01*
G01X329744Y231614D02*
Y227284D01*
X321870D01*
Y232008D01*
X329744D01*
Y231614D01*
G01X334813Y242628D02*
Y238297D01*
X326939D01*
Y243022D01*
X334813D01*
Y242628D01*
G01X325709Y291220D02*
X330039D01*
Y283347D01*
X325315D01*
Y291220D01*
X325709D01*
G01X334134Y226791D02*
X343976D01*
Y233091D01*
X333740D01*
Y226791D01*
X334134D01*
G01X338750Y238691D02*
Y243022D01*
X346624D01*
Y238297D01*
X338750D01*
Y238691D01*
G01X364095Y202972D02*
Y207303D01*
X371968D01*
Y202579D01*
X364095D01*
Y202972D01*
G01X383691Y206929D02*
Y202598D01*
X375817D01*
Y207323D01*
X383691D01*
Y206929D01*
G54D14*
G01X16801Y235246D02*
G03I-492J0D01*
G01X81004Y120354D02*
G03I-492J0D01*
G01X106772Y79282D02*
G03I-492J0D01*
G01X180000Y297333D02*
G03I-492J0D01*
G01X220659Y170059D02*
G03I-492J0D01*
G01X256194Y207865D02*
Y225165D01*
X241995D01*
Y207865D01*
X256194D01*
G01X258458Y211544D02*
G03I-492J0D01*
G01X295177Y303110D02*
G03I-492J0D01*
G01X303061Y78307D02*
G03I-492J0D01*
G01X314675Y222549D02*
G03I-492J0D01*
G01X339341Y308583D02*
G03I-492J0D01*
G01X345837Y249567D02*
G03I-492J0D01*
G54D15*
G01X309Y99305D02*
X32809D01*
Y39305D01*
X309D01*
Y99305D01*
G01X640Y41805D02*
X5640Y44305D01*
X8140D01*
G01X640Y56805D02*
X5640Y54305D01*
X8140D01*
G01X640Y61805D02*
X5640Y64305D01*
X8140D01*
G01X640Y81805D02*
X5640Y84305D01*
X8140D01*
G01X640Y76805D02*
X5640Y74305D01*
X8140D01*
G01X640Y96805D02*
X5640Y94305D01*
X8140D01*
G01X640Y111654D02*
X5640Y114154D01*
X8140D01*
G01X32809Y149154D02*
Y109154D01*
X309D01*
Y149154D01*
X32809D01*
G01X640Y131654D02*
X5640Y134154D01*
X8140D01*
G01X640Y126654D02*
X5640Y124154D01*
X8140D01*
G01X640Y146654D02*
X5640Y144154D01*
X8140D01*
G01X640Y162520D02*
X5640Y165020D01*
X8140D01*
G01X32809Y200020D02*
Y160020D01*
X309D01*
Y200020D01*
X32809D01*
G01X640Y177520D02*
X5640Y175020D01*
X8140D01*
G01X640Y182520D02*
X5640Y185020D01*
X8140D01*
G01X640Y197520D02*
X5640Y195020D01*
X8140D01*
G01X309Y357120D02*
X32809D01*
Y297120D01*
X309D01*
Y357120D01*
G01X640Y299620D02*
X5640Y302120D01*
X8140D01*
G01X640Y319620D02*
X5640Y322120D01*
X8140D01*
G01X640Y314620D02*
X5640Y312120D01*
X8140D01*
G01X640Y334620D02*
X5640Y332120D01*
X8140D01*
G01X640Y339620D02*
X5640Y342120D01*
X8140D01*
G01X640Y354620D02*
X5640Y352120D01*
X8140D01*
G01Y39305D02*
Y99250D01*
X8132Y99258D01*
G01X8140Y109154D02*
Y149154D01*
G01Y160020D02*
Y200020D01*
G01Y297120D02*
Y357065D01*
X8132Y357073D01*
G01X10309Y39305D02*
Y99234D01*
X10333Y99258D01*
G01X10309Y109154D02*
Y149154D01*
G01Y160020D02*
Y200020D01*
G01Y297120D02*
Y357049D01*
X10333Y357073D01*
G01X22809Y39305D02*
Y79305D01*
X22801Y99258D01*
G01X22809Y109154D02*
Y149154D01*
G01Y160020D02*
Y200020D01*
G01X22608Y214774D02*
Y234065D01*
X35207D01*
Y214774D01*
X22608D01*
G01X22809Y297120D02*
Y337120D01*
X22801Y357073D01*
G01X30309Y39305D02*
Y79305D01*
X30278Y99282D01*
G01X30309Y109154D02*
Y149154D01*
G01Y160020D02*
Y200020D01*
G01Y297120D02*
Y337120D01*
X30278Y357096D01*
G01X39248Y581D02*
X41748Y5581D01*
Y8081D01*
G01X36748Y250D02*
Y32750D01*
X96748D01*
Y250D01*
X36748D01*
G01X96748Y8081D02*
X36803D01*
X36795Y8073D01*
G01X96748Y10250D02*
X36819D01*
X36795Y10274D01*
G01X96748Y22750D02*
X56748D01*
X36795Y22742D01*
G01X96748Y30250D02*
X56748D01*
X36772Y30218D01*
G01X36807Y356864D02*
X68303D01*
Y338754D01*
X36807D01*
Y356864D01*
G01X37358Y362004D02*
Y393500D01*
X55468D01*
Y362004D01*
X37358D01*
G01X54248Y581D02*
X51748Y5581D01*
Y8081D01*
G01X59248Y581D02*
X61748Y5581D01*
Y8081D01*
G01X62496Y362004D02*
Y393500D01*
X80606D01*
Y362004D01*
X62496D01*
G01X74248Y581D02*
X71748Y5581D01*
Y8081D01*
G01X79248Y581D02*
X81748Y5581D01*
Y8081D01*
G01X86811Y99882D02*
Y119173D01*
X99409D01*
Y99882D01*
X86811D01*
G01X94248Y581D02*
X91748Y5581D01*
Y8081D01*
G01X102047Y91880D02*
Y80463D01*
X99488D01*
Y91880D01*
X102047D01*
G01X213868Y244862D02*
Y169272D01*
X138278D01*
Y244862D01*
X213868D01*
G01X191588Y109620D02*
X160879D01*
Y124286D01*
X191588D01*
Y109620D01*
G01X185807Y276860D02*
Y296152D01*
X198406D01*
Y276860D01*
X185807D01*
G01X241509Y109620D02*
X210800D01*
Y124286D01*
X241509D01*
Y109620D01*
G01X256368Y290443D02*
X250463D01*
Y262884D01*
X256368D01*
G01X275669Y295778D02*
X273701Y293809D01*
X251653D01*
Y304045D01*
X273701D01*
X275669Y302077D01*
Y295778D01*
G01X265433Y298927D02*
X263071Y296565D01*
Y301289D01*
X265433Y298927D01*
G01X268189D02*
X259134D01*
G01X272116Y290443D02*
X278022D01*
Y262884D01*
X272116D01*
G01X265433Y296565D02*
Y301289D01*
G01X302756Y282638D02*
X311811D01*
G01X302756Y301929D02*
X311811D01*
G01X304354Y354988D02*
X392937D01*
Y332154D01*
X304354D01*
Y354988D01*
G01X306801Y65709D02*
Y77126D01*
X309360D01*
Y65709D01*
X306801D01*
G01X321337Y237789D02*
X308738D01*
G01X321337Y244089D02*
X308738D01*
G01X308626Y255563D02*
Y268161D01*
G01Y259500D02*
X314925D01*
G01X318661Y581D02*
X321161Y5581D01*
Y8081D01*
G01X316161Y32750D02*
X356161D01*
Y250D01*
X316161D01*
Y32750D01*
G01X356161Y8081D02*
X316161D01*
G01X356161Y10250D02*
X316161D01*
G01X356161Y22750D02*
X316161D01*
G01X356161Y30250D02*
X316161D01*
G01X320482Y202077D02*
Y221368D01*
X333081D01*
Y202077D01*
X320482D01*
G01X317400Y237789D02*
Y244089D01*
G01X314925Y255563D02*
Y268161D01*
G01X323167Y79880D02*
X384191D01*
Y38541D01*
X323167D01*
Y79880D01*
G01X339045Y270039D02*
Y250748D01*
X326447D01*
Y270039D01*
X339045D01*
G01X333661Y581D02*
X331161Y5581D01*
Y8081D01*
G01X332549Y304252D02*
Y280630D01*
G01X338661Y581D02*
X341161Y5581D01*
Y8081D01*
G01X344927Y229941D02*
G03I-557J0D01*
G01X345148Y304252D02*
Y280630D01*
G01X350614Y349476D02*
G03I-1969J0D01*
G01X353661Y581D02*
X351161Y5581D01*
Y8081D01*
G01X360203Y215453D02*
Y255453D01*
X392703D01*
Y215453D01*
X360203D01*
G01X362703Y255453D02*
Y215453D01*
G01X392703Y266935D02*
X360203D01*
Y326935D01*
X392703D01*
Y266935D01*
G01X362703Y326935D02*
Y286935D01*
X362734Y266959D01*
G01X370203Y255453D02*
Y215453D01*
G01Y326935D02*
Y286935D01*
X370211Y266982D01*
G01X392372Y217953D02*
X387372Y220453D01*
X384872D01*
G01Y255453D02*
Y215453D01*
G01X382703Y255453D02*
Y215453D01*
G01X392372Y232953D02*
X387372Y230453D01*
X384872D01*
G01X392372Y237953D02*
X387372Y240453D01*
X384872D01*
G01X392372Y252953D02*
X387372Y250453D01*
X384872D01*
G01X392372Y269435D02*
X387372Y271935D01*
X384872D01*
G01Y326935D02*
Y266990D01*
X384880Y266982D01*
G01X382703Y326935D02*
Y267006D01*
X382679Y266982D01*
G01X392372Y284435D02*
X387372Y281935D01*
X384872D01*
G01X392372Y289435D02*
X387372Y291935D01*
X384872D01*
G01X392372Y304435D02*
X387372Y301935D01*
X384872D01*
G01X392372Y309435D02*
X387372Y311935D01*
X384872D01*
G01X392372Y324435D02*
X387372Y321935D01*
X384872D01*
G54D16*
G01X301378Y332333D02*
X92323D01*
Y393447D01*
X301169D01*
X301378Y393238D01*
Y332333D01*
G01X100610Y61309D02*
X309665D01*
Y195D01*
X100819D01*
X100610Y404D01*
Y61309D01*
G54D17*
G01X19685Y0D02*
X374016D01*
G03X393701Y19685I0J19685D01*
G01Y374016D01*
G03X374016Y393701I-19685J0D01*
G01X19685D01*
G03X0Y374016I0J-19685D01*
G01Y19685D01*
G03X19685Y0I19685J0D01*
G54D18*
G01X27530Y230128D02*
G03I-984J0D01*
G01X91732Y115236D02*
G03I-984J0D01*
G01X190728Y292215D02*
G03I-984J0D01*
G01X211309Y172815D02*
G03I-984J0D01*
G01X325404Y217431D02*
G03I-984J0D01*
G01X336093Y254685D02*
G03I-984J0D01*
M02*
