G04 ================== begin FILE IDENTIFICATION RECORD ==================*
G04 Layout Name:  F:/对外部分项目/信号发生器改版/Hardware/Pcb/DDS.brd*
G04 Film Name:    SILKSCREEN_TOP*
G04 File Format:  Gerber RS274X*
G04 File Origin:  Cadence Allegro 16.6-2015-S066*
G04 Origin Date:  Sat Mar 04 10:38:13 2017*
G04 *
G04 Layer:  REF DES/SILKSCREEN_TOP*
G04 Layer:  PACKAGE GEOMETRY/SILKSCREEN_TOP*
G04 Layer:  BOARD GEOMETRY/SILKSCREEN_TOP*
G04 Layer:  BOARD GEOMETRY/OUTLINE*
G04 *
G04 Offset:    (0.000 0.000)*
G04 Mirror:    No*
G04 Mode:      Positive*
G04 Rotation:  0*
G04 FullContactRelief:  No*
G04 UndefLineWidth:     6.000*
G04 ================== end FILE IDENTIFICATION RECORD ====================*
%FSLAX25Y25*MOIN*%
%IR0*IPPOS*OFA0.00000B0.00000*MIA0B0*SFA1.00000B1.00000*%
%ADD10C,.004*%
%ADD11C,.006*%
%ADD12C,.003937*%
%ADD13C,.009843*%
%ADD14C,.007874*%
%ADD15C,.01*%
%ADD16C,.019685*%
G75*
%LPD*%
G75*
G36*
G01X1554054Y5042530D02*
X1553640Y5041868D01*
X1554426Y5040793D01*
X1555831Y5038147D01*
X1556203Y5036989D01*
X1556906Y5033765D01*
X1558229D01*
X1559345Y5034922D01*
X1560172Y5037486D01*
X1559676Y5038395D01*
X1557650Y5040256D01*
X1554054Y5042530D01*
G37*
G36*
G01X1588782Y5038809D02*
X1586839Y5036824D01*
X1576999D01*
X1591841Y5035749D01*
X1588782Y5038809D01*
G37*
G36*
G01X1643189Y5038147D02*
X1639882Y5035088D01*
X1630084D01*
X1628347D01*
X1612389D01*
X1614332Y5033103D01*
X1616399Y5033558D01*
X1619583Y5033765D01*
X1647117D01*
X1643189Y5038147D01*
G37*
G36*
G01X1624626Y5042943D02*
X1624172Y5042530D01*
X1625949Y5040462D01*
X1627479Y5037816D01*
X1628347Y5035088D01*
X1630084D01*
X1631241Y5036700D01*
X1631159Y5039222D01*
X1630539Y5039884D01*
X1628223Y5041372D01*
X1624626Y5042943D01*
G37*
G36*
G01X1691437Y5042075D02*
X1689494Y5039884D01*
X1670476D01*
X1694951Y5039222D01*
X1691437Y5042075D01*
G37*
G54D10*
G01X9405Y151875D02*
X9635Y152185D01*
X9904Y152340D01*
X10210Y152392D01*
X10594Y152288D01*
X10862Y152030D01*
X10939Y151720D01*
X10900Y151410D01*
X10747Y151152D01*
X9980Y150635D01*
X9635Y150273D01*
X9405Y149756D01*
X9329Y149292D01*
X10939D01*
G01X12634Y152392D02*
X12327Y152288D01*
X12097Y152030D01*
X11944Y151720D01*
X11829Y151306D01*
X11790Y150842D01*
X11829Y150377D01*
X11944Y149963D01*
X12097Y149653D01*
X12327Y149395D01*
X12634Y149292D01*
X12940Y149395D01*
X13170Y149653D01*
X13324Y149963D01*
X13439Y150377D01*
X13477Y150842D01*
X13439Y151306D01*
X13324Y151720D01*
X13170Y152030D01*
X12940Y152288D01*
X12634Y152392D01*
G01X15134Y149292D02*
Y152392D01*
X14674Y151772D01*
G01Y149292D02*
X15594D01*
G01X17557D02*
X17634Y149963D01*
X17749Y150532D01*
X17902Y151048D01*
X18094Y151617D01*
X18400Y152392D01*
X16867D01*
G01X19635Y150325D02*
X20632D01*
G01X22634Y152392D02*
X22327Y152288D01*
X22097Y152030D01*
X21944Y151720D01*
X21829Y151306D01*
X21790Y150842D01*
X21829Y150377D01*
X21944Y149963D01*
X22097Y149653D01*
X22327Y149395D01*
X22634Y149292D01*
X22940Y149395D01*
X23170Y149653D01*
X23324Y149963D01*
X23439Y150377D01*
X23477Y150842D01*
X23439Y151306D01*
X23324Y151720D01*
X23170Y152030D01*
X22940Y152288D01*
X22634Y152392D01*
G01X24290Y149912D02*
X24520Y149550D01*
X24827Y149343D01*
X25172Y149292D01*
X25479Y149343D01*
X25785Y149602D01*
X25977Y149912D01*
X26015Y150222D01*
X25939Y150583D01*
X25670Y150842D01*
X25402Y150945D01*
X25057D01*
G01X25402D02*
X25632Y151100D01*
X25824Y151358D01*
X25900Y151668D01*
X25824Y151978D01*
X25632Y152236D01*
X25287Y152392D01*
X24942Y152340D01*
X24597Y152133D01*
G01X27135Y150325D02*
X28132D01*
G01X30134Y152392D02*
X29827Y152288D01*
X29597Y152030D01*
X29444Y151720D01*
X29329Y151306D01*
X29290Y150842D01*
X29329Y150377D01*
X29444Y149963D01*
X29597Y149653D01*
X29827Y149395D01*
X30134Y149292D01*
X30440Y149395D01*
X30670Y149653D01*
X30824Y149963D01*
X30939Y150377D01*
X30977Y150842D01*
X30939Y151306D01*
X30824Y151720D01*
X30670Y152030D01*
X30440Y152288D01*
X30134Y152392D01*
G01X33094Y149292D02*
Y152392D01*
X31675Y150170D01*
X33592D01*
G01X12847Y48785D02*
Y51885D01*
G01X14457D02*
Y48785D01*
G01Y50335D02*
X12847D01*
G01X16152Y48785D02*
Y51885D01*
X15692Y51265D01*
G01Y48785D02*
X16612D01*
G01X11744Y83421D02*
Y86521D01*
G01X13354D02*
Y83421D01*
G01Y84970D02*
X11744D01*
G01X14206Y84040D02*
X14436Y83679D01*
X14743Y83472D01*
X15088Y83421D01*
X15394Y83472D01*
X15701Y83730D01*
X15893Y84040D01*
X15931Y84350D01*
X15854Y84712D01*
X15586Y84970D01*
X15318Y85074D01*
X14972D01*
G01X15318D02*
X15548Y85229D01*
X15739Y85487D01*
X15816Y85797D01*
X15739Y86107D01*
X15548Y86365D01*
X15203Y86521D01*
X14857Y86469D01*
X14512Y86262D01*
G01X13053Y117693D02*
Y120793D01*
G01X14663D02*
Y117693D01*
G01Y119243D02*
X13053D01*
G01X15630Y120276D02*
X15860Y120586D01*
X16128Y120741D01*
X16435Y120793D01*
X16818Y120690D01*
X17087Y120431D01*
X17163Y120121D01*
X17125Y119811D01*
X16972Y119553D01*
X16205Y119036D01*
X15860Y118674D01*
X15630Y118158D01*
X15553Y117693D01*
X17163D01*
G01X15333Y157946D02*
X16291Y154846D01*
X17249Y157946D01*
G01X18791Y154846D02*
Y157946D01*
X18331Y157326D01*
G01Y154846D02*
X19251D01*
G01X21291Y154742D02*
X21214Y154794D01*
Y154897D01*
X21291Y154949D01*
X21368Y154897D01*
Y154794D01*
X21291Y154742D01*
G01X23791Y157946D02*
X23484Y157842D01*
X23254Y157584D01*
X23101Y157274D01*
X22986Y156860D01*
X22948Y156396D01*
X22986Y155931D01*
X23101Y155517D01*
X23254Y155207D01*
X23484Y154949D01*
X23791Y154846D01*
X24098Y154949D01*
X24328Y155207D01*
X24481Y155517D01*
X24596Y155931D01*
X24634Y156396D01*
X24596Y156860D01*
X24481Y157274D01*
X24328Y157584D01*
X24098Y157842D01*
X23791Y157946D01*
G01X40735Y81883D02*
X40505Y82038D01*
X40237Y82141D01*
X39930D01*
X39585Y81986D01*
X39317Y81728D01*
X39125Y81418D01*
X38972Y80901D01*
X38933Y80436D01*
X39010Y79971D01*
X39125Y79661D01*
X39355Y79351D01*
X39623Y79145D01*
X39892Y79041D01*
X40160D01*
X40428Y79145D01*
X40658Y79300D01*
X40850Y79506D01*
G01X42852Y79041D02*
Y82141D01*
X41433Y79920D01*
X43350D01*
G01X44163Y80333D02*
X44432Y80695D01*
X44662Y80901D01*
X44968Y81005D01*
X45237Y80901D01*
X45428Y80695D01*
X45582Y80385D01*
X45620Y80023D01*
X45582Y79713D01*
X45428Y79403D01*
X45198Y79145D01*
X44930Y79041D01*
X44623Y79145D01*
X44355Y79454D01*
X44202Y79920D01*
X44163Y80436D01*
X44240Y81108D01*
X44355Y81470D01*
X44547Y81831D01*
X44815Y82090D01*
X45083Y82141D01*
X45352Y82038D01*
X45543Y81780D01*
G01X39125Y85990D02*
Y89090D01*
X40083D01*
X40390Y88935D01*
X40582Y88728D01*
X40658Y88315D01*
X40582Y87902D01*
X40352Y87644D01*
X40083Y87488D01*
X39125D01*
G01X40083D02*
X40658Y85990D01*
G01X41548Y86610D02*
X41778Y86248D01*
X42085Y86042D01*
X42430Y85990D01*
X42737Y86042D01*
X43043Y86300D01*
X43235Y86610D01*
X43273Y86920D01*
X43197Y87282D01*
X42928Y87540D01*
X42660Y87644D01*
X42315D01*
G01X42660D02*
X42890Y87798D01*
X43082Y88057D01*
X43158Y88367D01*
X43082Y88677D01*
X42890Y88935D01*
X42545Y89090D01*
X42200Y89038D01*
X41855Y88832D01*
G01X44048Y86610D02*
X44278Y86248D01*
X44585Y86042D01*
X44930Y85990D01*
X45237Y86042D01*
X45543Y86300D01*
X45735Y86610D01*
X45773Y86920D01*
X45697Y87282D01*
X45428Y87540D01*
X45160Y87644D01*
X44815D01*
G01X45160D02*
X45390Y87798D01*
X45582Y88057D01*
X45658Y88367D01*
X45582Y88677D01*
X45390Y88935D01*
X45045Y89090D01*
X44700Y89038D01*
X44355Y88832D01*
G01X40735Y103468D02*
X40505Y103623D01*
X40237Y103726D01*
X39930D01*
X39585Y103571D01*
X39317Y103313D01*
X39125Y103003D01*
X38972Y102486D01*
X38933Y102021D01*
X39010Y101556D01*
X39125Y101246D01*
X39355Y100936D01*
X39623Y100729D01*
X39892Y100626D01*
X40160D01*
X40428Y100729D01*
X40658Y100884D01*
X40850Y101091D01*
G01X41548Y101246D02*
X41778Y100884D01*
X42085Y100678D01*
X42430Y100626D01*
X42737Y100678D01*
X43043Y100936D01*
X43235Y101246D01*
X43273Y101556D01*
X43197Y101918D01*
X42928Y102176D01*
X42660Y102279D01*
X42315D01*
G01X42660D02*
X42890Y102434D01*
X43082Y102693D01*
X43158Y103003D01*
X43082Y103313D01*
X42890Y103571D01*
X42545Y103726D01*
X42200Y103674D01*
X41855Y103468D01*
G01X44892Y100626D02*
X45160Y100678D01*
X45467Y100833D01*
X45658Y101091D01*
X45735Y101453D01*
X45658Y101814D01*
X45428Y102124D01*
X45083Y102279D01*
X44700D01*
X44470Y102383D01*
X44278Y102641D01*
X44202Y103003D01*
X44317Y103364D01*
X44585Y103623D01*
X44892Y103726D01*
X45198Y103623D01*
X45467Y103364D01*
X45582Y103003D01*
X45505Y102641D01*
X45313Y102383D01*
X45083Y102279D01*
X44700D01*
X44355Y102124D01*
X44125Y101814D01*
X44048Y101453D01*
X44125Y101091D01*
X44317Y100833D01*
X44623Y100678D01*
X44892Y100626D01*
G01X40735Y96145D02*
X40505Y96300D01*
X40237Y96403D01*
X39930D01*
X39585Y96248D01*
X39317Y95990D01*
X39125Y95680D01*
X38972Y95163D01*
X38933Y94698D01*
X39010Y94233D01*
X39125Y93923D01*
X39355Y93613D01*
X39623Y93406D01*
X39892Y93303D01*
X40160D01*
X40428Y93406D01*
X40658Y93561D01*
X40850Y93768D01*
G01X41548Y93923D02*
X41778Y93561D01*
X42085Y93355D01*
X42430Y93303D01*
X42737Y93355D01*
X43043Y93613D01*
X43235Y93923D01*
X43273Y94233D01*
X43197Y94595D01*
X42928Y94853D01*
X42660Y94957D01*
X42315D01*
G01X42660D02*
X42890Y95111D01*
X43082Y95370D01*
X43158Y95680D01*
X43082Y95990D01*
X42890Y96248D01*
X42545Y96403D01*
X42200Y96351D01*
X41855Y96145D01*
G01X44240Y93665D02*
X44508Y93406D01*
X44815Y93303D01*
X45122Y93406D01*
X45390Y93716D01*
X45582Y94181D01*
X45658Y94646D01*
Y95215D01*
X45582Y95680D01*
X45390Y96093D01*
X45160Y96300D01*
X44892Y96403D01*
X44585Y96300D01*
X44355Y96093D01*
X44202Y95783D01*
X44125Y95370D01*
X44202Y95008D01*
X44393Y94646D01*
X44623Y94440D01*
X44892Y94388D01*
X45198Y94491D01*
X45428Y94750D01*
X45658Y95215D01*
G01X40578Y110672D02*
X40348Y110827D01*
X40079Y110931D01*
X39773D01*
X39428Y110776D01*
X39159Y110517D01*
X38968Y110207D01*
X38814Y109691D01*
X38776Y109226D01*
X38853Y108761D01*
X38968Y108451D01*
X39198Y108141D01*
X39466Y107934D01*
X39734Y107831D01*
X40003D01*
X40271Y107934D01*
X40501Y108089D01*
X40693Y108296D01*
G01X42694Y107831D02*
Y110931D01*
X41276Y108709D01*
X43193D01*
G01X43891Y108296D02*
X44121Y108037D01*
X44389Y107882D01*
X44734Y107831D01*
X45079Y107934D01*
X45348Y108141D01*
X45539Y108502D01*
X45578Y108916D01*
X45501Y109329D01*
X45309Y109587D01*
X45041Y109794D01*
X44773Y109846D01*
X44504Y109794D01*
X44159Y109587D01*
X44274Y110931D01*
X45309D01*
G01X38968Y114878D02*
Y117978D01*
X39926D01*
X40233Y117823D01*
X40424Y117616D01*
X40501Y117203D01*
X40424Y116790D01*
X40194Y116531D01*
X39926Y116376D01*
X38968D01*
G01X39926D02*
X40501Y114878D01*
G01X41391Y115498D02*
X41621Y115136D01*
X41928Y114930D01*
X42273Y114878D01*
X42579Y114930D01*
X42886Y115188D01*
X43078Y115498D01*
X43116Y115808D01*
X43039Y116170D01*
X42771Y116428D01*
X42503Y116531D01*
X42158D01*
G01X42503D02*
X42733Y116686D01*
X42924Y116945D01*
X43001Y117255D01*
X42924Y117565D01*
X42733Y117823D01*
X42388Y117978D01*
X42043Y117926D01*
X41698Y117720D01*
G01X44006Y117461D02*
X44236Y117771D01*
X44504Y117926D01*
X44811Y117978D01*
X45194Y117875D01*
X45463Y117616D01*
X45539Y117306D01*
X45501Y116996D01*
X45348Y116738D01*
X44581Y116221D01*
X44236Y115860D01*
X44006Y115343D01*
X43929Y114878D01*
X45539D01*
G01X40578Y125062D02*
X40348Y125217D01*
X40079Y125320D01*
X39773D01*
X39428Y125165D01*
X39159Y124907D01*
X38968Y124597D01*
X38814Y124081D01*
X38776Y123615D01*
X38853Y123150D01*
X38968Y122840D01*
X39198Y122530D01*
X39466Y122324D01*
X39734Y122220D01*
X40003D01*
X40271Y122324D01*
X40501Y122479D01*
X40693Y122685D01*
G01X41391Y122840D02*
X41621Y122479D01*
X41928Y122272D01*
X42273Y122220D01*
X42579Y122272D01*
X42886Y122530D01*
X43078Y122840D01*
X43116Y123150D01*
X43039Y123512D01*
X42771Y123770D01*
X42503Y123874D01*
X42158D01*
G01X42503D02*
X42733Y124029D01*
X42924Y124287D01*
X43001Y124597D01*
X42924Y124907D01*
X42733Y125165D01*
X42388Y125320D01*
X42043Y125269D01*
X41698Y125062D01*
G01X44658Y122220D02*
X44734Y122892D01*
X44849Y123460D01*
X45003Y123977D01*
X45194Y124546D01*
X45501Y125320D01*
X43968D01*
G01X40587Y132336D02*
X40357Y132491D01*
X40089Y132594D01*
X39782D01*
X39437Y132439D01*
X39169Y132181D01*
X38977Y131871D01*
X38824Y131354D01*
X38786Y130889D01*
X38862Y130424D01*
X38977Y130114D01*
X39207Y129804D01*
X39476Y129597D01*
X39744Y129494D01*
X40012D01*
X40281Y129597D01*
X40511Y129752D01*
X40702Y129959D01*
G01X41401Y130114D02*
X41631Y129752D01*
X41937Y129546D01*
X42282Y129494D01*
X42589Y129546D01*
X42896Y129804D01*
X43087Y130114D01*
X43126Y130424D01*
X43049Y130786D01*
X42781Y131044D01*
X42512Y131148D01*
X42167D01*
G01X42512D02*
X42742Y131302D01*
X42934Y131561D01*
X43011Y131871D01*
X42934Y132181D01*
X42742Y132439D01*
X42397Y132594D01*
X42052Y132542D01*
X41707Y132336D01*
G01X44016Y130786D02*
X44284Y131148D01*
X44514Y131354D01*
X44821Y131457D01*
X45089Y131354D01*
X45281Y131148D01*
X45434Y130837D01*
X45473Y130476D01*
X45434Y130166D01*
X45281Y129856D01*
X45051Y129597D01*
X44782Y129494D01*
X44476Y129597D01*
X44207Y129907D01*
X44054Y130372D01*
X44016Y130889D01*
X44092Y131561D01*
X44207Y131922D01*
X44399Y132284D01*
X44667Y132542D01*
X44936Y132594D01*
X45204Y132491D01*
X45396Y132232D01*
G01X47812Y56486D02*
Y54265D01*
X47966Y53799D01*
X48272Y53490D01*
X48656Y53386D01*
X49039Y53490D01*
X49346Y53799D01*
X49499Y54265D01*
Y56486D01*
G01X50504Y53748D02*
X50772Y53490D01*
X51079Y53386D01*
X51386Y53490D01*
X51654Y53799D01*
X51846Y54265D01*
X51922Y54730D01*
Y55298D01*
X51846Y55763D01*
X51654Y56176D01*
X51424Y56383D01*
X51156Y56486D01*
X50849Y56383D01*
X50619Y56176D01*
X50466Y55866D01*
X50389Y55453D01*
X50466Y55091D01*
X50657Y54730D01*
X50887Y54523D01*
X51156Y54471D01*
X51462Y54574D01*
X51692Y54833D01*
X51922Y55298D01*
G01X48170Y146964D02*
Y150064D01*
X49129D01*
X49435Y149909D01*
X49627Y149702D01*
X49704Y149289D01*
X49627Y148875D01*
X49397Y148617D01*
X49129Y148462D01*
X48170D01*
G01X49129D02*
X49704Y146964D01*
G01X50709Y149547D02*
X50939Y149857D01*
X51207Y150012D01*
X51514Y150064D01*
X51897Y149960D01*
X52165Y149702D01*
X52242Y149392D01*
X52204Y149082D01*
X52050Y148824D01*
X51284Y148307D01*
X50939Y147945D01*
X50709Y147429D01*
X50632Y146964D01*
X52242D01*
G01X53937Y150064D02*
X53630Y149960D01*
X53400Y149702D01*
X53247Y149392D01*
X53132Y148979D01*
X53094Y148514D01*
X53132Y148049D01*
X53247Y147635D01*
X53400Y147325D01*
X53630Y147067D01*
X53937Y146964D01*
X54244Y147067D01*
X54474Y147325D01*
X54627Y147635D01*
X54742Y148049D01*
X54780Y148514D01*
X54742Y148979D01*
X54627Y149392D01*
X54474Y149702D01*
X54244Y149960D01*
X53937Y150064D01*
G01X58624Y25428D02*
Y28528D01*
G01X60234D02*
Y25428D01*
G01Y26978D02*
X58624D01*
G01X61852Y25428D02*
X61929Y26100D01*
X62044Y26668D01*
X62197Y27185D01*
X62389Y27753D01*
X62696Y28528D01*
X61162D01*
G01X58821Y84821D02*
Y87920D01*
X59779D01*
X60086Y87765D01*
X60277Y87559D01*
X60354Y87146D01*
X60277Y86732D01*
X60047Y86474D01*
X59779Y86319D01*
X58821D01*
G01X59779D02*
X60354Y84821D01*
G01X62547D02*
Y87920D01*
X61129Y85699D01*
X63046D01*
G01X54066Y159503D02*
Y162603D01*
X55024D01*
X55331Y162448D01*
X55523Y162241D01*
X55599Y161828D01*
X55523Y161415D01*
X55293Y161156D01*
X55024Y161001D01*
X54066D01*
G01X55024D02*
X55599Y159503D01*
G01X56604Y162086D02*
X56834Y162396D01*
X57103Y162551D01*
X57409Y162603D01*
X57793Y162500D01*
X58061Y162241D01*
X58138Y161932D01*
X58099Y161621D01*
X57946Y161363D01*
X57179Y160846D01*
X56834Y160485D01*
X56604Y159968D01*
X56528Y159503D01*
X58138D01*
G01X60293D02*
Y162603D01*
X58874Y160381D01*
X60791D01*
G01X60480Y96924D02*
X60250Y97079D01*
X59982Y97182D01*
X59675D01*
X59330Y97027D01*
X59062Y96769D01*
X58870Y96459D01*
X58717Y95942D01*
X58678Y95477D01*
X58755Y95012D01*
X58870Y94702D01*
X59100Y94392D01*
X59368Y94186D01*
X59637Y94082D01*
X59905D01*
X60173Y94186D01*
X60403Y94341D01*
X60595Y94547D01*
G01X61293Y94702D02*
X61523Y94341D01*
X61830Y94134D01*
X62175Y94082D01*
X62482Y94134D01*
X62788Y94392D01*
X62980Y94702D01*
X63018Y95012D01*
X62942Y95374D01*
X62673Y95632D01*
X62405Y95736D01*
X62060D01*
G01X62405D02*
X62635Y95891D01*
X62827Y96149D01*
X62903Y96459D01*
X62827Y96769D01*
X62635Y97027D01*
X62290Y97182D01*
X61945Y97131D01*
X61600Y96924D01*
G01X63806Y112493D02*
X63576Y112648D01*
X63308Y112752D01*
X63001D01*
X62656Y112596D01*
X62388Y112338D01*
X62196Y112028D01*
X62043Y111512D01*
X62004Y111047D01*
X62081Y110582D01*
X62196Y110272D01*
X62426Y109962D01*
X62694Y109755D01*
X62963Y109652D01*
X63231D01*
X63499Y109755D01*
X63729Y109910D01*
X63921Y110116D01*
G01X64734Y112235D02*
X64964Y112545D01*
X65233Y112700D01*
X65539Y112752D01*
X65923Y112648D01*
X66191Y112390D01*
X66268Y112080D01*
X66229Y111770D01*
X66076Y111512D01*
X65309Y110995D01*
X64964Y110633D01*
X64734Y110116D01*
X64658Y109652D01*
X66268D01*
G01X60296Y146964D02*
Y150064D01*
X61255D01*
X61561Y149909D01*
X61753Y149702D01*
X61830Y149289D01*
X61753Y148875D01*
X61523Y148617D01*
X61255Y148462D01*
X60296D01*
G01X61255D02*
X61830Y146964D01*
G01X62835Y149547D02*
X63065Y149857D01*
X63333Y150012D01*
X63640Y150064D01*
X64023Y149960D01*
X64291Y149702D01*
X64368Y149392D01*
X64330Y149082D01*
X64176Y148824D01*
X63410Y148307D01*
X63065Y147945D01*
X62835Y147429D01*
X62758Y146964D01*
X64368D01*
G01X66063D02*
Y150064D01*
X65603Y149444D01*
G01Y146964D02*
X66523D01*
G01X65956Y159503D02*
Y162603D01*
X66914D01*
X67221Y162448D01*
X67412Y162241D01*
X67489Y161828D01*
X67412Y161415D01*
X67182Y161156D01*
X66914Y161001D01*
X65956D01*
G01X66914D02*
X67489Y159503D01*
G01X68494Y162086D02*
X68724Y162396D01*
X68992Y162551D01*
X69299Y162603D01*
X69682Y162500D01*
X69951Y162241D01*
X70027Y161932D01*
X69989Y161621D01*
X69836Y161363D01*
X69069Y160846D01*
X68724Y160485D01*
X68494Y159968D01*
X68417Y159503D01*
X70027D01*
G01X70994Y162086D02*
X71224Y162396D01*
X71492Y162551D01*
X71799Y162603D01*
X72182Y162500D01*
X72451Y162241D01*
X72527Y161932D01*
X72489Y161621D01*
X72336Y161363D01*
X71569Y160846D01*
X71224Y160485D01*
X70994Y159968D01*
X70917Y159503D01*
X72527D01*
G01X71504Y87495D02*
X71274Y87650D01*
X71005Y87753D01*
X70699D01*
X70354Y87598D01*
X70085Y87340D01*
X69894Y87030D01*
X69740Y86513D01*
X69702Y86048D01*
X69778Y85583D01*
X69894Y85273D01*
X70124Y84963D01*
X70392Y84756D01*
X70660Y84653D01*
X70928D01*
X71197Y84756D01*
X71427Y84911D01*
X71619Y85118D01*
G01X73620Y84653D02*
Y87753D01*
X72202Y85531D01*
X74119D01*
G01X69825Y93836D02*
Y96936D01*
X70783D01*
X71090Y96781D01*
X71281Y96575D01*
X71358Y96161D01*
X71281Y95748D01*
X71051Y95490D01*
X70783Y95334D01*
X69825D01*
G01X70783D02*
X71358Y93836D01*
G01X72248Y94301D02*
X72478Y94043D01*
X72746Y93888D01*
X73091Y93836D01*
X73436Y93940D01*
X73705Y94146D01*
X73896Y94508D01*
X73935Y94921D01*
X73858Y95334D01*
X73666Y95593D01*
X73398Y95800D01*
X73130Y95851D01*
X72861Y95800D01*
X72516Y95593D01*
X72631Y96936D01*
X73666D01*
G01X72467Y111056D02*
X72237Y111211D01*
X71969Y111315D01*
X71662D01*
X71317Y111160D01*
X71049Y110901D01*
X70857Y110591D01*
X70704Y110075D01*
X70666Y109610D01*
X70742Y109145D01*
X70857Y108835D01*
X71087Y108524D01*
X71356Y108318D01*
X71624Y108215D01*
X71892D01*
X72161Y108318D01*
X72391Y108473D01*
X72582Y108680D01*
G01X74124Y108215D02*
Y111315D01*
X73664Y110695D01*
G01Y108215D02*
X74584D01*
G01X68098Y130687D02*
Y128465D01*
X68251Y128000D01*
X68558Y127690D01*
X68941Y127587D01*
X69325Y127690D01*
X69631Y128000D01*
X69784Y128465D01*
Y130687D01*
G01X71901Y127587D02*
Y130687D01*
X70483Y128465D01*
X72400D01*
G01X71920Y146964D02*
Y150064D01*
X72879D01*
X73185Y149909D01*
X73377Y149702D01*
X73454Y149289D01*
X73377Y148875D01*
X73147Y148617D01*
X72879Y148462D01*
X71920D01*
G01X72879D02*
X73454Y146964D01*
G01X74459Y149547D02*
X74689Y149857D01*
X74957Y150012D01*
X75264Y150064D01*
X75647Y149960D01*
X75915Y149702D01*
X75992Y149392D01*
X75954Y149082D01*
X75800Y148824D01*
X75034Y148307D01*
X74689Y147945D01*
X74459Y147429D01*
X74382Y146964D01*
X75992D01*
G01X76844Y147429D02*
X77074Y147170D01*
X77342Y147016D01*
X77687Y146964D01*
X78032Y147067D01*
X78300Y147274D01*
X78492Y147635D01*
X78530Y148049D01*
X78454Y148462D01*
X78262Y148720D01*
X77994Y148927D01*
X77725Y148979D01*
X77457Y148927D01*
X77112Y148720D01*
X77227Y150064D01*
X78262D01*
G01X78023Y159503D02*
Y162603D01*
X78981D01*
X79288Y162448D01*
X79479Y162241D01*
X79556Y161828D01*
X79479Y161415D01*
X79249Y161156D01*
X78981Y161001D01*
X78023D01*
G01X78981D02*
X79556Y159503D01*
G01X80561Y162086D02*
X80791Y162396D01*
X81059Y162551D01*
X81366Y162603D01*
X81749Y162500D01*
X82018Y162241D01*
X82094Y161932D01*
X82056Y161621D01*
X81903Y161363D01*
X81136Y160846D01*
X80791Y160485D01*
X80561Y159968D01*
X80484Y159503D01*
X82094D01*
G01X82946Y160123D02*
X83176Y159761D01*
X83483Y159555D01*
X83828Y159503D01*
X84134Y159555D01*
X84441Y159813D01*
X84633Y160123D01*
X84671Y160433D01*
X84594Y160795D01*
X84326Y161053D01*
X84058Y161156D01*
X83713D01*
G01X84058D02*
X84288Y161311D01*
X84479Y161570D01*
X84556Y161880D01*
X84479Y162190D01*
X84288Y162448D01*
X83943Y162603D01*
X83598Y162551D01*
X83253Y162345D01*
G01X86916Y46234D02*
X86686Y46390D01*
X86417Y46493D01*
X86111D01*
X85766Y46338D01*
X85497Y46080D01*
X85306Y45769D01*
X85152Y45253D01*
X85114Y44788D01*
X85191Y44323D01*
X85306Y44013D01*
X85536Y43703D01*
X85804Y43496D01*
X86072Y43393D01*
X86341D01*
X86609Y43496D01*
X86839Y43651D01*
X87031Y43858D01*
G01X87729D02*
X87959Y43599D01*
X88227Y43444D01*
X88572Y43393D01*
X88917Y43496D01*
X89186Y43703D01*
X89377Y44064D01*
X89416Y44478D01*
X89339Y44891D01*
X89147Y45150D01*
X88879Y45356D01*
X88611Y45408D01*
X88342Y45356D01*
X87997Y45150D01*
X88112Y46493D01*
X89147D01*
G01X90344Y45976D02*
X90574Y46286D01*
X90842Y46441D01*
X91149Y46493D01*
X91532Y46390D01*
X91801Y46131D01*
X91877Y45821D01*
X91839Y45511D01*
X91686Y45253D01*
X90919Y44736D01*
X90574Y44374D01*
X90344Y43858D01*
X90267Y43393D01*
X91877D01*
G01X89512Y115199D02*
X89282Y115355D01*
X89014Y115458D01*
X88707D01*
X88362Y115303D01*
X88094Y115045D01*
X87902Y114734D01*
X87749Y114218D01*
X87710Y113753D01*
X87787Y113288D01*
X87902Y112978D01*
X88132Y112668D01*
X88400Y112461D01*
X88669Y112358D01*
X88937D01*
X89205Y112461D01*
X89435Y112616D01*
X89627Y112823D01*
G01X90325Y112978D02*
X90555Y112616D01*
X90862Y112410D01*
X91207Y112358D01*
X91514Y112410D01*
X91820Y112668D01*
X92012Y112978D01*
X92050Y113288D01*
X91974Y113649D01*
X91705Y113908D01*
X91437Y114011D01*
X91092D01*
G01X91437D02*
X91667Y114166D01*
X91859Y114424D01*
X91935Y114734D01*
X91859Y115045D01*
X91667Y115303D01*
X91322Y115458D01*
X90977Y115406D01*
X90632Y115199D01*
G01X93669Y115458D02*
X93362Y115355D01*
X93132Y115096D01*
X92979Y114786D01*
X92864Y114373D01*
X92825Y113908D01*
X92864Y113443D01*
X92979Y113030D01*
X93132Y112720D01*
X93362Y112461D01*
X93669Y112358D01*
X93975Y112461D01*
X94205Y112720D01*
X94359Y113030D01*
X94474Y113443D01*
X94512Y113908D01*
X94474Y114373D01*
X94359Y114786D01*
X94205Y115096D01*
X93975Y115355D01*
X93669Y115458D01*
G01X89436Y145761D02*
X89206Y145916D01*
X88938Y146019D01*
X88631D01*
X88286Y145864D01*
X88018Y145606D01*
X87826Y145296D01*
X87673Y144779D01*
X87634Y144314D01*
X87711Y143849D01*
X87826Y143539D01*
X88056Y143229D01*
X88324Y143023D01*
X88592Y142919D01*
X88861D01*
X89129Y143023D01*
X89359Y143178D01*
X89551Y143384D01*
G01X90249Y143539D02*
X90479Y143178D01*
X90786Y142971D01*
X91131Y142919D01*
X91438Y142971D01*
X91744Y143229D01*
X91936Y143539D01*
X91974Y143849D01*
X91898Y144211D01*
X91629Y144469D01*
X91361Y144573D01*
X91016D01*
G01X91361D02*
X91591Y144728D01*
X91783Y144986D01*
X91859Y145296D01*
X91783Y145606D01*
X91591Y145864D01*
X91246Y146019D01*
X90901Y145968D01*
X90556Y145761D01*
G01X92749Y143539D02*
X92979Y143178D01*
X93286Y142971D01*
X93631Y142919D01*
X93938Y142971D01*
X94244Y143229D01*
X94436Y143539D01*
X94474Y143849D01*
X94398Y144211D01*
X94129Y144469D01*
X93861Y144573D01*
X93516D01*
G01X93861D02*
X94091Y144728D01*
X94282Y144986D01*
X94359Y145296D01*
X94282Y145606D01*
X94091Y145864D01*
X93746Y146019D01*
X93401Y145968D01*
X93056Y145761D01*
G01X83997Y146964D02*
Y150064D01*
X84956D01*
X85262Y149909D01*
X85454Y149702D01*
X85530Y149289D01*
X85454Y148875D01*
X85224Y148617D01*
X84956Y148462D01*
X83997D01*
G01X84956D02*
X85530Y146964D01*
G01X86535Y149547D02*
X86766Y149857D01*
X87034Y150012D01*
X87340Y150064D01*
X87724Y149960D01*
X87992Y149702D01*
X88069Y149392D01*
X88030Y149082D01*
X87877Y148824D01*
X87110Y148307D01*
X86766Y147945D01*
X86535Y147429D01*
X86459Y146964D01*
X88069D01*
G01X89035Y148255D02*
X89304Y148617D01*
X89534Y148824D01*
X89840Y148927D01*
X90109Y148824D01*
X90300Y148617D01*
X90454Y148307D01*
X90492Y147945D01*
X90454Y147635D01*
X90300Y147325D01*
X90070Y147067D01*
X89802Y146964D01*
X89496Y147067D01*
X89227Y147377D01*
X89074Y147842D01*
X89035Y148359D01*
X89112Y149030D01*
X89227Y149392D01*
X89419Y149754D01*
X89687Y150012D01*
X89956Y150064D01*
X90224Y149960D01*
X90416Y149702D01*
G01X90099Y159503D02*
Y162603D01*
X91058D01*
X91364Y162448D01*
X91556Y162241D01*
X91633Y161828D01*
X91556Y161415D01*
X91326Y161156D01*
X91058Y161001D01*
X90099D01*
G01X91058D02*
X91633Y159503D01*
G01X92638Y162086D02*
X92868Y162396D01*
X93136Y162551D01*
X93443Y162603D01*
X93826Y162500D01*
X94094Y162241D01*
X94171Y161932D01*
X94133Y161621D01*
X93979Y161363D01*
X93213Y160846D01*
X92868Y160485D01*
X92638Y159968D01*
X92561Y159503D01*
X94171D01*
G01X95789D02*
X95866Y160175D01*
X95981Y160743D01*
X96134Y161260D01*
X96326Y161828D01*
X96633Y162603D01*
X95099D01*
G01X93616Y43442D02*
Y46542D01*
X94574D01*
X94881Y46387D01*
X95073Y46180D01*
X95150Y45767D01*
X95073Y45353D01*
X94843Y45095D01*
X94574Y44940D01*
X93616D01*
G01X94574D02*
X95150Y43442D01*
G01X96040Y44062D02*
X96269Y43700D01*
X96576Y43494D01*
X96921Y43442D01*
X97228Y43494D01*
X97534Y43752D01*
X97726Y44062D01*
X97764Y44372D01*
X97688Y44733D01*
X97420Y44992D01*
X97151Y45095D01*
X96806D01*
G01X97151D02*
X97381Y45250D01*
X97573Y45508D01*
X97650Y45818D01*
X97573Y46129D01*
X97381Y46387D01*
X97036Y46542D01*
X96691Y46490D01*
X96346Y46283D01*
G01X98654Y44733D02*
X98923Y45095D01*
X99153Y45302D01*
X99460Y45405D01*
X99728Y45302D01*
X99920Y45095D01*
X100073Y44785D01*
X100111Y44423D01*
X100073Y44113D01*
X99920Y43803D01*
X99689Y43545D01*
X99421Y43442D01*
X99114Y43545D01*
X98846Y43855D01*
X98693Y44320D01*
X98654Y44837D01*
X98731Y45508D01*
X98846Y45870D01*
X99038Y46232D01*
X99306Y46490D01*
X99574Y46542D01*
X99843Y46438D01*
X100034Y46180D01*
G01X98762Y55300D02*
X98532Y55455D01*
X98264Y55558D01*
X97957D01*
X97612Y55403D01*
X97344Y55145D01*
X97152Y54835D01*
X96999Y54318D01*
X96961Y53853D01*
X97037Y53388D01*
X97152Y53078D01*
X97382Y52768D01*
X97651Y52562D01*
X97919Y52458D01*
X98187D01*
X98456Y52562D01*
X98686Y52717D01*
X98877Y52923D01*
G01X100879Y52458D02*
Y55558D01*
X99461Y53337D01*
X101377D01*
G01X103379Y52458D02*
Y55558D01*
X101961Y53337D01*
X103877D01*
G01X97117Y59494D02*
Y62594D01*
X98076D01*
X98382Y62439D01*
X98574Y62232D01*
X98651Y61819D01*
X98574Y61406D01*
X98344Y61148D01*
X98076Y60992D01*
X97117D01*
G01X98076D02*
X98651Y59494D01*
G01X99541Y60114D02*
X99770Y59752D01*
X100077Y59546D01*
X100422Y59494D01*
X100729Y59546D01*
X101036Y59804D01*
X101227Y60114D01*
X101266Y60424D01*
X101189Y60786D01*
X100921Y61044D01*
X100652Y61148D01*
X100307D01*
G01X100652D02*
X100882Y61302D01*
X101074Y61561D01*
X101151Y61871D01*
X101074Y62181D01*
X100882Y62439D01*
X100537Y62594D01*
X100192Y62542D01*
X99847Y62336D01*
G01X102884Y59494D02*
Y62594D01*
X102424Y61974D01*
G01Y59494D02*
X103344D01*
G01X98727Y70574D02*
X98497Y70729D01*
X98229Y70832D01*
X97922D01*
X97577Y70677D01*
X97309Y70419D01*
X97117Y70109D01*
X96964Y69592D01*
X96926Y69127D01*
X97002Y68662D01*
X97117Y68352D01*
X97347Y68042D01*
X97616Y67836D01*
X97884Y67732D01*
X98152D01*
X98421Y67836D01*
X98651Y67991D01*
X98842Y68197D01*
G01X99541Y68352D02*
X99770Y67991D01*
X100077Y67784D01*
X100422Y67732D01*
X100729Y67784D01*
X101036Y68042D01*
X101227Y68352D01*
X101266Y68662D01*
X101189Y69024D01*
X100921Y69282D01*
X100652Y69386D01*
X100307D01*
G01X100652D02*
X100882Y69541D01*
X101074Y69799D01*
X101151Y70109D01*
X101074Y70419D01*
X100882Y70677D01*
X100537Y70832D01*
X100192Y70781D01*
X99847Y70574D01*
G01X102041Y68197D02*
X102270Y67939D01*
X102539Y67784D01*
X102884Y67732D01*
X103229Y67836D01*
X103497Y68042D01*
X103689Y68404D01*
X103727Y68817D01*
X103651Y69231D01*
X103459Y69489D01*
X103190Y69696D01*
X102922Y69747D01*
X102654Y69696D01*
X102309Y69489D01*
X102424Y70832D01*
X103459D01*
G01X98727Y78674D02*
X98497Y78829D01*
X98229Y78933D01*
X97922D01*
X97577Y78778D01*
X97309Y78519D01*
X97117Y78209D01*
X96964Y77693D01*
X96926Y77228D01*
X97002Y76763D01*
X97117Y76453D01*
X97347Y76143D01*
X97616Y75936D01*
X97884Y75833D01*
X98152D01*
X98421Y75936D01*
X98651Y76091D01*
X98842Y76298D01*
G01X99541Y76453D02*
X99770Y76091D01*
X100077Y75884D01*
X100422Y75833D01*
X100729Y75884D01*
X101036Y76143D01*
X101227Y76453D01*
X101266Y76763D01*
X101189Y77124D01*
X100921Y77383D01*
X100652Y77486D01*
X100307D01*
G01X100652D02*
X100882Y77641D01*
X101074Y77899D01*
X101151Y78209D01*
X101074Y78519D01*
X100882Y78778D01*
X100537Y78933D01*
X100192Y78881D01*
X99847Y78674D01*
G01X103344Y75833D02*
Y78933D01*
X101926Y76711D01*
X103842D01*
G01X92641Y99346D02*
Y97124D01*
X92794Y96659D01*
X93101Y96349D01*
X93484Y96246D01*
X93868Y96349D01*
X94174Y96659D01*
X94328Y97124D01*
Y99346D01*
G01X95984Y96246D02*
Y99346D01*
X95524Y98726D01*
G01Y96246D02*
X96444D01*
G01X99995Y159501D02*
Y162601D01*
X100954D01*
X101260Y162446D01*
X101452Y162239D01*
X101529Y161826D01*
X101452Y161412D01*
X101222Y161154D01*
X100954Y160999D01*
X99995D01*
G01X100954D02*
X101529Y159501D01*
G01X102419Y160121D02*
X102648Y159759D01*
X102955Y159552D01*
X103300Y159501D01*
X103607Y159552D01*
X103914Y159811D01*
X104105Y160121D01*
X104144Y160431D01*
X104067Y160792D01*
X103799Y161051D01*
X103530Y161154D01*
X103185D01*
G01X103530D02*
X103760Y161309D01*
X103952Y161567D01*
X104029Y161877D01*
X103952Y162188D01*
X103760Y162446D01*
X103415Y162601D01*
X103070Y162549D01*
X102725Y162342D01*
G01X105762Y162601D02*
X105455Y162497D01*
X105225Y162239D01*
X105072Y161929D01*
X104957Y161516D01*
X104919Y161051D01*
X104957Y160586D01*
X105072Y160172D01*
X105225Y159862D01*
X105455Y159604D01*
X105762Y159501D01*
X106068Y159604D01*
X106299Y159862D01*
X106452Y160172D01*
X106567Y160586D01*
X106605Y161051D01*
X106567Y161516D01*
X106452Y161929D01*
X106299Y162239D01*
X106068Y162497D01*
X105762Y162601D01*
G01X100169Y25428D02*
Y28528D01*
G01X101779D02*
Y25428D01*
G01Y26978D02*
X100169D01*
G01X103474Y25428D02*
X103743Y25480D01*
X104049Y25635D01*
X104241Y25893D01*
X104318Y26255D01*
X104241Y26617D01*
X104011Y26927D01*
X103666Y27082D01*
X103283D01*
X103053Y27185D01*
X102861Y27443D01*
X102784Y27805D01*
X102899Y28167D01*
X103168Y28425D01*
X103474Y28528D01*
X103781Y28425D01*
X104049Y28167D01*
X104164Y27805D01*
X104088Y27443D01*
X103896Y27185D01*
X103666Y27082D01*
X103283D01*
X102938Y26927D01*
X102708Y26617D01*
X102631Y26255D01*
X102708Y25893D01*
X102899Y25635D01*
X103206Y25480D01*
X103474Y25428D01*
G01X105104Y46058D02*
X104874Y46213D01*
X104606Y46316D01*
X104300D01*
X103955Y46161D01*
X103686Y45903D01*
X103494Y45593D01*
X103341Y45076D01*
X103303Y44611D01*
X103380Y44146D01*
X103494Y43836D01*
X103724Y43526D01*
X103993Y43320D01*
X104261Y43216D01*
X104530D01*
X104798Y43320D01*
X105028Y43475D01*
X105220Y43681D01*
G01X105918D02*
X106148Y43423D01*
X106416Y43268D01*
X106761Y43216D01*
X107106Y43320D01*
X107374Y43526D01*
X107566Y43888D01*
X107605Y44301D01*
X107528Y44715D01*
X107336Y44973D01*
X107068Y45180D01*
X106800Y45231D01*
X106531Y45180D01*
X106186Y44973D01*
X106301Y46316D01*
X107336D01*
G01X108418Y43836D02*
X108648Y43475D01*
X108954Y43268D01*
X109300Y43216D01*
X109606Y43268D01*
X109913Y43526D01*
X110104Y43836D01*
X110143Y44146D01*
X110066Y44508D01*
X109798Y44766D01*
X109530Y44870D01*
X109184D01*
G01X109530D02*
X109760Y45025D01*
X109951Y45283D01*
X110028Y45593D01*
X109951Y45903D01*
X109760Y46161D01*
X109414Y46316D01*
X109070Y46265D01*
X108724Y46058D01*
G01X111736Y42971D02*
Y46071D01*
X112695D01*
X113001Y45916D01*
X113193Y45710D01*
X113270Y45296D01*
X113193Y44883D01*
X112963Y44625D01*
X112695Y44470D01*
X111736D01*
G01X112695D02*
X113270Y42971D01*
G01X114160Y43591D02*
X114390Y43230D01*
X114696Y43023D01*
X115041Y42971D01*
X115348Y43023D01*
X115655Y43281D01*
X115846Y43591D01*
X115885Y43901D01*
X115808Y44263D01*
X115540Y44521D01*
X115271Y44625D01*
X114926D01*
G01X115271D02*
X115501Y44780D01*
X115693Y45038D01*
X115770Y45348D01*
X115693Y45658D01*
X115501Y45916D01*
X115156Y46071D01*
X114811Y46020D01*
X114466Y45813D01*
G01X117426Y42971D02*
X117503Y43643D01*
X117618Y44211D01*
X117771Y44728D01*
X117963Y45296D01*
X118270Y46071D01*
X116736D01*
G01X115994Y57495D02*
X115687Y57547D01*
X115419Y57754D01*
X115189Y58064D01*
X115036Y58425D01*
X114959Y58839D01*
Y59252D01*
X115036Y59665D01*
X115189Y60027D01*
X115419Y60337D01*
X115687Y60544D01*
X115994Y60595D01*
X116301Y60544D01*
X116569Y60337D01*
X116799Y60027D01*
X116953Y59665D01*
X117029Y59252D01*
Y58839D01*
X116953Y58425D01*
X116799Y58064D01*
X116569Y57754D01*
X116301Y57547D01*
X115994Y57495D01*
G01X116301Y58322D02*
X116761Y57495D01*
G01X117766Y60079D02*
X117996Y60389D01*
X118264Y60544D01*
X118571Y60595D01*
X118954Y60492D01*
X119222Y60234D01*
X119299Y59924D01*
X119261Y59614D01*
X119107Y59355D01*
X118341Y58839D01*
X117996Y58477D01*
X117766Y57960D01*
X117689Y57495D01*
X119299D01*
G01X109479Y72426D02*
Y75526D01*
X110438D01*
X110744Y75371D01*
X110936Y75165D01*
X111013Y74751D01*
X110936Y74338D01*
X110706Y74080D01*
X110438Y73925D01*
X109479D01*
G01X110438D02*
X111013Y72426D01*
G01X113206D02*
Y75526D01*
X111788Y73305D01*
X113705D01*
G01X114518Y73718D02*
X114786Y74080D01*
X115016Y74286D01*
X115323Y74390D01*
X115591Y74286D01*
X115783Y74080D01*
X115936Y73770D01*
X115974Y73408D01*
X115936Y73098D01*
X115783Y72788D01*
X115553Y72530D01*
X115285Y72426D01*
X114978Y72530D01*
X114709Y72840D01*
X114556Y73305D01*
X114518Y73821D01*
X114594Y74493D01*
X114709Y74855D01*
X114901Y75216D01*
X115169Y75475D01*
X115438Y75526D01*
X115706Y75423D01*
X115898Y75165D01*
G01X108970Y131018D02*
Y128796D01*
X109123Y128331D01*
X109430Y128021D01*
X109813Y127918D01*
X110197Y128021D01*
X110503Y128331D01*
X110657Y128796D01*
Y131018D01*
G01X111470Y128383D02*
X111700Y128124D01*
X111968Y127970D01*
X112313Y127918D01*
X112658Y128021D01*
X112927Y128228D01*
X113118Y128589D01*
X113157Y129003D01*
X113080Y129416D01*
X112888Y129674D01*
X112620Y129881D01*
X112352Y129933D01*
X112083Y129881D01*
X111738Y129674D01*
X111853Y131018D01*
X112888D01*
G01X108268Y146962D02*
Y150062D01*
X109227D01*
X109534Y149906D01*
X109725Y149700D01*
X109802Y149286D01*
X109725Y148873D01*
X109495Y148615D01*
X109227Y148460D01*
X108268D01*
G01X109227D02*
X109802Y146962D01*
G01X110807Y149545D02*
X111037Y149855D01*
X111305Y150010D01*
X111612Y150062D01*
X111995Y149958D01*
X112264Y149700D01*
X112340Y149390D01*
X112302Y149080D01*
X112148Y148821D01*
X111382Y148305D01*
X111037Y147943D01*
X110807Y147426D01*
X110730Y146962D01*
X112340D01*
G01X113384Y147323D02*
X113652Y147065D01*
X113958Y146962D01*
X114265Y147065D01*
X114534Y147375D01*
X114725Y147840D01*
X114802Y148305D01*
Y148873D01*
X114725Y149338D01*
X114534Y149752D01*
X114304Y149958D01*
X114035Y150062D01*
X113729Y149958D01*
X113498Y149752D01*
X113345Y149442D01*
X113268Y149028D01*
X113345Y148666D01*
X113537Y148305D01*
X113767Y148098D01*
X114035Y148046D01*
X114342Y148150D01*
X114572Y148408D01*
X114802Y148873D01*
G01X116355Y159435D02*
Y162535D01*
X117313D01*
X117620Y162380D01*
X117811Y162173D01*
X117888Y161760D01*
X117811Y161346D01*
X117581Y161088D01*
X117313Y160933D01*
X116355D01*
G01X117313D02*
X117888Y159435D01*
G01X118893Y162018D02*
X119123Y162328D01*
X119391Y162483D01*
X119698Y162535D01*
X120081Y162431D01*
X120350Y162173D01*
X120426Y161863D01*
X120388Y161553D01*
X120235Y161295D01*
X119468Y160778D01*
X119123Y160416D01*
X118893Y159900D01*
X118816Y159435D01*
X120426D01*
G01X122121D02*
X122390Y159486D01*
X122696Y159641D01*
X122888Y159900D01*
X122965Y160261D01*
X122888Y160623D01*
X122658Y160933D01*
X122313Y161088D01*
X121930D01*
X121700Y161191D01*
X121508Y161450D01*
X121431Y161811D01*
X121546Y162173D01*
X121815Y162431D01*
X122121Y162535D01*
X122428Y162431D01*
X122696Y162173D01*
X122811Y161811D01*
X122735Y161450D01*
X122543Y161191D01*
X122313Y161088D01*
X121930D01*
X121585Y160933D01*
X121355Y160623D01*
X121278Y160261D01*
X121355Y159900D01*
X121546Y159641D01*
X121853Y159486D01*
X122121Y159435D01*
G01X122509Y46058D02*
X122279Y46213D01*
X122011Y46316D01*
X121704D01*
X121359Y46161D01*
X121091Y45903D01*
X120899Y45593D01*
X120746Y45076D01*
X120708Y44611D01*
X120784Y44146D01*
X120899Y43836D01*
X121129Y43526D01*
X121398Y43320D01*
X121666Y43216D01*
X121934D01*
X122203Y43320D01*
X122433Y43475D01*
X122624Y43681D01*
G01X123323D02*
X123553Y43423D01*
X123821Y43268D01*
X124166Y43216D01*
X124511Y43320D01*
X124779Y43526D01*
X124971Y43888D01*
X125009Y44301D01*
X124933Y44715D01*
X124741Y44973D01*
X124473Y45180D01*
X124204Y45231D01*
X123936Y45180D01*
X123591Y44973D01*
X123706Y46316D01*
X124741D01*
G01X127126Y43216D02*
Y46316D01*
X125708Y44095D01*
X127624D01*
G01X122363Y86668D02*
Y89768D01*
X123322D01*
X123628Y89613D01*
X123820Y89407D01*
X123897Y88993D01*
X123820Y88580D01*
X123590Y88322D01*
X123322Y88167D01*
X122363D01*
G01X123322D02*
X123897Y86668D01*
G01X125630D02*
Y89768D01*
X125170Y89149D01*
G01Y86668D02*
X126090D01*
G01X122058Y99248D02*
Y102348D01*
X123016D01*
X123323Y102193D01*
X123515Y101986D01*
X123592Y101573D01*
X123515Y101160D01*
X123285Y100901D01*
X123016Y100746D01*
X122058D01*
G01X123016D02*
X123592Y99248D01*
G01X124596Y101831D02*
X124827Y102141D01*
X125095Y102296D01*
X125402Y102348D01*
X125785Y102245D01*
X126053Y101986D01*
X126130Y101676D01*
X126092Y101366D01*
X125938Y101108D01*
X125171Y100591D01*
X124827Y100230D01*
X124596Y99713D01*
X124520Y99248D01*
X126130D01*
G01X122097Y92889D02*
Y95989D01*
X123056D01*
X123362Y95834D01*
X123554Y95628D01*
X123631Y95214D01*
X123554Y94801D01*
X123324Y94543D01*
X123056Y94388D01*
X122097D01*
G01X123056D02*
X123631Y92889D01*
G01X124521Y93509D02*
X124751Y93148D01*
X125058Y92941D01*
X125403Y92889D01*
X125709Y92941D01*
X126016Y93199D01*
X126208Y93509D01*
X126246Y93819D01*
X126169Y94181D01*
X125901Y94439D01*
X125633Y94543D01*
X125288D01*
G01X125633D02*
X125863Y94698D01*
X126054Y94956D01*
X126131Y95266D01*
X126054Y95576D01*
X125863Y95834D01*
X125518Y95989D01*
X125172Y95938D01*
X124828Y95731D01*
G01X124486Y159435D02*
Y162535D01*
X125444D01*
X125751Y162380D01*
X125943Y162173D01*
X126020Y161760D01*
X125943Y161346D01*
X125713Y161088D01*
X125444Y160933D01*
X124486D01*
G01X125444D02*
X126020Y159435D01*
G01X128213D02*
Y162535D01*
X126794Y160313D01*
X128711D01*
G01X129524Y162018D02*
X129755Y162328D01*
X130023Y162483D01*
X130330Y162535D01*
X130713Y162431D01*
X130981Y162173D01*
X131058Y161863D01*
X131020Y161553D01*
X130866Y161295D01*
X130099Y160778D01*
X129755Y160416D01*
X129524Y159900D01*
X129448Y159435D01*
X131058D01*
G01X129602Y43216D02*
Y46316D01*
X130560D01*
X130867Y46161D01*
X131058Y45955D01*
X131135Y45541D01*
X131058Y45128D01*
X130828Y44870D01*
X130560Y44715D01*
X129602D01*
G01X130560D02*
X131135Y43216D01*
G01X132025Y43836D02*
X132255Y43475D01*
X132562Y43268D01*
X132907Y43216D01*
X133213Y43268D01*
X133520Y43526D01*
X133712Y43836D01*
X133750Y44146D01*
X133673Y44508D01*
X133405Y44766D01*
X133137Y44870D01*
X132792D01*
G01X133137D02*
X133367Y45025D01*
X133558Y45283D01*
X133635Y45593D01*
X133558Y45903D01*
X133367Y46161D01*
X133022Y46316D01*
X132677Y46265D01*
X132332Y46058D01*
G01X135368Y43216D02*
X135637Y43268D01*
X135943Y43423D01*
X136135Y43681D01*
X136212Y44043D01*
X136135Y44405D01*
X135905Y44715D01*
X135560Y44870D01*
X135177D01*
X134947Y44973D01*
X134755Y45231D01*
X134678Y45593D01*
X134793Y45955D01*
X135062Y46213D01*
X135368Y46316D01*
X135675Y46213D01*
X135943Y45955D01*
X136058Y45593D01*
X135982Y45231D01*
X135790Y44973D01*
X135560Y44870D01*
X135177D01*
X134832Y44715D01*
X134602Y44405D01*
X134525Y44043D01*
X134602Y43681D01*
X134793Y43423D01*
X135100Y43268D01*
X135368Y43216D01*
G01X133809Y56289D02*
X133579Y56444D01*
X133310Y56548D01*
X133004D01*
X132659Y56392D01*
X132390Y56134D01*
X132199Y55824D01*
X132045Y55308D01*
X132007Y54843D01*
X132084Y54378D01*
X132199Y54068D01*
X132429Y53758D01*
X132697Y53551D01*
X132965Y53448D01*
X133234D01*
X133502Y53551D01*
X133732Y53706D01*
X133924Y53912D01*
G01X134622D02*
X134852Y53654D01*
X135120Y53499D01*
X135465Y53448D01*
X135810Y53551D01*
X136079Y53758D01*
X136270Y54119D01*
X136309Y54533D01*
X136232Y54946D01*
X136040Y55204D01*
X135772Y55411D01*
X135504Y55462D01*
X135235Y55411D01*
X134890Y55204D01*
X135005Y56548D01*
X136040D01*
G01X137965Y53448D02*
Y56548D01*
X137505Y55928D01*
G01Y53448D02*
X138425D01*
G01X132199Y60131D02*
Y63231D01*
X133157D01*
X133464Y63076D01*
X133655Y62870D01*
X133732Y62456D01*
X133655Y62043D01*
X133425Y61785D01*
X133157Y61629D01*
X132199D01*
G01X133157D02*
X133732Y60131D01*
G01X134622Y60751D02*
X134852Y60389D01*
X135159Y60183D01*
X135504Y60131D01*
X135810Y60183D01*
X136117Y60441D01*
X136309Y60751D01*
X136347Y61061D01*
X136270Y61423D01*
X136002Y61681D01*
X135734Y61785D01*
X135389D01*
G01X135734D02*
X135964Y61940D01*
X136155Y62198D01*
X136232Y62508D01*
X136155Y62818D01*
X135964Y63076D01*
X135619Y63231D01*
X135274Y63180D01*
X134929Y62973D01*
G01X137314Y60493D02*
X137582Y60234D01*
X137889Y60131D01*
X138195Y60234D01*
X138464Y60544D01*
X138655Y61010D01*
X138732Y61474D01*
Y62043D01*
X138655Y62508D01*
X138464Y62921D01*
X138234Y63128D01*
X137965Y63231D01*
X137659Y63128D01*
X137429Y62921D01*
X137275Y62611D01*
X137199Y62198D01*
X137275Y61836D01*
X137467Y61474D01*
X137697Y61268D01*
X137965Y61216D01*
X138272Y61320D01*
X138502Y61578D01*
X138732Y62043D01*
G01X127130Y77399D02*
X126823Y77450D01*
X126555Y77657D01*
X126325Y77967D01*
X126172Y78329D01*
X126095Y78742D01*
Y79156D01*
X126172Y79569D01*
X126325Y79930D01*
X126555Y80240D01*
X126823Y80447D01*
X127130Y80499D01*
X127437Y80447D01*
X127705Y80240D01*
X127935Y79930D01*
X128088Y79569D01*
X128165Y79156D01*
Y78742D01*
X128088Y78329D01*
X127935Y77967D01*
X127705Y77657D01*
X127437Y77450D01*
X127130Y77399D01*
G01X127437Y78226D02*
X127897Y77399D01*
G01X129630D02*
Y80499D01*
X129170Y79879D01*
G01Y77399D02*
X130090D01*
G01X131335Y120705D02*
X131105Y120860D01*
X130837Y120963D01*
X130531D01*
X130185Y120808D01*
X129917Y120550D01*
X129725Y120240D01*
X129572Y119723D01*
X129534Y119258D01*
X129610Y118793D01*
X129725Y118483D01*
X129955Y118173D01*
X130224Y117966D01*
X130492Y117863D01*
X130760D01*
X131029Y117966D01*
X131259Y118121D01*
X131450Y118328D01*
G01X132149Y118483D02*
X132379Y118121D01*
X132685Y117915D01*
X133030Y117863D01*
X133337Y117915D01*
X133644Y118173D01*
X133835Y118483D01*
X133874Y118793D01*
X133797Y119155D01*
X133529Y119413D01*
X133260Y119516D01*
X132915D01*
G01X133260D02*
X133490Y119671D01*
X133682Y119930D01*
X133759Y120240D01*
X133682Y120550D01*
X133490Y120808D01*
X133145Y120963D01*
X132800Y120911D01*
X132455Y120705D01*
G01X135492Y117863D02*
Y120963D01*
X135032Y120343D01*
G01Y117863D02*
X135952D01*
G01X131080Y145205D02*
X130850Y145360D01*
X130582Y145463D01*
X130275D01*
X129930Y145308D01*
X129662Y145050D01*
X129470Y144740D01*
X129317Y144223D01*
X129278Y143758D01*
X129355Y143293D01*
X129470Y142983D01*
X129700Y142673D01*
X129968Y142466D01*
X130237Y142363D01*
X130505D01*
X130773Y142466D01*
X131004Y142621D01*
X131195Y142828D01*
G01X131894Y142983D02*
X132123Y142621D01*
X132430Y142415D01*
X132775Y142363D01*
X133082Y142415D01*
X133388Y142673D01*
X133580Y142983D01*
X133618Y143293D01*
X133542Y143655D01*
X133274Y143913D01*
X133005Y144016D01*
X132660D01*
G01X133005D02*
X133235Y144171D01*
X133427Y144430D01*
X133504Y144740D01*
X133427Y145050D01*
X133235Y145308D01*
X132890Y145463D01*
X132545Y145411D01*
X132200Y145205D01*
G01X134508Y144946D02*
X134738Y145256D01*
X135007Y145411D01*
X135314Y145463D01*
X135697Y145360D01*
X135965Y145101D01*
X136042Y144791D01*
X136004Y144481D01*
X135850Y144223D01*
X135084Y143706D01*
X134738Y143345D01*
X134508Y142828D01*
X134432Y142363D01*
X136042D01*
G01X132757Y159435D02*
Y162535D01*
X133716D01*
X134022Y162380D01*
X134214Y162173D01*
X134291Y161760D01*
X134214Y161346D01*
X133984Y161088D01*
X133716Y160933D01*
X132757D01*
G01X133716D02*
X134291Y159435D01*
G01X136484D02*
Y162535D01*
X135066Y160313D01*
X136982D01*
G01X137681Y160055D02*
X137911Y159693D01*
X138217Y159486D01*
X138562Y159435D01*
X138869Y159486D01*
X139176Y159744D01*
X139367Y160055D01*
X139406Y160365D01*
X139329Y160726D01*
X139061Y160985D01*
X138792Y161088D01*
X138447D01*
G01X138792D02*
X139022Y161243D01*
X139214Y161501D01*
X139291Y161811D01*
X139214Y162121D01*
X139022Y162380D01*
X138677Y162535D01*
X138332Y162483D01*
X137987Y162276D01*
G01X139297Y120705D02*
X139067Y120860D01*
X138798Y120963D01*
X138492D01*
X138147Y120808D01*
X137878Y120550D01*
X137687Y120240D01*
X137533Y119723D01*
X137495Y119258D01*
X137572Y118793D01*
X137687Y118483D01*
X137917Y118173D01*
X138185Y117966D01*
X138453Y117863D01*
X138722D01*
X138990Y117966D01*
X139220Y118121D01*
X139412Y118328D01*
G01X140953Y117863D02*
Y120963D01*
X140493Y120343D01*
G01Y117863D02*
X141413D01*
G01X142610Y118483D02*
X142840Y118121D01*
X143147Y117915D01*
X143492Y117863D01*
X143798Y117915D01*
X144105Y118173D01*
X144297Y118483D01*
X144335Y118793D01*
X144258Y119155D01*
X143990Y119413D01*
X143722Y119516D01*
X143377D01*
G01X143722D02*
X143952Y119671D01*
X144143Y119930D01*
X144220Y120240D01*
X144143Y120550D01*
X143952Y120808D01*
X143607Y120963D01*
X143262Y120911D01*
X142917Y120705D01*
G01X139659Y145205D02*
X139429Y145360D01*
X139161Y145463D01*
X138854D01*
X138509Y145308D01*
X138241Y145050D01*
X138049Y144740D01*
X137896Y144223D01*
X137858Y143758D01*
X137934Y143293D01*
X138049Y142983D01*
X138279Y142673D01*
X138548Y142466D01*
X138816Y142363D01*
X139084D01*
X139353Y142466D01*
X139583Y142621D01*
X139774Y142828D01*
G01X140473D02*
X140703Y142570D01*
X140971Y142415D01*
X141316Y142363D01*
X141661Y142466D01*
X141929Y142673D01*
X142121Y143035D01*
X142159Y143448D01*
X142083Y143861D01*
X141891Y144120D01*
X141623Y144326D01*
X141354Y144378D01*
X141086Y144326D01*
X140741Y144120D01*
X140856Y145463D01*
X141891D01*
G01X143739Y142363D02*
X143816Y143035D01*
X143931Y143603D01*
X144084Y144120D01*
X144276Y144688D01*
X144583Y145463D01*
X143049D01*
G01X140627Y159435D02*
Y162535D01*
X141585D01*
X141892Y162380D01*
X142083Y162173D01*
X142160Y161760D01*
X142083Y161346D01*
X141853Y161088D01*
X141585Y160933D01*
X140627D01*
G01X141585D02*
X142160Y159435D01*
G01X144353D02*
Y162535D01*
X142935Y160313D01*
X144852D01*
G01X146393Y162535D02*
X146087Y162431D01*
X145857Y162173D01*
X145703Y161863D01*
X145588Y161450D01*
X145550Y160985D01*
X145588Y160520D01*
X145703Y160106D01*
X145857Y159796D01*
X146087Y159538D01*
X146393Y159435D01*
X146700Y159538D01*
X146930Y159796D01*
X147083Y160106D01*
X147198Y160520D01*
X147237Y160985D01*
X147198Y161450D01*
X147083Y161863D01*
X146930Y162173D01*
X146700Y162431D01*
X146393Y162535D01*
G01X140605Y206448D02*
Y204227D01*
X140758Y203762D01*
X141064Y203452D01*
X141448Y203348D01*
X141831Y203452D01*
X142138Y203762D01*
X142291Y204227D01*
Y206448D01*
G01X143871Y203348D02*
X143948Y204020D01*
X144063Y204588D01*
X144216Y205105D01*
X144408Y205673D01*
X144714Y206448D01*
X143181D01*
G01X144877Y25428D02*
Y28528D01*
G01X146487D02*
Y25428D01*
G01Y26978D02*
X144877D01*
G01X147530Y25790D02*
X147798Y25532D01*
X148105Y25428D01*
X148412Y25532D01*
X148680Y25842D01*
X148872Y26307D01*
X148949Y26772D01*
Y27340D01*
X148872Y27805D01*
X148680Y28218D01*
X148450Y28425D01*
X148182Y28528D01*
X147875Y28425D01*
X147645Y28218D01*
X147492Y27908D01*
X147415Y27495D01*
X147492Y27133D01*
X147684Y26772D01*
X147914Y26565D01*
X148182Y26513D01*
X148488Y26617D01*
X148719Y26875D01*
X148949Y27340D01*
G01X187965Y25428D02*
Y28528D01*
G01X189575D02*
Y25428D01*
G01Y26978D02*
X187965D01*
G01X191270Y25428D02*
Y28528D01*
X190810Y27908D01*
G01Y25428D02*
X191730D01*
G01X193770Y28528D02*
X193463Y28425D01*
X193233Y28167D01*
X193080Y27857D01*
X192965Y27443D01*
X192926Y26978D01*
X192965Y26513D01*
X193080Y26100D01*
X193233Y25790D01*
X193463Y25532D01*
X193770Y25428D01*
X194076Y25532D01*
X194306Y25790D01*
X194460Y26100D01*
X194575Y26513D01*
X194613Y26978D01*
X194575Y27443D01*
X194460Y27857D01*
X194306Y28167D01*
X194076Y28425D01*
X193770Y28528D01*
G01X185783Y160950D02*
Y158728D01*
X185936Y158263D01*
X186243Y157953D01*
X186626Y157850D01*
X187010Y157953D01*
X187316Y158263D01*
X187470Y158728D01*
Y160950D01*
G01X189126Y157850D02*
X189395Y157901D01*
X189701Y158056D01*
X189893Y158315D01*
X189970Y158676D01*
X189893Y159038D01*
X189663Y159348D01*
X189318Y159503D01*
X188935D01*
X188705Y159606D01*
X188513Y159865D01*
X188436Y160226D01*
X188551Y160588D01*
X188820Y160846D01*
X189126Y160950D01*
X189433Y160846D01*
X189701Y160588D01*
X189816Y160226D01*
X189740Y159865D01*
X189548Y159606D01*
X189318Y159503D01*
X188935D01*
X188590Y159348D01*
X188360Y159038D01*
X188283Y158676D01*
X188360Y158315D01*
X188551Y158056D01*
X188858Y157901D01*
X189126Y157850D01*
G01X197739Y93716D02*
Y91494D01*
X197893Y91029D01*
X198199Y90719D01*
X198583Y90616D01*
X198966Y90719D01*
X199273Y91029D01*
X199426Y91494D01*
Y93716D01*
G01X200239Y91236D02*
X200469Y90874D01*
X200776Y90668D01*
X201121Y90616D01*
X201428Y90668D01*
X201734Y90926D01*
X201926Y91236D01*
X201964Y91546D01*
X201888Y91908D01*
X201619Y92166D01*
X201351Y92270D01*
X201006D01*
G01X201351D02*
X201581Y92424D01*
X201773Y92683D01*
X201849Y92993D01*
X201773Y93303D01*
X201581Y93561D01*
X201236Y93716D01*
X200891Y93664D01*
X200546Y93458D01*
G01X219716Y43650D02*
X219486Y43806D01*
X219217Y43909D01*
X218911D01*
X218566Y43754D01*
X218297Y43496D01*
X218105Y43186D01*
X217952Y42669D01*
X217914Y42204D01*
X217991Y41739D01*
X218105Y41429D01*
X218336Y41119D01*
X218604Y40912D01*
X218872Y40809D01*
X219140D01*
X219409Y40912D01*
X219639Y41067D01*
X219831Y41274D01*
G01X221372Y40809D02*
Y43909D01*
X220912Y43289D01*
G01Y40809D02*
X221832D01*
G01X224332D02*
Y43909D01*
X222914Y41687D01*
X224831D01*
G01X231054Y43650D02*
X230824Y43806D01*
X230556Y43909D01*
X230249D01*
X229904Y43754D01*
X229636Y43496D01*
X229444Y43186D01*
X229291Y42669D01*
X229252Y42204D01*
X229329Y41739D01*
X229444Y41429D01*
X229674Y41119D01*
X229943Y40912D01*
X230211Y40809D01*
X230479D01*
X230748Y40912D01*
X230978Y41067D01*
X231169Y41274D01*
G01X231982Y43392D02*
X232213Y43702D01*
X232481Y43857D01*
X232788Y43909D01*
X233171Y43806D01*
X233439Y43547D01*
X233516Y43237D01*
X233478Y42927D01*
X233324Y42669D01*
X232557Y42152D01*
X232213Y41790D01*
X231982Y41274D01*
X231906Y40809D01*
X233516D01*
G01X234482Y42100D02*
X234751Y42462D01*
X234981Y42669D01*
X235288Y42772D01*
X235556Y42669D01*
X235748Y42462D01*
X235901Y42152D01*
X235939Y41790D01*
X235901Y41480D01*
X235748Y41170D01*
X235517Y40912D01*
X235249Y40809D01*
X234942Y40912D01*
X234674Y41222D01*
X234521Y41687D01*
X234482Y42204D01*
X234559Y42876D01*
X234674Y43237D01*
X234866Y43599D01*
X235134Y43857D01*
X235402Y43909D01*
X235671Y43806D01*
X235862Y43547D01*
G01X243260Y25428D02*
Y28528D01*
G01X244870D02*
Y25428D01*
G01Y26978D02*
X243260D01*
G01X247025Y25428D02*
Y28528D01*
X245607Y26307D01*
X247523D01*
G01X242393Y43651D02*
X242163Y43806D01*
X241894Y43909D01*
X241588D01*
X241243Y43754D01*
X240974Y43496D01*
X240783Y43186D01*
X240629Y42669D01*
X240591Y42204D01*
X240668Y41739D01*
X240783Y41429D01*
X241013Y41119D01*
X241281Y40912D01*
X241549Y40809D01*
X241818D01*
X242086Y40912D01*
X242316Y41067D01*
X242508Y41274D01*
G01X243321Y43392D02*
X243551Y43702D01*
X243819Y43857D01*
X244126Y43909D01*
X244509Y43806D01*
X244778Y43547D01*
X244854Y43237D01*
X244816Y42927D01*
X244663Y42669D01*
X243896Y42152D01*
X243551Y41791D01*
X243321Y41274D01*
X243244Y40809D01*
X244854D01*
G01X246473D02*
X246549Y41481D01*
X246664Y42049D01*
X246818Y42566D01*
X247009Y43134D01*
X247316Y43909D01*
X245783D01*
G01X253731Y43650D02*
X253501Y43806D01*
X253233Y43909D01*
X252926D01*
X252581Y43754D01*
X252313Y43496D01*
X252121Y43186D01*
X251968Y42669D01*
X251930Y42204D01*
X252006Y41739D01*
X252121Y41429D01*
X252351Y41119D01*
X252620Y40912D01*
X252888Y40809D01*
X253156D01*
X253425Y40912D01*
X253655Y41067D01*
X253846Y41274D01*
G01X254660Y43392D02*
X254890Y43702D01*
X255158Y43857D01*
X255465Y43909D01*
X255848Y43806D01*
X256116Y43547D01*
X256193Y43237D01*
X256155Y42927D01*
X256001Y42669D01*
X255235Y42152D01*
X254890Y41790D01*
X254660Y41274D01*
X254583Y40809D01*
X256193D01*
G01X257888D02*
X258156Y40861D01*
X258463Y41016D01*
X258655Y41274D01*
X258731Y41636D01*
X258655Y41997D01*
X258425Y42307D01*
X258080Y42462D01*
X257696D01*
X257466Y42566D01*
X257275Y42824D01*
X257198Y43186D01*
X257313Y43547D01*
X257581Y43806D01*
X257888Y43909D01*
X258195Y43806D01*
X258463Y43547D01*
X258578Y43186D01*
X258501Y42824D01*
X258310Y42566D01*
X258080Y42462D01*
X257696D01*
X257351Y42307D01*
X257121Y41997D01*
X257045Y41636D01*
X257121Y41274D01*
X257313Y41016D01*
X257620Y40861D01*
X257888Y40809D01*
G01X252108Y110322D02*
Y113422D01*
X253066D01*
X253373Y113267D01*
X253565Y113061D01*
X253642Y112647D01*
X253565Y112234D01*
X253335Y111976D01*
X253066Y111821D01*
X252108D01*
G01X253066D02*
X253642Y110322D01*
G01X255375D02*
Y113422D01*
X254915Y112802D01*
G01Y110322D02*
X255835D01*
G01X257032Y110787D02*
X257261Y110529D01*
X257530Y110374D01*
X257875Y110322D01*
X258220Y110426D01*
X258488Y110632D01*
X258680Y110994D01*
X258718Y111407D01*
X258642Y111821D01*
X258450Y112079D01*
X258181Y112286D01*
X257913Y112337D01*
X257645Y112286D01*
X257300Y112079D01*
X257415Y113422D01*
X258450D01*
G01X265070Y43650D02*
X264840Y43806D01*
X264572Y43909D01*
X264265D01*
X263920Y43754D01*
X263652Y43496D01*
X263460Y43186D01*
X263307Y42669D01*
X263268Y42204D01*
X263345Y41739D01*
X263460Y41429D01*
X263690Y41119D01*
X263958Y40912D01*
X264227Y40809D01*
X264495D01*
X264763Y40912D01*
X264993Y41067D01*
X265185Y41274D01*
G01X265998Y43392D02*
X266228Y43702D01*
X266497Y43857D01*
X266803Y43909D01*
X267187Y43806D01*
X267455Y43547D01*
X267532Y43237D01*
X267493Y42927D01*
X267340Y42669D01*
X266573Y42152D01*
X266228Y41790D01*
X265998Y41274D01*
X265922Y40809D01*
X267532D01*
G01X268575Y41170D02*
X268843Y40912D01*
X269150Y40809D01*
X269457Y40912D01*
X269725Y41222D01*
X269917Y41687D01*
X269993Y42152D01*
Y42720D01*
X269917Y43186D01*
X269725Y43599D01*
X269495Y43806D01*
X269227Y43909D01*
X268920Y43806D01*
X268690Y43599D01*
X268537Y43289D01*
X268460Y42876D01*
X268537Y42514D01*
X268728Y42152D01*
X268958Y41946D01*
X269227Y41894D01*
X269533Y41997D01*
X269763Y42256D01*
X269993Y42720D01*
G01X263472Y125388D02*
X263242Y125544D01*
X262974Y125647D01*
X262667D01*
X262322Y125492D01*
X262054Y125234D01*
X261862Y124923D01*
X261709Y124407D01*
X261670Y123942D01*
X261747Y123477D01*
X261862Y123167D01*
X262092Y122857D01*
X262360Y122650D01*
X262629Y122547D01*
X262897D01*
X263165Y122650D01*
X263395Y122805D01*
X263587Y123012D01*
G01X265129Y122547D02*
Y125647D01*
X264669Y125027D01*
G01Y122547D02*
X265589D01*
G01X266900Y123838D02*
X267169Y124200D01*
X267399Y124407D01*
X267705Y124510D01*
X267974Y124407D01*
X268165Y124200D01*
X268319Y123890D01*
X268357Y123529D01*
X268319Y123218D01*
X268165Y122908D01*
X267935Y122650D01*
X267667Y122547D01*
X267360Y122650D01*
X267092Y122960D01*
X266939Y123425D01*
X266900Y123942D01*
X266977Y124614D01*
X267092Y124975D01*
X267284Y125337D01*
X267552Y125595D01*
X267820Y125647D01*
X268089Y125544D01*
X268280Y125285D01*
G01X272301Y92898D02*
X272071Y93053D01*
X271803Y93157D01*
X271496D01*
X271151Y93002D01*
X270882Y92743D01*
X270691Y92433D01*
X270538Y91917D01*
X270499Y91452D01*
X270576Y90987D01*
X270691Y90677D01*
X270921Y90367D01*
X271189Y90160D01*
X271458Y90057D01*
X271726D01*
X271994Y90160D01*
X272224Y90315D01*
X272416Y90522D01*
G01X273958Y90057D02*
Y93157D01*
X273498Y92537D01*
G01Y90057D02*
X274417D01*
G01X275614Y90522D02*
X275844Y90263D01*
X276112Y90108D01*
X276458Y90057D01*
X276802Y90160D01*
X277071Y90367D01*
X277262Y90728D01*
X277301Y91142D01*
X277224Y91555D01*
X277032Y91813D01*
X276764Y92020D01*
X276496Y92072D01*
X276228Y92020D01*
X275882Y91813D01*
X275998Y93157D01*
X277032D01*
G01X267334Y104220D02*
X267027Y104272D01*
X266758Y104478D01*
X266528Y104788D01*
X266375Y105150D01*
X266299Y105563D01*
Y105977D01*
X266375Y106390D01*
X266528Y106752D01*
X266758Y107062D01*
X267027Y107268D01*
X267334Y107320D01*
X267640Y107268D01*
X267908Y107062D01*
X268138Y106752D01*
X268292Y106390D01*
X268368Y105977D01*
Y105563D01*
X268292Y105150D01*
X268138Y104788D01*
X267908Y104478D01*
X267640Y104272D01*
X267334Y104220D01*
G01X269834D02*
Y107320D01*
X269374Y106700D01*
G01Y104220D02*
X270293D01*
G01X282687Y47698D02*
X282457Y47853D01*
X282189Y47957D01*
X281882D01*
X281537Y47802D01*
X281269Y47543D01*
X281077Y47233D01*
X280924Y46717D01*
X280885Y46252D01*
X280962Y45787D01*
X281077Y45477D01*
X281307Y45167D01*
X281576Y44960D01*
X281844Y44857D01*
X282112D01*
X282380Y44960D01*
X282610Y45115D01*
X282802Y45322D01*
G01X284804Y44857D02*
Y47957D01*
X283385Y45735D01*
X285302D01*
G01X286844Y47957D02*
X286537Y47853D01*
X286307Y47595D01*
X286154Y47285D01*
X286039Y46872D01*
X286000Y46407D01*
X286039Y45942D01*
X286154Y45528D01*
X286307Y45218D01*
X286537Y44960D01*
X286844Y44857D01*
X287150Y44960D01*
X287380Y45218D01*
X287534Y45528D01*
X287649Y45942D01*
X287687Y46407D01*
X287649Y46872D01*
X287534Y47285D01*
X287380Y47595D01*
X287150Y47853D01*
X286844Y47957D01*
G01X290539Y62552D02*
X290309Y62708D01*
X290041Y62811D01*
X289734D01*
X289389Y62656D01*
X289121Y62398D01*
X288929Y62088D01*
X288776Y61571D01*
X288737Y61106D01*
X288814Y60641D01*
X288929Y60331D01*
X289159Y60021D01*
X289427Y59814D01*
X289696Y59711D01*
X289964D01*
X290232Y59814D01*
X290462Y59969D01*
X290654Y60176D01*
G01X291467Y62294D02*
X291697Y62604D01*
X291966Y62759D01*
X292272Y62811D01*
X292656Y62708D01*
X292924Y62449D01*
X293001Y62139D01*
X292962Y61829D01*
X292809Y61571D01*
X292042Y61054D01*
X291697Y60692D01*
X291467Y60176D01*
X291391Y59711D01*
X293001D01*
G01X294696D02*
Y62811D01*
X294236Y62191D01*
G01Y59711D02*
X295156D01*
G01X290539Y70152D02*
X290309Y70307D01*
X290041Y70411D01*
X289734D01*
X289389Y70256D01*
X289121Y69997D01*
X288929Y69687D01*
X288776Y69171D01*
X288737Y68706D01*
X288814Y68241D01*
X288929Y67931D01*
X289159Y67621D01*
X289427Y67414D01*
X289696Y67311D01*
X289964D01*
X290232Y67414D01*
X290462Y67569D01*
X290654Y67776D01*
G01X291467Y69894D02*
X291697Y70204D01*
X291966Y70359D01*
X292272Y70411D01*
X292656Y70307D01*
X292924Y70049D01*
X293001Y69739D01*
X292962Y69429D01*
X292809Y69171D01*
X292042Y68654D01*
X291697Y68292D01*
X291467Y67776D01*
X291391Y67311D01*
X293001D01*
G01X294696Y70411D02*
X294389Y70307D01*
X294159Y70049D01*
X294006Y69739D01*
X293891Y69326D01*
X293852Y68861D01*
X293891Y68396D01*
X294006Y67982D01*
X294159Y67672D01*
X294389Y67414D01*
X294696Y67311D01*
X295002Y67414D01*
X295232Y67672D01*
X295386Y67982D01*
X295501Y68396D01*
X295539Y68861D01*
X295501Y69326D01*
X295386Y69739D01*
X295232Y70049D01*
X295002Y70307D01*
X294696Y70411D01*
G01X290539Y77957D02*
X290309Y78112D01*
X290041Y78216D01*
X289734D01*
X289389Y78061D01*
X289121Y77802D01*
X288929Y77492D01*
X288776Y76976D01*
X288737Y76511D01*
X288814Y76046D01*
X288929Y75736D01*
X289159Y75426D01*
X289427Y75219D01*
X289696Y75116D01*
X289964D01*
X290232Y75219D01*
X290462Y75374D01*
X290654Y75581D01*
G01X292196Y75116D02*
Y78216D01*
X291736Y77596D01*
G01Y75116D02*
X292656D01*
G01X294044Y75477D02*
X294312Y75219D01*
X294619Y75116D01*
X294926Y75219D01*
X295194Y75529D01*
X295386Y75994D01*
X295462Y76459D01*
Y77027D01*
X295386Y77492D01*
X295194Y77906D01*
X294964Y78112D01*
X294696Y78216D01*
X294389Y78112D01*
X294159Y77906D01*
X294006Y77596D01*
X293929Y77182D01*
X294006Y76821D01*
X294197Y76459D01*
X294427Y76252D01*
X294696Y76201D01*
X295002Y76304D01*
X295232Y76562D01*
X295462Y77027D01*
G01X288929Y82065D02*
Y85165D01*
X289887D01*
X290194Y85010D01*
X290386Y84803D01*
X290462Y84390D01*
X290386Y83976D01*
X290156Y83718D01*
X289887Y83563D01*
X288929D01*
G01X289887D02*
X290462Y82065D01*
G01X292196D02*
Y85165D01*
X291736Y84545D01*
G01Y82065D02*
X292656D01*
G01X294696D02*
X294964Y82116D01*
X295271Y82271D01*
X295462Y82530D01*
X295539Y82891D01*
X295462Y83253D01*
X295232Y83563D01*
X294887Y83718D01*
X294504D01*
X294274Y83821D01*
X294082Y84080D01*
X294006Y84441D01*
X294121Y84803D01*
X294389Y85061D01*
X294696Y85165D01*
X295002Y85061D01*
X295271Y84803D01*
X295386Y84441D01*
X295309Y84080D01*
X295117Y83821D01*
X294887Y83718D01*
X294504D01*
X294159Y83563D01*
X293929Y83253D01*
X293852Y82891D01*
X293929Y82530D01*
X294121Y82271D01*
X294427Y82116D01*
X294696Y82065D01*
G01X293051Y47698D02*
X292821Y47853D01*
X292553Y47957D01*
X292246D01*
X291901Y47802D01*
X291633Y47543D01*
X291441Y47233D01*
X291288Y46717D01*
X291250Y46252D01*
X291326Y45787D01*
X291441Y45477D01*
X291671Y45167D01*
X291940Y44960D01*
X292208Y44857D01*
X292476D01*
X292745Y44960D01*
X292975Y45115D01*
X293166Y45322D01*
G01X295168Y44857D02*
Y47957D01*
X293750Y45735D01*
X295666D01*
G01X297208Y44857D02*
Y47957D01*
X296748Y47337D01*
G01Y44857D02*
X297668D01*
G01X301092Y45049D02*
Y48149D01*
X302050D01*
X302357Y47994D01*
X302549Y47787D01*
X302625Y47374D01*
X302549Y46961D01*
X302319Y46702D01*
X302050Y46547D01*
X301092D01*
G01X302050D02*
X302625Y45049D01*
G01X303515Y45669D02*
X303745Y45307D01*
X304052Y45101D01*
X304397Y45049D01*
X304704Y45101D01*
X305010Y45359D01*
X305202Y45669D01*
X305240Y45979D01*
X305164Y46341D01*
X304895Y46599D01*
X304627Y46702D01*
X304282D01*
G01X304627D02*
X304857Y46857D01*
X305049Y47116D01*
X305125Y47426D01*
X305049Y47736D01*
X304857Y47994D01*
X304512Y48149D01*
X304167Y48097D01*
X303822Y47891D01*
G01X307319Y45049D02*
Y48149D01*
X305900Y45927D01*
X307817D01*
G01X298209Y97024D02*
Y100124D01*
X299167D01*
X299474Y99969D01*
X299666Y99763D01*
X299742Y99349D01*
X299666Y98936D01*
X299436Y98678D01*
X299167Y98523D01*
X298209D01*
G01X299167D02*
X299742Y97024D01*
G01X301476D02*
Y100124D01*
X301016Y99504D01*
G01Y97024D02*
X301935D01*
G01X303976D02*
Y100124D01*
X303516Y99504D01*
G01Y97024D02*
X304435D01*
G01X301326Y106191D02*
X301096Y106346D01*
X300828Y106449D01*
X300521D01*
X300176Y106294D01*
X299908Y106036D01*
X299716Y105726D01*
X299563Y105209D01*
X299524Y104744D01*
X299601Y104279D01*
X299716Y103969D01*
X299946Y103659D01*
X300214Y103452D01*
X300483Y103349D01*
X300751D01*
X301019Y103452D01*
X301249Y103607D01*
X301441Y103814D01*
G01X302331Y103711D02*
X302599Y103452D01*
X302906Y103349D01*
X303213Y103452D01*
X303481Y103762D01*
X303673Y104227D01*
X303749Y104692D01*
Y105261D01*
X303673Y105726D01*
X303481Y106139D01*
X303251Y106346D01*
X302983Y106449D01*
X302676Y106346D01*
X302446Y106139D01*
X302293Y105829D01*
X302216Y105416D01*
X302293Y105054D01*
X302484Y104692D01*
X302714Y104486D01*
X302983Y104434D01*
X303289Y104537D01*
X303519Y104796D01*
X303749Y105261D01*
G01X307177Y25428D02*
Y28528D01*
G01X308787D02*
Y25428D01*
G01Y26978D02*
X307177D01*
G01X309639Y25893D02*
X309869Y25635D01*
X310137Y25480D01*
X310482Y25428D01*
X310827Y25532D01*
X311096Y25738D01*
X311287Y26100D01*
X311326Y26513D01*
X311249Y26927D01*
X311057Y27185D01*
X310789Y27392D01*
X310521Y27443D01*
X310252Y27392D01*
X309907Y27185D01*
X310022Y28528D01*
X311057D01*
G01X312963Y47698D02*
X312733Y47853D01*
X312464Y47957D01*
X312158D01*
X311813Y47802D01*
X311544Y47543D01*
X311353Y47233D01*
X311199Y46717D01*
X311161Y46252D01*
X311238Y45787D01*
X311353Y45477D01*
X311583Y45167D01*
X311851Y44960D01*
X312119Y44857D01*
X312388D01*
X312656Y44960D01*
X312886Y45115D01*
X313078Y45322D01*
G01X315079Y44857D02*
Y47957D01*
X313661Y45735D01*
X315578D01*
G01X317043Y44857D02*
X317119Y45528D01*
X317234Y46097D01*
X317388Y46613D01*
X317579Y47182D01*
X317886Y47957D01*
X316353D01*
G01X309484Y62414D02*
X309254Y62569D01*
X308985Y62673D01*
X308679D01*
X308334Y62517D01*
X308065Y62259D01*
X307874Y61949D01*
X307720Y61433D01*
X307682Y60968D01*
X307758Y60503D01*
X307874Y60193D01*
X308104Y59883D01*
X308372Y59676D01*
X308640Y59573D01*
X308909D01*
X309177Y59676D01*
X309407Y59831D01*
X309599Y60038D01*
G01X310412Y62156D02*
X310642Y62466D01*
X310910Y62621D01*
X311217Y62673D01*
X311600Y62569D01*
X311869Y62311D01*
X311945Y62001D01*
X311907Y61691D01*
X311754Y61433D01*
X310987Y60916D01*
X310642Y60554D01*
X310412Y60038D01*
X310335Y59573D01*
X311945D01*
G01X312797Y60038D02*
X313027Y59779D01*
X313295Y59624D01*
X313640Y59573D01*
X313985Y59676D01*
X314254Y59883D01*
X314445Y60244D01*
X314484Y60658D01*
X314407Y61071D01*
X314215Y61329D01*
X313947Y61536D01*
X313679Y61588D01*
X313410Y61536D01*
X313065Y61329D01*
X313180Y62673D01*
X314215D01*
G01X309650Y69313D02*
X309420Y69468D01*
X309152Y69572D01*
X308845D01*
X308500Y69417D01*
X308232Y69158D01*
X308040Y68848D01*
X307887Y68332D01*
X307848Y67867D01*
X307925Y67402D01*
X308040Y67092D01*
X308270Y66782D01*
X308539Y66575D01*
X308807Y66472D01*
X309075D01*
X309344Y66575D01*
X309574Y66730D01*
X309765Y66937D01*
G01X310578Y69055D02*
X310808Y69365D01*
X311077Y69520D01*
X311384Y69572D01*
X311767Y69468D01*
X312035Y69210D01*
X312112Y68900D01*
X312074Y68590D01*
X311920Y68332D01*
X311154Y67815D01*
X310808Y67453D01*
X310578Y66937D01*
X310502Y66472D01*
X312112D01*
G01X313078Y69055D02*
X313308Y69365D01*
X313577Y69520D01*
X313884Y69572D01*
X314267Y69468D01*
X314535Y69210D01*
X314612Y68900D01*
X314574Y68590D01*
X314420Y68332D01*
X313654Y67815D01*
X313308Y67453D01*
X313078Y66937D01*
X313002Y66472D01*
X314612D01*
G01X307648Y73018D02*
Y76118D01*
X308606D01*
X308913Y75963D01*
X309105Y75756D01*
X309182Y75343D01*
X309105Y74930D01*
X308875Y74672D01*
X308606Y74516D01*
X307648D01*
G01X308606D02*
X309182Y73018D01*
G01X310915D02*
Y76118D01*
X310455Y75498D01*
G01Y73018D02*
X311375D01*
G01X313875D02*
Y76118D01*
X312456Y73897D01*
X314373D01*
G01X309258Y82965D02*
X309028Y83120D01*
X308760Y83223D01*
X308453D01*
X308108Y83068D01*
X307840Y82810D01*
X307648Y82500D01*
X307495Y81983D01*
X307456Y81518D01*
X307533Y81053D01*
X307648Y80743D01*
X307878Y80433D01*
X308146Y80226D01*
X308415Y80123D01*
X308683D01*
X308952Y80226D01*
X309182Y80382D01*
X309373Y80588D01*
G01X310915Y80123D02*
Y83223D01*
X310455Y82603D01*
G01Y80123D02*
X311375D01*
G01X313338D02*
X313415Y80795D01*
X313530Y81363D01*
X313683Y81880D01*
X313875Y82448D01*
X314182Y83223D01*
X312648D01*
G01X312769Y121292D02*
Y119070D01*
X312922Y118605D01*
X313229Y118295D01*
X313612Y118192D01*
X313996Y118295D01*
X314302Y118605D01*
X314456Y119070D01*
Y121292D01*
G01X315384Y120775D02*
X315614Y121085D01*
X315882Y121240D01*
X316189Y121292D01*
X316572Y121189D01*
X316841Y120930D01*
X316917Y120620D01*
X316879Y120310D01*
X316726Y120052D01*
X315959Y119535D01*
X315614Y119174D01*
X315384Y118657D01*
X315307Y118192D01*
X316917D01*
G01X322786Y47698D02*
X322556Y47853D01*
X322287Y47957D01*
X321981D01*
X321636Y47802D01*
X321367Y47543D01*
X321176Y47233D01*
X321022Y46717D01*
X320984Y46252D01*
X321060Y45787D01*
X321176Y45477D01*
X321406Y45167D01*
X321674Y44960D01*
X321942Y44857D01*
X322210D01*
X322479Y44960D01*
X322709Y45115D01*
X322901Y45322D01*
G01X324902Y44857D02*
Y47957D01*
X323484Y45735D01*
X325401D01*
G01X326214Y47440D02*
X326444Y47750D01*
X326712Y47905D01*
X327019Y47957D01*
X327402Y47853D01*
X327671Y47595D01*
X327747Y47285D01*
X327709Y46975D01*
X327556Y46717D01*
X326789Y46200D01*
X326444Y45838D01*
X326214Y45322D01*
X326137Y44857D01*
X327747D01*
G01X316382Y149258D02*
X316152Y149413D01*
X315883Y149516D01*
X315577D01*
X315232Y149361D01*
X314963Y149103D01*
X314772Y148793D01*
X314618Y148276D01*
X314580Y147811D01*
X314657Y147346D01*
X314772Y147036D01*
X315002Y146726D01*
X315270Y146520D01*
X315538Y146416D01*
X315807D01*
X316075Y146520D01*
X316305Y146675D01*
X316497Y146881D01*
G01X318038Y146416D02*
X318307Y146468D01*
X318613Y146623D01*
X318805Y146881D01*
X318882Y147243D01*
X318805Y147605D01*
X318575Y147915D01*
X318230Y148070D01*
X317847D01*
X317617Y148173D01*
X317425Y148431D01*
X317348Y148793D01*
X317463Y149155D01*
X317732Y149413D01*
X318038Y149516D01*
X318345Y149413D01*
X318613Y149155D01*
X318728Y148793D01*
X318652Y148431D01*
X318460Y148173D01*
X318230Y148070D01*
X317847D01*
X317502Y147915D01*
X317272Y147605D01*
X317195Y147243D01*
X317272Y146881D01*
X317463Y146623D01*
X317770Y146468D01*
X318038Y146416D01*
G01X328662Y62346D02*
X328432Y62501D01*
X328164Y62604D01*
X327857D01*
X327512Y62449D01*
X327244Y62191D01*
X327052Y61881D01*
X326899Y61364D01*
X326860Y60899D01*
X326937Y60434D01*
X327052Y60124D01*
X327282Y59814D01*
X327551Y59607D01*
X327819Y59504D01*
X328087D01*
X328356Y59607D01*
X328586Y59762D01*
X328777Y59969D01*
G01X329590Y62087D02*
X329820Y62397D01*
X330089Y62552D01*
X330396Y62604D01*
X330779Y62501D01*
X331047Y62242D01*
X331124Y61932D01*
X331086Y61622D01*
X330932Y61364D01*
X330166Y60847D01*
X329820Y60486D01*
X329590Y59969D01*
X329514Y59504D01*
X331124D01*
G01X331976Y60124D02*
X332205Y59762D01*
X332512Y59556D01*
X332857Y59504D01*
X333164Y59556D01*
X333470Y59814D01*
X333662Y60124D01*
X333700Y60434D01*
X333624Y60796D01*
X333356Y61054D01*
X333087Y61157D01*
X332742D01*
G01X333087D02*
X333317Y61312D01*
X333509Y61571D01*
X333586Y61881D01*
X333509Y62191D01*
X333317Y62449D01*
X332972Y62604D01*
X332627Y62552D01*
X332282Y62346D01*
G01X328792Y70640D02*
Y67540D01*
X330326D01*
G01X332059D02*
Y70640D01*
X331599Y70020D01*
G01Y67540D02*
X332519D01*
G01X330054Y77506D02*
X329824Y77661D01*
X329555Y77765D01*
X329249D01*
X328904Y77610D01*
X328635Y77351D01*
X328444Y77041D01*
X328290Y76525D01*
X328252Y76060D01*
X328329Y75595D01*
X328444Y75285D01*
X328674Y74974D01*
X328942Y74768D01*
X329210Y74665D01*
X329479D01*
X329747Y74768D01*
X329977Y74923D01*
X330169Y75130D01*
G01X331710Y74665D02*
Y77765D01*
X331250Y77145D01*
G01Y74665D02*
X332170D01*
G01X334210D02*
Y77765D01*
X333750Y77145D01*
G01Y74665D02*
X334670D01*
G01X328770Y83897D02*
X328540Y84052D01*
X328272Y84155D01*
X327965D01*
X327620Y84000D01*
X327352Y83742D01*
X327160Y83432D01*
X327007Y82915D01*
X326968Y82450D01*
X327045Y81985D01*
X327160Y81675D01*
X327390Y81365D01*
X327658Y81159D01*
X327927Y81055D01*
X328195D01*
X328463Y81159D01*
X328693Y81314D01*
X328885Y81520D01*
G01X330427Y81055D02*
Y84155D01*
X329967Y83535D01*
G01Y81055D02*
X330886D01*
G01X332198Y83639D02*
X332428Y83949D01*
X332697Y84104D01*
X333003Y84155D01*
X333387Y84052D01*
X333655Y83794D01*
X333732Y83484D01*
X333693Y83174D01*
X333540Y82915D01*
X332773Y82399D01*
X332428Y82037D01*
X332198Y81520D01*
X332122Y81055D01*
X333732D01*
G01X327547Y96646D02*
Y99746D01*
X328506D01*
X328812Y99591D01*
X329004Y99385D01*
X329081Y98971D01*
X329004Y98558D01*
X328774Y98300D01*
X328506Y98145D01*
X327547D01*
G01X328506D02*
X329081Y96646D01*
G01X330814D02*
Y99746D01*
X330354Y99126D01*
G01Y96646D02*
X331274D01*
G01X332471Y97266D02*
X332701Y96905D01*
X333007Y96698D01*
X333353Y96646D01*
X333659Y96698D01*
X333966Y96956D01*
X334157Y97266D01*
X334196Y97576D01*
X334119Y97938D01*
X333851Y98196D01*
X333582Y98300D01*
X333237D01*
G01X333582D02*
X333812Y98455D01*
X334004Y98713D01*
X334081Y99023D01*
X334004Y99333D01*
X333812Y99591D01*
X333467Y99746D01*
X333122Y99695D01*
X332777Y99488D01*
G01X329152Y106063D02*
X328922Y106218D01*
X328654Y106322D01*
X328347D01*
X328002Y106167D01*
X327734Y105908D01*
X327542Y105598D01*
X327389Y105082D01*
X327350Y104617D01*
X327427Y104152D01*
X327542Y103842D01*
X327772Y103532D01*
X328041Y103325D01*
X328309Y103222D01*
X328577D01*
X328846Y103325D01*
X329076Y103480D01*
X329267Y103687D01*
G01X330809Y103222D02*
Y106322D01*
X330349Y105702D01*
G01Y103222D02*
X331269D01*
G01X333309Y106322D02*
X333002Y106218D01*
X332772Y105960D01*
X332619Y105650D01*
X332504Y105237D01*
X332466Y104772D01*
X332504Y104307D01*
X332619Y103893D01*
X332772Y103583D01*
X333002Y103325D01*
X333309Y103222D01*
X333615Y103325D01*
X333846Y103583D01*
X333999Y103893D01*
X334114Y104307D01*
X334152Y104772D01*
X334114Y105237D01*
X333999Y105650D01*
X333846Y105960D01*
X333615Y106218D01*
X333309Y106322D01*
G01X332598Y47698D02*
X332368Y47853D01*
X332100Y47957D01*
X331794D01*
X331449Y47802D01*
X331180Y47543D01*
X330989Y47233D01*
X330835Y46717D01*
X330797Y46252D01*
X330874Y45787D01*
X330989Y45477D01*
X331218Y45167D01*
X331487Y44960D01*
X331755Y44857D01*
X332024D01*
X332292Y44960D01*
X332522Y45115D01*
X332714Y45322D01*
G01X334715Y44857D02*
Y47957D01*
X333297Y45735D01*
X335214D01*
G01X335912Y45477D02*
X336142Y45115D01*
X336448Y44908D01*
X336794Y44857D01*
X337100Y44908D01*
X337407Y45167D01*
X337598Y45477D01*
X337637Y45787D01*
X337560Y46148D01*
X337292Y46407D01*
X337024Y46510D01*
X336678D01*
G01X337024D02*
X337254Y46665D01*
X337445Y46923D01*
X337522Y47233D01*
X337445Y47543D01*
X337254Y47802D01*
X336908Y47957D01*
X336564Y47905D01*
X336218Y47698D01*
G01X336000Y82769D02*
Y85869D01*
X336958D01*
X337264Y85714D01*
X337456Y85508D01*
X337533Y85094D01*
X337456Y84681D01*
X337226Y84423D01*
X336958Y84268D01*
X336000D01*
G01X336958D02*
X337533Y82769D01*
G01X339726D02*
Y85869D01*
X338308Y83648D01*
X340225D01*
G01X340923Y83234D02*
X341153Y82976D01*
X341421Y82821D01*
X341766Y82769D01*
X342111Y82872D01*
X342380Y83079D01*
X342571Y83441D01*
X342609Y83854D01*
X342533Y84268D01*
X342341Y84526D01*
X342073Y84733D01*
X341805Y84784D01*
X341536Y84733D01*
X341191Y84526D01*
X341306Y85869D01*
X342341D01*
G01X335584Y141154D02*
X335354Y141309D01*
X335086Y141412D01*
X334779D01*
X334434Y141257D01*
X334166Y140999D01*
X333974Y140689D01*
X333821Y140172D01*
X333783Y139707D01*
X333859Y139242D01*
X333974Y138932D01*
X334204Y138622D01*
X334473Y138415D01*
X334741Y138312D01*
X335009D01*
X335278Y138415D01*
X335508Y138570D01*
X335699Y138777D01*
G01X336513Y139604D02*
X336781Y139966D01*
X337011Y140172D01*
X337318Y140275D01*
X337586Y140172D01*
X337778Y139966D01*
X337931Y139655D01*
X337969Y139294D01*
X337931Y138984D01*
X337778Y138674D01*
X337548Y138415D01*
X337279Y138312D01*
X336973Y138415D01*
X336704Y138725D01*
X336551Y139190D01*
X336513Y139707D01*
X336589Y140379D01*
X336704Y140740D01*
X336896Y141102D01*
X337164Y141360D01*
X337433Y141412D01*
X337701Y141309D01*
X337893Y141050D01*
G01X340811Y44857D02*
Y47957D01*
X341770D01*
X342076Y47802D01*
X342268Y47595D01*
X342345Y47182D01*
X342268Y46768D01*
X342038Y46510D01*
X341770Y46355D01*
X340811D01*
G01X341770D02*
X342345Y44857D01*
G01X343235Y45477D02*
X343465Y45115D01*
X343771Y44908D01*
X344116Y44857D01*
X344423Y44908D01*
X344730Y45167D01*
X344921Y45477D01*
X344960Y45787D01*
X344883Y46148D01*
X344615Y46407D01*
X344346Y46510D01*
X344001D01*
G01X344346D02*
X344576Y46665D01*
X344768Y46923D01*
X344845Y47233D01*
X344768Y47543D01*
X344576Y47802D01*
X344231Y47957D01*
X343886Y47905D01*
X343541Y47698D01*
G01X345735Y45322D02*
X345965Y45063D01*
X346233Y44908D01*
X346578Y44857D01*
X346923Y44960D01*
X347191Y45167D01*
X347383Y45528D01*
X347421Y45942D01*
X347345Y46355D01*
X347153Y46613D01*
X346885Y46820D01*
X346616Y46872D01*
X346348Y46820D01*
X346003Y46613D01*
X346118Y47957D01*
X347153D01*
G01X344457Y115527D02*
Y118627D01*
X345415D01*
X345722Y118472D01*
X345913Y118265D01*
X345990Y117852D01*
X345913Y117438D01*
X345683Y117180D01*
X345415Y117025D01*
X344457D01*
G01X345415D02*
X345990Y115527D01*
G01X347723D02*
Y118627D01*
X347263Y118007D01*
G01Y115527D02*
X348183D01*
G01X349495Y118110D02*
X349725Y118420D01*
X349993Y118575D01*
X350300Y118627D01*
X350683Y118523D01*
X350952Y118265D01*
X351028Y117955D01*
X350990Y117645D01*
X350837Y117387D01*
X350070Y116870D01*
X349725Y116508D01*
X349495Y115992D01*
X349418Y115527D01*
X351028D01*
G01X344457Y121728D02*
Y124828D01*
X345415D01*
X345722Y124672D01*
X345913Y124466D01*
X345990Y124053D01*
X345913Y123639D01*
X345683Y123381D01*
X345415Y123226D01*
X344457D01*
G01X345415D02*
X345990Y121728D01*
G01X347723D02*
Y124828D01*
X347263Y124208D01*
G01Y121728D02*
X348183D01*
G01X350223Y124828D02*
X349917Y124724D01*
X349687Y124466D01*
X349533Y124156D01*
X349418Y123742D01*
X349380Y123278D01*
X349418Y122813D01*
X349533Y122399D01*
X349687Y122089D01*
X349917Y121831D01*
X350223Y121728D01*
X350530Y121831D01*
X350760Y122089D01*
X350913Y122399D01*
X351028Y122813D01*
X351067Y123278D01*
X351028Y123742D01*
X350913Y124156D01*
X350760Y124466D01*
X350530Y124724D01*
X350223Y124828D01*
G01X343586Y143595D02*
X343356Y143750D01*
X343088Y143853D01*
X342781D01*
X342436Y143698D01*
X342168Y143440D01*
X341976Y143130D01*
X341823Y142613D01*
X341785Y142148D01*
X341861Y141683D01*
X341976Y141373D01*
X342206Y141063D01*
X342475Y140856D01*
X342743Y140753D01*
X343011D01*
X343280Y140856D01*
X343510Y141011D01*
X343701Y141218D01*
G01X345166Y140753D02*
X345243Y141425D01*
X345358Y141993D01*
X345511Y142510D01*
X345703Y143078D01*
X346010Y143853D01*
X344476D01*
G01X352420Y35033D02*
X353378Y38133D01*
X354337Y35033D01*
G01X353992Y36118D02*
X352765D01*
G01X352628Y47698D02*
X352398Y47853D01*
X352130Y47957D01*
X351824D01*
X351478Y47802D01*
X351210Y47543D01*
X351018Y47233D01*
X350865Y46717D01*
X350827Y46252D01*
X350903Y45787D01*
X351018Y45477D01*
X351248Y45167D01*
X351517Y44960D01*
X351785Y44857D01*
X352053D01*
X352322Y44960D01*
X352552Y45115D01*
X352744Y45322D01*
G01X354745Y44857D02*
Y47957D01*
X353327Y45735D01*
X355244D01*
G01X356785Y44857D02*
X357053Y44908D01*
X357360Y45063D01*
X357552Y45322D01*
X357628Y45683D01*
X357552Y46045D01*
X357322Y46355D01*
X356977Y46510D01*
X356593D01*
X356363Y46613D01*
X356172Y46872D01*
X356095Y47233D01*
X356210Y47595D01*
X356478Y47853D01*
X356785Y47957D01*
X357092Y47853D01*
X357360Y47595D01*
X357475Y47233D01*
X357398Y46872D01*
X357207Y46613D01*
X356977Y46510D01*
X356593D01*
X356248Y46355D01*
X356018Y46045D01*
X355942Y45683D01*
X356018Y45322D01*
X356210Y45063D01*
X356517Y44908D01*
X356785Y44857D01*
G01X351614Y61660D02*
X351384Y61815D01*
X351115Y61918D01*
X350809D01*
X350464Y61763D01*
X350195Y61505D01*
X350004Y61195D01*
X349850Y60678D01*
X349812Y60213D01*
X349889Y59748D01*
X350004Y59438D01*
X350234Y59128D01*
X350502Y58921D01*
X350770Y58818D01*
X351039D01*
X351307Y58921D01*
X351537Y59076D01*
X351729Y59283D01*
G01X352542Y61401D02*
X352772Y61711D01*
X353040Y61866D01*
X353347Y61918D01*
X353730Y61815D01*
X353999Y61556D01*
X354075Y61246D01*
X354037Y60936D01*
X353884Y60678D01*
X353117Y60161D01*
X352772Y59800D01*
X352542Y59283D01*
X352465Y58818D01*
X354075D01*
G01X356230D02*
Y61918D01*
X354812Y59696D01*
X356729D01*
G01X350033Y65521D02*
Y68621D01*
X350992D01*
X351298Y68466D01*
X351490Y68260D01*
X351566Y67846D01*
X351490Y67433D01*
X351260Y67175D01*
X350992Y67020D01*
X350033D01*
G01X350992D02*
X351566Y65521D01*
G01X353300D02*
Y68621D01*
X352840Y68001D01*
G01Y65521D02*
X353760D01*
G01X355148Y65883D02*
X355416Y65625D01*
X355723Y65521D01*
X356030Y65625D01*
X356298Y65935D01*
X356490Y66400D01*
X356566Y66865D01*
Y67433D01*
X356490Y67898D01*
X356298Y68311D01*
X356068Y68518D01*
X355800Y68621D01*
X355493Y68518D01*
X355263Y68311D01*
X355110Y68001D01*
X355033Y67588D01*
X355110Y67226D01*
X355302Y66865D01*
X355532Y66658D01*
X355800Y66606D01*
X356106Y66710D01*
X356336Y66968D01*
X356566Y67433D01*
G01X351643Y75822D02*
X351413Y75978D01*
X351145Y76081D01*
X350838D01*
X350493Y75926D01*
X350225Y75668D01*
X350033Y75358D01*
X349880Y74841D01*
X349841Y74376D01*
X349918Y73911D01*
X350033Y73601D01*
X350263Y73291D01*
X350532Y73084D01*
X350800Y72981D01*
X351068D01*
X351336Y73084D01*
X351566Y73239D01*
X351758Y73446D01*
G01X353300Y72981D02*
Y76081D01*
X352840Y75461D01*
G01Y72981D02*
X353760D01*
G01X355800D02*
X356068Y73033D01*
X356375Y73188D01*
X356566Y73446D01*
X356643Y73808D01*
X356566Y74169D01*
X356336Y74479D01*
X355992Y74634D01*
X355608D01*
X355378Y74738D01*
X355186Y74996D01*
X355110Y75358D01*
X355225Y75719D01*
X355493Y75978D01*
X355800Y76081D01*
X356106Y75978D01*
X356375Y75719D01*
X356490Y75358D01*
X356413Y74996D01*
X356222Y74738D01*
X355992Y74634D01*
X355608D01*
X355263Y74479D01*
X355033Y74169D01*
X354957Y73808D01*
X355033Y73446D01*
X355225Y73188D01*
X355532Y73033D01*
X355800Y72981D01*
G01X348544Y82642D02*
Y85742D01*
X349502D01*
X349808Y85587D01*
X350000Y85380D01*
X350077Y84967D01*
X350000Y84553D01*
X349770Y84295D01*
X349502Y84140D01*
X348544D01*
G01X349502D02*
X350077Y82642D01*
G01X352270D02*
Y85742D01*
X350852Y83520D01*
X352769D01*
G01X354770Y82642D02*
Y85742D01*
X353352Y83520D01*
X355269D01*
G01X349290Y98903D02*
Y96682D01*
X349443Y96216D01*
X349750Y95906D01*
X350133Y95803D01*
X350517Y95906D01*
X350823Y96216D01*
X350977Y96682D01*
Y98903D01*
G01X352633Y95803D02*
Y98903D01*
X352173Y98283D01*
G01Y95803D02*
X353093D01*
G01X355133D02*
Y98903D01*
X354673Y98283D01*
G01Y95803D02*
X355593D01*
G01X363415Y47698D02*
X363185Y47853D01*
X362917Y47957D01*
X362610D01*
X362265Y47802D01*
X361997Y47543D01*
X361805Y47233D01*
X361652Y46717D01*
X361614Y46252D01*
X361690Y45787D01*
X361805Y45477D01*
X362035Y45167D01*
X362304Y44960D01*
X362572Y44857D01*
X362840D01*
X363109Y44960D01*
X363339Y45115D01*
X363530Y45322D01*
G01X365532Y44857D02*
Y47957D01*
X364114Y45735D01*
X366030D01*
G01X366920Y45218D02*
X367189Y44960D01*
X367495Y44857D01*
X367802Y44960D01*
X368070Y45270D01*
X368262Y45735D01*
X368339Y46200D01*
Y46768D01*
X368262Y47233D01*
X368070Y47647D01*
X367840Y47853D01*
X367572Y47957D01*
X367265Y47853D01*
X367035Y47647D01*
X366882Y47337D01*
X366805Y46923D01*
X366882Y46562D01*
X367074Y46200D01*
X367304Y45993D01*
X367572Y45942D01*
X367879Y46045D01*
X368109Y46303D01*
X368339Y46768D01*
G01X361873Y204159D02*
Y201937D01*
X362026Y201472D01*
X362333Y201162D01*
X362716Y201059D01*
X363100Y201162D01*
X363406Y201472D01*
X363560Y201937D01*
Y204159D01*
G01X364488Y202351D02*
X364756Y202712D01*
X364986Y202919D01*
X365293Y203022D01*
X365562Y202919D01*
X365753Y202712D01*
X365906Y202402D01*
X365945Y202041D01*
X365906Y201731D01*
X365753Y201421D01*
X365523Y201162D01*
X365255Y201059D01*
X364948Y201162D01*
X364680Y201472D01*
X364526Y201937D01*
X364488Y202454D01*
X364565Y203126D01*
X364680Y203488D01*
X364872Y203849D01*
X365140Y204107D01*
X365408Y204159D01*
X365676Y204056D01*
X365868Y203797D01*
G01X373012Y47698D02*
X372782Y47853D01*
X372514Y47957D01*
X372207D01*
X371862Y47802D01*
X371594Y47543D01*
X371402Y47233D01*
X371249Y46717D01*
X371210Y46252D01*
X371287Y45787D01*
X371402Y45477D01*
X371632Y45167D01*
X371900Y44960D01*
X372169Y44857D01*
X372437D01*
X372705Y44960D01*
X372935Y45115D01*
X373127Y45322D01*
G01X373825D02*
X374055Y45063D01*
X374324Y44908D01*
X374669Y44857D01*
X375014Y44960D01*
X375282Y45167D01*
X375474Y45528D01*
X375512Y45942D01*
X375435Y46355D01*
X375244Y46613D01*
X374975Y46820D01*
X374707Y46872D01*
X374439Y46820D01*
X374094Y46613D01*
X374209Y47957D01*
X375244D01*
G01X377169D02*
X376862Y47853D01*
X376632Y47595D01*
X376479Y47285D01*
X376364Y46872D01*
X376325Y46407D01*
X376364Y45942D01*
X376479Y45528D01*
X376632Y45218D01*
X376862Y44960D01*
X377169Y44857D01*
X377475Y44960D01*
X377705Y45218D01*
X377859Y45528D01*
X377974Y45942D01*
X378012Y46407D01*
X377974Y46872D01*
X377859Y47285D01*
X377705Y47595D01*
X377475Y47853D01*
X377169Y47957D01*
G01X368839Y63747D02*
Y66847D01*
X369798D01*
X370104Y66692D01*
X370296Y66486D01*
X370373Y66072D01*
X370296Y65659D01*
X370066Y65401D01*
X369798Y65246D01*
X368839D01*
G01X369798D02*
X370373Y63747D01*
G01X372106D02*
Y66847D01*
X371646Y66227D01*
G01Y63747D02*
X372566D01*
G01X373878Y65039D02*
X374146Y65401D01*
X374376Y65607D01*
X374683Y65711D01*
X374951Y65607D01*
X375143Y65401D01*
X375296Y65091D01*
X375334Y64729D01*
X375296Y64419D01*
X375143Y64109D01*
X374913Y63851D01*
X374644Y63747D01*
X374338Y63851D01*
X374069Y64161D01*
X373916Y64626D01*
X373878Y65142D01*
X373954Y65814D01*
X374069Y66176D01*
X374261Y66537D01*
X374529Y66796D01*
X374798Y66847D01*
X375066Y66744D01*
X375258Y66486D01*
G01X368839Y71382D02*
Y74482D01*
X369798D01*
X370104Y74326D01*
X370296Y74120D01*
X370373Y73707D01*
X370296Y73293D01*
X370066Y73035D01*
X369798Y72880D01*
X368839D01*
G01X369798D02*
X370373Y71382D01*
G01X372106D02*
Y74482D01*
X371646Y73862D01*
G01Y71382D02*
X372566D01*
G01X374529D02*
X374606Y72053D01*
X374721Y72622D01*
X374874Y73138D01*
X375066Y73707D01*
X375373Y74482D01*
X373839D01*
G01X370449Y81044D02*
X370219Y81199D01*
X369951Y81302D01*
X369644D01*
X369299Y81147D01*
X369031Y80889D01*
X368839Y80579D01*
X368686Y80062D01*
X368648Y79597D01*
X368724Y79132D01*
X368839Y78822D01*
X369069Y78512D01*
X369338Y78306D01*
X369606Y78202D01*
X369874D01*
X370143Y78306D01*
X370373Y78461D01*
X370564Y78667D01*
G01X371263D02*
X371493Y78409D01*
X371761Y78254D01*
X372106Y78202D01*
X372451Y78306D01*
X372719Y78512D01*
X372911Y78874D01*
X372949Y79287D01*
X372873Y79701D01*
X372681Y79959D01*
X372413Y80166D01*
X372144Y80217D01*
X371876Y80166D01*
X371531Y79959D01*
X371646Y81302D01*
X372681D01*
G01X373878Y79494D02*
X374146Y79856D01*
X374376Y80062D01*
X374683Y80166D01*
X374951Y80062D01*
X375143Y79856D01*
X375296Y79546D01*
X375334Y79184D01*
X375296Y78874D01*
X375143Y78564D01*
X374913Y78306D01*
X374644Y78202D01*
X374338Y78306D01*
X374069Y78616D01*
X373916Y79081D01*
X373878Y79597D01*
X373954Y80269D01*
X374069Y80631D01*
X374261Y80992D01*
X374529Y81251D01*
X374798Y81302D01*
X375066Y81199D01*
X375258Y80941D01*
G01X371926Y25428D02*
Y28528D01*
G01X373536D02*
Y25428D01*
G01Y26978D02*
X371926D01*
G01X374502Y26720D02*
X374771Y27082D01*
X375001Y27288D01*
X375307Y27392D01*
X375576Y27288D01*
X375767Y27082D01*
X375921Y26772D01*
X375959Y26410D01*
X375921Y26100D01*
X375767Y25790D01*
X375537Y25532D01*
X375269Y25428D01*
X374962Y25532D01*
X374694Y25842D01*
X374541Y26307D01*
X374502Y26823D01*
X374579Y27495D01*
X374694Y27857D01*
X374886Y28218D01*
X375154Y28477D01*
X375422Y28528D01*
X375691Y28425D01*
X375882Y28167D01*
G01X374010Y36687D02*
X374164Y36842D01*
X374278Y37100D01*
X374355Y37462D01*
X374278Y37772D01*
X374125Y37978D01*
X373857Y38133D01*
X372822D01*
Y35033D01*
X374087D01*
X374355Y35240D01*
X374508Y35550D01*
X374585Y35912D01*
X374508Y36273D01*
X374278Y36583D01*
X374010Y36687D01*
X372822D01*
G01X376466Y154191D02*
X376236Y154346D01*
X375968Y154450D01*
X375662D01*
X375316Y154294D01*
X375048Y154036D01*
X374856Y153726D01*
X374703Y153210D01*
X374665Y152745D01*
X374742Y152280D01*
X374856Y151970D01*
X375086Y151660D01*
X375355Y151453D01*
X375623Y151350D01*
X375892D01*
X376160Y151453D01*
X376390Y151608D01*
X376582Y151814D01*
G01X377280D02*
X377510Y151556D01*
X377778Y151401D01*
X378123Y151350D01*
X378468Y151453D01*
X378736Y151660D01*
X378928Y152021D01*
X378966Y152435D01*
X378890Y152848D01*
X378698Y153106D01*
X378430Y153313D01*
X378162Y153364D01*
X377893Y153313D01*
X377548Y153106D01*
X377663Y154450D01*
X378698D01*
G01X380623Y151350D02*
X380892Y151401D01*
X381198Y151556D01*
X381390Y151814D01*
X381466Y152176D01*
X381390Y152538D01*
X381160Y152848D01*
X380815Y153003D01*
X380432D01*
X380202Y153106D01*
X380010Y153364D01*
X379933Y153726D01*
X380048Y154088D01*
X380316Y154346D01*
X380623Y154450D01*
X380930Y154346D01*
X381198Y154088D01*
X381313Y153726D01*
X381236Y153364D01*
X381045Y153106D01*
X380815Y153003D01*
X380432D01*
X380086Y152848D01*
X379856Y152538D01*
X379780Y152176D01*
X379856Y151814D01*
X380048Y151556D01*
X380355Y151401D01*
X380623Y151350D01*
G01X381648Y44857D02*
Y47957D01*
X382606D01*
X382913Y47802D01*
X383105Y47595D01*
X383181Y47182D01*
X383105Y46768D01*
X382875Y46510D01*
X382606Y46355D01*
X381648D01*
G01X382606D02*
X383181Y44857D01*
G01X385375D02*
Y47957D01*
X383956Y45735D01*
X385873D01*
G01X387415Y44857D02*
Y47957D01*
X386955Y47337D01*
G01Y44857D02*
X387874D01*
G01X387670Y74845D02*
X387861Y74534D01*
X388091Y74328D01*
X388360Y74225D01*
X388666Y74328D01*
X388896Y74534D01*
X389126Y74845D01*
X389203Y75258D01*
Y77325D01*
G01X390936Y74225D02*
Y77325D01*
X390476Y76705D01*
G01Y74225D02*
X391396D01*
G01X393070Y38133D02*
X394029Y35033D01*
X394987Y38133D01*
G01X393268Y47698D02*
X393038Y47853D01*
X392770Y47957D01*
X392463D01*
X392118Y47802D01*
X391850Y47543D01*
X391658Y47233D01*
X391504Y46717D01*
X391466Y46252D01*
X391543Y45787D01*
X391658Y45477D01*
X391888Y45167D01*
X392156Y44960D01*
X392424Y44857D01*
X392693D01*
X392961Y44960D01*
X393191Y45115D01*
X393383Y45322D01*
G01X394081D02*
X394311Y45063D01*
X394580Y44908D01*
X394924Y44857D01*
X395270Y44960D01*
X395538Y45167D01*
X395730Y45528D01*
X395768Y45942D01*
X395691Y46355D01*
X395500Y46613D01*
X395231Y46820D01*
X394963Y46872D01*
X394695Y46820D01*
X394350Y46613D01*
X394464Y47957D01*
X395500D01*
G01X396581Y45322D02*
X396811Y45063D01*
X397080Y44908D01*
X397424Y44857D01*
X397770Y44960D01*
X398038Y45167D01*
X398230Y45528D01*
X398268Y45942D01*
X398191Y46355D01*
X398000Y46613D01*
X397731Y46820D01*
X397463Y46872D01*
X397194Y46820D01*
X396850Y46613D01*
X396964Y47957D01*
X398000D01*
G01X388998Y111739D02*
Y108639D01*
X390531D01*
G01X391536Y111223D02*
X391766Y111533D01*
X392035Y111688D01*
X392341Y111739D01*
X392725Y111636D01*
X392993Y111378D01*
X393070Y111068D01*
X393031Y110758D01*
X392878Y110499D01*
X392111Y109983D01*
X391766Y109621D01*
X391536Y109104D01*
X391460Y108639D01*
X393070D01*
G01X402858Y130999D02*
Y134099D01*
X403624D01*
X403931Y133944D01*
X404161Y133738D01*
X404352Y133428D01*
X404506Y133066D01*
X404544Y132549D01*
X404506Y132032D01*
X404352Y131671D01*
X404161Y131361D01*
X403931Y131154D01*
X403624Y130999D01*
X402858D01*
G01X406201D02*
Y134099D01*
X405741Y133479D01*
G01Y130999D02*
X406661D01*
G01X409128Y99080D02*
X409283Y99310D01*
X409386Y99578D01*
Y99884D01*
X409231Y100230D01*
X408973Y100498D01*
X408663Y100690D01*
X408146Y100843D01*
X407681Y100881D01*
X407216Y100805D01*
X406906Y100690D01*
X406596Y100460D01*
X406390Y100191D01*
X406286Y99923D01*
Y99654D01*
X406390Y99386D01*
X406545Y99156D01*
X406751Y98964D01*
G01X407578Y98151D02*
X407940Y97883D01*
X408146Y97653D01*
X408250Y97346D01*
X408146Y97078D01*
X407940Y96886D01*
X407630Y96733D01*
X407268Y96694D01*
X406958Y96733D01*
X406648Y96886D01*
X406390Y97116D01*
X406286Y97384D01*
X406390Y97691D01*
X406699Y97960D01*
X407164Y98113D01*
X407681Y98151D01*
X408353Y98074D01*
X408715Y97960D01*
X409076Y97768D01*
X409334Y97500D01*
X409386Y97231D01*
X409283Y96963D01*
X409025Y96771D01*
G01X406751Y95766D02*
X406493Y95536D01*
X406338Y95268D01*
X406286Y94923D01*
X406390Y94578D01*
X406596Y94310D01*
X406958Y94118D01*
X407371Y94080D01*
X407784Y94156D01*
X408043Y94348D01*
X408250Y94616D01*
X408301Y94884D01*
X408250Y95153D01*
X408043Y95498D01*
X409386Y95383D01*
Y94348D01*
G01X407123Y120443D02*
X410223D01*
Y119485D01*
X410068Y119179D01*
X409861Y118987D01*
X409448Y118910D01*
X409034Y118987D01*
X408776Y119217D01*
X408621Y119485D01*
Y120443D01*
G01Y119485D02*
X407123Y118910D01*
G01X407588Y118020D02*
X407329Y117790D01*
X407174Y117522D01*
X407123Y117177D01*
X407226Y116832D01*
X407433Y116564D01*
X407794Y116372D01*
X408208Y116334D01*
X408621Y116410D01*
X408880Y116602D01*
X409086Y116870D01*
X409138Y117138D01*
X409086Y117407D01*
X408880Y117752D01*
X410223Y117637D01*
Y116602D01*
G01X407123Y114677D02*
X410223D01*
X409603Y115137D01*
G01X407123D02*
Y114217D01*
G01X410073Y129109D02*
X410228Y129339D01*
X410331Y129607D01*
Y129914D01*
X410176Y130259D01*
X409918Y130527D01*
X409608Y130719D01*
X409091Y130872D01*
X408626Y130911D01*
X408161Y130834D01*
X407851Y130719D01*
X407541Y130489D01*
X407334Y130221D01*
X407231Y129952D01*
Y129684D01*
X407334Y129416D01*
X407489Y129186D01*
X407696Y128994D01*
G01Y128296D02*
X407438Y128066D01*
X407283Y127797D01*
X407231Y127452D01*
X407334Y127107D01*
X407541Y126839D01*
X407903Y126647D01*
X408316Y126609D01*
X408729Y126686D01*
X408988Y126877D01*
X409194Y127146D01*
X409246Y127414D01*
X409194Y127682D01*
X408988Y128027D01*
X410331Y127912D01*
Y126877D01*
G01X407593Y125604D02*
X407334Y125336D01*
X407231Y125029D01*
X407334Y124722D01*
X407644Y124454D01*
X408109Y124262D01*
X408574Y124186D01*
X409143D01*
X409608Y124262D01*
X410021Y124454D01*
X410228Y124684D01*
X410331Y124952D01*
X410228Y125259D01*
X410021Y125489D01*
X409711Y125642D01*
X409298Y125719D01*
X408936Y125642D01*
X408574Y125451D01*
X408368Y125221D01*
X408316Y124952D01*
X408419Y124646D01*
X408678Y124416D01*
X409143Y124186D01*
G01X422330Y70959D02*
X422100Y71114D01*
X421832Y71218D01*
X421525D01*
X421180Y71063D01*
X420912Y70804D01*
X420720Y70494D01*
X420567Y69978D01*
X420529Y69513D01*
X420605Y69048D01*
X420720Y68738D01*
X420950Y68428D01*
X421219Y68221D01*
X421487Y68118D01*
X421755D01*
X422024Y68221D01*
X422254Y68376D01*
X422445Y68583D01*
G01X423259Y69409D02*
X423527Y69771D01*
X423757Y69978D01*
X424064Y70081D01*
X424332Y69978D01*
X424524Y69771D01*
X424677Y69461D01*
X424715Y69099D01*
X424677Y68789D01*
X424524Y68479D01*
X424294Y68221D01*
X424025Y68118D01*
X423719Y68221D01*
X423450Y68531D01*
X423297Y68996D01*
X423259Y69513D01*
X423335Y70184D01*
X423450Y70546D01*
X423642Y70908D01*
X423910Y71166D01*
X424179Y71218D01*
X424447Y71114D01*
X424639Y70856D01*
G01X426487Y68118D02*
X426755Y68169D01*
X427062Y68324D01*
X427254Y68583D01*
X427330Y68944D01*
X427254Y69306D01*
X427024Y69616D01*
X426679Y69771D01*
X426295D01*
X426065Y69874D01*
X425874Y70133D01*
X425797Y70494D01*
X425912Y70856D01*
X426180Y71114D01*
X426487Y71218D01*
X426794Y71114D01*
X427062Y70856D01*
X427177Y70494D01*
X427100Y70133D01*
X426909Y69874D01*
X426679Y69771D01*
X426295D01*
X425950Y69616D01*
X425720Y69306D01*
X425644Y68944D01*
X425720Y68583D01*
X425912Y68324D01*
X426219Y68169D01*
X426487Y68118D01*
G01X417744Y87928D02*
X417514Y88083D01*
X417245Y88186D01*
X416939D01*
X416594Y88031D01*
X416325Y87773D01*
X416134Y87463D01*
X415980Y86946D01*
X415942Y86481D01*
X416019Y86016D01*
X416134Y85706D01*
X416364Y85396D01*
X416632Y85190D01*
X416900Y85086D01*
X417169D01*
X417437Y85190D01*
X417667Y85345D01*
X417859Y85551D01*
G01X418672Y86378D02*
X418940Y86740D01*
X419170Y86946D01*
X419477Y87050D01*
X419745Y86946D01*
X419937Y86740D01*
X420090Y86429D01*
X420129Y86068D01*
X420090Y85758D01*
X419937Y85448D01*
X419707Y85190D01*
X419439Y85086D01*
X419132Y85190D01*
X418864Y85499D01*
X418710Y85964D01*
X418672Y86481D01*
X418749Y87153D01*
X418864Y87515D01*
X419055Y87876D01*
X419324Y88134D01*
X419592Y88186D01*
X419860Y88083D01*
X420052Y87824D01*
G01X422360Y85086D02*
Y88186D01*
X420942Y85964D01*
X422859D01*
G01X418142Y108984D02*
Y112084D01*
X419100D01*
X419407Y111929D01*
X419598Y111722D01*
X419675Y111309D01*
X419598Y110895D01*
X419368Y110637D01*
X419100Y110482D01*
X418142D01*
G01X419100D02*
X419675Y108984D01*
G01X421868D02*
Y112084D01*
X420450Y109862D01*
X422367D01*
G01X423832Y108984D02*
X423908Y109656D01*
X424023Y110224D01*
X424177Y110741D01*
X424368Y111309D01*
X424675Y112084D01*
X423142D01*
G01X423915Y47593D02*
X423685Y47748D01*
X423417Y47852D01*
X423110D01*
X422765Y47696D01*
X422497Y47438D01*
X422305Y47128D01*
X422152Y46612D01*
X422113Y46147D01*
X422190Y45682D01*
X422305Y45372D01*
X422535Y45062D01*
X422803Y44855D01*
X423072Y44752D01*
X423340D01*
X423608Y44855D01*
X423838Y45010D01*
X424030Y45217D01*
G01X425495Y44752D02*
X425572Y45423D01*
X425687Y45992D01*
X425840Y46508D01*
X426032Y47077D01*
X426338Y47852D01*
X424805D01*
G01X428072D02*
X427765Y47748D01*
X427535Y47490D01*
X427382Y47180D01*
X427267Y46767D01*
X427228Y46302D01*
X427267Y45837D01*
X427382Y45423D01*
X427535Y45113D01*
X427765Y44855D01*
X428072Y44752D01*
X428378Y44855D01*
X428608Y45113D01*
X428762Y45423D01*
X428877Y45837D01*
X428915Y46302D01*
X428877Y46767D01*
X428762Y47180D01*
X428608Y47490D01*
X428378Y47748D01*
X428072Y47852D01*
G01X422822Y59473D02*
X422592Y59628D01*
X422324Y59732D01*
X422018D01*
X421672Y59576D01*
X421404Y59318D01*
X421212Y59008D01*
X421059Y58491D01*
X421021Y58026D01*
X421097Y57562D01*
X421212Y57252D01*
X421442Y56941D01*
X421711Y56735D01*
X421979Y56632D01*
X422247D01*
X422516Y56735D01*
X422746Y56890D01*
X422938Y57096D01*
G01X424402Y56632D02*
X424479Y57303D01*
X424594Y57871D01*
X424747Y58388D01*
X424939Y58957D01*
X425246Y59732D01*
X423712D01*
G01X426979Y56632D02*
Y59732D01*
X426519Y59112D01*
G01Y56632D02*
X427439D01*
G01X422822Y81117D02*
X422592Y81272D01*
X422324Y81375D01*
X422018D01*
X421672Y81220D01*
X421404Y80962D01*
X421212Y80652D01*
X421059Y80135D01*
X421021Y79670D01*
X421097Y79205D01*
X421212Y78895D01*
X421442Y78585D01*
X421711Y78378D01*
X421979Y78275D01*
X422247D01*
X422516Y78378D01*
X422746Y78534D01*
X422938Y78740D01*
G01X423751Y79567D02*
X424019Y79929D01*
X424249Y80135D01*
X424556Y80238D01*
X424824Y80135D01*
X425016Y79929D01*
X425169Y79618D01*
X425207Y79257D01*
X425169Y78947D01*
X425016Y78637D01*
X424786Y78378D01*
X424518Y78275D01*
X424211Y78378D01*
X423942Y78688D01*
X423789Y79154D01*
X423751Y79670D01*
X423827Y80342D01*
X423942Y80704D01*
X424134Y81065D01*
X424402Y81324D01*
X424671Y81375D01*
X424939Y81272D01*
X425131Y81014D01*
G01X426902Y78275D02*
X426979Y78947D01*
X427094Y79515D01*
X427247Y80032D01*
X427439Y80600D01*
X427746Y81375D01*
X426212D01*
G01X428738Y87928D02*
X428508Y88083D01*
X428240Y88186D01*
X427933D01*
X427588Y88031D01*
X427319Y87773D01*
X427128Y87463D01*
X426975Y86946D01*
X426936Y86481D01*
X427013Y86016D01*
X427128Y85706D01*
X427358Y85396D01*
X427626Y85190D01*
X427894Y85086D01*
X428163D01*
X428431Y85190D01*
X428661Y85345D01*
X428853Y85551D01*
G01X429666Y86378D02*
X429935Y86740D01*
X430165Y86946D01*
X430471Y87050D01*
X430740Y86946D01*
X430931Y86740D01*
X431085Y86429D01*
X431123Y86068D01*
X431085Y85758D01*
X430931Y85448D01*
X430701Y85190D01*
X430433Y85086D01*
X430126Y85190D01*
X429858Y85499D01*
X429704Y85964D01*
X429666Y86481D01*
X429743Y87153D01*
X429858Y87515D01*
X430050Y87876D01*
X430318Y88134D01*
X430586Y88186D01*
X430855Y88083D01*
X431046Y87824D01*
G01X432894Y85086D02*
Y88186D01*
X432434Y87566D01*
G01Y85086D02*
X433354D01*
G01X428968Y108984D02*
Y112084D01*
X429927D01*
X430233Y111929D01*
X430425Y111722D01*
X430502Y111309D01*
X430425Y110895D01*
X430195Y110637D01*
X429927Y110482D01*
X428968D01*
G01X429927D02*
X430502Y108984D01*
G01X432695D02*
Y112084D01*
X431277Y109862D01*
X433193D01*
G01X434083Y109345D02*
X434352Y109087D01*
X434658Y108984D01*
X434965Y109087D01*
X435233Y109397D01*
X435425Y109862D01*
X435502Y110327D01*
Y110895D01*
X435425Y111360D01*
X435233Y111774D01*
X435003Y111981D01*
X434735Y112084D01*
X434428Y111981D01*
X434198Y111774D01*
X434045Y111464D01*
X433968Y111051D01*
X434045Y110689D01*
X434237Y110327D01*
X434467Y110120D01*
X434735Y110069D01*
X435042Y110172D01*
X435272Y110431D01*
X435502Y110895D01*
G01X421316Y146752D02*
Y144530D01*
X421469Y144065D01*
X421776Y143755D01*
X422159Y143652D01*
X422543Y143755D01*
X422849Y144065D01*
X423003Y144530D01*
Y146752D01*
G01X424659Y143652D02*
Y146752D01*
X424199Y146132D01*
G01Y143652D02*
X425119D01*
G01X427159Y146752D02*
X426853Y146648D01*
X426623Y146390D01*
X426469Y146080D01*
X426354Y145666D01*
X426316Y145202D01*
X426354Y144737D01*
X426469Y144323D01*
X426623Y144013D01*
X426853Y143755D01*
X427159Y143652D01*
X427466Y143755D01*
X427696Y144013D01*
X427849Y144323D01*
X427964Y144737D01*
X428003Y145202D01*
X427964Y145666D01*
X427849Y146080D01*
X427696Y146390D01*
X427466Y146648D01*
X427159Y146752D01*
G01X434786Y25428D02*
Y28528D01*
G01X436396D02*
Y25428D01*
G01Y26978D02*
X434786D01*
G01X438091Y25428D02*
Y28528D01*
X437631Y27908D01*
G01Y25428D02*
X438550D01*
G01X440591D02*
Y28528D01*
X440131Y27908D01*
G01Y25428D02*
X441051D01*
G01X436917Y69581D02*
X436687Y69736D01*
X436419Y69840D01*
X436112D01*
X435767Y69685D01*
X435499Y69426D01*
X435307Y69116D01*
X435154Y68600D01*
X435115Y68135D01*
X435192Y67670D01*
X435307Y67360D01*
X435537Y67050D01*
X435805Y66843D01*
X436074Y66740D01*
X436342D01*
X436610Y66843D01*
X436840Y66998D01*
X437032Y67205D01*
G01X437845Y68031D02*
X438114Y68393D01*
X438344Y68600D01*
X438650Y68703D01*
X438919Y68600D01*
X439110Y68393D01*
X439264Y68083D01*
X439302Y67721D01*
X439264Y67411D01*
X439110Y67101D01*
X438880Y66843D01*
X438612Y66740D01*
X438305Y66843D01*
X438037Y67153D01*
X437884Y67618D01*
X437845Y68135D01*
X437922Y68806D01*
X438037Y69168D01*
X438229Y69530D01*
X438497Y69788D01*
X438765Y69840D01*
X439034Y69736D01*
X439225Y69478D01*
G01X440422Y67101D02*
X440690Y66843D01*
X440997Y66740D01*
X441304Y66843D01*
X441572Y67153D01*
X441764Y67618D01*
X441840Y68083D01*
Y68651D01*
X441764Y69116D01*
X441572Y69530D01*
X441342Y69736D01*
X441074Y69840D01*
X440767Y69736D01*
X440537Y69530D01*
X440384Y69220D01*
X440307Y68806D01*
X440384Y68445D01*
X440575Y68083D01*
X440805Y67876D01*
X441074Y67825D01*
X441380Y67928D01*
X441610Y68186D01*
X441840Y68651D01*
G01X439190Y81796D02*
X438960Y81951D01*
X438692Y82054D01*
X438386D01*
X438040Y81899D01*
X437772Y81641D01*
X437581Y81331D01*
X437427Y80814D01*
X437389Y80349D01*
X437466Y79884D01*
X437581Y79574D01*
X437810Y79264D01*
X438079Y79058D01*
X438347Y78954D01*
X438615D01*
X438884Y79058D01*
X439114Y79213D01*
X439306Y79419D01*
G01X440119Y80246D02*
X440387Y80608D01*
X440617Y80814D01*
X440924Y80918D01*
X441192Y80814D01*
X441384Y80608D01*
X441537Y80298D01*
X441576Y79936D01*
X441537Y79626D01*
X441384Y79316D01*
X441154Y79058D01*
X440886Y78954D01*
X440579Y79058D01*
X440310Y79368D01*
X440157Y79833D01*
X440119Y80349D01*
X440196Y81021D01*
X440310Y81383D01*
X440502Y81744D01*
X440770Y82003D01*
X441039Y82054D01*
X441307Y81951D01*
X441499Y81693D01*
G01X442619Y80246D02*
X442887Y80608D01*
X443117Y80814D01*
X443424Y80918D01*
X443692Y80814D01*
X443884Y80608D01*
X444037Y80298D01*
X444076Y79936D01*
X444037Y79626D01*
X443884Y79316D01*
X443654Y79058D01*
X443386Y78954D01*
X443079Y79058D01*
X442810Y79368D01*
X442657Y79833D01*
X442619Y80349D01*
X442696Y81021D01*
X442810Y81383D01*
X443002Y81744D01*
X443271Y82003D01*
X443539Y82054D01*
X443807Y81951D01*
X443999Y81693D01*
G01X442558Y106348D02*
X442328Y106503D01*
X442059Y106606D01*
X441753D01*
X441408Y106451D01*
X441139Y106193D01*
X440948Y105883D01*
X440794Y105366D01*
X440756Y104901D01*
X440833Y104436D01*
X440948Y104126D01*
X441178Y103816D01*
X441446Y103609D01*
X441714Y103506D01*
X441983D01*
X442251Y103609D01*
X442481Y103764D01*
X442673Y103971D01*
G01X443486Y104798D02*
X443754Y105159D01*
X443984Y105366D01*
X444291Y105469D01*
X444559Y105366D01*
X444751Y105159D01*
X444904Y104849D01*
X444943Y104488D01*
X444904Y104178D01*
X444751Y103868D01*
X444521Y103609D01*
X444253Y103506D01*
X443946Y103609D01*
X443678Y103919D01*
X443524Y104384D01*
X443486Y104901D01*
X443563Y105573D01*
X443678Y105934D01*
X443869Y106296D01*
X444138Y106554D01*
X444406Y106606D01*
X444674Y106503D01*
X444866Y106244D01*
G01X446714Y106606D02*
X446408Y106503D01*
X446178Y106244D01*
X446024Y105934D01*
X445909Y105521D01*
X445871Y105056D01*
X445909Y104591D01*
X446024Y104178D01*
X446178Y103868D01*
X446408Y103609D01*
X446714Y103506D01*
X447021Y103609D01*
X447251Y103868D01*
X447404Y104178D01*
X447519Y104591D01*
X447558Y105056D01*
X447519Y105521D01*
X447404Y105934D01*
X447251Y106244D01*
X447021Y106503D01*
X446714Y106606D01*
G01X440004Y112665D02*
Y110443D01*
X440157Y109978D01*
X440464Y109668D01*
X440847Y109565D01*
X441231Y109668D01*
X441537Y109978D01*
X441690Y110443D01*
Y112665D01*
G01X443347Y109565D02*
Y112665D01*
X442887Y112045D01*
G01Y109565D02*
X443807D01*
G01X445119Y112148D02*
X445349Y112458D01*
X445617Y112613D01*
X445924Y112665D01*
X446307Y112561D01*
X446576Y112303D01*
X446652Y111993D01*
X446614Y111683D01*
X446460Y111425D01*
X445694Y110908D01*
X445349Y110546D01*
X445119Y110030D01*
X445042Y109565D01*
X446652D01*
G01X441306Y136745D02*
X441076Y136900D01*
X440808Y137004D01*
X440501D01*
X440156Y136848D01*
X439888Y136590D01*
X439696Y136280D01*
X439543Y135764D01*
X439504Y135298D01*
X439581Y134834D01*
X439696Y134524D01*
X439926Y134213D01*
X440194Y134007D01*
X440463Y133904D01*
X440731D01*
X440999Y134007D01*
X441229Y134162D01*
X441421Y134368D01*
G01X442234Y135195D02*
X442503Y135557D01*
X442733Y135764D01*
X443039Y135867D01*
X443308Y135764D01*
X443499Y135557D01*
X443653Y135247D01*
X443691Y134885D01*
X443653Y134575D01*
X443499Y134265D01*
X443269Y134007D01*
X443001Y133904D01*
X442694Y134007D01*
X442426Y134317D01*
X442273Y134782D01*
X442234Y135298D01*
X442311Y135970D01*
X442426Y136332D01*
X442618Y136694D01*
X442886Y136952D01*
X443154Y137004D01*
X443423Y136900D01*
X443614Y136642D01*
G01X444619Y134524D02*
X444849Y134162D01*
X445156Y133955D01*
X445501Y133904D01*
X445808Y133955D01*
X446114Y134213D01*
X446306Y134524D01*
X446344Y134834D01*
X446268Y135195D01*
X445999Y135454D01*
X445731Y135557D01*
X445386D01*
G01X445731D02*
X445961Y135712D01*
X446153Y135970D01*
X446229Y136280D01*
X446153Y136590D01*
X445961Y136848D01*
X445616Y137004D01*
X445271Y136952D01*
X444926Y136745D01*
G01X449069Y46995D02*
Y44774D01*
X449222Y44308D01*
X449529Y43999D01*
X449912Y43895D01*
X450296Y43999D01*
X450602Y44308D01*
X450756Y44774D01*
Y46995D01*
G01X452412Y43895D02*
Y46995D01*
X451952Y46375D01*
G01Y43895D02*
X452872D01*
G01X455372D02*
Y46995D01*
X453954Y44774D01*
X455871D01*
G01X448358Y66740D02*
Y69840D01*
X449317D01*
X449623Y69685D01*
X449815Y69478D01*
X449892Y69065D01*
X449815Y68651D01*
X449585Y68393D01*
X449317Y68238D01*
X448358D01*
G01X449317D02*
X449892Y66740D01*
G01X450782Y67205D02*
X451011Y66946D01*
X451280Y66791D01*
X451625Y66740D01*
X451970Y66843D01*
X452238Y67050D01*
X452430Y67411D01*
X452468Y67825D01*
X452391Y68238D01*
X452200Y68496D01*
X451931Y68703D01*
X451663Y68755D01*
X451395Y68703D01*
X451050Y68496D01*
X451165Y69840D01*
X452200D01*
G01X453281Y67360D02*
X453511Y66998D01*
X453818Y66791D01*
X454163Y66740D01*
X454470Y66791D01*
X454776Y67050D01*
X454968Y67360D01*
X455006Y67670D01*
X454930Y68031D01*
X454662Y68290D01*
X454393Y68393D01*
X454048D01*
G01X454393D02*
X454623Y68548D01*
X454815Y68806D01*
X454892Y69116D01*
X454815Y69426D01*
X454623Y69685D01*
X454278Y69840D01*
X453933Y69788D01*
X453588Y69581D01*
G01X452886Y78275D02*
Y81375D01*
X453844D01*
X454151Y81220D01*
X454342Y81014D01*
X454419Y80600D01*
X454342Y80187D01*
X454112Y79929D01*
X453844Y79774D01*
X452886D01*
G01X453844D02*
X454419Y78275D01*
G01X455309Y78740D02*
X455539Y78482D01*
X455807Y78327D01*
X456152Y78275D01*
X456497Y78378D01*
X456766Y78585D01*
X456957Y78947D01*
X456996Y79360D01*
X456919Y79774D01*
X456727Y80032D01*
X456459Y80238D01*
X456191Y80290D01*
X455922Y80238D01*
X455577Y80032D01*
X455692Y81375D01*
X456727D01*
G01X457924Y80858D02*
X458154Y81168D01*
X458422Y81324D01*
X458729Y81375D01*
X459112Y81272D01*
X459381Y81014D01*
X459457Y80704D01*
X459419Y80394D01*
X459266Y80135D01*
X458499Y79618D01*
X458154Y79257D01*
X457924Y78740D01*
X457847Y78275D01*
X459457D01*
G01X449697Y122055D02*
Y125155D01*
X450655D01*
X450962Y125000D01*
X451153Y124793D01*
X451230Y124380D01*
X451153Y123966D01*
X450923Y123708D01*
X450655Y123553D01*
X449697D01*
G01X450655D02*
X451230Y122055D01*
G01X452120Y122520D02*
X452350Y122261D01*
X452618Y122106D01*
X452963Y122055D01*
X453308Y122158D01*
X453577Y122365D01*
X453768Y122726D01*
X453807Y123140D01*
X453730Y123553D01*
X453538Y123811D01*
X453270Y124018D01*
X453002Y124070D01*
X452733Y124018D01*
X452388Y123811D01*
X452503Y125155D01*
X453538D01*
G01X455463D02*
X455157Y125051D01*
X454927Y124793D01*
X454773Y124483D01*
X454658Y124070D01*
X454620Y123605D01*
X454658Y123140D01*
X454773Y122726D01*
X454927Y122416D01*
X455157Y122158D01*
X455463Y122055D01*
X455770Y122158D01*
X456000Y122416D01*
X456153Y122726D01*
X456268Y123140D01*
X456307Y123605D01*
X456268Y124070D01*
X456153Y124483D01*
X456000Y124793D01*
X455770Y125051D01*
X455463Y125155D01*
G01X461692Y70550D02*
Y68328D01*
X461845Y67863D01*
X462152Y67553D01*
X462535Y67450D01*
X462918Y67553D01*
X463225Y67863D01*
X463378Y68328D01*
Y70550D01*
G01X465035Y67450D02*
Y70550D01*
X464575Y69930D01*
G01Y67450D02*
X465495D01*
G01X466692Y67915D02*
X466922Y67657D01*
X467190Y67502D01*
X467535Y67450D01*
X467880Y67553D01*
X468148Y67760D01*
X468340Y68122D01*
X468378Y68535D01*
X468302Y68948D01*
X468110Y69207D01*
X467842Y69413D01*
X467573Y69465D01*
X467305Y69413D01*
X466960Y69207D01*
X467075Y70550D01*
X468110D01*
G01X455634Y94889D02*
Y92667D01*
X455787Y92202D01*
X456094Y91892D01*
X456477Y91789D01*
X456861Y91892D01*
X457167Y92202D01*
X457320Y92667D01*
Y94889D01*
G01X458977Y91789D02*
Y94889D01*
X458517Y94269D01*
G01Y91789D02*
X459437D01*
G01X460634Y92409D02*
X460864Y92047D01*
X461170Y91841D01*
X461516Y91789D01*
X461822Y91841D01*
X462129Y92099D01*
X462321Y92409D01*
X462359Y92719D01*
X462282Y93081D01*
X462014Y93339D01*
X461745Y93442D01*
X461401D01*
G01X461745D02*
X461976Y93597D01*
X462167Y93856D01*
X462244Y94166D01*
X462167Y94476D01*
X461976Y94734D01*
X461631Y94889D01*
X461285Y94837D01*
X460940Y94631D01*
G01X462970Y123833D02*
X462740Y123988D01*
X462472Y124092D01*
X462165D01*
X461820Y123937D01*
X461552Y123678D01*
X461360Y123368D01*
X461207Y122852D01*
X461168Y122387D01*
X461245Y121922D01*
X461360Y121612D01*
X461590Y121302D01*
X461859Y121095D01*
X462127Y120992D01*
X462395D01*
X462664Y121095D01*
X462894Y121250D01*
X463085Y121457D01*
G01X463898Y122283D02*
X464167Y122645D01*
X464397Y122852D01*
X464704Y122955D01*
X464972Y122852D01*
X465164Y122645D01*
X465317Y122335D01*
X465355Y121973D01*
X465317Y121663D01*
X465164Y121353D01*
X464933Y121095D01*
X464665Y120992D01*
X464358Y121095D01*
X464090Y121405D01*
X463937Y121870D01*
X463898Y122387D01*
X463975Y123058D01*
X464090Y123420D01*
X464282Y123782D01*
X464550Y124040D01*
X464819Y124092D01*
X465087Y123988D01*
X465278Y123730D01*
G01X466398Y123575D02*
X466628Y123885D01*
X466897Y124040D01*
X467204Y124092D01*
X467587Y123988D01*
X467855Y123730D01*
X467932Y123420D01*
X467894Y123110D01*
X467740Y122852D01*
X466974Y122335D01*
X466628Y121973D01*
X466398Y121457D01*
X466322Y120992D01*
X467932D01*
G01X465799Y78275D02*
Y81375D01*
X466757D01*
X467064Y81220D01*
X467256Y81014D01*
X467332Y80600D01*
X467256Y80187D01*
X467026Y79929D01*
X466757Y79774D01*
X465799D01*
G01X466757D02*
X467332Y78275D01*
G01X469526D02*
Y81375D01*
X468107Y79154D01*
X470024D01*
G01X471566Y78275D02*
X471834Y78327D01*
X472141Y78482D01*
X472332Y78740D01*
X472409Y79102D01*
X472332Y79464D01*
X472102Y79774D01*
X471757Y79929D01*
X471374D01*
X471144Y80032D01*
X470952Y80290D01*
X470876Y80652D01*
X470991Y81014D01*
X471259Y81272D01*
X471566Y81375D01*
X471872Y81272D01*
X472141Y81014D01*
X472256Y80652D01*
X472179Y80290D01*
X471987Y80032D01*
X471757Y79929D01*
X471374D01*
X471029Y79774D01*
X470799Y79464D01*
X470722Y79102D01*
X470799Y78740D01*
X470991Y78482D01*
X471297Y78327D01*
X471566Y78275D01*
G01X472903Y34075D02*
X473669D01*
Y33145D01*
X473439Y32835D01*
X473171Y32628D01*
X472788Y32525D01*
X472404Y32628D01*
X472136Y32835D01*
X471906Y33145D01*
X471753Y33506D01*
X471676Y33920D01*
Y34281D01*
X471753Y34591D01*
X471906Y34953D01*
X472136Y35263D01*
X472366Y35470D01*
X472673Y35625D01*
X472941D01*
X473248Y35521D01*
X473478Y35315D01*
G01X474291Y32525D02*
Y35625D01*
X476054Y32525D01*
Y35625D01*
G01X476829Y32525D02*
Y35625D01*
X477596D01*
X477903Y35470D01*
X478133Y35263D01*
X478324Y34953D01*
X478478Y34591D01*
X478516Y34075D01*
X478478Y33558D01*
X478324Y33196D01*
X478133Y32886D01*
X477903Y32680D01*
X477596Y32525D01*
X476829D01*
G01X482290Y33558D02*
X483210D01*
G01X482712Y34230D02*
Y32886D01*
G01X485212Y32525D02*
Y35625D01*
X484752Y35005D01*
G01Y32525D02*
X485672D01*
G01X486869Y32990D02*
X487099Y32731D01*
X487367Y32576D01*
X487712Y32525D01*
X488057Y32628D01*
X488326Y32835D01*
X488517Y33196D01*
X488556Y33610D01*
X488479Y34023D01*
X488287Y34281D01*
X488019Y34488D01*
X487751Y34540D01*
X487482Y34488D01*
X487137Y34281D01*
X487252Y35625D01*
X488287D01*
G01X489254D02*
X490212Y32525D01*
X491171Y35625D01*
G01X494121Y33558D02*
X495118D01*
G01X497119Y32525D02*
Y35625D01*
X496659Y35005D01*
G01Y32525D02*
X497579D01*
G01X498776Y32990D02*
X499006Y32731D01*
X499274Y32576D01*
X499619Y32525D01*
X499964Y32628D01*
X500232Y32835D01*
X500424Y33196D01*
X500462Y33610D01*
X500386Y34023D01*
X500194Y34281D01*
X499926Y34488D01*
X499658Y34540D01*
X499389Y34488D01*
X499044Y34281D01*
X499159Y35625D01*
X500194D01*
G01X501161D02*
X502119Y32525D01*
X503078Y35625D01*
G54D11*
G01X283098Y120074D02*
Y123174D01*
X284057D01*
X284363Y123019D01*
X284555Y122812D01*
X284632Y122399D01*
X284555Y121986D01*
X284325Y121727D01*
X284057Y121572D01*
X283098D01*
G01X284057D02*
X284632Y120074D01*
G01X285713Y120436D02*
X285982Y120177D01*
X286288Y120074D01*
X286595Y120177D01*
X286863Y120487D01*
X287055Y120952D01*
X287132Y121417D01*
Y121986D01*
X287055Y122451D01*
X286863Y122864D01*
X286633Y123071D01*
X286365Y123174D01*
X286058Y123071D01*
X285828Y122864D01*
X285675Y122554D01*
X285598Y122141D01*
X285675Y121779D01*
X285867Y121417D01*
X286097Y121210D01*
X286365Y121159D01*
X286672Y121262D01*
X286902Y121520D01*
X287132Y121986D01*
G01X283600Y126314D02*
Y129414D01*
X284559D01*
X284865Y129259D01*
X285057Y129052D01*
X285134Y128639D01*
X285057Y128226D01*
X284827Y127967D01*
X284559Y127812D01*
X283600D01*
G01X284559D02*
X285134Y126314D01*
G01X286867D02*
X287135Y126366D01*
X287442Y126521D01*
X287634Y126779D01*
X287710Y127141D01*
X287634Y127502D01*
X287404Y127812D01*
X287059Y127967D01*
X286675D01*
X286445Y128071D01*
X286254Y128329D01*
X286177Y128691D01*
X286292Y129052D01*
X286560Y129311D01*
X286867Y129414D01*
X287174Y129311D01*
X287442Y129052D01*
X287557Y128691D01*
X287480Y128329D01*
X287289Y128071D01*
X287059Y127967D01*
X286675D01*
X286330Y127812D01*
X286100Y127502D01*
X286024Y127141D01*
X286100Y126779D01*
X286292Y126521D01*
X286599Y126366D01*
X286867Y126314D01*
G01X302419Y137288D02*
Y140388D01*
X303378D01*
X303684Y140233D01*
X303876Y140027D01*
X303953Y139614D01*
X303876Y139200D01*
X303646Y138942D01*
X303378Y138787D01*
X302419D01*
G01X303378D02*
X303953Y137288D01*
G01X304958Y138580D02*
X305226Y138942D01*
X305456Y139148D01*
X305763Y139252D01*
X306031Y139148D01*
X306223Y138942D01*
X306376Y138632D01*
X306414Y138270D01*
X306376Y137960D01*
X306223Y137650D01*
X305992Y137392D01*
X305724Y137288D01*
X305418Y137392D01*
X305149Y137702D01*
X304996Y138167D01*
X304958Y138684D01*
X305034Y139355D01*
X305149Y139717D01*
X305341Y140079D01*
X305609Y140337D01*
X305878Y140388D01*
X306146Y140285D01*
X306338Y140027D01*
G01X304433Y149356D02*
X304203Y149512D01*
X303934Y149615D01*
X303628D01*
X303283Y149460D01*
X303014Y149202D01*
X302823Y148892D01*
X302669Y148375D01*
X302631Y147910D01*
X302708Y147445D01*
X302823Y147135D01*
X303053Y146825D01*
X303321Y146618D01*
X303589Y146515D01*
X303858D01*
X304126Y146618D01*
X304356Y146773D01*
X304548Y146980D01*
G01X305246D02*
X305476Y146722D01*
X305744Y146567D01*
X306089Y146515D01*
X306434Y146618D01*
X306703Y146825D01*
X306894Y147186D01*
X306933Y147600D01*
X306856Y148013D01*
X306664Y148272D01*
X306396Y148478D01*
X306128Y148530D01*
X305859Y148478D01*
X305514Y148272D01*
X305629Y149615D01*
X306664D01*
G01X314673Y137214D02*
Y140314D01*
X315632D01*
X315938Y140159D01*
X316130Y139952D01*
X316206Y139539D01*
X316130Y139125D01*
X315900Y138867D01*
X315632Y138712D01*
X314673D01*
G01X315632D02*
X316206Y137214D01*
G01X317863D02*
X317940Y137885D01*
X318055Y138454D01*
X318208Y138970D01*
X318400Y139539D01*
X318706Y140314D01*
X317173D01*
G01X399883Y70725D02*
Y65725D01*
X379883D01*
Y85725D01*
X399883D01*
Y70725D01*
G01X1588782Y5038809D02*
X1586839Y5036824D01*
X1576999D01*
X1591841Y5035749D01*
X1588782Y5038809D01*
G01X1643189Y5038147D02*
X1639882Y5035088D01*
X1630084D01*
X1628347D01*
X1612389D01*
X1614332Y5033103D01*
X1616399Y5033558D01*
X1619583Y5033765D01*
X1647117D01*
X1643189Y5038147D01*
G01X1624626Y5042943D02*
X1624172Y5042530D01*
X1625949Y5040462D01*
X1627479Y5037816D01*
X1628347Y5035088D01*
X1630084D01*
X1631241Y5036700D01*
X1631159Y5039222D01*
X1630539Y5039884D01*
X1628223Y5041372D01*
X1624626Y5042943D01*
G01X1691437Y5042075D02*
X1689494Y5039884D01*
X1670476D01*
X1694951Y5039222D01*
X1691437Y5042075D01*
G54D12*
G01X29380Y78386D02*
Y82716D01*
X37254D01*
Y77992D01*
X29380D01*
Y78386D01*
G01Y85610D02*
Y89941D01*
X37254D01*
Y85216D01*
X29380D01*
Y85610D01*
G01Y92835D02*
Y97165D01*
X37254D01*
Y92441D01*
X29380D01*
Y92835D01*
G01Y100059D02*
Y104390D01*
X37254D01*
Y99665D01*
X29380D01*
Y100059D01*
G01Y107284D02*
Y111614D01*
X37254D01*
Y106890D01*
X29380D01*
Y107284D01*
G01Y114508D02*
Y118839D01*
X37254D01*
Y114114D01*
X29380D01*
Y114508D01*
G01Y121732D02*
Y126063D01*
X37254D01*
Y121339D01*
X29380D01*
Y121732D01*
G01Y128957D02*
Y133287D01*
X37254D01*
Y128563D01*
X29380D01*
Y128957D01*
G01X49291Y158730D02*
X53622D01*
Y150856D01*
X48898D01*
Y158730D01*
X49291D01*
G01X64627Y83742D02*
Y79411D01*
X56753D01*
Y84135D01*
X64627D01*
Y83742D01*
G01X56753Y88909D02*
Y93240D01*
X64627D01*
Y88515D01*
X56753D01*
Y88909D01*
G01X55266Y158730D02*
X59597D01*
Y150856D01*
X54872D01*
Y158730D01*
X55266D01*
G01X67579Y98406D02*
Y108248D01*
X61280D01*
Y98012D01*
X67579D01*
Y98406D01*
G01X61240Y158730D02*
X65571D01*
Y150856D01*
X60846D01*
Y158730D01*
X61240D01*
G01X75778Y83742D02*
Y79411D01*
X67904D01*
Y84135D01*
X75778D01*
Y83742D01*
G01X67904Y88909D02*
Y93240D01*
X75778D01*
Y88515D01*
X67904D01*
Y88909D01*
G01X74813Y98632D02*
X70482D01*
Y106506D01*
X75207D01*
Y98632D01*
X74813D01*
G01X67215Y158730D02*
X71545D01*
Y150856D01*
X66821D01*
Y158730D01*
X67215D01*
G01X73189D02*
X77520D01*
Y150856D01*
X72795D01*
Y158730D01*
X73189D01*
G01X79163D02*
X83494D01*
Y150856D01*
X78770D01*
Y158730D01*
X79163D01*
G01X86212Y42814D02*
X90542D01*
Y34940D01*
X85818D01*
Y42814D01*
X86212D01*
G01X87791Y52088D02*
Y56419D01*
X95665D01*
Y51695D01*
X87791D01*
Y52088D01*
G01X87756Y58868D02*
Y63199D01*
X95630D01*
Y58474D01*
X87756D01*
Y58868D01*
G01Y67165D02*
Y71496D01*
X95630D01*
Y66772D01*
X87756D01*
Y67165D01*
G01Y75463D02*
Y79793D01*
X95630D01*
Y75069D01*
X87756D01*
Y75463D01*
G01X89358Y124036D02*
X93688D01*
Y116162D01*
X88964D01*
Y124036D01*
X89358D01*
G01X93061Y134272D02*
X88730D01*
Y142146D01*
X93455D01*
Y134272D01*
X93061D01*
G01X85138Y158730D02*
X89468D01*
Y150856D01*
X84744D01*
Y158730D01*
X85138D01*
G01X91112D02*
X95443D01*
Y150856D01*
X90718D01*
Y158730D01*
X91112D01*
G01X94679Y42863D02*
X99010D01*
Y34989D01*
X94285D01*
Y42863D01*
X94679D01*
G01X104244Y42637D02*
X108574D01*
Y34763D01*
X103850D01*
Y42637D01*
X104244D01*
G01X105388Y150854D02*
X101057D01*
Y158728D01*
X105782D01*
Y150854D01*
X105388D01*
G01X112642Y42471D02*
X116973D01*
Y34597D01*
X112249D01*
Y42471D01*
X112642D01*
G01X108671Y67579D02*
Y71909D01*
X116545D01*
Y67185D01*
X108671D01*
Y67579D01*
G01X112224Y86004D02*
Y90335D01*
X120098D01*
Y85610D01*
X112224D01*
Y86004D01*
G01X120098Y102795D02*
Y98465D01*
X112224D01*
Y103189D01*
X120098D01*
Y102795D01*
G01Y96368D02*
Y92037D01*
X112224D01*
Y96761D01*
X120098D01*
Y96368D01*
G01X113199Y150854D02*
X108868D01*
Y158728D01*
X113592D01*
Y150854D01*
X113199D01*
G01X125272Y34763D02*
X120941D01*
Y42637D01*
X125666D01*
Y34763D01*
X125272D01*
G01X131474Y56829D02*
Y52498D01*
X123600D01*
Y57223D01*
X131474D01*
Y56829D01*
G01X123600Y59732D02*
Y64063D01*
X131474D01*
Y59339D01*
X123600D01*
Y59732D01*
G01X121010Y150854D02*
X116679D01*
Y158728D01*
X121403D01*
Y150854D01*
X121010D01*
G01X129881Y42637D02*
X134211D01*
Y34763D01*
X129487D01*
Y42637D01*
X129881D01*
G01X130866Y129544D02*
X135197D01*
Y121670D01*
X130472D01*
Y129544D01*
X130866D01*
G01X134588Y133831D02*
X130257D01*
Y141705D01*
X134981D01*
Y133831D01*
X134588D01*
G01X126186Y158728D02*
X130517D01*
Y150854D01*
X125792D01*
Y158728D01*
X126186D01*
G01X142902Y121670D02*
X138572D01*
Y129544D01*
X143296D01*
Y121670D01*
X142902D01*
G01X142687Y133831D02*
X138356D01*
Y141705D01*
X143080D01*
Y133831D01*
X142687D01*
G01X140631Y158728D02*
X144962D01*
Y150854D01*
X140238D01*
Y158728D01*
X140631D01*
G01X137346Y150854D02*
X133015D01*
Y158728D01*
X137739D01*
Y150854D01*
X137346D01*
G01X217435Y36183D02*
Y40514D01*
X225309D01*
Y35789D01*
X217435D01*
Y36183D01*
G01X228774Y36183D02*
Y40514D01*
X236648D01*
Y35789D01*
X228774D01*
Y36183D01*
G01X240112D02*
Y40514D01*
X247986D01*
Y35789D01*
X240112D01*
Y36183D01*
G01X251451Y36183D02*
Y40514D01*
X259325D01*
Y35789D01*
X251451D01*
Y36183D01*
G01X253141Y109332D02*
X257471D01*
Y101458D01*
X252747D01*
Y109332D01*
X253141D01*
G01X262790Y36183D02*
Y40514D01*
X270664D01*
Y35789D01*
X262790D01*
Y36183D01*
G01X260887Y89864D02*
Y94194D01*
X268761D01*
Y89470D01*
X260887D01*
Y89864D01*
G01X269194Y121242D02*
Y116911D01*
X261320D01*
Y121635D01*
X269194D01*
Y121242D01*
G01X288281Y44143D02*
Y39812D01*
X280406D01*
Y44537D01*
X288281D01*
Y44143D01*
G01X286999Y63150D02*
Y58819D01*
X279125D01*
Y63544D01*
X286999D01*
Y63150D01*
G01Y70681D02*
Y66350D01*
X279125D01*
Y71074D01*
X286999D01*
Y70681D01*
G01Y78210D02*
Y73880D01*
X279125D01*
Y78604D01*
X286999D01*
Y78210D01*
G01X287186Y85582D02*
Y81252D01*
X279312D01*
Y85976D01*
X287186D01*
Y85582D01*
G01X296749Y123493D02*
Y119162D01*
X288875D01*
Y123887D01*
X296749D01*
Y123493D01*
G01X298291Y44143D02*
Y39812D01*
X290416D01*
Y44537D01*
X298291D01*
Y44143D01*
G01X296975Y129684D02*
Y125353D01*
X289101D01*
Y130078D01*
X296975D01*
Y129684D01*
G01X300539Y40260D02*
Y44590D01*
X308414D01*
Y39866D01*
X300539D01*
Y40260D01*
G01X306698Y63150D02*
Y58819D01*
X298824D01*
Y63544D01*
X306698D01*
Y63150D01*
G01Y69902D02*
Y65571D01*
X298824D01*
Y70296D01*
X306698D01*
Y69902D01*
G01X298824Y72717D02*
Y77048D01*
X306698D01*
Y72324D01*
X298824D01*
Y72717D01*
G01X306698Y83406D02*
Y79076D01*
X298824D01*
Y83800D01*
X306698D01*
Y83406D01*
G01X313170Y100184D02*
Y95853D01*
X305296D01*
Y100577D01*
X313170D01*
Y100184D01*
G01X305217Y102772D02*
Y107103D01*
X313091D01*
Y102379D01*
X305217D01*
Y102772D01*
G01X308619Y136476D02*
Y132145D01*
X300745D01*
Y136869D01*
X308619D01*
Y136476D01*
G01X300902Y141889D02*
Y146220D01*
X308776D01*
Y141495D01*
X300902D01*
Y141889D01*
G01X310436Y40206D02*
Y44537D01*
X318311D01*
Y39812D01*
X310436D01*
Y40206D01*
G01X312753Y132588D02*
Y136918D01*
X320627D01*
Y132194D01*
X312753D01*
Y132588D01*
G01X312851Y141790D02*
Y146121D01*
X320725D01*
Y141397D01*
X312851D01*
Y141790D01*
G01X328320Y44143D02*
Y39812D01*
X320446D01*
Y44537D01*
X328320D01*
Y44143D01*
G01X325847Y63150D02*
Y58819D01*
X317973D01*
Y63544D01*
X325847D01*
Y63150D01*
G01X327252Y71828D02*
X317410D01*
Y65529D01*
X327646D01*
Y71828D01*
X327252D01*
G01X317744Y72791D02*
X327587D01*
Y79090D01*
X317351D01*
Y72791D01*
X317744D01*
G01X318336Y80538D02*
Y84868D01*
X326210D01*
Y80144D01*
X318336D01*
Y80538D01*
G01X318865Y96218D02*
Y100548D01*
X326739D01*
Y95824D01*
X318865D01*
Y96218D01*
G01X318840Y102772D02*
Y107103D01*
X326714D01*
Y102379D01*
X318840D01*
Y102772D01*
G01X330456Y40206D02*
Y44537D01*
X338330D01*
Y39812D01*
X330456D01*
Y40206D01*
G01X335241Y77774D02*
Y82105D01*
X343115D01*
Y77380D01*
X335241D01*
Y77774D01*
G01X342152Y118887D02*
Y114556D01*
X334278D01*
Y119281D01*
X342152D01*
Y118887D01*
G01X342261Y125098D02*
Y120767D01*
X334387D01*
Y125491D01*
X342261D01*
Y125098D01*
G01X337910Y129979D02*
X333580D01*
Y137853D01*
X338304D01*
Y129979D01*
X337910D01*
G01X340466Y40206D02*
Y44537D01*
X348340D01*
Y39812D01*
X340466D01*
Y40206D01*
G01X349083Y62140D02*
Y57810D01*
X341209D01*
Y62534D01*
X349083D01*
Y62140D01*
G01Y69187D02*
Y64856D01*
X341209D01*
Y69580D01*
X349083D01*
Y69187D01*
G01Y76233D02*
Y71902D01*
X341209D01*
Y76627D01*
X349083D01*
Y76233D01*
G01X347143Y130432D02*
Y140275D01*
X340843D01*
Y130039D01*
X347143D01*
Y130432D01*
G01X350476Y40206D02*
Y44537D01*
X358350D01*
Y39812D01*
X350476D01*
Y40206D01*
G01X355590Y81711D02*
Y77380D01*
X347716D01*
Y82105D01*
X355590D01*
Y81711D01*
G01X360486Y40206D02*
Y44537D01*
X368360D01*
Y39812D01*
X360486D01*
Y40206D01*
G01X368066Y67530D02*
Y63200D01*
X360192D01*
Y67924D01*
X368066D01*
Y67530D01*
G01X360192Y70688D02*
Y75019D01*
X368066D01*
Y70295D01*
X360192D01*
Y70688D01*
G01X360192Y77784D02*
Y82114D01*
X368066D01*
Y77390D01*
X360192D01*
Y77784D01*
G01X370495Y40206D02*
Y44537D01*
X378369D01*
Y39812D01*
X370495D01*
Y40206D01*
G01X380464Y142651D02*
X376133D01*
Y150525D01*
X380858D01*
Y142651D01*
X380464D01*
G01X380505Y40206D02*
Y44537D01*
X388379D01*
Y39812D01*
X380505D01*
Y40206D01*
G01X390515D02*
Y44537D01*
X398389D01*
Y39812D01*
X390515D01*
Y40206D01*
G01X417501Y104372D02*
X410020D01*
Y90198D01*
X417894D01*
Y104372D01*
X417501D01*
G01X415631Y113948D02*
X411300D01*
Y121822D01*
X416024D01*
Y113948D01*
X415631D01*
G01Y123476D02*
X411300D01*
Y131350D01*
X416024D01*
Y123476D01*
X415631D01*
G01X430247Y56025D02*
X420404D01*
Y49726D01*
X430641D01*
Y56025D01*
X430247D01*
G01Y67275D02*
X420404D01*
Y60976D01*
X430641D01*
Y67275D01*
X430247D01*
G01X419981Y72285D02*
Y76616D01*
X427855D01*
Y71891D01*
X419981D01*
Y72285D01*
G01X424450Y90435D02*
X420119D01*
Y98309D01*
X424843D01*
Y90435D01*
X424450D01*
G01X420513Y107531D02*
X424843D01*
Y99657D01*
X420119D01*
Y107531D01*
X420513D01*
G01X429341Y43761D02*
Y39431D01*
X421467D01*
Y44155D01*
X429341D01*
Y43761D01*
G01X430739Y90395D02*
X426408D01*
Y98269D01*
X431133D01*
Y90395D01*
X430739D01*
G01X430621Y99608D02*
X426290D01*
Y107482D01*
X431015D01*
Y99608D01*
X430621D01*
G01X434637Y61271D02*
Y65602D01*
X442511D01*
Y60878D01*
X434637D01*
Y61271D01*
G01X429518Y133406D02*
Y137736D01*
X437392D01*
Y133012D01*
X429518D01*
Y133406D01*
G01X455562Y65208D02*
Y60878D01*
X447688D01*
Y65602D01*
X455562D01*
Y65208D01*
G01X460631Y76222D02*
Y71891D01*
X452757D01*
Y76616D01*
X460631D01*
Y76222D01*
G01X451694Y121153D02*
X456024D01*
Y113279D01*
X451300D01*
Y121153D01*
X451694D01*
G01X459952Y60385D02*
X469794D01*
Y66685D01*
X459558D01*
Y60385D01*
X459952D01*
G01X464568Y72285D02*
Y76616D01*
X472442D01*
Y71891D01*
X464568D01*
Y72285D01*
G54D13*
G01X82077Y108858D02*
G03I-492J0D01*
G01X118307Y52087D02*
G03I-492J0D01*
G01X135291Y79825D02*
G03I-492J0D01*
G01X244439Y58514D02*
G03I-492J0D01*
G01X275634Y96774D02*
Y114074D01*
X261434D01*
Y96774D01*
X275634D01*
G01X277897Y100453D02*
G03I-492J0D01*
G01X302782Y130668D02*
G03I-492J0D01*
G01X365754Y86164D02*
G03I-492J0D01*
G01X421162Y133043D02*
G03I-492J0D01*
G01X440493Y56143D02*
G03I-492J0D01*
G01X465326Y138515D02*
G03I-492J0D01*
G01X471654Y83161D02*
G03I-492J0D01*
G54D14*
G01X486909Y0D02*
X19685D01*
G02X0Y19685I0J19685D01*
G01Y208661D01*
G02X19685Y228346I19685J0D01*
G01X486909D01*
G02X506594Y208661I0J-19685D01*
G01Y19685D01*
G02X486909Y0I-19685J0D01*
G01X1413Y34760D02*
Y66256D01*
X19524D01*
Y34760D01*
X1413D01*
G01Y69100D02*
Y100596D01*
X19524D01*
Y69100D01*
X1413D01*
G01Y103441D02*
Y134937D01*
X19524D01*
Y103441D01*
X1413D01*
G01X21346Y76819D02*
X82370D01*
Y35480D01*
X21346D01*
Y76819D01*
G01X41624Y679D02*
X44124Y5679D01*
Y8179D01*
G01X39124Y32848D02*
X79124D01*
Y348D01*
X39124D01*
Y32848D01*
G01X79124Y8179D02*
X39124D01*
G01X79124Y10348D02*
X39124D01*
G01X79124Y22848D02*
X39124D01*
G01X79124Y30348D02*
X39124D01*
G01X56624Y679D02*
X54124Y5679D01*
Y8179D01*
G01X55876Y137136D02*
X86584D01*
Y122470D01*
X55876D01*
Y137136D01*
G01X61624Y679D02*
X64124Y5679D01*
Y8179D01*
G01X76624Y679D02*
X74124Y5679D01*
Y8179D01*
G01X83061Y32848D02*
X123061D01*
Y348D01*
X83061D01*
Y32848D01*
G01X123061Y8179D02*
X83061D01*
G01X123061Y10348D02*
X83061D01*
G01X123061Y22848D02*
X83061D01*
G01X123061Y30348D02*
X83061D01*
G01X85561Y679D02*
X88061Y5679D01*
Y8179D01*
G01X87884Y88386D02*
Y107677D01*
X100482D01*
Y88386D01*
X87884D01*
G01X100561Y679D02*
X98061Y5679D01*
Y8179D01*
G01X96447Y137136D02*
X127156D01*
Y122470D01*
X96447D01*
Y137136D01*
G01X105561Y679D02*
X108061Y5679D01*
Y8179D01*
G01X113583Y64685D02*
Y53268D01*
X111024D01*
Y64685D01*
X113583D01*
G01X120561Y679D02*
X118061Y5679D01*
Y8179D01*
G01X122201Y75593D02*
X133618D01*
Y73034D01*
X122201D01*
Y75593D01*
G01X129499Y679D02*
X131999Y5679D01*
Y8179D01*
G01X126999Y32848D02*
X166999D01*
Y348D01*
X126999D01*
Y32848D01*
G01X166999Y8179D02*
X126999D01*
G01X166999Y10348D02*
X126999D01*
G01X166999Y22848D02*
X126999D01*
G01X166999Y30348D02*
X126999D01*
G01X144499Y679D02*
X141999Y5679D01*
Y8179D01*
G01X149499Y679D02*
X151999Y5679D01*
Y8179D01*
G01X164499Y679D02*
X161999Y5679D01*
Y8179D01*
G01X237648Y133317D02*
Y57726D01*
X162057D01*
Y133317D01*
X237648D01*
G01X173435Y679D02*
X175935Y5679D01*
Y8179D01*
G01X170935Y32848D02*
X210935D01*
Y348D01*
X170935D01*
Y32848D01*
G01X210935Y8179D02*
X170935D01*
G01X210935Y10348D02*
X170935D01*
G01X210935Y22848D02*
X170935D01*
G01X210935Y30348D02*
X170935D01*
G01X188435Y679D02*
X185935Y5679D01*
Y8179D01*
G01X193435Y679D02*
X195935Y5679D01*
Y8179D01*
G01X208435Y679D02*
X205935Y5679D01*
Y8179D01*
G01X218159Y679D02*
X220659Y5679D01*
Y8179D01*
G01X215659Y348D02*
Y32848D01*
X275659D01*
Y348D01*
X215659D01*
G01X275659Y8179D02*
X215715D01*
X215707Y8171D01*
G01X275659Y10348D02*
X215730D01*
X215707Y10372D01*
G01X275659Y22848D02*
X235659D01*
X215707Y22841D01*
G01X275659Y30348D02*
X235659D01*
X215683Y30317D01*
G01X233159Y679D02*
X230659Y5679D01*
Y8179D01*
G01X238159Y679D02*
X240659Y5679D01*
Y8179D01*
G01X253159Y679D02*
X250659Y5679D01*
Y8179D01*
G01X258159Y679D02*
X260659Y5679D01*
Y8179D01*
G01X273159Y679D02*
X270659Y5679D01*
Y8179D01*
G01X279596Y349D02*
Y32849D01*
X339597D01*
Y349D01*
X279596D01*
G01X339597Y8180D02*
X279652D01*
X279644Y8171D01*
G01X339597Y10349D02*
X279667D01*
X279644Y10372D01*
G01X339597Y22849D02*
X299596D01*
X279644Y22841D01*
G01X339597Y30349D02*
X299596D01*
X279620Y30317D01*
G01X282096Y680D02*
X284596Y5680D01*
Y8180D01*
G01X297096Y680D02*
X294596Y5680D01*
Y8180D01*
G01X302097Y680D02*
X304596Y5680D01*
Y8180D01*
G01X308589Y110196D02*
Y129487D01*
X321188D01*
Y110196D01*
X308589D01*
G01X317096Y680D02*
X314597Y5680D01*
Y8180D01*
G01X322096Y680D02*
X324597Y5680D01*
Y8180D01*
G01X337097Y680D02*
X334596Y5680D01*
Y8180D01*
G01X346034Y679D02*
X348534Y5679D01*
Y8179D01*
G01X343534Y348D02*
Y32848D01*
X403534D01*
Y348D01*
X343534D01*
G01X403534Y8179D02*
X343589D01*
X343581Y8171D01*
G01X403534Y10348D02*
X343604D01*
X343581Y10372D01*
G01X403534Y22848D02*
X363534D01*
X343581Y22840D01*
G01X403534Y30348D02*
X363534D01*
X343558Y30317D01*
G01X358962Y106636D02*
Y87345D01*
X346364D01*
Y106636D01*
X358962D01*
G01X361034Y679D02*
X358534Y5679D01*
Y8179D01*
G01X366034Y679D02*
X368534Y5679D01*
Y8179D01*
G01X381034Y679D02*
X378534Y5679D01*
Y8179D01*
G01X382186Y124037D02*
X376280D01*
Y96478D01*
X382186D01*
G01X401487Y129372D02*
X399518Y127403D01*
X377471D01*
Y137639D01*
X399518D01*
X401487Y135671D01*
Y129372D01*
G01X386034Y679D02*
X388534Y5679D01*
Y8179D01*
G01X394007Y132521D02*
X384952D01*
G01X382612Y162301D02*
X471195D01*
Y139466D01*
X382612D01*
Y162301D01*
G01X391251Y132521D02*
X388889Y130159D01*
Y134884D01*
X391251Y132521D01*
G01Y130159D02*
Y134884D01*
G01X401034Y679D02*
X398534Y5679D01*
Y8179D01*
G01X397934Y124037D02*
X403839D01*
Y96478D01*
X397934D01*
G01X409970Y680D02*
X412470Y5680D01*
Y8180D01*
G01X407470Y348D02*
Y32848D01*
X467471D01*
Y348D01*
X407470D01*
G01X467471Y8180D02*
X407526D01*
X407518Y8171D01*
G01X467471Y10348D02*
X407541D01*
X407518Y10372D01*
G01X467471Y22848D02*
X427470D01*
X407518Y22841D01*
G01X467471Y30348D02*
X427470D01*
X407494Y30317D01*
G01X424970Y680D02*
X422470Y5680D01*
Y8180D01*
G01X428741Y112570D02*
X437796D01*
G01X428741Y131862D02*
X437796D01*
G01X428872Y156789D02*
G03I-1968J0D01*
G01X429971Y680D02*
X432470Y5680D01*
Y8180D01*
G01X447154Y71384D02*
X434556D01*
G01X447154Y77683D02*
X434556D01*
G01X434444Y89157D02*
Y101756D01*
G01Y93094D02*
X440743D01*
G01X444970Y680D02*
X442471Y5680D01*
Y8180D01*
G01X443217Y71384D02*
Y77683D01*
G01X440743Y89157D02*
Y101756D01*
G01X449970Y680D02*
X452470Y5680D01*
Y8180D01*
G01X446300Y35671D02*
Y54962D01*
X458898D01*
Y35671D01*
X446300D01*
G01X464863Y103634D02*
Y84342D01*
X452265D01*
Y103634D01*
X464863D01*
G01X458534Y134185D02*
Y110563D01*
G01X464970Y680D02*
X462470Y5680D01*
Y8180D01*
G01X470744Y63535D02*
G03I-557J0D01*
G01X471133Y134185D02*
Y110563D01*
G54D15*
G01X248425Y166585D02*
X39370D01*
Y227699D01*
X248217D01*
X248425Y227490D01*
Y166585D01*
G01X467224Y166624D02*
X258169D01*
Y227738D01*
X467016D01*
X467224Y227530D01*
Y166624D01*
G54D16*
G01X92805Y103740D02*
G03I-984J0D01*
G01X235089Y61270D02*
G03I-984J0D01*
G01X313511Y125550D02*
G03I-984J0D01*
G01X356009Y91282D02*
G03I-984J0D01*
G01X451221Y51025D02*
G03I-984J0D01*
G01X461910Y88279D02*
G03I-984J0D01*
M02*
