G04 ================== begin FILE IDENTIFICATION RECORD ==================*
G04 Layout Name:  F:/对外部分项目/信号发生器改版/Hardware/Pcb/DDS.brd*
G04 Film Name:    SOLDERMASK_TOP*
G04 File Format:  Gerber RS274X*
G04 File Origin:  Cadence Allegro 16.6-2015-S066*
G04 Origin Date:  Thu Mar 09 15:33:36 2017*
G04 *
G04 Layer:  BOARD GEOMETRY/SOLDERMASK_TOP*
G04 Layer:  PIN/SOLDERMASK_TOP*
G04 Layer:  PACKAGE GEOMETRY/SOLDERMASK_TOP*
G04 Layer:  BOARD GEOMETRY/OUTLINE*
G04 *
G04 Offset:    (0.000 0.000)*
G04 Mirror:    No*
G04 Mode:      Positive*
G04 Rotation:  0*
G04 FullContactRelief:  No*
G04 UndefLineWidth:     6.000*
G04 ================== end FILE IDENTIFICATION RECORD ====================*
%FSLAX25Y25*MOIN*%
%IR0*IPPOS*OFA0.00000B0.00000*MIA0B0*SFA1.00000B1.00000*%
%ADD25R,.062992X.062992*%
%ADD27R,.068898X.026575*%
%ADD10C,.177165*%
%ADD26R,.127953X.07874*%
%ADD22R,.01X.059055*%
%ADD21R,.059055X.01*%
%ADD17R,.061024X.023622*%
%ADD14R,.037402X.016732*%
%ADD12R,.016732X.037402*%
%ADD23R,.043307X.055118*%
%ADD20R,.023622X.03937*%
%ADD29R,.100394X.135827*%
%ADD19R,.03937X.023622*%
%ADD15O,.015748X.051181*%
%ADD11C,.059055*%
%ADD32R,.090551X.090551*%
%ADD18C,.070866*%
%ADD16R,.055118X.022638*%
%ADD24R,.022638X.055118*%
%ADD13C,.098425*%
%ADD28R,.076772X.023622*%
%ADD31R,.047244X.070866*%
%ADD30R,.070866X.047244*%
%ADD33C,.003937*%
G75*
%LPD*%
G75*
G54D10*
X17087Y11811D03*
Y208661D03*
X51299Y181427D03*
X236496D03*
X270098Y181466D03*
X455295D03*
X489528Y11811D03*
Y208661D03*
G54D11*
X7713Y42634D03*
Y50508D03*
Y58382D03*
Y76974D03*
Y84848D03*
Y92722D03*
Y111315D03*
Y127063D03*
Y119189D03*
X26858Y41150D03*
Y71150D03*
X36858Y41150D03*
Y71150D03*
X76858Y41150D03*
Y71150D03*
X162758Y154202D03*
X172758D03*
X182758D03*
X192758D03*
X202758D03*
X212758D03*
X384883Y70724D03*
Y80724D03*
X394883Y70724D03*
Y80724D03*
X392455Y151278D03*
X402297D03*
X412140D03*
X421982D03*
X431825D03*
X441667D03*
X451510D03*
X461352D03*
G54D20*
X124169Y78841D03*
X127909Y69786D03*
X131650Y78841D03*
G54D30*
X434162Y74533D03*
X447548D03*
G54D12*
X30561Y80354D03*
Y87579D03*
Y94803D03*
Y102028D03*
Y109252D03*
Y116476D03*
Y123701D03*
Y130925D03*
X36073Y80354D03*
Y87579D03*
Y94803D03*
Y102028D03*
Y109252D03*
Y116476D03*
Y123701D03*
Y130925D03*
X57934Y81773D03*
Y90878D03*
X63446Y81773D03*
Y90878D03*
X69085Y81773D03*
X74597D03*
Y90878D03*
X69085D03*
X88972Y54057D03*
X88937Y60837D03*
Y69134D03*
Y77431D03*
X94484Y54057D03*
X94449Y60837D03*
Y69134D03*
Y77431D03*
X115364Y69547D03*
X109852D03*
X113406Y87972D03*
Y100827D03*
Y94399D03*
X124781Y54861D03*
Y61701D03*
X118917Y87972D03*
Y100827D03*
Y94399D03*
X130293Y54861D03*
Y61701D03*
X218616Y38152D03*
X229955D03*
X224128D03*
X235467D03*
X246805D03*
X241293D03*
X252632D03*
X258144D03*
X263971D03*
X262068Y91832D03*
X262501Y119273D03*
X269483Y38152D03*
X267580Y91832D03*
X268013Y119273D03*
X280306Y61182D03*
Y68712D03*
Y76242D03*
X280493Y83614D03*
X281588Y42174D03*
X287100D03*
X285818Y61182D03*
Y68712D03*
Y76242D03*
X286005Y83614D03*
X291598Y42174D03*
X297109D03*
X290056Y121525D03*
X295568D03*
X290282Y127716D03*
X295794D03*
X301720Y42228D03*
X300005Y61182D03*
X305517D03*
X300005Y67934D03*
X305517D03*
Y74686D03*
X300005D03*
Y81438D03*
X305517D03*
X301926Y134507D03*
X302084Y143858D03*
X311617Y42174D03*
X307232Y42228D03*
X306477Y98215D03*
X311989D03*
X311910Y104741D03*
X306398D03*
X307438Y134507D03*
X313934Y134556D03*
X307595Y143858D03*
X314032Y143759D03*
X321627Y42174D03*
X317129D03*
X319154Y61182D03*
X319517Y82506D03*
X320047Y98186D03*
X320021Y104741D03*
X319446Y134556D03*
X319544Y143759D03*
X327139Y42174D03*
X324666Y61182D03*
X325029Y82506D03*
X325558Y98186D03*
X325533Y104741D03*
X337149Y42174D03*
X331637D03*
X336422Y79742D03*
X335460Y116918D03*
X335568Y123129D03*
X347159Y42174D03*
X341647D03*
X342390Y60172D03*
Y67218D03*
Y74265D03*
X341934Y79742D03*
X340971Y116918D03*
X341080Y123129D03*
X351657Y42174D03*
X347902Y60172D03*
Y67218D03*
Y74265D03*
X348897Y79742D03*
X354409D03*
X357169Y42174D03*
X361666D03*
X361373Y65562D03*
Y72657D03*
Y79752D03*
X367178Y42174D03*
X371676D03*
X366885Y65562D03*
Y72657D03*
Y79752D03*
X377188Y42174D03*
X387198D03*
X381686D03*
X391696D03*
X397208D03*
X421162Y74254D03*
X422648Y41793D03*
X428160D03*
X426674Y74254D03*
X435818Y63240D03*
X436211Y135374D03*
X430699D03*
X441330Y63240D03*
X448869D03*
X453938Y74254D03*
X454381Y63240D03*
X459450Y74254D03*
X465749D03*
X471261D03*
G54D21*
X157726Y61073D03*
Y63041D03*
Y65010D03*
Y66978D03*
Y68947D03*
Y70915D03*
Y72884D03*
Y74852D03*
Y76821D03*
Y78789D03*
Y80758D03*
Y82726D03*
Y84695D03*
Y86663D03*
Y88632D03*
Y90600D03*
Y92569D03*
Y94537D03*
Y96506D03*
Y98474D03*
Y100443D03*
Y102412D03*
Y104380D03*
Y106348D03*
Y108317D03*
Y110286D03*
Y112254D03*
Y114222D03*
Y116191D03*
Y118160D03*
Y120128D03*
Y122096D03*
Y124065D03*
Y126034D03*
Y128002D03*
Y129970D03*
X241978Y66978D03*
Y65010D03*
Y63041D03*
Y61073D03*
Y74852D03*
Y72884D03*
Y70915D03*
Y68947D03*
Y82726D03*
Y80758D03*
Y78789D03*
Y76821D03*
Y90600D03*
Y88632D03*
Y86663D03*
Y84695D03*
Y98474D03*
Y96506D03*
Y94537D03*
Y92569D03*
Y106348D03*
Y104380D03*
Y102412D03*
Y100443D03*
Y116191D03*
Y114222D03*
Y112254D03*
Y110286D03*
Y108317D03*
Y124065D03*
Y122096D03*
Y120128D03*
Y118160D03*
Y129970D03*
Y128002D03*
Y126034D03*
G54D31*
X437593Y88763D03*
Y102149D03*
G54D13*
X49124Y8640D03*
X69124D03*
X93061D03*
X113061D03*
X136999D03*
X156999D03*
X180935D03*
X200935D03*
X225659D03*
X245659D03*
X265659D03*
X289597D03*
X309596D03*
X329596D03*
X353534D03*
X373534D03*
X393534D03*
X417471D03*
X437470D03*
X457470D03*
G54D22*
X165404Y53396D03*
Y137648D03*
X173278Y53396D03*
X171309D03*
X169341D03*
X167372D03*
Y137648D03*
X169341D03*
X171309D03*
X173278D03*
X181152Y53396D03*
X179183D03*
X177215D03*
X175246D03*
Y137648D03*
X177215D03*
X179183D03*
X181152D03*
X189026Y53396D03*
X187057D03*
X185089D03*
X183120D03*
Y137648D03*
X185089D03*
X187057D03*
X189026D03*
X196900Y53396D03*
X194931D03*
X192963D03*
X190994D03*
Y137648D03*
X192963D03*
X194931D03*
X196900D03*
X206742Y53396D03*
X204774D03*
X202805D03*
X200837D03*
X198868D03*
Y137648D03*
X200837D03*
X202805D03*
X204774D03*
X206742D03*
X214616Y53396D03*
X212648D03*
X210679D03*
X208711D03*
Y137648D03*
X210679D03*
X212648D03*
X214616D03*
X222490Y53396D03*
X220522D03*
X218553D03*
X216585D03*
Y137648D03*
X218553D03*
X220522D03*
X222490D03*
X230364Y53396D03*
X228396D03*
X226427D03*
X224459D03*
Y137648D03*
X226427D03*
X228396D03*
X230364D03*
X234301Y53396D03*
X232333D03*
Y137648D03*
X234301D03*
G54D32*
X464834Y112728D03*
Y132019D03*
G54D23*
X264597Y100553D03*
Y110395D03*
X272471Y100553D03*
Y110395D03*
G54D14*
X51260Y152037D03*
Y157549D03*
X57234Y152037D03*
Y157549D03*
X63209Y152037D03*
Y157549D03*
X72845Y99813D03*
Y105325D03*
X69183Y152037D03*
Y157549D03*
X75158Y152037D03*
Y157549D03*
X81132Y152037D03*
Y157549D03*
X88180Y36121D03*
Y41633D03*
X91326Y117343D03*
Y122855D03*
X91092Y140965D03*
Y135453D03*
X87106Y152037D03*
Y157549D03*
X96648Y36170D03*
Y41682D03*
X93081Y152037D03*
Y157549D03*
X106212Y35944D03*
Y41456D03*
X103419Y157547D03*
Y152035D03*
X114611Y35778D03*
Y41289D03*
X111230Y157547D03*
Y152035D03*
X123304Y41456D03*
Y35944D03*
X119041Y157547D03*
Y152035D03*
X131849Y35944D03*
Y41456D03*
X132835Y122851D03*
Y128363D03*
X132619Y140524D03*
Y135013D03*
X128155Y152035D03*
Y157547D03*
X140934Y122851D03*
Y128363D03*
X140718Y140524D03*
Y135012D03*
X135377Y157547D03*
Y152035D03*
X142600D03*
Y157547D03*
X255109Y102639D03*
Y108151D03*
X335942Y131161D03*
Y136672D03*
X378496Y149344D03*
Y143832D03*
X413662Y115130D03*
Y124657D03*
Y120641D03*
Y130169D03*
X422481Y91616D03*
X428770Y91576D03*
X422481Y97128D03*
X428770Y97088D03*
X422481Y100838D03*
Y106350D03*
X428652Y106301D03*
Y100789D03*
X453662Y114460D03*
Y119972D03*
G54D33*
G01X17087Y-7874D02*
X489528D01*
G03X509213Y11811I0J19685D01*
G01Y208661D01*
G03X489528Y228346I-19685J0D01*
G01X17087D01*
G03X-2598Y208661I0J-19685D01*
G01Y11811D01*
G03X17087Y-7874I19685J0D01*
G54D24*
X319083Y68678D03*
X319024Y75940D03*
X325972Y68678D03*
X325914Y75940D03*
X422078Y52876D03*
X428967D03*
X422078Y64126D03*
X428967D03*
X461231Y63535D03*
X468121D03*
G54D15*
X57155Y118533D03*
Y141073D03*
X64833Y118533D03*
X62274D03*
X59715D03*
Y141073D03*
X62274D03*
X64833D03*
X75069Y118533D03*
X72510D03*
X69951D03*
X67392D03*
Y141073D03*
X69951D03*
X72510D03*
X75069D03*
X82746Y118533D03*
X80187D03*
X77628D03*
Y141073D03*
X80187D03*
X82746D03*
X85305Y118533D03*
Y141073D03*
X97726Y118533D03*
Y141073D03*
X107963Y118533D03*
X105404D03*
X102844D03*
X100286D03*
Y141073D03*
X102844D03*
X105404D03*
X107963D03*
X115640Y118533D03*
X113081D03*
X110522D03*
Y141073D03*
X113081D03*
X115640D03*
X123317Y118533D03*
X120758D03*
X118199D03*
Y141073D03*
X120758D03*
X123317D03*
X125876Y118533D03*
Y141073D03*
G54D16*
X64429Y99685D03*
Y106575D03*
X343993Y131712D03*
Y138602D03*
G54D25*
X380621Y132521D03*
X398337D03*
G54D17*
X83553Y90532D03*
Y95532D03*
Y100532D03*
Y105532D03*
X104813Y90532D03*
Y100532D03*
Y95532D03*
Y105532D03*
X304259Y112342D03*
Y117342D03*
Y122342D03*
Y127342D03*
X325518Y112342D03*
Y122342D03*
Y117342D03*
Y127342D03*
X342033Y89491D03*
Y94491D03*
Y99491D03*
Y104491D03*
X363293Y89491D03*
Y99491D03*
Y94491D03*
Y104491D03*
X441969Y37816D03*
Y42816D03*
Y47816D03*
Y52816D03*
X447934Y86488D03*
Y91488D03*
Y96488D03*
Y101488D03*
X463229Y42816D03*
Y37816D03*
Y47816D03*
Y52816D03*
X469194Y91488D03*
Y86488D03*
Y96488D03*
Y101488D03*
G54D26*
X390060Y98053D03*
Y122462D03*
G54D18*
X78465Y176427D03*
X83917Y186427D03*
X89370Y176427D03*
X100276D03*
X94823Y186427D03*
X111181Y176427D03*
X105728Y186427D03*
X116634D03*
X122087Y176427D03*
X127539Y186427D03*
X132992Y176427D03*
X143898D03*
X138445Y186427D03*
X149350D03*
X154803Y176427D03*
X160256Y186427D03*
X165709Y176427D03*
X176614D03*
X171161Y186427D03*
X182067D03*
X187520Y176427D03*
X192972Y186427D03*
X198425Y176427D03*
X209331D03*
X203878Y186427D03*
X297264Y176466D03*
X308169D03*
X302716Y186466D03*
X313622D03*
X319075Y176466D03*
X324528Y186466D03*
X329980Y176466D03*
X340886D03*
X335433Y186466D03*
X346339D03*
X351791Y176466D03*
X357244Y186466D03*
X362697Y176466D03*
X373602D03*
X368150Y186466D03*
X379055D03*
X384508Y176466D03*
X389961Y186466D03*
X395413Y176466D03*
X406319D03*
X400866Y186466D03*
X411772D03*
X417224Y176466D03*
X422677Y186466D03*
X428130Y176466D03*
G54D27*
X413958Y91675D03*
Y102895D03*
G54D28*
X423426Y114716D03*
Y119716D03*
Y124716D03*
Y129716D03*
X443111Y114716D03*
Y124716D03*
Y119716D03*
Y129716D03*
G54D19*
X107776Y58976D03*
X116831Y55236D03*
Y62717D03*
G54D29*
X433269Y122216D03*
M02*
