G04 ================== begin FILE IDENTIFICATION RECORD ==================*
G04 Layout Name:  F:/对外部分项目/信号发生器改版/Hardware/Pcb/DDS.brd*
G04 Film Name:    TOP*
G04 File Format:  Gerber RS274X*
G04 File Origin:  Cadence Allegro 16.6-2015-S066*
G04 Origin Date:  Sat Mar 04 10:38:13 2017*
G04 *
G04 Layer:  BOARD GEOMETRY/OUTLINE*
G04 Layer:  ETCH/TOP*
G04 Layer:  PIN/TOP*
G04 Layer:  VIA CLASS/TOP*
G04 *
G04 Offset:    (0.000 0.000)*
G04 Mirror:    No*
G04 Mode:      Positive*
G04 Rotation:  0*
G04 FullContactRelief:  No*
G04 UndefLineWidth:     6.000*
G04 ================== end FILE IDENTIFICATION RECORD ====================*
%FSLAX25Y25*MOIN*%
%IR0*IPPOS*OFA0.00000B0.00000*MIA0B0*SFA1.00000B1.00000*%
%ADD26R,.062992X.062992*%
%ADD28R,.068898X.026575*%
%ADD11C,.177165*%
%ADD27R,.127953X.07874*%
%ADD13C,.02*%
%ADD23R,.01X.059055*%
%ADD22R,.059055X.01*%
%ADD18R,.061024X.023622*%
%ADD15R,.037402X.016732*%
%ADD12R,.016732X.037402*%
%ADD24R,.043307X.055118*%
%ADD21R,.023622X.03937*%
%ADD30R,.100394X.135827*%
%ADD20R,.03937X.023622*%
%ADD16O,.015748X.051181*%
%ADD10C,.059055*%
%ADD33R,.090551X.090551*%
%ADD19C,.070866*%
%ADD17R,.055118X.022638*%
%ADD25R,.022638X.055118*%
%ADD14C,.098425*%
%ADD29R,.076772X.023622*%
%ADD32R,.047244X.070866*%
%ADD31R,.070866X.047244*%
%ADD34C,.007874*%
%ADD35C,.01*%
%ADD36C,.012*%
%ADD37C,.015*%
%ADD38C,.025*%
%ADD39C,.035*%
%ADD46C,.11443*%
%ADD40C,.19317*%
%ADD44C,.036004*%
%ADD43R,.05931X.071122*%
%ADD42C,.07506*%
%ADD50R,.071122X.038642*%
%ADD49R,.038642X.071122*%
%ADD48R,.106554X.106554*%
%ADD52R,.032736X.053406*%
%ADD45R,.053406X.032736*%
%ADD41C,.08687*%
%ADD51R,.039626X.055374*%
%ADD47R,.077028X.039626*%
G75*
%LPD*%
G75*
G36*
G01X486910Y227346D02*
G02X505594Y208661I0J-18685D01*
G01Y19685D01*
G02X486910Y1000I-18685J0D01*
G01X19685D01*
G02X1000Y19685I0J18685D01*
G01Y208661D01*
G02X19685Y227346I18685J0D01*
G01X486910D01*
G37*
%LPC*%
G75*
G36*
G01X339336Y114248D02*
X339334D01*
Y118226D01*
G03X338652Y118509I-400J0D01*
G01X337096Y116953D01*
Y114248D01*
X333823D01*
Y115791D01*
X329370D01*
Y115360D01*
X321667D01*
Y119323D01*
X329370D01*
Y118892D01*
X333823D01*
Y119589D01*
X335347D01*
X335534Y119776D01*
G03X335251Y120459I-283J283D01*
G01X333931D01*
Y121165D01*
X329370D01*
Y120360D01*
X321667D01*
Y120593D01*
G03X321478Y120793I-200J0D01*
G02X318038Y124342I111J3549D01*
G01Y131886D01*
X317809D01*
Y137226D01*
X321082D01*
Y135112D01*
X321138Y135056D01*
Y124342D01*
G03X321423Y123923I451J0D01*
G01X321667D01*
Y124323D01*
X329370D01*
Y124266D01*
X333931D01*
Y125799D01*
X337205D01*
Y122412D01*
G03X337887Y122129I400J0D01*
G01X339443Y123684D01*
Y125799D01*
X342716D01*
Y120459D01*
X340602D01*
X340414Y120272D01*
G03X340697Y119589I283J-283D01*
G01X342608D01*
Y114248D01*
X342606D01*
G03X342443Y113933I0J-200D01*
G02X339500I-1471J-1037D01*
G03X339336Y114248I-163J115D01*
G37*
G36*
G01X397093Y154289D02*
X395684D01*
G03X395373Y153638I0J-400D01*
G02X389537I-2918J-2360D01*
G03X389226Y154289I-311J252D01*
G01X382764D01*
X380046Y151572D01*
Y150981D01*
X381166D01*
Y147707D01*
X375825D01*
Y147991D01*
X374913D01*
G02Y150791I-1131J1400D01*
G01X375825D01*
Y150981D01*
X376945D01*
Y152856D01*
X381480Y157390D01*
X398377D01*
X400975Y154792D01*
X401093Y154832D01*
G02X398784Y152598I1205J-3554D01*
G01X397093Y154289D01*
G37*
G36*
G01X321181Y142015D02*
Y141089D01*
X317907D01*
Y146429D01*
X321181D01*
Y145503D01*
G03X321825Y145186I400J0D01*
G02Y142332I1098J-1427D01*
G03X321181Y142015I-244J-317D01*
G37*
G36*
G01X308975Y140859D02*
G02X306215I-1380J-1156D01*
G03X306062Y141187I-153J128D01*
G01X305958D01*
Y146528D01*
X309232D01*
Y141187D01*
X309129D01*
G03X308975Y140859I0J-200D01*
G37*
G36*
G01X346110Y140534D02*
X347549D01*
Y136669D01*
X340437D01*
Y140534D01*
X341876D01*
G03X342261Y141043I0J400D01*
G02X345725I1732J491D01*
G03X346110Y140534I385J-109D01*
G37*
G36*
G01X337905Y138309D02*
X338612D01*
Y135036D01*
X333272D01*
Y138309D01*
X333979D01*
G03X334336Y138890I0J400D01*
G02X337548I1606J813D01*
G03X337905Y138309I357J-181D01*
G37*
G36*
G01X312482Y146429D02*
Y146760D01*
G02X314846Y152467I8071J0D01*
G01X325703Y163324D01*
G02X332102Y165975I6400J-6400D01*
G01X402076D01*
G03X406283Y167717I0J5950D01*
G01X413258Y174692D01*
X413207Y174815D01*
G02X415573Y172449I4017J1651D01*
G01X415450Y172500D01*
X408475Y165525D01*
G02X402076Y162874I-6400J6400D01*
G01X332102D01*
G03X327895Y161132I0J-5950D01*
G01X317039Y150275D01*
G03X315583Y146760I3515J-3515D01*
G01Y146429D01*
X315669D01*
Y141089D01*
X315583D01*
Y134013D01*
X315571Y134001D01*
Y131886D01*
X312297D01*
Y137226D01*
X312482D01*
Y141089D01*
X312396D01*
Y146429D01*
X312482D01*
G37*
G36*
G01X382230Y127992D02*
G02X379012I-1609J-808D01*
G03X378655Y128572I-357J180D01*
G01X376671D01*
Y136471D01*
X384571D01*
Y128572D01*
X382587D01*
G03X382230Y127992I0J-400D01*
G37*
G36*
G01X288540Y118854D02*
X288419D01*
Y124195D01*
X289740D01*
G03X290022Y124878I0J400D01*
G01X289855Y125045D01*
X288646D01*
Y130386D01*
X291919D01*
Y127366D01*
X293475Y125810D01*
G03X294157Y126093I283J283D01*
G01Y130386D01*
X297431D01*
Y128892D01*
X300407D01*
Y129323D01*
X304048D01*
X305038Y130314D01*
G03X305801Y131660I-2050J2050D01*
G01Y137177D01*
X309075D01*
Y131837D01*
X308968D01*
X308947Y131660D01*
G02X308110Y129239I-5959J704D01*
G01Y125360D01*
X300407D01*
Y125791D01*
X297431D01*
Y125045D01*
X295205D01*
G03X294922Y124362I0J-400D01*
G01X295090Y124195D01*
X297205D01*
Y123892D01*
X300407D01*
Y124323D01*
X308110D01*
Y120360D01*
X300407D01*
Y120791D01*
X297205D01*
Y118854D01*
X293931D01*
Y120969D01*
X292376Y122524D01*
G03X291693Y122242I-283J-283D01*
G01Y118854D01*
X291572D01*
G03X291420Y118524I0J-200D01*
G02X288692I-1364J-1174D01*
G03X288540Y118854I-152J130D01*
G37*
G36*
G01X269649Y121944D02*
Y118939D01*
G03X270139Y118550I400J0D01*
G02X268778Y116442I404J-1754D01*
G01X268746Y116603D01*
X266376D01*
Y121944D01*
X269649D01*
G37*
G36*
G01X411577Y113493D02*
X410992D01*
Y116766D01*
X416332D01*
Y113493D01*
X415747D01*
G03X415368Y112965I0J-400D01*
G02X411956I-1706J-575D01*
G03X411577Y113493I-379J128D01*
G37*
G36*
G01X300407Y110360D02*
Y110394D01*
G03X299821Y110748I-400J0D01*
G02Y113935I-837J1594D01*
G03X300407Y114289I186J354D01*
G01Y114323D01*
X308110D01*
Y110360D01*
X300407D01*
G37*
G36*
G01X367651Y102756D02*
G03X367169Y102509I-107J-386D01*
G01X359441D01*
Y106472D01*
X367169D01*
G03X367651Y106226I375J139D01*
G02Y102756I480J-1735D01*
G37*
G36*
G01X367625Y97728D02*
G03X367184Y97509I-81J-392D01*
G01X359441D01*
Y101472D01*
X367184D01*
G03X367625Y101254I360J173D01*
G02Y97728I364J-1763D01*
G37*
G36*
G01X313210Y102070D02*
Y100886D01*
X313625D01*
Y95545D01*
X310352D01*
Y100886D01*
X310610D01*
Y102070D01*
X310273D01*
Y107411D01*
X310610D01*
Y114420D01*
X308988Y116041D01*
X308110D01*
Y115360D01*
X300407D01*
Y119323D01*
X308110D01*
Y118642D01*
X310065D01*
X313210Y115497D01*
Y107411D01*
X313547D01*
Y102070D01*
X313210D01*
G37*
G36*
G01X367616Y92720D02*
G03X367188Y92509I-72J-393D01*
G01X359441D01*
Y96472D01*
X367188D01*
G03X367616Y96262I356J183D01*
G02Y92720I324J-1771D01*
G37*
G36*
G01X473580Y76494D02*
X475269Y78182D01*
Y88126D01*
X473457Y89938D01*
X473045D01*
Y89507D01*
X465342D01*
Y93469D01*
X473045D01*
Y93038D01*
X474742D01*
X478369Y89410D01*
Y76898D01*
X474174Y72703D01*
X472897D01*
Y71583D01*
X470783D01*
X468483Y69283D01*
X462228D01*
X459928Y71583D01*
X457813D01*
Y76924D01*
X461193D01*
G02X464142I1475J-1033D01*
G01X467386D01*
Y73536D01*
G03X468068Y73254I400J0D01*
G01X469624Y74809D01*
Y76924D01*
X472897D01*
Y76777D01*
G03X473580Y76494I400J0D01*
G37*
G36*
G01X459299Y64790D02*
Y67091D01*
X463163D01*
Y59979D01*
X459299D01*
Y61690D01*
X456018D01*
Y60570D01*
X452744D01*
Y65910D01*
X456018D01*
Y64790D01*
X459299D01*
G37*
G36*
G01X420145Y49320D02*
Y50904D01*
G03X419568Y51263I-400J0D01*
G02Y54489I-799J1613D01*
G03X420145Y54847I178J358D01*
G01Y56432D01*
X424010D01*
Y49320D01*
X420145D01*
G37*
G36*
G01X8907Y46192D02*
G02X6518I-1195J-3558D01*
G03Y46950I-127J379D01*
G02Y54066I1195J3558D01*
G03Y54824I-127J379D01*
G02X8907I1195J3558D01*
G03Y54066I127J-379D01*
G02Y46950I-1195J-3558D01*
G03Y46192I127J-379D01*
G37*
G36*
G01Y80532D02*
G02X6518I-1195J-3558D01*
G03Y81291I-127J379D01*
G02Y88406I1195J3558D01*
G03Y89165I-127J379D01*
G02X8907I1195J3558D01*
G03Y88406I127J-379D01*
G02Y81291I-1195J-3558D01*
G03Y80532I127J-379D01*
G37*
G36*
G01X409712Y105024D02*
X418203D01*
Y103145D01*
G03X418673Y102751I400J0D01*
G02X419991Y102475I316J-1772D01*
G01X425151D01*
Y99201D01*
X419254D01*
Y98863D01*
X419384Y98814D01*
G02X419467Y98781I-630J-1686D01*
G01X419505Y98764D01*
X425151D01*
Y95491D01*
X419505D01*
X419467Y95474D01*
G02X417987Y98756I-713J1653D01*
G03X418029Y99456I-171J362D01*
G02X417228Y100608I960J1523D01*
G01X417194Y100766D01*
X409712D01*
Y101208D01*
G03X409056Y101514I-400J0D01*
G02Y104276I-1155J1381D01*
G03X409712Y104583I257J307D01*
G01Y105024D01*
G37*
G36*
G01X304761Y102070D02*
Y103090D01*
G03X304097Y103390I-400J0D01*
G02Y106091I-1190J1351D01*
G03X304761Y106392I264J300D01*
G01Y107411D01*
X308035D01*
Y102070D01*
X304761D01*
G37*
G36*
G01X318384D02*
Y103209D01*
G03X317697Y103488I-400J0D01*
G02Y105994I-1292J1253D01*
G03X318384Y106272I287J278D01*
G01Y107411D01*
X321658D01*
Y102070D01*
X318384D01*
G37*
G36*
G01X8907Y114873D02*
G02X6518I-1195J-3558D01*
G03Y115631I-127J379D01*
G02Y122747I1195J3558D01*
G03Y123505I-127J379D01*
G02X8907I1195J3558D01*
G03Y122747I127J-379D01*
G02Y115631I-1195J-3558D01*
G03Y114873I127J-379D01*
G37*
G36*
G01X93763Y133816D02*
X88422D01*
Y137090D01*
X93100D01*
G03X93383Y137772I0J400D01*
G01X91828Y139328D01*
X88422D01*
Y139564D01*
X86893D01*
Y139301D01*
G02X84945Y137755I-1588J0D01*
G03X84471Y137251I-91J-390D01*
G02X81021I-1725J-516D01*
G03X80547Y137755I-383J115D01*
G02X79165Y138086I-360J1546D01*
G03X78650I-258J-306D01*
G02X76606I-1022J1215D01*
G03X76091I-257J-306D01*
G02X74047I-1022J1215D01*
G03X73532I-258J-306D01*
G02X71488I-1022J1215D01*
G03X70973I-257J-306D01*
G02X68929I-1022J1215D01*
G03X68414I-258J-306D01*
G02X66370I-1022J1215D01*
G03X65855I-257J-306D01*
G02X63811I-1022J1215D01*
G03X63296I-258J-306D01*
G02X61987Y137740I-1022J1215D01*
G03X61514Y137354I-72J-393D01*
G02X57915I-1800J35D01*
G03X57442Y137740I-400J-8D01*
G02X55568Y139301I-287J1561D01*
G01Y142844D01*
G02X55922Y143844I1588J0D01*
G02X56033Y146563I1233J1311D01*
G03X55783Y147276I-249J313D01*
G01X54041D01*
X50916Y150401D01*
X48590D01*
Y153674D01*
X53930D01*
Y151347D01*
X54223Y151055D01*
G03X54564Y151196I141J141D01*
G01Y153674D01*
X59905D01*
Y152384D01*
X60197Y152091D01*
G03X60538Y152233I141J141D01*
G01Y153674D01*
X65879D01*
Y151347D01*
X66171Y151055D01*
G03X66513Y151196I141J141D01*
G01Y153674D01*
X71853D01*
Y151196D01*
G03X72195Y151055I200J0D01*
G01X72487Y151347D01*
Y153674D01*
X77828D01*
Y151196D01*
G03X78169Y151055I200J0D01*
G01X78462Y151347D01*
Y153674D01*
X83802D01*
Y152464D01*
G03X84144Y152323I200J0D01*
G01X84436Y152615D01*
Y153674D01*
X89777D01*
Y150401D01*
X86182D01*
X84404Y148622D01*
G03X84686Y147940I283J-283D01*
G01X89100D01*
X90878Y149718D01*
G03X90595Y150401I-283J283D01*
G01X90410D01*
Y153674D01*
X95751D01*
Y150401D01*
X94481D01*
Y149360D01*
X90260Y145139D01*
X83927D01*
X83568Y144780D01*
G03X83628Y144164I283J-283D01*
G02X83768Y144059I-883J-1319D01*
G03X84283I258J306D01*
G02X86893Y142844I1022J-1215D01*
G01Y142365D01*
X88422D01*
Y142601D01*
X93763D01*
Y141777D01*
X95456Y140084D01*
G03X96139Y140367I283J283D01*
G01Y142845D01*
G02X96586Y143949I1588J0D01*
G03X96558Y144532I-287J278D01*
G02X98074Y147668I1168J1370D01*
G03X98539Y148158I77J392D01*
G02X100338Y150395I1746J438D01*
G03X100749Y150794I12J400D01*
G01Y152906D01*
G03X100082Y153204I-400J0D01*
G02X97220Y155237I-1200J1342D01*
G03X96927Y155783I-369J153D01*
G02X96194Y156109I347J1767D01*
G01X96140Y156149D01*
X95751D01*
Y155912D01*
X90410D01*
Y158390D01*
G03X90069Y158532I-200J0D01*
G01X89777Y158239D01*
Y155912D01*
X84436D01*
Y158390D01*
G03X84095Y158532I-200J0D01*
G01X83802Y158239D01*
Y155912D01*
X78462D01*
Y158390D01*
G03X78120Y158532I-200J0D01*
G01X77828Y158239D01*
Y155912D01*
X72487D01*
Y158390D01*
G03X72146Y158532I-200J0D01*
G01X71853Y158239D01*
Y155912D01*
X66513D01*
Y158390D01*
G03X66171Y158532I-200J0D01*
G01X65879Y158239D01*
Y155912D01*
X60538D01*
Y158104D01*
G03X60197Y158245I-200J0D01*
G01X59905Y157953D01*
Y155912D01*
X54564D01*
Y159186D01*
X57177D01*
X70715Y172724D01*
X75061D01*
G03X75348Y173402I0J400D01*
G02X74353Y175027I3117J3025D01*
G01X69717D01*
X53930Y159240D01*
Y155912D01*
X48590D01*
Y159186D01*
X49915D01*
X68557Y177827D01*
X74353D01*
G02X81582Y173402I4112J-1400D01*
G03X81869Y172724I287J-279D01*
G01X83687D01*
X85473Y174510D01*
G02X87577Y172471I3897J1917D01*
G01X87451Y172528D01*
X86105Y171182D01*
G03X86388Y170499I283J-283D01*
G01X92367D01*
X96378Y174510D01*
G02X98483Y172471I3897J1917D01*
G01X98357Y172528D01*
X95011Y169182D01*
G03X95293Y168499I283J-283D01*
G01X101273D01*
X107282Y174508D01*
X107225Y174634D01*
G02X109388Y172471I3956J1793D01*
G01X109262Y172528D01*
X103916Y167182D01*
G03X104199Y166499I283J-283D01*
G01X110178D01*
X118188Y174508D01*
X118130Y174634D01*
G02X120294Y172471I3956J1793D01*
G01X120168Y172528D01*
X112822Y165182D01*
G03X113104Y164499I283J-283D01*
G01X120265D01*
X129545Y173779D01*
X129448Y173917D01*
G02X132046Y172188I3545J2510D01*
G01X131938Y172212D01*
X122908Y163182D01*
G03X123191Y162499I283J-283D01*
G01X127989D01*
X139998Y174508D01*
X139941Y174634D01*
G02X147079Y179384I3956J1793D01*
G03X147772Y179656I293J272D01*
G01Y182380D01*
G02X150873Y182359I1578J4047D01*
G01Y179595D01*
G03X151570Y179328I400J0D01*
G02X158341Y178947I3233J-2901D01*
G03X159067Y179179I326J232D01*
G01Y182250D01*
G02X161667Y182319I1189J4178D01*
G01Y179467D01*
G03X162374Y179211I400J0D01*
G02Y173644I3334J-2784D01*
G03X161667Y173387I-307J-256D01*
G01Y170442D01*
G02X159067I-1300J-1245D01*
G01Y173676D01*
G03X158341Y173908I-400J0D01*
G02X151570Y173526I-3538J2519D01*
G03X150873Y173259I-298J-267D01*
G01Y122500D01*
G02X150628Y120411I-9050J0D01*
G03X151094Y119926I389J-92D01*
G02X152684Y119460I345J-1767D01*
G01X153973D01*
Y131271D01*
X161479D01*
Y129302D01*
X165478D01*
G03X165823Y129906I0J400D01*
G02X166072Y132067I1549J916D01*
G01Y133895D01*
X164103D01*
Y141854D01*
X167386Y145136D01*
X167390Y145212D01*
G02X169300Y143302I1797J-113D01*
G01X169225Y143297D01*
X168011Y142084D01*
G03X168293Y141401I283J-283D01*
G01X186256D01*
G03X186567Y142053I0J400D01*
G02X189052Y144622I1397J1135D01*
G03X189694Y144940I242J319D01*
G01Y145428D01*
X184330Y150792D01*
X184206Y150740D01*
G02X186221Y152754I-1448J3462D01*
G01X186169Y152630D01*
X190980Y147820D01*
G03X191662Y148102I283J283D01*
G01Y150613D01*
G02X194263Y150764I1096J3589D01*
G01Y148511D01*
G03X194946Y148228I400J0D01*
G01X199348Y152630D01*
X199296Y152754D01*
G02X206418Y153372I3462J1448D01*
G03X207091Y153001I390J-88D01*
G01X209091Y155000D01*
X209104Y155056D01*
G02X210006Y151651I3655J-854D01*
G03X209430Y151662I-293J-272D01*
G01X199851Y142084D01*
G03X200134Y141401I283J-283D01*
G01X203474D01*
Y144111D01*
X205939Y146577D01*
X205954Y146609D01*
G02X209019Y144758I1630J-765D01*
G03X209139Y144170I319J-241D01*
G02X209914Y141948I-898J-1560D01*
G03X210286Y141401I372J-147D01*
G01X211347D01*
Y143704D01*
X214610Y146966D01*
X214601Y147060D01*
G02X216838Y145478I1793J163D01*
G01X216785Y145464D01*
X213948Y142627D01*
Y141401D01*
X225127D01*
Y143839D01*
G02X226972Y148294I6300J0D01*
G01X229602Y150924D01*
G02X234057Y152769I4455J-4455D01*
G01X264900D01*
G02X269356Y150924I0J-6300D01*
G01X283292Y136987D01*
G02X285138Y132532I-4455J-4455D01*
G01Y116437D01*
G03X286221Y113821I3700J0D01*
G01X300908Y99134D01*
G03X304840Y98591I2325J2325D01*
G01Y100886D01*
X308114D01*
Y95545D01*
X304840D01*
Y95736D01*
X304616D01*
X304594Y95731D01*
G02X299069Y97296I-1361J5729D01*
G01X284382Y111982D01*
G02X282537Y116437I4455J4455D01*
G01Y132532D01*
G03X281454Y135148I-3700J0D01*
G01X267517Y149085D01*
G03X264900Y150169I-2616J-2616D01*
G01X234057D01*
G03X231441Y149085I0J-3700D01*
G01X228811Y146456D01*
G03X227921Y145020I2616J-2616D01*
G03X228273Y144840I190J-64D01*
G02X228941Y145627I5123J-3668D01*
G01X231111Y147798D01*
G02X235566Y149643I4455J-4455D01*
G01X262696D01*
G02X267150Y147798I0J-6300D01*
G01X279882Y135066D01*
G02X281727Y130611I-4455J-4455D01*
G01Y114977D01*
G03X282811Y112361I3700J0D01*
G01X299100Y96072D01*
G03X301716Y94988I2616J2616D01*
G01X313477D01*
G03X316093Y96072I0J3700D01*
G01X318409Y98388D01*
Y100857D01*
X321683D01*
Y95516D01*
X319215D01*
X317932Y94233D01*
G02X313477Y92388I-4455J4455D01*
G01X301716D01*
G02X297261Y94233I0J6300D01*
G01X280972Y110522D01*
G02X279127Y114977I4455J4455D01*
G01Y130611D01*
G03X278043Y133227I-3700J0D01*
G01X265312Y145959D01*
G03X262696Y147042I-2616J-2616D01*
G01X235566D01*
G03X232950Y145959I0J-3700D01*
G01X232849Y145858D01*
G03X232991Y145517I141J-141D01*
G01X255231D01*
G02X257782Y142978I1245J-1300D01*
G03X258072Y142303I290J-275D01*
G01X263668D01*
G02Y139702I1245J-1300D01*
G01X246724D01*
X238976Y131954D01*
G03X239258Y131271I283J-283D01*
G01X254127D01*
X259623Y136767D01*
X259628Y136842D01*
G02X263166Y137186I1797J-113D01*
G03X263601Y136890I387J101D01*
G02X265616Y135120I215J-1787D01*
G03X266012Y134724I400J4D01*
G02X267780Y132690I-17J-1800D01*
G03X268080Y132250I397J-52D01*
G02X267444Y128714I-434J-1747D01*
G01X267349Y128725D01*
X261250Y122626D01*
G03X261533Y121944I283J-283D01*
G01X264138D01*
Y118980D01*
X265898Y117220D01*
Y113951D01*
X267563D01*
Y106839D01*
X261632D01*
Y113951D01*
X263297D01*
Y116143D01*
X262837Y116603D01*
X260864D01*
Y117478D01*
X260103D01*
X256409Y113784D01*
Y109788D01*
X257779D01*
Y106514D01*
X255311D01*
X254192Y105395D01*
X255311Y104276D01*
X257779D01*
Y101910D01*
G03X258494Y101663I400J0D01*
G02X260992Y101992I1417J-1111D01*
G03X261632Y102312I240J320D01*
G01Y104109D01*
X267563D01*
Y97242D01*
X269506D01*
Y104109D01*
X275437D01*
Y96997D01*
X273119D01*
X270764Y94642D01*
X269216D01*
Y90290D01*
G03X269899Y90007I400J0D01*
G01X270975Y91083D01*
X321366D01*
X325117Y94833D01*
G03X324834Y95516I-283J283D01*
G01X323921D01*
Y100857D01*
X324232D01*
Y102070D01*
X323896D01*
Y107411D01*
X324218D01*
Y110360D01*
X321667D01*
Y114323D01*
X329370D01*
Y110360D01*
X326819D01*
Y107411D01*
X327169D01*
Y102070D01*
X326833D01*
Y100857D01*
X327195D01*
Y97876D01*
G03X327878Y97594I400J0D01*
G01X333573Y103289D01*
X335483D01*
G02X336615Y103785I1245J-1300D01*
G01X336691Y103790D01*
X338182Y105281D01*
Y106472D01*
X345884D01*
Y102509D01*
X339088D01*
X338529Y101951D01*
X338525Y101876D01*
G02X338506Y101704I-1797J113D01*
G01X338503Y101688D01*
Y101472D01*
X345884D01*
Y100791D01*
X348349D01*
X352023Y97118D01*
Y93551D01*
G02X352274Y91394I-1300J-1245D01*
G03X352619Y90791I345J-203D01*
G01X357685D01*
X358758Y89717D01*
G03X359441Y90000I283J283D01*
G01Y91472D01*
X367144D01*
Y91266D01*
X367360D01*
X367376Y91268D01*
G02Y87713I284J-1778D01*
G01X367360Y87716D01*
X367144D01*
Y87509D01*
X361932D01*
G03X361649Y86827I0J-400D01*
G01X366053Y82423D01*
X368521D01*
Y81052D01*
X373625D01*
X376983Y77694D01*
Y60211D01*
X380759Y56435D01*
X402457D01*
X420117Y38776D01*
X421012D01*
Y44463D01*
X424285D01*
Y40305D01*
G03X424968Y40022I400J0D01*
G01X426184Y41238D01*
X426160Y41345D01*
G02X426465Y42945I2001J448D01*
G01Y53272D01*
X427035Y53843D01*
Y56432D01*
X430899D01*
Y54867D01*
X439314D01*
G03X439597Y55549I0J400D01*
G01X434577Y60570D01*
X434181D01*
Y60965D01*
X433957Y61190D01*
X430899D01*
Y60570D01*
X427035D01*
Y63158D01*
X424692Y65501D01*
G03X424010Y65218I-283J-283D01*
G01Y60570D01*
X420145D01*
Y62366D01*
G03X419505Y62686I-400J0D01*
G02Y65566I-1080J1440D01*
G03X420145Y65886I240J320D01*
G01Y67682D01*
X421546D01*
G03X421829Y68364I0J400D01*
G01X419112Y71082D01*
Y72203D01*
X416122D01*
X402872Y85454D01*
X381459D01*
X370663Y96249D01*
Y108460D01*
X349462Y129662D01*
X344135D01*
X344084Y129610D01*
X338612D01*
Y129524D01*
X334782D01*
X331049Y125791D01*
X329370D01*
Y125360D01*
X321667D01*
Y129323D01*
X329370D01*
Y128892D01*
X329765D01*
X333272Y132398D01*
Y132797D01*
X338612D01*
Y132711D01*
X340437D01*
Y133644D01*
X343306D01*
X343338Y133654D01*
G02X343993Y133762I655J-1943D01*
G01X351160D01*
X359584Y125338D01*
G03X360267Y125621I283J283D01*
G01Y150129D01*
X355006Y155390D01*
G02X357552Y157936I1273J1273D01*
G01X363867Y151620D01*
Y121055D01*
X374764Y110158D01*
Y97948D01*
X383157Y89554D01*
X396767D01*
G03X397050Y90237I0J400D01*
G01X393971Y93316D01*
X382862D01*
Y102790D01*
X397258D01*
Y95828D01*
X399425Y93661D01*
X409712D01*
Y93804D01*
X418203D01*
Y93725D01*
X423271D01*
X423330Y93666D01*
X429580D01*
X429620Y93627D01*
X435630D01*
X436043Y93213D01*
X439952Y97123D01*
G03X439669Y97806I-283J283D01*
G01X434749D01*
G03X434353Y97348I0J-400D01*
G02X431859Y95435I-1781J-260D01*
G01X431821Y95451D01*
X426100D01*
Y98725D01*
X431821D01*
X431859Y98741D01*
G02X433766Y98435I713J-1653D01*
G03X434431Y98735I265J299D01*
G01Y100129D01*
G03X433827Y100473I-400J0D01*
G02X431938Y100505I-918J1548D01*
G03X431323Y100169I-216J-337D01*
G01Y99152D01*
X425982D01*
Y102426D01*
X427514D01*
X429070Y103981D01*
G03X428787Y104664I-283J283D01*
G01X425982D01*
Y104800D01*
X425151D01*
Y104713D01*
X419811D01*
Y107987D01*
X420931D01*
Y112735D01*
X418787D01*
Y116697D01*
X427449D01*
Y117735D01*
X418787D01*
Y118824D01*
X417015Y120596D01*
G03X416332Y120313I-283J-283D01*
G01Y119004D01*
X410992D01*
Y122278D01*
X412112D01*
Y123020D01*
X410992D01*
Y126294D01*
X414379D01*
G03X414662Y126977I0J400D01*
G01X413107Y128532D01*
X410992D01*
Y131406D01*
X402287D01*
Y128572D01*
X399068D01*
X397258Y126761D01*
Y117725D01*
X382862D01*
Y127199D01*
X391898D01*
X394388Y129689D01*
Y136471D01*
X402287D01*
Y135507D01*
X417271D01*
X421011Y131766D01*
X423426D01*
G02X423930Y131704I0J-2050D01*
G01X423954Y131697D01*
X426406D01*
X429062Y134354D01*
Y138044D01*
X432336D01*
Y132704D01*
X431797D01*
X429584Y130490D01*
G03X429866Y129808I283J-283D01*
G01X437179D01*
G03X437462Y130490I0J400D01*
G01X435248Y132704D01*
X434574D01*
Y138044D01*
X437847D01*
Y134489D01*
X440639Y131697D01*
X447750D01*
Y127735D01*
X439088D01*
Y126697D01*
X442583D01*
X442608Y126704D01*
G02X443111Y126766I504J-1987D01*
G01X456681D01*
X459506Y129591D01*
Y137347D01*
X470161D01*
Y134830D01*
X482480D01*
X490374Y126937D01*
G03X491056Y127220I283J283D01*
G01Y167642D01*
X456781Y201917D01*
X353783D01*
X339592Y187726D01*
X339622Y187614D01*
G02X337969Y182940I-4189J-1147D01*
G03X337919Y182332I233J-325D01*
G01X339627Y180625D01*
X339739Y180656D01*
G02X342849Y172592I1147J-4189D01*
G03X343029Y171835I181J-357D01*
G01X349648D01*
G03X349828Y172592I0J400D01*
G02X353754I1963J3875D01*
G03X353935Y171835I181J-357D01*
G01X360553D01*
G03X360734Y172592I0J400D01*
G02X364660I1963J3875D01*
G03X364840Y171835I181J-357D01*
G01X371459D01*
G03X371639Y172592I0J400D01*
G02X375565I1963J3875D01*
G03X375746Y171835I181J-357D01*
G01X382364D01*
G03X382545Y172592I0J400D01*
G02X386471I1963J3875D01*
G03X386652Y171835I181J-357D01*
G01X393270D01*
G03X393450Y172592I0J400D01*
G02X399193Y178607I1963J3875D01*
G03X399912Y178655I348J197D01*
G02X401911Y181682I8399J-3373D01*
G01X402300Y182071D01*
X402077Y182294D01*
X401966Y182265D01*
G02X405180Y185961I-1100J4202D01*
G03X405860Y185632I397J-47D01*
G01X406877Y186649D01*
G02X407484Y187160I3302J-3302D01*
G02X408643Y183454I4288J-694D01*
G03X408072Y183459I-288J-278D01*
G01X406105Y181492D01*
G03X406382Y180810I283J-283D01*
G02X403011Y173652I-63J-4343D01*
G03X402310Y173447I-305J-259D01*
G02X396908Y168735I-5402J740D01*
G01X324390D01*
G03X320182Y166992I0J-5950D01*
G01X305376Y152186D01*
G03X303634Y147978I4207J-4207D01*
G01Y146528D01*
X303720D01*
Y141187D01*
X303634D01*
Y134022D01*
X303563Y133952D01*
Y131837D01*
X300289D01*
Y137177D01*
X300533D01*
Y141187D01*
X300447D01*
Y146528D01*
X300533D01*
Y147979D01*
G02X303184Y154378I9050J0D01*
G01X317990Y169184D01*
G02X324390Y171835I6400J-6400D01*
G01X327837D01*
G03X328017Y172592I0J400D01*
G02X331127Y180656I1963J3875D01*
G01X331240Y180625D01*
X332947Y182332D01*
G03X332897Y182940I-283J283D01*
G02X336580Y190656I2536J3527D01*
G01X336692Y190625D01*
X352085Y206018D01*
X458480D01*
X495157Y169341D01*
Y48678D01*
X468468Y21989D01*
X460893D01*
G03X460669Y21258I0J-400D01*
G02X454272I-3199J-4744D01*
G03X454048Y21989I-224J332D01*
G01X445845D01*
X442698Y18842D01*
X442750Y18719D01*
G02X439675Y21793I-5280J-2205D01*
G01X439799Y21742D01*
X444147Y26090D01*
X466770D01*
X491056Y50376D01*
Y120455D01*
X480782Y130730D01*
X470161D01*
Y126692D01*
X462405D01*
X458380Y122666D01*
X443111D01*
G02X442608Y122729I0J2050D01*
G01X442583Y122735D01*
X439088D01*
Y121697D01*
X447750D01*
Y121522D01*
X450992D01*
Y121609D01*
X456332D01*
Y118335D01*
X450992D01*
Y118422D01*
X447750D01*
Y117735D01*
X439088D01*
Y116697D01*
X447750D01*
Y112735D01*
X438472D01*
Y114625D01*
X428065D01*
Y112735D01*
X424031D01*
Y107987D01*
X425151D01*
Y107900D01*
X425982D01*
Y107938D01*
X431323D01*
Y107200D01*
G03X432006Y106917I400J0D01*
G01X435203Y110115D01*
X441499D01*
X448145Y103469D01*
X451785D01*
Y99507D01*
X446720D01*
X446366Y99152D01*
G03X446649Y98469I283J-283D01*
G01X451785D01*
Y94506D01*
X444082D01*
Y95903D01*
G03X443400Y96186I-400J0D01*
G01X440568Y93354D01*
X440670Y93107D01*
X440756D01*
Y88538D01*
X447934D01*
G02X448437Y88475I0J-2050D01*
G01X448462Y88469D01*
X451785D01*
Y84506D01*
X448462D01*
X448437Y84500D01*
G02X447934Y84438I-504J1987D01*
G01X440756D01*
Y84420D01*
X434431D01*
Y89026D01*
X433931Y89526D01*
X428770D01*
G02X428389Y89562I0J2050D01*
G01X428370Y89566D01*
X422481D01*
G02X422015Y89619I0J2050D01*
G01X421992Y89625D01*
X418203D01*
Y89546D01*
X409712D01*
Y89560D01*
X405530D01*
G03X405247Y88877I0J-400D01*
G01X417821Y76304D01*
X419525D01*
Y76924D01*
X420839D01*
X426453Y82538D01*
X442202D01*
X447044Y77696D01*
X447811D01*
X458653Y88538D01*
X469194D01*
G02X469697Y88475I0J-2050D01*
G01X469721Y88469D01*
X473045D01*
Y84506D01*
X469721D01*
X469697Y84500D01*
G02X469194Y84438I-504J1987D01*
G01X460352D01*
X453521Y77607D01*
G03X453804Y76924I283J-283D01*
G01X455575D01*
Y71583D01*
X452301D01*
Y72703D01*
X451892D01*
Y71371D01*
X443205D01*
Y75736D01*
X440504Y78437D01*
X428151D01*
X427321Y77607D01*
G03X427604Y76924I283J-283D01*
G01X428311D01*
Y71988D01*
G03X428853Y71615I400J0D01*
G02X429432Y71732I641J-1682D01*
G03X429819Y72132I-14J400D01*
G01Y77696D01*
X438506D01*
Y71371D01*
X435999D01*
G03X435665Y70750I0J-400D01*
G02X432660I-1503J-991D01*
G03X432326Y71371I-334J220D01*
G01X431435D01*
G03X431082Y70782I0J-400D01*
G02X428014Y70956I-1587J-849D01*
G03X427685Y71583I-329J227D01*
G01X425375D01*
G03X425092Y70900I0J-400D01*
G01X428311Y67682D01*
X430899D01*
Y65290D01*
X434181D01*
Y65910D01*
X437455D01*
Y64474D01*
G02X437868Y63240I-1637J-1235D01*
G01Y63077D01*
X439010Y61935D01*
G03X439693Y62218I283J283D01*
G01Y65910D01*
X442966D01*
Y60570D01*
X441341D01*
G03X441059Y59887I0J-400D01*
G01X441957Y58988D01*
X445092D01*
X447232Y61129D01*
Y65910D01*
X450506D01*
Y60570D01*
X450419D01*
Y59931D01*
X450159Y59671D01*
G03X450442Y58988I283J-283D01*
G01X470073D01*
X475380Y53681D01*
Y41526D01*
X469621Y35766D01*
X463229D01*
G02X462726Y35829I0J2050D01*
G01X462702Y35835D01*
X459378D01*
Y39798D01*
X462702D01*
X462726Y39804D01*
G02X463229Y39867I504J-1987D01*
G01X467922D01*
X471280Y43224D01*
Y51983D01*
X468375Y54888D01*
X467081D01*
Y50835D01*
X463757D01*
X463733Y50829D01*
G02X463229Y50766I-504J1987D01*
G01X457444D01*
X453322Y54888D01*
X445821D01*
Y50835D01*
X442497D01*
X442473Y50829D01*
G02X441969Y50766I-504J1987D01*
G01X430899D01*
Y49867D01*
X441969D01*
G02X442473Y49804I0J-2050D01*
G01X442497Y49798D01*
X445821D01*
Y45835D01*
X442497D01*
X442473Y45829D01*
G02X441969Y45766I-504J1987D01*
G01X430565D01*
Y41298D01*
X429960Y40694D01*
Y40070D01*
G02X429813Y39358I-1800J0D01*
G01X429797Y39320D01*
Y39123D01*
X429691D01*
G02X429600Y38990I-1531J948D01*
G01X429560Y38937D01*
Y38665D01*
X430448Y37777D01*
X430514Y37768D01*
G02X428477Y35731I-255J-1782D01*
G01X428468Y35797D01*
X427450Y36814D01*
X409970Y19334D01*
Y12563D01*
X404182Y6775D01*
X37778D01*
X33245Y11308D01*
Y22931D01*
X18790Y37386D01*
Y132056D01*
X25783Y139049D01*
X47619D01*
X55939Y130729D01*
X123755D01*
X125019Y131993D01*
X133692D01*
X134392Y132693D01*
G03X134109Y133376I-283J283D01*
G01X129949D01*
Y135179D01*
G03X129607Y135320I-200J0D01*
G01X129349Y135062D01*
X129071D01*
X129026Y135037D01*
G02X126451Y137194I-871J1575D01*
G03X126033Y137721I-379J129D01*
G02X124854Y138086I-157J1580D01*
G03X124339I-258J-306D01*
G02X122295I-1022J1215D01*
G03X121780I-257J-306D01*
G02X119736I-1022J1215D01*
G03X119221I-258J-306D01*
G02X117177I-1022J1215D01*
G03X116662I-258J-306D01*
G02X114618I-1022J1215D01*
G03X114103I-258J-306D01*
G02X112059I-1022J1215D01*
G03X111544I-257J-306D01*
G02X109500I-1022J1215D01*
G03X108985I-258J-306D01*
G02X106941I-1022J1215D01*
G03X106426I-258J-306D01*
G02X104382I-1022J1215D01*
G03X103866I-258J-306D01*
G02X101822I-1022J1215D01*
G03X101308I-257J-306D01*
G02X99264I-1022J1215D01*
G03X98748I-258J-306D01*
G02X97621Y137717I-1022J1215D01*
G03X97409Y137539I-13J-200D01*
G02X94428Y136379I-1790J191D01*
G03X93763Y136080I-265J-300D01*
G01Y133816D01*
G37*
G54D46*
X417471Y16514D03*
G54D40*
X19685Y19685D03*
Y208661D03*
X51299Y181427D03*
X236496D03*
X270098Y181466D03*
X455295D03*
X486909Y19685D03*
Y208661D03*
G54D44*
X278986Y98627D03*
X277695Y110395D03*
X472819Y63535D03*
G54D43*
X272471Y110395D03*
G54D42*
X162758Y154202D03*
X172758D03*
X384883Y70725D03*
Y80725D03*
X394883Y70725D03*
Y80725D03*
X412140Y151278D03*
X421982D03*
X431825D03*
X441667D03*
X451510D03*
X461352D03*
G54D49*
X468121Y63535D03*
G54D48*
X464834Y112728D03*
G54D45*
X378496Y143832D03*
X453662Y114460D03*
G54D41*
X83917Y186427D03*
X94823D03*
X105728D03*
X116634D03*
X127539D03*
X138445D03*
X176614Y176427D03*
X171161Y186427D03*
X182067D03*
X187520Y176427D03*
X192972Y186427D03*
X198425Y176427D03*
X209331D03*
X203878Y186427D03*
X297264Y176466D03*
X308169D03*
X302716Y186466D03*
X313622D03*
X319075Y176466D03*
X324528Y186466D03*
X346339D03*
X357244D03*
X368150D03*
X379055D03*
X389961D03*
X422677D03*
X428130Y176466D03*
G54D47*
X441969Y37816D03*
Y42816D03*
X447934Y91488D03*
X463229Y42816D03*
Y47816D03*
X469194Y96488D03*
Y101488D03*
%LPD*%
G75*
G36*
G01X42955Y135449D02*
G02X43261Y134791I0J-400D01*
G03X42839Y133633I1378J-1159D01*
G01Y113209D01*
X47972Y108075D01*
Y82743D01*
X39261Y74032D01*
G03X40607Y71325I-2403J-2883D01*
G01X40603Y71414D01*
X50773Y81583D01*
Y104309D01*
G02X51455Y104592I400J0D01*
G01X58094Y97954D01*
X60873D01*
Y97753D01*
X67985D01*
Y98135D01*
X73359D01*
X73400Y98176D01*
X75515D01*
Y100291D01*
X79205Y103981D01*
X79702D01*
Y103550D01*
X87405D01*
Y103981D01*
X100962D01*
Y103550D01*
X108664D01*
Y103981D01*
X113570D01*
X113713Y103839D01*
G02X113572Y103497I-141J-141D01*
G01X111769D01*
Y102082D01*
X108664D01*
Y102513D01*
X100962D01*
Y98550D01*
X108664D01*
Y98981D01*
X111769D01*
Y98156D01*
X111855D01*
Y97070D01*
X111769D01*
Y96816D01*
G02X111044Y96583I-400J0D01*
G03X109159Y97281I-1461J-1051D01*
G02X108696Y97513I-94J389D01*
G01X100923D01*
G02X100479Y97293I-361J172D01*
G03Y93770I-371J-1761D01*
G02X100923Y93550I82J-391D01*
G01X108696D01*
G02X109159Y93782I368J-157D01*
G03X111044Y94480I424J1750D01*
G02X111769Y94247I325J-234D01*
G01Y91729D01*
X115042D01*
Y97070D01*
X114956D01*
Y98156D01*
X115042D01*
Y101544D01*
G02X115725Y101827I400J0D01*
G01X117281Y100271D01*
Y98156D01*
X120554D01*
Y103497D01*
X118439D01*
X114855Y107082D01*
X108664D01*
Y107513D01*
X100962D01*
Y107082D01*
X87405D01*
Y107513D01*
X79702D01*
Y107082D01*
X77921D01*
X76198Y105358D01*
G02X75515Y105641I-283J283D01*
G01Y106962D01*
X70174D01*
Y103688D01*
X73562D01*
G02X73844Y103005I0J-400D01*
G01X72289Y101450D01*
X70174D01*
Y101235D01*
X67985D01*
Y101617D01*
X60873D01*
Y101554D01*
X59585D01*
X46439Y114700D01*
Y133633D01*
G03X45700Y135087I-1800J0D01*
G01X45618Y135147D01*
Y135449D01*
X46128D01*
X54448Y127129D01*
X55739D01*
G02X55997Y126422I0J-400D01*
G03X58314I1159J-1377D01*
G02X58572Y127129I258J306D01*
G01X93136D01*
X95179Y125085D01*
Y123080D01*
X94679Y122580D01*
G02X93996Y122863I-283J283D01*
G01Y124492D01*
X88656D01*
Y121218D01*
X92352D01*
G02X92634Y120536I0J-400D01*
G01X91079Y118980D01*
X88656D01*
Y118744D01*
X87075D01*
X86893Y118926D01*
Y120305D01*
G03X84283Y121520I-1588J0D01*
G02X83768I-258J306D01*
G03X81724I-1022J-1215D01*
G02X81209I-258J306D01*
G03X79165I-1022J-1215D01*
G02X78650I-258J306D01*
G03X76606I-1022J-1215D01*
G02X76091I-257J306D01*
G03X74047I-1022J-1215D01*
G02X73532I-258J306D01*
G03X71488I-1022J-1215D01*
G02X70973I-257J306D01*
G03X68929I-1022J-1215D01*
G02X68414I-258J306D01*
G03X66370I-1022J-1215D01*
G02X65855I-257J306D01*
G03X63811I-1022J-1215D01*
G02X63296I-258J306D01*
G03X61252I-1022J-1215D01*
G02X60737I-257J306D01*
G03X58693I-1022J-1215D01*
G02X58178I-258J306D01*
G03X55568Y120305I-1022J-1215D01*
G01Y116762D01*
G03X57842Y115330I1588J0D01*
G02X58414Y114969I173J-361D01*
G01Y112534D01*
G03X60975Y110003I1300J-1245D01*
G02X61255I140J-143D01*
G03X63775I1260J1286D01*
G02X64055I140J-143D01*
G03X66575I1260J1286D01*
G02X66855I140J-143D01*
G03X69375I1260J1286D01*
G02X69655I140J-143D01*
G03X72175I1260J1286D01*
G02X72455I140J-143D01*
G03X74975I1260J1286D01*
G02X75255I140J-143D01*
G03X77775I1260J1286D01*
G02X78055I140J-143D01*
G03X80615Y112534I1260J1286D01*
G01Y114127D01*
X80225Y114517D01*
G02X80443Y115195I283J283D01*
G03X80793Y115294I-256J1567D01*
G02X81346Y114925I153J-370D01*
G01Y114379D01*
X83249Y112476D01*
X88439D01*
X91670Y115707D01*
X93996D01*
Y117937D01*
X95456Y119397D01*
G02X96139Y119114I283J-283D01*
G01Y116762D01*
G03X98412Y115330I1588J0D01*
G02X98985Y114969I173J-361D01*
G01Y114063D01*
G03X98766Y113784I1300J-1245D01*
G02X98071Y113819I-338J215D01*
G03X97980Y112047I-1610J-806D01*
G02X98676Y112012I338J-215D01*
G03X101546Y111532I1610J806D01*
G02X101825I140J-143D01*
G03X104346I1260J1286D01*
G02X104626I140J-143D01*
G03X107186Y114063I1260J1286D01*
G01Y114810D01*
G02X107662Y115203I400J0D01*
G03X108985Y115547I301J1559D01*
G02X109500I258J-306D01*
G03X111544I1022J1215D01*
G02X112059I257J-306D01*
G03X114103I1022J1215D01*
G02X114618I258J-306D01*
G03X116662I1022J1215D01*
G02X117177I257J-306D01*
G03X119221I1022J1215D01*
G02X119736I258J-306D01*
G03X121364Y115294I1022J1215D01*
G02X121917Y114925I153J-370D01*
G01Y113488D01*
X124243Y111163D01*
X131831D01*
X134235Y113566D01*
Y121214D01*
X135505D01*
Y124488D01*
X130215D01*
X125703Y129000D01*
X126096Y129393D01*
X130164D01*
Y126726D01*
X135840D01*
X135878Y126710D01*
G03X137632Y126895I713J1653D01*
G02X138231Y126726I231J-326D01*
G01X143604D01*
Y127060D01*
X143707D01*
G03X143919Y129835I1245J1300D01*
G01X143804Y129799D01*
G02X143604Y129999I0J200D01*
G01X138231Y129999D01*
G02X137632Y129831I-368J158D01*
G03X136519Y130162I-1042J-1468D01*
G02X136221Y130844I-16J400D01*
G01X137834Y132457D01*
Y133376D01*
X143389D01*
Y136649D01*
X138630D01*
G02X138348Y137332I0J400D01*
G01X139903Y138887D01*
X143389D01*
Y139467D01*
X144402D01*
G03X147059Y139650I1245J1300D01*
G02X147772Y139401I314J-248D01*
G01Y122500D01*
G02X146030Y118293I-5950J0D01*
G01X125039Y97302D01*
G02X121773Y95949I-3267J3266D01*
G01X120554D01*
Y97070D01*
X117281D01*
Y91729D01*
X120554D01*
Y92849D01*
X121773D01*
G03X127232Y95110I0J7720D01*
G01X148222Y116100D01*
G03X149214Y117278I-6400J6399D01*
G02X149886Y117249I327J-231D01*
G03X150154Y116900I1553J910D01*
G02Y116619I-143J-140D01*
G03Y114100I1286J-1260D01*
G02Y113820I-143J-140D01*
G03X150560Y110989I1286J-1260D01*
G02X150645Y110355I-195J-349D01*
G03X150317Y108235I1265J-1281D01*
G02X149963Y107649I-354J-186D01*
G01X147196D01*
G03X144666Y105088I-1245J-1300D01*
G02Y104809I-143J-140D01*
G03Y102288I1286J-1260D01*
G02Y102009I-143J-140D01*
G03Y99488I1286J-1260D01*
G02Y99209I-143J-140D01*
G03X147196Y96648I1286J-1260D01*
G01X148790D01*
X151284Y99143D01*
X153973D01*
Y95838D01*
X152702D01*
X147713Y90849D01*
X147199D01*
X147142Y90899D01*
G03X144666Y88288I-1191J-1350D01*
G02Y88008I-143J-140D01*
G03X145121Y85152I1286J-1260D01*
G01X145166Y85128D01*
X145306Y84920D01*
X144861Y84620D01*
X144786Y84630D01*
G03X144536Y81045I-232J-1785D01*
G02X144734Y80847I-2J-200D01*
G03X146466Y79066I1800J18D01*
G02X146850Y78641I-15J-400D01*
G03X150060Y77413I1797J-113D01*
G02X150762Y77263I314J-248D01*
G03X150974Y76762I1745J441D01*
G02X150633Y76153I-341J-209D01*
G01X149316D01*
G02X146700Y77236I0J3700D01*
G01X136509Y87427D01*
G03X132054Y89273I-4455J-4455D01*
G01X120554D01*
Y90643D01*
X117281D01*
Y85302D01*
X120554D01*
Y86672D01*
X132054D01*
G02X134670Y85588I0J-3700D01*
G01X144861Y75398D01*
G03X149316Y73552I4455J4455D01*
G01X153973D01*
Y72216D01*
X146217D01*
G03X144577Y69261I-1364J-1175D01*
G02X144908Y68791I-61J-395D01*
G03X148286Y67647I1768J-338D01*
G01X153973D01*
Y65172D01*
G02X153474Y64785I-400J0D01*
G03Y61298I-449J-1743D01*
G02X153973Y60911I100J-387D01*
G01Y59773D01*
X185153D01*
G02X185499Y59172I0J-400D01*
G03X185357Y57680I1558J-902D01*
G02X184979Y57149I-378J-131D01*
G01X164103D01*
Y54696D01*
X161882D01*
G03Y52096I-1245J-1300D01*
G01X164103D01*
Y49643D01*
X176522D01*
G02X176805Y48960I0J-400D01*
G01X176616Y48771D01*
X131979D01*
G02X131672Y49428I0J400D01*
G03X131643Y51776I-1379J1157D01*
G01X131593Y51833D01*
Y52190D01*
X131930D01*
Y57531D01*
X131593D01*
Y59030D01*
X131930D01*
Y64371D01*
X129462D01*
X129210Y64623D01*
Y67017D01*
X129891D01*
Y72554D01*
X125928D01*
Y67017D01*
X126609D01*
Y64371D01*
X123288D01*
G02X122922Y64933I0J400D01*
G03X121388Y67457I-1647J727D01*
G01X121312Y67461D01*
X117926Y70847D01*
X117001D01*
Y72218D01*
X113727D01*
Y66877D01*
X117001D01*
Y67130D01*
G02X117684Y67412I400J0D01*
G01X119474Y65623D01*
X119478Y65547D01*
G03X119535Y65200I1797J113D01*
G02X119148Y64698I-387J-102D01*
G01X114062D01*
Y64493D01*
X113847D01*
X113831Y64496D01*
G03X111758Y62639I-275J-1779D01*
G01X111761Y62552D01*
X111558Y62348D01*
X111153Y62753D01*
Y66877D01*
X111489D01*
Y72218D01*
X108216D01*
Y66877D01*
X108552D01*
Y61676D01*
X108588Y61640D01*
G02X108305Y60958I-283J-283D01*
G01X105007D01*
Y58046D01*
X100377Y53416D01*
G02X99695Y53734I-283J283D01*
G03X96772Y55291I-1793J156D01*
G02X96121Y55603I-251J311D01*
G01Y56727D01*
X94447D01*
G02X94164Y57410I0J400D01*
G01X94920Y58166D01*
X95139D01*
X96092Y57214D01*
X96504D01*
X96557Y57174D01*
G03X97090Y60329I1080J1440D01*
G01X96974Y60292D01*
X96086Y61180D01*
Y63507D01*
X92812D01*
Y59736D01*
X89804Y56727D01*
X87335D01*
Y54212D01*
X83298Y50175D01*
X71558D01*
X67089Y45706D01*
X48919D01*
X32240Y29027D01*
X22390Y38878D01*
Y55190D01*
X27873Y60673D01*
X47424D01*
X59334Y72583D01*
Y79103D01*
X59571D01*
Y81218D01*
X61126Y82773D01*
G02X61809Y82490I283J-283D01*
G01Y79103D01*
X65083D01*
Y80223D01*
X67449D01*
Y79103D01*
X70722D01*
Y81218D01*
X72278Y82773D01*
G02X72960Y82490I283J-283D01*
G01Y79103D01*
X76234D01*
Y84444D01*
X74914D01*
G02X74631Y85126I0J400D01*
G01X76147Y86643D01*
Y88207D01*
X76234D01*
Y90322D01*
X79462Y93550D01*
X87405D01*
Y97513D01*
X79702D01*
Y97082D01*
X78609D01*
X75075Y93548D01*
X72960D01*
Y88207D01*
X72978D01*
X73047Y88041D01*
Y87927D01*
X71568Y86448D01*
G02X70885Y86721I-283J283D01*
G03X70429Y87874I-1800J-44D01*
G01X70379Y88007D01*
G02X70578Y88207I200J0D01*
G01X70722D01*
Y93548D01*
X67449D01*
Y88207D01*
X67592D01*
G02X67792Y88007I0J-200D01*
G01X67742Y87874D01*
G03X69525Y84931I1344J-1198D01*
G01X69635Y84958D01*
X69857Y84737D01*
X69563Y84444D01*
X67449D01*
Y83323D01*
X65083D01*
Y84444D01*
X63762D01*
G02X63479Y85126I0J400D01*
G01X64996Y86643D01*
Y88207D01*
X65083D01*
Y93548D01*
X61809D01*
Y88207D01*
X61826D01*
X61896Y88041D01*
Y87927D01*
X58412Y84444D01*
X56297D01*
Y79103D01*
X56534D01*
Y73743D01*
X46264Y63473D01*
X26713D01*
X23073Y59833D01*
G02X22390Y60116I-283J283D01*
G01Y78073D01*
X23271Y78954D01*
X28924D01*
Y77684D01*
X32198D01*
Y80152D01*
X33753Y81708D01*
G02X34436Y81425I283J-283D01*
G01Y77684D01*
X37710D01*
Y78532D01*
G02X38334Y78864I400J0D01*
G03Y81845I1009J1491D01*
G02X37710Y82176I-224J331D01*
G01Y83025D01*
X36036D01*
G02X35753Y83707I0J400D01*
G01X36954Y84908D01*
X37710D01*
Y90249D01*
X37507D01*
Y90491D01*
X37524Y90530D01*
G03X37572Y91865I-1647J728D01*
G01X37561Y91898D01*
Y92133D01*
X37710D01*
Y92138D01*
G02X38224Y92522I400J0D01*
G03Y95972I515J1725D01*
G02X37710Y96355I-115J383D01*
G01Y97960D01*
X37728Y98000D01*
G03Y99509I-1635J754D01*
G01X37710Y99549D01*
Y100835D01*
X39004D01*
G03Y103436I1245J1300D01*
G01X37710D01*
Y104698D01*
X34436D01*
Y99458D01*
X34422Y99423D01*
G03Y98087I1672J-668D01*
G01X34436Y98051D01*
Y92336D01*
G03Y90180I1442J-1078D01*
G01Y86068D01*
X31392Y83025D01*
X28924D01*
Y81754D01*
X22390D01*
Y104102D01*
X26140Y107852D01*
X28924D01*
Y106582D01*
X32198D01*
Y110763D01*
X35241Y113806D01*
X37710D01*
Y119147D01*
X37531D01*
Y119388D01*
X37547Y119427D01*
G03X37589Y120762I-1650J720D01*
G01X37577Y120795D01*
Y121031D01*
X37710D01*
Y122401D01*
X38832D01*
G03Y125001I1245J1300D01*
G01X37710D01*
Y126390D01*
G02X37454Y126907I120J381D01*
G03X37494Y128001I-1693J611D01*
G01X37487Y128028D01*
Y128255D01*
X37710D01*
Y129625D01*
X38609D01*
G03Y132225I1245J1300D01*
G01X37710D01*
Y133596D01*
X34436D01*
Y128737D01*
G03Y126298I1324J-1220D01*
G01Y121198D01*
G03Y119095I1461J-1051D01*
G01Y116678D01*
X32881Y115123D01*
G02X32198Y115406I-283J283D01*
G01Y119147D01*
X28924D01*
Y117607D01*
X28048D01*
G03Y115006I-1245J-1300D01*
G01X28924D01*
Y113806D01*
X30598D01*
G02X30881Y113123I0J-400D01*
G01X29680Y111922D01*
X28924D01*
Y110652D01*
X24980D01*
X23073Y108745D01*
G02X22390Y109028I-283J283D01*
G01Y130564D01*
X27274Y135449D01*
X42955D01*
G37*
G36*
G01X39270Y10375D02*
X36845Y12800D01*
Y24422D01*
X34220Y27047D01*
X50079Y42906D01*
X68249D01*
X70464Y45120D01*
G02X71130Y44953I283J-283D01*
G03X73234Y43712I1724J519D01*
G02X73660Y43112I85J-391D01*
G03X79769Y43519I3199J-1963D01*
G02X80079Y44172I310J253D01*
G01X87318D01*
X91708Y48562D01*
X92306D01*
G02X92588Y47879I0J-400D01*
G01X87978Y43269D01*
X85510D01*
Y41201D01*
X79420Y35110D01*
X65882D01*
X52146Y21375D01*
X52013Y21453D01*
G03X54063Y19402I-2889J-4939D01*
G01X53985Y19536D01*
X66959Y32510D01*
X80497D01*
X82655Y34668D01*
G02X83337Y34357I283J-283D01*
G03X86929Y34111I1796J-126D01*
G02X87328Y34484I399J-27D01*
G01X89068D01*
G02X89351Y33801I0J-400D01*
G01X86485Y30935D01*
X70002D01*
X58068Y19002D01*
Y12211D01*
X59221Y11058D01*
G02X58939Y10375I-283J-283D01*
G01X39270D01*
G37*
G36*
G01X63582D02*
X60669Y13288D01*
Y17925D01*
X71079Y28335D01*
X87563D01*
X93760Y34533D01*
X94167D01*
G02X94308Y34192I0J-200D01*
G01X77931Y17814D01*
X74698D01*
X74659Y17963D01*
G03Y15064I-5535J-1450D01*
G01X74698Y15214D01*
X79008D01*
X91078Y27284D01*
G02X91761Y27001I283J-283D01*
G01Y22088D01*
X91612Y22049D01*
G03X94511I1450J-5535D01*
G01X94361Y22088D01*
Y26911D01*
X103201Y35751D01*
G02X103542Y35609I141J-141D01*
G01Y35222D01*
G03X106000Y33844I681J-1666D01*
G02X106395Y34308I395J64D01*
G01X108862D01*
Y30732D01*
X102149Y24019D01*
Y11192D01*
X102283Y11058D01*
G02X102000Y10375I-283J-283D01*
G01X63582D01*
G37*
G36*
G01X100001Y36228D02*
G02X99318Y36511I-283J283D01*
G01Y37806D01*
X93744D01*
Y38240D01*
X95548Y40045D01*
X99318D01*
Y43318D01*
X93977D01*
Y42151D01*
X91143Y39317D01*
Y37758D01*
X86710D01*
G02X86427Y38440I0J400D01*
G01X87983Y39996D01*
X90851D01*
Y42464D01*
X94558Y46171D01*
X108978D01*
G02X109260Y45488I0J-400D01*
G01X106865Y43093D01*
X103542D01*
Y39770D01*
X100001Y36228D01*
G37*
G36*
G01X90609Y51163D02*
Y53855D01*
X92164Y55410D01*
G02X92847Y55127I283J-283D01*
G01Y51163D01*
X90609D01*
G37*
G36*
G01X131902Y136649D02*
G02X131619Y137332I0J400D01*
G01X133174Y138888D01*
X135289D01*
Y142161D01*
X129949D01*
Y141924D01*
X127464D01*
Y142844D01*
G03X124854Y144059I-1588J0D01*
G02X124339I-258J306D01*
G03X122295I-1022J-1215D01*
G02X121780I-257J306D01*
G03X119736I-1022J-1215D01*
G02X119221I-258J306D01*
G03X117177I-1022J-1215D01*
G02X116662I-258J306D01*
G03X114618I-1022J-1215D01*
G02X114103I-258J306D01*
G03X112059I-1022J-1215D01*
G02X111544I-257J306D01*
G03X111404Y144164I-1023J-1214D01*
G02X111344Y144780I222J333D01*
G01X112438Y145874D01*
X116455D01*
X120441Y149860D01*
Y150398D01*
X121711D01*
Y153672D01*
X116371D01*
Y150398D01*
X116536D01*
G02X116678Y150057I0J-200D01*
G01X115295Y148675D01*
X111278D01*
X107487Y144883D01*
G02X106804Y145166I-283J283D01*
G01Y145629D01*
X111573Y150398D01*
X113900D01*
Y153672D01*
X109102D01*
G02X108730Y154219I0J400D01*
G03X108837Y154625I-1675J661D01*
G01X108847Y154690D01*
X110066Y155910D01*
X113900D01*
Y159184D01*
X108560D01*
Y158364D01*
X106866Y156671D01*
X106801Y156661D01*
G03X106592Y156619I255J-1782D01*
G02X106090Y157006I-103J387D01*
G01Y159184D01*
X100749D01*
Y158393D01*
X99753Y157397D01*
G02X99071Y157656I-283J283D01*
G03X98365Y158981I-1797J-107D01*
G02X98608Y159699I243J318D01*
G01X123107D01*
Y159339D01*
X122951Y159304D01*
G03X122265Y158987I394J-1757D01*
G01X122212Y158947D01*
X121711D01*
Y159184D01*
X116371D01*
Y155910D01*
X121711D01*
Y156147D01*
X122212D01*
X122265Y156107D01*
G03X124768Y156444I1080J1440D01*
G02X125484Y156200I316J-245D01*
G01Y155910D01*
X129522D01*
X132707Y152725D01*
Y150398D01*
X138048D01*
Y150635D01*
X139930D01*
Y150398D01*
X145270D01*
Y153672D01*
X139930D01*
Y153435D01*
X138048D01*
Y153672D01*
X135721D01*
X134165Y155227D01*
G02X134448Y155910I283J283D01*
G01X138048D01*
Y159184D01*
X137494D01*
G02X137109Y159693I0J400D01*
G03X133645I-1732J491D01*
G02X133260Y159184I-385J-109D01*
G01X132707D01*
Y157651D01*
G02X132024Y157368I-400J0D01*
G01X130825Y158568D01*
Y159184D01*
X125484D01*
Y158895D01*
G02X124768Y158650I-400J0D01*
G03X124434Y158980I-1423J-1103D01*
G02X124676Y159699I242J318D01*
G01X129149D01*
X141980Y172530D01*
G03X147079Y173470I1917J3897D01*
G02X147772Y173198I293J-272D01*
G01Y142133D01*
G02X147059Y141885I-400J0D01*
G03X144402Y142067I-1411J-1118D01*
G01X143389D01*
Y142161D01*
X138048D01*
Y140710D01*
X135233Y137895D01*
Y136649D01*
X131902D01*
G37*
G36*
G01X106643Y10375D02*
X104749Y12269D01*
Y22942D01*
X111078Y29271D01*
G02X111761Y28988I283J-283D01*
G01Y22088D01*
X111612Y22049D01*
G03X114510I1449J-5535D01*
G01X114361Y22088D01*
Y33689D01*
X114813Y34141D01*
X117281D01*
Y37414D01*
X113180D01*
G02X112897Y38097I0J400D01*
G01X114452Y39653D01*
X117281D01*
Y39806D01*
G02X117946Y40106I400J0D01*
G03X120304Y40086I1191J1350D01*
G02X120633Y39933I130J-152D01*
G01Y39819D01*
X126208D01*
Y38426D01*
X125363Y37581D01*
X120633D01*
Y34308D01*
X122003D01*
Y29670D01*
X132138Y19536D01*
X132060Y19402D01*
G03X134110Y21453I4939J-2889D01*
G01X133977Y21375D01*
X124604Y30748D01*
Y34308D01*
X125974D01*
Y34644D01*
X126104D01*
X128496Y37036D01*
G02X129179Y36754I283J-283D01*
G01Y34307D01*
X134520D01*
Y34644D01*
X137030D01*
X152138Y19536D01*
X152060Y19402D01*
G03X162657Y17361I4939J-2889D01*
G02X163336Y17703I396J59D01*
G01X169981Y11058D01*
G02X169698Y10375I-283J-283D01*
G01X106643D01*
G37*
G36*
G01X105996Y37581D02*
G02X105714Y38264I0J400D01*
G01X107269Y39819D01*
X108883D01*
Y41433D01*
X111700Y44250D01*
X126951D01*
G02X127234Y43567I0J-400D01*
G01X126657Y42990D01*
G02X126017Y43093I-283J283D01*
G01X120633D01*
Y42979D01*
G02X120304Y42827I-200J0D01*
G03X117946Y42806I-1167J-1371D01*
G02X117324Y42926I-265J300D01*
G01X111941D01*
Y40818D01*
X108862Y37739D01*
Y37581D01*
X105996D01*
G37*
G36*
G01X100375Y48771D02*
G02X100092Y49454I0J400D01*
G01X107633Y56995D01*
X110544D01*
Y58718D01*
G02X111227Y59001I400J0D01*
G01X114062Y56166D01*
Y53255D01*
X119599D01*
Y56864D01*
G02X120242Y57182I400J0D01*
G03X122488Y57232I1092J1431D01*
G02X123144Y56925I257J-307D01*
G01Y52109D01*
G03X126423Y51538I1521J-962D01*
G01X126418Y51559D01*
Y57531D01*
X123425D01*
G02X123045Y58055I0J400D01*
G03X123116Y58359I-1711J559D01*
G01X123125Y58425D01*
X123731Y59030D01*
X126418D01*
Y62771D01*
G02X127101Y63054I400J0D01*
G01X128656Y61499D01*
Y59030D01*
X128993D01*
Y57531D01*
X128656D01*
Y52190D01*
X128993D01*
Y51833D01*
X128943Y51776D01*
G03X128914Y49428I1350J-1191D01*
G02X128608Y48771I-306J-257D01*
G01X100375D01*
G37*
G36*
G01X116688Y57218D02*
X113187Y60718D01*
X113391Y60922D01*
X113479Y60918D01*
G03X113831Y60938I77J1799D01*
G01X113847Y60940D01*
X114062D01*
Y60735D01*
X119599D01*
Y63867D01*
G02X120231Y64193I400J0D01*
G03X122477Y64320I1044J1467D01*
G02X123144Y64023I267J-298D01*
G01Y62405D01*
X121145Y60405D01*
X121079Y60396D01*
G03X119729Y57799I255J-1782D01*
G02X119372Y57218I-357J-181D01*
G01X116688D01*
G37*
G36*
G01X174341Y10375D02*
X142949Y41767D01*
G02X143232Y42450I283J283D01*
G01X179833D01*
X184420Y47038D01*
Y49643D01*
X187725D01*
Y46704D01*
X202792Y31638D01*
X253469D01*
X257312Y35481D01*
X259781D01*
Y36267D01*
G02X260387Y36610I400J0D01*
G03X261822Y36423I930J1542D01*
G02X262334Y36040I112J-384D01*
G01Y35481D01*
X265608D01*
Y39222D01*
G02X266290Y39505I400J0D01*
G01X267846Y37949D01*
Y35481D01*
X271119D01*
Y37949D01*
X276367Y43197D01*
Y52835D01*
X314336D01*
G02X314619Y52152I0J-400D01*
G01X310317Y47850D01*
Y44845D01*
X309981D01*
Y43528D01*
X308869D01*
Y44898D01*
X305595D01*
Y39558D01*
X308869D01*
Y40928D01*
X309981D01*
Y39504D01*
X313254D01*
Y44845D01*
X312918D01*
Y46773D01*
X318980Y52835D01*
X319858D01*
G02X320180Y52197I0J-400D01*
G03X320327Y49882I1447J-1070D01*
G01Y44845D01*
X319990D01*
Y39504D01*
X320327D01*
Y30082D01*
X315418Y25173D01*
X296417D01*
X292618Y21375D01*
X292485Y21453D01*
G03X294535Y19402I-2889J-4939D01*
G01X294457Y19536D01*
X297494Y22573D01*
X307262D01*
G02X307414Y21803I0J-400D01*
G03X315131Y15064I2182J-5289D01*
G01X315170Y15214D01*
X319039D01*
X338449Y34623D01*
Y39504D01*
X338786D01*
Y44845D01*
X338449D01*
Y45488D01*
X338499Y45545D01*
G03X335799I-1350J1191D01*
G01X335849Y45488D01*
Y44845D01*
X335512D01*
Y39504D01*
X335849D01*
Y35700D01*
X317962Y17814D01*
X315170D01*
X315131Y17963D01*
G03X311779Y21803I-5535J-1450D01*
G02X311931Y22573I153J370D01*
G01X316495D01*
X322927Y29005D01*
Y39504D01*
X323264D01*
Y44845D01*
X322927D01*
Y49882D01*
G03X323075Y52197I-1300J1245D01*
G02X323396Y52835I322J238D01*
G01X355036D01*
G02X355319Y52152I0J-400D01*
G01X350357Y47190D01*
Y44845D01*
X350020D01*
Y43475D01*
X348796D01*
Y44845D01*
X345522D01*
Y39504D01*
X348796D01*
Y40874D01*
X350020D01*
Y39504D01*
X353294D01*
Y44845D01*
X352957D01*
Y46113D01*
X359679Y52835D01*
X365844D01*
G02X366086Y52117I0J-400D01*
G03X365878Y49440I1092J-1431D01*
G01Y44845D01*
X365542D01*
Y39504D01*
X365878D01*
Y32547D01*
X355291Y21960D01*
X355177Y21994D01*
G03X357708Y20426I-1643J-5480D01*
G01X357576Y20567D01*
X368479Y31470D01*
Y36978D01*
G02X369187Y37233I400J0D01*
G03X371605Y36899I1390J1144D01*
G02X372233Y36570I228J-328D01*
G01Y22088D01*
X372084Y22049D01*
G03X374983I1449J-5535D01*
G01X374834Y22088D01*
Y36678D01*
X377659Y39504D01*
X378825D01*
Y44845D01*
X378760D01*
G02X378603Y45168I0J200D01*
G03X375773I-1415J1113D01*
G02X375616Y44845I-157J-124D01*
G01X375551D01*
Y41074D01*
X373996Y39518D01*
G02X373313Y39801I-283J283D01*
G01Y44845D01*
X370040D01*
Y40100D01*
X369913Y40050D01*
G03X369463Y39791I664J-1673D01*
G02X368815Y40105I-248J314D01*
G01Y44845D01*
X368479D01*
Y49440D01*
G03X368270Y52117I-1300J1245D01*
G02X368513Y52835I243J318D01*
G01X393148D01*
G02X393431Y52152I0J-400D01*
G01X390396Y49117D01*
Y44845D01*
X390059D01*
Y43475D01*
X388835D01*
Y44845D01*
X385561D01*
Y41104D01*
G02X384878Y40821I-400J0D01*
G01X383323Y42376D01*
Y44845D01*
X380050D01*
Y39504D01*
X382518D01*
X392233Y29789D01*
Y22088D01*
X392084Y22049D01*
G03X394983I1450J-5535D01*
G01X394834Y22088D01*
Y30866D01*
X386878Y38821D01*
G02X387161Y39504I283J283D01*
G01X388835D01*
Y40874D01*
X390059D01*
Y39504D01*
X393333D01*
Y44845D01*
X392996D01*
Y48040D01*
X397791Y52835D01*
X400966D01*
X418626Y35175D01*
X419754D01*
G02X420036Y34492I0J-400D01*
G01X406370Y20826D01*
Y14054D01*
X402691Y10375D01*
X174341D01*
G37*
G36*
G01X161479Y63710D02*
X211713D01*
X216484Y58939D01*
X216460Y58831D01*
G03X216570Y57710I1757J-394D01*
G02X216204Y57149I-366J-162D01*
G01X208803D01*
G02X208428Y57689I0J400D01*
G03X208323Y59181I-1686J631D01*
G02X208674Y59773I351J191D01*
G01X209089D01*
X209146Y59723D01*
G03X209092Y62373I1191J1350D01*
G01X161479D01*
Y63710D01*
G37*
G36*
G01X233633Y40822D02*
Y46555D01*
X235601Y48523D01*
Y57149D01*
X223790D01*
Y76657D01*
X233709Y86575D01*
X233784Y86580D01*
G03X231874Y88489I-113J1797D01*
G01X231870Y88414D01*
X221190Y77734D01*
Y57149D01*
X220229D01*
G02X219863Y57710I0J400D01*
G03X219087Y60013I-1647J727D01*
G01X212790Y66310D01*
X172308D01*
G02X172026Y66993I0J400D01*
G01X172762Y67730D01*
X172838Y67734D01*
G03X170928Y69644I-113J1797D01*
G01X170924Y69568D01*
X169634Y68279D01*
X161479D01*
Y85363D01*
X166294D01*
G03Y87964I1245J1300D01*
G01X161479D01*
Y95206D01*
X166977D01*
X168382Y96610D01*
X168457Y96615D01*
G03X168734Y100169I-113J1797D01*
G02X168537Y100843I86J391D01*
G01X169024Y101329D01*
X169099Y101334D01*
G03X167190Y103243I-113J1797D01*
G01X167185Y103168D01*
X163792Y99775D01*
X161479D01*
Y107017D01*
X175841D01*
G03Y109617I1245J1300D01*
G01X161479D01*
Y126702D01*
X233724D01*
X237543Y130520D01*
G02X238225Y130238I283J-283D01*
G01Y122231D01*
G02X237708Y121849I-400J0D01*
G03Y118407I-528J-1721D01*
G02X238225Y118025I117J-382D01*
G01Y93684D01*
G02X237539Y93405I-400J0D01*
G03Y90894I-1290J-1255D01*
G02X238225Y90615I287J-279D01*
G01Y59773D01*
X251459D01*
X253293Y57939D01*
X253297Y57864D01*
G03X254136Y56453I1797J113D01*
G02X254205Y55832I-213J-339D01*
G01X251989Y53615D01*
G03X251523Y52810I1273J-1273D01*
G01X251483Y52662D01*
X243138D01*
X234166Y43690D01*
Y40822D01*
X233633D01*
G37*
G36*
G01X169266Y129302D02*
G02X168922Y129906I0J400D01*
G03X168672Y132067I-1549J916D01*
G01Y133895D01*
X183788D01*
Y132353D01*
X184555Y131586D01*
X184560Y131511D01*
G03X186396Y133424I1797J113D01*
G01X186389Y133431D01*
Y133895D01*
X230574D01*
G02X230894Y133254I0J-400D01*
G03X233772I1439J-1082D01*
G02X234091Y133895I320J240D01*
G01X235601D01*
Y141401D01*
X232885D01*
G02X232602Y142084I0J400D01*
G01X233436Y142917D01*
X255231D01*
G03X255548Y142674I1245J1300D01*
G01X255445Y142303D01*
X245647D01*
X232647Y129302D01*
X169266D01*
G37*
G36*
G01X188758Y57680D02*
G03X188615Y59172I-1700J591D01*
G02X188962Y59773I346J200D01*
G01X204810D01*
G02X205162Y59181I0J-400D01*
G03X205056Y57689I1581J-861D01*
G02X204682Y57149I-375J-140D01*
G01X189135D01*
G02X188758Y57680I0J400D01*
G37*
G36*
G01X213649Y36169D02*
X210011Y39807D01*
Y49643D01*
X231032D01*
Y40822D01*
X228318D01*
Y40215D01*
G02X227779Y39840I-400J0D01*
G03X226345Y39759I-625J-1688D01*
G02X225765Y40117I-180J357D01*
G01Y40822D01*
X225428D01*
Y42314D01*
G03X222828I-1300J1245D01*
G01Y40822D01*
X222491D01*
Y36169D01*
X220253D01*
Y40822D01*
X216980D01*
Y40005D01*
G02X216364Y39668I-400J0D01*
G03X214144Y36856I-970J-1517D01*
G02X213866Y36169I-278J-288D01*
G01X213649D01*
G37*
G36*
G01X243613Y36798D02*
G02X242930Y37081I-283J283D01*
G01Y40822D01*
X239657D01*
Y40338D01*
G02X239212Y39940I-400J0D01*
G03X237778Y39462I-200J-1789D01*
G02X237104Y39753I-274J291D01*
G01Y40822D01*
X236767D01*
Y42613D01*
X244216Y50062D01*
X248177D01*
G02X248460Y49379I0J-400D01*
G01X245505Y46424D01*
Y40822D01*
X245168D01*
Y38354D01*
X243613Y36798D01*
G37*
G36*
G01X245413Y34921D02*
X245974Y35481D01*
X248442D01*
Y36228D01*
G02X249036Y36577I400J0D01*
G03X250471Y36441I874J1574D01*
G02X250995Y36061I125J-380D01*
G01Y35481D01*
X252669D01*
G02X252952Y34798I0J-400D01*
G01X252392Y34238D01*
X245696D01*
G02X245413Y34921I0J400D01*
G37*
G36*
G01X323135Y56435D02*
X320791Y58779D01*
Y63852D01*
X317518D01*
Y63063D01*
G02X317009Y62678I-400J0D01*
G03X315706Y62553I-491J-1732D01*
G02X315126Y62910I-180J357D01*
G01Y75832D01*
X311390Y79568D01*
X307154D01*
Y84108D01*
X303880D01*
Y80367D01*
G02X303198Y80084I-400J0D01*
G01X301642Y81640D01*
Y84108D01*
X298368D01*
Y83505D01*
G02X297831Y83129I-400J0D01*
G03Y79747I-617J-1691D01*
G02X298368Y79371I137J-376D01*
G01Y78768D01*
X300837D01*
X301566Y78039D01*
G02X301283Y77356I-283J-283D01*
G01X298368D01*
Y76756D01*
G02X297833Y76380I-400J0D01*
G03Y72992I-609J-1694D01*
G02X298368Y72615I135J-376D01*
G01Y72016D01*
X300042D01*
G02X300325Y71333I0J-400D01*
G01X299596Y70604D01*
X298368D01*
Y70091D01*
G02X297890Y69699I-400J0D01*
G03X296956Y69637I-352J-1765D01*
G02X296427Y70016I-129J379D01*
G01Y70618D01*
X293176Y73869D01*
X287455D01*
Y74304D01*
G02X288044Y74656I400J0D01*
G03Y77827I853J1586D01*
G02X287455Y78180I-189J352D01*
G01Y78912D01*
X284181D01*
Y75226D01*
G02X283498Y74943I-400J0D01*
G01X281943Y76498D01*
Y78912D01*
X278669D01*
Y78319D01*
G02X278137Y77941I-400J0D01*
G03Y74542I-594J-1699D01*
G02X278669Y74165I132J-378D01*
G01Y73572D01*
X281192D01*
X283495Y71269D01*
X284181D01*
Y66304D01*
X283053D01*
X281943Y67414D01*
Y71382D01*
X279474D01*
X278641Y72216D01*
X245731D01*
Y79458D01*
X249277D01*
X253626Y75109D01*
X253630Y75034D01*
G03X257097Y74474I1797J113D01*
G02X257787Y74567I371J-149D01*
G03X260811Y74814I1433J1089D01*
G02X261478Y74877I354J-187D01*
G03X262998Y77796I1408J1122D01*
G01X262922Y77800D01*
X257446Y83277D01*
G02X257729Y83960I283J283D01*
G01X270284D01*
X272998Y86674D01*
X278856D01*
Y84698D01*
X278264D01*
X278207Y84748D01*
G03Y82048I-1191J-1350D01*
G01X278264Y82098D01*
X278856D01*
Y80944D01*
X282130D01*
Y86674D01*
X284368D01*
Y80944D01*
X287642D01*
Y81469D01*
G02X288131Y81859I400J0D01*
G03Y85369I401J1755D01*
G02X287642Y85759I-89J390D01*
G01Y86674D01*
X322830D01*
G02X323230Y86286I0J-400D01*
G03X323376Y85625I1799J52D01*
G01X323392Y85588D01*
Y79836D01*
X323982D01*
Y72384D01*
X324041D01*
Y65122D01*
X327905D01*
Y67378D01*
X328545D01*
X330734Y65190D01*
Y58624D01*
X332240Y57118D01*
G02X331957Y56435I-283J-283D01*
G01X323135D01*
G37*
G36*
G01X256300Y52835D02*
X258418D01*
G02X258700Y52152I0J-400D01*
G01X256844Y50295D01*
Y40822D01*
X256507D01*
Y38353D01*
X254952Y36798D01*
G02X254269Y37081I-283J283D01*
G01Y40822D01*
X250995D01*
Y40242D01*
G02X250471Y39862I-400J0D01*
G03X249036Y39725I-561J-1711D01*
G02X248442Y40075I-194J350D01*
G01Y40822D01*
X248106D01*
Y45347D01*
X253299Y50540D01*
X253374Y50545D01*
G03X254534Y51069I-113J1797D01*
G01X256300Y52835D01*
G37*
G36*
G01X270314Y40822D02*
X268651D01*
X264341Y45132D01*
X264328Y45155D01*
G03X263163Y42501I-1560J-898D01*
G01X263270Y42525D01*
X264291Y41504D01*
G02X264008Y40822I-283J-283D01*
G01X262334D01*
Y40263D01*
G02X261822Y39879I-400J0D01*
G03X260387Y39693I-505J-1728D01*
G02X259781Y40036I-207J343D01*
G01Y40822D01*
X259444D01*
Y49218D01*
X263061Y52835D01*
X273766D01*
Y44274D01*
X270314Y40822D01*
G37*
G36*
G01X261236Y94503D02*
X256409Y99330D01*
Y101003D01*
X257711D01*
G02X258111Y100594I0J-400D01*
G03X260992Y99113I1800J-41D01*
G02X261632Y98793I240J-320D01*
G01Y96997D01*
X264428D01*
G02X264710Y96314I0J-400D01*
G01X262899Y94503D01*
X261236D01*
G37*
G36*
G01X287411Y57021D02*
G03X287471Y58571I-1594J837D01*
G01X287455Y58609D01*
Y61285D01*
G02X288137Y61568I400J0D01*
G01X288799Y60906D01*
Y57350D01*
X289031Y57118D01*
G02X288749Y56435I-283J-283D01*
G01X287765D01*
G02X287411Y57021I0J400D01*
G37*
G36*
G01X283358Y57257D02*
X281943Y58672D01*
Y63703D01*
X284181D01*
Y58609D01*
X284165Y58571D01*
G03X284036Y57598I1653J-713D01*
G02X283358Y57257I-396J-58D01*
G37*
G36*
G01X293392Y56435D02*
X291400Y58427D01*
Y61983D01*
X287455Y65929D01*
Y67108D01*
G02X288128Y67400I400J0D01*
G03Y70025I1232J1313D01*
G02X287455Y70316I-274J292D01*
G01Y71269D01*
X292099D01*
X293827Y69541D01*
Y57281D01*
X293990Y57118D01*
G02X293707Y56435I-283J-283D01*
G01X293392D01*
G37*
G36*
G01X303466Y66010D02*
X301642Y67834D01*
Y68972D01*
X303198Y70527D01*
G02X303880Y70245I283J-283D01*
G01Y66010D01*
X303466D01*
G37*
G36*
G01X311767Y56435D02*
X310480Y57722D01*
Y63278D01*
X308305Y65454D01*
G02X308565Y66136I283J283D01*
G03X307720Y69572I-100J1797D01*
G02X307154Y69936I-166J364D01*
G01Y70604D01*
X304240D01*
G02X303957Y71287I0J400D01*
G01X304686Y72016D01*
X307154D01*
Y76968D01*
X310312D01*
X312525Y74755D01*
Y56909D01*
X312658Y56777D01*
G02X312516Y56435I-141J-141D01*
G01X311767D01*
G37*
G36*
G01X336600D02*
X333334Y59701D01*
Y66267D01*
X329622Y69979D01*
X327905D01*
Y72235D01*
X327846D01*
Y79496D01*
X326666D01*
Y85588D01*
X326682Y85625D01*
G03X325906Y87910I-1653J713D01*
G02X325819Y88542I195J349D01*
G01X335467Y98190D01*
X338182D01*
Y97509D01*
X345884D01*
Y98190D01*
X347272D01*
X349422Y96040D01*
Y93551D01*
G03X349171Y91394I1300J-1245D01*
G02X348826Y90791I-345J-203D01*
G01X345884D01*
Y91472D01*
X338182D01*
Y87478D01*
X335122Y84418D01*
Y82413D01*
X334785D01*
Y77072D01*
X338059D01*
Y82413D01*
X337722D01*
Y83341D01*
X341890Y87509D01*
X345884D01*
Y88190D01*
X353109D01*
Y82413D01*
X352772D01*
Y77072D01*
X356046D01*
Y82413D01*
X355709D01*
Y87406D01*
X356494Y88190D01*
X356608D01*
X361693Y83105D01*
G02X361410Y82423I-283J-283D01*
G01X359736D01*
Y81781D01*
G02X359181Y81412I-400J0D01*
G03Y78092I-697J-1660D01*
G02X359736Y77724I155J-369D01*
G01Y77082D01*
X363010D01*
Y80823D01*
G02X363692Y81106I400J0D01*
G01X365248Y79550D01*
Y78371D01*
X362204Y75327D01*
X359736D01*
Y69987D01*
X363010D01*
Y72455D01*
X364565Y74010D01*
G02X365248Y73728I283J-283D01*
G01Y69987D01*
X368522D01*
Y71210D01*
X370126D01*
G03Y73810I1245J1300D01*
G01X368522D01*
Y75327D01*
X366848D01*
G02X366565Y76010I0J400D01*
G01X367637Y77082D01*
X368521D01*
Y78452D01*
X372548D01*
X374383Y76617D01*
Y59134D01*
X376398Y57118D01*
G02X376116Y56435I-283J-283D01*
G01X362903D01*
X359255Y60083D01*
Y68394D01*
X355416Y72233D01*
X352433D01*
G02X352165Y72929I0J400D01*
G03X350124Y75860I-1208J1335D01*
G02X349539Y76215I-185J355D01*
G01Y77072D01*
X350534D01*
Y79541D01*
X352023Y81029D01*
Y82712D01*
G03X349372Y82766I-1300J1245D01*
G01X349422Y82709D01*
Y82413D01*
X347261D01*
Y76935D01*
X346265D01*
Y72233D01*
X345156D01*
X344027Y73361D01*
Y76935D01*
X343571D01*
Y82807D01*
X343580Y82836D01*
G03X340297Y82491I-1717J542D01*
G01Y77072D01*
X340754D01*
Y75565D01*
X339923D01*
G03Y72964I-1245J-1300D01*
G01X340754D01*
Y71594D01*
X342116D01*
X343139Y70571D01*
G02X342856Y69889I-283J-283D01*
G01X340754D01*
Y68283D01*
X340033D01*
X339977Y68333D01*
G03Y65633I-1191J-1350D01*
G01X340033Y65683D01*
X340754D01*
Y64548D01*
X344027D01*
Y69632D01*
X346265D01*
Y64548D01*
X349539D01*
Y65071D01*
G02X350026Y65461I400J0D01*
G03Y68975I392J1757D01*
G02X349539Y69366I-87J390D01*
G01Y69632D01*
X354339D01*
X356655Y67317D01*
Y59006D01*
X358543Y57118D01*
G02X358260Y56435I-283J-283D01*
G01X346047D01*
X344027Y58455D01*
Y62842D01*
X340754D01*
Y61472D01*
X340308D01*
X340251Y61522D01*
G03Y58822I-1191J-1350D01*
G01X340308Y58872D01*
X340754D01*
Y57502D01*
X341303D01*
X341687Y57118D01*
G02X341404Y56435I-283J-283D01*
G01X336600D01*
G37*
G36*
G01X420298Y121697D02*
X419944Y122052D01*
G02X420227Y122735I283J283D01*
G01X427449D01*
Y121697D01*
X420298D01*
G37*
G36*
G01X440756Y98892D02*
Y105508D01*
G02X441438Y105791I400J0D01*
G01X444082Y103147D01*
Y101253D01*
X441438Y98609D01*
G02X440756Y98892I-283J283D01*
G37*
%LPC*%
G75*
G36*
G01X28422Y129185D02*
G02Y132666I-460J1741D01*
G03X28924Y133052I102J387D01*
G01Y133596D01*
X32198D01*
Y128255D01*
X28924D01*
Y128798D01*
G03X28422Y129185I-400J0D01*
G37*
G36*
G01X28924Y126371D02*
X32198D01*
Y121031D01*
X28924D01*
Y121669D01*
G03X28371Y122038I-400J0D01*
G02Y125363I-691J1662D01*
G03X28924Y125732I153J369D01*
G01Y126371D01*
G37*
G36*
G01X37710Y107336D02*
Y106582D01*
X34436D01*
Y111922D01*
X37710D01*
Y111168D01*
G03X38306Y110819I400J0D01*
G02Y107685I886J-1567D01*
G03X37710Y107336I-197J-348D01*
G37*
G36*
G01X28320Y100480D02*
G02Y103576I-919J1548D01*
G03X28924Y103919I204J344D01*
G01Y104698D01*
X32198D01*
Y99357D01*
X28924D01*
Y100136D01*
G03X28320Y100480I-400J0D01*
G37*
G36*
G01X28924Y97473D02*
X32198D01*
Y92133D01*
X28924D01*
Y92807D01*
G03X28356Y93170I-400J0D01*
G02Y96436I-757J1633D01*
G03X28924Y96799I168J363D01*
G01Y97473D01*
G37*
G36*
G01X87645Y88768D02*
X87625Y88772D01*
X87405D01*
Y88550D01*
X79702D01*
Y92513D01*
X87405D01*
Y92291D01*
X87625D01*
X87645Y92295D01*
G02Y88768I360J-1764D01*
G37*
G36*
G01X55644Y89483D02*
G02Y92272I-1139J1394D01*
G03X56297Y92582I253J310D01*
G01Y93548D01*
X59571D01*
Y88207D01*
X56297D01*
Y89174D01*
G03X55644Y89483I-400J0D01*
G37*
G36*
G01X92937Y89984D02*
Y98216D01*
G03X91921Y99231I-1016J0D01*
G01X87405D01*
Y98550D01*
X79702D01*
Y102513D01*
X87405D01*
Y101832D01*
X91921D01*
G02X95537Y98216I0J-3616D01*
G01Y89984D01*
G03X96716Y88804I1179J0D01*
G01X100962D01*
Y92513D01*
X108664D01*
Y88804D01*
X111769D01*
Y90643D01*
X115042D01*
Y85302D01*
X111769D01*
Y86204D01*
X96716D01*
G02X92937Y89984I0J3780D01*
G37*
G36*
G01X28924Y84908D02*
Y85685D01*
G03X28345Y86042I-400J0D01*
G02Y89260I-807J1609D01*
G03X28924Y89618I179J358D01*
G01Y90249D01*
X32198D01*
Y84908D01*
X28924D01*
G37*
G36*
G01X138098Y73815D02*
X138094Y73890D01*
X134443Y77541D01*
X133631D01*
Y76072D01*
X129668D01*
Y81610D01*
X133631D01*
Y80141D01*
X135520D01*
X139932Y75729D01*
X140008Y75724D01*
G02X138098Y73815I-113J-1797D01*
G37*
G36*
G01X74314Y54847D02*
X81109D01*
X87300Y61039D01*
Y62220D01*
G03X86617Y62503I-400J0D01*
G01X81222Y57108D01*
X74049D01*
G02Y59708I-1245J1300D01*
G01X80145D01*
X85847Y65411D01*
G03X85698Y66071I-283J283D01*
G02X84561Y67302I602J1697D01*
G03X83892Y67481I-386J-104D01*
G01X78106Y61694D01*
X72579D01*
G02Y64295I-1245J1300D01*
G01X77028D01*
X87300Y74566D01*
Y80101D01*
X90574D01*
Y76361D01*
G03X91257Y76078I400J0D01*
G01X92812Y77633D01*
Y80101D01*
X96086D01*
Y75891D01*
X97332Y74645D01*
X97407Y74640D01*
G02X98436Y71452I-113J-1797D01*
G03X98536Y70774I254J-309D01*
G02X96631Y67782I-693J-1662D01*
G01X96574Y67834D01*
X96086D01*
Y66464D01*
X93617D01*
X90574Y63420D01*
Y58166D01*
X88105D01*
X82186Y52247D01*
X74314D01*
G02Y54847I-1245J1300D01*
G37*
G36*
G01X145270Y159184D02*
Y155910D01*
X139930D01*
Y159184D01*
X141300D01*
Y160161D01*
G02X143900I1300J1245D01*
G01Y159184D01*
X145270D01*
G37*
G36*
G01X129455Y150398D02*
Y148706D01*
G02X126854I-1300J-1245D01*
G01Y150398D01*
X125484D01*
Y153672D01*
X130825D01*
Y150398D01*
X129455D01*
G37*
G36*
G01X363303Y44845D02*
Y39174D01*
X363320Y39136D01*
G02X360014I-1653J-713D01*
G01X360030Y39174D01*
Y44845D01*
X363303D01*
G37*
G36*
G01X318766D02*
Y39126D01*
X318782Y39088D01*
G02X315476I-1653J-713D01*
G01X315492Y39126D01*
Y44845D01*
X318766D01*
G37*
G36*
G01X298746D02*
Y38983D01*
X298763Y38945D01*
G02X295456I-1653J-713D01*
G01X295473Y38983D01*
Y44845D01*
X298746D01*
G37*
G36*
G01X398833Y39504D02*
G03X398670Y39188I0J-200D01*
G02X395746I-1462J-1050D01*
G03X395583Y39504I-162J117D01*
G01X395571D01*
Y44845D01*
X398845D01*
Y39504D01*
X398833D01*
G37*
G36*
G01X358713D02*
G03X358558Y39177I0J-200D01*
G02X355780I-1389J-1145D01*
G03X355625Y39504I-154J127D01*
G01X355532D01*
Y44845D01*
X358806D01*
Y39504D01*
X358713D01*
G37*
G36*
G01X333178D02*
G03X333024Y39177I0J-200D01*
G02X330250I-1387J-1148D01*
G03X330096Y39504I-154J128D01*
G01X330000D01*
Y44845D01*
X333274D01*
Y39504D01*
X333178D01*
G37*
G36*
G01X328776Y39499D02*
G03X328528Y38850I61J-395D01*
G02X325750I-1390J-1145D01*
G03X325502Y39499I-309J254D01*
G01Y44845D01*
X328776D01*
Y39499D01*
G37*
G36*
G01X335338Y19001D02*
X340347Y24009D01*
Y39504D01*
X340010D01*
Y44845D01*
X343284D01*
Y39504D01*
X342947D01*
Y22932D01*
X335149Y15134D01*
X335136Y15081D01*
G02X334699Y19102I-5539J1432D01*
G03X335338Y19001I357J181D01*
G37*
G36*
G01X288164Y38781D02*
G02X286036I-1064J-1452D01*
G03X285799Y39504I-236J323D01*
G01X285463D01*
Y44845D01*
X288736D01*
Y39504D01*
X288400D01*
G03X288164Y38781I0J-400D01*
G37*
G36*
G01X230520Y19536D02*
X230598Y19402D01*
G02X228548Y21453I-4939J-2889D01*
G01X228681Y21375D01*
X233911Y26604D01*
X259455D01*
X263121Y30269D01*
X273195D01*
X280288Y37362D01*
Y39504D01*
X279951D01*
Y44845D01*
X280288D01*
Y48480D01*
G02X282888I1300J1245D01*
G01Y44845D01*
X283225D01*
Y39504D01*
X282888D01*
Y36284D01*
X275556Y28953D01*
G03X275839Y28270I283J-283D01*
G01X284455D01*
X290298Y34112D01*
Y39504D01*
X289961D01*
Y44845D01*
X290298D01*
Y44941D01*
G02X292898I1300J1245D01*
G01Y44845D01*
X293234D01*
Y39504D01*
X292898D01*
Y33035D01*
X286072Y26209D01*
G03X286354Y25526I283J-283D01*
G01X288650D01*
X300420Y37296D01*
Y39558D01*
X300084D01*
Y44898D01*
X303357D01*
Y39558D01*
X303020D01*
Y36219D01*
X289727Y22925D01*
X273998D01*
X270554Y19481D01*
X270629Y19349D01*
G02X260358Y18665I-4970J-2835D01*
G03X259704Y19098I-371J150D01*
G01X255820Y15214D01*
X251233D01*
X251194Y15064D01*
G02Y17963I-5535J1450D01*
G01X251233Y17814D01*
X254742D01*
X260249Y23321D01*
G03X259966Y24003I-283J283D01*
G01X234988D01*
X230520Y19536D01*
G37*
G36*
G01X321015Y65122D02*
X317151D01*
Y72384D01*
X317092D01*
Y79496D01*
X317880D01*
Y80181D01*
G03X317286Y80530I-400J0D01*
G02X317434Y83587I-874J1574D01*
G01X317485Y83552D01*
X317880D01*
Y85176D01*
X321154D01*
Y79836D01*
X320956D01*
Y72235D01*
X321015D01*
Y65122D01*
G37*
G36*
G01X326303Y59322D02*
Y58511D01*
X323030D01*
Y63852D01*
X326303D01*
Y63041D01*
G03X326917Y62703I400J0D01*
G02Y59660I962J-1522D01*
G03X326303Y59322I-214J-338D01*
G37*
G36*
G01X346393Y92759D02*
G03X345908Y92509I-109J-385D01*
G01X338182D01*
Y96472D01*
X345908D01*
G03X346393Y96223I376J136D01*
G02Y92759I491J-1732D01*
G37*
G36*
G01X368522Y63987D02*
Y62892D01*
X365248D01*
Y68232D01*
X368522D01*
Y66588D01*
X369900D01*
G02Y63987I1245J-1300D01*
G01X368522D01*
G37*
G36*
G01X349539Y57502D02*
X346265D01*
Y62842D01*
X349539D01*
Y61869D01*
G03X350194Y61560I400J0D01*
G02Y58784I1146J-1388D01*
G03X349539Y58475I-255J-308D01*
G01Y57502D01*
G37*
G54D46*
X180935Y16514D03*
X200935D03*
G54D44*
X78784Y81773D03*
X120824Y73539D03*
X120758Y109449D03*
X123317Y147004D03*
G54D42*
X26858Y41150D03*
Y71150D03*
X36858Y41150D03*
X76858Y71150D03*
G54D50*
X64429Y106575D03*
G54D52*
X361373Y65562D03*
G54D45*
X140934Y122851D03*
G54D51*
X124169Y78841D03*
%LPD*%
G75*
G54D10*
X7713Y42634D03*
Y50508D03*
Y58382D03*
Y76974D03*
Y84848D03*
Y92722D03*
Y111315D03*
Y127063D03*
Y119189D03*
X26858Y41150D03*
Y71150D03*
X36858Y41150D03*
Y71150D03*
X76858Y41150D03*
Y71150D03*
X162758Y154202D03*
X172758D03*
X182758D03*
X192758D03*
X202758D03*
X212758D03*
X384883Y70725D03*
Y80725D03*
X394883Y70725D03*
Y80725D03*
X392455Y151278D03*
X402297D03*
X412140D03*
X421982D03*
X431825D03*
X441667D03*
X451510D03*
X461352D03*
G54D20*
X107776Y58976D03*
X116831Y55236D03*
Y62717D03*
G54D11*
X19685Y19685D03*
Y208661D03*
X51299Y181427D03*
X236496D03*
X270098Y181466D03*
X455295D03*
X486909Y19685D03*
Y208661D03*
G54D30*
X433269Y122216D03*
G54D21*
X124169Y78841D03*
X127910Y69786D03*
X131650Y78841D03*
G54D12*
X30561Y80354D03*
Y87579D03*
Y94803D03*
Y102028D03*
Y109252D03*
Y116476D03*
Y123701D03*
Y130925D03*
X36073Y80354D03*
Y87579D03*
Y94803D03*
Y102028D03*
Y109252D03*
Y116476D03*
Y123701D03*
Y130925D03*
X57934Y81773D03*
Y90878D03*
X63446Y81773D03*
Y90878D03*
X69085Y81773D03*
X74597D03*
Y90878D03*
X69085D03*
X88972Y54057D03*
X88937Y60837D03*
Y69134D03*
Y77431D03*
X94484Y54057D03*
X94449Y60837D03*
Y69134D03*
Y77431D03*
X115364Y69547D03*
X109852D03*
X113406Y87972D03*
Y100827D03*
Y94399D03*
X124781Y54860D03*
Y61701D03*
X118917Y87972D03*
Y100827D03*
Y94399D03*
X130293Y54860D03*
Y61701D03*
X218616Y38151D03*
X229955Y38152D03*
X224128Y38151D03*
X235467Y38152D03*
X246805D03*
X241294D03*
X252632Y38151D03*
X258144D03*
X263971D03*
X262068Y91832D03*
X262501Y119273D03*
X269482Y38151D03*
X267580Y91832D03*
X268013Y119273D03*
X280306Y61181D03*
Y68712D03*
Y76242D03*
X280493Y83614D03*
X281588Y42174D03*
X287100D03*
X285818Y61181D03*
Y68712D03*
Y76242D03*
X286005Y83614D03*
X291598Y42174D03*
X297110D03*
X290056Y121525D03*
X295568D03*
X290282Y127716D03*
X295794D03*
X301720Y42228D03*
X300005Y61181D03*
X305517D03*
X300005Y67934D03*
X305517D03*
Y74686D03*
X300005D03*
Y81438D03*
X305517D03*
X301926Y134507D03*
X302084Y143857D03*
X311617Y42174D03*
X307232Y42228D03*
X306477Y98215D03*
X311989D03*
X311910Y104741D03*
X306398D03*
X307438Y134507D03*
X313934Y134556D03*
X307595Y143857D03*
X314032Y143759D03*
X321627Y42174D03*
X317129D03*
X319154Y61181D03*
X319517Y82506D03*
X320046Y98186D03*
X320021Y104741D03*
X319446Y134556D03*
X319544Y143759D03*
X327139Y42174D03*
X324666Y61181D03*
X325029Y82506D03*
X325558Y98186D03*
X325532Y104741D03*
X337149Y42174D03*
X331637D03*
X336422Y79743D03*
X335460Y116918D03*
X335568Y123129D03*
X347159Y42174D03*
X341647D03*
X342390Y60172D03*
Y67218D03*
Y74264D03*
X341934Y79743D03*
X340971Y116918D03*
X341080Y123129D03*
X351657Y42174D03*
X347902Y60172D03*
Y67218D03*
Y74264D03*
X348897Y79743D03*
X354409D03*
X357169Y42174D03*
X361667D03*
X361373Y65562D03*
Y72657D03*
X361373Y79752D03*
X367178Y42174D03*
X371676D03*
X366885Y65562D03*
Y72657D03*
X366885Y79752D03*
X377188Y42174D03*
X387198D03*
X381686D03*
X391696D03*
X397208D03*
X421162Y74254D03*
X422648Y41793D03*
X428160D03*
X426674Y74254D03*
X435818Y63240D03*
X436211Y135374D03*
X430699D03*
X441330Y63240D03*
X448869D03*
X453938Y74254D03*
X454381Y63240D03*
X459450Y74254D03*
X465749D03*
X471261D03*
G54D31*
X434162Y74533D03*
X447548D03*
G54D22*
X157726Y61073D03*
Y63041D03*
Y65010D03*
Y66978D03*
Y68947D03*
Y70915D03*
Y72884D03*
Y74852D03*
Y76821D03*
Y78789D03*
Y80758D03*
Y82726D03*
Y84695D03*
Y86663D03*
Y88632D03*
Y90600D03*
Y92569D03*
Y94537D03*
Y96506D03*
Y98474D03*
Y100443D03*
Y102412D03*
Y104380D03*
Y106348D03*
Y108317D03*
Y110286D03*
Y112254D03*
Y114222D03*
Y116191D03*
Y118160D03*
Y120128D03*
Y122096D03*
Y124065D03*
Y126034D03*
Y128002D03*
Y129970D03*
X241978Y66978D03*
Y65010D03*
Y63041D03*
Y61073D03*
Y74852D03*
Y72884D03*
Y70915D03*
Y68947D03*
Y82726D03*
Y80758D03*
Y78789D03*
Y76821D03*
Y90600D03*
Y88632D03*
Y86663D03*
Y84695D03*
Y98474D03*
Y96506D03*
Y94537D03*
Y92569D03*
Y106348D03*
Y104380D03*
Y102412D03*
Y100443D03*
Y116191D03*
Y114222D03*
Y112254D03*
Y110286D03*
Y108317D03*
Y124065D03*
Y122096D03*
Y120128D03*
Y118160D03*
Y129970D03*
Y128002D03*
Y126034D03*
G54D13*
G01X20590Y55370D02*
Y38132D01*
X31957Y26764D01*
G01X20590Y78253D02*
Y55370D01*
G01Y104282D02*
Y78253D01*
G01X93316Y128929D02*
X55194D01*
X46873Y137249D01*
X26529D01*
X20590Y131310D01*
Y104282D01*
G01X31957Y26764D02*
X35045Y23677D01*
Y12054D01*
X38524Y8575D01*
X63543D01*
G01X64429Y99685D02*
X64360Y99754D01*
X58839D01*
X49372Y109221D01*
G01D02*
X44639Y113954D01*
Y133633D01*
G01X63543Y8575D02*
X106604D01*
G01X93316Y128929D02*
X123794D01*
G01X106604Y8575D02*
X174303D01*
G01D02*
X403437D01*
X408170Y13308D01*
Y20080D01*
X428160Y40070D01*
G01X253261Y52342D02*
X255555Y54635D01*
X263022D01*
G01D02*
X275066D01*
G01D02*
X284141D01*
G01D02*
X293353D01*
G01D02*
X298312D01*
G01D02*
X304447D01*
G01D02*
X311728D01*
G01D02*
X316638D01*
G01X318941D02*
X323096D01*
G01X316638D02*
X318941D01*
G01X323096D02*
X336561D01*
G01D02*
X346009D01*
G01D02*
X359640D01*
G01D02*
X362865D01*
G01D02*
X380720D01*
G01X362067Y119956D02*
Y150875D01*
X356279Y156663D01*
G01X380720Y54635D02*
X397753D01*
G01D02*
X401712D01*
X419371Y36975D01*
X424467D01*
X428160Y40668D01*
G01Y41793D02*
Y40668D01*
G01D02*
Y40070D01*
X27538Y87651D03*
X27599Y94803D03*
X27401Y102028D03*
X26803Y116306D03*
X27680Y123701D03*
X27962Y130925D03*
X39343Y80354D03*
X35878Y91258D03*
X36093Y98755D03*
X38739Y94247D03*
X40249Y102136D03*
X39192Y109252D03*
X40077Y123701D03*
X35897Y120146D03*
X39854Y130925D03*
X35760Y127518D03*
X44639Y133633D03*
X54505Y90878D03*
X57155Y125045D03*
Y145156D03*
X65315Y111289D03*
X62515D03*
X59715D03*
Y137389D03*
X72853Y45472D03*
X73069Y53547D03*
X72804Y58408D03*
X71334Y62994D03*
X69085Y86676D03*
X73715Y111289D03*
X70915D03*
X68115D03*
X78784Y81773D03*
X79315Y111289D03*
X76515D03*
X82746Y136735D03*
X85133Y34231D03*
X86300Y67767D03*
X88005Y90532D03*
X97637Y58614D03*
X97902Y53890D03*
X97294Y72843D03*
X97844Y69112D03*
X100108Y95532D03*
X100286Y112818D03*
X96461Y113014D03*
X95619Y137729D03*
X97726Y145902D03*
X100286Y148595D03*
X97274Y157549D03*
X98882Y154546D03*
X104223Y33555D03*
X103086Y112818D03*
X105886D03*
X107055Y154879D03*
X113556Y62717D03*
X109582Y95532D03*
X119136Y41456D03*
X121334Y58614D03*
X124666Y51146D03*
X121275Y65660D03*
X120824Y73539D03*
X120758Y109449D03*
X123317Y147004D03*
X123345Y157547D03*
X130293Y50586D03*
X128155Y136612D03*
Y147461D03*
X139895Y73927D03*
X136590Y128363D03*
X135377Y160184D03*
X144854Y71040D03*
X146677Y68453D03*
X144555Y82845D03*
X146534Y80865D03*
X148646Y78527D03*
X145951Y89549D03*
Y86748D03*
Y97948D03*
Y106348D03*
Y103548D03*
Y100748D03*
X144952Y128360D03*
X145648Y140767D03*
X142600Y161406D03*
X153025Y63041D03*
X152508Y77704D03*
X152527Y87308D03*
X151439Y115360D03*
Y112560D03*
X151910Y109074D03*
X151439Y118160D03*
X160637Y53396D03*
X160367Y169197D03*
X172725Y69531D03*
X167539Y86663D03*
X168344Y98412D03*
X168986Y103130D03*
X167372Y130822D03*
X169187Y145099D03*
X177086Y108317D03*
X187057Y58271D03*
X186357Y131624D03*
X187964Y143188D03*
X198868Y42499D03*
X194902Y45188D03*
X206742Y58320D03*
X215394Y38151D03*
X210337Y61073D03*
X207584Y145844D03*
X208240Y142610D03*
X218217Y58437D03*
X216394Y147222D03*
X227154Y38152D03*
X224128Y43559D03*
X239012Y38152D03*
X236249Y92149D03*
X233671Y88376D03*
X237180Y120128D03*
X232333Y132173D03*
X248048Y111034D03*
X249910Y38151D03*
X255094Y57977D03*
X255427Y75146D03*
X250666Y92569D03*
X255427Y123157D03*
X252036Y119776D03*
X256476Y144217D03*
X261317Y38151D03*
X262767Y44257D03*
X263404Y59241D03*
X259720Y58143D03*
X259220Y75656D03*
X262885Y75999D03*
X259911Y100553D03*
X263816Y135103D03*
X261425Y136730D03*
X264914Y141002D03*
X270544Y116795D03*
X265995Y132924D03*
X267646Y130503D03*
X277203Y61181D03*
X277544Y76242D03*
X277017Y83398D03*
X278986Y98627D03*
X277695Y110395D03*
X287100Y37329D03*
X281588Y49725D03*
X285818Y57858D03*
X289360Y68712D03*
X288896Y76242D03*
X288532Y83614D03*
X297110Y38233D03*
X291598Y46186D03*
X297440Y61181D03*
X297224Y74686D03*
X297538Y67934D03*
X297214Y81438D03*
X290056Y117350D03*
X305517Y57759D03*
X302907Y104741D03*
X298984Y112342D03*
X308465Y67934D03*
X307595Y139703D03*
X317129Y38376D03*
X321627Y51127D03*
X316518Y60946D03*
X316413Y82104D03*
X316404Y104741D03*
X327139Y37705D03*
X327879Y61181D03*
X325029Y86338D03*
X322922Y143759D03*
X331637Y38029D03*
X337149Y46736D03*
X338786Y66983D03*
X339060Y60172D03*
X338678Y74264D03*
X336728Y101989D03*
X335942Y139703D03*
X341863Y83378D03*
X346884Y94491D03*
X340971Y112896D03*
X343993Y141533D03*
X350418Y67218D03*
X351340Y60172D03*
X350958Y74264D03*
X350722Y83957D03*
Y92306D03*
X357169Y38032D03*
X361667Y38423D03*
X358484Y79752D03*
X356279Y156663D03*
X370577Y38377D03*
X367178Y50686D03*
X371146Y65288D03*
X371371Y72510D03*
X367660Y89491D03*
X367940Y94491D03*
X367989Y99491D03*
X368130Y104491D03*
X377188Y46281D03*
X373782Y149391D03*
X380621Y127184D03*
X397208Y38138D03*
X407901Y102895D03*
X418768Y52876D03*
X418425Y64126D03*
X418754Y97128D03*
X418989Y100979D03*
X413662Y112391D03*
X429495Y69933D03*
X430259Y35986D03*
X434162Y69759D03*
X432572Y97088D03*
X432909Y102022D03*
X462668Y75891D03*
X472819Y63535D03*
G54D32*
X437593Y88763D03*
Y102149D03*
G54D14*
X49124Y16514D03*
X69124D03*
X93061D03*
X113061D03*
X136999D03*
X156999D03*
X180935D03*
X200935D03*
X225659D03*
X245659D03*
X265659D03*
X289597D03*
X309596D03*
X329596D03*
X353534D03*
X373534D03*
X393534D03*
X417471D03*
X437470D03*
X457470D03*
G54D23*
X165404Y53396D03*
Y137648D03*
X173278Y53396D03*
X171309D03*
X169341D03*
X167372D03*
Y137648D03*
X169341D03*
X171309D03*
X173278D03*
X181152Y53396D03*
X179183D03*
X177215D03*
X175246D03*
Y137648D03*
X177215D03*
X179183D03*
X181152D03*
X189026Y53396D03*
X187057D03*
X185089D03*
X183120D03*
Y137648D03*
X185089D03*
X187057D03*
X189026D03*
X196900Y53396D03*
X194931D03*
X192963D03*
X190994D03*
Y137648D03*
X192963D03*
X194931D03*
X196900D03*
X206742Y53396D03*
X204774D03*
X202805D03*
X200837D03*
X198868D03*
Y137648D03*
X200837D03*
X202805D03*
X204774D03*
X206742D03*
X214616Y53396D03*
X212648D03*
X210679D03*
X208711D03*
Y137648D03*
X210679D03*
X212648D03*
X214616D03*
X222490Y53396D03*
X220522D03*
X218553D03*
X216585D03*
Y137648D03*
X218553D03*
X220522D03*
X222490D03*
X230364Y53396D03*
X228396D03*
X226427D03*
X224459D03*
Y137648D03*
X226427D03*
X228396D03*
X230364D03*
X234301Y53396D03*
X232333D03*
Y137648D03*
X234301D03*
G54D33*
X464834Y112728D03*
Y132019D03*
G54D24*
X264597Y100553D03*
Y110395D03*
X272471Y100553D03*
Y110395D03*
G54D15*
X51260Y152037D03*
Y157549D03*
X57234Y152037D03*
Y157549D03*
X63209Y152037D03*
Y157549D03*
X72845Y99813D03*
Y105325D03*
X69183Y152037D03*
Y157549D03*
X75158Y152037D03*
Y157549D03*
X81132Y152037D03*
Y157549D03*
X88180Y36121D03*
Y41633D03*
X91326Y117343D03*
Y122855D03*
X91092Y140965D03*
Y135453D03*
X87106Y152037D03*
Y157549D03*
X96648Y36170D03*
Y41682D03*
X93081Y152037D03*
Y157549D03*
X106212Y35944D03*
Y41456D03*
X103419Y157547D03*
Y152035D03*
X114611Y35778D03*
Y41290D03*
X111230Y157547D03*
Y152035D03*
X123304Y41456D03*
Y35944D03*
X119041Y157547D03*
Y152035D03*
X131849Y35944D03*
Y41456D03*
X132835Y122851D03*
Y128363D03*
X132619Y140524D03*
Y135012D03*
X128155Y152035D03*
Y157547D03*
X140934Y122851D03*
Y128362D03*
X140718Y140524D03*
Y135012D03*
X135377Y157547D03*
Y152035D03*
X142600D03*
Y157547D03*
X255109Y102639D03*
Y108151D03*
X335942Y131160D03*
Y136672D03*
X378496Y149344D03*
Y143832D03*
X413662Y115130D03*
Y124657D03*
Y120641D03*
Y130169D03*
X422481Y91616D03*
X428770Y91576D03*
X422481Y97128D03*
X428770Y97088D03*
X422481Y100838D03*
Y106350D03*
X428652Y106301D03*
Y100789D03*
X453662Y114460D03*
Y119972D03*
G54D34*
G01X486909Y0D02*
X19685D01*
G02X0Y19685I0J19685D01*
G01Y208661D01*
G02X19685Y228346I19685J0D01*
G01X486909D01*
G02X506594Y208661I0J-19685D01*
G01Y19685D01*
G02X486909Y0I-19685J0D01*
G54D25*
X319083Y68678D03*
X319024Y75940D03*
X325973Y68678D03*
X325914Y75940D03*
X422078Y52876D03*
X428967D03*
X422078Y64126D03*
X428967D03*
X461231Y63535D03*
X468121D03*
G54D16*
X57155Y118533D03*
Y141073D03*
X64833Y118533D03*
X62274D03*
X59715D03*
Y141073D03*
X62274D03*
X64833D03*
X75069Y118533D03*
X72510D03*
X69951D03*
X67392D03*
Y141073D03*
X69951D03*
X72510D03*
X75069D03*
X82746Y118533D03*
X80187D03*
X77628D03*
Y141073D03*
X80187D03*
X82746D03*
X85305Y118533D03*
Y141073D03*
X97726Y118533D03*
Y141073D03*
X107963Y118533D03*
X105404D03*
X102844D03*
X100286D03*
Y141073D03*
X102844D03*
X105404D03*
X107963D03*
X115640Y118533D03*
X113081D03*
X110522D03*
Y141073D03*
X113081D03*
X115640D03*
X123317Y118533D03*
X120758D03*
X118199D03*
Y141073D03*
X120758D03*
X123317D03*
X125876Y118533D03*
Y141073D03*
G54D35*
G01X9826Y19685D02*
X19685D01*
G01X9826Y208661D02*
X19685D01*
G01Y9826D02*
Y19685D01*
G01D02*
Y29544D01*
G01Y19685D02*
X29544D01*
G01X25599Y94803D02*
X27599D01*
G01X25401Y102028D02*
X27401D01*
G01X25680Y123701D02*
X27680D01*
G01X19685Y198803D02*
Y208661D01*
G01D02*
Y218520D01*
G01Y208661D02*
X29544D01*
G01X36073Y87579D02*
Y85866D01*
X30561Y80354D01*
G01X27538Y87651D02*
X30488D01*
X30561Y87579D01*
G01Y94803D02*
X27599D01*
G01X30561Y99157D02*
Y102028D01*
G01Y91933D02*
Y94803D01*
G01D02*
Y97673D01*
G01Y94803D02*
X32398D01*
G01X27599Y92803D02*
Y94803D01*
G01D02*
Y96803D01*
G01X30561Y102028D02*
X27401D01*
G01X30561D02*
Y104898D01*
G01Y102028D02*
X32398D01*
G01X27401Y100027D02*
Y102028D01*
G01D02*
Y104028D01*
G01X30561Y109252D02*
Y110965D01*
X36073Y116476D01*
G01X26803Y116306D02*
X30391D01*
X30561Y116476D01*
G01Y123701D02*
X27680D01*
G01X30561Y120831D02*
Y123701D01*
G01D02*
Y126571D01*
G01Y123701D02*
X32398D01*
G01X27680Y121701D02*
Y123701D01*
G01D02*
Y125701D01*
G01X30561Y130925D02*
X27962D01*
G01X30561Y128055D02*
Y130925D01*
G01D02*
Y133796D01*
G01Y130925D02*
X32398D01*
G01X27962Y128925D02*
Y130925D01*
G01D02*
Y132925D01*
G01X25962Y130925D02*
X27962D01*
G01X36073Y80354D02*
X39343D01*
G01X36073Y77484D02*
Y80354D01*
G01D02*
Y83225D01*
G01X34236Y80354D02*
X36073D01*
G01X39343Y78354D02*
Y80354D01*
G01D02*
Y82354D01*
G01Y80354D02*
X41343D01*
G01X35878Y91258D02*
Y94608D01*
X36073Y94803D01*
G01X36093Y98755D02*
Y102007D01*
X36073Y102028D01*
G01X38739Y94247D02*
X36629D01*
X36073Y94803D01*
G01X40249Y102136D02*
X36181D01*
X36073Y102028D01*
G01X39192Y107252D02*
Y109252D01*
G01X36073Y106382D02*
Y109252D01*
G01D02*
X39192D01*
G01D02*
Y111252D01*
G01Y109252D02*
X41192D01*
G01X36073D02*
Y112122D01*
G01X34236Y109252D02*
X36073D01*
G01Y123701D02*
X40077D01*
G01X35897Y120146D02*
Y123525D01*
X36073Y123701D01*
G01Y130925D02*
X39854D01*
G01X35760Y127518D02*
Y130613D01*
X36073Y130925D01*
G01X41441Y181427D02*
X51299D01*
G01X49124Y16514D02*
X66420Y33810D01*
X79958D01*
X87781Y41633D01*
X88180D01*
G01X57934Y90878D02*
X54505D01*
G01X57934Y88007D02*
Y90878D01*
G01D02*
Y93748D01*
G01Y90878D02*
X59771D01*
G01X54505Y88877D02*
Y90878D01*
G01D02*
Y92878D01*
G01X52505Y90878D02*
X54505D01*
G01X57155Y114974D02*
Y118533D01*
G01X55368D02*
X57155D01*
G01X55155Y125045D02*
X57155D01*
G01D02*
X59156D01*
G01X57714Y137389D02*
X59715D01*
G01X57155Y137514D02*
Y141073D01*
G01X55368D02*
X57155D01*
G01X51299Y171569D02*
Y181427D01*
G01D02*
Y191286D01*
G01Y181427D02*
X61158D01*
G01X63543Y8575D02*
X59368Y12750D01*
Y18463D01*
X70540Y29635D01*
X87024D01*
X92443Y35055D01*
Y38779D01*
X95346Y41682D01*
X96648D01*
G01X64429Y104443D02*
Y106575D01*
G01D02*
Y108707D01*
G01X60673Y106575D02*
X64429D01*
G01D02*
X68185D01*
G01X64833Y118533D02*
Y114071D01*
X65315Y113589D01*
Y111289D01*
G01X62274Y118533D02*
Y113830D01*
X62515Y113589D01*
Y111289D01*
G01X59715Y118533D02*
Y111289D01*
G01Y135389D02*
Y137389D01*
G01X69124Y16514D02*
X78469D01*
X96648Y34692D01*
Y36170D01*
G01X107776Y58976D02*
X98662Y49862D01*
X91169D01*
X86779Y45472D01*
X72853D01*
G01X73069Y53547D02*
X81648D01*
X88937Y60837D01*
G01X94449Y69134D02*
X90093Y64778D01*
X87053D01*
X80683Y58408D01*
X72804D01*
G01X94449Y77431D02*
X90253Y73235D01*
X87808D01*
X77567Y62994D01*
X71334D01*
G01X74597Y78903D02*
Y81773D01*
G01X72760D02*
X74597D01*
G01X69085Y90878D02*
Y93748D01*
G01X67249Y90878D02*
X69085D01*
G01D02*
X70922D01*
G01X67085Y86676D02*
X69085D01*
G01D02*
X71086D01*
G01X72845Y103488D02*
Y105325D01*
G01D02*
Y107162D01*
G01X69974Y105325D02*
X72845D01*
G01X75069Y118533D02*
Y115034D01*
X76515Y113589D01*
Y111289D01*
G01X72510Y118533D02*
Y114794D01*
X73715Y113589D01*
Y111289D01*
G01X69951Y118533D02*
Y114553D01*
X70915Y113589D01*
Y111289D01*
G01X67392Y118533D02*
Y114312D01*
X68115Y113589D01*
Y111289D01*
G01X83132Y34231D02*
X85133D01*
G01X78784Y79773D02*
Y81773D01*
G01D02*
Y83773D01*
G01Y81773D02*
X80784D01*
G01X79502Y90532D02*
X83553D01*
G01X77628Y118533D02*
Y115276D01*
X79315Y113589D01*
Y111289D01*
G01X82746Y134735D02*
Y136735D01*
G01X80746D02*
X82746D01*
G01D02*
X84746D01*
G01X79374Y186427D02*
X83917D01*
G01X88180Y36121D02*
X87022D01*
X85133Y34231D01*
G01Y32231D02*
Y34231D01*
G01X88180Y41633D02*
X94019Y47471D01*
X177155D01*
X179183Y49500D01*
Y53396D01*
G01X88180Y34284D02*
Y36121D01*
G01D02*
Y37958D01*
G01X85133Y34231D02*
X87133D01*
G01X94449Y60837D02*
Y59534D01*
X88972Y54057D01*
G01X86300Y67767D02*
X86622D01*
X87989Y69134D01*
X88937D01*
G01Y77431D02*
Y80301D01*
G01X87100Y77431D02*
X88937D01*
G01D02*
X90774D01*
G01X88005Y88531D02*
Y90532D01*
G01D02*
Y92532D01*
G01Y90532D02*
X90005D01*
G01X83553Y88350D02*
Y90532D01*
G01D02*
Y92713D01*
G01Y100532D02*
X91921D01*
G02X94237Y98216I0J-2316D01*
G01Y89984D01*
G03X96716Y87504I2479J0D01*
G01X112937D01*
X113406Y87972D01*
G01X91326Y121018D02*
Y122855D01*
G01D02*
Y124692D01*
G01X88456Y122855D02*
X91326D01*
G01D02*
X94196D01*
G01X91092Y133616D02*
Y135453D01*
G01D02*
Y137290D01*
G01X88222Y135453D02*
X91092D01*
G01D02*
X93963D01*
G01X83917Y181884D02*
Y186427D01*
G01X90279D02*
X94823D01*
G01X83917D02*
Y190971D01*
G01Y186427D02*
X88461D01*
G01X93061Y16514D02*
Y27450D01*
X106212Y40601D01*
G01X94484Y54057D02*
X97735D01*
X97902Y53890D01*
G01X94484Y54057D02*
Y56927D01*
G01X92647Y54057D02*
X94484D01*
G01X97902Y53890D02*
Y55890D01*
G01Y53890D02*
X99902D01*
G01X94449Y77431D02*
Y75689D01*
X97294Y72843D01*
G01X94449Y69134D02*
X97822D01*
X97844Y69112D01*
G01X98108Y95532D02*
X100108D01*
G01X96461Y111013D02*
Y113014D01*
G01D02*
Y115014D01*
G01X94461Y113014D02*
X96461D01*
G01X97726Y145902D02*
Y147902D01*
G01X95726Y145902D02*
X97726D01*
G01X98285Y148595D02*
X100286D01*
G01X94823Y181884D02*
Y186427D01*
G01D02*
Y190971D01*
G01Y186427D02*
X99366D01*
G01X106604Y8575D02*
X103449Y11731D01*
Y23481D01*
X110162Y30194D01*
Y37201D01*
X114251Y41290D01*
X114611D01*
G01X106212Y35944D02*
Y35544D01*
X104223Y33555D01*
G01Y31555D02*
Y33555D01*
G01X102223D02*
X104223D01*
G01D02*
X106223D01*
G01X106212Y40601D02*
X111161Y45550D01*
X178282D01*
X181152Y48420D01*
Y53396D01*
G01X106212Y40601D02*
Y41456D01*
G01X104813Y93350D02*
Y95532D01*
G01D02*
Y97713D01*
G01X100108Y93531D02*
Y95532D01*
G01D02*
Y97532D01*
G01X100286Y118533D02*
Y112818D01*
G01X102844Y118533D02*
Y115359D01*
X103086Y115118D01*
Y112818D01*
G01X105404Y118533D02*
Y115599D01*
X105886Y115118D01*
Y112818D01*
G01X100286Y148595D02*
Y150596D01*
G01X113061Y16514D02*
Y34228D01*
X114611Y35778D01*
G01X109852Y69547D02*
Y62214D01*
X116831Y55236D01*
G01Y62717D02*
X113556D01*
G01X115364Y69547D02*
X117388D01*
X121275Y65660D01*
G01X109582Y93531D02*
Y95532D01*
G01D02*
Y97532D01*
G01X123304Y35944D02*
Y30209D01*
X136999Y16514D01*
G01X123304Y35944D02*
X125565D01*
X127508Y37887D01*
Y42003D01*
X129255Y43750D01*
X179294D01*
X183120Y47576D01*
Y53396D01*
G01X123304Y41456D02*
X119136D01*
G01X123304Y39619D02*
Y41456D01*
G01D02*
Y43293D01*
G01X119136Y39456D02*
Y41456D01*
G01D02*
Y43456D01*
G01X124781Y54860D02*
Y51262D01*
X124666Y51146D01*
G01X122944Y54860D02*
X124781D01*
G01X122666Y51146D02*
X124666D01*
G01X116831Y60535D02*
Y62717D01*
G01D02*
Y64898D01*
G01Y62717D02*
X119799D01*
G01X124169Y78841D02*
Y76884D01*
X120824Y73539D01*
G01Y71539D02*
Y73539D01*
G01D02*
Y75539D01*
G01X118824Y73539D02*
X120824D01*
G01D02*
X122824D01*
G01X124169Y78841D02*
Y81810D01*
G01X121988Y78841D02*
X124169D01*
G01D02*
X126351D01*
G01X157726Y74852D02*
X149316D01*
G02X145780Y76317I0J5000D01*
G01X135590Y86508D01*
G03X132054Y87972I-3536J-3536D01*
G01X118917D01*
G01X120758Y107448D02*
Y109449D01*
G01X118758D02*
X120758D01*
G01D02*
X122758D01*
G01X123794Y128929D02*
X125558Y130693D01*
X134231D01*
X136534Y132996D01*
Y137357D01*
X139701Y140524D01*
X140718D01*
G01X123317Y147004D02*
Y149004D01*
G01X121317Y147004D02*
X123317D01*
G01D02*
X125317D01*
G01X174303Y8575D02*
X141422Y41456D01*
X131849D01*
G01Y35944D02*
X137568D01*
X156999Y16514D01*
G01X130293Y61701D02*
Y54860D01*
G01D02*
Y50586D01*
G01X124781Y54860D02*
Y57731D01*
G01Y54860D02*
X126618D01*
G01X124666Y51146D02*
X126666D01*
G01X127910Y69786D02*
Y64084D01*
X130293Y61701D01*
G01X131650Y78841D02*
X134981D01*
X139895Y73927D01*
G01X132835Y126526D02*
Y128363D01*
G01X129964D02*
X132835D01*
G01X132619Y133176D02*
Y135012D01*
G01D02*
Y136849D01*
G01X128155Y152035D02*
Y147461D01*
G01X140934Y121014D02*
Y122851D01*
G01D02*
Y124688D01*
G01X138064Y122851D02*
X140934D01*
G01D02*
X143804D01*
G01X136590Y126362D02*
Y128363D01*
G01D02*
Y130363D01*
G01X144952Y128360D02*
X140936D01*
X140934Y128362D01*
G01X145648Y140767D02*
X140961D01*
X140718Y140524D01*
G01Y133176D02*
Y135012D01*
G01D02*
Y136849D01*
G01Y135012D02*
X143589D01*
G01X135377Y155710D02*
Y157547D01*
G01D02*
Y160184D01*
G01D02*
Y162184D01*
G01X133377Y160184D02*
X135377D01*
G01D02*
X137377D01*
G01X135377Y157547D02*
X138248D01*
G01X144854Y71040D02*
X144979Y70915D01*
X157726D01*
G01Y68947D02*
X147170D01*
X146677Y68453D01*
G01X157726Y84695D02*
X147189D01*
X146965Y84471D01*
X144555Y82845D01*
G01X146534Y80865D02*
X148396Y82726D01*
X157726D01*
G01Y80758D02*
X150877D01*
X148646Y78527D01*
G01X157726Y94537D02*
X153240D01*
X148251Y89549D01*
X145951D01*
G01Y86748D02*
X148006D01*
X153827Y92569D01*
X157726D01*
G01Y100443D02*
X150746D01*
X148251Y97948D01*
X145951D01*
G01X157726Y106348D02*
X145951D01*
G01X157726Y104380D02*
X149083D01*
X148251Y103548D01*
X145951D01*
G01X157726Y102412D02*
X149914D01*
X148251Y100748D01*
X145951D01*
G01X142600Y157547D02*
Y161406D01*
G01X157726Y63041D02*
X153025D01*
G01Y61041D02*
Y63041D01*
G01D02*
Y65042D01*
G01X151025Y63041D02*
X153025D01*
G01X157726Y78789D02*
X153593D01*
X152508Y77704D01*
G01X157726Y88632D02*
X153851D01*
X152527Y87308D01*
G01X157726Y116191D02*
X153827D01*
X152995Y115360D01*
X151439D01*
G01X157726Y114222D02*
X154404D01*
X152741Y112560D01*
X151439D01*
G01X157726Y110286D02*
X153121D01*
X151910Y109074D01*
G01X157726Y118160D02*
X151439D01*
G01X165404Y53396D02*
X160637D01*
G01X157726Y61073D02*
X210337D01*
G01X218217Y58437D02*
Y59045D01*
X212252Y65010D01*
X157726D01*
G01Y66978D02*
X170172D01*
X172725Y69531D01*
G01X157726Y86663D02*
X167539D01*
G01X168986Y103130D02*
X164330Y98474D01*
X157726D01*
G01Y96506D02*
X166439D01*
X168344Y98412D01*
G01X157726Y108317D02*
X177086D01*
G01X264914Y141002D02*
X246186D01*
X233185Y128002D01*
X157726D01*
G01X165404Y137648D02*
Y141315D01*
X169187Y145099D01*
G01X162758Y150249D02*
Y154202D01*
G01D02*
Y158155D01*
G01X158805Y154202D02*
X162758D01*
G01D02*
X166711D01*
G01X160367Y169197D02*
Y186316D01*
X160256Y186427D01*
G01X167372Y137648D02*
Y130822D01*
G01X172071Y176427D02*
X176614D01*
G01Y171884D02*
Y176427D01*
G01D02*
Y180971D01*
G01Y176427D02*
X181158D01*
G01X189026Y53396D02*
Y47243D01*
X203330Y32938D01*
X252930D01*
X258144Y38151D01*
G01X187057Y53396D02*
Y58271D01*
G01X185057D02*
X187057D01*
G01D02*
X189057D01*
G01X185089Y137648D02*
Y132892D01*
X186357Y131624D01*
G01X187057Y137648D02*
Y142281D01*
X187964Y143188D01*
G01X190994Y137648D02*
Y145966D01*
X182758Y154202D01*
G01X187964Y143188D02*
Y145188D01*
G01X185964Y143188D02*
X187964D01*
G01X187520Y171884D02*
Y176427D01*
G01D02*
Y180971D01*
G01X182976Y176427D02*
X187520D01*
G01D02*
X192063D01*
G01X196900Y53396D02*
Y47185D01*
X194902Y45188D01*
G01X192963Y137648D02*
Y153998D01*
X192758Y154202D01*
G01X196900Y137648D02*
Y140970D01*
X210131Y154202D01*
X212758D01*
G01X194931Y137648D02*
Y146375D01*
X202758Y154202D01*
G01X198425Y171884D02*
Y176427D01*
G01D02*
Y180971D01*
G01X193882Y176427D02*
X198425D01*
G01D02*
X202969D01*
G01X198868Y53396D02*
Y42499D01*
G01X206742Y53396D02*
Y58320D01*
G01X204742D02*
X206742D01*
G01D02*
X208742D01*
G01X207584Y145844D02*
X207045D01*
X204774Y143573D01*
Y137648D01*
G01X206742D02*
Y141112D01*
X208240Y142610D01*
G01X204787Y176427D02*
X209331D01*
G01X246805Y38152D02*
X243522Y34868D01*
X213111D01*
X208711Y39268D01*
Y53396D01*
G01X213394Y38151D02*
X215394D01*
G01X216394Y147222D02*
Y146912D01*
X212648Y143166D01*
Y137648D01*
G01X209331Y171884D02*
Y176427D01*
G01D02*
Y180971D01*
G01Y176427D02*
X213874D01*
G01X218616Y38151D02*
X215394D01*
G01X218616D02*
Y41022D01*
G01Y38151D02*
X220453D01*
G01X215394D02*
Y40152D01*
G01X222490Y53396D02*
Y77195D01*
X233671Y88376D01*
G01X281588Y42174D02*
Y36823D01*
X273734Y28969D01*
X263659D01*
X259994Y25304D01*
X234449D01*
X225659Y16514D01*
G01X229955Y38152D02*
X227154D01*
G01X224128Y38151D02*
Y43559D01*
G01X230332Y132173D02*
X232333D01*
G01X256476Y144217D02*
X232897D01*
X230364Y141684D01*
Y137648D01*
G01X306477Y98215D02*
G02X299988Y98215I-3244J3244D01*
G01X285302Y112902D01*
G02X283837Y116437I3536J3536D01*
G01Y132532D01*
G03X282373Y136068I-5000J0D01*
G01X268436Y150004D01*
G03X264900Y151469I-3536J-3536D01*
G01X234057D01*
G03X230521Y150004I0J-5000D01*
G01X227892Y147375D01*
G03X226427Y143839I3536J-3536D01*
G01Y137648D01*
G01X320046Y98186D02*
X317013Y95152D01*
G02X313477Y93688I-3536J3536D01*
G01X301716D01*
G02X298180Y95152I0J5000D01*
G01X281892Y111441D01*
G02X280427Y114977I3536J3536D01*
G01Y130611D01*
G03X278962Y134147I-5000J0D01*
G01X266231Y146878D01*
G03X262696Y148343I-3536J-3536D01*
G01X235566D01*
G03X232030Y146878I0J-5000D01*
G01X229860Y144708D01*
G03X228396Y141172I3536J-3536D01*
G01Y137648D01*
G01X226638Y181427D02*
X236496D01*
G01X232333Y47093D02*
Y40225D01*
X234406Y38152D01*
X235467D01*
G01X252281Y51362D02*
X243677D01*
X235467Y43152D01*
Y38152D01*
G01X241294D02*
X239012D01*
G01X232333Y53396D02*
Y47093D01*
G01D02*
X234301Y49062D01*
Y53396D01*
G01X241978Y90600D02*
X237798D01*
G01D02*
X236249Y92149D01*
G01Y90149D02*
Y92149D01*
G01D02*
Y94150D01*
G01X234248Y92149D02*
X236249D01*
G01X241978Y120128D02*
X237180D01*
G01Y118128D02*
Y120128D01*
G01D02*
Y122128D01*
G01X235179Y120128D02*
X237180D01*
G01X232333Y137648D02*
Y132173D01*
G01Y130172D02*
Y132173D01*
G01D02*
X234333D01*
G01X236496Y171569D02*
Y181427D01*
G01D02*
Y191286D01*
G01Y181427D02*
X246355D01*
G01X291598Y42174D02*
Y33574D01*
X284994Y26970D01*
X265737D01*
X255281Y16514D01*
X245659D01*
G01X246805Y38152D02*
Y45886D01*
X252281Y51362D01*
G01X241294Y38152D02*
Y41022D01*
G01Y38152D02*
X243130D01*
G01X241978Y65010D02*
X257636D01*
X263404Y59241D01*
G01X241978Y63041D02*
X254822D01*
X259720Y58143D01*
G01X241978Y61073D02*
X251998D01*
X255094Y57977D01*
G01X241978Y70915D02*
X278103D01*
X280306Y68712D01*
G01X241978Y80758D02*
X249816D01*
X255427Y75146D01*
G01X241978Y82726D02*
X252149D01*
X259220Y75656D01*
G01X241978Y84695D02*
X254189D01*
X262885Y75999D01*
G01X241978Y86663D02*
X255504D01*
X256907Y85260D01*
X269745D01*
X272460Y87975D01*
X323413D01*
X334929Y99491D01*
X342033D01*
G01X336728Y101989D02*
X334111D01*
X321905Y89782D01*
X271513D01*
X269000Y87269D01*
X258828D01*
X257297Y88800D01*
X242147D01*
X241978Y88632D01*
G01Y92569D02*
X250666D01*
G01X241978Y108317D02*
X245331D01*
X248048Y111034D01*
G01X241978Y106348D02*
X253306D01*
X255109Y108151D01*
G01X241978Y104380D02*
X253369D01*
X255109Y102639D01*
G01X267646Y130503D02*
X267288D01*
X252976Y116191D01*
X241978D01*
G01X255427Y123157D02*
X254519Y124065D01*
X241978D01*
G01Y122096D02*
X249716D01*
X252036Y119776D01*
G01X241978Y118160D02*
X250420D01*
X252036Y119776D01*
G01X263816Y135103D02*
X256715Y128002D01*
X241978D01*
G01X261425Y136730D02*
X254666Y129970D01*
X241978D01*
G01X265995Y132924D02*
X265782D01*
X258892Y126034D01*
X241978D01*
G01X252632Y38151D02*
X249910D01*
G01X252632Y35281D02*
Y38151D01*
G01D02*
Y41022D01*
G01Y38151D02*
X254469D01*
G01X249910Y36151D02*
Y38151D01*
G01D02*
Y40152D01*
G01X252281Y51362D02*
X253261Y52342D01*
G01X255109Y102639D02*
Y98791D01*
X262068Y91832D01*
G01X255109Y108151D02*
Y114322D01*
X259565Y118778D01*
X262501D01*
G01X258144Y38151D02*
Y49757D01*
X263022Y54635D01*
G01X263971Y38151D02*
X261317D01*
G01X263971Y35281D02*
Y38151D01*
G01D02*
Y41022D01*
G01Y38151D02*
X265808D01*
G01X261317Y36151D02*
Y38151D01*
G01D02*
Y40152D01*
G01X269482Y38151D02*
X263377Y44257D01*
X262767D01*
G01X262068Y91832D02*
X266177Y95942D01*
X270225D01*
X272471Y98188D01*
Y100553D01*
G01X259911Y98552D02*
Y100553D01*
G01X264597D02*
X259911D01*
G01D02*
Y102553D01*
G01X257911Y100553D02*
X259911D01*
G01X262501Y118778D02*
Y119273D01*
G01X264597Y110395D02*
Y116682D01*
X262501Y118778D01*
G01X260240Y181466D02*
X270098D01*
G01X265659Y16514D02*
X265747D01*
X273459Y24226D01*
X289188D01*
X301720Y36758D01*
Y42228D01*
G01X269482Y38151D02*
X275066Y43735D01*
Y54635D01*
G01X272471Y106639D02*
Y110395D01*
G01X264597Y100553D02*
Y104309D01*
G01Y100553D02*
X267763D01*
G01X272471Y110395D02*
X277695D01*
G01X270544Y114795D02*
Y116795D01*
G01X272471Y110395D02*
Y114151D01*
G01X269306Y110395D02*
X272471D01*
G01X270544Y116795D02*
X269697D01*
X268013Y118480D01*
Y119273D01*
G01D02*
Y122144D01*
G01X266176Y119273D02*
X268013D01*
G01D02*
X269849D01*
G01X270544Y116795D02*
Y118795D01*
G01Y116795D02*
X272544D01*
G01X270098Y171608D02*
Y181466D01*
G01D02*
Y191325D01*
G01Y181466D02*
X279957D01*
G01X280306Y61181D02*
Y58470D01*
X284141Y54635D01*
G01X280306Y61181D02*
X277203D01*
G01X293353Y54635D02*
X290100Y57889D01*
Y61445D01*
X286541Y65003D01*
X282514D01*
X280306Y67212D01*
Y68712D01*
G01X298312Y54635D02*
X295127Y57820D01*
Y70080D01*
X292638Y72569D01*
X284033D01*
X280361Y76242D01*
X280306D01*
G01D02*
X277544D01*
G01X277017Y83398D02*
X280277D01*
X280493Y83614D01*
G01X278986Y96627D02*
Y98627D01*
G01D02*
Y100627D01*
G01X276986Y98627D02*
X278986D01*
G01D02*
X280987D01*
G01X277695Y108395D02*
Y110395D01*
G01D02*
Y112396D01*
G01Y110395D02*
X279695D01*
G01X281588Y42174D02*
Y49725D01*
G01X287100Y42174D02*
Y37329D01*
G01Y42174D02*
Y45045D01*
G01X285263Y42174D02*
X287100D01*
G01D02*
X288936D01*
G01X287100Y35329D02*
Y37329D01*
G01X285100D02*
X287100D01*
G01D02*
X289100D01*
G01X285818Y61181D02*
Y57858D01*
G01X283818D02*
X285818D01*
G01D02*
X287818D01*
G01X283981Y61181D02*
X285818D01*
G01D02*
X287654D01*
G01X285818Y68712D02*
X289360D01*
G01X285818Y76242D02*
X288896D01*
G01X286005Y80744D02*
Y83614D01*
G01X288532Y81614D02*
Y83614D01*
G01X288896Y76242D02*
Y78242D01*
G01Y76242D02*
X290897D01*
G01X285818D02*
Y79112D01*
G01X283981Y76242D02*
X285818D01*
G01X286005Y83614D02*
X288532D01*
G01X284168D02*
X286005D01*
G01X288532D02*
Y85614D01*
G01Y83614D02*
X290532D01*
G01X288219Y121525D02*
X290056D01*
G01X288056Y117350D02*
X290056D01*
G01X321627Y42174D02*
Y29543D01*
X315957Y23873D01*
X296956D01*
X289597Y16514D01*
G01X291598Y42174D02*
Y46186D01*
G01X297110Y42174D02*
Y38233D01*
G01Y42174D02*
Y45045D01*
G01X295273Y42174D02*
X297110D01*
G01D02*
X298946D01*
G01X297110Y36232D02*
Y38233D01*
G01X295109D02*
X297110D01*
G01D02*
X299110D01*
G01X300005Y61181D02*
X297440D01*
G01X289360Y66712D02*
Y68712D01*
G01X300005Y74686D02*
X297224D01*
G01X289360Y68712D02*
Y70712D01*
G01Y68712D02*
X291360D01*
G01X300005Y81438D02*
X297214D01*
G01X296984Y112342D02*
X298984D01*
G01X290056Y115349D02*
Y117350D01*
G01Y121525D02*
X291893D01*
G01X290056Y117350D02*
X292056D01*
G01X300005Y61181D02*
Y59076D01*
X304447Y54635D01*
G01X305517Y61181D02*
Y57759D01*
G01X311728Y54635D02*
X309180Y57183D01*
Y62740D01*
X307210Y64709D01*
X302928D01*
X300005Y67632D01*
Y67934D01*
G01D02*
Y69174D01*
X305517Y74686D01*
G01X300005Y67934D02*
X297538D01*
G01X305517D02*
X308465D01*
G01X305517D02*
Y70804D01*
G01X303680Y67934D02*
X305517D01*
G01X316638Y54635D02*
X313825Y57448D01*
Y75293D01*
X310851Y78268D01*
X303175D01*
X300005Y81438D01*
G01X305517D02*
Y84308D01*
G01X303680Y81438D02*
X305517D01*
G01D02*
X307354D01*
G01X306398Y104741D02*
X302907D01*
G01Y102741D02*
Y104741D01*
G01D02*
Y106741D01*
G01X300906Y104741D02*
X302907D01*
G01X304259Y110160D02*
Y112342D01*
G01D02*
Y114523D01*
G01Y112342D02*
X308310D01*
G01X298984Y110341D02*
Y112342D01*
G01D02*
Y114342D01*
G01X311910Y104741D02*
Y114959D01*
X309527Y117342D01*
X304259D01*
G01X305595Y139703D02*
X307595D01*
G01X337149Y42174D02*
Y35162D01*
X318501Y16514D01*
X309596D01*
G01X311617Y42174D02*
Y47311D01*
X318941Y54635D01*
G01X307232Y42228D02*
X311564D01*
X311617Y42174D01*
G01X308465Y67934D02*
Y69934D01*
G01Y67934D02*
X310465D01*
G01X311910Y104741D02*
Y98294D01*
X311989Y98215D01*
G01X306398Y101870D02*
Y104741D01*
G01D02*
Y107611D01*
G01Y104741D02*
X308235D01*
G01X307595Y137703D02*
Y139703D01*
G01D02*
X309596D01*
G01X307595Y143857D02*
Y146728D01*
G01X305758Y143857D02*
X307595D01*
G01D02*
X309432D01*
G01X313622Y181923D02*
Y186466D01*
G01D02*
Y191010D01*
G01X309078Y186466D02*
X313622D01*
G01X321627Y42174D02*
Y51127D01*
G01X317129Y42174D02*
Y38376D01*
G01Y42174D02*
Y45045D01*
G01X315292Y42174D02*
X317129D01*
G01D02*
X318966D01*
G01X317129Y36375D02*
Y38376D01*
G01X315129D02*
X317129D01*
G01D02*
X319129D01*
G01X319154Y61181D02*
Y58577D01*
X323096Y54635D01*
G01X316518Y60946D02*
X316716D01*
X316912Y60750D01*
X318723D01*
X319154Y61181D01*
G01X319024Y75940D02*
Y68737D01*
X319083Y68678D01*
G01X319517Y82506D02*
X319372Y82361D01*
G01D02*
Y76288D01*
X319024Y75940D01*
G01X316413Y82104D02*
X316560Y82251D01*
X319262D01*
X319372Y82361D01*
G01X320021Y104741D02*
X316404D01*
G01X320021Y101870D02*
Y104741D01*
G01D02*
Y107611D01*
G01Y104741D02*
X321858D01*
G01X316404Y102741D02*
Y104741D01*
G01D02*
Y106741D01*
G01X314404Y104741D02*
X316404D01*
G01X319544Y140889D02*
Y143759D01*
G01D02*
Y146629D01*
G01X317707Y143759D02*
X319544D01*
G01X319075Y171923D02*
Y176466D01*
G01X314531D02*
X319075D01*
G01D02*
X323618D01*
G01X341647Y42174D02*
Y23470D01*
X334690Y16514D01*
X329596D01*
G01X327139Y42174D02*
Y37705D01*
G01X329800Y42174D02*
X331637D01*
G01X329637Y38029D02*
X331637D01*
G01X327139Y42174D02*
Y45045D01*
G01X325302Y42174D02*
X327139D01*
G01D02*
X328976D01*
G01X327139Y35705D02*
Y37705D01*
G01X325139D02*
X327139D01*
G01D02*
X329139D01*
G01X324666Y58311D02*
Y61181D01*
G01D02*
X327879D01*
G01X324666D02*
Y64052D01*
G01X322830Y61181D02*
X324666D01*
G01X327879Y59181D02*
Y61181D01*
G01D02*
Y63182D01*
G01Y61181D02*
X329879D01*
G01X336561Y54635D02*
X332034Y59163D01*
Y65729D01*
X329084Y68678D01*
X325973D01*
G01X325029Y82506D02*
Y86338D01*
G01X323192Y82506D02*
X325029D01*
G01D02*
X326866D01*
G01X323782Y75940D02*
X325914D01*
G01D02*
X328046D01*
G01X325532Y104741D02*
Y98212D01*
X325558Y98186D01*
G01X325519Y112342D02*
Y104755D01*
X325532Y104741D01*
G01X322922Y141759D02*
Y143759D01*
G01D02*
Y145759D01*
G01Y143759D02*
X324923D01*
G01X337149Y42174D02*
Y46736D01*
G01X331637Y42174D02*
Y38029D01*
G01Y42174D02*
Y45045D01*
G01Y42174D02*
X333474D01*
G01X331637Y36028D02*
Y38029D01*
G01D02*
X333637D01*
G01X336422Y79743D02*
Y83880D01*
X342033Y89491D01*
G01X337982Y94491D02*
X342033D01*
G01X336728Y101989D02*
X339230Y104491D01*
X342033D01*
G01X335942Y136672D02*
Y139703D01*
G01Y134836D02*
Y136672D01*
G01X333072D02*
X335942D01*
G01D02*
X338812D01*
G01X335942Y139703D02*
Y141703D01*
G01X333942Y139703D02*
X335942D01*
G01D02*
X337942D01*
G01X342390Y60172D02*
Y58253D01*
X346009Y54635D01*
G01X338786Y66983D02*
X342155D01*
X342390Y67218D01*
G01Y60172D02*
X339060D01*
G01X346065D02*
X347902D01*
G01X342390Y74264D02*
Y73159D01*
X344617Y70932D01*
X354878D01*
X357955Y67855D01*
Y59545D01*
X362865Y54635D01*
G01X342390Y74264D02*
X338678D01*
G01X346065Y67218D02*
X347902D01*
G01X341863Y83378D02*
Y79813D01*
X341934Y79743D01*
G01X342033Y89491D02*
X355956D01*
G01X350722Y92306D02*
Y96579D01*
X347811Y99491D01*
X342033D01*
G01Y94491D02*
X346884D01*
G01X342033Y92309D02*
Y94491D01*
G01D02*
Y96672D01*
G01X340971Y110896D02*
Y112896D01*
G01X338971D02*
X340971D01*
G01D02*
X342972D01*
G01X340971Y116918D02*
Y119789D01*
G01X339134Y116918D02*
X340971D01*
G01D02*
X342808D01*
G01X343993Y138602D02*
Y141533D01*
G01Y136469D02*
Y138602D01*
G01X340237D02*
X343993D01*
G01D02*
X347749D01*
G01X343993Y141533D02*
Y143534D01*
G01X341993Y141533D02*
X343993D01*
G01D02*
X345993D01*
G01X367178Y42174D02*
Y32009D01*
X353534Y18364D01*
Y16514D01*
G01X351657Y42174D02*
Y46652D01*
X359640Y54635D01*
G01X347159Y42174D02*
X351657D01*
G01X347902Y57302D02*
Y60172D01*
G01X351340Y58172D02*
Y60172D01*
G01X347902D02*
X351340D01*
G01X347902D02*
Y63042D01*
G01Y64348D02*
Y67218D01*
G01X350418Y65218D02*
Y67218D01*
G01X351340Y60172D02*
Y62172D01*
G01Y60172D02*
X353340D01*
G01X347902Y67218D02*
X350418D01*
G01X347902Y74264D02*
X350958D01*
G01D02*
Y76265D01*
G01Y74264D02*
X352958D01*
G01X350418Y67218D02*
X352419D01*
G01X354409Y79743D02*
Y87944D01*
X355956Y89491D01*
G01X350722Y83957D02*
Y81568D01*
X348897Y79743D01*
G01X346884Y92490D02*
Y94491D01*
G01D02*
Y96491D01*
G01Y94491D02*
X348884D01*
G01X357169Y42174D02*
Y38032D01*
G01X361667Y42174D02*
Y38423D01*
G01X357169Y42174D02*
Y45045D01*
G01X355332Y42174D02*
X357169D01*
G01D02*
X359006D01*
G01X361667D02*
Y45045D01*
G01X359830Y42174D02*
X361667D01*
G01D02*
X363503D01*
G01X361667Y36423D02*
Y38423D01*
G01X359666D02*
X361667D01*
G01D02*
X363667D01*
G01X357169Y36032D02*
Y38032D01*
G01X355169D02*
X357169D01*
G01D02*
X359169D01*
G01X361373Y62692D02*
Y65562D01*
G01D02*
Y68432D01*
G01Y65562D02*
X363210D01*
G01X366885Y79752D02*
Y78169D01*
X361373Y72657D01*
G01X361373Y79752D02*
X358484D01*
G01X361373Y76882D02*
Y79752D01*
G01D02*
Y82623D01*
G01Y79752D02*
X363210D01*
G01X358484Y77752D02*
Y79752D01*
G01D02*
Y81752D01*
G01X355956Y89491D02*
X357146D01*
X366885Y79752D01*
G01X359241Y94491D02*
X363293D01*
G01X359241Y99491D02*
X363293D01*
G01X359241Y104491D02*
X363293D01*
G01X367178Y42174D02*
Y50686D01*
G01X371676Y42174D02*
Y39476D01*
X370577Y38377D01*
G01X369840Y42174D02*
X371676D01*
G01X371146Y65288D02*
X367159D01*
X366885Y65562D01*
G01X371371Y72510D02*
X367032D01*
X366885Y72657D01*
G01X380720Y54635D02*
X375683Y59672D01*
Y77155D01*
X373086Y79752D01*
X366885D01*
G01X363293Y89491D02*
X367660D01*
G01Y87490D02*
Y89491D01*
G01D02*
Y91491D01*
G01Y89491D02*
X369660D01*
G01X363293Y87309D02*
Y89491D01*
G01D02*
Y91672D01*
G01Y94491D02*
X367940D01*
G01X363293Y99491D02*
X367989D01*
G01Y97490D02*
Y99491D01*
G01D02*
Y101491D01*
G01Y99491D02*
X369989D01*
G01X367940Y92490D02*
Y94491D01*
G01D02*
Y96491D01*
G01Y94491D02*
X369940D01*
G01X363293Y92309D02*
Y94491D01*
G01D02*
Y96672D01*
G01Y97309D02*
Y99491D01*
G01D02*
Y101672D01*
G01Y104491D02*
X368130D01*
G01Y102490D02*
Y104491D01*
G01D02*
Y106491D01*
G01Y104491D02*
X370130D01*
G01X363293Y102309D02*
Y104491D01*
G01D02*
Y106672D01*
G01X373534Y16514D02*
Y37217D01*
X377188Y40872D01*
Y42174D01*
G01D02*
Y46281D01*
G01X371676Y42174D02*
Y45045D01*
G01Y42174D02*
X373513D01*
G01X378621Y127184D02*
X380621D01*
G01X376471Y132521D02*
X380621D01*
G01X378496Y141996D02*
Y143832D01*
G01D02*
Y145669D01*
G01X375625Y143832D02*
X378496D01*
G01D02*
X381366D01*
G01X393534Y16514D02*
Y30327D01*
X381686Y42174D01*
G01X387198D02*
X391696D01*
G01X384883Y76772D02*
Y80725D01*
G01D02*
Y84678D01*
G01X380930Y80725D02*
X384883D01*
G01D02*
X388836D01*
G01X380621Y125184D02*
Y127184D01*
G01D02*
X382621D01*
G01X380621Y132521D02*
Y136671D01*
G01Y132521D02*
X384771D01*
G01X391696Y42174D02*
Y48578D01*
X397753Y54635D01*
G01X395371Y42174D02*
X397208D01*
G01X395208Y38138D02*
X397208D01*
G01X394883Y76772D02*
Y80725D01*
G01D02*
Y84678D01*
G01X390930Y80725D02*
X394883D01*
G01D02*
X398836D01*
G01X392455Y147325D02*
Y151278D01*
G01X388502D02*
X392455D01*
G01D02*
X396408D01*
G01X397208Y42174D02*
Y38138D01*
G01Y42174D02*
Y45045D01*
G01Y42174D02*
X399045D01*
G01X397208Y36137D02*
Y38138D01*
G01D02*
X399208D01*
G01X400866Y181923D02*
Y186466D01*
G01D02*
Y191010D01*
G01X396323Y186466D02*
X400866D01*
G01D02*
X405410D01*
G01X411549Y16514D02*
X417471D01*
G01X407901Y100895D02*
Y102895D01*
G01D02*
Y104895D01*
G01X405900Y102895D02*
X407901D01*
G01X411662Y112391D02*
X413662D01*
G01X410792Y115130D02*
X413662D01*
G01X406319Y171923D02*
Y176466D01*
G01D02*
X410862D01*
G01X417471Y16514D02*
Y22435D01*
G01X420812Y41793D02*
X422648D01*
G01X418768Y50875D02*
Y52876D01*
G01D02*
Y54876D01*
G01X416768Y52876D02*
X418768D01*
G01X418425Y62125D02*
Y64126D01*
G01D02*
Y66126D01*
G01X416425Y64126D02*
X418425D01*
G01X418754Y95127D02*
Y97128D01*
G01X416754D02*
X418754D01*
G01X413958Y100566D02*
Y102895D01*
G01D02*
Y105224D01*
G01Y102895D02*
X418403D01*
G01X413662Y110390D02*
Y112391D01*
G01D02*
X415662D01*
G01X413662Y115130D02*
Y116966D01*
G01Y115130D02*
X416532D01*
G01X422648Y41793D02*
Y44663D01*
G01Y41793D02*
X424485D01*
G01X422078Y49120D02*
Y52876D01*
G01D02*
Y56632D01*
G01Y52876D02*
X424210D01*
G01X422078Y60370D02*
Y64126D01*
G01D02*
X424210D01*
G01X427495Y69933D02*
X429495D01*
G01X422481Y99001D02*
Y100838D01*
G01X428770Y95251D02*
Y97088D01*
G01X425900D02*
X428770D01*
G01X422481Y95291D02*
Y97128D01*
G01D02*
Y98964D01*
G01Y97128D02*
X425351D01*
G01X422481Y100838D02*
Y102675D01*
G01Y100838D02*
X425351D01*
G01X427249Y122216D02*
X433269D01*
G01X434162Y74533D02*
Y77896D01*
G01X429619Y74533D02*
X434162D01*
G01D02*
X438706D01*
G01X434162Y67759D02*
Y69759D01*
G01X432162D02*
X434162D01*
G01D02*
X436162D01*
G01X429495Y69933D02*
Y71933D01*
G01Y69933D02*
X431495D01*
G01X432572Y95088D02*
Y97088D01*
G01D02*
Y99088D01*
G01Y97088D02*
X434572D01*
G01X433269Y114424D02*
Y122216D01*
G01D02*
Y130008D01*
G01X441969Y40635D02*
Y42816D01*
G01D02*
Y44998D01*
G01X441330Y60370D02*
Y63240D01*
G01D02*
Y66110D01*
G01X439493Y63240D02*
X441330D01*
G01D02*
X443166D01*
G01X443882Y91488D02*
X447934D01*
G01X437593Y97606D02*
Y102149D01*
G01D02*
X440956D01*
G01X443111Y112535D02*
Y114716D01*
G01D02*
Y116897D01*
G01X445437Y181466D02*
X455295D01*
G01X447934Y89307D02*
Y91488D01*
G01D02*
Y93669D01*
G01Y94306D02*
Y96488D01*
G01D02*
Y98669D01*
G01X453662Y112623D02*
Y114460D01*
G01D02*
Y116297D01*
G01X450792Y114460D02*
X453662D01*
G01D02*
X456532D01*
G01X459306Y112728D02*
X464834D01*
G01X455295Y171608D02*
Y181466D01*
G01D02*
Y191325D01*
G01Y181466D02*
X465154D01*
G01X463229Y40635D02*
Y42816D01*
G01Y45635D02*
Y47816D01*
G01D02*
Y49998D01*
G01Y47816D02*
X467281D01*
G01X463229Y42816D02*
Y44998D01*
G01Y42816D02*
X467281D01*
G01X468121Y59779D02*
Y63535D01*
G01D02*
Y67291D01*
G01X465989Y63535D02*
X468121D01*
G01X465749Y74254D02*
Y77124D01*
G01Y74254D02*
X467586D01*
G01X469194Y94306D02*
Y96488D01*
G01D02*
Y98669D01*
G01X464834Y107200D02*
Y112728D01*
G01D02*
Y118256D01*
G01X477051Y19685D02*
X486909D01*
G01X472819Y61535D02*
Y63535D01*
G01D02*
Y65535D01*
G01Y63535D02*
X474819D01*
G01X486909Y9826D02*
Y19685D01*
G01D02*
Y29544D01*
G01Y19685D02*
X496768D01*
G01X486909Y198803D02*
Y208661D01*
G01D02*
Y218520D01*
G01Y208661D02*
X496768D01*
G54D17*
X64429Y99685D03*
Y106575D03*
X343993Y131712D03*
Y138602D03*
G54D26*
X380621Y132521D03*
X398337D03*
G54D36*
G01X20590Y55370D02*
X27293Y62073D01*
X46844D01*
X57934Y73163D01*
Y81773D01*
G01X20590Y78253D02*
X22691Y80354D01*
X30561D01*
G01Y109252D02*
X25560D01*
X20590Y104282D01*
G01X31957Y26764D02*
X49499Y44306D01*
X67669D01*
X72138Y48775D01*
X83878D01*
X88972Y53868D01*
Y54057D01*
G01X49372Y109221D02*
Y82163D01*
X38359Y71150D01*
X36858D01*
G01X57155Y118533D02*
Y125045D01*
G01Y141073D02*
Y145156D01*
G01X51260Y152037D02*
X54621Y148676D01*
X58261D01*
X62274Y144663D01*
Y141073D01*
G01X89370Y176427D02*
X84266Y171324D01*
X71295D01*
X57521Y157549D01*
X57234D01*
G01X78465Y176427D02*
X69137D01*
X51260Y158550D01*
Y157549D01*
G01X64833Y141073D02*
Y145475D01*
X58271Y152037D01*
X57234D01*
G01X59715Y141073D02*
Y137389D01*
G01X67392Y141073D02*
Y147854D01*
X63209Y152037D01*
G01X100276Y176427D02*
X92947Y169099D01*
X74758D01*
X63209Y157549D01*
G01X75069Y141073D02*
Y145974D01*
X81132Y152037D01*
G01X69951Y141073D02*
Y151270D01*
X69183Y152037D01*
G01X72510Y141073D02*
Y149390D01*
X75158Y152037D01*
G01X111181Y176427D02*
X101853Y167099D01*
X78733D01*
X69183Y157549D01*
G01X75158D02*
X82707Y165099D01*
X110758D01*
X122087Y176427D01*
G01X91326Y117343D02*
X87859Y113876D01*
X83829D01*
X82746Y114959D01*
Y118533D01*
G01X87106Y152037D02*
X85838D01*
X77628Y143827D01*
Y141073D01*
G01X93081Y152037D02*
Y149940D01*
X89680Y146539D01*
X83347D01*
X80187Y143379D01*
Y141073D01*
G01X81132Y157549D02*
X86682Y163099D01*
X120845D01*
X132992Y175246D01*
Y176427D01*
G01X91326Y117343D02*
X86495D01*
X85305Y118533D01*
G01X93316Y128929D02*
X96579Y125665D01*
Y122500D01*
X91422Y117343D01*
X91326D01*
G01X91092Y140965D02*
X85413D01*
X85305Y141073D01*
G01X87106Y157549D02*
X90656Y161099D01*
X128569D01*
X143898Y176427D01*
G01X97637Y58614D02*
X96672D01*
X94449Y60837D01*
G01X97726Y118533D02*
Y114279D01*
X96461Y113014D01*
G01X97726Y141073D02*
Y145902D01*
G01X93081Y157549D02*
X97274D01*
G01X103419Y157547D02*
X101885Y157549D01*
X98882Y154546D01*
G01X105404Y141073D02*
Y146209D01*
X111230Y152035D01*
G01X102844Y141073D02*
Y151460D01*
X103419Y152035D01*
G01X119041Y152035D02*
Y150440D01*
X115875Y147274D01*
X111858D01*
X107963Y143379D01*
Y141073D01*
G01X100286D02*
Y148595D01*
G01X111230Y157547D02*
X109723D01*
X107055Y154879D01*
G01X124781Y61701D02*
X124421D01*
X121334Y58614D01*
G01X132835Y120741D02*
Y114146D01*
X131251Y112563D01*
X124823D01*
X123317Y114068D01*
Y118533D01*
G01X120758D02*
Y109449D01*
G01X123794Y128929D02*
X129871Y122851D01*
X132835D01*
G01X123317Y141073D02*
Y147004D01*
G01X119041Y157547D02*
X123345D01*
G01X125876Y118533D02*
X130627D01*
X132835Y120741D01*
G01Y122851D02*
Y120741D01*
G01Y128363D02*
X136590D01*
G01X132619Y140524D02*
X126424D01*
X125876Y141073D01*
G01X128155Y157547D02*
X129865D01*
X135377Y152035D01*
G01D02*
X142600D01*
G01X373782Y149391D02*
X378449D01*
X378496Y149344D01*
G01X428160Y40070D02*
Y38085D01*
X430259Y35986D01*
G54D18*
X83553Y90532D03*
Y95532D03*
Y100532D03*
Y105532D03*
X104813Y90532D03*
Y100532D03*
Y95532D03*
Y105532D03*
X304259Y112342D03*
Y117342D03*
Y122342D03*
Y127342D03*
X325519Y112342D03*
Y122342D03*
Y117342D03*
Y127342D03*
X342033Y89491D03*
Y94491D03*
Y99491D03*
Y104491D03*
X363293Y89491D03*
Y99491D03*
Y94491D03*
Y104491D03*
X441969Y37816D03*
Y42816D03*
Y47816D03*
Y52816D03*
X447934Y86488D03*
Y91488D03*
Y96488D03*
Y101488D03*
X463229Y42816D03*
Y37816D03*
Y47816D03*
Y52816D03*
X469194Y91488D03*
Y86488D03*
Y96488D03*
Y101488D03*
G54D27*
X390060Y98053D03*
Y122462D03*
G54D37*
G01X63446Y90878D02*
Y87285D01*
X57934Y81773D01*
G01X77969Y124940D02*
X57260D01*
X57155Y125045D01*
G01X63446Y81773D02*
X69085D01*
G01X64429Y99685D02*
X72716D01*
X72845Y99813D01*
G01X74597Y90878D02*
Y87285D01*
X69085Y81773D01*
G01X74597D02*
X78784D01*
G01X83553Y95532D02*
X79251D01*
X74597Y90878D01*
G01X69085D02*
Y86676D01*
G01X83553Y105532D02*
X78563D01*
X72845Y99813D01*
G01X83553Y90532D02*
X88005D01*
G01X83553Y105532D02*
X104813D01*
G01X80187Y118533D02*
Y122722D01*
G01D02*
X77969Y124940D01*
G01X82746Y141073D02*
Y136735D01*
G01X91092Y140965D02*
X92383D01*
X95619Y137729D01*
G01X104813Y95532D02*
X100108D01*
G01X104813D02*
X109582D01*
G01X104813Y105532D02*
X114213D01*
X118917Y100827D01*
G01X104813Y100532D02*
X113110D01*
X113406Y100827D01*
G01Y94399D02*
Y100827D01*
G01X118917Y94399D02*
X121773D01*
G03X126136Y96206I0J6170D01*
G01X147126Y117197D01*
G03X149323Y122500I-5304J5303D01*
G01Y186399D01*
X149350Y186427D01*
G01X123317Y135638D02*
Y141073D01*
G01X125411Y133545D02*
X123317Y135638D01*
G01X128155Y136612D02*
X128707D01*
X132619Y140524D01*
G01Y135012D02*
X132023D01*
X130556Y133545D01*
X125411D01*
G01X278986Y98627D02*
X272192Y91832D01*
G01D02*
X267580D01*
G01X304259Y122342D02*
X296385D01*
X295568Y121525D01*
G01X290282Y127716D02*
Y126810D01*
X295568Y121525D01*
G01X290056D02*
Y117350D01*
G01X295794Y127716D02*
X296168Y127342D01*
X304259D01*
G01Y112342D02*
X298984D01*
G01X304259Y127342D02*
X306134Y129217D01*
G03X307438Y132364I-3146J3147D01*
G01Y134507D01*
G01X302084Y143857D02*
Y134664D01*
X301926Y134507D01*
G01X302084Y143857D02*
Y147978D01*
G02X304280Y153282I7500J0D01*
G01X319086Y168088D01*
G02X324390Y170285I5303J-5304D01*
G01X396908D01*
G03X400810Y174187I0J3902D01*
G01Y175283D01*
G02X403007Y180586I7500J0D01*
G01X407974Y185553D01*
G02X410180Y186466I2206J-2206D01*
G01X411772D01*
G01X314032Y143759D02*
Y134655D01*
X313934Y134556D01*
G01X307595Y143857D02*
Y139703D01*
G01X314032Y143759D02*
Y146760D01*
G02X315942Y151371I6521J0D01*
G01X326799Y162228D01*
G02X332102Y164424I5303J-5304D01*
G01X402076D01*
G03X407379Y166621I0J7500D01*
G01X417224Y176466D01*
G01X319446Y134556D02*
X319588Y134414D01*
Y124342D01*
G03X321589Y122342I2001J0D01*
G01X325519D01*
G01X319544Y143759D02*
X322922D01*
G01X325519Y117342D02*
X335036D01*
X335460Y116918D01*
G01X335568Y123129D02*
X335154Y122716D01*
X325893D01*
X325519Y122342D01*
G01Y127342D02*
X330407D01*
X334226Y131160D01*
X335942D01*
G01X335460Y116918D02*
Y117509D01*
X341080Y123129D01*
G01X335942Y131160D02*
X343442D01*
X343993Y131712D01*
G01X340971Y116918D02*
Y112896D01*
G01X402297Y151278D02*
X397735Y155840D01*
X382122D01*
X378496Y152214D01*
Y149344D01*
G01X380621Y132521D02*
Y127184D01*
G01X413958Y102895D02*
X407901D01*
G01X422078Y52876D02*
X418768D01*
G01X422078Y64126D02*
X418425D01*
G01X422481Y97128D02*
X418754D01*
G01X422481Y100838D02*
X419130D01*
X418989Y100979D01*
G01X413662Y115130D02*
Y112391D01*
G01Y130169D02*
X417441Y126390D01*
Y122363D01*
X420087Y119716D01*
X423426D01*
G01X413662Y124657D02*
Y120641D01*
G01X426674Y74254D02*
Y72754D01*
X429495Y69933D01*
G01X428770Y97088D02*
X432572D01*
G01X422481Y106350D02*
X428603D01*
X428652Y106301D01*
G01X422481Y106350D02*
Y113771D01*
X423426Y114716D01*
G01X428652Y100789D02*
Y101372D01*
X435845Y108564D01*
X440857D01*
X447934Y101488D01*
G01X430699Y135374D02*
Y133798D01*
X426617Y129716D01*
X423426D01*
G01X447934Y101488D02*
X446510D01*
X437593Y92572D01*
Y88763D01*
G01Y102149D02*
X433036D01*
X432909Y102022D01*
G01X443111Y129716D02*
X440428D01*
X436211Y133934D01*
Y135374D01*
G01X448869Y63240D02*
Y60573D01*
X445234Y56938D01*
G01X443111Y119716D02*
X443367Y119972D01*
X453662D01*
G01X453938Y74254D02*
X447828D01*
X447548Y74533D01*
G01X454381Y63240D02*
X460936D01*
X461231Y63535D01*
G01X459450Y74254D02*
X462870Y70833D01*
X467840D01*
X471261Y74254D01*
G01X468121Y63535D02*
X472819D01*
G01X465749Y74254D02*
X464306D01*
X462668Y75891D01*
G01X471261Y74254D02*
X473532D01*
X476819Y77540D01*
Y88768D01*
X474100Y91488D01*
X469194D01*
G54D19*
X78465Y176427D03*
X83917Y186427D03*
X89370Y176427D03*
X100276D03*
X94823Y186427D03*
X111181Y176427D03*
X105728Y186427D03*
X116634D03*
X122087Y176427D03*
X127539Y186427D03*
X132992Y176427D03*
X143898D03*
X138445Y186427D03*
X149350D03*
X154803Y176427D03*
X160256Y186427D03*
X165709Y176427D03*
X176614D03*
X171161Y186427D03*
X182067D03*
X187520Y176427D03*
X192972Y186427D03*
X198425Y176427D03*
X209331D03*
X203878Y186427D03*
X297264Y176466D03*
X308169D03*
X302716Y186466D03*
X313622D03*
X319075Y176466D03*
X324528Y186466D03*
X329980Y176466D03*
X340886D03*
X335433Y186466D03*
X346339D03*
X351791Y176466D03*
X357244Y186466D03*
X362697Y176466D03*
X373602D03*
X368150Y186466D03*
X379055D03*
X384508Y176466D03*
X389961Y186466D03*
X395413Y176466D03*
X406319D03*
X400866Y186466D03*
X411772D03*
X417224Y176466D03*
X422677Y186466D03*
X428130Y176466D03*
G54D28*
X413958Y91675D03*
Y102895D03*
G54D38*
G01X19685Y19685D02*
X34970Y4400D01*
G01D02*
X408101D01*
G01X313622Y186466D02*
X324528D01*
G01X319075Y176466D02*
Y178445D01*
X324528Y183898D01*
Y186466D01*
G01X335433Y181919D02*
X329980Y176466D01*
G01X324528Y186466D02*
Y198568D01*
G01D02*
X334621Y208661D01*
G01X335433Y186466D02*
Y181919D01*
G01D02*
X340886Y176466D01*
G01X493107Y121304D02*
Y168491D01*
X457631Y203967D01*
X352934D01*
X335433Y186466D01*
G01X334621Y208661D02*
X486909D01*
G01X362067Y119956D02*
X350311Y131712D01*
X343993D01*
G01X421162Y74254D02*
X416972D01*
X403721Y87504D01*
X382308D01*
X372714Y97098D01*
Y109309D01*
X362067Y119956D01*
G01X413958Y91675D02*
X413893Y91610D01*
X398576D01*
X392133Y98053D01*
X390060D01*
G01X398337Y132521D02*
Y130740D01*
X390060Y122462D01*
G01X398337Y132521D02*
X399272Y133456D01*
X416422D01*
X420162Y129716D01*
X423426D01*
G01X408101Y4400D02*
X417471Y13769D01*
G01X424742Y5949D02*
X417471Y13220D01*
Y13769D01*
G01Y16514D02*
Y13769D01*
G01X421162Y74254D02*
Y71931D01*
X428967Y64126D01*
G01X421162Y74254D02*
Y74348D01*
X427302Y80487D01*
X441353D01*
X447307Y74533D01*
X447548D01*
G01X413958Y91675D02*
X422422D01*
X422481Y91616D01*
G01X473173Y5949D02*
X424742D01*
G01X428515Y47971D02*
Y42148D01*
X428160Y41793D01*
G01X428967Y52876D02*
X428515Y52423D01*
Y47971D01*
G01X441969Y47816D02*
X428669D01*
X428515Y47971D01*
G01X441969Y52816D02*
X429026D01*
X428967Y52876D01*
G01Y64126D02*
X429853Y63240D01*
X435818D01*
G01X428770Y91576D02*
X434780D01*
X437593Y88763D01*
G01X422481Y91616D02*
X428731D01*
X428770Y91576D01*
G01X437470Y16514D02*
X444996Y24039D01*
X467619D01*
X493107Y49527D01*
Y121304D01*
G01X433160Y29184D02*
X434081Y30106D01*
Y38965D01*
X437933Y42816D01*
G01D02*
X441969D01*
G01X445234Y56938D02*
X441108D01*
X435818Y62228D01*
Y63240D01*
G01X434162Y74533D02*
Y69759D01*
G01X437593Y88763D02*
X439869Y86488D01*
X447934D01*
G01X433269Y122216D02*
X434676D01*
X436276Y120616D01*
Y118632D01*
X440192Y114716D01*
X443111D01*
G01X456098Y42816D02*
X441969D01*
G01X454171Y56938D02*
X445234D01*
G01X443111Y114716D02*
X453884D01*
X453901Y114699D01*
X462862D01*
X464834Y112728D01*
G01X443111Y124716D02*
X457530D01*
X464834Y132019D01*
G01X454171Y56938D02*
X469224D01*
X473330Y52832D01*
Y42375D01*
X468772Y37816D01*
X463229D01*
G01Y52816D02*
X458293D01*
X454171Y56938D01*
G01X469194Y86488D02*
X459503D01*
X447548Y74533D01*
G01X455188Y91488D02*
X447934D01*
G01Y96488D02*
X460188D01*
G01X463229Y42816D02*
X456098D01*
G01D02*
X461098Y47816D01*
X463229D01*
G01X460188Y96488D02*
X455188Y91488D01*
G01X460188Y96488D02*
X469194D01*
G01D02*
X476851D01*
G01X481530Y112728D02*
X464834D01*
G01X493107Y121304D02*
X481631Y132780D01*
X465594D01*
X464834Y132019D01*
G01X486909Y19685D02*
X473173Y5949D01*
G01X476851Y96488D02*
X483130Y90209D01*
G01Y111128D02*
X481530Y112728D01*
G54D29*
X423426Y114716D03*
Y119716D03*
Y124716D03*
Y129716D03*
X443111Y114716D03*
Y124716D03*
Y119716D03*
Y129716D03*
G54D39*
G01X433160Y29184D02*
X420489Y16514D01*
X417471D01*
G01X483130Y90209D02*
Y46266D01*
X466049Y29184D01*
X433160D01*
G01X483130Y90209D02*
Y111128D01*
M02*
