G04 ================== begin FILE IDENTIFICATION RECORD ==================*
G04 Layout Name:  F:/对外部分项目/信号发生器改版/Hardware/Pcb/DDS.brd*
G04 Film Name:    TOP*
G04 File Format:  Gerber RS274X*
G04 File Origin:  Cadence Allegro 16.6-2015-S066*
G04 Origin Date:  Mon Feb 20 20:23:19 2017*
G04 *
G04 Layer:  BOARD GEOMETRY/OUTLINE*
G04 Layer:  ETCH/TOP*
G04 Layer:  PIN/TOP*
G04 Layer:  VIA CLASS/TOP*
G04 *
G04 Offset:    (0.000 0.000)*
G04 Mirror:    No*
G04 Mode:      Positive*
G04 Rotation:  0*
G04 FullContactRelief:  No*
G04 UndefLineWidth:     6.000*
G04 ================== end FILE IDENTIFICATION RECORD ====================*
%FSLAX25Y25*MOIN*%
%IR0*IPPOS*OFA0.00000B0.00000*MIA0B0*SFA1.00000B1.00000*%
%ADD24R,.062992X.062992*%
%ADD27R,.068898X.026575*%
%ADD10C,.177165*%
%ADD26R,.127953X.07874*%
%ADD13C,.02*%
%ADD21R,.01X.059055*%
%ADD19R,.059055X.01*%
%ADD12R,.061024X.023622*%
%ADD16R,.037402X.016732*%
%ADD14R,.016732X.037402*%
%ADD23R,.043307X.055118*%
%ADD30R,.100394X.135827*%
%ADD22O,.015748X.051181*%
%ADD17R,.03937X.023622*%
%ADD15C,.059055*%
%ADD32R,.090551X.090551*%
%ADD20C,.070866*%
%ADD18R,.055118X.022638*%
%ADD25R,.022638X.055118*%
%ADD11C,.098425*%
%ADD28R,.076772X.023622*%
%ADD31R,.047244X.070866*%
%ADD29R,.070866X.047244*%
%ADD33C,.008*%
%ADD34C,.009*%
%ADD35C,.01*%
%ADD36C,.012*%
%ADD37C,.015*%
%ADD38C,.025*%
%ADD39C,.000394*%
%ADD49C,.11443*%
%ADD40C,.19317*%
%ADD43C,.036004*%
%ADD46C,.07506*%
%ADD48R,.038642X.071122*%
%ADD45R,.032736X.053406*%
%ADD44R,.053406X.032736*%
%ADD47R,.106556X.106556*%
%ADD42C,.08687*%
%ADD41R,.077028X.039626*%
G75*
%LPD*%
G75*
G36*
G01X374016Y392913D02*
G02X392913Y374016I0J-18898D01*
G01Y19685D01*
G02X374016Y788I-18898J0D01*
G01X19685D01*
G02X788Y19685I0J18898D01*
G01Y374016D01*
G02X19685Y392913I18898J0D01*
G01X374016D01*
G37*
%LPC*%
G75*
G36*
G01X33354Y247254D02*
X30725D01*
G03X30442Y246571I0J-400D01*
G01X35074Y241939D01*
X61269D01*
X64809Y238400D01*
G03X65491Y238683I283J283D01*
G01Y239326D01*
G02X65991Y240668I2050J0D01*
G01Y286077D01*
X65219Y286849D01*
X50559D01*
X45639Y291769D01*
Y291906D01*
X45302D01*
Y297247D01*
X47417D01*
X50901Y300731D01*
Y301198D01*
X50814D01*
Y306538D01*
X54088D01*
Y301198D01*
X54001D01*
Y299447D01*
X53604Y299050D01*
X53821Y298833D01*
X53926Y298854D01*
G02X54286Y295287I347J-1766D01*
G03X54088Y295087I2J-200D01*
G01Y291906D01*
X50814D01*
Y295294D01*
G03X50131Y295577I-400J0D01*
G01X48576Y294021D01*
Y292510D01*
X51636Y289450D01*
X64241D01*
Y291906D01*
X63904D01*
Y297247D01*
X64241D01*
Y297703D01*
X67053Y300515D01*
G03X66770Y301198I-283J283D01*
G01X63904D01*
Y303666D01*
X61508Y306063D01*
Y328809D01*
X63382Y330683D01*
Y347289D01*
G03X62736Y347605I-400J0D01*
G02X61716Y347039I-2307J2960D01*
G01X61674Y347024D01*
X53751Y339101D01*
Y325121D01*
X54088D01*
Y323751D01*
X56772D01*
G02Y321151I1245J-1300D01*
G01X54088D01*
Y319780D01*
X50927D01*
Y316522D01*
X51619Y315830D01*
X54088D01*
Y315277D01*
G03X54596Y314892I400J0D01*
G02Y311427I489J-1732D01*
G03X54088Y311042I-109J-385D01*
G01Y310489D01*
X50814D01*
Y312957D01*
X49259Y314513D01*
G03X48576Y314230I-283J-283D01*
G01Y310489D01*
X45606D01*
Y307040D01*
X46108Y306538D01*
X48576D01*
Y301198D01*
X45302D01*
Y303666D01*
X43006Y305963D01*
Y347207D01*
G02X48239Y351760I1676J3358D01*
G03X48997I379J127D01*
G02X56113I3558J-1195D01*
G03X56871I379J127D01*
G02X62736Y353525I3558J-1195D01*
G03X63382Y353841I246J315D01*
G01Y355150D01*
X49954Y368578D01*
X47178D01*
G02X42463Y373436I-3521J1300D01*
G03Y374194I-127J379D01*
G02Y381310I1195J3558D01*
G03Y382068I-127J379D01*
G02X47406Y385442I1195J3558D01*
G01X47402Y385353D01*
X72353Y360401D01*
Y325121D01*
X72690D01*
Y323691D01*
X75136D01*
G02Y321090I1245J-1300D01*
G01X72690D01*
Y319780D01*
X69351D01*
Y316700D01*
X70222Y315830D01*
X72690D01*
Y315216D01*
G03X73232Y314842I400J0D01*
G02Y311477I641J-1682D01*
G03X72690Y311103I-142J-374D01*
G01Y310489D01*
X69416D01*
Y312957D01*
X67861Y314513D01*
G03X67178Y314230I-283J-283D01*
G01Y310324D01*
X67194Y310286D01*
G02X64696Y307984I-1653J-713D01*
G03X64108Y307631I-188J-353D01*
G01Y307140D01*
X64710Y306538D01*
X67178D01*
Y301605D01*
G03X67861Y301323I400J0D01*
G01X69416Y302878D01*
Y306538D01*
X72690D01*
Y301198D01*
X71414D01*
X71097Y300882D01*
G03X71321Y300203I283J-283D01*
G02X72706Y297710I-268J-1780D01*
G01X72690Y297672D01*
Y294318D01*
G03X73373Y294036I400J0D01*
G01X75214Y295877D01*
X82517D01*
Y297247D01*
X84632D01*
X88115Y300731D01*
Y301198D01*
X88028D01*
Y306538D01*
X91302D01*
Y301198D01*
X91216D01*
Y300109D01*
G03X91600Y299709I400J0D01*
G02X91505Y296110I-68J-1799D01*
G03X91302Y295910I-3J-200D01*
G01Y291906D01*
X88028D01*
Y295294D01*
G03X87346Y295577I-400J0D01*
G01X85790Y294021D01*
Y291906D01*
X82517D01*
Y293277D01*
X76291D01*
X69092Y286077D01*
Y243680D01*
G03X69775Y243398I400J0D01*
G01X71197Y244820D01*
X82438D01*
Y249247D01*
X82422Y249285D01*
G02X85728I1653J713D01*
G01X85712Y249247D01*
Y244820D01*
X86515D01*
X87950Y246255D01*
Y249442D01*
X91223D01*
Y248772D01*
G03X91790Y248408I400J0D01*
G02Y245135I749J-1637D01*
G03X91223Y244771I-167J-364D01*
G01Y244101D01*
X89473D01*
X87592Y242220D01*
X85828D01*
G03X85510Y241578I0J-400D01*
G02X85728Y239779I-1435J-1087D01*
G01X85712Y239741D01*
Y234546D01*
X86100D01*
X87950Y236397D01*
Y239855D01*
X91223D01*
Y239290D01*
G03X91740Y238908I400J0D01*
G02Y235462I523J-1723D01*
G03X91223Y235080I-116J-383D01*
G01Y234515D01*
X89746D01*
X87177Y231946D01*
X86192D01*
G03X85807Y231437I0J-400D01*
G02X85728Y230234I-1732J-491D01*
G01X85712Y230196D01*
Y225021D01*
X87119D01*
X87950Y225852D01*
Y230269D01*
X91223D01*
Y229767D01*
G03X91691Y229373I400J0D01*
G02Y225824I305J-1774D01*
G03X91223Y225430I-68J-394D01*
G01Y224928D01*
X90704D01*
X88196Y222420D01*
X86192D01*
G03X85807Y221911I0J-400D01*
G02X85728Y220708I-1732J-491D01*
G01X85712Y220670D01*
Y215975D01*
X86727D01*
X87950Y217198D01*
Y220682D01*
X91223D01*
Y220158D01*
G03X91712Y219767I400J0D01*
G02Y216256I398J-1756D01*
G03X91223Y215866I-89J-390D01*
G01Y215342D01*
X89771D01*
X87804Y213375D01*
X86192D01*
G03X85807Y212866I0J-400D01*
G02X85728Y211663I-1732J-491D01*
G01X85712Y211625D01*
Y206743D01*
G03X86394Y206460I400J0D01*
G01X87950Y208016D01*
Y211096D01*
X91223D01*
Y210433D01*
G03X91751Y210054I400J0D01*
G02Y206642I575J-1706D01*
G03X91223Y206263I-128J-379D01*
G01Y205755D01*
X89366D01*
X87041Y203429D01*
X86192D01*
G03X85807Y202920I0J-400D01*
G02X85728Y201717I-1732J-491D01*
G01X85712Y201679D01*
Y196630D01*
X86874D01*
X87950Y197706D01*
Y201509D01*
X91223D01*
Y199509D01*
X130194D01*
Y200845D01*
X111749D01*
X94975Y217619D01*
Y217858D01*
X94841Y217991D01*
Y263206D01*
X94346Y263700D01*
X94271Y263705D01*
G02X93506Y267073I113J1797D01*
G03X93594Y267706I-195J349D01*
G01X84967Y276332D01*
X84892Y276337D01*
G02X84380Y279822I113J1797D01*
G03X84524Y280480I-139J375D01*
G01X81964Y283040D01*
X81889Y283045D01*
G02X83798Y284955I113J1797D01*
G01X83803Y284879D01*
X100223Y268459D01*
G03X100811Y268482I283J283D01*
G02X103516Y268522I1370J-1168D01*
G03X104099Y268511I297J268D01*
G02X106752Y268432I1290J-1256D01*
G03X107306Y268382I303J261D01*
G02X108930Y268713I1131J-1401D01*
G03X109440Y269097I110J385D01*
G01Y305408D01*
X102744Y312104D01*
X91302D01*
Y310489D01*
X88028D01*
Y312957D01*
X86473Y314513D01*
G03X85790Y314230I-283J-283D01*
G01Y310489D01*
X82905D01*
Y306956D01*
X83322Y306538D01*
X85790D01*
Y301198D01*
X82517D01*
Y303666D01*
X80304Y305878D01*
Y356530D01*
X70367Y366467D01*
X70243Y366416D01*
G02X67601Y373436I-1448J3462D01*
G03Y374194I-127J379D01*
G02Y381310I1195J3558D01*
G03Y382068I-127J379D01*
G02X72479Y384910I1195J3558D01*
G01X72459Y384805D01*
X90956Y366309D01*
Y325111D01*
X91292D01*
Y323730D01*
X97725D01*
X114009Y307446D01*
Y243953D01*
X126957Y231005D01*
X130194D01*
Y242816D01*
X137700D01*
Y240847D01*
X177713D01*
G03X178068Y241432I0J400D01*
G02X179624Y244066I1596J833D01*
G01X179694Y244135D01*
Y245440D01*
X162609D01*
Y244482D01*
X161953Y243826D01*
X161948Y243750D01*
G02X158630Y244826I-1797J113D01*
G03X158293Y245440I-338J214D01*
G01X140324D01*
Y251984D01*
X140206Y252102D01*
X140130Y252107D01*
G02X139862Y255663I113J1797D01*
G03X140175Y256100I-85J391D01*
G02X143760Y256422I1788J209D01*
G01X143764Y256347D01*
X144893Y255218D01*
Y252946D01*
X161205D01*
G03X161582Y253480I0J400D01*
G02X164973I1696J605D01*
G03X165350Y252946I377J-134D01*
G01X180805D01*
G03X181197Y253424I0J400D01*
G02X183249Y255555I1765J353D01*
G03X183595Y256232I64J395D01*
G01X178641Y261187D01*
Y261660D01*
X178304D01*
Y267001D01*
X181578D01*
Y261927D01*
X185357Y258148D01*
X187394D01*
X187397Y258152D01*
X190339D01*
X190342Y258148D01*
X197864D01*
G03X198146Y258831I0J400D01*
G01X197046Y259931D01*
Y261660D01*
X196710D01*
Y267001D01*
X199983D01*
Y261660D01*
X199647D01*
Y261009D01*
X204604Y256051D01*
G03X205268Y256213I283J283D01*
G02X208344Y256850I1716J-543D01*
G01X233379D01*
X244311Y245918D01*
Y244855D01*
X244698D01*
Y239515D01*
X241424D01*
Y244855D01*
X241489D01*
X241591Y245102D01*
X232343Y254350D01*
X210670D01*
G03X210285Y253841I0J-400D01*
G02X210353Y253347I-1732J-491D01*
G03X210753Y252946I400J-1D01*
G01X211822D01*
Y245440D01*
X207885D01*
Y244139D01*
X206263Y242517D01*
X206266Y242430D01*
G02X206018Y241450I-1799J-66D01*
G03X206363Y240847I345J-203D01*
G01X208482D01*
X216523Y248889D01*
X216528Y248964D01*
G02X218437Y247055I1797J-113D01*
G01X218362Y247050D01*
X214811Y243499D01*
G03X215093Y242816I283J-283D01*
G01X220684D01*
X226712Y248844D01*
Y250492D01*
G02X229312I1300J1245D01*
G01Y249864D01*
G03X229995Y249581I400J0D01*
G01X230934Y250520D01*
X230939Y250596D01*
G02X234390Y249775I1797J-113D01*
G03X234809Y249221I368J-157D01*
G02X235151Y245639I229J-1786D01*
G01X235076Y245634D01*
X227035Y237593D01*
G03X227318Y236910I283J-283D01*
G01X259196D01*
X262625Y240340D01*
Y242808D01*
X265899D01*
Y237468D01*
X265512D01*
Y233792D01*
X266489D01*
Y226680D01*
X265807D01*
Y223891D01*
X266489D01*
Y216778D01*
X263817D01*
G03X263557Y216075I0J-400D01*
G02X264182Y214821I-1172J-1367D01*
G01X264187Y214746D01*
X265562Y213370D01*
Y213103D01*
X265899D01*
Y209362D01*
G03X266581Y209080I400J0D01*
G01X268137Y210635D01*
Y213103D01*
X270133D01*
G03X270416Y213786I0J400D01*
G01X270147Y214055D01*
Y216778D01*
X269515D01*
Y223891D01*
X273379D01*
Y216778D01*
X272747D01*
Y215132D01*
X286699Y201181D01*
X296017D01*
X300292Y205456D01*
Y208199D01*
G02X300706Y209433I2050J0D01*
G01Y210869D01*
X300789D01*
Y219821D01*
X301218Y220249D01*
Y222838D01*
X305082D01*
Y221273D01*
X316152D01*
G02X316655Y221210I0J-2050D01*
G01X316679Y221204D01*
X320003D01*
Y217241D01*
X316679D01*
X316655Y217235D01*
G02X316152Y217172I-504J1987D01*
G01X309124D01*
G03X308841Y216489I0J-400D01*
G01X309058Y216273D01*
X316152D01*
G02X316655Y216210I0J-2050D01*
G01X316679Y216204D01*
X320003D01*
Y212241D01*
X316679D01*
X316655Y212235D01*
G02X316152Y212172I-504J1987D01*
G01X307360D01*
X305573Y213959D01*
G03X304890Y213676I-283J-283D01*
G01Y207847D01*
X304393Y207350D01*
Y203758D01*
X287289Y186654D01*
Y180265D01*
X290577Y176978D01*
Y176958D01*
X295773Y171761D01*
X311366D01*
X312428Y172824D01*
Y177887D01*
X312765D01*
Y185449D01*
G02X315791Y183548I3269J1844D01*
G03X315365Y183149I-26J-399D01*
G01Y177887D01*
X315702D01*
Y172546D01*
X315365D01*
Y172083D01*
X312443Y169161D01*
X294696D01*
X287976Y175881D01*
Y175901D01*
X287630Y176246D01*
G03X287289Y176105I-141J-141D01*
G01Y171515D01*
X290840Y167964D01*
X291025D01*
X291070Y167989D01*
G02X291027Y164864I871J-1575D01*
G01X289556D01*
X287972Y166447D01*
G03X287289Y166164I-283J-283D01*
G01Y135665D01*
X271611Y119986D01*
X150112D01*
X148142Y118017D01*
X148128Y117966D01*
G02X148014Y117661I-1736J476D01*
G03X148374Y117087I360J-174D01*
G01X293048D01*
X337875Y161914D01*
X337933D01*
X360222Y184202D01*
Y192285D01*
X346978Y205528D01*
X344122Y202672D01*
X341263D01*
Y202241D01*
X333560D01*
Y206204D01*
X341263D01*
Y205773D01*
X342838D01*
X345411Y208345D01*
X345425Y208395D01*
G02X345605Y208812I1730J-498D01*
G01Y215164D01*
X343096Y217672D01*
X341263D01*
Y217241D01*
X337939D01*
X337915Y217235D01*
G02X337411Y217172I-504J1987D01*
G01X325014D01*
X319160Y223026D01*
X312859D01*
X308910Y226975D01*
X308363D01*
Y227522D01*
X308290Y227596D01*
X305082D01*
Y226975D01*
X301218D01*
Y229845D01*
X301207Y229876D01*
G02X301099Y230531I1943J655D01*
G01Y233056D01*
X301162Y233118D01*
X301060Y233365D01*
X299070D01*
X298875Y233561D01*
G03X298192Y233278I-283J-283D01*
G01Y226975D01*
X294328D01*
Y228567D01*
G03X293748Y228924I-400J0D01*
G02Y232139I-810J1608D01*
G03X294328Y232496I180J357D01*
G01Y234088D01*
X297382D01*
G03X297665Y234770I0J400D01*
G01X294446Y237989D01*
X293708D01*
Y238728D01*
X293294Y239141D01*
Y240659D01*
G02X293708Y241894I2050J0D01*
G01Y243330D01*
X293944D01*
Y245457D01*
X288079Y251322D01*
X261178D01*
X253949Y258552D01*
Y270851D01*
X227760Y297039D01*
X224767D01*
Y296444D01*
X217654D01*
Y296588D01*
X215830D01*
Y296188D01*
X213503D01*
X209920Y292606D01*
X206588D01*
Y292025D01*
X199654D01*
G03X199371Y291342I0J-400D01*
G01X199725Y290987D01*
X206588D01*
Y290556D01*
X211149D01*
Y292464D01*
X214422D01*
Y288486D01*
G03X215105Y288203I400J0D01*
G01X216660Y289758D01*
Y292464D01*
X219934D01*
Y287123D01*
X218410D01*
X218223Y286936D01*
G03X218505Y286253I283J-283D01*
G01X219826D01*
Y280607D01*
X219842Y280569D01*
G02X216536I-1653J-713D01*
G01X216552Y280607D01*
Y284300D01*
G03X215869Y284582I-400J0D01*
G01X214314Y283027D01*
Y280912D01*
X211040D01*
Y282456D01*
X206588D01*
Y282025D01*
X198885D01*
Y285987D01*
X206588D01*
Y285556D01*
X211040D01*
Y286253D01*
X213155D01*
X213342Y286440D01*
G03X213060Y287123I-283J283D01*
G01X211149D01*
Y287456D01*
X206588D01*
Y287025D01*
X198885D01*
Y287443D01*
X195113Y291215D01*
Y298550D01*
X195027D01*
Y303891D01*
X198300D01*
Y298550D01*
X198214D01*
Y292499D01*
X198543Y292169D01*
G03X198885Y292310I141J141D01*
G01Y295987D01*
X206588D01*
Y295406D01*
X208760D01*
X210489Y297135D01*
Y299462D01*
X215830D01*
Y299389D01*
X217654D01*
Y300308D01*
X224767D01*
Y299840D01*
X228920D01*
X256749Y272011D01*
Y269196D01*
X271440D01*
Y261875D01*
X273184Y260131D01*
X283895D01*
Y260210D01*
X292385D01*
Y260131D01*
X297454D01*
X297513Y260072D01*
X302850D01*
X303953Y261174D01*
G03X303670Y261857I-283J283D01*
G01X300282D01*
Y265131D01*
X304427D01*
G03X304568Y265472I0J200D01*
G01X304483Y265558D01*
X300164D01*
Y268832D01*
X305507D01*
X305545Y268984D01*
G02X308046Y270190I1748J-429D01*
G03X308613Y270554I167J363D01*
G01Y272899D01*
X314938D01*
Y264212D01*
X308594D01*
Y261431D01*
X307878Y260715D01*
G03X308161Y260032I283J-283D01*
G01X311025D01*
X311544Y259513D01*
X314938D01*
Y254944D01*
X322116D01*
G02X322620Y254881I0J-2050D01*
G01X322644Y254875D01*
X325968D01*
Y254444D01*
X327447D01*
X328741Y255738D01*
Y256007D01*
G03X328135Y256350I-400J0D01*
G02X326521Y256230I-926J1544D01*
G03X325971Y255912I-153J-370D01*
G01X318227D01*
G03X317780Y256134I-363J-169D01*
G02Y259653I-381J1759D01*
G03X318227Y259875I85J391D01*
G01X325971D01*
G03X326521Y259557I397J52D01*
G02X328135Y259438I689J-1663D01*
G03X328741Y259781I206J343D01*
G01Y264398D01*
X326796Y266344D01*
X325968D01*
Y265912D01*
X318265D01*
Y269875D01*
X325968D01*
Y269444D01*
X328080D01*
X331841Y265683D01*
Y254915D01*
G03X332524Y254632I400J0D01*
G01X332836Y254944D01*
X343376D01*
G02X343880Y254881I0J-2050D01*
G01X343904Y254875D01*
X347227D01*
Y250912D01*
X343904D01*
X343880Y250906D01*
G02X343376Y250844I-504J1987D01*
G01X334534D01*
X327703Y244012D01*
G03X327986Y243330I283J-283D01*
G01X329757D01*
Y237989D01*
X329670D01*
Y234072D01*
X328597Y232999D01*
G03X328880Y232316I283J-283D01*
G01X330200D01*
Y230896D01*
X333481D01*
Y233497D01*
X337346D01*
Y226385D01*
X333481D01*
Y228396D01*
X330200D01*
Y226975D01*
X326926D01*
Y230363D01*
G03X326243Y230646I-400J0D01*
G01X324688Y229090D01*
Y226975D01*
X324100D01*
X322555Y225430D01*
X326713Y221273D01*
X337411D01*
G02X337915Y221210I0J-2050D01*
G01X337939Y221204D01*
X341263D01*
Y220773D01*
X344381D01*
X348705Y216448D01*
Y208893D01*
X363822Y193776D01*
Y182710D01*
X340229Y159118D01*
Y77628D01*
G02X337129I-1550J-3418D01*
G01Y155110D01*
G03X336446Y155393I-400J0D01*
G01X294540Y113487D01*
X209641D01*
G03X209358Y112804I0J-400D01*
G01X213551Y108611D01*
G02X215661Y108670I1088J-1156D01*
G03X216176I258J306D01*
G02X218220I1022J-1215D01*
G03X218735I258J306D01*
G02X220779I1022J-1215D01*
G03X221294I257J306D01*
G02X223338I1022J-1215D01*
G03X223853I258J306D01*
G02X225897I1022J-1215D01*
G03X226412I258J306D01*
G02X228456I1022J-1215D01*
G03X228971I258J306D01*
G02X231015I1022J-1215D01*
G03X231530I257J306D01*
G02X233574I1022J-1215D01*
G03X234089I258J306D01*
G02X236133I1022J-1215D01*
G03X236648I257J306D01*
G02X238692I1022J-1215D01*
G03X239207I258J306D01*
G02X241817Y107455I1022J-1215D01*
G01Y103912D01*
G02X239207Y102697I-1588J0D01*
G03X238692I-258J-306D01*
G02X237064Y102444I-1022J1215D01*
G03X236512Y102075I-153J-370D01*
G01Y99957D01*
X253818Y82651D01*
X256145D01*
Y79377D01*
X250804D01*
Y81704D01*
X250233Y82275D01*
G03X249550Y81992I-283J-283D01*
G01Y79377D01*
X244210D01*
Y81704D01*
X243639Y82275D01*
G03X242956Y81992I-283J-283D01*
G01Y79377D01*
X237615D01*
Y81704D01*
X237044Y82275D01*
G03X236361Y81992I-283J-283D01*
G01Y79377D01*
X231021D01*
Y81704D01*
X230450Y82275D01*
G03X229767Y81992I-283J-283D01*
G01Y79377D01*
X224426D01*
Y81704D01*
X223799Y82331D01*
X223172Y81704D01*
Y79377D01*
X217832D01*
Y82651D01*
X220159D01*
X220916Y83408D01*
Y91589D01*
G03X220233Y91872I-400J0D01*
G01X215305Y86944D01*
Y82651D01*
X216578D01*
Y79377D01*
X211237D01*
Y82651D01*
X212504D01*
Y86960D01*
G03X211822Y87243I-400J0D01*
G01X208713Y84134D01*
Y82651D01*
X209983D01*
Y79377D01*
X204643D01*
Y82651D01*
X205913D01*
Y85294D01*
X215798Y95179D01*
Y102075D01*
G03X215245Y102444I-400J0D01*
G02X213617Y102697I-606J1467D01*
G03X213102I-258J-306D01*
G02X210492Y103912I-1022J1215D01*
G01Y107286D01*
X207373Y110405D01*
X204825D01*
Y110311D01*
X199484D01*
Y113487D01*
X154704D01*
Y112751D01*
X155825D01*
Y112665D01*
X158577D01*
X162198Y109044D01*
X162272Y109039D01*
G02X163181Y108670I-113J-1584D01*
G03X163696I258J306D01*
G02X165740I1022J-1215D01*
G03X166255I257J306D01*
G02X168299I1022J-1215D01*
G03X168814I258J306D01*
G02X170858I1022J-1215D01*
G03X171373I258J306D01*
G02X173417I1022J-1215D01*
G03X173932I258J306D01*
G02X175976I1022J-1215D01*
G03X176491I257J306D01*
G02X178535I1022J-1215D01*
G03X179050I258J306D01*
G02X181094I1022J-1215D01*
G03X181609I258J306D01*
G02X183653I1022J-1215D01*
G03X184168I258J306D01*
G02X186212I1022J-1215D01*
G03X186727I257J306D01*
G02X188771I1022J-1215D01*
G03X189286I258J306D01*
G02X191896Y107455I1022J-1215D01*
G01Y103912D01*
G02X189286Y102697I-1588J0D01*
G03X188771I-258J-306D01*
G02X187143Y102444I-1022J1215D01*
G03X186590Y102075I-153J-370D01*
G01Y92764D01*
X181243Y87417D01*
Y82651D01*
X182513D01*
Y79377D01*
X177172D01*
Y82651D01*
X178442D01*
Y87885D01*
G03X177760Y88167I-400J0D01*
G01X175350Y85758D01*
Y82548D01*
X176620D01*
Y79274D01*
X171280D01*
Y82548D01*
X172550D01*
Y86918D01*
X181223Y95591D01*
Y95803D01*
G03X180881Y95944I-200J0D01*
G01X169098Y84160D01*
Y82499D01*
X170368D01*
Y79225D01*
X165027D01*
Y82499D01*
X166297D01*
Y85321D01*
X178672Y97695D01*
Y102075D01*
G03X178119Y102444I-400J0D01*
G02X176491Y102697I-606J1467D01*
G03X175976I-257J-306D01*
G02X173932I-1022J1215D01*
G03X173417I-258J-306D01*
G02X171373I-1022J1215D01*
G03X170858I-257J-306D01*
G02X168814I-1022J1215D01*
G03X168299I-258J-306D01*
G02X166255I-1022J1215D01*
G03X165740I-257J-306D01*
G02X163696I-1022J1215D01*
G03X163181I-258J-306D01*
G02X160571Y103912I-1022J1215D01*
G01Y106286D01*
X157293Y109564D01*
X155825D01*
Y109478D01*
X150484D01*
Y112751D01*
X151604D01*
Y113487D01*
X127830D01*
X121769Y119548D01*
X121479D01*
Y119416D01*
X114367D01*
Y119548D01*
X113884D01*
G03X113743Y119207I0J-200D01*
G01X118291Y114658D01*
X120052D01*
Y112739D01*
X120068Y112701D01*
G02Y111276I-1653J-713D01*
G01X120052Y111238D01*
Y109318D01*
X116779D01*
Y111079D01*
X115223Y112635D01*
G03X114540Y112352I-283J-283D01*
G01Y109318D01*
X114454D01*
Y108615D01*
X114462D01*
Y103275D01*
X111188D01*
Y108615D01*
X111353D01*
Y109318D01*
X111267D01*
Y110477D01*
X107592D01*
Y110046D01*
X99889D01*
Y114009D01*
X107592D01*
Y113578D01*
X111267D01*
Y114658D01*
X112234D01*
G03X112516Y115341I0J400D01*
G01X111179Y116679D01*
X109781Y115280D01*
X107592D01*
Y115046D01*
X99889D01*
Y115477D01*
X86332D01*
Y115046D01*
X78629D01*
Y119009D01*
X86332D01*
Y118578D01*
X99889D01*
Y119009D01*
X107592D01*
Y118881D01*
X108289D01*
X108528Y119120D01*
X108426Y119367D01*
X108324D01*
Y122641D01*
X110085D01*
X110593Y123149D01*
X114367D01*
Y123281D01*
X121479D01*
Y123149D01*
X123260D01*
X129322Y117087D01*
X144410D01*
G03X144771Y117661I0J400D01*
G02X144855Y119379I1622J782D01*
G03X144513Y119986I-342J208D01*
G01X135158D01*
X109383Y145761D01*
G02X112283Y148660I1450J1450D01*
G01X136856Y124087D01*
X140716D01*
Y126121D01*
X149545Y134950D01*
X150484D01*
Y135036D01*
X152599D01*
X156616Y139054D01*
X162254D01*
X166268Y135040D01*
Y131887D01*
G03X166790Y131506I400J0D01*
G02X168299Y131209I486J-1511D01*
G03X168814I258J306D01*
G02X170858I1022J-1215D01*
G03X171373I258J306D01*
G02X173417I1022J-1215D01*
G03X173932I258J306D01*
G02X175976I1022J-1215D01*
G03X176491I257J306D01*
G02X178535I1022J-1215D01*
G03X179050I258J306D01*
G02X180758Y131426I1022J-1215D01*
G03X181331Y131787I173J361D01*
G01Y135536D01*
X173788Y143079D01*
Y161188D01*
X172452D01*
Y146750D01*
X168588Y142886D01*
X168583Y142810D01*
G02X166673Y144720I-1797J113D01*
G01X166749Y144725D01*
X169851Y147827D01*
Y161188D01*
X165458D01*
G03X165062Y160735I0J-400D01*
G02X161493I-1784J-240D01*
G03X161097Y161188I-396J53D01*
G01X158672D01*
Y144564D01*
X155397Y141288D01*
X155392Y141213D01*
G02X151813Y141073I-1797J113D01*
G03X151318Y141405I-396J-56D01*
G02X150758Y144945I-447J1744D01*
G01X150834Y144950D01*
X154103Y148220D01*
Y151426D01*
G03X153420Y151709I-400J0D01*
G01X147326Y145615D01*
X147322Y145540D01*
G02X145412Y147449I-1797J113D01*
G01X145488Y147454D01*
X148504Y150470D01*
G03X148309Y151144I-283J283D01*
G02X147133Y152022I396J1756D01*
G03X146501Y152110I-349J-195D01*
G01X140418Y146026D01*
X140413Y145951D01*
G02X138504Y147860I-1797J113D01*
G01X138579Y147865D01*
X148198Y157484D01*
Y161188D01*
X142924D01*
Y160558D01*
X140810Y158444D01*
X140321D01*
G02X139986Y161297I-1245J1300D01*
G01X140324Y161635D01*
Y168694D01*
X163946D01*
Y183654D01*
X160428Y187172D01*
X160352Y187177D01*
G02X162262Y189086I113J1797D01*
G01X162267Y189011D01*
X166546Y184731D01*
Y168694D01*
X183631D01*
Y174249D01*
X186622Y177240D01*
X190688D01*
G02Y174639I1245J-1300D01*
G01X187699D01*
X186231Y173172D01*
Y168694D01*
X197410D01*
Y175788D01*
X203322Y181700D01*
X203327Y181775D01*
G02X205237Y179866I1797J-113D01*
G01X205161Y179861D01*
X200011Y174711D01*
Y168694D01*
X207253D01*
Y169157D01*
X209818Y171722D01*
X214446D01*
Y230125D01*
G03X213762Y230407I-400J0D01*
G02Y232940I-1279J1267D01*
G03X214446Y233221I284J281D01*
G01Y242168D01*
G03X213763Y242451I-400J0D01*
G01X209559Y238247D01*
X137700D01*
Y176724D01*
G03X138194Y176336I400J0D01*
G02Y172838I426J-1749D01*
G03X137700Y172449I-95J-389D01*
G01Y171318D01*
X115228D01*
G02Y173918I-1245J1300D01*
G01X120023D01*
G03X120382Y174494I0J400D01*
G02X121887Y177080I1618J789D01*
G01X121963Y177084D01*
X124702Y179824D01*
X130194D01*
Y181160D01*
X118986D01*
G02Y183761I-1245J1300D01*
G01X130194D01*
Y185097D01*
X115106D01*
G03X112490Y184014I0J-3700D01*
G01X107881Y179405D01*
G03X106797Y176789I2616J-2616D01*
G01Y142525D01*
G02X104952Y138070I-6300J0D01*
G01X95170Y128288D01*
G02X90715Y126443I-4455J4455D01*
G01X78060D01*
G03X75444Y125359I0J-3700D01*
G01X70613Y120528D01*
G03X70896Y119846I283J-283D01*
G01X73536D01*
Y117731D01*
X77689Y113578D01*
X78629D01*
Y114009D01*
X86332D01*
Y110046D01*
X78629D01*
Y110477D01*
X76405D01*
X72378Y114505D01*
X70263D01*
Y119212D01*
G03X69580Y119495I-400J0D01*
G01X68025Y117940D01*
Y114505D01*
X64751D01*
Y119846D01*
X66253D01*
X73605Y127198D01*
G02X78060Y129043I4455J-4455D01*
G01X90715D01*
G03X93332Y130127I0J3700D01*
G01X103113Y139908D01*
G03X104197Y142525I-2616J2616D01*
G01Y176789D01*
G02X106042Y181244I6300J0D01*
G01X110651Y185853D01*
G02X115106Y187698I4455J-4455D01*
G01X130194D01*
Y191003D01*
X117581D01*
G02X115050Y193563I-1245J1300D01*
G03Y193843I-143J140D01*
G02X114951Y196253I1286J1260D01*
G03X114643Y196908I-308J255D01*
G01X91223D01*
Y196168D01*
X90090D01*
X87951Y194030D01*
X86192D01*
G03X85807Y193521I0J-400D01*
G02X85728Y192317I-1732J-491D01*
G01X85712Y192280D01*
Y186340D01*
X86276D01*
X87950Y188014D01*
Y191922D01*
X91223D01*
Y190274D01*
X91902D01*
X91958Y190324D01*
G02Y187623I1191J-1350D01*
G01X91902Y187673D01*
X91223D01*
Y186582D01*
X90195D01*
X87353Y183740D01*
X86192D01*
G03X85807Y183231I0J-400D01*
G02X85728Y182027I-1732J-491D01*
G01X85712Y181990D01*
Y176808D01*
X87318D01*
X90887Y173239D01*
Y172749D01*
X91223D01*
Y171775D01*
G03X91812Y171422I400J0D01*
G02Y168246I847J-1588D01*
G03X91223Y167893I-188J-353D01*
G01Y167408D01*
X87950D01*
Y172499D01*
X86240Y174208D01*
X85693D01*
Y173964D01*
X85712Y173925D01*
G02X85728Y172463I-1637J-750D01*
G01X85712Y172425D01*
Y167557D01*
G03X86163Y167160I400J0D01*
G02X86152Y163592I233J-1785D01*
G01X86054Y163605D01*
X84462Y162012D01*
Y161635D01*
X84739D01*
X84796Y161687D01*
G02X86255Y162141I1214J-1330D01*
G03X86690Y162414I54J396D01*
G01X89983D01*
Y157074D01*
X86844D01*
Y151624D01*
G03X87541Y151356I400J0D01*
G02X93147Y151312I2784J-2517D01*
G03X93848Y151576I301J264D01*
G01Y157074D01*
X92222D01*
Y162414D01*
X95495D01*
Y161044D01*
X99268D01*
G02Y158444I1245J-1300D01*
G01X96448D01*
Y143757D01*
X93512Y140820D01*
G02X91326Y142456I-3187J-1982D01*
G01X91439Y142424D01*
X93848Y144834D01*
Y146101D01*
G03X93147Y146365I-400J0D01*
G02X87541Y146322I-2822J2474D01*
G03X86844Y146053I-297J-268D01*
G01Y143519D01*
X83734Y140409D01*
G02X81773Y142301I-3409J-1570D01*
G01X81897Y142249D01*
X84244Y144597D01*
Y146634D01*
G03X83505Y146846I-400J0D01*
G02Y150831I-3180J1993D01*
G03X84244Y151044I339J212D01*
G01Y156585D01*
X83656Y157172D01*
X81188D01*
Y162513D01*
X81525D01*
Y162753D01*
X84675Y165904D01*
X84690Y165948D01*
G02X85191Y166711I1706J-573D01*
G03X84923Y167408I-268J297D01*
G01X82438D01*
Y172425D01*
X82422Y172463D01*
G02X82351Y173693I1653J713D01*
G03X81968Y174208I-383J115D01*
G01X74254D01*
X69592Y169546D01*
Y159949D01*
G03X70275Y159667I400J0D01*
G01X71751Y161143D01*
X75676D01*
Y162513D01*
X78950D01*
Y157172D01*
X75676D01*
Y158542D01*
X72828D01*
X69592Y155306D01*
Y155095D01*
G02X69092Y153753I-2050J0D01*
G01Y141223D01*
X62298Y134429D01*
Y110741D01*
X62385D01*
Y110021D01*
G03X62970Y109666I400J0D01*
G02X64252Y109815I834J-1595D01*
G03X64751Y110202I99J387D01*
G01Y110741D01*
X68025D01*
Y105401D01*
X64751D01*
Y105940D01*
G03X64252Y106327I-400J0D01*
G02X62970Y106476I-447J1744D01*
G03X62385Y106121I-185J-354D01*
G01Y105401D01*
X62048D01*
Y103940D01*
X60428Y102320D01*
G03X60711Y101637I283J-283D01*
G01X62385D01*
Y100517D01*
X64751D01*
Y101637D01*
X65674D01*
X70263Y106226D01*
Y110741D01*
X73536D01*
Y108626D01*
X73585Y108578D01*
X78629D01*
Y109009D01*
X86332D01*
Y105046D01*
X78629D01*
Y105477D01*
X73536D01*
Y105401D01*
X73450D01*
Y105028D01*
X70741Y102320D01*
G03X71024Y101637I283J-283D01*
G01X73536D01*
Y100519D01*
G03X74220Y100237I400J0D01*
G02Y97696I1276J-1270D01*
G03X73536Y97414I-283J-282D01*
G01Y96296D01*
X70263D01*
Y100876D01*
G03X69580Y101158I-400J0D01*
G01X68025Y99603D01*
Y96296D01*
X64751D01*
Y97416D01*
X62385D01*
Y96296D01*
X59111D01*
Y100037D01*
G03X58428Y100320I-400J0D01*
G01X56873Y98764D01*
Y96296D01*
X53599D01*
Y101637D01*
X56068D01*
X59448Y105017D01*
Y105401D01*
X59111D01*
Y110741D01*
X59198D01*
Y135713D01*
X65991Y142507D01*
Y150740D01*
G03X65309Y151023I-400J0D01*
G01X58434Y144149D01*
Y118228D01*
X53710Y113503D01*
X50958D01*
Y113166D01*
X45617D01*
Y116440D01*
X50958D01*
Y116103D01*
X52632D01*
X55834Y119305D01*
Y132874D01*
G03X55135Y133140I-400J0D01*
G02X51996Y134226I-1343J1199D01*
G01X51991Y134301D01*
X51784Y134508D01*
X50958D01*
Y134042D01*
X45617D01*
Y134379D01*
X19627D01*
G02X21950Y137495I-3153J4775D01*
G03X22333Y136979I383J-116D01*
G01X45617D01*
Y137316D01*
X50958D01*
Y137109D01*
X52861D01*
X53830Y136140D01*
X53905Y136135D01*
G02X55135Y135537I-113J-1797D01*
G03X55834Y135803I298J266D01*
G01Y145226D01*
X65500Y154892D01*
X65495Y154981D01*
G02X65491Y155095I2047J115D01*
G01Y160637D01*
X62685Y163444D01*
X50958D01*
Y163107D01*
X45617D01*
Y166381D01*
X50958D01*
Y166044D01*
X63762D01*
X64809Y164998D01*
G03X65491Y165281I283J283D01*
G01Y223250D01*
X61872Y226869D01*
X58389D01*
Y225499D01*
X58002D01*
Y222749D01*
X58389D01*
Y217408D01*
X58002D01*
Y217209D01*
X56135Y215341D01*
G03X56418Y214658I283J-283D01*
G01X58389D01*
Y213343D01*
X58999D01*
X59046Y213370D01*
G02X59001Y210291I910J-1553D01*
G03X58389Y209952I-212J-339D01*
G01Y209318D01*
X56983D01*
X55183Y207518D01*
X48422D01*
X41002Y214938D01*
X35686D01*
Y218901D01*
X43389D01*
Y216229D01*
X48921Y210697D01*
G03X49603Y210980I283J283D01*
G01Y214507D01*
G02Y217242I1170J1368D01*
G01Y219877D01*
X48861Y220619D01*
X43389D01*
Y219938D01*
X35686D01*
Y223901D01*
X43389D01*
Y223220D01*
X49938D01*
X50409Y222749D01*
X52877D01*
Y217408D01*
X52319D01*
Y216800D01*
X52345Y216754D01*
G02X52548Y216182I-1571J-880D01*
G03X53224Y215967I394J68D01*
G01X55115Y217858D01*
Y222749D01*
X55502D01*
Y225499D01*
X55115D01*
Y230147D01*
X54439Y230823D01*
X52877D01*
Y225499D01*
X49603D01*
Y226000D01*
G03X49137Y226394I-400J0D01*
G02Y229944I-299J1775D01*
G03X49603Y230339I66J394D01*
G01Y230823D01*
X43389D01*
Y229938D01*
X35686D01*
Y233901D01*
X43389D01*
Y233423D01*
X55517D01*
X58100Y230840D01*
X58389D01*
Y229470D01*
X62949D01*
X64809Y227610D01*
G03X65491Y227893I283J283D01*
G01Y234039D01*
X60192Y239339D01*
X33997D01*
X26082Y247254D01*
X24569D01*
Y252594D01*
X25052D01*
Y253486D01*
X30081Y258515D01*
Y263520D01*
X33354D01*
Y258179D01*
X33018D01*
Y257774D01*
X27843Y252599D01*
Y249170D01*
X29398Y247615D01*
G03X30081Y247898I283J283D01*
G01Y252594D01*
X33354D01*
Y252052D01*
G03X33856Y251665I400J0D01*
G02Y248183I459J-1741D01*
G03X33354Y247797I-102J-387D01*
G01Y247254D01*
G37*
G36*
G01X186450Y308335D02*
Y307851D01*
X183176D01*
Y313192D01*
X186450D01*
Y312708D01*
G03X186894Y312311I400J0D01*
G02Y308732I199J-1789D01*
G03X186450Y308335I-44J-398D01*
G37*
G36*
G01X198399Y308231D02*
Y307753D01*
X195125D01*
Y313094D01*
X198399D01*
Y312615D01*
G03X198833Y312217I400J0D01*
G02Y308630I155J-1794D01*
G03X198399Y308231I-34J-399D01*
G37*
G36*
G01X210414Y304973D02*
X214544D01*
G03X214943Y305354I0J400D01*
G02X217383Y306948I1798J-88D01*
G01X217418Y306934D01*
X217654D01*
Y307198D01*
X224767D01*
Y303334D01*
X217654D01*
Y303597D01*
X217418D01*
X217383Y303584D01*
G02X216323Y303515I-642J1682D01*
G03X215830Y303126I-93J-389D01*
G01Y301700D01*
X210414D01*
X210377Y301684D01*
G02Y304990I-713J1653D01*
G01X210414Y304973D01*
G37*
G36*
G01X202811Y323843D02*
X236513D01*
G03X240720Y325586I0J5950D01*
G01X248085Y332950D01*
G03X249828Y337158I-4207J4207D01*
G01Y338118D01*
G02X252928I1550J4057D01*
G01Y337157D01*
G02X250278Y330758I-9050J0D01*
G01X242913Y323393D01*
G02X236513Y320742I-6400J6400D01*
G01X202811D01*
G03X198604Y319000I0J-5950D01*
G01X193448Y313843D01*
G03X192887Y312893I1563J-1563D01*
G01Y307753D01*
X192800D01*
Y300677D01*
X192788Y300665D01*
Y298550D01*
X189515D01*
Y303891D01*
X189700D01*
Y307753D01*
X189613D01*
Y313094D01*
X189760D01*
X189790Y313257D01*
G02X191255Y316036I5220J-976D01*
G01X196412Y321192D01*
G02X202811Y323843I6400J-6400D01*
G37*
G36*
G01X256496Y294442D02*
G02X253110I-1693J-611D01*
G03X252734Y294977I-376J136D01*
G01X250853D01*
Y302877D01*
X258753D01*
Y294977D01*
X256873D01*
G03X256496Y294442I0J-400D01*
G37*
G36*
G01X168910Y288906D02*
Y285718D01*
X168927Y285680D01*
G02X165620I-1653J-713D01*
G01X165637Y285718D01*
Y290859D01*
X166957D01*
G03X167240Y291542I0J400D01*
G01X167072Y291710D01*
X165863D01*
Y297050D01*
X169137D01*
Y294030D01*
X170692Y292475D01*
G03X171375Y292757I283J283D01*
G01Y297050D01*
X174649D01*
Y295930D01*
X177625D01*
Y295987D01*
X181265D01*
X183105Y297827D01*
Y298501D01*
X183019D01*
Y303842D01*
X186292D01*
Y298501D01*
X186206D01*
Y296543D01*
X185328Y295665D01*
Y292025D01*
X177625D01*
Y292830D01*
X174649D01*
Y291710D01*
X172423D01*
G03X172140Y291027I0J-400D01*
G01X172307Y290859D01*
X174422D01*
Y290556D01*
X177625D01*
Y290987D01*
X185328D01*
Y287025D01*
X177625D01*
Y287456D01*
X174422D01*
Y285519D01*
X171149D01*
Y287634D01*
X169593Y289189D01*
G03X168910Y288906I-283J-283D01*
G37*
G36*
G01X284853Y283188D02*
X284891Y283172D01*
X290515D01*
Y279899D01*
X284891D01*
X284853Y279882D01*
G02Y283188I-713J1653D01*
G37*
G36*
G01X199842Y273446D02*
X199826Y273408D01*
Y268186D01*
X196552D01*
Y273408D01*
X196536Y273446D01*
G02X199842I1653J713D01*
G37*
G36*
G01X181515Y273484D02*
X181499Y273446D01*
Y268186D01*
X178225D01*
Y273446D01*
X178209Y273484D01*
G02X181515I1653J713D01*
G37*
G36*
G01X205251Y268186D02*
Y267001D01*
X205495D01*
Y261660D01*
X202222D01*
Y263775D01*
X202151Y263846D01*
Y268186D01*
X202064D01*
Y273527D01*
X202151D01*
Y277025D01*
X198885D01*
Y280987D01*
X206588D01*
Y277025D01*
X205251D01*
Y273527D01*
X205338D01*
Y268186D01*
X205251D01*
G37*
G36*
G01X339525Y264666D02*
Y264875D01*
X347227D01*
Y260912D01*
X339525D01*
Y261122D01*
G02Y264666I-318J1772D01*
G37*
G36*
G01X317763Y261153D02*
G02Y264634I-459J1741D01*
G03X318237Y264875I102J387D01*
G01X325968D01*
Y264674D01*
X326182D01*
X326196Y264676D01*
G02Y261111I251J-1783D01*
G01X326182Y261113D01*
X325968D01*
Y260912D01*
X318237D01*
G03X317763Y261153I-372J-146D01*
G37*
G36*
G01X91223Y253688D02*
X87950D01*
Y259029D01*
X91223D01*
Y258353D01*
G03X91792Y257991I400J0D01*
G02Y254726I759J-1632D01*
G03X91223Y254363I-169J-363D01*
G01Y253688D01*
G37*
G36*
G01X85728Y258880D02*
X85712Y258842D01*
Y253688D01*
X82438D01*
Y258842D01*
X82422Y258880D01*
G02X85728I1653J713D01*
G37*
G36*
G01X250226Y245223D02*
X250210Y245185D01*
Y239515D01*
X246936D01*
Y245185D01*
X246920Y245223D01*
G02X250226I1653J713D01*
G37*
G36*
G01X341394Y243330D02*
X341568D01*
Y239092D01*
G03X342251Y238809I400J0D01*
G01X343806Y240364D01*
Y243330D01*
X345921D01*
X348870Y246279D01*
Y254283D01*
X347241Y255912D01*
X339525D01*
Y259875D01*
X347227D01*
Y259444D01*
X348094D01*
X351971Y255568D01*
Y244995D01*
X347080Y240104D01*
Y237989D01*
X345816D01*
X342554Y234728D01*
X336517D01*
X333256Y237989D01*
X331995D01*
Y243330D01*
X335269D01*
Y241215D01*
X335505Y240979D01*
Y240125D01*
X337801Y237828D01*
X338294D01*
Y243330D01*
X338468D01*
G03X338614Y243666I0J200D01*
G02X341248I1317J1228D01*
G03X341394Y243330I146J-136D01*
G37*
G36*
G01X22370Y230157D02*
X22350Y230161D01*
X22129D01*
Y229938D01*
X14426D01*
Y233901D01*
X22129D01*
Y233677D01*
X22350D01*
X22370Y233681D01*
G02Y230157I368J-1762D01*
G37*
G36*
G01X269665Y234276D02*
G03X269361Y234722I-396J57D01*
G02X268120Y237187I413J1752D01*
G01X268137Y237224D01*
Y242808D01*
X271410D01*
Y237224D01*
X271427Y237187D01*
G02X271556Y236219I-1653J-713D01*
G03X271860Y235773I396J-57D01*
G02X273247Y233995I-413J-1752D01*
G01Y233792D01*
X273379D01*
Y226680D01*
X269515D01*
Y233792D01*
X269647D01*
Y233995D01*
G02X269665Y234276I1800J26D01*
G37*
G36*
G01X35206Y225155D02*
G02Y228684I-358J1764D01*
G03X35646Y228901I80J392D01*
G01X43389D01*
Y224938D01*
X35646D01*
G03X35206Y225155I-360J-175D01*
G37*
G36*
G01X22129Y225146D02*
Y224938D01*
X14426D01*
Y228901D01*
X22129D01*
Y228692D01*
G02Y225146I313J-1773D01*
G37*
G36*
G01X22359Y220140D02*
X22344Y220142D01*
X22129D01*
Y219938D01*
X14426D01*
Y223901D01*
X22129D01*
Y223697D01*
X22344D01*
X22359Y223699D01*
G02Y220140I271J-1780D01*
G37*
G36*
G01X294328Y215725D02*
Y217238D01*
G03X293779Y217610I-400J0D01*
G02Y220953I-668J1672D01*
G03X294328Y221325I148J371D01*
G01Y222838D01*
X298192D01*
Y215725D01*
X294328D01*
G37*
G36*
G01X22508Y218593D02*
G02X22129Y215018I-95J-1798D01*
G01Y214938D01*
X14426D01*
Y218901D01*
X22140D01*
G03X22508Y218593I389J92D01*
G37*
G36*
G01X312300Y211204D02*
X320029D01*
G03X320508Y210959I374J141D01*
G02Y207486I473J-1737D01*
G03X320029Y207241I-105J-386D01*
G01X312300D01*
Y207424D01*
G03X311670Y207751I-400J0D01*
G02Y210694I-1037J1472D01*
G03X312300Y211021I230J327D01*
G01Y211204D01*
G37*
G36*
G01X381451Y242521D02*
X381371Y242387D01*
X383959Y239799D01*
Y222378D01*
X378248Y216668D01*
Y207631D01*
X378635D01*
Y202290D01*
X375361D01*
Y207631D01*
X375748D01*
Y217703D01*
X377099Y219055D01*
G03X376798Y219737I-283J283D01*
G02X371136Y223566I-261J5716D01*
G03X370476Y223717I-378J-132D01*
G01X366526Y219767D01*
Y207611D01*
X366912D01*
Y202271D01*
X363639D01*
Y203324D01*
X362669D01*
G02Y205924I-1245J1300D01*
G01X363639D01*
Y207611D01*
X364025D01*
Y220802D01*
X369926Y226703D01*
X370952D01*
X370990Y226854D01*
G02X380763Y229310I5547J-1401D01*
G03X381458Y229580I295J270D01*
G01Y238764D01*
X379601Y240621D01*
G02X381451Y242521I-3064J4832D01*
G37*
G36*
G01X372032Y201739D02*
G02X369151Y202503I-1699J-594D01*
G01Y207611D01*
X372424D01*
Y202271D01*
X372409D01*
G03X372032Y201739I0J-400D01*
G37*
G36*
G01X22053Y191288D02*
X22089Y191133D01*
X45617D01*
Y191470D01*
X50958D01*
Y191133D01*
X53182D01*
X53197Y191135D01*
G02X51868Y188532I272J-1780D01*
G01X50958D01*
Y188196D01*
X45617D01*
Y188532D01*
X21999D01*
G02X22053Y191288I-5525J1487D01*
G37*
G36*
G01X44986Y185974D02*
X45024Y185958D01*
X50958D01*
Y182684D01*
X45024D01*
X44986Y182668D01*
G02Y185974I-713J1653D01*
G37*
G36*
G01X92747Y178481D02*
X91223D01*
Y176995D01*
X87950D01*
Y182336D01*
X91223D01*
Y181081D01*
X92747D01*
G02Y178481I1245J-1300D01*
G37*
G36*
G01X324609Y361530D02*
X364181D01*
G03X364416Y362254I0J400D01*
G02X368031Y360640I5663J7824D01*
G03X367663Y359966I-85J-391D01*
G01X372946Y354683D01*
X383322D01*
X390532Y347474D01*
Y210790D01*
X384147Y204405D01*
Y202290D01*
X384060D01*
Y179106D01*
X369818Y164864D01*
X352039D01*
G02Y167964I-915J1550D01*
G01X368534D01*
X380960Y180390D01*
Y202290D01*
X380873D01*
Y207631D01*
X382988D01*
X387431Y212074D01*
Y346190D01*
X382038Y351583D01*
X371662D01*
X364815Y358430D01*
X324609D01*
Y357310D01*
X324523D01*
Y347690D01*
X324688Y347661D01*
G02X321422Y346654I-649J-3697D01*
G01Y357310D01*
X321336D01*
Y362651D01*
X324609D01*
Y361530D01*
G37*
G36*
G01X21986Y171556D02*
X45617D01*
Y171893D01*
X50958D01*
Y168619D01*
X45617D01*
Y168956D01*
X22098D01*
X22064Y168798D01*
G02X21986Y171556I-5590J1221D01*
G37*
G36*
G01X45617Y139554D02*
Y139732D01*
G03X45280Y139878I-200J0D01*
G02Y142504I-1232J1313D01*
G03X45617Y142650I137J146D01*
G01Y142828D01*
X50958D01*
Y139554D01*
X45617D01*
G37*
G36*
G01X120071Y130170D02*
X121479D01*
Y126306D01*
X114367D01*
Y130170D01*
X115775D01*
G03X116166Y130657I0J400D01*
G02X119681I1758J389D01*
G03X120071Y130170I391J-86D01*
G37*
G36*
G01X21639Y121615D02*
X45617D01*
Y121952D01*
X50958D01*
Y118678D01*
X45617D01*
Y119015D01*
X22197D01*
X22186Y118826D01*
G02X21639Y121615I-5712J327D01*
G37*
G36*
G01X99400Y105273D02*
G02Y108782I-402J1755D01*
G03X99854Y109009I89J390D01*
G01X107592D01*
Y105046D01*
X99854D01*
G03X99400Y105273I-365J-163D01*
G37*
G36*
G01X86332Y104009D02*
Y103760D01*
G03X86786Y103363I400J0D01*
G02X86089Y100046I245J-1783D01*
G01X78629D01*
Y104009D01*
X86332D01*
G37*
G36*
G01X45589Y91978D02*
X45626Y91962D01*
X50958D01*
Y88688D01*
X45626D01*
X45589Y88672D01*
G02Y91978I-713J1653D01*
G37*
G36*
G01X108064Y91893D02*
Y89852D01*
G03X108618Y89482I400J0D01*
G02X107512Y87739I693J-1662D01*
G01X107504Y87930D01*
X102527D01*
Y91893D01*
X108064D01*
G37*
G36*
G01X53102Y105626D02*
G03X53599Y106014I97J388D01*
G01Y106131D01*
G03X53011Y106483I-400J0D01*
G02Y109658I-849J1588D01*
G03X53599Y110011I189J353D01*
G01Y110741D01*
X56873D01*
Y105401D01*
X54559D01*
G03X54214Y104797I0J-400D01*
G02X51474Y102530I-1549J-917D01*
G01X51418Y102580D01*
X50958D01*
Y102389D01*
X48489D01*
X46934Y100833D01*
G03X47217Y100151I283J-283D01*
G01X50958D01*
Y96877D01*
X50093D01*
X50087Y96684D01*
G02X46488I-1799J59D01*
G01X46482Y96877D01*
X45617D01*
Y98551D01*
G03X44934Y98834I-400J0D01*
G01X34106Y88005D01*
X22048D01*
X22009Y87856D01*
G02Y90755I-5535J1450D01*
G01X22048Y90605D01*
X33028D01*
X45617Y103194D01*
Y105662D01*
X50958D01*
Y105180D01*
X51418D01*
X51474Y105230D01*
G02X53102Y105626I1191J-1350D01*
G37*
G36*
G01X300784Y73176D02*
Y73757D01*
X299068D01*
Y72084D01*
X295794D01*
Y77424D01*
X299068D01*
Y76558D01*
X300784D01*
Y77139D01*
X306322D01*
Y73176D01*
X300784D01*
G37*
G36*
G01X290493Y77766D02*
X265601Y102657D01*
X265526Y102662D01*
G02X267436Y104571I113J1797D01*
G01X267440Y104496D01*
X293220Y78716D01*
Y77424D01*
X293556D01*
Y72084D01*
X290282D01*
Y77424D01*
X290351D01*
G03X290493Y77766I0J200D01*
G37*
G36*
G01X51543Y83292D02*
X51486Y83342D01*
X50958D01*
Y83176D01*
X48489D01*
X33318Y68005D01*
X22048D01*
X22009Y67856D01*
G02Y70755I-5535J1450D01*
G01X22048Y70605D01*
X32241D01*
X45617Y83982D01*
Y86450D01*
X50958D01*
Y85943D01*
X51486D01*
X51543Y85993D01*
G02Y83292I1191J-1350D01*
G37*
G36*
G01X301398Y65696D02*
X300784D01*
Y69658D01*
X306322D01*
Y65696D01*
X305709D01*
G03X305317Y65216I0J-400D01*
G02X301790I-1764J-361D01*
G03X301398Y65696I-392J80D01*
G37*
G36*
G01X125639Y65581D02*
X125664Y65626D01*
Y66361D01*
X125704Y66401D01*
Y69259D01*
X125617D01*
Y74599D01*
X128891D01*
Y69259D01*
X128804D01*
Y65553D01*
G02X125639Y65581I-1590J-844D01*
G37*
G36*
G01X45260Y59064D02*
X45298Y59048D01*
X50958D01*
Y55775D01*
X45298D01*
X45260Y55758D01*
G02Y59064I-713J1653D01*
G37*
G36*
G01X250804Y77139D02*
X256145D01*
Y76902D01*
X258925D01*
X271971Y63856D01*
Y55578D01*
G02X269171I-1400J-4112D01*
G01Y62696D01*
X257765Y74102D01*
X256145D01*
Y73865D01*
X252980D01*
G03X252698Y73182I0J-400D01*
G01X261066Y64814D01*
Y55578D01*
G02X258265I-1400J-4112D01*
G01Y63654D01*
X248054Y73865D01*
X245278D01*
G03X244995Y73182I0J-400D01*
G01X250271Y67906D01*
Y55539D01*
G02X247471Y55614I-1511J-4072D01*
G01Y66746D01*
X240352Y73865D01*
X237615D01*
Y77139D01*
X242956D01*
Y75222D01*
X243527Y74650D01*
G03X244210Y74933I283J283D01*
G01Y77139D01*
X249550D01*
Y76330D01*
X250121Y75759D01*
G03X250804Y76042I283J283D01*
G01Y77139D01*
G37*
G36*
G01X236573Y55617D02*
Y68049D01*
X232291Y72332D01*
Y73865D01*
X231021D01*
Y77139D01*
X236361D01*
Y73865D01*
X235091D01*
Y73492D01*
X239374Y69209D01*
Y55536D01*
G02X236573Y55617I-1519J-4069D01*
G37*
G36*
G01X225696Y55626D02*
Y73865D01*
X224426D01*
Y77139D01*
X229767D01*
Y73865D01*
X228497D01*
Y55525D01*
G02X225696Y55626I-1548J-4058D01*
G37*
G36*
G01X97867Y45666D02*
X94594D01*
Y51007D01*
X97867D01*
Y50456D01*
G03X98375Y50070I400J0D01*
G02Y46603I485J-1734D01*
G03X97867Y46218I-108J-385D01*
G01Y45666D01*
G37*
G36*
G01X85456Y49637D02*
X86260D01*
G03X86601Y50247I0J400D01*
G01Y61373D01*
X50958D01*
Y61286D01*
X45617D01*
Y64560D01*
X46987D01*
Y69475D01*
X45617D01*
Y71149D01*
G03X44934Y71432I-400J0D01*
G01X22160Y48657D01*
X22151Y48589D01*
G02X21377Y52255I-5677J716D01*
G03X22003Y52178I343J206D01*
G01X45617Y75792D01*
Y78261D01*
X50958D01*
Y74987D01*
X48489D01*
X46934Y73432D01*
G03X47217Y72749I283J-283D01*
G01X50958D01*
Y69475D01*
X49588D01*
Y64560D01*
X50958D01*
Y64473D01*
X86601D01*
Y75928D01*
X84942D01*
Y79202D01*
X90282D01*
Y75928D01*
X89701D01*
Y63449D01*
G02Y61619I-1550J-915D01*
G01Y51546D01*
X90240Y51007D01*
X92355D01*
Y45666D01*
X89082D01*
Y47036D01*
X85456D01*
Y45666D01*
X82182D01*
Y51007D01*
X85456D01*
Y49637D01*
G37*
G36*
G01X64243Y45684D02*
X64259Y45722D01*
Y51007D01*
X67532D01*
Y45722D01*
X67549Y45684D01*
G02X64243I-1653J-713D01*
G37*
G36*
G01X51831Y45367D02*
X51848Y45405D01*
Y51007D01*
X55121D01*
Y45405D01*
X55137Y45367D01*
G02X51831I-1653J-713D01*
G37*
G36*
G01X337279Y47693D02*
Y54554D01*
X321816Y70017D01*
X315377D01*
Y69436D01*
X309840D01*
Y73399D01*
X315377D01*
Y72818D01*
X322976D01*
X340079Y55714D01*
Y47693D01*
G02X337279I-1400J-3482D01*
G37*
G36*
G01X376629Y47354D02*
Y71067D01*
G02X380729I2050J3143D01*
G01Y47354D01*
G02X375536Y42160I-2050J-3143D01*
G01X366137D01*
X348212Y24235D01*
Y21757D01*
G02X344111I-2050J-5342D01*
G01Y25933D01*
X364439Y46261D01*
X375536D01*
G02X376629Y47354I3144J-2050D01*
G37*
G36*
G01X330729Y41067D02*
Y19861D01*
G02X326224Y22137I-4568J-3445D01*
G03X326629Y22536I4J400D01*
G01Y41067D01*
G02X330729I2050J3143D01*
G37*
G36*
G01X81809Y19304D02*
X81887Y19437D01*
X77007Y24318D01*
Y45666D01*
X76670D01*
Y51007D01*
X79944D01*
Y45666D01*
X79607D01*
Y25395D01*
X83728Y21275D01*
G02X81809Y19304I3020J-4859D01*
G37*
G36*
G01X69637Y21354D02*
X69770Y21276D01*
X70107Y21614D01*
Y45666D01*
X69771D01*
Y51007D01*
X69848D01*
Y56232D01*
G02X72448I1300J1245D01*
G01Y51007D01*
X73044D01*
Y45666D01*
X72708D01*
Y20536D01*
X71609Y19437D01*
X71687Y19304D01*
G02X69637Y21354I-4939J-2889D01*
G37*
G36*
G01X49637D02*
X49770Y21276D01*
X57696Y29202D01*
Y45666D01*
X57359D01*
Y51007D01*
X57843D01*
Y52057D01*
X58243Y52458D01*
X58248Y52533D01*
G02X60754Y50766I1797J-113D01*
G01X60633Y50714D01*
Y45666D01*
X60296D01*
Y28125D01*
X51609Y19437D01*
X51687Y19304D01*
G02X49637Y21354I-4939J-2889D01*
G37*
G36*
G01X131642Y80399D02*
G03X129899Y84606I-5950J0D01*
G01X119437Y95068D01*
G02X118432Y96264I6400J6399D01*
G03X117710Y96099I-327J-230D01*
G02X114689Y95093I-1776J294D01*
G01X107327D01*
X105024Y92790D01*
X94511D01*
X90390Y88669D01*
Y87472D01*
X93471D01*
Y88153D01*
X99009D01*
Y84190D01*
X96098D01*
X93684Y81777D01*
X90282D01*
Y81440D01*
X84942D01*
Y84714D01*
X87478D01*
G03X87761Y85396I0J400D01*
G01X87518Y85640D01*
X85050D01*
Y88914D01*
X86957D01*
X88512Y90469D01*
G03X88230Y91152I-283J283D01*
G01X84803D01*
X84765Y91135D01*
G02Y94442I-713J1653D01*
G01X84803Y94425D01*
X90390D01*
Y93312D01*
G03X91073Y93029I400J0D01*
G01X93434Y95390D01*
X103947D01*
X106250Y97693D01*
X114689D01*
G02X116733Y98006I1245J-1300D01*
G03X117288Y98496I178J358D01*
G02X116786Y101468I8549J2972D01*
G01Y103275D01*
X116700D01*
Y108615D01*
X119973D01*
Y103275D01*
X119887D01*
Y101468D01*
G03X121630Y97260I5950J0D01*
G01X132091Y86799D01*
G02X134742Y80399I-6400J-6400D01*
G01Y49000D01*
G03X136485Y44793I5950J0D01*
G01X140131Y41146D01*
G03X140814Y41432I283J283D01*
G02X146678Y37398I4343J34D01*
G03X146796Y36624I140J-375D01*
G03X147126Y36615I331J5941D01*
G01X195079D01*
G03X197097Y37376I0J3056D01*
G03X197073Y37996I-264J300D01*
G02X196450Y44365I2612J3471D01*
G03X196152Y45032I-298J267D01*
G01X192312D01*
G03X192014Y44365I0J-400D01*
G02X189171Y45792I-3235J-2899D01*
G03X189490Y46474I36J398D01*
G01X187260Y48704D01*
Y49076D01*
X186955D01*
X186895Y48990D01*
G02X184976Y47448I-3569J2476D01*
G03X184767Y46905I152J-370D01*
G02X181826Y44900I-1623J-779D01*
G01X181767Y44964D01*
X181467D01*
G03X181164Y44302I0J-400D01*
G02X173533Y41307I-3290J-2836D01*
G01X173530Y41386D01*
X171791Y43126D01*
G03X171125Y42727I-283J-283D01*
G02X168229Y45623I-4157J-1260D01*
G03X168628Y46289I116J383D01*
G01X166078Y48839D01*
Y49191D01*
G03X165327Y49383I-400J0D01*
G02Y53550I-3811J2084D01*
G03X166078Y53742I351J192D01*
G01Y73713D01*
X165027D01*
Y76987D01*
X170368D01*
Y73713D01*
X168878D01*
Y55019D01*
G03X169543Y54720I400J0D01*
G02X175726Y54285I2878J-3253D01*
G03X176431Y54544I304J260D01*
G01Y55280D01*
X172550Y59161D01*
Y73762D01*
X171280D01*
Y77036D01*
X176620D01*
Y73762D01*
X175350D01*
Y60321D01*
X179231Y56440D01*
Y54440D01*
G03X179943Y54189I400J0D01*
G02X186562Y54365I3384J-2723D01*
G03X187260Y54632I298J267D01*
G01Y55319D01*
X178442Y64137D01*
Y73865D01*
X177172D01*
Y77139D01*
X182513D01*
Y73865D01*
X181243D01*
Y65296D01*
X190060Y56479D01*
Y54342D01*
G03X190778Y54100I400J0D01*
G02X196025Y55423I3454J-2633D01*
G01X196151Y55366D01*
X205913Y65127D01*
Y73865D01*
X204643D01*
Y77139D01*
X209983D01*
Y73865D01*
X208713D01*
Y63967D01*
X198130Y53384D01*
G02X197410Y48505I-3897J-1917D01*
G03X197702Y47833I293J-273D01*
G01X201668D01*
G03X201960Y48505I0J400D01*
G02X206931Y55423I3178J2961D01*
G01X207057Y55366D01*
X212507Y60816D01*
Y73865D01*
X211237D01*
Y77139D01*
X216578D01*
Y73865D01*
X215308D01*
Y59656D01*
X209037Y53385D01*
X209094Y53259D01*
G02X208315Y48505I-3956J-1793D01*
G03X208608Y47833I293J-273D01*
G01X212573D01*
G03X212866Y48505I0J400D01*
G02X217836Y55423I3178J2961D01*
G01X217962Y55366D01*
X219102Y56505D01*
Y73865D01*
X217832D01*
Y77139D01*
X223172D01*
Y73865D01*
X221902D01*
Y55345D01*
X219942Y53385D01*
X220000Y53259D01*
G02X218058Y47619I-3956J-1793D01*
G03X217961Y46982I186J-354D01*
G01X219577Y45366D01*
X219703Y45423D01*
G02X217540Y43259I1793J-3956D01*
G01X217597Y43385D01*
X215950Y45032D01*
X214123D01*
G03X213825Y44365I0J-400D01*
G02X207356I-3235J-2899D01*
G03X207058Y45032I-298J267D01*
G01X203218D01*
G03X202920Y44365I0J-400D01*
G02X200741Y37253I-3235J-2899D01*
G02X195079Y33514I-5662J2417D01*
G01X147127D01*
G02X140728Y36165I0J9050D01*
G01X134292Y42600D01*
G02X131642Y49000I6400J6400D01*
G01Y80399D01*
G37*
G36*
G01X112086Y74686D02*
X112070Y74648D01*
Y69126D01*
X112749D01*
X114308Y70685D01*
Y74599D01*
X117582D01*
Y73229D01*
X120105D01*
Y74599D01*
X123379D01*
Y69259D01*
X120105D01*
Y70629D01*
X117582D01*
Y69259D01*
X116560D01*
X113827Y66526D01*
X101231D01*
X98498Y69259D01*
X97487D01*
Y74599D01*
X100761D01*
Y70674D01*
X102309Y69126D01*
X102999D01*
Y74599D01*
X103336D01*
Y80450D01*
X102527D01*
Y84412D01*
X108064D01*
Y80450D01*
X105936D01*
Y74599D01*
X106273D01*
Y69126D01*
X108796D01*
Y74648D01*
X108780Y74686D01*
G02X112086I1653J713D01*
G37*
G36*
G01X107642Y125240D02*
G02Y127791I-1270J1276D01*
G03X108324Y128075I282J283D01*
G01Y128152D01*
X113664D01*
Y124879D01*
X108324D01*
Y124956D01*
G03X107642Y125240I-400J0D01*
G37*
G36*
G01X333010Y208511D02*
G02X333819Y211204I-673J1670D01*
G01X340928D01*
G02X342006Y212059I1573J-876D01*
G03X342131Y212767I-110J385D01*
G02X341940Y212927I1059J1456D01*
G03X341263Y212639I-278J-288D01*
G01Y212241D01*
X333560D01*
Y212302D01*
G03X332965Y212651I-400J0D01*
G02Y215794I-878J1572D01*
G03X333560Y216143I195J349D01*
G01Y216204D01*
X341263D01*
Y215806D01*
G03X341940Y215518I400J0D01*
G02X343685Y212491I1250J-1296D01*
G03X343559Y211783I110J-385D01*
G02X341815Y208663I-1059J-1456D01*
G03X341263Y208293I-152J-370D01*
G01Y207241D01*
X333560D01*
Y208140D01*
G03X333010Y208511I-400J0D01*
G37*
G36*
G01X185328Y280581D02*
Y277025D01*
X177607D01*
G03X177105Y277288I-382J-118D01*
G02Y280724I-539J1718D01*
G03X177607Y280987I120J382D01*
G01X184922D01*
G03X185205Y281670I0J400D01*
G01X184850Y282025D01*
X177625D01*
Y285987D01*
X185328D01*
Y285556D01*
X185703D01*
X189975Y281285D01*
Y273265D01*
X187011Y270301D01*
Y268186D01*
X186924D01*
Y267001D01*
X187090D01*
Y261660D01*
X183816D01*
Y267001D01*
X183824D01*
Y268186D01*
X183737D01*
Y273527D01*
X185852D01*
X186874Y274549D01*
Y280000D01*
X186011Y280864D01*
G03X185328Y280581I-283J-283D01*
G37*
G36*
G01X283895Y271430D02*
X292385D01*
Y269369D01*
G03X292889Y268983I400J0D01*
G02X294068Y268897I466J-1739D01*
G01X294106Y268881D01*
X299334D01*
Y265607D01*
X294106D01*
X294068Y265591D01*
G02X293999Y265563I-714J1653D01*
G03X293993Y265192I72J-187D01*
G02X294006Y265187I-704J-1657D01*
G01X294044Y265170D01*
X299334D01*
Y261897D01*
X294044D01*
X294006Y261880D01*
G02X292351Y265068I-713J1653D01*
G03X292363Y265742I-209J341D01*
G02X291572Y266999I992J1502D01*
G01X291548Y267172D01*
X283895D01*
Y267366D01*
G03X283304Y267717I-400J0D01*
G02Y270885I-856J1584D01*
G03X283895Y271237I190J352D01*
G01Y271430D01*
G37*
G36*
G01X236584Y335238D02*
G02X230241Y328896I-6342J0D01*
G01X195530D01*
G03X191322Y327153I0J-5950D01*
G01X182594Y318425D01*
G03X180851Y314218I4207J-4207D01*
G01Y313192D01*
X180938D01*
Y307851D01*
X180851D01*
Y300687D01*
X180780Y300616D01*
Y298501D01*
X177507D01*
Y303842D01*
X177751D01*
Y307851D01*
X177664D01*
Y313192D01*
X177751D01*
Y314218D01*
G02X180402Y320617I9050J0D01*
G01X189130Y329346D01*
G02X195530Y331996I6400J-6400D01*
G01X230241D01*
G03X233483Y335238I0J3242D01*
G01Y338991D01*
G03X232787Y339260I-400J0D01*
G02X233202Y344553I-3220J2915D01*
G03X233918Y344649I335J219D01*
G02X235212Y347198I8616J-2770D01*
G03X234899Y347833I-324J235D01*
G02X232624Y355798I121J4342D01*
G03X232403Y356532I-221J334D01*
G01X226731D01*
G03X226510Y355798I0J-400D01*
G02X221718I-2396J-3623D01*
G03X221498Y356532I-221J334D01*
G01X215825D01*
G03X215605Y355798I0J-400D01*
G02X210813I-2396J-3623D01*
G03X210592Y356532I-221J334D01*
G01X204920D01*
G03X204699Y355798I0J-400D01*
G02X199907I-2396J-3623D01*
G03X199687Y356532I-221J334D01*
G01X194014D01*
G03X193794Y355798I0J-400D01*
G02X189002I-2396J-3623D01*
G03X188781Y356532I-221J334D01*
G01X183109D01*
G03X182888Y355798I0J-400D01*
G02X178096I-2396J-3623D01*
G03X177876Y356532I-221J334D01*
G01X176843D01*
X173745Y353434D01*
X173776Y353322D01*
G02X173333Y349978I-4189J-1147D01*
G01X173255Y349844D01*
X177100Y345999D01*
X177125Y345985D01*
G02X171875Y345151I-2086J-3810D01*
G01X172008Y345292D01*
X169587Y347714D01*
X167165Y345292D01*
X167298Y345151D01*
G02X162048Y345985I-3164J-2976D01*
G01X162073Y345999D01*
X165918Y349844D01*
X165840Y349978D01*
G02X170734Y356364I3746J2198D01*
G01X170846Y356334D01*
X175144Y360632D01*
X262392D01*
X275712Y347312D01*
G03X276395Y347595I283J283D01*
G01Y350630D01*
X265446Y361579D01*
X149173D01*
X141029Y353434D01*
X141059Y353322D01*
G02Y351028I-4189J-1147D01*
G01X141029Y350916D01*
X144373Y347572D01*
Y346004D01*
G02X139787Y345702I-2050J-3829D01*
G03X139837Y346309I-233J325D01*
G01X138129Y348017D01*
X138017Y347986D01*
G02X135723I-1147J4189D01*
G01X135611Y348017D01*
X133904Y346309D01*
G03X133953Y345702I283J-283D01*
G02X129367Y346004I-2536J-3527D01*
G01Y347572D01*
X132712Y350916D01*
X132681Y351028D01*
G02X138017Y356364I4189J1147D01*
G01X138129Y356334D01*
X147475Y365679D01*
X267145D01*
X280495Y352329D01*
Y351509D01*
X280817D01*
X280873Y351617D01*
G02X281235Y342094I8576J-4442D01*
G03X280495Y341883I-340J-210D01*
G01Y339755D01*
X286225Y334025D01*
X369555D01*
X378588Y324992D01*
Y322277D01*
G02X375726Y311271I-2050J-5342D01*
G03X375386Y310592I-57J-396D01*
G01X378588Y307391D01*
Y302277D01*
G02X371551Y299740I-2050J-5342D01*
G01X371625Y299872D01*
X371355Y300143D01*
X344176D01*
Y296759D01*
X336420D01*
X332394Y292733D01*
X317126D01*
G02X316622Y292796I0J2050D01*
G01X316598Y292802D01*
X313103D01*
Y291765D01*
X321765D01*
Y291334D01*
X325007D01*
Y291676D01*
X330348D01*
Y288403D01*
X328233D01*
X328063Y288233D01*
X321765D01*
Y287802D01*
X313103D01*
Y286765D01*
X321765D01*
Y282802D01*
X312487D01*
Y284692D01*
X302080D01*
Y282802D01*
X298991D01*
Y274393D01*
X299334D01*
Y274257D01*
X300164D01*
Y274344D01*
X305505D01*
Y271070D01*
X300164D01*
Y271156D01*
X299334D01*
Y271119D01*
X293993D01*
Y274393D01*
X295891D01*
Y282802D01*
X292802D01*
Y286765D01*
X301464D01*
Y287802D01*
X292802D01*
Y289425D01*
X291198Y291029D01*
G03X290515Y290746I-283J-283D01*
G01Y289426D01*
X289395D01*
Y288684D01*
X290515D01*
Y285410D01*
X285174D01*
Y288684D01*
X286294D01*
Y289426D01*
X285174D01*
Y292700D01*
X288562D01*
G03X288844Y293383I0J400D01*
G01X287289Y294938D01*
X285174D01*
Y297733D01*
X276470D01*
Y294977D01*
X271469D01*
X270780Y294288D01*
G03X271063Y293605I283J-283D01*
G01X271440D01*
Y284131D01*
X257044D01*
Y293605D01*
X264298D01*
X268570Y297877D01*
Y302877D01*
X276470D01*
Y301834D01*
X297441D01*
G02X297944Y301771I0J-2050D01*
G01X297969Y301765D01*
X300569D01*
X302812Y304008D01*
Y309107D01*
X306086D01*
Y303767D01*
X305999D01*
Y302810D01*
X303747Y300558D01*
G03X304030Y299875I283J-283D01*
G01X312487D01*
Y301765D01*
X315576D01*
Y303356D01*
X314144Y304788D01*
X311597D01*
Y303767D01*
X308324D01*
Y309107D01*
X311597D01*
Y307888D01*
X315428D01*
X318676Y304640D01*
Y301765D01*
X321765D01*
Y297802D01*
X313103D01*
Y296765D01*
X316598D01*
X316622Y296771D01*
G02X317126Y296834I504J-1987D01*
G01X330696D01*
X333521Y299658D01*
Y307414D01*
X344176D01*
Y304243D01*
X373053D01*
X373804Y303492D01*
G03X374487Y303775I283J283D01*
G01Y305693D01*
X356057Y324123D01*
X281900D01*
X273095Y332929D01*
Y344130D01*
X260693Y356532D01*
X259447D01*
G03X259227Y355798I0J-400D01*
G02X254435I-2396J-3623D01*
G03X254214Y356532I-221J334D01*
G01X248542D01*
G03X248321Y355798I0J-400D01*
G02X242452Y349567I-2396J-3623D01*
G03X241850Y349609I-320J-240D01*
G01X239371Y347130D01*
G03X239722Y346453I283J-283D01*
G02X237278Y339232I750J-4278D01*
G03X236584Y338961I-294J-271D01*
G01Y335238D01*
G37*
G36*
G01X20810Y303387D02*
X20689Y303246D01*
X24908Y299027D01*
Y288394D01*
G03X25472Y288029I400J0D01*
G02X27156Y287914I734J-1644D01*
G03X27767Y288254I211J340D01*
G01Y319206D01*
X22257Y324715D01*
G03X21615Y324608I-283J-283D01*
G02X22009Y328570I-5141J2512D01*
G01X22048Y328420D01*
X22230D01*
X29735Y320916D01*
G03X30417Y321199I283J283D01*
G01Y332274D01*
X20045Y342646D01*
X19907Y342542D01*
G02X21718Y344831I-3432J4578D01*
G01X21663Y344706D01*
X33018Y333352D01*
Y285370D01*
X33354D01*
Y284000D01*
X33640D01*
X33696Y284050D01*
G02Y281350I1191J-1350D01*
G01X33640Y281400D01*
X33354D01*
Y280029D01*
X30367D01*
Y274964D01*
X30886Y274445D01*
X33354D01*
Y273075D01*
X40237D01*
G02Y270474I1245J-1300D01*
G01X33354D01*
Y269104D01*
X30081D01*
Y271572D01*
X28525Y273128D01*
G03X27843Y272845I-283J-283D01*
G01Y268711D01*
X27859Y268674D01*
G02X25472Y266317I-1653J-713D01*
G03X24908Y265952I-163J-365D01*
G01Y263985D01*
X25374Y263520D01*
X27843D01*
Y258179D01*
X24569D01*
Y260647D01*
X22308Y262908D01*
Y297950D01*
X18493Y301765D01*
X18374Y301723D01*
G02X20810Y303387I-1900J5397D01*
G37*
G54D49*
X376537Y276935D03*
G54D40*
X23622Y23622D03*
Y370079D03*
X104252Y347175D03*
X112539Y46467D03*
X297736D03*
X370079Y23622D03*
G54D43*
X140456Y200177D03*
X140348Y221831D03*
X346534Y229941D03*
G54D46*
X306034Y187293D03*
X314197Y343965D03*
X328679Y74211D03*
X326034Y187293D03*
X336034D03*
X333882Y343965D03*
X346034Y187293D03*
X343724Y343965D03*
X356034Y187293D03*
X353567Y343965D03*
X363410D03*
X373252D03*
X383094D03*
G54D48*
X342303Y229941D03*
G54D45*
X296831Y208199D03*
X308553Y175216D03*
X317461Y359980D03*
G54D44*
X153154Y105603D03*
X202155Y106436D03*
X327677Y284528D03*
G54D47*
X338848Y282795D03*
G54D42*
X139705Y51466D03*
X150610D03*
X147776Y352175D03*
X156063Y41466D03*
X153228Y342175D03*
X158681Y352175D03*
X185945Y342175D03*
X196850D03*
X207756D03*
X218661D03*
X232402Y41466D03*
X243307D03*
X254213D03*
X265118D03*
X262284Y342175D03*
G54D41*
X103740Y102028D03*
X316152Y204222D03*
X343376Y267894D03*
%LPD*%
G75*
G36*
G01X24908Y274445D02*
Y280029D01*
X27767D01*
Y274445D01*
X24908D01*
G37*
G36*
G01X64108Y315830D02*
Y319780D01*
X66751D01*
Y315830D01*
X64108D01*
G37*
G36*
G01X70275Y173906D02*
G02X69592Y174189I-283J283D01*
G01Y178326D01*
X75005Y183740D01*
X81958D01*
G02X82343Y183231I0J-400D01*
G03X82422Y182027I1732J-491D01*
G01X82438Y181990D01*
Y176808D01*
X73177D01*
X70275Y173906D01*
G37*
G36*
G01Y182687D02*
G02X69592Y182970I-283J283D01*
G01Y189214D01*
X74407Y194030D01*
X81958D01*
G02X82343Y193521I0J-400D01*
G03X82422Y192317I1732J-491D01*
G01X82438Y192280D01*
Y186340D01*
X73928D01*
X70275Y182687D01*
G37*
G36*
G01X69592Y193857D02*
Y200033D01*
X72988Y203429D01*
X81958D01*
G02X82343Y202920I0J-400D01*
G03X82422Y201717I1732J-491D01*
G01X82438Y201679D01*
Y196630D01*
X73330D01*
X70275Y193575D01*
G02X69592Y193857I-283J283D01*
G37*
G36*
G01Y204677D02*
Y210372D01*
X72594Y213375D01*
X81958D01*
G02X82343Y212866I0J-400D01*
G03X82422Y211663I1732J-491D01*
G01X82438Y211625D01*
Y206030D01*
X71910D01*
X70275Y204394D01*
G02X69592Y204677I-283J283D01*
G37*
G36*
G01X82438Y220670D02*
Y215975D01*
X71517D01*
X70275Y214733D01*
G02X69592Y215016I-283J283D01*
G01Y218506D01*
X73506Y222420D01*
X81958D01*
G02X82343Y221911I0J-400D01*
G03X82422Y220708I1732J-491D01*
G01X82438Y220670D01*
G37*
G36*
G01Y230196D02*
Y225021D01*
X72429D01*
X70275Y222867D01*
G02X69592Y223150I-283J283D01*
G01Y227905D01*
X73633Y231946D01*
X81958D01*
G02X82343Y231437I0J-400D01*
G03X82422Y230234I1732J-491D01*
G01X82438Y230196D01*
G37*
G36*
G01Y239741D02*
Y234546D01*
X72556D01*
X70275Y232265D01*
G02X69592Y232548I-283J283D01*
G01Y239326D01*
G03X69589Y239440I-2050J-1D01*
G01X69584Y239529D01*
X72275Y242220D01*
X82321D01*
G02X82640Y241578I0J-400D01*
G03X82422Y239779I1435J-1087D01*
G01X82438Y239741D01*
G37*
G36*
G01X69416Y291906D02*
X70278D01*
G02X70561Y291224I0J-400D01*
G01X67542Y288205D01*
X66842Y288905D01*
Y291906D01*
X67178D01*
Y296962D01*
X68594Y298379D01*
G02X69273Y298155I283J-283D01*
G03X69400Y297710I1780J268D01*
G01X69416Y297672D01*
Y291906D01*
G37*
G36*
G01X130194Y213288D02*
X116903D01*
X107418Y222774D01*
Y260962D01*
X108757Y262301D01*
G02X109440Y262019I283J-283D01*
G01Y242060D01*
X125064Y226436D01*
X130194D01*
Y221162D01*
X129560D01*
X129503Y221212D01*
G03Y218512I-1191J-1350D01*
G01X129560Y218562D01*
X130194D01*
Y213288D01*
G37*
G36*
G01X211822Y137574D02*
X204137D01*
X201599Y135036D01*
X199484D01*
Y134950D01*
X197751D01*
X193823Y131021D01*
Y124087D01*
X143817D01*
Y124837D01*
X150742Y131763D01*
X155825D01*
Y131936D01*
X159284D01*
X160608Y130611D01*
Y130338D01*
X160604Y130318D01*
G03X160571Y129995I1554J-323D01*
G01Y126451D01*
G03X163181Y125236I1588J0D01*
G02X163696I258J-306D01*
G03X165740I1022J1215D01*
G02X166255I257J-306D01*
G03X168299I1022J1215D01*
G02X168814I258J-306D01*
G03X170858I1022J1215D01*
G02X171373I258J-306D01*
G03X173417I1022J1215D01*
G02X173932I258J-306D01*
G03X175976I1022J1215D01*
G02X176491I257J-306D01*
G03X178535I1022J1215D01*
G02X179050I258J-306D01*
G03X181094I1022J1215D01*
G02X181609I258J-306D01*
G03X183653I1022J1215D01*
G02X184168I258J-306D01*
G03X186212I1022J1215D01*
G02X186727I257J-306D01*
G03X188771I1022J1215D01*
G02X189286I258J-306D01*
G03X191896Y126451I1022J1215D01*
G01Y129995D01*
G03X189622Y131426I-1588J0D01*
G02X189049Y131787I-173J361D01*
G01Y136586D01*
X180326Y145310D01*
Y161188D01*
X181059D01*
G02X181405Y160587I0J-400D01*
G03X184520I1558J-903D01*
G02X184866Y161188I346J201D01*
G01X185599D01*
Y159795D01*
X205800Y139594D01*
X212886D01*
X218457Y134023D01*
Y131787D01*
G02X217884Y131426I-400J0D01*
G03X216712Y131506I-686J-1432D01*
G02X216189Y131887I-122J381D01*
G01Y133207D01*
X211822Y137574D01*
G37*
G36*
G01X185120Y252946D02*
G02X184728Y253424I0J400D01*
G03X184371Y254899I-1765J353D01*
G02X184684Y255548I313J249D01*
G01X186921D01*
G02X187275Y254962I0J-400D01*
G03X187184Y253487I1593J-838D01*
G02X186810Y252946I-374J-141D01*
G01X185120D01*
G37*
G36*
G01X209221Y161188D02*
Y160781D01*
X213557Y156446D01*
X240991D01*
Y155076D01*
X243268D01*
X246676Y151668D01*
X279721D01*
X282506Y154453D01*
G02X283189Y154170I283J-283D01*
G01Y137363D01*
X269912Y124087D01*
X196923D01*
Y129737D01*
X199035Y131849D01*
X199484D01*
Y131763D01*
X204825D01*
Y131926D01*
X208421D01*
X210492Y129855D01*
Y126451D01*
G03X213102Y125236I1588J0D01*
G02X213617I258J-306D01*
G03X215661I1022J1215D01*
G02X216176I258J-306D01*
G03X218220I1022J1215D01*
G02X218735I258J-306D01*
G03X220779I1022J1215D01*
G02X221294I257J-306D01*
G03X223338I1022J1215D01*
G02X223853I258J-306D01*
G03X225897I1022J1215D01*
G02X226412I258J-306D01*
G03X228456I1022J1215D01*
G02X228971I258J-306D01*
G03X231015I1022J1215D01*
G02X231530I257J-306D01*
G03X233574I1022J1215D01*
G02X234089I258J-306D01*
G03X236133I1022J1215D01*
G02X236648I257J-306D01*
G03X238692I1022J1215D01*
G02X239207I258J-306D01*
G03X241817Y126451I1022J1215D01*
G01Y129995D01*
G03X239543Y131426I-1588J0D01*
G02X238971Y131787I-173J361D01*
G01Y138042D01*
X221685Y155327D01*
X213179D01*
X207885Y160621D01*
Y161188D01*
X209221D01*
G37*
G36*
G01X210896Y169122D02*
X229414D01*
X238806Y159729D01*
G02X238523Y159046I-283J-283D01*
G01X214634D01*
X211822Y161858D01*
Y168694D01*
X210950D01*
G02X210809Y169035I0J200D01*
G01X210896Y169122D01*
G37*
G36*
G01X241796Y160416D02*
X230491Y171722D01*
X221952D01*
Y179192D01*
X225392D01*
X225421Y179027D01*
G03X228568Y180502I1773J313D01*
G02X228874Y181160I305J258D01*
G01X232434D01*
X240991Y172603D01*
Y170135D01*
X242645D01*
X244151Y168629D01*
G02X243868Y167946I-283J-283D01*
G01X240991D01*
Y167781D01*
G02X240476Y167398I-400J0D01*
G03Y163950I-518J-1724D01*
G02X240991Y163567I115J-383D01*
G01Y162605D01*
X242589D01*
X244095Y161099D01*
G02X243812Y160416I-283J-283D01*
G01X241796D01*
G37*
G36*
G01X246078Y170380D02*
X244265Y172192D01*
Y175475D01*
X241796D01*
X237978Y179294D01*
G02X238134Y179956I283J283D01*
G03X238807Y180362I-572J1707D01*
G01X240791D01*
X241178Y179975D01*
Y177507D01*
X244452D01*
Y182847D01*
X241984D01*
X241868Y182963D01*
X238807D01*
G03X235855Y182235I-1245J-1300D01*
G02X235193Y182079I-379J127D01*
G01X233511Y183761D01*
X221952D01*
Y189034D01*
X223095D01*
X225590Y186540D01*
X227183D01*
G03X229714Y189100I1245J1300D01*
G02Y189380I143J140D01*
G03Y191900I-1286J1260D01*
G02Y192180I143J140D01*
G03Y194700I-1286J1260D01*
G02Y194980I143J140D01*
G03X227183Y197540I-1286J1260D01*
G01X221952D01*
Y198485D01*
G02X222641Y198762I400J0D01*
G03Y201254I1299J1246D01*
G02X221952Y201531I-289J277D01*
G01Y202814D01*
X225440D01*
X240991Y187263D01*
Y185194D01*
X242893D01*
X245353Y182734D01*
X246690D01*
Y177507D01*
X249964D01*
Y178596D01*
G02X250642Y178884I400J0D01*
G03Y181471I1252J1294D01*
G02X249964Y181758I-278J287D01*
G01Y182734D01*
X283189D01*
Y173974D01*
X279594Y170380D01*
X249777D01*
Y170784D01*
G02X250334Y171151I400J0D01*
G03Y174459I710J1654D01*
G02X249777Y174827I-158J368D01*
G01Y175475D01*
X246503D01*
Y170380D01*
X246078D01*
G37*
G36*
G01X240991Y205369D02*
G02X240308Y205086I-400J0D01*
G01X237185Y208209D01*
Y212093D01*
X237864D01*
G02X238264Y211684I0J-400D01*
G03X241478Y210530I1800J-41D01*
G02X242192Y210282I314J-248D01*
G01Y208088D01*
X245689D01*
G02X245971Y207405I0J-400D01*
G01X244160Y205593D01*
X240991D01*
Y205369D01*
G37*
G36*
G01X249777Y199864D02*
Y205593D01*
X248803D01*
G02X248520Y206276I0J400D01*
G01X249535Y207291D01*
G02X250218Y207023I283J-283D01*
G03X253749Y207579I1799J65D01*
G02X254134Y208088I385J109D01*
G01X255997D01*
Y215200D01*
X250066D01*
Y211499D01*
X248806Y210239D01*
G02X248123Y210522I-283J283D01*
G01Y215200D01*
X242192D01*
Y213005D01*
G02X241478Y212758I-400J0D01*
G03X238980Y213081I-1414J-1114D01*
G02X238340Y213401I-241J319D01*
G01Y215367D01*
X235871D01*
X234752Y216486D01*
X235871Y217605D01*
X238340D01*
Y220879D01*
X236970D01*
Y226007D01*
X240027Y229064D01*
X241424D01*
Y227694D01*
X243857D01*
Y225042D01*
X242192D01*
Y217930D01*
X248123D01*
Y225042D01*
X246458D01*
Y228806D01*
X244698Y230566D01*
Y231403D01*
G02X245354Y231710I400J0D01*
G03X246531Y231293I1152J1383D01*
G02X246936Y230893I5J-400D01*
G01Y227694D01*
X249417D01*
G02X249752Y227076I0J-400D01*
G03X250066Y224751I1510J-980D01*
G01Y217930D01*
X255997D01*
Y225042D01*
X253363D01*
G02X252981Y225561I0J400D01*
G03X250728Y227815I-1719J535D01*
G02X250210Y228197I-119J382D01*
G01Y233034D01*
X248315D01*
X248302Y233220D01*
G03X248178Y233762I-1796J-127D01*
G02X248549Y234310I371J149D01*
G01X260273D01*
X262329Y236366D01*
G02X263012Y236083I283J-283D01*
G01Y233792D01*
X262625D01*
Y226680D01*
X263307D01*
Y223891D01*
X262625D01*
Y216903D01*
G02X262254Y216504I-400J0D01*
G03X262272Y212911I131J-1795D01*
G01X262348Y212907D01*
X262625Y212630D01*
Y207763D01*
X264299D01*
G02X264582Y207080I0J-400D01*
G01X257366Y199864D01*
X249777D01*
G37*
G36*
G01X283189Y161246D02*
Y158813D01*
X278644Y154268D01*
X247753D01*
X247629Y154393D01*
G02X247912Y155076I283J283D01*
G01X249777D01*
Y155858D01*
G02X250382Y156201I400J0D01*
G03Y159291I924J1545D01*
G02X249777Y159634I-205J343D01*
G01Y160390D01*
X281367D01*
X282506Y161528D01*
G02X283189Y161246I283J-283D01*
G37*
G36*
G01X246503Y156484D02*
G02X245820Y156202I-400J0D01*
G01X244265Y157757D01*
Y160447D01*
G02X244606Y160588I200J0D01*
G01X244804Y160390D01*
X246503D01*
Y156484D01*
G37*
G36*
G01X283189Y169331D02*
Y165889D01*
X280290Y162990D01*
X249777D01*
Y163260D01*
G02X250337Y163626I400J0D01*
G03Y166925I721J1650D01*
G02X249777Y167292I-160J367D01*
G01Y167779D01*
X280672D01*
X282506Y169613D01*
G02X283189Y169331I283J-283D01*
G37*
G36*
G01X253518Y192433D02*
X253492Y192602D01*
G03X250456Y193613I-1779J-278D01*
G02X249777Y193899I-279J286D01*
G01Y197264D01*
X258443D01*
X268942Y207763D01*
X271410D01*
Y211826D01*
G02X272093Y212109I400J0D01*
G01X285621Y198581D01*
X292451D01*
G02X292734Y197898I0J-400D01*
G01X287269Y192433D01*
X253518D01*
G37*
G36*
G01X300768Y237466D02*
X300586Y237648D01*
G02X300728Y237989I141J141D01*
G01X302493D01*
Y243530D01*
X302509Y243568D01*
G03X299203I-1653J713D01*
G01X299220Y243530D01*
Y239980D01*
G02X298537Y239698I-400J0D01*
G01X297387Y240847D01*
X297379Y240915D01*
G03X296981Y241894I-2034J-255D01*
G01Y243330D01*
X296745D01*
Y246617D01*
X289239Y254123D01*
X262338D01*
X257422Y259039D01*
G02X257705Y259722I283J283D01*
G01X267794D01*
X271485Y256030D01*
X283895D01*
Y255952D01*
X292385D01*
Y256030D01*
X296175D01*
X296197Y256025D01*
G03X296663Y255972I467J1996D01*
G01X302552D01*
X302571Y255968D01*
G03X302953Y255932I382J2014D01*
G01X308613D01*
Y250826D01*
X314938D01*
Y250844D01*
X322116D01*
G03X322620Y250906I0J2050D01*
G01X322644Y250912D01*
X325968D01*
Y251344D01*
X328270D01*
G02X328552Y250661I0J-400D01*
G01X321993Y244101D01*
X317387D01*
Y239240D01*
X315612Y237466D01*
X312688D01*
Y244101D01*
X310507D01*
G02X310114Y244576I0J400D01*
G03X306576I-1769J334D01*
G02X306182Y244101I-393J-74D01*
G01X304001D01*
Y237466D01*
X300768D01*
G37*
G36*
G01X294847Y291765D02*
X294492Y292119D01*
G02X294775Y292802I283J283D01*
G01X301464D01*
Y291765D01*
X294847D01*
G37*
G36*
G01X307208Y233365D02*
X317311D01*
X321722Y237777D01*
X326074D01*
Y242383D01*
X326142Y242451D01*
G02X326483Y242310I141J-141D01*
G01Y237989D01*
X326570D01*
Y235357D01*
X323529Y232316D01*
X321414D01*
Y228674D01*
X319867Y227127D01*
X317149D01*
Y227522D01*
G02X317653Y227908I400J0D01*
G03Y231383I472J1737D01*
G02X317149Y231769I-105J386D01*
G01Y232316D01*
X313875D01*
Y228775D01*
G02X313192Y228492I-400J0D01*
G01X312052Y229632D01*
X312049Y229711D01*
G03X311637Y230880I-2049J-66D01*
G01Y232316D01*
X308363D01*
Y231696D01*
X306504D01*
G02X306221Y232379I0J400D01*
G01X307208Y233365D01*
G37*
%LPC*%
G75*
G54D43*
X117394Y224822D03*
X223695Y164101D03*
X236748Y173352D03*
G54D44*
X153154Y127888D03*
X202155D03*
%LPD*%
G75*
G54D10*
X23622Y23622D03*
Y370079D03*
X104252Y347175D03*
X112539Y46467D03*
X289449Y347175D03*
X297736Y46467D03*
X370079Y23622D03*
Y370079D03*
G54D11*
X16474Y49305D03*
Y69305D03*
Y89305D03*
Y119154D03*
Y139154D03*
Y170020D03*
Y190020D03*
Y307120D03*
Y327120D03*
Y347120D03*
X46748Y16415D03*
X66748D03*
X86748D03*
X326161D03*
X346161D03*
X376537Y225453D03*
Y245453D03*
Y276935D03*
Y296935D03*
Y316935D03*
G54D20*
X131417Y342175D03*
X139705Y51466D03*
X142323Y342175D03*
X136870Y352175D03*
X145158Y41466D03*
X150610Y51466D03*
X147776Y352175D03*
X156063Y41466D03*
X153228Y342175D03*
X158681Y352175D03*
X166968Y41466D03*
X161516Y51466D03*
X164134Y342175D03*
X172421Y51466D03*
X175039Y342175D03*
X169587Y352175D03*
X177874Y41466D03*
X183327Y51466D03*
X180492Y352175D03*
X188780Y41466D03*
X185945Y342175D03*
X191398Y352175D03*
X199685Y41466D03*
X194232Y51466D03*
X196850Y342175D03*
X205138Y51466D03*
X207756Y342175D03*
X202303Y352175D03*
X210591Y41466D03*
X216043Y51466D03*
X213209Y352175D03*
X221496Y41466D03*
X218661Y342175D03*
X224114Y352175D03*
X232402Y41466D03*
X226949Y51466D03*
X229567Y342175D03*
X237854Y51466D03*
X240472Y342175D03*
X235020Y352175D03*
X243307Y41466D03*
X248760Y51466D03*
X245925Y352175D03*
X254213Y41466D03*
X251378Y342175D03*
X256831Y352175D03*
X265118Y41466D03*
X259665Y51466D03*
X262284Y342175D03*
X270571Y51466D03*
G54D30*
X307284Y292284D03*
G54D12*
X18278Y216919D03*
Y221919D03*
Y226919D03*
Y231919D03*
X39537Y221919D03*
Y216919D03*
Y231919D03*
Y226919D03*
X82480Y102028D03*
Y107028D03*
Y112028D03*
Y117028D03*
X103740Y107028D03*
Y102028D03*
Y117028D03*
Y112028D03*
X181476Y279006D03*
Y284006D03*
Y289006D03*
Y294006D03*
X202736Y279006D03*
Y289006D03*
Y284006D03*
Y294006D03*
X316152Y204222D03*
Y209222D03*
Y214222D03*
Y219222D03*
X322116Y252894D03*
Y257894D03*
Y262894D03*
Y267894D03*
X337411Y204222D03*
Y214222D03*
Y209222D03*
Y219222D03*
X343376Y252894D03*
Y262894D03*
Y257894D03*
Y267894D03*
G54D21*
X147530Y164941D03*
X145561D03*
X143592D03*
X141624D03*
Y249193D03*
X143592D03*
X145561D03*
X147530D03*
X157372Y164941D03*
X155404D03*
X153435D03*
X151466D03*
X149498D03*
Y249193D03*
X151466D03*
X153435D03*
X155404D03*
X157372D03*
X165246Y164941D03*
X163278D03*
X161309D03*
X159340D03*
Y249193D03*
X161309D03*
X163278D03*
X165246D03*
X173120Y164941D03*
X171152D03*
X169183D03*
X167214D03*
Y249193D03*
X169183D03*
X171152D03*
X173120D03*
X180994Y164941D03*
X179026D03*
X177057D03*
X175088D03*
Y249193D03*
X177057D03*
X179026D03*
X180994D03*
X188868Y164941D03*
X186900D03*
X184931D03*
X182963D03*
Y249193D03*
X184931D03*
X186900D03*
X188868D03*
X196742Y164941D03*
X194774D03*
X192805D03*
X190837D03*
Y249193D03*
X192805D03*
X194774D03*
X196742D03*
X206585Y164941D03*
X204616D03*
X202648D03*
X200679D03*
X198711D03*
Y249193D03*
X200679D03*
X202648D03*
X204616D03*
X206585D03*
X210522Y164941D03*
X208553D03*
Y249193D03*
X210522D03*
G54D31*
X311776Y255169D03*
Y268555D03*
G54D22*
X164718Y105684D03*
X162159D03*
Y128223D03*
X164718D03*
X172395Y105684D03*
X169836D03*
X167277D03*
Y128223D03*
X169836D03*
X172395D03*
X180072Y105684D03*
X177513D03*
X174954D03*
Y128223D03*
X177513D03*
X180072D03*
X190308Y105684D03*
X187749D03*
X185190D03*
X182631D03*
Y128223D03*
X185190D03*
X187749D03*
X190308D03*
X214639Y105684D03*
X212080D03*
Y128223D03*
X214639D03*
X222316Y105684D03*
X219757D03*
X217198D03*
Y128223D03*
X219757D03*
X222316D03*
X229993Y105684D03*
X227434D03*
X224875D03*
Y128223D03*
X227434D03*
X229993D03*
X237670Y105684D03*
X235111D03*
X232552D03*
Y128223D03*
X235111D03*
X237670D03*
X240229Y105684D03*
Y128223D03*
G54D13*
G01X110994Y119040D02*
X109035Y117081D01*
X103793D01*
X103740Y117028D01*
G01X118415Y111988D02*
X111364Y119040D01*
X110994D01*
G01X117923Y121348D02*
X111339D01*
X110994Y121004D01*
G01Y119040D02*
Y121004D01*
G01X153262Y115287D02*
X128576D01*
X122515Y121348D01*
X117923D01*
G01X153262Y115287D02*
X201939D01*
G01D02*
X293794D01*
X338620Y160113D01*
X338679D01*
G01X347155Y207897D02*
X362022Y193031D01*
Y183456D01*
X338679Y160113D01*
X22413Y216796D03*
X22630Y221919D03*
X22442Y226919D03*
X22738Y231919D03*
X26206Y267961D03*
Y286385D03*
X34315Y249924D03*
X34849Y226919D03*
X41482Y271774D03*
X34887Y282700D03*
X44548Y57411D03*
X44876Y90325D03*
X48287Y96743D03*
X44049Y141191D03*
X44274Y184321D03*
X50774Y215874D03*
X48838Y228169D03*
X46939Y317288D03*
Y325821D03*
X53484Y44654D03*
X52734Y84643D03*
X52665Y103880D03*
X52162Y108071D03*
X53792Y134338D03*
X53469Y189356D03*
X54272Y297087D03*
X55085Y313159D03*
X58017Y322451D03*
X65896Y44972D03*
X60045Y52420D03*
X63804Y108071D03*
X59956Y211817D03*
X65541Y309573D03*
Y326447D03*
X71148Y57477D03*
X75496Y98966D03*
X67542Y155095D03*
X71053Y298423D03*
X73873Y313159D03*
X82002Y284842D03*
X76381Y322391D03*
X88151Y62534D03*
X84052Y92788D03*
X87032Y101580D03*
X86010Y160357D03*
X86397Y165375D03*
X84075Y173175D03*
Y182740D03*
Y193030D03*
Y202429D03*
Y212375D03*
X92110Y218012D03*
X84075Y221421D03*
X91996Y227598D03*
X84075Y230946D03*
Y240491D03*
Y249997D03*
Y259593D03*
X85004Y278134D03*
X91532Y297910D03*
X84154Y316666D03*
X84144Y326429D03*
X98859Y48337D03*
X98998Y107028D03*
X92659Y169834D03*
X93992Y179781D03*
X93149Y188973D03*
X92326Y208348D03*
X92263Y237185D03*
X92539Y246772D03*
X92551Y256358D03*
X94384Y265502D03*
X106372Y126516D03*
X100513Y159744D03*
X108437Y266981D03*
X105389Y267256D03*
X102181Y267315D03*
X110433Y75398D03*
X109311Y87821D03*
X115934Y96393D03*
X110833Y147211D03*
X113983Y172618D03*
X116336Y195103D03*
Y192303D03*
X117923Y131045D03*
X117741Y182461D03*
X122000Y175283D03*
X117394Y224822D03*
X127214Y64709D03*
X126577Y175557D03*
X128312Y219862D03*
X138616Y146064D03*
X139076Y159744D03*
X138621Y174587D03*
X140456Y200177D03*
X140348Y221831D03*
X140243Y253903D03*
X146392Y118443D03*
X145525Y145652D03*
X148705Y152900D03*
X141963Y256309D03*
X153595Y141326D03*
X150871Y143149D03*
X163278Y160494D03*
X160465Y188973D03*
X160152Y243863D03*
X163278Y254085D03*
X166786Y142923D03*
X167274Y284967D03*
X179663Y242266D03*
X176566Y279006D03*
X179862Y274197D03*
X183144Y46126D03*
X182963Y159685D03*
X188868Y254124D03*
X182963Y253777D03*
X187093Y310522D03*
X191933Y175939D03*
X198189Y274159D03*
X198987Y310423D03*
X205124Y181663D03*
X204467Y242364D03*
X206985Y255670D03*
X212482Y231673D03*
X208553Y253350D03*
X209664Y303337D03*
X223695Y164101D03*
X218324Y248851D03*
X218189Y279857D03*
X216741Y305266D03*
X227193Y179340D03*
X228428Y190640D03*
Y187840D03*
Y196240D03*
Y193440D03*
X228271Y206104D03*
X223940Y200008D03*
X230571Y220647D03*
X228271Y231309D03*
X224616Y226635D03*
X228012Y251738D03*
X239958Y165674D03*
X236748Y173352D03*
X237562Y181663D03*
X232730Y207280D03*
X240064Y211644D03*
X235038Y247435D03*
X232735Y250483D03*
X246506Y233093D03*
X251306Y157746D03*
X251058Y165276D03*
X251045Y172805D03*
X251894Y180177D03*
X251191Y187724D03*
X251713Y192324D03*
X252017Y207088D03*
X251262Y226096D03*
X248573Y245935D03*
X254803Y293830D03*
X262385Y214708D03*
X265639Y104458D03*
X271447Y234021D03*
X269774Y236474D03*
X282449Y269301D03*
X284140Y281535D03*
X291942Y166414D03*
X293111Y219282D03*
X292938Y230532D03*
X293293Y263534D03*
X293355Y267244D03*
X303553Y64854D03*
X300856Y244281D03*
X310633Y209222D03*
X308344Y244909D03*
X307293Y268555D03*
X320982Y209222D03*
X318125Y229646D03*
X317399Y257894D03*
X317303Y262894D03*
X327209Y257894D03*
X326447Y262894D03*
X332338Y210181D03*
X332087Y214222D03*
X342500Y210328D03*
X343190Y214222D03*
X346534Y229941D03*
X339931Y244894D03*
X339206Y262894D03*
X351124Y166414D03*
X361424Y204624D03*
X370332Y201145D03*
G54D32*
X338848Y282795D03*
Y302087D03*
G54D23*
X245158Y211644D03*
Y221486D03*
X253032Y211644D03*
Y221486D03*
G54D14*
X31718Y249924D03*
X26206D03*
X31718Y260849D03*
X26206D03*
X31718Y271774D03*
X26206D03*
X31718Y282700D03*
X26206D03*
X46939Y294577D03*
Y303868D03*
Y313159D03*
Y322451D03*
X58996Y48337D03*
X53484D03*
X55236Y98966D03*
Y108071D03*
X56752Y211988D03*
X51240D03*
Y220079D03*
X56752D03*
Y228169D03*
X51240D03*
X52451Y294577D03*
Y303868D03*
Y313159D03*
Y322451D03*
X65896Y48337D03*
X60748Y98966D03*
X66388D03*
Y108071D03*
X60748D03*
X66388Y117175D03*
X65541Y294577D03*
Y303868D03*
Y313159D03*
Y322451D03*
X71408Y48337D03*
X71900Y98966D03*
Y108071D03*
Y117175D03*
X71053Y294577D03*
Y303868D03*
Y313159D03*
Y322451D03*
X78307Y48337D03*
X82825Y159842D03*
X77313D03*
X90718Y48337D03*
X83819D03*
X88346Y159744D03*
X89587Y170079D03*
X84075D03*
X89587Y179665D03*
X84075D03*
X89587Y189252D03*
X84075D03*
X89587Y198839D03*
X84075D03*
X89587Y208425D03*
X84075D03*
X89587Y218012D03*
X84075D03*
X89587Y227598D03*
X84075D03*
X89587Y237185D03*
X84075D03*
X89587Y246772D03*
X84075D03*
X89587Y256358D03*
X84075D03*
X89665Y294577D03*
X84154D03*
X89665Y303868D03*
X84154D03*
X89665Y313159D03*
X84154D03*
X89656Y322441D03*
X84144D03*
X96230Y48337D03*
X99124Y71929D03*
X93858Y159744D03*
X104636Y71929D03*
X110433D03*
X115945D03*
X112825Y105945D03*
X112904Y111988D03*
X121742Y71929D03*
X118337Y105945D03*
X118415Y111988D03*
X127254Y71929D03*
X167274Y288189D03*
X172785D03*
X167500Y294380D03*
X173012D03*
X179941Y264331D03*
X179862Y270856D03*
X179144Y301171D03*
X179301Y310522D03*
X185453Y264331D03*
X185374Y270856D03*
X184656Y301171D03*
X184813Y310522D03*
X198346Y264331D03*
X198189Y270856D03*
X196663Y301220D03*
X191152D03*
X196762Y310423D03*
X191250D03*
X203858Y264331D03*
X203701Y270856D03*
X212785Y289793D03*
X212677Y283583D03*
X218297Y289793D03*
X218189Y283583D03*
X242628Y157746D03*
X248140D03*
X242628Y165276D03*
X248140D03*
X242628Y172805D03*
X248140D03*
X242815Y180177D03*
X248327D03*
X242628Y187864D03*
X248140D03*
X242628Y195394D03*
X248140D03*
Y202923D03*
X242628D03*
X243061Y230364D03*
Y242185D03*
X248573Y230364D03*
Y242185D03*
X264262Y210433D03*
Y240138D03*
X269774Y210433D03*
Y240138D03*
X291919Y74754D03*
X297431D03*
X296831Y208199D03*
X295345Y240659D03*
X302342Y208199D03*
X300856Y240659D03*
X304449Y306437D03*
X314065Y175216D03*
X308553D03*
X310000Y229646D03*
X309961Y306437D03*
X315512Y229646D03*
X317461Y359980D03*
X323051Y229646D03*
X328563D03*
X328120Y240659D03*
X322972Y359980D03*
X333632Y240659D03*
X345443D03*
X339931D03*
X370787Y204941D03*
X365276D03*
X376998Y204961D03*
X382510D03*
G54D33*
G01X84075Y170079D02*
Y173175D01*
G01Y179665D02*
Y182740D01*
G01Y189252D02*
Y193030D01*
G01Y198839D02*
Y202429D01*
G01Y208425D02*
Y212375D01*
G01Y218012D02*
Y221421D01*
G01Y227598D02*
Y230946D01*
G01Y237185D02*
Y240491D01*
G01Y246772D02*
Y249997D01*
G01Y256358D02*
Y259593D01*
G01X167274Y288189D02*
Y284967D01*
G54D15*
X44681Y350565D03*
X43658Y369878D03*
Y377752D03*
Y385626D03*
X52555Y350565D03*
X60429D03*
X68795Y369878D03*
Y377752D03*
Y385626D03*
X80325Y138839D03*
Y148839D03*
X90325Y138839D03*
Y148839D03*
X306034Y187293D03*
X316034D03*
X314197Y343965D03*
X324039D03*
X328679Y44211D03*
Y74211D03*
X326034Y187293D03*
X338679Y44211D03*
Y74211D03*
X336034Y187293D03*
X333882Y343965D03*
X346034Y187293D03*
X343724Y343965D03*
X356034Y187293D03*
X353567Y343965D03*
X363410D03*
X373252D03*
X378679Y44211D03*
Y74211D03*
X383094Y343965D03*
G54D24*
X254803Y298927D03*
X272520D03*
G54D34*
G01X56752Y220079D02*
Y217727D01*
X51240Y212215D01*
Y211988D01*
G01X56752Y228169D02*
Y220079D01*
G01X188868Y249193D02*
Y254124D01*
G01X243061Y242185D02*
Y245400D01*
X232861Y255600D01*
X207621D01*
X207399Y255378D01*
X207182D01*
Y255670D01*
X206985D01*
G01X235669Y213730D02*
X235935Y213465D01*
Y207691D01*
X240703Y202923D01*
X242628D01*
G01X245158Y211644D02*
X240064D01*
G01X248573Y230364D02*
Y232039D01*
X247519Y233093D01*
X246506D01*
G01X248140Y202923D02*
X249456D01*
X252017Y205484D01*
Y207088D01*
G01X253032Y221486D02*
Y224326D01*
X251262Y226096D01*
G01X254803Y298927D02*
Y293830D01*
G01X264262Y240138D02*
Y230532D01*
X264557Y230236D01*
G01D02*
Y220335D01*
G01X271447Y230236D02*
Y234021D01*
G01X269774Y240138D02*
Y236474D01*
G01X328563Y229646D02*
X335118D01*
X335413Y229941D01*
G01X342303D02*
X346534D01*
G01X365276Y204941D02*
Y220285D01*
X370444Y225453D01*
X376537D01*
G01X370787Y204941D02*
Y201600D01*
X370332Y201145D01*
G01X376998Y204961D02*
Y217186D01*
X382709Y222896D01*
Y239282D01*
X376537Y245453D01*
G54D25*
X264557Y220335D03*
Y230236D03*
X271447Y220335D03*
Y230236D03*
X296260Y219282D03*
Y230532D03*
X303150Y219282D03*
Y230532D03*
X335413Y229941D03*
X342303D03*
G54D16*
X48287Y57411D03*
Y62923D03*
Y71112D03*
Y76624D03*
Y84813D03*
Y90325D03*
Y98514D03*
Y104026D03*
Y114803D03*
Y120315D03*
Y141191D03*
Y135679D03*
Y164744D03*
Y170256D03*
Y184321D03*
Y189833D03*
X87612Y83077D03*
Y77565D03*
X87720Y87277D03*
Y92788D03*
X110994Y121004D03*
Y126516D03*
X153154Y105603D03*
Y111114D03*
X153154Y127888D03*
Y133400D03*
X167698Y75350D03*
X173950Y75399D03*
X167698Y80862D03*
X173950Y80911D03*
X179842Y75502D03*
Y81014D03*
X207313Y75502D03*
Y81014D03*
X202155Y106436D03*
Y111948D03*
Y127888D03*
Y133400D03*
X213908Y75502D03*
Y81014D03*
X213159Y303337D03*
Y297825D03*
X220502Y75502D03*
Y81014D03*
X227097Y75502D03*
Y81014D03*
X240285Y75502D03*
X233691D03*
X240285Y81014D03*
X233691D03*
X235669Y213730D03*
Y219242D03*
X246880Y75502D03*
Y81014D03*
X253474Y75502D03*
Y81014D03*
X287844Y287047D03*
Y281535D03*
Y296575D03*
Y291063D03*
X296663Y263534D03*
Y258022D03*
Y267244D03*
Y272756D03*
X302953Y263494D03*
Y257982D03*
X302835Y272707D03*
Y267195D03*
X327677Y284528D03*
Y290039D03*
G54D35*
G01X13764Y23622D02*
X23622D01*
G01X16474Y49305D02*
X20968D01*
X48287Y76624D01*
G01X16474Y69305D02*
X32780D01*
X48287Y84813D01*
G01X16474Y89305D02*
X33567D01*
X48287Y104026D01*
G01Y120315D02*
X17636D01*
X16474Y119154D01*
G01X48287Y135679D02*
X19949D01*
X16474Y139154D01*
G01X48287Y170256D02*
X16711D01*
X16474Y170020D01*
G01X48287Y189833D02*
X16661D01*
X16474Y190020D01*
G01X14226Y221919D02*
X18278D01*
G01X14226Y216919D02*
X18278D01*
G01X14226Y226919D02*
X18278D01*
G01X14226Y231919D02*
X18278D01*
G01X26206Y260849D02*
X23608Y263447D01*
Y298488D01*
X16474Y305622D01*
Y307120D01*
G01X31718Y271774D02*
X29067Y274425D01*
Y319745D01*
X21691Y327120D01*
X16474D01*
G01X31718Y282700D02*
Y332813D01*
X17410Y347120D01*
X16474D01*
G01X13764Y370079D02*
X23622D01*
G01Y13764D02*
Y23622D01*
G01D02*
Y33480D01*
G01Y23622D02*
X33480D01*
G01X22413Y214795D02*
Y216796D01*
G01X18278Y214738D02*
Y216919D01*
G01D02*
X18401Y216796D01*
X22413D01*
G01X18278Y221919D02*
X22630D01*
G01Y219919D02*
Y221919D01*
G01D02*
Y223920D01*
G01Y221919D02*
X24630D01*
G01X22413Y216796D02*
Y218796D01*
G01Y216796D02*
X24413D01*
G01X18278Y219738D02*
Y221919D01*
G01D02*
Y224101D01*
G01Y216919D02*
Y219101D01*
G01Y226919D02*
X22442D01*
G01X22738Y229919D02*
Y231919D01*
G01X22442Y224919D02*
Y226919D01*
G01D02*
Y228920D01*
G01Y226919D02*
X24442D01*
G01X18278Y229738D02*
Y231919D01*
G01Y224738D02*
Y226919D01*
G01D02*
Y229101D01*
G01Y231919D02*
X22738D01*
G01D02*
Y233920D01*
G01Y231919D02*
X24738D01*
G01X18278D02*
Y234101D01*
G01X23622Y360220D02*
Y370079D01*
G01D02*
Y379937D01*
G01Y370079D02*
X33480D01*
G01X32849Y226919D02*
X34849D01*
G01X67542Y233828D02*
X60731Y240639D01*
X34535D01*
X26206Y248969D01*
Y249924D01*
G01X31718Y247054D02*
Y249924D01*
G01Y260849D02*
Y258313D01*
X26352Y252948D01*
Y250071D01*
X26206Y249924D01*
G01X31718D02*
X34315D01*
G01X31718D02*
Y252794D01*
G01X29881Y249924D02*
X31718D01*
G01Y271774D02*
X41482D01*
G01X26206D02*
Y267961D01*
G01Y271774D02*
Y274645D01*
G01Y271774D02*
X28043D01*
G01X26206Y265961D02*
Y267961D01*
G01D02*
X28206D01*
G01X31718Y282700D02*
X34887D01*
G01X26206D02*
Y286385D01*
G01X42048Y141191D02*
X44049D01*
G01X42274Y184321D02*
X44274D01*
G01X39537Y221919D02*
X49400D01*
X51240Y220079D01*
G01X56752Y211988D02*
Y210926D01*
X54645Y208818D01*
X48961D01*
X40860Y216919D01*
X39537D01*
G01Y226919D02*
X34849D01*
G01Y224919D02*
Y226919D01*
G01D02*
Y228920D01*
G01X39537Y224738D02*
Y226919D01*
G01D02*
Y229101D01*
G01Y226919D02*
X43589D01*
G01X39537Y231919D02*
X39741Y232123D01*
X54978D01*
X56752Y230349D01*
Y228169D01*
G01X34315Y247924D02*
Y249924D01*
G01D02*
Y251924D01*
G01Y249924D02*
X36315D01*
G01X58996Y48337D02*
Y28663D01*
X46748Y16415D01*
G01X48287Y57411D02*
X44548D01*
G01Y55411D02*
Y57411D01*
G01D02*
Y59412D01*
G01X42548Y57411D02*
X44548D01*
G01X48287Y55575D02*
Y57411D01*
G01D02*
Y59248D01*
G01Y57411D02*
X51158D01*
G01X48287Y71112D02*
Y62923D01*
G01X52734Y84643D02*
X48458D01*
X48287Y84813D01*
G01Y90325D02*
X44876D01*
G01Y88325D02*
Y90325D01*
G01D02*
Y92325D01*
G01X42876Y90325D02*
X44876D01*
G01X48287Y88488D02*
Y90325D01*
G01D02*
Y92162D01*
G01Y90325D02*
X51158D01*
G01X48287Y98514D02*
Y96743D01*
G01Y94743D02*
Y96743D01*
G01X46287D02*
X48287D01*
G01D02*
X50288D01*
G01X48287Y98514D02*
Y100351D01*
G01X45417Y98514D02*
X48287D01*
G01D02*
X51158D01*
G01X52665Y103880D02*
X48433D01*
X48287Y104026D01*
G01X50162Y108071D02*
X52162D01*
G01X67542Y155095D02*
X57134Y144687D01*
Y118766D01*
X53171Y114803D01*
X48287D01*
G01X53792Y134338D02*
X52322Y135808D01*
X48417D01*
X48287Y135679D01*
G01X44049Y139191D02*
Y141191D01*
G01X48287Y139354D02*
Y141191D01*
G01D02*
X44049D01*
G01D02*
Y143191D01*
G01X48287Y141191D02*
Y143028D01*
G01Y141191D02*
X51158D01*
G01X48287Y164744D02*
X63224D01*
X67542Y160426D01*
G01X53469Y189356D02*
X52992Y189833D01*
X48287D01*
G01Y184321D02*
X44274D01*
G01Y182321D02*
Y184321D01*
G01D02*
Y186321D01*
G01X48287Y182484D02*
Y184321D01*
G01D02*
Y186158D01*
G01Y184321D02*
X51158D01*
G01X51240Y228169D02*
X48838D01*
G01Y226169D02*
Y228169D01*
G01D02*
Y230170D01*
G01X46837Y228169D02*
X48838D01*
G01X65758Y288149D02*
X51097D01*
X46939Y292308D01*
Y294577D01*
G01Y303868D02*
X44306Y306501D01*
Y350190D01*
X44681Y350565D01*
G01X46939Y313159D02*
Y317288D01*
G01Y310289D02*
Y313159D01*
G01D02*
X48776D01*
G01X52555Y350565D02*
Y348721D01*
X49627Y345793D01*
Y315983D01*
X52451Y313159D01*
G01X46939Y322451D02*
Y325821D01*
G01X43658Y369878D02*
X50493D01*
X64682Y355689D01*
Y330144D01*
X62808Y328271D01*
Y306601D01*
X65541Y303868D01*
G01X43658Y377752D02*
X47911D01*
X68051Y357612D01*
Y316161D01*
X71053Y313159D01*
G01Y322451D02*
Y359863D01*
X45290Y385626D01*
X43658D01*
G01X53484Y48337D02*
Y44654D01*
G01Y42654D02*
Y44654D01*
G01X51484D02*
X53484D01*
G01D02*
X55484D01*
G01X53484Y48337D02*
Y51207D01*
G01X51648Y48337D02*
X53484D01*
G01D02*
X55321D01*
G01X60748Y108071D02*
Y104478D01*
X55236Y98966D01*
G01Y108071D02*
X52162D01*
G01D02*
Y110071D01*
G01X55236Y105201D02*
Y108071D01*
G01D02*
Y110941D01*
G01Y108071D02*
X57073D01*
G01X59956Y211817D02*
X59731Y212043D01*
X56806D01*
X56752Y211988D01*
G01X50774Y215874D02*
X51019Y216119D01*
Y219857D01*
X51240Y220079D01*
G01X56752Y228169D02*
X62410D01*
X67542Y223038D01*
G01X51240Y225299D02*
Y228169D01*
G01D02*
X53077D01*
G01X54272Y295087D02*
Y297087D01*
G01D02*
Y299087D01*
G01Y297087D02*
X56273D01*
G01X52451Y291706D02*
Y294577D01*
G01X50614D02*
X52451D01*
G01D02*
X54288D01*
G01X52451Y313159D02*
X55085D01*
G01X52451Y322451D02*
Y339640D01*
X60429Y347618D01*
Y350565D01*
G01X52451Y322451D02*
X58017D01*
G01X71408Y48337D02*
Y21075D01*
X66748Y16415D01*
G01X60045Y52420D02*
X59143Y51519D01*
Y48484D01*
X58996Y48337D01*
G01X65896D02*
Y44972D01*
G01Y42971D02*
Y44972D01*
G01X63896D02*
X65896D01*
G01D02*
X67896D01*
G01X65896Y48337D02*
Y51207D01*
G01X64059Y48337D02*
X65896D01*
G01D02*
X67732D01*
G01X66388Y108071D02*
X63804D01*
G01Y106071D02*
Y108071D01*
G01D02*
Y110071D01*
G01X66388Y105201D02*
Y108071D01*
G01D02*
Y110941D01*
G01Y108071D02*
X68225D01*
G01X133947Y186398D02*
X115106D01*
G03X111570Y184933I0J-5000D01*
G01X106962Y180324D01*
G03X105497Y176789I3536J-3536D01*
G01Y142525D01*
G02X104033Y138989I-5000J0D01*
G01X94251Y129208D01*
G02X90715Y127743I-3536J3536D01*
G01X78060D01*
G03X74525Y126278I0J-5000D01*
G01X66388Y118142D01*
Y117175D01*
G01X65541Y294577D02*
Y288366D01*
X65758Y288149D01*
G01D02*
X67542Y286366D01*
G01X65541Y294577D02*
Y297164D01*
X71053Y302676D01*
Y303868D01*
G01X65541Y313159D02*
Y309573D01*
G01Y307573D02*
Y309573D01*
G01D02*
X67542D01*
G01X65541Y313159D02*
Y316030D01*
G01Y313159D02*
X67378D01*
G01X65541Y322451D02*
Y326447D01*
G01X71148Y57477D02*
Y48596D01*
X71408Y48337D01*
G01X71900Y96096D02*
Y98966D01*
G01D02*
Y101837D01*
G01X70063Y98966D02*
X71900D01*
G01X77313Y159842D02*
X72289D01*
X67542Y155095D01*
G01Y169334D02*
X73716Y175508D01*
X86779D01*
X89587Y172701D01*
Y170079D01*
G01X67542Y178115D02*
X74467Y185040D01*
X86815D01*
X89587Y187812D01*
Y189252D01*
G01X67542Y189003D02*
X73869Y195330D01*
X87412D01*
X89587Y197504D01*
Y198839D01*
G01X67542Y199822D02*
X72449Y204729D01*
X86502D01*
X89587Y207814D01*
Y208425D01*
G01X67542Y210161D02*
X72056Y214675D01*
X87265D01*
X89587Y216996D01*
Y218012D01*
G01X67542Y218295D02*
X72967Y223721D01*
X87657D01*
X89587Y225650D01*
Y227598D01*
G01X67542Y227693D02*
X73095Y233246D01*
X86638D01*
X89587Y236195D01*
Y237185D01*
G01Y246772D02*
Y246053D01*
X87053Y243520D01*
X71736D01*
X67542Y239326D01*
G01X84154Y294577D02*
X75753D01*
X67542Y286366D01*
G01X71053Y294577D02*
Y298423D01*
G01X69216Y294577D02*
X71053D01*
G01D02*
X72890D01*
G01X71053Y313159D02*
X73873D01*
G01X76381Y322391D02*
X71113D01*
X71053Y322451D01*
G01X68795Y369878D02*
X81605Y357069D01*
Y306417D01*
X84154Y303868D01*
G01X68795Y377752D02*
X87024Y359523D01*
Y315801D01*
X89665Y313159D01*
G01X89656Y322441D02*
Y365770D01*
X69800Y385626D01*
X68795D01*
G01X78307Y48337D02*
Y24856D01*
X86748Y16415D01*
G01X82052Y92788D02*
X84052D01*
G01X82480Y99846D02*
Y102028D01*
G01X75496Y96966D02*
Y98966D01*
G01D02*
Y100967D01*
G01Y98966D02*
X77496D01*
G01X82480Y102028D02*
Y104209D01*
G01X78429Y102028D02*
X82480D01*
G01X82825Y159842D02*
X85544Y157123D01*
Y144058D01*
X80325Y138839D01*
G01Y144886D02*
Y148839D01*
G01D02*
Y152792D01*
G01X76372Y148839D02*
X80325D01*
G01X86397Y165375D02*
X85985D01*
X82825Y162214D01*
Y159842D01*
G01X82075Y173175D02*
X84075D01*
G01X82238Y170079D02*
X84075D01*
G01X82238Y179665D02*
X84075D01*
G01X82075Y182740D02*
X84075D01*
G01X82238Y189252D02*
X84075D01*
G01X82075Y193030D02*
X84075D01*
G01X82075Y202429D02*
X84075D01*
G01X82238Y198839D02*
X84075D01*
G01X82075Y212375D02*
X84075D01*
G01X82238Y208425D02*
X84075D01*
G01X82075Y221421D02*
X84075D01*
G01X82238Y218012D02*
X84075D01*
G01X82075Y230946D02*
X84075D01*
G01X82238Y227598D02*
X84075D01*
G01X82238Y237185D02*
X84075D01*
G01X82075Y240491D02*
X84075D01*
G01X82238Y246772D02*
X84075D01*
G01X82075Y249997D02*
X84075D01*
G01X82075Y259593D02*
X84075D01*
G01X82238Y256358D02*
X84075D01*
G01X82002Y284842D02*
X99881Y266963D01*
Y220120D01*
X113918Y206083D01*
X133947D01*
G01X90718Y48337D02*
X83819D01*
G01X87612Y83077D02*
X93146D01*
X96240Y86171D01*
G01X87720Y87277D02*
Y87837D01*
X93972Y94090D01*
X104486D01*
X106788Y96393D01*
X115934D01*
G01X96240Y86171D02*
X88825D01*
X87720Y87277D01*
G01X84052Y90788D02*
Y92788D01*
G01X87720Y90952D02*
Y92788D01*
G01D02*
X84052D01*
G01X87032Y99580D02*
Y101580D01*
G01X84052Y92788D02*
Y94789D01*
G01X87720Y92788D02*
Y94625D01*
G01X87032Y101580D02*
Y103580D01*
G01Y101580D02*
X89032D01*
G01X93858Y159744D02*
X95148Y158454D01*
Y144295D01*
X90325Y139472D01*
Y138839D01*
G01Y144886D02*
Y148839D01*
G01D02*
Y152792D01*
G01X88346Y156874D02*
Y159744D01*
G01D02*
X87079D01*
X86465Y160357D01*
X86010D01*
G01X88346Y159744D02*
Y162614D01*
G01Y159744D02*
X90183D01*
G01X92659Y169834D02*
X89831D01*
X89587Y170079D01*
G01X84075Y173175D02*
X86075D01*
G01X84075Y167208D02*
Y170079D01*
G01D02*
X85912D01*
G01X84075Y179665D02*
X85912D01*
G01X93992Y179781D02*
X89702D01*
X89587Y179665D01*
G01X93149Y188973D02*
X89865D01*
X89587Y189252D01*
G01X84075Y182740D02*
X86075D01*
G01X84075Y189252D02*
X85912D01*
G01X133947Y198209D02*
X90217D01*
X89587Y198839D01*
G01X84075Y193030D02*
X86075D01*
G01X84075Y202429D02*
X86075D01*
G01X84075Y198839D02*
X85912D01*
G01X92326Y208348D02*
X89664D01*
X89587Y208425D01*
G01X84075Y212375D02*
X86075D01*
G01X84075Y208425D02*
X85912D01*
G01X89587Y218012D02*
X92110D01*
G01X84075Y221421D02*
X86075D01*
G01X84075Y218012D02*
X85912D01*
G01X89587Y227598D02*
X91996D01*
G01X84075Y230946D02*
X86075D01*
G01X84075Y227598D02*
X85912D01*
G01X89587Y237185D02*
X92263D01*
G01X84075D02*
X85912D01*
G01X89587Y246772D02*
X92539D01*
G01X84075Y240491D02*
X86075D01*
G01X84075Y246772D02*
X85912D01*
G01X84075Y249997D02*
Y251998D01*
G01Y249997D02*
X86075D01*
G01X84075Y253488D02*
Y256358D01*
G01Y259593D02*
Y261593D01*
G01Y259593D02*
X86075D01*
G01X84075Y256358D02*
X85912D01*
G01X89587D02*
X92551D01*
G01X85004Y278134D02*
X97941Y265197D01*
Y219276D01*
X113103Y204114D01*
X133947D01*
G01X91532Y295910D02*
Y297910D01*
G01X89665Y291706D02*
Y294577D01*
G01X87828D02*
X89665D01*
G01D02*
X91502D01*
G01X91532Y297910D02*
X93532D01*
G01X133947Y227736D02*
X125603D01*
X110740Y242599D01*
Y305946D01*
X103282Y313404D01*
X89910D01*
X89665Y313159D01*
G01X84154D02*
Y316666D01*
G01Y310289D02*
Y313159D01*
G01D02*
X85990D01*
G01X89656Y322441D02*
X89667Y322430D01*
X97187D01*
X112709Y306908D01*
Y243414D01*
X126418Y229705D01*
X133947D01*
G01X84144Y322441D02*
Y326429D01*
G01X96230Y48337D02*
X98859D01*
G01Y46336D02*
Y48337D01*
G01D02*
Y50337D01*
G01Y48337D02*
X100860D01*
G01X96230Y45466D02*
Y48337D01*
G01D02*
Y51207D01*
G01X94394Y48337D02*
X96230D01*
G01X99124Y71929D02*
Y70472D01*
X101770Y67826D01*
X113288D01*
X115945Y70483D01*
Y71929D01*
G01X98998Y105027D02*
Y107028D01*
G01D02*
Y109028D01*
G01X96998Y107028D02*
X98998D01*
G01X93858Y159744D02*
X100513D01*
G01X94384Y265502D02*
X96141Y263744D01*
Y218530D01*
X96275Y218396D01*
Y218158D01*
X112287Y202146D01*
X133947D01*
G01X94394Y347175D02*
X104252D01*
G01X102681Y46467D02*
X112539D01*
G01X104636Y71929D02*
Y81772D01*
X105295Y82431D01*
G01Y89912D02*
X106124D01*
X106764Y89272D01*
Y88961D01*
X107404Y88321D01*
X108178D01*
X108679Y87821D01*
X109311D01*
G01X105295Y87730D02*
Y89912D01*
G01D02*
Y92093D01*
G01X102327Y89912D02*
X105295D01*
G01X103740Y104846D02*
Y107028D01*
G01D02*
Y109209D01*
G01Y107028D02*
X107792D01*
G01X106372Y124516D02*
Y126516D01*
G01D02*
Y128516D01*
G01X104371Y126516D02*
X106372D01*
G01X102181Y267315D02*
Y220604D01*
X114734Y208051D01*
X133947D01*
G01X108437Y266981D02*
Y263820D01*
X106118Y261501D01*
Y222235D01*
X116364Y211988D01*
X133947D01*
G01X105389Y267256D02*
Y263572D01*
X104149Y262332D01*
Y221420D01*
X115549Y210020D01*
X133947D01*
G01X104252Y337317D02*
Y347175D01*
G01D02*
Y357034D01*
G01Y347175D02*
X114110D01*
G01X112539Y36608D02*
Y46467D01*
G01D02*
Y56325D01*
G01Y46467D02*
X122398D01*
G01X121742Y71929D02*
X115945D01*
G01X110433D02*
Y75398D01*
G01X108596Y71929D02*
X110433D01*
G01D02*
X112270D01*
G01X110433Y75398D02*
Y77398D01*
G01X108433Y75398D02*
X110433D01*
G01D02*
X112433D01*
G01X109311Y85821D02*
Y87821D01*
G01D02*
Y89821D01*
G01Y87821D02*
X111311D01*
G01X115923Y131045D02*
X117923D01*
G01X114167Y128238D02*
X117923D01*
G01X110994Y124679D02*
Y126516D01*
G01D02*
Y128352D01*
G01Y126516D02*
X113864D01*
G01X133947Y172618D02*
X113983D01*
G01X133947Y194272D02*
X119467D01*
X118636Y195103D01*
X116336D01*
G01X133947Y192303D02*
X116336D01*
G01X115394Y224822D02*
X117394D01*
G01X117923Y131045D02*
Y133046D01*
G01Y131045D02*
X119923D01*
G01X117923Y126106D02*
Y128238D01*
G01D02*
X121679D01*
G01X133947Y178524D02*
X125241D01*
X122000Y175283D01*
G01X133947Y182461D02*
X117741D01*
G01X117394Y222822D02*
Y224822D01*
G01D02*
Y226822D01*
G01Y224822D02*
X119394D01*
G01X133947Y176555D02*
X127575D01*
X126577Y175557D01*
G01X133947Y219862D02*
X128312D01*
G01X139705Y46923D02*
Y51466D01*
G01D02*
Y56010D01*
G01Y51466D02*
X144248D01*
G01X138616Y146064D02*
X149498Y156945D01*
Y164941D01*
G01X141624D02*
Y161097D01*
X140272Y159744D01*
X139076D01*
G01X138621Y172586D02*
Y174587D01*
G01X133947D02*
X138621D01*
G01D02*
Y176587D01*
G01Y174587D02*
X140621D01*
G01X140456Y198177D02*
Y200177D01*
G01X133947D02*
X140456D01*
G01D02*
Y202177D01*
G01Y200177D02*
X142456D01*
G01X133947Y221831D02*
X140348D01*
G01Y219830D02*
Y221831D01*
G01D02*
Y223831D01*
G01Y221831D02*
X142348D01*
G01X133947Y239547D02*
X209020D01*
X218324Y248851D01*
G01X140243Y253903D02*
X141624Y252522D01*
Y249193D01*
G01X146067Y51466D02*
X150610D01*
G01X145525Y145652D02*
X153435Y153562D01*
Y164941D01*
G01X148705Y152900D02*
X151466Y155661D01*
Y164941D01*
G01X143592Y249193D02*
Y254680D01*
X141963Y256309D01*
G01X148685Y342175D02*
X153228D01*
G01X147776Y347632D02*
Y352175D01*
G01D02*
Y356719D01*
G01X143232Y352175D02*
X147776D01*
G01D02*
X152319D01*
G01X150610Y46923D02*
Y51466D01*
G01X156972D02*
X161516D01*
G01X150610D02*
Y56010D01*
G01Y51466D02*
X155154D01*
G01X153154Y103766D02*
Y105603D01*
G01D02*
Y107439D01*
G01X150284Y105603D02*
X153154D01*
G01D02*
X156025D01*
G01X153154Y126051D02*
Y127888D01*
G01D02*
Y129725D01*
G01X150284Y127888D02*
X153154D01*
G01D02*
X156025D01*
G01X155404Y164941D02*
Y147681D01*
X150871Y143149D01*
G01X153595Y141326D02*
X157372Y145102D01*
Y164941D01*
G01X153228Y337632D02*
Y342175D01*
G01D02*
X157772D01*
G01X154138Y352175D02*
X158681D01*
G01X161516Y46923D02*
Y51466D01*
G01D02*
Y56010D01*
G01X164718Y102124D02*
Y105684D01*
G01D02*
Y109243D01*
G01X165246Y164941D02*
Y184193D01*
X160465Y188973D01*
G01X163278Y164941D02*
Y160494D01*
G01Y158494D02*
Y160494D01*
G01X161277D02*
X163278D01*
G01D02*
X165278D01*
G01X161309Y249193D02*
Y245021D01*
X160152Y243863D01*
G01X163278Y249193D02*
Y254085D01*
G01D02*
Y256085D01*
G01X161277Y254085D02*
X163278D01*
G01D02*
X165278D01*
G01X165273Y284967D02*
X167274D01*
G01X165437Y288189D02*
X167274D01*
G01X158681Y347632D02*
Y352175D01*
G01D02*
Y356719D01*
G01Y352175D02*
X163225D01*
G01X167277Y124664D02*
Y128223D01*
G01D02*
Y131782D01*
G01X171152Y164941D02*
Y147288D01*
X166786Y142923D01*
G01X167274Y282967D02*
Y284967D01*
G01D02*
X169274D01*
G01X167274Y288189D02*
X169110D01*
G01X185190Y128223D02*
Y136061D01*
X177057Y144194D01*
Y164941D01*
G01X182631Y128223D02*
Y136075D01*
X175088Y143617D01*
Y164941D01*
G01X187749Y128223D02*
Y136048D01*
X179026Y144771D01*
Y164941D01*
G01X180962Y159685D02*
X182963D01*
G01X180994Y249193D02*
Y243597D01*
X179663Y242266D01*
G01X180962Y253777D02*
X182963D01*
G01X202648Y249193D02*
Y252778D01*
X198577Y256848D01*
X189804D01*
X189800Y256852D01*
X187936D01*
X187933Y256848D01*
X184818D01*
X179941Y261725D01*
Y264331D01*
G01X179862Y267986D02*
Y270856D01*
G01X178025D02*
X179862D01*
G01D02*
X181699D01*
G01X179862Y274197D02*
Y276197D01*
G01X177862Y274197D02*
X179862D01*
G01D02*
X181862D01*
G01X176566Y277006D02*
Y279006D01*
G01D02*
Y281006D01*
G01X174566Y279006D02*
X176566D01*
G01X181476Y276825D02*
Y279006D01*
G01D02*
Y281187D01*
G01Y279006D02*
X185528D01*
G01X187749Y102124D02*
Y105684D01*
G01D02*
Y109243D01*
G01X190308Y102124D02*
Y105684D01*
G01D02*
Y109243D01*
G01Y105684D02*
X192096D01*
G01X190308Y124664D02*
Y128223D01*
G01D02*
Y131782D01*
G01Y128223D02*
X192096D01*
G01X219757D02*
Y134562D01*
X213424Y140895D01*
X206339D01*
X186900Y160334D01*
Y164941D01*
G01X191933Y175939D02*
X187160D01*
X184931Y173710D01*
Y164941D01*
G01X182963D02*
Y159685D01*
G01Y157684D02*
Y159685D01*
G01D02*
X184963D01*
G01X182963Y249193D02*
Y253777D01*
G01D02*
Y255778D01*
G01Y253777D02*
X184963D01*
G01X187093Y308522D02*
Y310522D01*
G01D02*
Y312522D01*
G01Y310522D02*
X189093D01*
G01X184813Y307651D02*
Y310522D01*
G01D02*
Y313392D01*
G01X182976Y310522D02*
X184813D01*
G01X192805Y164941D02*
Y157555D01*
X207662Y142698D01*
X214610D01*
X222316Y134992D01*
Y128223D01*
G01X194774Y164941D02*
Y158252D01*
X208149Y144876D01*
X215264D01*
X224875Y135265D01*
Y128223D01*
G01X196742Y164941D02*
Y159027D01*
X209093Y146676D01*
X216227D01*
X227434Y135470D01*
Y128223D01*
G01X198711Y164941D02*
Y175249D01*
X205124Y181663D01*
G01X198346Y264331D02*
Y260470D01*
X204616Y254200D01*
Y249193D01*
G01X198189Y267986D02*
Y270856D01*
G01X196352D02*
X198189D01*
G01D02*
X200026D01*
G01X198189Y274159D02*
Y276159D01*
G01X196189Y274159D02*
X198189D01*
G01D02*
X200189D01*
G01X196762Y307553D02*
Y310423D01*
G01D02*
Y313294D01*
G01X194925Y310423D02*
X196762D01*
G01X202155Y104599D02*
Y106436D01*
G01D02*
Y108272D01*
G01X199284Y106436D02*
X202155D01*
G01D02*
X205025D01*
G01X202155Y126051D02*
Y127888D01*
G01D02*
Y129725D01*
G01X199284Y127888D02*
X202155D01*
G01D02*
X205025D01*
G01X200679Y164941D02*
Y158001D01*
X210204Y148476D01*
X217720D01*
X229993Y136203D01*
Y128223D01*
G01X232552D02*
Y136839D01*
X218965Y150426D01*
X210910D01*
X202648Y158688D01*
Y164941D01*
G01X235111Y128223D02*
Y137200D01*
X220086Y152226D01*
X211775D01*
X204616Y159385D01*
Y164941D01*
G01X206585D02*
Y160082D01*
X212640Y154027D01*
X221147D01*
X237670Y137503D01*
Y128223D01*
G01X204467Y242364D02*
Y242560D01*
X206585Y244677D01*
Y249193D01*
G01X198987Y308423D02*
Y310423D01*
G01D02*
Y312423D01*
G01Y310423D02*
X200988D01*
G01X214639Y102124D02*
Y105684D01*
G01D02*
Y109243D01*
G01X208553Y164941D02*
Y168618D01*
X210357Y170422D01*
X229952D01*
X242628Y157746D01*
G01D02*
X214095D01*
X210522Y161320D01*
Y164941D01*
G01X212482Y229673D02*
Y231673D01*
G01X218199D02*
X212482D01*
G01D02*
Y233673D01*
G01X210482Y231673D02*
X212482D01*
G01X208553Y249193D02*
Y253350D01*
G01X214741Y305266D02*
X216741D01*
G01X209664Y301336D02*
Y303337D01*
G01D02*
Y305337D01*
G01X207664Y303337D02*
X209664D01*
G01X213159Y301500D02*
Y303337D01*
G01D02*
Y305173D01*
G01Y303337D02*
X216030D01*
G01X217198Y124664D02*
Y128223D01*
G01D02*
Y131782D01*
G01X221695Y164101D02*
X223695D01*
G01X218199Y180492D02*
X226041D01*
X227193Y179340D01*
G01X218199Y182461D02*
X232972D01*
X242628Y172805D01*
G01X218199Y190335D02*
X223634D01*
X226128Y187840D01*
X228428D01*
G01X218199Y192303D02*
X224465D01*
X226128Y190640D01*
X228428D01*
G01X218199Y196240D02*
X228428D01*
G01X218199Y194272D02*
X225297D01*
X226128Y193440D01*
X228428D01*
G01X242628Y187864D02*
X242228D01*
X225978Y204114D01*
X218199D01*
G01X223940Y200008D02*
X221802Y202146D01*
X218199D01*
G01X232730Y207280D02*
X232211D01*
X227503Y211988D01*
X218199D01*
G01X230571Y220647D02*
Y220502D01*
X229931Y219862D01*
X218199D01*
G01Y217894D02*
X234321D01*
X235669Y219242D01*
G01X218199Y215925D02*
X233474D01*
X235669Y213730D01*
G01X218199Y229705D02*
X226537D01*
X228136Y231304D01*
X228271Y231309D01*
G01X224616Y226635D02*
X223536Y227714D01*
X222476D01*
Y227736D01*
X218199D01*
G01Y235610D02*
X259734D01*
X264262Y240138D01*
G01X228271Y231309D02*
X228075D01*
X225743Y233642D01*
X218199D01*
G01X232735Y250483D02*
X221799Y239547D01*
X218199D01*
G01X235038Y247435D02*
X225182Y237579D01*
X218199D01*
G01X228012Y251738D02*
Y248305D01*
X221222Y241516D01*
X218199D01*
G01X218189Y277857D02*
Y279857D01*
G01X216189D02*
X218189D01*
G01D02*
X220189D01*
G01X216352Y283583D02*
X218189D01*
G01D02*
X220026D01*
G01X216741Y303266D02*
Y305266D01*
G01D02*
Y307266D01*
G01X221211Y303134D02*
Y305266D01*
G01D02*
Y307398D01*
G01Y305266D02*
X224967D01*
G01X223695Y162101D02*
Y164101D01*
G01D02*
Y166101D01*
G01Y164101D02*
X225695D01*
G01X228271Y206104D02*
X239149Y195226D01*
X242460D01*
X242628Y195394D01*
G01X223940Y200008D02*
Y202008D01*
G01Y200008D02*
X225940D01*
G01X237670Y102124D02*
Y105684D01*
G01D02*
Y109243D01*
G01X236748Y171352D02*
Y173352D01*
G01D02*
Y175352D01*
G01X234748Y173352D02*
X236748D01*
G01D02*
X238749D01*
G01X237562Y181663D02*
X241330D01*
X242815Y180177D01*
G01X238064Y211644D02*
X240064D01*
G01X243061Y230364D02*
X239488D01*
X235669Y226545D01*
Y219242D01*
G01X240229Y102124D02*
Y105684D01*
G01D02*
Y109243D01*
G01Y105684D02*
X242017D01*
G01X240229Y124664D02*
Y128223D01*
G01D02*
Y131782D01*
G01Y128223D02*
X242017D01*
G01X242628Y157746D02*
Y157555D01*
X247215Y152968D01*
X279182D01*
X285239Y159025D01*
G01X239958Y165674D02*
X242230D01*
X242628Y165276D01*
G01X285239Y166100D02*
X280829Y161690D01*
X245343D01*
X242628Y164405D01*
Y165276D01*
G01X246303Y157746D02*
X248140D01*
G01X285239Y174185D02*
X280133Y169079D01*
X245539D01*
X242628Y171990D01*
Y172805D01*
G01X246303D02*
X248140D01*
G01X246490Y180177D02*
X248327D01*
G01X285239Y185984D02*
X284974D01*
X283024Y184034D01*
X245892D01*
X242628Y187298D01*
Y187864D01*
G01X269774Y210433D02*
X257904Y198564D01*
X245927D01*
X242757Y195394D01*
X242628D01*
G01X288868Y191132D02*
X253774D01*
X252666Y190024D01*
X250760D01*
X249652Y191132D01*
X245536D01*
X242628Y194040D01*
Y195394D01*
G01X253032Y211644D02*
X252049D01*
X243328Y202923D01*
X242628D01*
G01X245158Y207888D02*
Y211644D01*
G01D02*
Y215400D01*
G01Y211644D02*
X248323D01*
G01X240064Y209644D02*
Y211644D01*
G01D02*
Y213644D01*
G01X245158Y221486D02*
Y228268D01*
X243061Y230364D01*
G01X246736D02*
X248573D01*
G01X246573Y245935D02*
X248573D01*
G01X246736Y242185D02*
X248573D01*
G01X240472Y337632D02*
Y342175D01*
G01D02*
Y346719D01*
G01Y342175D02*
X245016D01*
G01X254213Y36923D02*
Y41466D01*
G01D02*
Y46010D01*
G01X249669Y41466D02*
X254213D01*
G01D02*
X258756D01*
G01X251306Y155746D02*
Y157746D01*
G01X248140Y154876D02*
Y157746D01*
G01D02*
X251306D01*
G01X248140Y165276D02*
X251058D01*
G01D02*
Y167276D01*
G01Y165276D02*
X253058D01*
G01X251306Y157746D02*
Y159746D01*
G01Y157746D02*
X253306D01*
G01X248140Y172805D02*
X251045D01*
G01D02*
Y174805D01*
G01Y172805D02*
X253045D01*
G01X248140D02*
Y175675D01*
G01X248327Y180177D02*
X251894D01*
G01Y178177D02*
Y180177D01*
G01D02*
Y182177D01*
G01Y180177D02*
X253894D01*
G01X248327Y177307D02*
Y180177D01*
G01X251191Y187724D02*
X251172D01*
X251032Y187864D01*
X248140D01*
G01X251713Y192324D02*
Y193677D01*
X249997Y195394D01*
G01D02*
X248140D01*
G01X253032Y217730D02*
Y221486D01*
G01X249866D02*
X253032D01*
G01D02*
X256197D01*
G01X251262Y226096D02*
Y228096D01*
G01X249262Y226096D02*
X251262D01*
G01D02*
X253262D01*
G01X248573Y227494D02*
Y230364D01*
G01D02*
X250410D01*
G01X248573Y239315D02*
Y242185D01*
G01D02*
Y245935D01*
G01D02*
Y247935D01*
G01Y245935D02*
X250573D01*
G01X248573Y242185D02*
X250410D01*
G01X254803Y291830D02*
Y293830D01*
G01X252803D02*
X254803D01*
G01D02*
X256803D01*
G01X254803Y298927D02*
Y303077D01*
G01X250653Y298927D02*
X254803D01*
G01D02*
X258953D01*
G01X260575Y41466D02*
X265118D01*
G01X264262Y210433D02*
Y212832D01*
X262385Y214708D01*
G01X265118Y36923D02*
Y41466D01*
G01D02*
Y46010D01*
G01Y41466D02*
X269662D01*
G01X291919Y74754D02*
Y78178D01*
X265639Y104458D01*
G01X296892Y199156D02*
X296167Y199881D01*
X286160D01*
X271447Y214594D01*
Y220335D01*
G01Y226480D02*
Y230236D01*
G01X269315D02*
X271447D01*
G01D02*
X273579D01*
G01X267773Y236474D02*
X269774D01*
G01D02*
X271774D01*
G01X269447Y234021D02*
X271447D01*
G01D02*
X273447D01*
G01X269774Y240138D02*
Y243008D01*
G01X267937Y240138D02*
X269774D01*
G01D02*
X271610D01*
G01X280448Y269301D02*
X282449D01*
G01X287878Y46467D02*
X297736D01*
G01X314065Y175216D02*
Y172622D01*
X311905Y170461D01*
X295235D01*
X289276Y176420D01*
Y176439D01*
X285239Y180477D01*
G01X282449Y267301D02*
Y269301D01*
G01D02*
Y271301D01*
G01X288140Y266972D02*
Y269301D01*
G01D02*
Y271630D01*
G01Y269301D02*
X292585D01*
G01X284140Y279535D02*
Y281535D01*
G01X287844Y279699D02*
Y281535D01*
G01X284140D02*
Y283536D01*
G01X282140Y281535D02*
X284140D01*
G01X287844D02*
Y283372D01*
G01Y281535D02*
X290715D01*
G01X296831Y205328D02*
Y208199D01*
G01D02*
Y211069D01*
G01X294994Y208199D02*
X296831D01*
G01D02*
X298668D01*
G01X296260Y219282D02*
X293111D01*
G01Y217281D02*
Y219282D01*
G01D02*
Y221282D01*
G01X291111Y219282D02*
X293111D01*
G01X296260Y215525D02*
Y219282D01*
G01D02*
Y223038D01*
G01Y219282D02*
X298392D01*
G01X296260Y230532D02*
X292938D01*
G01Y228531D02*
Y230532D01*
G01D02*
Y232532D01*
G01X290938Y230532D02*
X292938D01*
G01X296260Y226775D02*
Y230532D01*
G01D02*
Y234288D01*
G01Y230532D02*
X298392D01*
G01X293293Y261533D02*
Y263534D01*
G01X291293D02*
X293293D01*
G01X296663Y261697D02*
Y263534D01*
G01D02*
Y265370D01*
G01Y263534D02*
X299534D01*
G01X296663Y265407D02*
Y267244D01*
G01D02*
Y269081D01*
G01Y267244D02*
X299534D01*
G01X289449Y337317D02*
Y347175D01*
G01D02*
Y357034D01*
G01Y347175D02*
X299307D01*
G01X297736Y36608D02*
Y46467D01*
G01D02*
Y56325D01*
G01Y46467D02*
X307595D01*
G01X303553Y62854D02*
Y64854D01*
G01X301553D02*
X303553D01*
G01D02*
X305553D01*
G01X303553Y67677D02*
Y69858D01*
G01X300584Y67677D02*
X303553D01*
G01D02*
X306522D01*
G01X302080Y187293D02*
X306034D01*
G01X300856Y244281D02*
Y246281D01*
G01X298856Y244281D02*
X300856D01*
G01D02*
X302856D01*
G01X303801Y240939D02*
X308344D01*
G01X299020Y240659D02*
X300856D01*
G01D02*
X302693D01*
G01X301264Y292284D02*
X307284D01*
G01X308553Y172346D02*
Y175216D01*
G01X306034Y187293D02*
X308553Y184774D01*
Y175216D01*
G01X306716D02*
X308553D01*
G01D02*
X310390D01*
G01X314065D02*
Y185325D01*
X316034Y187293D01*
G01X306034Y183340D02*
Y187293D01*
G01D02*
Y191246D01*
G01Y187293D02*
X309986D01*
G01X310633Y207222D02*
Y209222D01*
G01D02*
Y211223D01*
G01X308633Y209222D02*
X310633D01*
G01X313675Y229646D02*
X315512D01*
G01X308344Y244909D02*
Y246909D01*
G01X306344Y244909D02*
X308344D01*
G01D02*
X310345D01*
G01X308344Y240939D02*
X312888D01*
G01X311776Y264012D02*
Y268555D01*
G01D02*
Y273099D01*
G01Y268555D02*
X315138D01*
G01X307284Y292284D02*
Y300075D01*
G01Y292284D02*
X313303D01*
G01X310244Y343965D02*
X314197D01*
G01X320982Y207222D02*
Y209222D01*
G01D02*
Y211223D01*
G01Y209222D02*
X322982D01*
G01X316152Y207041D02*
Y209222D01*
G01D02*
Y211404D01*
G01X318125Y227646D02*
Y229646D01*
G01D02*
Y231646D01*
G01Y229646D02*
X320126D01*
G01X315512D02*
Y232516D01*
G01X317399Y255894D02*
Y257894D01*
G01X322116Y255712D02*
Y257894D01*
G01X317303Y260893D02*
Y262894D01*
G01D02*
Y264894D01*
G01X315303Y262894D02*
X317303D01*
G01X317399Y257894D02*
Y259894D01*
G01X322116Y260712D02*
Y262894D01*
G01D02*
Y265075D01*
G01Y257894D02*
Y260075D01*
G01X317126Y282602D02*
Y284784D01*
G01D02*
Y286965D01*
G01X317461Y347228D02*
X314197Y343965D01*
G01Y340012D02*
Y343965D01*
G01D02*
Y347918D01*
G01Y343965D02*
X318150D01*
G01X317461Y359980D02*
Y347228D01*
G01Y359980D02*
Y362851D01*
G01X315624Y359980D02*
X317461D01*
G01D02*
X319297D01*
G01X330087Y214222D02*
X332087D01*
G01X330337Y210181D02*
X332338D01*
G01X327209Y255894D02*
Y257894D01*
G01X326447Y260893D02*
Y262894D01*
G01D02*
Y264894D01*
G01X327209Y257894D02*
Y259894D01*
G01X327677Y282691D02*
Y284528D01*
G01D02*
Y286364D01*
G01X324807Y284528D02*
X327677D01*
G01X332087Y212222D02*
Y214222D01*
G01D02*
Y216223D01*
G01X332338Y208180D02*
Y210181D01*
G01D02*
Y212181D01*
G01X337411Y207041D02*
Y209222D01*
G01D02*
Y211404D01*
G01Y212041D02*
Y214222D01*
G01D02*
Y216404D01*
G01X337931Y244894D02*
X339931D01*
G01X338094Y240659D02*
X339931D01*
G01X337206Y262894D02*
X339206D01*
G01X333321Y282795D02*
X338848D01*
G01X342500Y208327D02*
Y210328D01*
G01D02*
X344500D01*
G01X346534Y227941D02*
Y229941D01*
G01D02*
Y231941D01*
G01Y229941D02*
X348534D01*
G01X342303Y226185D02*
Y229941D01*
G01D02*
Y233697D01*
G01X340171Y229941D02*
X342303D01*
G01X339931Y244894D02*
Y246894D01*
G01Y244894D02*
X341931D01*
G01X339931Y240659D02*
X341768D01*
G01X339206Y260893D02*
Y262894D01*
G01D02*
Y264894D01*
G01X343376Y260712D02*
Y262894D01*
G01D02*
Y265075D01*
G01X338848Y277267D02*
Y282795D01*
G01D02*
Y288323D01*
G01Y282795D02*
X344376D01*
G01X360220Y23622D02*
X370079D01*
G01X361424Y204624D02*
X364959D01*
X365276Y204941D01*
G01X360220Y370079D02*
X370079D01*
G01Y13764D02*
Y23622D01*
G01D02*
Y33480D01*
G01Y23622D02*
X379937D01*
G01X370332Y199145D02*
Y201145D01*
G01X368332D02*
X370332D01*
G01D02*
X372332D01*
G01X370787Y204941D02*
Y207811D01*
G01X368951Y204941D02*
X370787D01*
G01D02*
X372624D01*
G01X370079Y360220D02*
Y370079D01*
G01D02*
Y379937D01*
G01Y370079D02*
X379937D01*
G54D17*
X96240Y86171D03*
X105295Y82431D03*
Y89912D03*
X303553Y67677D03*
Y75158D03*
X312608Y71417D03*
G54D26*
X264242Y264459D03*
Y288868D03*
G54D36*
G01X167698Y75350D02*
X167478Y75130D01*
Y49419D01*
X175430Y41466D01*
X177874D01*
G01X183144Y46126D02*
X182907Y46364D01*
X180477D01*
X177831Y49010D01*
Y55860D01*
X173950Y59741D01*
Y75399D01*
G01X182631Y105684D02*
X182623Y105676D01*
Y95011D01*
X173950Y86338D01*
Y80911D01*
G01X180072Y105684D02*
Y97115D01*
X167698Y84740D01*
Y80862D01*
G01X221496Y41466D02*
X216530Y46432D01*
X191512D01*
X188660Y49284D01*
Y55899D01*
X179842Y64716D01*
Y75502D01*
G01X185190Y105684D02*
Y93345D01*
X179842Y87997D01*
Y81014D01*
G01X207313Y75502D02*
Y64547D01*
X194232Y51466D01*
G01X213908Y75502D02*
Y60236D01*
X205138Y51466D01*
G01X202736Y294006D02*
X209341D01*
X213159Y297825D01*
G01X213908Y81014D02*
X213905Y81017D01*
Y87524D01*
X219757Y93376D01*
Y105684D01*
G01X207313Y81014D02*
Y84714D01*
X217198Y94599D01*
Y105684D01*
G01X221211Y298376D02*
X220823Y297989D01*
X213323D01*
X213159Y297825D01*
G01Y303337D02*
X209664D01*
G01X220502Y75502D02*
Y55925D01*
X216043Y51466D01*
G01X222316Y105684D02*
Y82828D01*
X220502Y81014D01*
G01X221211Y298376D02*
X221274Y298439D01*
X228340D01*
X255349Y271431D01*
Y259132D01*
X261758Y252722D01*
X288659D01*
X295345Y246037D01*
Y240659D01*
G01X221211Y305266D02*
X216741D01*
G01X227097Y75502D02*
Y51614D01*
X226949Y51466D01*
G01X227434Y105684D02*
Y87271D01*
X233691Y81014D01*
G01X224875Y105684D02*
Y83235D01*
X227097Y81014D01*
G01X240285D02*
X229993Y91306D01*
Y105684D01*
G01X237854Y51466D02*
X237973Y51586D01*
Y68629D01*
X233691Y72912D01*
Y75502D01*
G01X246880Y81014D02*
X232552Y95342D01*
Y105684D01*
G01X253474Y81014D02*
X235111Y99377D01*
Y105684D01*
G01X248760Y51466D02*
X248871Y51578D01*
Y67326D01*
X240695Y75502D01*
X240285D01*
G01X259665Y51466D02*
Y64235D01*
X248398Y75502D01*
X246880D01*
G01X270571Y51466D02*
Y63276D01*
X258345Y75502D01*
X253474D01*
G01X297431Y74754D02*
X297835Y75158D01*
X303553D01*
G01Y67677D02*
Y64854D01*
G01X312608Y71417D02*
X322396D01*
X338679Y55134D01*
Y44211D01*
G54D18*
X117923Y121348D03*
Y128238D03*
X221211Y305266D03*
Y298376D03*
G54D27*
X288140Y258081D03*
Y269301D03*
G54D37*
G01X88151Y62534D02*
X87762Y62923D01*
X48287D01*
G01X52451Y303868D02*
Y300089D01*
X46939Y294577D01*
G01X52451D02*
Y295265D01*
X54272Y297087D01*
G01X60748Y98966D02*
X66388D01*
G01X71900Y108071D02*
Y105670D01*
X66388Y100158D01*
Y98966D01*
G01X67542Y155095D02*
Y141865D01*
X60748Y135071D01*
Y108071D01*
G01X71900Y98966D02*
X75496D01*
G01X82480Y107028D02*
X72943D01*
X71900Y108071D01*
G01X82480Y112028D02*
X77047D01*
X71900Y117175D01*
G01X67542Y286366D02*
Y239326D01*
G01X87032Y101580D02*
X86936D01*
X86488Y102028D01*
X82480D01*
G01Y117028D02*
X103740D01*
G01X90718Y48337D02*
X88151Y50904D01*
Y62534D01*
G01D02*
Y77026D01*
X87612Y77565D01*
G01X89665Y303868D02*
Y300089D01*
X84154Y294577D01*
G01X89665D02*
Y296044D01*
X91532Y297910D01*
G01X103740Y107028D02*
X98998D01*
G01X112904Y111988D02*
X112864Y112028D01*
X103740D01*
G01X110994Y126516D02*
X106372D01*
G01X112904Y111988D02*
Y106024D01*
X112825Y105945D01*
G01X118337D02*
Y101468D01*
G03X120533Y96164I7500J0D01*
G01X130995Y85702D01*
G02X133192Y80399I-5304J-5303D01*
G01Y49000D01*
G03X135388Y43697I7500J0D01*
G01X141824Y37261D01*
G03X147128Y35064I5303J5304D01*
G01X195079D01*
G03X199685Y39671I0J4606D01*
G01Y41466D01*
G01X117923Y128238D02*
Y131045D01*
G01X127214Y64709D02*
Y65719D01*
X127254Y65759D01*
Y71929D01*
G01X146392Y118443D02*
Y118460D01*
X149969Y122037D01*
G01X142267D02*
Y125479D01*
X150187Y133400D01*
X153154D01*
G01X153154Y111114D02*
X157935D01*
X162159Y106891D01*
Y105684D01*
G01X153154Y111114D02*
Y115179D01*
X153262Y115287D01*
G01X153515Y133760D02*
X153154Y133400D01*
G01X153515Y133760D02*
X153789Y133486D01*
X159926D01*
X162159Y131253D01*
Y128223D01*
G01X164718D02*
Y134398D01*
X161612Y137504D01*
X157259D01*
X153515Y133760D01*
G01X167500Y294380D02*
Y293474D01*
X172785Y288189D01*
G01X181476Y289006D02*
X173602D01*
X172785Y288189D01*
G01X173012Y294380D02*
X181102D01*
X181476Y294006D01*
G01X179862Y270856D02*
Y274197D01*
G01X181476Y279006D02*
X176566D01*
G01X185374Y270856D02*
X188425Y273907D01*
Y280643D01*
X185061Y284006D01*
X181476D01*
G01X184656Y301171D02*
Y297185D01*
X181476Y294006D01*
G01X179301Y310522D02*
Y301329D01*
X179144Y301171D01*
G01X179301Y310522D02*
Y314218D01*
G02X181498Y319521I7500J0D01*
G01X190226Y328250D01*
G02X195530Y330446I5303J-5304D01*
G01X230241D01*
G03X235033Y335238I0J4792D01*
G01Y341879D01*
G02X237230Y347182I7500J0D01*
G01X241020Y350972D01*
G02X243924Y352175I2904J-2904D01*
G01X245925D01*
G01X185374Y270856D02*
Y264409D01*
X185453Y264331D01*
G01X184813Y310522D02*
X187093D01*
G01X202155Y133400D02*
X198393D01*
X195373Y130379D01*
Y122497D01*
X194912Y122037D01*
G01X198189Y270856D02*
Y274159D01*
G01X196663Y301220D02*
Y291857D01*
X199514Y289006D01*
X202736D01*
G01X191250Y310423D02*
Y301319D01*
X191152Y301220D01*
G01X251378Y342175D02*
Y337158D01*
G02X249181Y331854I-7500J0D01*
G01X241816Y324489D01*
G02X236513Y322293I-5303J5304D01*
G01X202811D01*
G03X197508Y320096I0J-7500D01*
G01X192351Y314940D01*
G03X191250Y312281I2659J-2659D01*
G01Y310423D01*
G01X196762D02*
X198987D01*
G01X202155Y111948D02*
Y115072D01*
X201939Y115287D01*
G01X202155Y111948D02*
X202162Y111955D01*
X208015D01*
X212080Y107890D01*
Y105684D01*
G01X202574Y133819D02*
X202155Y133400D01*
G01X202574Y133819D02*
X202917Y133476D01*
X209063D01*
X212080Y130460D01*
Y128223D01*
G01X214639D02*
Y132565D01*
X211180Y136024D01*
X204779D01*
X202574Y133819D01*
G01X203701Y270856D02*
Y264488D01*
X203858Y264331D01*
G01X202736Y279006D02*
X203701Y278041D01*
Y270856D01*
G01X202736Y284006D02*
X212254D01*
X212677Y283583D01*
G01X202736Y289006D02*
X211998D01*
X212785Y289793D01*
G01X218297D02*
Y289203D01*
X212677Y283583D01*
G01X218189D02*
Y279857D01*
G01X291942Y166414D02*
X290198D01*
X285239Y171373D01*
G01X288140Y269301D02*
X282449D01*
G01X287844Y291063D02*
Y287047D01*
G01Y281535D02*
X284140D01*
G01X287844Y296575D02*
X294636Y289784D01*
X297441D01*
G01X302953Y263494D02*
X296703D01*
X296663Y263534D01*
G01D02*
X293293D01*
G01X297441Y284784D02*
Y273534D01*
X296663Y272756D01*
G01X302835Y272707D02*
X296713D01*
X296663Y272756D01*
G01Y267244D02*
X293355D01*
G01X304449Y306437D02*
Y303452D01*
X300780Y299784D01*
X297441D01*
G01X300856Y240659D02*
Y244281D01*
G01X302953Y257982D02*
X307044Y262073D01*
Y265189D01*
X305038Y267195D01*
X302835D01*
G01X308344Y240939D02*
Y244909D01*
G01X311776Y268555D02*
X307293D01*
G01X309961Y306437D02*
X310059Y306338D01*
X314786D01*
X317126Y303998D01*
Y299784D01*
G01X323051Y229646D02*
Y228119D01*
X320009Y225077D01*
G01X315512Y229646D02*
X318125D01*
G01X322116Y252894D02*
X328089D01*
X330291Y255095D01*
Y265040D01*
X327438Y267894D01*
X322116D01*
G01Y257894D02*
X327209D01*
G01X322116D02*
X317399D01*
G01X322116Y262894D02*
X326447D01*
G01X322116D02*
X317303D01*
G01X317126Y289784D02*
X327421D01*
X327677Y290039D01*
G01X328120Y240659D02*
Y234715D01*
X323051Y229646D01*
G01X322972Y359980D02*
Y345032D01*
X324039Y343965D01*
G01X322972Y359980D02*
X365457D01*
X372304Y353133D01*
X382680D01*
X388982Y346832D01*
Y211432D01*
X382510Y204961D01*
G01X338679Y160113D02*
Y74211D01*
G01X337411Y204222D02*
X343480D01*
X347155Y207897D01*
G01X332338Y210181D02*
X333296Y209222D01*
X337411D01*
G01X342500Y210328D02*
X341395Y209222D01*
X337411D01*
G01X347155Y207897D02*
Y215806D01*
X343739Y219222D01*
X337411D01*
G01X345443Y240659D02*
Y239809D01*
X341912Y236278D01*
X337159D01*
X333955Y239483D01*
Y240337D01*
X333632Y240659D01*
G01X343376Y257894D02*
X347452D01*
X350420Y254926D01*
Y245637D01*
X345443Y240659D01*
G01X339931D02*
Y244894D01*
G01X343376Y262894D02*
X339206D01*
G01X351124Y166414D02*
X369176D01*
X382510Y179748D01*
Y204961D01*
G54D28*
X297441Y284784D03*
Y289784D03*
Y294784D03*
Y299784D03*
X317126Y289784D03*
Y284784D03*
Y294784D03*
Y299784D03*
G54D19*
X133947Y172618D03*
Y174587D03*
Y176555D03*
Y178524D03*
Y180492D03*
Y182461D03*
Y184429D03*
Y186398D03*
Y188366D03*
Y190335D03*
Y192303D03*
Y194272D03*
Y196240D03*
Y198209D03*
Y200177D03*
Y202146D03*
Y204114D03*
Y206083D03*
Y208051D03*
Y210020D03*
Y211988D03*
Y213957D03*
Y215925D03*
Y217894D03*
Y219862D03*
Y221831D03*
Y223799D03*
Y225768D03*
Y227736D03*
Y229705D03*
Y231673D03*
Y233642D03*
Y235610D03*
Y237579D03*
Y239547D03*
Y241516D03*
X218199Y172618D03*
Y180492D03*
Y178524D03*
Y176555D03*
Y174587D03*
Y190335D03*
Y188366D03*
Y186398D03*
Y184429D03*
Y182461D03*
Y198209D03*
Y196240D03*
Y194272D03*
Y192303D03*
Y206083D03*
Y204114D03*
Y202146D03*
Y200177D03*
Y213957D03*
Y211988D03*
Y210020D03*
Y208051D03*
Y221831D03*
Y219862D03*
Y217894D03*
Y215925D03*
Y229705D03*
Y227736D03*
Y225768D03*
Y223799D03*
Y239547D03*
Y237579D03*
Y235610D03*
Y233642D03*
Y231673D03*
Y241516D03*
G54D38*
G01X67542Y160426D02*
Y155095D01*
G01Y169334D02*
Y160426D01*
G01Y178115D02*
Y169334D01*
G01Y189003D02*
Y178115D01*
G01Y199822D02*
Y189003D01*
G01Y210161D02*
Y199822D01*
G01Y218295D02*
Y210161D01*
G01Y227693D02*
Y223038D01*
G01D02*
Y218295D01*
G01Y233828D02*
Y227693D01*
G01Y239326D02*
Y233828D01*
G01X142267Y122037D02*
X136007D01*
X110833Y147211D01*
G01X136870Y352175D02*
X131417Y346722D01*
Y342175D01*
G01X136870Y352175D02*
X148324Y363629D01*
X266295D01*
X278445Y351480D01*
Y338906D01*
X285376Y331975D01*
X368705D01*
X376537Y324143D01*
Y316935D01*
G01X142323Y342175D02*
Y346722D01*
X136870Y352175D01*
G01X194912Y122037D02*
X149969D01*
G01D02*
X142267D01*
G01X158681Y352175D02*
X153228Y346722D01*
G01D02*
Y342175D01*
G01X169587Y350613D02*
X164134Y345160D01*
Y342175D01*
G01X169587Y350613D02*
X175039Y345160D01*
Y342175D01*
G01X169587Y352175D02*
Y350613D01*
G01Y352175D02*
X175993Y358582D01*
X261542D01*
X275145Y344980D01*
Y333778D01*
X282750Y326173D01*
X356906D01*
X376537Y306542D01*
Y297859D01*
G01X285239Y159025D02*
Y136514D01*
X270761Y122037D01*
X194912D01*
G01X288140Y258081D02*
X272334D01*
X265956Y264459D01*
X264242D01*
G01X272520Y298927D02*
X264242Y290650D01*
Y288868D01*
G01X297441Y299784D02*
X273376D01*
X272520Y298927D01*
G01X285239Y166100D02*
Y171373D01*
G01Y159025D02*
Y166100D01*
G01Y171373D02*
Y174185D01*
G01D02*
Y180477D01*
G01D02*
Y185984D01*
G01X288868Y191132D02*
X296892Y199156D01*
G01X285239Y185984D02*
Y187503D01*
X288868Y191132D01*
G01X288140Y258081D02*
X296604D01*
X296663Y258022D01*
G01X299053Y337571D02*
X289449Y347175D01*
G01X296892Y199156D02*
X302342Y204607D01*
Y208199D01*
G01X295345Y240659D02*
Y239990D01*
X299919Y235416D01*
X305505D01*
G01X296663Y258022D02*
X302913D01*
X302953Y257982D01*
G01X302342Y208199D02*
X302840Y208696D01*
Y218972D01*
X303150Y219282D01*
G01X316152Y214222D02*
X308209D01*
X303209Y219222D01*
G01D02*
X303150Y219282D01*
G01X316152Y219222D02*
X303209D01*
G01X303150Y230532D02*
Y232207D01*
X305505Y234562D01*
Y235416D01*
G01X303150Y230532D02*
X304035Y229646D01*
X310000D01*
G01X305505Y235416D02*
X316462D01*
X321730Y240684D01*
Y240939D01*
G01X311776Y255169D02*
Y256382D01*
X310176Y257982D01*
X302953D01*
G01X383915Y285258D02*
Y328467D01*
X374811Y337571D01*
X299053D01*
G01X316152Y209222D02*
X310633D01*
G01X310000Y229646D02*
Y228784D01*
X313708Y225077D01*
X320009D01*
G01X322116Y252894D02*
X314051D01*
X311776Y255169D01*
G01X307284Y292284D02*
Y288934D01*
X311537Y284680D01*
G01D02*
X317023D01*
X317126Y284784D01*
G01X316152Y209222D02*
X320982D01*
G01X320009Y225077D02*
X325863Y219222D01*
X337411D01*
G01X343376Y252894D02*
X333685D01*
X321730Y240939D01*
G01X317126Y284784D02*
X327421D01*
X327677Y284528D01*
G01X317126Y294784D02*
X331545D01*
X338848Y302087D01*
G01X328679Y44211D02*
Y18933D01*
X326161Y16415D01*
G01X338848Y282795D02*
X337116Y284528D01*
X327677D01*
G01X337411Y214222D02*
X343190D01*
G01X337411D02*
X332087D01*
G01X338848Y282795D02*
X344709Y276935D01*
G01X376537Y297859D02*
X372204Y302193D01*
X338955D01*
X338848Y302087D01*
G01X346161Y16415D02*
Y25084D01*
X365288Y44211D01*
X378679D01*
G01X363226Y262894D02*
X343376D01*
G01X344709Y276935D02*
X376537D01*
G01D02*
Y276205D01*
X363226Y262894D01*
G01X378679Y74211D02*
Y44211D01*
G01X376537Y276935D02*
Y277881D01*
X383915Y285258D01*
G01X376537Y296935D02*
Y297859D01*
G54D29*
X308344Y240939D03*
X321730D03*
G54D39*
G01X19685Y0D02*
X374016D01*
G03X393701Y19685I0J19685D01*
G01Y374016D01*
G03X374016Y393701I-19685J0D01*
G01X19685D01*
G03X0Y374016I0J-19685D01*
G01Y19685D01*
G03X19685Y0I19685J0D01*
M02*
