G04 ================== begin FILE IDENTIFICATION RECORD ==================*
G04 Layout Name:  F:/对外部分项目/信号发生器改版V1.0/Hardware/Pcb/DDS.brd*
G04 Film Name:    PASTEMASK_TOP*
G04 File Format:  Gerber RS274X*
G04 File Origin:  Cadence Allegro 16.6-2015-S066*
G04 Origin Date:  Mon May 08 09:05:24 2017*
G04 *
G04 Layer:  PIN/PASTEMASK_TOP*
G04 Layer:  PACKAGE GEOMETRY/PASTEMASK_TOP*
G04 Layer:  BOARD GEOMETRY/OUTLINE*
G04 *
G04 Offset:    (0.000 0.000)*
G04 Mirror:    No*
G04 Mode:      Positive*
G04 Rotation:  0*
G04 FullContactRelief:  No*
G04 UndefLineWidth:     6.000*
G04 ================== end FILE IDENTIFICATION RECORD ====================*
%FSLAX25Y25*MOIN*%
%IR0*IPPOS*OFA0.00000B0.00000*MIA0B0*SFA1.00000B1.00000*%
%ADD24R,.062992X.062992*%
%ADD22R,.068898X.026575*%
%ADD23R,.127953X.07874*%
%ADD19R,.01X.059055*%
%ADD20R,.059055X.01*%
%ADD16R,.061024X.023622*%
%ADD12O,.021654X.049213*%
%ADD13R,.037402X.016732*%
%ADD10R,.016732X.037402*%
%ADD21R,.043307X.055118*%
%ADD18R,.023622X.03937*%
%ADD17R,.03937X.023622*%
%ADD15O,.015748X.051181*%
%ADD29R,.090551X.090551*%
%ADD14R,.055118X.022638*%
%ADD11R,.022638X.055118*%
%ADD27R,.076772X.023622*%
%ADD28R,.047244X.070866*%
%ADD26R,.058232X.093665*%
%ADD25R,.070866X.047244*%
%ADD30C,.003937*%
G75*
%LPD*%
G75*
G54D10*
X32989Y81948D03*
X27477D03*
X27477Y88063D03*
X32989D03*
X32989Y106408D03*
X27477D03*
X32989Y94178D03*
X27477D03*
X27477Y100293D03*
X32989D03*
X32989Y124754D03*
X27477D03*
X32989Y112524D03*
X27477D03*
X27477Y118639D03*
X32989D03*
X32989Y136984D03*
X27477D03*
X27477Y130869D03*
X32989D03*
X28167Y177586D03*
X22656D03*
X57934Y81773D03*
X63446D03*
X69085Y90878D03*
Y81773D03*
X63446Y90878D03*
X57934D03*
X86395Y52753D03*
Y66140D03*
Y59447D03*
Y72834D03*
Y79527D03*
X74597Y90878D03*
Y81773D03*
X91906Y52753D03*
Y66140D03*
Y59447D03*
Y72834D03*
Y79527D03*
X124781Y54861D03*
Y61701D03*
X115364Y69547D03*
X109852D03*
X118917Y87972D03*
X113406D03*
Y94399D03*
X118917D03*
X130293Y54861D03*
Y61701D03*
X224128Y38152D03*
X218616D03*
X235467D03*
X229955D03*
X241293D03*
X246805D03*
X258144D03*
X252632D03*
X262068Y91832D03*
X262501Y119273D03*
X269483Y38152D03*
X263971D03*
X280306Y61182D03*
Y68712D03*
Y76242D03*
X280493Y83614D03*
X267580Y91832D03*
X268013Y119273D03*
X282061Y45835D03*
X287573D03*
X293880D03*
X299392D03*
X287662Y39190D03*
X282150D03*
X299392Y39190D03*
X293880D03*
X300005Y61182D03*
Y67934D03*
X285818Y61182D03*
Y68712D03*
Y76242D03*
X300005Y81438D03*
Y74686D03*
X286005Y83614D03*
X292958Y127902D03*
X298470D03*
X292731Y121711D03*
X298243D03*
X288461Y135152D03*
X293973D03*
X317518Y45835D03*
X311211D03*
X305699D03*
X317518Y39190D03*
X305517Y61182D03*
X319154D03*
X305517Y67934D03*
Y81438D03*
Y74686D03*
X319517Y82506D03*
X311910Y104741D03*
X306398D03*
X306477Y98215D03*
X311989D03*
X307595Y143858D03*
X302084D03*
X319544Y143759D03*
X314032D03*
X301926Y134507D03*
X307438D03*
X319446Y134556D03*
X313934D03*
X323030Y45835D03*
X334848D03*
X329337D03*
X323030Y39190D03*
X329337D03*
X334848D03*
X324666Y61182D03*
X336422Y79742D03*
X325029Y82506D03*
X325533Y104741D03*
X320021D03*
X325558Y98186D03*
X320047D03*
X335568Y123129D03*
X335460Y116918D03*
X346668Y45835D03*
X341156D03*
X352974D03*
X352974Y39190D03*
X342390Y60172D03*
X347902D03*
X342390Y67218D03*
X347902D03*
X348897Y79742D03*
X354409D03*
X341934D03*
X342390Y74265D03*
X347902D03*
X341080Y123129D03*
X340971Y116918D03*
X358486Y45835D03*
X370324D03*
X364813D03*
X376612D03*
X358486Y39190D03*
X364813D03*
X370324D03*
X361373Y65562D03*
X366885D03*
Y79752D03*
X361373D03*
X366885Y72657D03*
X361373D03*
X382124Y45835D03*
X422648Y41793D03*
X428160D03*
X426674Y74254D03*
X421162D03*
X430699Y135374D03*
X441330Y63240D03*
X435818D03*
X448869D03*
X436211Y135374D03*
X454381Y63240D03*
X471261Y74254D03*
X465749D03*
X453938D03*
X459450D03*
G54D11*
X28092Y153047D03*
X21202D03*
X288428Y142208D03*
X295318D03*
X319083Y68678D03*
X319024Y75940D03*
X325972Y68678D03*
X325914Y75940D03*
X422078Y52876D03*
X428967D03*
X422078Y64126D03*
X428967D03*
X468121Y63535D03*
X461231D03*
G54D20*
X157726Y61073D03*
Y63041D03*
Y65010D03*
Y66978D03*
Y68947D03*
Y70915D03*
Y72884D03*
Y74852D03*
Y76821D03*
Y78789D03*
Y80758D03*
Y82726D03*
Y84695D03*
Y86663D03*
Y88632D03*
Y90600D03*
Y92569D03*
Y94537D03*
Y96506D03*
Y98474D03*
Y100443D03*
Y102412D03*
Y104380D03*
Y106348D03*
Y108317D03*
Y110286D03*
Y112254D03*
Y114222D03*
Y116191D03*
Y118160D03*
Y120128D03*
Y122096D03*
Y124065D03*
Y126034D03*
Y128002D03*
Y129970D03*
X241978Y70915D03*
Y68947D03*
Y66978D03*
Y65010D03*
Y63041D03*
Y61073D03*
Y88632D03*
Y86663D03*
Y84695D03*
Y82726D03*
Y80758D03*
Y78789D03*
Y76821D03*
Y74852D03*
Y72884D03*
Y108317D03*
Y106348D03*
Y104380D03*
Y102412D03*
Y100443D03*
Y98474D03*
Y96506D03*
Y94537D03*
Y92569D03*
Y90600D03*
Y128002D03*
Y126034D03*
Y124065D03*
Y122096D03*
Y120128D03*
Y118160D03*
Y116191D03*
Y114222D03*
Y112254D03*
Y110286D03*
Y129970D03*
G54D30*
G01X17087Y-7874D02*
X489528D01*
G03X509213Y11811I0J19685D01*
G01Y208661D01*
G03X489528Y228346I-19685J0D01*
G01X17087D01*
G03X-2598Y208661I0J-19685D01*
G01Y11811D01*
G03X17087Y-7874I19685J0D01*
G54D21*
X264597Y100553D03*
Y110395D03*
X272471D03*
Y100553D03*
G54D12*
X28123Y160945D03*
X20642D03*
Y170393D03*
X24382D03*
X28123D03*
X275083Y157074D03*
X267602D03*
Y166522D03*
X271342D03*
X275083D03*
G54D13*
X51260Y152037D03*
Y157549D03*
X68316Y100134D03*
Y105646D03*
X63209Y152037D03*
Y157549D03*
X69183Y152037D03*
Y157549D03*
X57234Y152037D03*
Y157549D03*
X88180Y36121D03*
Y41633D03*
X74676Y100134D03*
Y105646D03*
X91326Y117343D03*
Y122855D03*
X91092Y140965D03*
Y135453D03*
X81132Y152037D03*
Y157549D03*
X75158Y152037D03*
Y157549D03*
X87106Y152037D03*
Y157549D03*
X106212Y35944D03*
Y41456D03*
X96648Y36170D03*
Y41682D03*
X93081Y152037D03*
Y157549D03*
X103419Y157547D03*
Y152035D03*
X123304Y41456D03*
Y35944D03*
X114611Y35778D03*
Y41289D03*
X119041Y157547D03*
Y152035D03*
X111230Y157547D03*
Y152035D03*
X128155D03*
Y157547D03*
X131849Y35944D03*
Y41456D03*
X132835Y122851D03*
Y128363D03*
X140934D03*
Y122851D03*
X140718Y140524D03*
Y135012D03*
X132619Y140524D03*
Y135013D03*
X142600Y152035D03*
Y157547D03*
X135377D03*
Y152035D03*
X255109Y102639D03*
Y108151D03*
X260788Y166582D03*
Y161071D03*
X281662Y166598D03*
Y172110D03*
X297107Y106818D03*
Y112330D03*
X289649Y153819D03*
Y159331D03*
Y166598D03*
Y172110D03*
X334405Y134409D03*
Y128897D03*
X340607Y128858D03*
Y134369D03*
X378496Y143832D03*
Y149344D03*
X413662Y124657D03*
Y120641D03*
Y115130D03*
Y130169D03*
X422481Y97128D03*
Y91616D03*
Y100838D03*
Y106350D03*
X428652Y106301D03*
Y100789D03*
X428770Y97088D03*
Y91576D03*
X453662Y114460D03*
Y119972D03*
G54D22*
X298675Y160872D03*
Y172093D03*
X413958Y91675D03*
Y102895D03*
G54D14*
X61113Y98750D03*
Y105639D03*
X282093Y153816D03*
Y160706D03*
X348439Y128845D03*
Y135735D03*
G54D23*
X390060Y98053D03*
Y122462D03*
G54D15*
X69951Y118533D03*
X67392D03*
X64833D03*
X62274D03*
X59715D03*
X57155D03*
Y141073D03*
X59715D03*
X62274D03*
X64833D03*
X67392D03*
X69951D03*
X85305Y118533D03*
X82746D03*
X80187D03*
X77628D03*
X75069D03*
X72510D03*
Y141073D03*
X75069D03*
X77628D03*
X80187D03*
X82746D03*
X85305D03*
X107963Y118533D03*
X105404D03*
X102844D03*
X100286D03*
X97726D03*
Y141073D03*
X100286D03*
X102844D03*
X105404D03*
X107963D03*
X125876Y118533D03*
X123317D03*
X120758D03*
X118199D03*
X115640D03*
X113081D03*
X110522D03*
Y141073D03*
X113081D03*
X115640D03*
X118199D03*
X120758D03*
X123317D03*
X125876D03*
G54D24*
X380621Y132521D03*
X398337D03*
G54D25*
X434162Y74533D03*
X447548D03*
G54D16*
X83553Y90532D03*
Y95532D03*
Y100532D03*
Y105532D03*
X104813Y90532D03*
Y105532D03*
Y100532D03*
Y95532D03*
X304259Y112342D03*
Y117342D03*
Y122342D03*
Y127342D03*
X325518D03*
Y122342D03*
Y117342D03*
Y112342D03*
X342033Y89491D03*
Y94491D03*
Y99491D03*
Y104491D03*
X363293Y89491D03*
Y104491D03*
Y99491D03*
Y94491D03*
X441969Y37816D03*
Y42816D03*
Y47816D03*
Y52816D03*
X447934Y86488D03*
Y91488D03*
Y96488D03*
Y101488D03*
X463229Y47816D03*
Y42816D03*
Y37816D03*
Y52816D03*
X469194Y86488D03*
Y101488D03*
Y96488D03*
Y91488D03*
G54D26*
X433269Y122216D03*
G54D17*
X107776Y58976D03*
X116831Y62717D03*
Y55236D03*
G54D27*
X423426Y114716D03*
Y119716D03*
Y124716D03*
Y129716D03*
X443111Y124716D03*
Y119716D03*
Y114716D03*
Y129716D03*
G54D18*
X127909Y69786D03*
X124169Y78841D03*
X131650D03*
G54D28*
X437593Y88763D03*
Y102149D03*
G54D19*
X165404Y53396D03*
Y137648D03*
X185089Y53396D03*
X183120D03*
X181152D03*
X179183D03*
X177215D03*
X175246D03*
X173278D03*
X171309D03*
X169341D03*
X167372D03*
Y137648D03*
X169341D03*
X171309D03*
X173278D03*
X175246D03*
X177215D03*
X179183D03*
X181152D03*
X183120D03*
X185089D03*
X204774Y53396D03*
X202805D03*
X200837D03*
X198868D03*
X196900D03*
X194931D03*
X192963D03*
X190994D03*
X189026D03*
X187057D03*
Y137648D03*
X189026D03*
X190994D03*
X192963D03*
X194931D03*
X196900D03*
X198868D03*
X200837D03*
X202805D03*
X204774D03*
X222490Y53396D03*
X220522D03*
X218553D03*
X216585D03*
X214616D03*
X212648D03*
X210679D03*
X208711D03*
X206742D03*
Y137648D03*
X208711D03*
X210679D03*
X212648D03*
X214616D03*
X216585D03*
X218553D03*
X220522D03*
X222490D03*
X234301Y53396D03*
X232333D03*
X230364D03*
X228396D03*
X226427D03*
X224459D03*
Y137648D03*
X226427D03*
X228396D03*
X230364D03*
X232333D03*
X234301D03*
G54D29*
X464834Y112728D03*
Y132019D03*
M02*
