G04 ================== begin FILE IDENTIFICATION RECORD ==================*
G04 Layout Name:  F:/对外部分项目/信号发生器改版V1.0/Hardware/Pcb/DDS.brd*
G04 Film Name:    TOP*
G04 File Format:  Gerber RS274X*
G04 File Origin:  Cadence Allegro 16.6-2015-S066*
G04 Origin Date:  Sun May 07 11:18:32 2017*
G04 *
G04 Layer:  BOARD GEOMETRY/OUTLINE*
G04 Layer:  ETCH/TOP*
G04 Layer:  PIN/TOP*
G04 Layer:  VIA CLASS/TOP*
G04 *
G04 Offset:    (0.000 0.000)*
G04 Mirror:    No*
G04 Mode:      Positive*
G04 Rotation:  0*
G04 FullContactRelief:  No*
G04 UndefLineWidth:     6.000*
G04 ================== end FILE IDENTIFICATION RECORD ====================*
%FSLAX25Y25*MOIN*%
%IR0*IPPOS*OFA0.00000B0.00000*MIA0B0*SFA1.00000B1.00000*%
%ADD29R,.062992X.062992*%
%ADD27R,.068898X.026575*%
%ADD10C,.177165*%
%ADD28R,.127953X.07874*%
%ADD12C,.02*%
%ADD23R,.01X.059055*%
%ADD22R,.059055X.01*%
%ADD19R,.061024X.023622*%
%ADD25O,.021654X.049213*%
%ADD16R,.037402X.016732*%
%ADD13R,.016732X.037402*%
%ADD24R,.043307X.055118*%
%ADD21R,.023622X.03937*%
%ADD30R,.100394X.135827*%
%ADD20R,.03937X.023622*%
%ADD15O,.015748X.051181*%
%ADD11C,.059055*%
%ADD34R,.090551X.090551*%
%ADD18C,.070866*%
%ADD17R,.055118X.022638*%
%ADD26R,.022638X.055118*%
%ADD14C,.098425*%
%ADD31R,.076772X.023622*%
%ADD33R,.047244X.070866*%
%ADD32R,.070866X.047244*%
%ADD35C,.003937*%
%ADD36C,.01*%
%ADD37C,.012*%
%ADD38C,.015*%
%ADD39C,.025*%
%ADD40C,.035*%
%ADD49C,.11443*%
%ADD41C,.19317*%
%ADD42C,.036004*%
%ADD44C,.07506*%
%ADD51R,.038642X.071122*%
%ADD48R,.071122X.038642*%
%ADD52R,.106554X.106554*%
%ADD46R,.053406X.032736*%
%ADD45R,.032736X.053406*%
%ADD47R,.084902X.04258*%
%ADD43C,.08687*%
%ADD53R,.039626X.055374*%
%ADD50R,.077028X.039626*%
G75*
%LPD*%
G75*
G36*
G01X489528Y227546D02*
G02X508412Y208661I0J-18885D01*
G01Y11811D01*
G02X489528Y-7074I-18885J0D01*
G01X17087D01*
G02X-1798Y11811I0J18885D01*
G01Y208661D01*
G02X17087Y227546I18885J0D01*
G01X489528D01*
G37*
%LPC*%
G75*
G36*
G01X261632Y104109D02*
X267563D01*
Y97242D01*
X269506D01*
Y104109D01*
X275437D01*
Y96997D01*
X273118D01*
X270764Y94642D01*
X269216D01*
Y90290D01*
G03X269899Y90007I400J0D01*
G01X271507Y91615D01*
X321899D01*
X325117Y94833D01*
G03X324834Y95516I-283J283D01*
G01X323922D01*
Y100857D01*
X324232D01*
Y102071D01*
X323896D01*
Y107411D01*
X324218D01*
Y110360D01*
X321667D01*
Y114323D01*
X329370D01*
Y110360D01*
X326819D01*
Y107411D01*
X327170D01*
Y102071D01*
X326833D01*
Y100857D01*
X327195D01*
Y97877D01*
G03X327878Y97594I400J0D01*
G01X333573Y103289D01*
X335483D01*
G02X336615Y103785I1245J-1300D01*
G01X336691Y103790D01*
X338182Y105281D01*
Y106472D01*
X345884D01*
Y102509D01*
X339087D01*
X338529Y101951D01*
X338525Y101876D01*
G02X338506Y101704I-1797J113D01*
G01X338503Y101688D01*
Y101472D01*
X345884D01*
Y100791D01*
X348349D01*
X352023Y97118D01*
Y93551D01*
G02X352274Y91394I-1300J-1245D01*
G03X352619Y90791I345J-203D01*
G01X357685D01*
X358759Y89717D01*
G03X359442Y90000I283J283D01*
G01Y91472D01*
X367144D01*
Y91266D01*
X367360D01*
X367376Y91268D01*
G02Y87713I284J-1778D01*
G01X367360Y87715D01*
X367144D01*
Y87509D01*
X361932D01*
G03X361649Y86826I0J-400D01*
G01X366053Y82423D01*
X368521D01*
Y81053D01*
X373625D01*
X376983Y77694D01*
Y60211D01*
X380759Y56435D01*
X402457D01*
X420117Y38776D01*
X421012D01*
Y44463D01*
X424285D01*
Y40305D01*
G03X424968Y40022I400J0D01*
G01X426184Y41238D01*
X426160Y41345D01*
G02X426465Y42946I2001J448D01*
G01Y53272D01*
X427035Y53843D01*
Y56432D01*
X430899D01*
Y54867D01*
X439314D01*
G03X439597Y55549I0J400D01*
G01X434577Y60570D01*
X434181D01*
Y60965D01*
X433957Y61190D01*
X430899D01*
Y60570D01*
X427035D01*
Y63158D01*
X424692Y65501D01*
G03X424010Y65218I-283J-283D01*
G01Y60570D01*
X420145D01*
Y62365D01*
G03X419505Y62686I-400J0D01*
G02Y65566I-1080J1440D01*
G03X420145Y65886I240J320D01*
G01Y67682D01*
X421546D01*
G03X421829Y68364I0J400D01*
G01X419112Y71082D01*
Y72203D01*
X416123D01*
X402872Y85454D01*
X381459D01*
X370664Y96249D01*
Y108460D01*
X355074Y124049D01*
G02X354566Y124891I1450J1450D01*
G01X354556Y124920D01*
X352432Y127045D01*
X351995D01*
Y126913D01*
X344883D01*
Y127057D01*
X333699D01*
X333660Y127097D01*
X331744D01*
X330188Y125542D01*
X329370D01*
Y125360D01*
X321667D01*
Y129323D01*
X328878D01*
X330252Y130698D01*
X334406D01*
G02X334762Y130662I0J-1800D01*
G01X334782Y130658D01*
X344883D01*
Y130777D01*
X351995D01*
Y130645D01*
X353923D01*
X357102Y127466D01*
X357132Y127457D01*
G02X357974Y126948I-608J-1958D01*
G01X359588Y125334D01*
G03X360267Y125621I278J287D01*
G01Y150129D01*
X355006Y155390D01*
G02X357552Y157936I1273J1273D01*
G01X363867Y151620D01*
Y121055D01*
X374164Y110759D01*
G02X374181Y110741I-1449J-1451D01*
G01X374764Y110158D01*
Y109326D01*
G02Y109292I-2050J-17D01*
G01Y97948D01*
X383157Y89554D01*
X396767D01*
G03X397049Y90237I0J400D01*
G01X393971Y93316D01*
X382862D01*
Y102790D01*
X397258D01*
Y95828D01*
X399425Y93660D01*
X409712D01*
Y93804D01*
X418203D01*
Y93725D01*
X422422D01*
G02X422889Y93671I0J-2050D01*
G01X422911Y93666D01*
X429579D01*
X429618Y93627D01*
X435630D01*
X436043Y93213D01*
X439952Y97123D01*
G03X439669Y97806I-283J283D01*
G01X434749D01*
G03X434353Y97348I0J-400D01*
G02X431859Y95435I-1781J-260D01*
G01X431821Y95451D01*
X426100D01*
Y98725D01*
X431821D01*
X431859Y98741D01*
G02X433766Y98436I713J-1653D01*
G03X434431Y98735I265J299D01*
G01Y100129D01*
G03X433827Y100473I-400J0D01*
G02X431938Y100506I-918J1549D01*
G03X431323Y100169I-216J-337D01*
G01Y99152D01*
X425982D01*
Y102426D01*
X427514D01*
X429069Y103981D01*
G03X428787Y104664I-283J283D01*
G01X425982D01*
Y104800D01*
X425151D01*
Y104713D01*
X419811D01*
Y107987D01*
X420931D01*
Y112735D01*
X418787D01*
Y116697D01*
X427449D01*
Y117735D01*
X418787D01*
Y118824D01*
X417015Y120596D01*
G03X416332Y120313I-283J-283D01*
G01Y119004D01*
X410992D01*
Y122278D01*
X412112D01*
Y123020D01*
X410992D01*
Y126294D01*
X414379D01*
G03X414662Y126977I0J400D01*
G01X413107Y128532D01*
X410992D01*
Y131406D01*
X402287D01*
Y128572D01*
X399068D01*
X397258Y126761D01*
Y117725D01*
X382862D01*
Y127199D01*
X391898D01*
X394388Y129689D01*
Y136471D01*
X402287D01*
Y135507D01*
X417271D01*
X421011Y131766D01*
X423426D01*
G02X423930Y131704I0J-2050D01*
G01X423954Y131697D01*
X426406D01*
X429062Y134354D01*
Y138044D01*
X432336D01*
Y132704D01*
X431797D01*
X429584Y130490D01*
G03X429866Y129808I283J-283D01*
G01X437179D01*
G03X437462Y130490I0J400D01*
G01X435248Y132704D01*
X434574D01*
Y138044D01*
X437847D01*
Y134489D01*
X440639Y131697D01*
X447750D01*
Y127735D01*
X439088D01*
Y126697D01*
X442583D01*
X442608Y126704D01*
G02X443111Y126766I504J-1987D01*
G01X456681D01*
X459506Y129591D01*
Y137347D01*
X470161D01*
Y134830D01*
X482480D01*
X490374Y126937D01*
G03X491056Y127220I283J283D01*
G01Y175296D01*
X463387Y202966D01*
X345132D01*
X339592Y197426D01*
X339622Y197314D01*
G02Y195019I-4189J-1147D01*
G01X339592Y194907D01*
X342936Y191563D01*
Y189996D01*
G02X338350Y189693I-2050J-3829D01*
G03X338400Y190301I-233J325D01*
G01X336692Y192008D01*
X336580Y191977D01*
G02X334286I-1147J4189D01*
G01X334174Y192008D01*
X332467Y190301D01*
G03X332516Y189693I283J-283D01*
G02X327930Y189996I-2536J-3527D01*
G01Y191563D01*
X331274Y194907D01*
X331244Y195019D01*
G02X336580Y200356I4189J1147D01*
G01X336692Y200325D01*
X343433Y207066D01*
X465085D01*
X495157Y176994D01*
Y48678D01*
X468468Y21989D01*
X452437D01*
X442245Y11797D01*
X442329Y11662D01*
G02X438737Y14219I-4858J-3022D01*
G01X438844Y14195D01*
X450739Y26090D01*
X466770D01*
X491056Y50376D01*
Y120455D01*
X480782Y130730D01*
X470161D01*
Y126692D01*
X462405D01*
X458380Y122666D01*
X443111D01*
G02X442608Y122729I0J2050D01*
G01X442583Y122735D01*
X439088D01*
Y121697D01*
X447750D01*
Y121522D01*
X450992D01*
Y121609D01*
X456332D01*
Y118335D01*
X450992D01*
Y118422D01*
X447750D01*
Y117735D01*
X439088D01*
Y116697D01*
X447750D01*
Y112735D01*
X438472D01*
Y114625D01*
X428065D01*
Y112735D01*
X424031D01*
Y107987D01*
X425151D01*
Y107900D01*
X425982D01*
Y107938D01*
X431323D01*
Y107200D01*
G03X432006Y106917I400J0D01*
G01X434076Y108988D01*
X442627D01*
X448145Y103469D01*
X451785D01*
Y99507D01*
X446720D01*
X446366Y99152D01*
G03X446649Y98469I283J-283D01*
G01X451785D01*
Y94506D01*
X444082D01*
Y95903D01*
G03X443400Y96186I-400J0D01*
G01X440568Y93354D01*
X440670Y93107D01*
X440756D01*
Y88538D01*
X447934D01*
G02X448437Y88475I0J-2050D01*
G01X448462Y88469D01*
X451785D01*
Y84506D01*
X448462D01*
X448437Y84500D01*
G02X447934Y84438I-504J1987D01*
G01X440756D01*
Y84420D01*
X434431D01*
Y89026D01*
X433931Y89526D01*
X428770D01*
G02X428389Y89562I0J2050D01*
G01X428371Y89566D01*
X422481D01*
G02X422014Y89619I0J2050D01*
G01X421992Y89625D01*
X418203D01*
Y89546D01*
X409712D01*
Y89560D01*
X405530D01*
G03X405248Y88877I0J-400D01*
G01X417821Y76304D01*
X419525D01*
Y76924D01*
X420839D01*
X426453Y82538D01*
X442202D01*
X447044Y77696D01*
X447811D01*
X458654Y88538D01*
X469194D01*
G02X469697Y88475I0J-2050D01*
G01X469721Y88469D01*
X473045D01*
Y84506D01*
X469721D01*
X469697Y84500D01*
G02X469194Y84438I-504J1987D01*
G01X460352D01*
X453521Y77607D01*
G03X453804Y76924I283J-283D01*
G01X455575D01*
Y71583D01*
X452301D01*
Y72703D01*
X451892D01*
Y71371D01*
X443205D01*
Y75736D01*
X440504Y78437D01*
X428151D01*
X427321Y77607D01*
G03X427604Y76924I283J-283D01*
G01X428311D01*
Y71988D01*
G03X428853Y71615I400J0D01*
G02X429433Y71732I641J-1682D01*
G03X429819Y72132I-14J400D01*
G01Y77696D01*
X438506D01*
Y71371D01*
X435999D01*
G03X435665Y70750I0J-400D01*
G02X432660I-1503J-991D01*
G03X432326Y71371I-334J220D01*
G01X431435D01*
G03X431082Y70782I0J-400D01*
G02X428014Y70956I-1587J-849D01*
G03X427685Y71583I-329J227D01*
G01X425375D01*
G03X425092Y70900I0J-400D01*
G01X428311Y67682D01*
X430899D01*
Y65290D01*
X434181D01*
Y65910D01*
X437455D01*
Y64474D01*
G02X437868Y63240I-1637J-1235D01*
G01Y63077D01*
X439010Y61935D01*
G03X439693Y62218I283J283D01*
G01Y65910D01*
X442966D01*
Y60570D01*
X441342D01*
G03X441059Y59887I0J-400D01*
G01X441957Y58988D01*
X445092D01*
X447232Y61129D01*
Y65910D01*
X450506D01*
Y60570D01*
X450419D01*
Y59931D01*
X450159Y59671D01*
G03X450442Y58988I283J-283D01*
G01X470073D01*
X475381Y53681D01*
Y41526D01*
X469621Y35766D01*
X463229D01*
G02X462726Y35829I0J2050D01*
G01X462702Y35835D01*
X459378D01*
Y39798D01*
X462702D01*
X462726Y39804D01*
G02X463229Y39867I504J-1987D01*
G01X467923D01*
X471280Y43224D01*
Y51983D01*
X468375Y54888D01*
X467081D01*
Y50835D01*
X463757D01*
X463733Y50829D01*
G02X463229Y50766I-504J1987D01*
G01X457443D01*
X453322Y54888D01*
X445821D01*
Y50835D01*
X442497D01*
X442473Y50829D01*
G02X441969Y50766I-504J1987D01*
G01X430899D01*
Y49867D01*
X441969D01*
G02X442473Y49804I0J-2050D01*
G01X442497Y49798D01*
X445821D01*
Y45835D01*
X442497D01*
X442473Y45829D01*
G02X441969Y45766I-504J1987D01*
G01X430565D01*
Y42148D01*
G02X429960Y40694I-2050J0D01*
G01Y40070D01*
G02X429813Y39358I-1800J0D01*
G01X429797Y39320D01*
Y39123D01*
X429691D01*
G02X429600Y38990I-1531J948D01*
G01X429560Y38937D01*
Y38664D01*
X430448Y37777D01*
X430514Y37768D01*
G02X428477Y35731I-255J-1782D01*
G01X428468Y35797D01*
X427450Y36814D01*
X409970Y19335D01*
Y10926D01*
X398459Y-585D01*
X45236D01*
X38390Y6261D01*
Y17786D01*
X18790Y37386D01*
Y137965D01*
X25832Y145008D01*
X41660D01*
X55939Y130729D01*
X123755D01*
X125019Y131993D01*
X133692D01*
X134392Y132693D01*
G03X134109Y133376I-283J283D01*
G01X129949D01*
Y134853D01*
G03X129376Y135214I-400J0D01*
G02X129189Y135139I-669J1398D01*
G02X126451Y137194I-1035J1473D01*
G03X126033Y137721I-378J129D01*
G02X124854Y138086I-157J1580D01*
G03X124339I-258J-306D01*
G02X122295I-1022J1215D01*
G03X121780I-257J-306D01*
G02X119736I-1022J1215D01*
G03X119221I-258J-306D01*
G02X117177I-1022J1215D01*
G03X116662I-258J-306D01*
G02X114618I-1022J1215D01*
G03X114103I-258J-306D01*
G02X112059I-1022J1215D01*
G03X111544I-257J-306D01*
G02X109500I-1022J1215D01*
G03X108985I-258J-306D01*
G02X106941I-1022J1215D01*
G03X106426I-258J-306D01*
G02X104382I-1022J1215D01*
G03X103866I-258J-306D01*
G02X101822I-1022J1215D01*
G03X101308I-257J-306D01*
G02X99264I-1022J1215D01*
G03X98748I-258J-306D01*
G02X97621Y137717I-1022J1215D01*
G03X97409Y137539I-13J-200D01*
G02X94427Y136379I-1790J190D01*
G03X93763Y136079I-265J-300D01*
G01Y133816D01*
X88422D01*
Y137090D01*
X93100D01*
G03X93383Y137772I0J400D01*
G01X91828Y139328D01*
X88422D01*
Y139564D01*
X86893D01*
Y139301D01*
G02X84945Y137755I-1588J0D01*
G03X84471Y137251I-91J-390D01*
G02X81022I-1725J-516D01*
G03X80548Y137755I-383J115D01*
G02X79165Y138086I-360J1546D01*
G03X78650I-258J-306D01*
G02X76606I-1022J1215D01*
G03X76091I-257J-306D01*
G02X74047I-1022J1215D01*
G03X73532I-258J-306D01*
G02X71488I-1022J1215D01*
G03X70973I-257J-306D01*
G02X68929I-1022J1215D01*
G03X68414I-258J-306D01*
G02X66370I-1022J1215D01*
G03X65855I-257J-306D01*
G02X63811I-1022J1215D01*
G03X63296I-258J-306D01*
G02X61987Y137740I-1022J1215D01*
G03X61514Y137354I-72J-393D01*
G02X57915I-1800J35D01*
G03X57442Y137740I-400J-8D01*
G02X55568Y139301I-287J1561D01*
G01Y142844D01*
G02X55922Y143844I1588J0D01*
G02X56033Y146563I1233J1311D01*
G03X55784Y147276I-249J313D01*
G01X54041D01*
X50916Y150401D01*
X48590D01*
Y153674D01*
X53930D01*
Y151347D01*
X54223Y151055D01*
G03X54564Y151196I141J141D01*
G01Y153674D01*
X59905D01*
Y152384D01*
X60197Y152092D01*
G03X60538Y152233I141J141D01*
G01Y153674D01*
X65879D01*
Y151347D01*
X66171Y151055D01*
G03X66513Y151196I141J141D01*
G01Y153674D01*
X71853D01*
Y151196D01*
G03X72195Y151055I200J0D01*
G01X72487Y151347D01*
Y153674D01*
X77828D01*
Y151196D01*
G03X78169Y151055I200J0D01*
G01X78462Y151347D01*
Y153674D01*
X83802D01*
Y152464D01*
G03X84144Y152323I200J0D01*
G01X84436Y152615D01*
Y153674D01*
X89777D01*
Y150401D01*
X86182D01*
X84404Y148622D01*
G03X84687Y147940I283J-283D01*
G01X89100D01*
X90878Y149718D01*
G03X90595Y150401I-283J283D01*
G01X90410D01*
Y153674D01*
X95751D01*
Y150401D01*
X94481D01*
Y149360D01*
X90260Y145139D01*
X83927D01*
X83568Y144780D01*
G03X83628Y144164I283J-283D01*
G02X83768Y144059I-883J-1320D01*
G03X84283I258J306D01*
G02X86893Y142844I1022J-1215D01*
G01Y142365D01*
X88422D01*
Y142601D01*
X93763D01*
Y141777D01*
X95456Y140084D01*
G03X96139Y140367I283J283D01*
G01Y142845D01*
G02X96586Y143949I1588J0D01*
G03X96558Y144532I-287J278D01*
G02X98074Y147668I1168J1370D01*
G03X98539Y148158I77J392D01*
G02X100337Y150395I1746J438D01*
G03X100749Y150794I12J400D01*
G01Y152906D01*
G03X100082Y153204I-400J0D01*
G02X97219Y155237I-1200J1342D01*
G03X96927Y155783I-369J153D01*
G02X96194Y156109I347J1767D01*
G01X96140Y156149D01*
X95751D01*
Y155912D01*
X90410D01*
Y158390D01*
G03X90069Y158532I-200J0D01*
G01X89777Y158239D01*
Y155912D01*
X84436D01*
Y158390D01*
G03X84095Y158532I-200J0D01*
G01X83802Y158239D01*
Y155912D01*
X78462D01*
Y158390D01*
G03X78120Y158532I-200J0D01*
G01X77828Y158239D01*
Y155912D01*
X72487D01*
Y158390D01*
G03X72146Y158532I-200J0D01*
G01X71853Y158239D01*
Y155912D01*
X66513D01*
Y158390D01*
G03X66171Y158532I-200J0D01*
G01X65879Y158239D01*
Y155912D01*
X60538D01*
Y158104D01*
G03X60197Y158246I-200J0D01*
G01X59905Y157953D01*
Y155912D01*
X54564D01*
Y159186D01*
X57177D01*
X73263Y175272D01*
X82661D01*
X87970Y180580D01*
Y182016D01*
G02X92761Y188841I1400J4112D01*
G03X93473Y189091I312J250D01*
G01Y189661D01*
X94917Y191105D01*
G03X94650Y191787I-283J283D01*
G02X97981Y193145I173J4340D01*
G03X98272Y192471I291J-275D01*
G01X102279D01*
G03X102570Y193145I0J400D01*
G02X108886I3158J2982D01*
G03X109177Y192471I291J-275D01*
G01X113185D01*
G03X113476Y193145I0J400D01*
G02X119792I3158J2982D01*
G03X120083Y192471I291J-275D01*
G01X121903D01*
X123642Y194210D01*
G02X125622Y192230I3897J1917D01*
G01X124004Y190612D01*
G03X124102Y189975I283J-283D01*
G02X120294Y182171I-2015J-3848D01*
G01X120168Y182228D01*
X103859Y165919D01*
G03X104142Y165237I283J-283D01*
G01X110122D01*
X129093Y184208D01*
X129036Y184334D01*
G02X131199Y182171I3956J1793D01*
G01X131073Y182228D01*
X112028Y163182D01*
G03X112311Y162499I283J-283D01*
G01X118289D01*
X139998Y184208D01*
X139941Y184334D01*
G02X147079Y189084I3956J1793D01*
G03X147772Y189356I293J272D01*
G01Y192081D01*
G02X150873Y192059I1578J4047D01*
G01Y189295D01*
G03X151570Y189028I400J0D01*
G02X158341Y188647I3233J-2901D01*
G03X159067Y188879I326J232D01*
G01Y191950D01*
G02X161668Y192020I1189J4178D01*
G01Y189167D01*
G03X162374Y188911I400J0D01*
G02Y183343I3334J-2784D01*
G03X161668Y183087I-307J-256D01*
G01Y166865D01*
G02X159067I-1300J-1245D01*
G01Y183376D01*
G03X158341Y183608I-400J0D01*
G02X151570Y183226I-3538J2519D01*
G03X150873Y182959I-298J-267D01*
G01Y122500D01*
G02X150628Y120411I-9050J0D01*
G03X151094Y119926I389J-92D01*
G02X152684Y119460I345J-1767D01*
G01X153973D01*
Y131271D01*
X161479D01*
Y129302D01*
X165478D01*
G03X165823Y129906I0J400D01*
G02X166072Y132068I1549J917D01*
G01Y133895D01*
X164103D01*
Y137633D01*
G02X164103Y137648I1300J16D01*
G01Y141854D01*
X167386Y145136D01*
X167390Y145212D01*
G02X169300Y143302I1797J-113D01*
G01X169224Y143297D01*
X168010Y142084D01*
G03X168293Y141401I283J-283D01*
G01X186256D01*
G03X186567Y142053I0J400D01*
G02X189052Y144622I1397J1135D01*
G03X189694Y144941I242J319D01*
G01Y145428D01*
X184330Y150791D01*
X184206Y150740D01*
G02X186221Y152754I-1448J3462D01*
G01X186169Y152630D01*
X190980Y147819D01*
G03X191662Y148102I283J283D01*
G01Y150613D01*
G02X194263Y150764I1096J3589D01*
G01Y148511D01*
G03X194946Y148228I400J0D01*
G01X199348Y152630D01*
X199296Y152754D01*
G02X206418Y153372I3462J1448D01*
G03X207091Y153001I390J-88D01*
G01X209091Y155000D01*
X209104Y155056D01*
G02X210006Y151651I3655J-854D01*
G03X209430Y151662I-293J-272D01*
G01X199851Y142084D01*
G03X200134Y141401I283J-283D01*
G01X203473D01*
Y144111D01*
X205939Y146577D01*
X205954Y146609D01*
G02X209019Y144758I1630J-765D01*
G03X209139Y144170I319J-241D01*
G02X209914Y141948I-898J-1560D01*
G03X210286Y141401I372J-147D01*
G01X211347D01*
Y143704D01*
X214609Y146966D01*
X214601Y147060D01*
G02X216838Y145478I1793J163D01*
G01X216785Y145464D01*
X213948Y142627D01*
Y141401D01*
X225127D01*
Y143839D01*
G02X226972Y148294I6300J0D01*
G01X229602Y150924D01*
G02X234057Y152769I4455J-4455D01*
G01X261642D01*
G03X261925Y153452I0J400D01*
G01X259488Y155889D01*
Y159434D01*
X258118D01*
Y162708D01*
X263458D01*
Y159434D01*
X262088D01*
Y156966D01*
X264441Y154613D01*
X265424D01*
G03X265805Y155133I0J400D01*
G02X265719Y155696I1797J563D01*
G01Y158452D01*
G02X266052Y159520I1883J0D01*
G01Y160552D01*
X268088Y162588D01*
G03X267769Y163269I-283J283D01*
G02X265722Y165034I-167J1875D01*
G01X265711Y165222D01*
X263458D01*
Y164946D01*
X258118D01*
Y168219D01*
X263458D01*
Y167823D01*
X265711D01*
X265722Y168011D01*
G02X269293Y168729I1880J-111D01*
G03X269652I180J88D01*
G02X269763Y168925I1691J-829D01*
G01Y170251D01*
X273172Y173660D01*
X278992D01*
Y173746D01*
X284332D01*
Y173660D01*
X286978D01*
Y173746D01*
X292319D01*
Y173643D01*
X294430D01*
Y174222D01*
X302920D01*
Y173643D01*
X304966D01*
X306619Y175296D01*
Y182109D01*
G02X309720I1550J4057D01*
G01Y174012D01*
X306250Y170542D01*
X302920D01*
Y169964D01*
X294430D01*
Y170542D01*
X292319D01*
Y170473D01*
X286978D01*
Y170560D01*
X284332D01*
Y170473D01*
X278992D01*
Y170560D01*
X274456D01*
X272882Y168985D01*
G02X273033Y168729I-1539J-1084D01*
G03X273392I180J88D01*
G02X276966Y167900I1691J-829D01*
G01Y165144D01*
G02X273392Y164315I-1883J0D01*
G03X273033I-180J-88D01*
G02X272893Y164076I-1691J829D01*
G01Y163008D01*
X269253Y159368D01*
X269311Y159242D01*
G02X269485Y158452I-1709J-790D01*
G01Y155696D01*
G02X269399Y155133I-1883J0D01*
G03X269781Y154613I382J-120D01*
G01X270783D01*
X273200Y157030D01*
Y158452D01*
G02X276966I1883J0D01*
G01Y156143D01*
X277894Y155214D01*
X278537D01*
Y155748D01*
X285649D01*
Y155369D01*
X286978D01*
Y155456D01*
X292319D01*
Y152182D01*
X289979D01*
Y145764D01*
X290361D01*
Y138652D01*
X289979D01*
Y137822D01*
X290098D01*
Y132482D01*
X290011D01*
Y117303D01*
X293435Y113880D01*
X294436D01*
Y113966D01*
X299777D01*
Y113892D01*
X300407D01*
Y114323D01*
X308110D01*
Y110360D01*
X300407D01*
Y110792D01*
X299777D01*
Y110693D01*
X294436D01*
Y110780D01*
X292150D01*
X286911Y116019D01*
Y132482D01*
X286824D01*
Y137822D01*
X286878D01*
Y138652D01*
X286496D01*
Y145764D01*
X286878D01*
Y152268D01*
X285649D01*
Y151884D01*
X278537D01*
Y152114D01*
X276610D01*
X274903Y153820D01*
X274836Y153829D01*
G02X274130Y154071I246J1867D01*
G01X273997Y154149D01*
X271860Y152013D01*
X269194D01*
G03X268938Y151306I0J-400D01*
G02X269356Y150924I-4037J-4837D01*
G01X283292Y136987D01*
G02X285138Y132532I-4455J-4455D01*
G01Y116437D01*
G03X286221Y113821I3700J0D01*
G01X293754Y106289D01*
G03X294436Y106572I283J283D01*
G01Y108455D01*
X299777D01*
Y105181D01*
X295827D01*
G03X295544Y104498I0J-400D01*
G01X300908Y99134D01*
G03X304840Y98591I2325J2325D01*
G01Y100886D01*
X308114D01*
Y95545D01*
X304840D01*
Y95736D01*
X304617D01*
X304594Y95730D01*
G02X299069Y97296I-1361J5729D01*
G01X284383Y111982D01*
G02X282537Y116437I4455J4455D01*
G01Y132532D01*
G03X281453Y135148I-3700J0D01*
G01X267517Y149085D01*
G03X264900Y150169I-2616J-2616D01*
G01X234057D01*
G03X231441Y149085I0J-3700D01*
G01X228811Y146455D01*
G03X227921Y145020I2616J-2616D01*
G03X228273Y144840I190J-64D01*
G02X228941Y145627I5123J-3668D01*
G01X231111Y147797D01*
G02X235566Y149643I4455J-4455D01*
G01X262696D01*
G02X267150Y147797I0J-6300D01*
G01X279882Y135066D01*
G02X281727Y130611I-4455J-4455D01*
G01Y114976D01*
G03X282811Y112361I3700J0D01*
G01X299100Y96072D01*
G03X301716Y94988I2616J2616D01*
G01X313477D01*
G03X316093Y96072I0J3700D01*
G01X318410Y98388D01*
Y100857D01*
X321683D01*
Y95516D01*
X319215D01*
X317932Y94233D01*
G02X313478Y92388I-4455J4455D01*
G01X301715D01*
G02X297261Y94233I0J6300D01*
G01X280972Y110522D01*
G02X279127Y114976I4455J4455D01*
G01Y130611D01*
G03X278043Y133228I-3700J0D01*
G01X265312Y145959D01*
G03X262696Y147042I-2616J-2616D01*
G01X235566D01*
G03X232950Y145959I0J-3700D01*
G01X232850Y145858D01*
G03X232991Y145517I141J-141D01*
G01X255231D01*
G02X257782Y142978I1245J-1300D01*
G03X258072Y142303I290J-275D01*
G01X263669D01*
G02Y139702I1245J-1300D01*
G01X246724D01*
X238976Y131954D01*
G03X239258Y131271I283J-283D01*
G01X254127D01*
X259623Y136767D01*
X259628Y136842D01*
G02X263166Y137186I1797J-113D01*
G03X263601Y136890I387J101D01*
G02X265616Y135120I215J-1787D01*
G03X266012Y134724I400J4D01*
G02X267780Y132690I-17J-1800D01*
G03X268080Y132250I397J-52D01*
G02X267444Y128714I-434J-1747D01*
G01X267349Y128725D01*
X261250Y122626D01*
G03X261533Y121944I283J-283D01*
G01X264138D01*
Y118980D01*
X265897Y117220D01*
Y113951D01*
X267563D01*
Y106839D01*
X261632D01*
Y113951D01*
X263297D01*
Y116143D01*
X262837Y116603D01*
X260864D01*
Y117478D01*
X260103D01*
X256409Y113784D01*
Y109788D01*
X257779D01*
Y106514D01*
X255311D01*
X254192Y105395D01*
X255311Y104276D01*
X257779D01*
Y101910D01*
G03X258494Y101663I400J0D01*
G02X260992Y101993I1417J-1111D01*
G03X261632Y102312I240J320D01*
G01Y104109D01*
G37*
G36*
G01X340697Y119589D02*
X342608D01*
Y114248D01*
X342606D01*
G03X342443Y113933I0J-200D01*
G02X339500I-1472J-1037D01*
G03X339336Y114248I-163J115D01*
G01X339334D01*
Y118226D01*
G03X338652Y118509I-400J0D01*
G01X337096Y116954D01*
Y114248D01*
X333823D01*
Y115792D01*
X329370D01*
Y115360D01*
X321667D01*
Y119323D01*
X329370D01*
Y118892D01*
X333823D01*
Y119589D01*
X335347D01*
X335534Y119776D01*
G03X335251Y120459I-283J283D01*
G01X333931D01*
Y120792D01*
X329370D01*
Y120360D01*
X321667D01*
Y120594D01*
G03X321477Y120793I-200J0D01*
G02X318038Y124342I111J3549D01*
G01Y131886D01*
X317809D01*
Y137227D01*
X321082D01*
Y135112D01*
X321138Y135056D01*
Y124342D01*
G03X321370Y123948I451J0D01*
G01X321375Y123946D01*
G03X321423Y123923I213J397D01*
G01X321667D01*
Y124323D01*
X329370D01*
Y123892D01*
X333931D01*
Y125799D01*
X337204D01*
Y122412D01*
G03X337887Y122129I400J0D01*
G01X339443Y123685D01*
Y125799D01*
X342716D01*
Y120459D01*
X340602D01*
X340414Y120272D01*
G03X340697Y119589I283J-283D01*
G37*
G36*
G01X76923Y182066D02*
X76802Y182112D01*
X53930Y159240D01*
Y155912D01*
X48590D01*
Y159186D01*
X49915D01*
X74695Y183965D01*
X74625Y184096D01*
G02X76923Y182066I3839J2031D01*
G37*
G36*
G01X374913Y150792D02*
X375825D01*
Y150981D01*
X376946D01*
Y152856D01*
X381480Y157390D01*
X398377D01*
X400975Y154792D01*
X401093Y154832D01*
G02X398784Y152598I1205J-3554D01*
G01X397093Y154290D01*
X395683D01*
G03X395372Y153638I0J-400D01*
G02X389537I-2918J-2360D01*
G03X389226Y154290I-311J252D01*
G01X382764D01*
X380046Y151572D01*
Y150981D01*
X381166D01*
Y147707D01*
X375825D01*
Y147991D01*
X374913D01*
G02Y150792I-1131J1400D01*
G37*
G36*
G01X321181Y142015D02*
Y141089D01*
X317907D01*
Y146429D01*
X321181D01*
Y145503D01*
G03X321825Y145186I400J0D01*
G02Y142332I1098J-1427D01*
G03X321181Y142015I-244J-317D01*
G37*
G36*
G01X308975Y140859D02*
G02X306215I-1380J-1156D01*
G03X306062Y141187I-153J128D01*
G01X305958D01*
Y146528D01*
X309232D01*
Y141187D01*
X309129D01*
G03X308975Y140859I0J-200D01*
G37*
G36*
G01X393735Y162874D02*
X332102D01*
G03X327895Y161131I0J-5950D01*
G01X317039Y150275D01*
G03X315582Y146760I3515J-3515D01*
G01Y146429D01*
X315669D01*
Y141089D01*
X315582D01*
Y134013D01*
X315571Y134001D01*
Y131886D01*
X312297D01*
Y137227D01*
X312482D01*
Y141089D01*
X312396D01*
Y146429D01*
X312482D01*
Y146760D01*
G02X314846Y152467I8071J0D01*
G01X325703Y163324D01*
G02X332102Y165975I6400J-6400D01*
G01X393734D01*
G03X397942Y167717I0J5950D01*
G01X413762Y183538D01*
X413666Y183675D01*
G02X416592Y181869I3558J2491D01*
G01X416493Y181884D01*
X400134Y165525D01*
G02X393735Y162874I-6400J6400D01*
G37*
G36*
G01X378655Y128572D02*
X376671D01*
Y136471D01*
X384571D01*
Y128572D01*
X382587D01*
G03X382230Y127992I0J-400D01*
G02X379012I-1609J-808D01*
G03X378655Y128572I-357J179D01*
G37*
G36*
G01X294368Y122428D02*
Y119041D01*
X291095D01*
Y124381D01*
X292415D01*
G03X292698Y125064I0J400D01*
G01X292530Y125232D01*
X291321D01*
Y130572D01*
X294594D01*
Y127552D01*
X296150Y125997D01*
G03X296833Y126279I283J283D01*
G01Y130572D01*
X300106D01*
Y129323D01*
X304048D01*
X305039Y130314D01*
G03X305801Y131660I-2051J2050D01*
G01Y137177D01*
X309075D01*
Y131837D01*
X308968D01*
X308947Y131660D01*
G02X308110Y129239I-5959J703D01*
G01Y125360D01*
X300106D01*
Y125232D01*
X297880D01*
G03X297598Y124549I0J-400D01*
G01X297765Y124381D01*
X299880D01*
Y123892D01*
X300407D01*
Y124323D01*
X308110D01*
Y120360D01*
X300407D01*
Y120792D01*
X299880D01*
Y119041D01*
X296606D01*
Y121156D01*
X295051Y122711D01*
G03X294368Y122428I-283J-283D01*
G37*
G36*
G01X270139Y118550D02*
G02X268778Y116442I404J-1754D01*
G01X268746Y116603D01*
X266376D01*
Y121944D01*
X269649D01*
Y118939D01*
G03X270139Y118550I400J0D01*
G37*
G36*
G01X411577Y113493D02*
X410992D01*
Y116766D01*
X416332D01*
Y113493D01*
X415747D01*
G03X415368Y112965I0J-400D01*
G02X411956I-1706J-575D01*
G03X411577Y113493I-379J128D01*
G37*
G36*
G01X367651Y102755D02*
G03X367169Y102509I-107J-386D01*
G01X359442D01*
Y106472D01*
X367169D01*
G03X367651Y106226I375J139D01*
G02Y102755I479J-1735D01*
G37*
G36*
G01X367625Y97728D02*
G03X367184Y97509I-81J-392D01*
G01X359442D01*
Y101472D01*
X367184D01*
G03X367625Y101254I360J173D01*
G02Y97728I364J-1763D01*
G37*
G36*
G01X313210Y102071D02*
Y100886D01*
X313625D01*
Y95545D01*
X310352D01*
Y100886D01*
X310610D01*
Y102071D01*
X310273D01*
Y107411D01*
X310610D01*
Y114420D01*
X308988Y116042D01*
X308110D01*
Y115360D01*
X300407D01*
Y119323D01*
X308110D01*
Y118642D01*
X310065D01*
X313210Y115497D01*
Y107411D01*
X313547D01*
Y102071D01*
X313210D01*
G37*
G36*
G01X367616Y92720D02*
G03X367189Y92509I-72J-393D01*
G01X359442D01*
Y96472D01*
X367189D01*
G03X367616Y96261I356J183D01*
G02Y92720I324J-1771D01*
G37*
G36*
G01X464142Y76924D02*
X467386D01*
Y72732D01*
G03X468068Y72449I400J0D01*
G01X469624Y74005D01*
Y76924D01*
X472897D01*
Y76777D01*
G03X473580Y76494I400J0D01*
G01X475269Y78182D01*
Y88126D01*
X473457Y89938D01*
X473045D01*
Y89507D01*
X465342D01*
Y93469D01*
X473045D01*
Y93038D01*
X474742D01*
X478369Y89411D01*
Y76898D01*
X474174Y72703D01*
X472897D01*
Y71583D01*
X471587D01*
X468641Y68638D01*
X461810D01*
X458864Y71583D01*
X457813D01*
Y76924D01*
X461193D01*
G02X464142I1475J-1033D01*
G37*
G36*
G01X459299Y64790D02*
Y67091D01*
X463163D01*
Y59979D01*
X459299D01*
Y61690D01*
X456018D01*
Y60570D01*
X452744D01*
Y65910D01*
X456018D01*
Y64790D01*
X459299D01*
G37*
G36*
G01X419568Y51263D02*
G02Y54489I-799J1613D01*
G03X420145Y54847I178J358D01*
G01Y56432D01*
X424010D01*
Y49320D01*
X420145D01*
Y50904D01*
G03X419568Y51263I-400J0D01*
G37*
G36*
G01X8907Y46192D02*
G02X6518I-1195J-3558D01*
G03Y46950I-127J379D01*
G02Y54066I1195J3558D01*
G03Y54824I-127J379D01*
G02X8907I1195J3558D01*
G03Y54066I127J-379D01*
G02Y46950I-1195J-3558D01*
G03Y46192I127J-379D01*
G37*
G36*
G01Y80532D02*
G02X6518I-1195J-3558D01*
G03Y81291I-127J379D01*
G02Y88406I1195J3558D01*
G03Y89165I-127J379D01*
G02X8907I1195J3558D01*
G03Y88406I127J-379D01*
G02Y81291I-1195J-3558D01*
G03Y80532I127J-379D01*
G37*
G36*
G01X417987Y98756D02*
G03X418030Y99456I-171J362D01*
G02X417228Y100608I960J1523D01*
G01X417194Y100766D01*
X409712D01*
Y101208D01*
G03X409056Y101514I-400J0D01*
G02Y104276I-1155J1381D01*
G03X409712Y104583I257J307D01*
G01Y105024D01*
X418203D01*
Y103145D01*
G03X418673Y102751I400J0D01*
G02X419991Y102475I316J-1772D01*
G01X425151D01*
Y99201D01*
X419254D01*
Y98863D01*
X419384Y98814D01*
G02X419467Y98781I-630J-1686D01*
G01X419505Y98764D01*
X425151D01*
Y95491D01*
X419505D01*
X419467Y95474D01*
G02X417987Y98756I-713J1653D01*
G37*
G36*
G01X304097Y103390D02*
G02Y106092I-1190J1351D01*
G03X304761Y106392I264J300D01*
G01Y107411D01*
X308035D01*
Y102071D01*
X304761D01*
Y103090D01*
G03X304097Y103390I-400J0D01*
G37*
G36*
G01X318384Y102071D02*
Y103210D01*
G03X317697Y103488I-400J0D01*
G02Y105994I-1293J1253D01*
G03X318384Y106272I287J278D01*
G01Y107411D01*
X321658D01*
Y102071D01*
X318384D01*
G37*
G36*
G01X275437Y113951D02*
Y111277D01*
G03X276144Y111021I400J0D01*
G02Y108714I1382J-1153D01*
G03X275437Y108458I-307J-256D01*
G01Y106839D01*
X269506D01*
Y113951D01*
X275437D01*
G37*
G36*
G01X8907Y114873D02*
G02X6518I-1195J-3558D01*
G03Y115631I-127J379D01*
G02Y122747I1195J3558D01*
G03Y123505I-127J379D01*
G02X8907I1195J3558D01*
G03Y122747I127J-379D01*
G02Y115631I-1195J-3558D01*
G03Y114873I127J-379D01*
G37*
G36*
G01X297250Y145764D02*
Y144175D01*
G03X297830Y143818I400J0D01*
G02X299790Y143589I806J-1610D01*
G03X300447Y143896I257J307D01*
G01Y146528D01*
X300533D01*
Y147978D01*
G02X303184Y154378I9050J0D01*
G01X317990Y169184D01*
G02X324389Y171835I6399J-6400D01*
G01X387149D01*
G03X391356Y173578I0J5950D01*
G01X397645Y179866D01*
G03X399256Y182829I-4207J4207D01*
G03X398574Y183187I-391J84D01*
G02X399171Y188345I-3160J2980D01*
G03X399895Y188413I346J201D01*
G02X401450Y191177I8543J-2988D01*
G03X401118Y191830I-309J254D01*
G02X405205Y195975I-251J4336D01*
G03X405888Y195675I400J-18D01*
G01X406450Y196237D01*
G02X407520Y197053I3571J-3572D01*
G02X408505Y193304I4252J-887D01*
G03X407921Y193323I-301J-264D01*
G01X405784Y191186D01*
G03X406088Y190504I283J-283D01*
G02X403117Y183232I231J-4337D01*
G03X402425Y183008I-295J-270D01*
G02X399837Y177674I-8988J1065D01*
G01X393548Y171385D01*
G02X387149Y168734I-6400J6400D01*
G01X324389D01*
G03X320182Y166992I0J-5950D01*
G01X305376Y152186D01*
G03X303634Y147978I4207J-4207D01*
G01Y146528D01*
X303720D01*
Y141187D01*
X303634D01*
Y134022D01*
X303563Y133952D01*
Y131837D01*
X300289D01*
Y137177D01*
X300533D01*
Y141187D01*
X300447D01*
Y141223D01*
X300146D01*
X300086Y141141D01*
G02X297830Y140598I-1450J1067D01*
G03X297250Y140240I-179J-358D01*
G01Y138652D01*
X293386D01*
Y145764D01*
X297250D01*
G37*
G54D49*
X417471Y8640D03*
X457470D03*
G54D41*
X17087Y11811D03*
Y208661D03*
X51299Y191127D03*
X236496D03*
X270098Y191166D03*
X455295D03*
X489528Y11811D03*
Y208661D03*
G54D42*
X8428Y175547D03*
X154144Y147500D03*
X196735Y169560D03*
X203830Y222303D03*
X233122Y162602D03*
X274910Y150028D03*
X275233Y215698D03*
X278986Y98627D03*
X295039Y116385D03*
X334405Y139768D03*
X319558Y162327D03*
X340607Y139932D03*
X339844Y151096D03*
X348439Y140454D03*
X369695Y123549D03*
X387335Y60966D03*
X408346Y64974D03*
X398742Y172970D03*
X449751Y142178D03*
X472819Y63535D03*
X467548Y144815D03*
G54D44*
X172758Y154202D03*
X162758D03*
X384883Y80724D03*
X394883D03*
X384883Y70724D03*
X394883D03*
X412140Y151278D03*
X431825D03*
X421982D03*
X451510D03*
X441667D03*
X461352D03*
G54D51*
X468121Y63535D03*
G54D48*
X282093Y160706D03*
X348439Y135735D03*
G54D52*
X464834Y112728D03*
G54D46*
X289649Y159331D03*
X281662Y166598D03*
X289649D03*
X334405Y134409D03*
X340607Y134369D03*
X378496Y143832D03*
X453662Y114460D03*
G54D45*
X293973Y135152D03*
G54D47*
X298675Y160872D03*
G54D43*
X83917Y196127D03*
X138445D03*
X182067D03*
X171161D03*
X176614Y186127D03*
X192972Y196127D03*
X198425Y186127D03*
X187520D03*
X203878Y196127D03*
X209331Y186127D03*
X297264Y186166D03*
X302716Y196166D03*
X313622D03*
X319075Y186166D03*
X324528Y196166D03*
X346339D03*
X357244D03*
X351791Y186166D03*
X368150Y196166D03*
X379055D03*
X362697Y186166D03*
X373602D03*
X389961Y196166D03*
X384508Y186166D03*
X422677Y196166D03*
X428130Y186166D03*
G54D50*
X441969Y37816D03*
Y42816D03*
X447934Y91488D03*
X463229Y47816D03*
Y42816D03*
X469194Y96488D03*
Y101488D03*
%LPD*%
G75*
G36*
G01X157711Y59773D02*
G03X157726Y59773I16J1300D01*
G01X185153D01*
G02X185499Y59172I0J-400D01*
G03X185357Y57680I1558J-901D01*
G02X184979Y57149I-378J-131D01*
G01X164103D01*
Y54696D01*
X161882D01*
G03Y52096I-1245J-1300D01*
G01X164103D01*
Y49643D01*
X176522D01*
G02X176805Y48960I0J-400D01*
G01X176616Y48772D01*
X131979D01*
G02X131672Y49428I0J400D01*
G03X131643Y51776I-1379J1157D01*
G01X131593Y51833D01*
Y52190D01*
X131930D01*
Y57531D01*
X131593D01*
Y59030D01*
X131930D01*
Y64371D01*
X129461D01*
X129210Y64623D01*
Y67017D01*
X129891D01*
Y72554D01*
X125928D01*
Y67017D01*
X126609D01*
Y64371D01*
X123288D01*
G02X122922Y64933I0J400D01*
G03X121388Y67457I-1647J727D01*
G01X121312Y67461D01*
X117926Y70847D01*
X117001D01*
Y72218D01*
X113727D01*
Y66877D01*
X117001D01*
Y67130D01*
G02X117684Y67412I400J0D01*
G01X119473Y65622D01*
X119478Y65547D01*
G03X119534Y65200I1797J113D01*
G02X119148Y64698I-387J-102D01*
G01X114062D01*
Y64493D01*
X113847D01*
X113831Y64496D01*
G03X111757Y62640I-276J-1779D01*
G01X111761Y62552D01*
X111558Y62348D01*
X111153Y62753D01*
Y66877D01*
X111489D01*
Y72218D01*
X108216D01*
Y66877D01*
X108552D01*
Y61676D01*
X108588Y61640D01*
G02X108305Y60958I-283J-283D01*
G01X105007D01*
Y58046D01*
X97711Y50751D01*
X93543D01*
Y54736D01*
X97824D01*
X99086Y55998D01*
X99161Y56003D01*
G03X97252Y57912I-113J1797D01*
G01X97247Y57837D01*
X96747Y57337D01*
X93543D01*
Y62117D01*
X93207D01*
Y63470D01*
X93543D01*
Y65938D01*
X94546Y66941D01*
X96637D01*
G03Y69541I1245J1300D01*
G01X93468D01*
X92738Y68811D01*
X90270D01*
Y63888D01*
G02X89587Y63605I-400J0D01*
G01X89103Y64089D01*
X88032D01*
Y68811D01*
X84758D01*
Y64089D01*
X81889D01*
X77508Y59708D01*
X74049D01*
G03Y57108I-1245J-1300D01*
G01X78586D01*
X82966Y61488D01*
X84758D01*
Y56776D01*
X87613D01*
G02X87896Y56094I0J-400D01*
G01X87226Y55424D01*
X84758D01*
Y54054D01*
X66003D01*
X61152Y49203D01*
X32840D01*
X31048Y47411D01*
X30973Y47406D01*
G03X32882Y45496I113J-1797D01*
G01X32887Y45572D01*
X33917Y46602D01*
X41666D01*
G02X41930Y45902I0J-400D01*
G03X44310I1190J-1351D01*
G02X44574Y46602I264J300D01*
G01X62230D01*
X67081Y51453D01*
X83753D01*
G02X84036Y50770I0J-400D01*
G01X83440Y50175D01*
X71558D01*
X67089Y45706D01*
X48919D01*
X32240Y29027D01*
X22390Y38878D01*
Y55190D01*
X27873Y60673D01*
X47424D01*
X59334Y72583D01*
Y79103D01*
X59571D01*
Y81218D01*
X61126Y82773D01*
G02X61809Y82490I283J-283D01*
G01Y79103D01*
X65083D01*
Y80223D01*
X67449D01*
Y79103D01*
X70722D01*
Y81218D01*
X72278Y82773D01*
G02X72960Y82490I283J-283D01*
G01Y79103D01*
X76234D01*
Y84444D01*
X74914D01*
G02X74631Y85126I0J400D01*
G01X76147Y86643D01*
Y88207D01*
X76234D01*
Y90322D01*
X79462Y93550D01*
X87405D01*
Y97513D01*
X79702D01*
Y97082D01*
X78609D01*
X75075Y93548D01*
X72960D01*
Y88207D01*
X72978D01*
X73047Y88041D01*
Y87927D01*
X71568Y86448D01*
G02X70885Y86721I-283J283D01*
G03X70429Y87874I-1800J-44D01*
G01X70379Y88007D01*
G02X70578Y88207I200J0D01*
G01X70722D01*
Y93548D01*
X67449D01*
Y88207D01*
X67592D01*
G02X67792Y88007I0J-200D01*
G01X67742Y87874D01*
G03X69525Y84931I1344J-1198D01*
G01X69635Y84958D01*
X69857Y84737D01*
X69563Y84444D01*
X67449D01*
Y83323D01*
X65083D01*
Y84444D01*
X63762D01*
G02X63479Y85126I0J400D01*
G01X64996Y86643D01*
Y88207D01*
X65083D01*
Y93548D01*
X61809D01*
Y88207D01*
X61826D01*
X61896Y88041D01*
Y87927D01*
X58412Y84444D01*
X56297D01*
Y79103D01*
X56534D01*
Y73743D01*
X46264Y63473D01*
X26713D01*
X23073Y59833D01*
G02X22390Y60116I-283J283D01*
G01Y75022D01*
X26646Y79277D01*
X29114D01*
Y84618D01*
X25840D01*
Y83248D01*
X25189D01*
X25132Y83298D01*
G03X22999Y83482I-1191J-1350D01*
G02X22390Y83822I-209J341D01*
G01Y106017D01*
X22678Y106305D01*
X22862Y106120D01*
X22874Y106061D01*
G03X25295Y104731I1766J348D01*
G02X25840Y104359I145J-373D01*
G01Y103738D01*
X29114D01*
Y109079D01*
X26417D01*
G02X26135Y109762I0J400D01*
G01X26226Y109853D01*
X29114D01*
Y115194D01*
X25840D01*
Y113824D01*
X24726D01*
G03X22916Y114233I-1245J-1300D01*
G02X22390Y114612I-126J380D01*
G01Y136474D01*
X22700Y136784D01*
X22880Y136603D01*
X22894Y136549D01*
G03X25295Y135307I1747J435D01*
G02X25840Y134935I145J-373D01*
G01Y134314D01*
X29114D01*
Y139655D01*
X26536D01*
G02X26254Y140338I0J400D01*
G01X27323Y141407D01*
X40169D01*
X54448Y127128D01*
X93136D01*
X95179Y125085D01*
Y123080D01*
X94679Y122580D01*
G02X93996Y122863I-283J283D01*
G01Y124492D01*
X88656D01*
Y121218D01*
X92352D01*
G02X92634Y120536I0J-400D01*
G01X91079Y118980D01*
X88656D01*
Y118744D01*
X87075D01*
X86893Y118926D01*
Y120305D01*
G03X84283Y121520I-1588J0D01*
G02X83768I-258J306D01*
G03X81724I-1022J-1215D01*
G02X81209I-258J306D01*
G03X79165I-1022J-1215D01*
G02X78650I-258J306D01*
G03X76606I-1022J-1215D01*
G02X76091I-257J306D01*
G03X74047I-1022J-1215D01*
G02X73532I-258J306D01*
G03X71488I-1022J-1215D01*
G02X70973I-257J306D01*
G03X68929I-1022J-1215D01*
G02X68414I-258J306D01*
G03X66370I-1022J-1215D01*
G02X65855I-257J306D01*
G03X63811I-1022J-1215D01*
G02X63296I-258J306D01*
G03X61252I-1022J-1215D01*
G02X60737I-257J306D01*
G03X58693I-1022J-1215D01*
G02X58178I-258J306D01*
G03X55568Y120305I-1022J-1215D01*
G01Y116762D01*
G03X55798Y115939I1588J0D01*
G02X55443Y115332I-342J-207D01*
G03X56876Y114549I-54J-1799D01*
G02X57196Y115175I330J226D01*
G03X57842Y115330I-40J1587D01*
G02X58414Y114969I173J-361D01*
G01Y112534D01*
G03X60975Y110003I1300J-1245D01*
G02X61255I140J-143D01*
G03X63775I1260J1286D01*
G02X64055I140J-143D01*
G03X66575I1260J1286D01*
G02X66855I140J-143D01*
G03X69375I1260J1286D01*
G02X69655I140J-143D01*
G03X72175I1260J1286D01*
G02X72455I140J-143D01*
G03X74975I1260J1286D01*
G02X75255I140J-143D01*
G03X77775I1260J1286D01*
G02X78055I140J-143D01*
G03X80615Y112534I1260J1286D01*
G01Y114128D01*
X80225Y114517D01*
G02X80443Y115195I283J283D01*
G03X80793Y115294I-256J1567D01*
G02X81346Y114925I153J-370D01*
G01Y114379D01*
X83249Y112476D01*
X88439D01*
X91669Y115706D01*
X93996D01*
Y117937D01*
X95456Y119397D01*
G02X96139Y119114I283J-283D01*
G01Y116762D01*
G03X98412Y115330I1588J0D01*
G02X98985Y114969I173J-361D01*
G01Y114063D01*
G03X98766Y113784I1300J-1245D01*
G02X98071Y113820I-338J215D01*
G03X97980Y112048I-1610J-806D01*
G02X98676Y112012I338J-215D01*
G03X101545Y111532I1610J806D01*
G02X101825I140J-143D01*
G03X104345I1260J1286D01*
G02X104625I140J-143D01*
G03X107186Y114063I1260J1286D01*
G01Y114810D01*
G02X107662Y115203I400J0D01*
G03X108985Y115547I301J1559D01*
G02X109500I258J-306D01*
G03X111544I1022J1215D01*
G02X112059I257J-306D01*
G03X114103I1022J1215D01*
G02X114618I258J-306D01*
G03X116662I1022J1215D01*
G02X117177I257J-306D01*
G03X119221I1022J1215D01*
G02X119736I258J-306D01*
G03X121364Y115294I1022J1215D01*
G02X121917Y114925I153J-370D01*
G01Y113488D01*
X124242Y111163D01*
X131832D01*
X134235Y113566D01*
Y121214D01*
X135505D01*
Y124488D01*
X130215D01*
X125703Y129000D01*
X126096Y129393D01*
X130164D01*
Y126726D01*
X135840D01*
X135878Y126710D01*
G03X137632Y126895I713J1653D01*
G02X138231Y126726I231J-326D01*
G01X143604D01*
Y127060D01*
X143707D01*
G03X143919Y129835I1245J1300D01*
G02X143604Y129998I-115J164D01*
G01Y129999D01*
X138231D01*
G02X137632Y129831I-368J157D01*
G03X136519Y130161I-1042J-1468D01*
G02X136220Y130844I-16J400D01*
G01X137834Y132457D01*
Y133375D01*
X143388D01*
Y136649D01*
X138630D01*
G02X138348Y137332I0J400D01*
G01X139903Y138887D01*
X143388D01*
Y139467D01*
X144402D01*
G03X147059Y139649I1245J1300D01*
G02X147772Y139401I314J-248D01*
G01Y122500D01*
G02X146030Y118293I-5950J0D01*
G01X125039Y97302D01*
G02X121773Y95949I-3267J3266D01*
G01X120554D01*
Y97070D01*
X117281D01*
Y91729D01*
X120554D01*
Y92849D01*
X121773D01*
G03X127232Y95110I0J7720D01*
G01X148222Y116101D01*
G03X149214Y117278I-6400J6399D01*
G02X149886Y117249I327J-231D01*
G03X150154Y116899I1553J910D01*
G02Y116619I-143J-140D01*
G03Y114099I1286J-1260D01*
G02Y113819I-143J-140D01*
G03X150560Y110989I1286J-1260D01*
G02X150645Y110355I-195J-349D01*
G03X150317Y108235I1265J-1281D01*
G02X149963Y107649I-354J-186D01*
G01X147197D01*
G03X144666Y105088I-1245J-1300D01*
G02Y104808I-143J-140D01*
G03Y102288I1286J-1260D01*
G02Y102008I-143J-140D01*
G03Y99488I1286J-1260D01*
G02Y99208I-143J-140D01*
G03X147197Y96648I1286J-1260D01*
G01X148790D01*
X151285Y99143D01*
X153973D01*
Y95838D01*
X152702D01*
X147713Y90849D01*
X147199D01*
X147142Y90899D01*
G03X144666Y88288I-1191J-1350D01*
G02Y88008I-143J-140D01*
G03X145120Y85152I1286J-1260D01*
G01X145166Y85128D01*
X145306Y84920D01*
X144861Y84620D01*
X144786Y84630D01*
G03X144536Y81045I-232J-1785D01*
G02X144734Y80847I-2J-200D01*
G03X146466Y79066I1800J18D01*
G02X146850Y78641I-15J-400D01*
G03X150060Y77413I1797J-113D01*
G02X150762Y77263I314J-248D01*
G03X150974Y76762I1745J441D01*
G02X150633Y76153I-341J-209D01*
G01X149316D01*
G02X146700Y77236I0J3700D01*
G01X136509Y87427D01*
G03X132054Y89273I-4455J-4455D01*
G01X120554D01*
Y90643D01*
X117281D01*
Y85302D01*
X120554D01*
Y86672D01*
X132054D01*
G02X134670Y85588I0J-3700D01*
G01X144861Y75398D01*
G03X149316Y73552I4455J4455D01*
G01X153973D01*
Y72216D01*
X146217D01*
G03X144577Y69261I-1364J-1175D01*
G02X144909Y68791I-61J-395D01*
G03X148286Y67647I1768J-338D01*
G01X153973D01*
Y65172D01*
G02X153474Y64785I-400J0D01*
G03Y61298I-449J-1743D01*
G02X153973Y60910I100J-387D01*
G01Y59773D01*
X157711D01*
G37*
G36*
G01X79420Y35110D02*
X65882D01*
X47824Y17052D01*
Y14214D01*
X47674Y14175D01*
G03X43584Y7212I1449J-5535D01*
G02X42913Y6830I-387J-100D01*
G01X41990Y7753D01*
Y19278D01*
X34220Y27047D01*
X50079Y42906D01*
X68249D01*
X70464Y45120D01*
G02X71129Y44953I283J-283D01*
G03X73234Y43712I1724J519D01*
G02X73660Y43112I85J-391D01*
G03X79769Y43519I3199J-1963D01*
G02X80079Y44172I310J253D01*
G01X87915D01*
G02X88198Y43489I0J-400D01*
G01X87978Y43270D01*
X85510D01*
Y41201D01*
X79420Y35110D01*
G37*
G36*
G01X52315Y3016D02*
G02X52106Y3757I0J400D01*
G03X50574Y14175I-2982J4883D01*
G01X50424Y14214D01*
Y15975D01*
X66959Y32510D01*
X80497D01*
X82655Y34668D01*
G02X83337Y34357I283J-283D01*
G03X86929Y34111I1796J-126D01*
G02X87328Y34484I399J-27D01*
G01X89068D01*
G02X89351Y33801I0J-400D01*
G01X86485Y30935D01*
X70002D01*
X58068Y19002D01*
Y5439D01*
X59809Y3698D01*
G02X59527Y3016I-283J-283D01*
G01X52315D01*
G37*
G36*
G01X72106Y3757D02*
G03X74514Y10558I-2982J4883D01*
G01X74472Y10678D01*
X91078Y27284D01*
G02X91761Y27001I283J-283D01*
G01Y14214D01*
X91612Y14175D01*
G03X90079Y3757I1450J-5535D01*
G02X89870Y3016I-208J-341D01*
G01X72315D01*
G02X72106Y3757I0J400D01*
G37*
G36*
G01X64170Y3016D02*
X60669Y6517D01*
Y17925D01*
X71079Y28335D01*
X87563D01*
X93760Y34533D01*
X94167D01*
G02X94308Y34192I0J-200D01*
G01X72984Y12867D01*
X72843Y12987D01*
G03X66142Y3757I-3719J-4348D01*
G02X65933Y3016I-208J-341D01*
G01X64170D01*
G37*
G36*
G01X74098Y46772D02*
G03X73798Y47004I-1245J-1300D01*
G01X73904Y47374D01*
X83878D01*
G03X85151Y48191I0J1400D01*
G01X85166Y48223D01*
X87026Y50083D01*
X88032D01*
Y52551D01*
X89587Y54107D01*
G02X90270Y53824I283J-283D01*
G01Y50083D01*
X90391D01*
G02X90533Y49742I0J-200D01*
G01X87563Y46772D01*
X74098D01*
G37*
G36*
G01X108862Y34308D02*
Y30732D01*
X102149Y24019D01*
Y6919D01*
X105370Y3698D01*
G02X105087Y3016I-283J-283D01*
G01X96252D01*
G02X96043Y3757I0J400D01*
G03X94511Y14175I-2982J4883D01*
G01X94361Y14214D01*
Y26911D01*
X103200Y35751D01*
G02X103542Y35609I141J-141D01*
G01Y35222D01*
G03X106000Y33844I681J-1666D01*
G02X106395Y34308I395J64D01*
G01X108862D01*
G37*
G36*
G01X100001Y36228D02*
G02X99318Y36511I-283J283D01*
G01Y37806D01*
X93744D01*
Y38240D01*
X95548Y40045D01*
X99318D01*
Y43318D01*
X93977D01*
Y42151D01*
X91143Y39317D01*
Y37758D01*
X86710D01*
G02X86427Y38440I0J400D01*
G01X87983Y39996D01*
X90851D01*
Y42464D01*
X94558Y46171D01*
X108978D01*
G02X109260Y45488I0J-400D01*
G01X106865Y43093D01*
X103542D01*
Y39770D01*
X100001Y36228D01*
G37*
G36*
G01X88032Y57195D02*
Y60517D01*
G02X88714Y60800I400J0D01*
G01X90270Y59245D01*
Y57337D01*
X89139D01*
X88714Y56912D01*
G02X88032Y57195I-283J283D01*
G37*
G36*
G01X116252Y3016D02*
G02X116043Y3757I0J400D01*
G03X114510Y14175I-2982J4883D01*
G01X114361Y14214D01*
Y33689D01*
X114813Y34141D01*
X117281D01*
Y37414D01*
X113180D01*
G02X112897Y38097I0J400D01*
G01X114452Y39653D01*
X117281D01*
Y39806D01*
G02X117946Y40106I400J0D01*
G03X120304Y40085I1191J1350D01*
G02X120633Y39933I130J-152D01*
G01Y39820D01*
X126208D01*
Y38426D01*
X125363Y37581D01*
X120633D01*
Y34308D01*
X122003D01*
Y29670D01*
X135699Y15975D01*
Y14214D01*
X135549Y14175D01*
G03X134017Y3757I1450J-5535D01*
G02X133808Y3016I-208J-341D01*
G01X116252D01*
G37*
G36*
G01X109730D02*
X104749Y7997D01*
Y22942D01*
X111078Y29271D01*
G02X111761Y28988I283J-283D01*
G01Y14214D01*
X111612Y14175D01*
G03X110079Y3757I1450J-5535D01*
G02X109870Y3016I-208J-341D01*
G01X109730D01*
G37*
G36*
G01X105997Y37581D02*
G02X105714Y38264I0J400D01*
G01X107269Y39820D01*
X108883D01*
Y41433D01*
X111700Y44250D01*
X126951D01*
G02X127234Y43567I0J-400D01*
G01X126657Y42990D01*
G02X126017Y43093I-283J283D01*
G01X120633D01*
Y42979D01*
G02X120304Y42827I-200J0D01*
G03X117946Y42806I-1167J-1371D01*
G02X117324Y42926I-265J300D01*
G01X111941D01*
Y40818D01*
X108862Y37739D01*
Y37581D01*
X105997D01*
G37*
G36*
G01X100375Y48772D02*
G02X100092Y49454I0J400D01*
G01X107633Y56995D01*
X110544D01*
Y58718D01*
G02X111227Y59001I400J0D01*
G01X114062Y56166D01*
Y53255D01*
X119599D01*
Y55903D01*
G02X120128Y56282I400J0D01*
G03X122489Y57732I579J1705D01*
G01X122498Y57798D01*
X123731Y59030D01*
X126418D01*
Y62771D01*
G02X127101Y63054I400J0D01*
G01X128656Y61499D01*
Y59030D01*
X128993D01*
Y57531D01*
X128656D01*
Y52190D01*
X128993D01*
Y51833D01*
X128943Y51776D01*
G03X128914Y49428I1350J-1191D01*
G02X128607Y48772I-306J-257D01*
G01X100375D01*
G37*
G36*
G01X116688Y57218D02*
X113188Y60718D01*
X113391Y60922D01*
X113479Y60918D01*
G03X113831Y60938I77J1799D01*
G01X113847Y60940D01*
X114062D01*
Y60735D01*
X119599D01*
Y63867D01*
G02X120231Y64193I400J0D01*
G03X122477Y64320I1043J1467D01*
G02X123144Y64022I267J-298D01*
G01Y62404D01*
X120518Y59778D01*
X120452Y59769D01*
G03X118932Y57685I255J-1782D01*
G02X118538Y57218I-394J-67D01*
G01X116688D01*
G37*
G36*
G01X131902Y136649D02*
G02X131619Y137332I0J400D01*
G01X133174Y138888D01*
X135289D01*
Y142161D01*
X129949D01*
Y141925D01*
X127464D01*
Y142844D01*
G03X124854Y144059I-1588J0D01*
G02X124339I-258J306D01*
G03X122295I-1022J-1215D01*
G02X121780I-257J306D01*
G03X119736I-1022J-1215D01*
G02X119221I-258J306D01*
G03X117177I-1022J-1215D01*
G02X116662I-258J306D01*
G03X114618I-1022J-1215D01*
G02X114103I-258J306D01*
G03X112059I-1022J-1215D01*
G02X111544I-257J306D01*
G03X110840Y144400I-1022J-1215D01*
G02X110637Y145075I80J392D01*
G01X111437Y145874D01*
X116455D01*
X120441Y149860D01*
Y150399D01*
X121711D01*
Y153672D01*
X116371D01*
Y150399D01*
X116536D01*
G02X116678Y150057I0J-200D01*
G01X115295Y148675D01*
X110815D01*
G02X110533Y149357I0J400D01*
G01X111573Y150398D01*
X113900D01*
Y153672D01*
X109102D01*
G02X108730Y154219I0J400D01*
G03X108837Y154624I-1675J661D01*
G01X108847Y154690D01*
X110066Y155910D01*
X113900D01*
Y159184D01*
X108560D01*
Y158364D01*
X106866Y156671D01*
X106800Y156661D01*
G03X106592Y156619I255J-1782D01*
G02X106090Y157005I-103J387D01*
G01Y159184D01*
X100749D01*
Y158393D01*
X99753Y157397D01*
G02X99071Y157656I-283J283D01*
G03X98365Y158981I-1797J-107D01*
G02X98608Y159699I243J318D01*
G01X119449D01*
X141979Y182228D01*
X142105Y182171D01*
G03X147079Y183170I1793J3956D01*
G02X147772Y182898I293J-272D01*
G01Y142134D01*
G02X147059Y141885I-400J0D01*
G03X144402Y142068I-1411J-1118D01*
G01X143388D01*
Y142161D01*
X138048D01*
Y140710D01*
X135233Y137895D01*
Y136649D01*
X131902D01*
G37*
G36*
G01X160190Y3016D02*
G02X159981Y3757I0J400D01*
G03X162456Y6920I-2982J4883D01*
G02X163194Y6982I382J-120D01*
G03X163404Y8942I1603J819D01*
G02X162697Y9159I-309J254D01*
G03X158448Y14175I-5698J-519D01*
G01X158299Y14214D01*
Y17052D01*
X138107Y37244D01*
X134520D01*
Y37581D01*
X128808D01*
Y39819D01*
X134520D01*
Y40156D01*
X136591D01*
X173048Y3698D01*
G02X172766Y3016I-283J-283D01*
G01X160190D01*
G37*
G36*
G01X140190D02*
G02X139981Y3757I0J400D01*
G03X138448Y14175I-2982J4883D01*
G01X138299Y14214D01*
Y17052D01*
X124604Y30748D01*
Y34308D01*
X125974D01*
Y34644D01*
X126104D01*
X128496Y37036D01*
G02X129179Y36754I283J-283D01*
G01Y34307D01*
X134520D01*
Y34644D01*
X137030D01*
X155699Y15975D01*
Y14214D01*
X155549Y14175D01*
G03X154017Y3757I1450J-5535D01*
G02X153808Y3016I-208J-341D01*
G01X140190D01*
G37*
G36*
G01X177409D02*
X138657Y41767D01*
G02X138940Y42450I283J283D01*
G01X179833D01*
X184420Y47038D01*
Y49643D01*
X187725D01*
Y46704D01*
X202792Y31638D01*
X253469D01*
X257313Y35481D01*
X259781D01*
Y36267D01*
G02X260387Y36610I400J0D01*
G03X261822Y36424I929J1542D01*
G02X262334Y36040I112J-384D01*
G01Y35481D01*
X265608D01*
Y39222D01*
G02X266291Y39505I400J0D01*
G01X267846Y37950D01*
Y35481D01*
X270719D01*
G02X271002Y34799I0J-400D01*
G01X266472Y30269D01*
X237576D01*
X224359Y17052D01*
Y14214D01*
X224210Y14175D01*
G03X222677Y3757I1450J-5535D01*
G02X222469Y3016I-208J-341D01*
G01X204126D01*
G02X203917Y3757I0J400D01*
G03X197953I-2982J4883D01*
G02X197744Y3016I-208J-341D01*
G01X184126D01*
G02X183917Y3757I0J400D01*
G03X177953I-2982J4883D01*
G02X177744Y3016I-208J-341D01*
G01X177409D01*
G37*
G36*
G01X208428Y57689D02*
G03X208323Y59181I-1686J631D01*
G02X208674Y59773I351J191D01*
G01X209089D01*
X209146Y59723D01*
G03X209092Y62373I1191J1350D01*
G01X161479D01*
Y63710D01*
X211713D01*
X216484Y58939D01*
X216460Y58831D01*
G03X216570Y57710I1757J-394D01*
G02X216204Y57149I-366J-162D01*
G01X208803D01*
G02X208428Y57689I0J400D01*
G37*
G36*
G01X233633Y40822D02*
Y46554D01*
X235601Y48523D01*
Y57149D01*
X223790D01*
Y76657D01*
X233709Y86575D01*
X233784Y86580D01*
G03X231875Y88489I-113J1797D01*
G01X231870Y88414D01*
X221190Y77734D01*
Y57149D01*
X220229D01*
G02X219863Y57710I0J400D01*
G03X219110Y60000I-1647J727D01*
G01X219086Y60014D01*
X212790Y66310D01*
X172308D01*
G02X172026Y66993I0J400D01*
G01X172763Y67730D01*
X172838Y67734D01*
G03X170929Y69644I-113J1797D01*
G01X170924Y69568D01*
X169634Y68278D01*
X161479D01*
Y85363D01*
X166294D01*
G03Y87964I1245J1300D01*
G01X161479D01*
Y95206D01*
X166978D01*
X168382Y96610D01*
X168457Y96615D01*
G03X168734Y100169I-113J1797D01*
G02X168537Y100842I86J391D01*
G01X169024Y101329D01*
X169099Y101334D01*
G03X167190Y103243I-113J1797D01*
G01X167185Y103168D01*
X163792Y99775D01*
X161479D01*
Y107017D01*
X175841D01*
G03Y109617I1245J1300D01*
G01X161479D01*
Y126702D01*
X233724D01*
X237543Y130520D01*
G02X238225Y130238I283J-283D01*
G01Y122231D01*
G02X237708Y121849I-400J0D01*
G03Y118407I-528J-1721D01*
G02X238225Y118025I117J-382D01*
G01Y93683D01*
G02X237539Y93404I-400J0D01*
G03Y90894I-1290J-1255D01*
G02X238225Y90615I287J-279D01*
G01Y59773D01*
X241963D01*
G03X241978Y59773I16J1300D01*
G01X251460D01*
X253293Y57939D01*
X253297Y57864D01*
G03X254136Y56453I1797J113D01*
G02X254205Y55832I-213J-339D01*
G01X251989Y53615D01*
G03X251523Y52810I1273J-1273D01*
G01X251483Y52662D01*
X243139D01*
X234166Y43690D01*
Y40822D01*
X233633D01*
G37*
G36*
G01X169266Y129302D02*
G02X168921Y129906I0J400D01*
G03X168672Y132068I-1549J917D01*
G01Y133895D01*
X183788D01*
Y132354D01*
X184555Y131586D01*
X184560Y131511D01*
G03X186396Y133423I1797J113D01*
G01X186389Y133430D01*
Y133895D01*
X230574D01*
G02X230894Y133254I0J-400D01*
G03X233772I1439J-1082D01*
G02X234091Y133895I320J240D01*
G01X235601D01*
Y141401D01*
X232885D01*
G02X232602Y142084I0J400D01*
G01X233436Y142917D01*
X255231D01*
G03X255548Y142674I1245J1300D01*
G01X255446Y142303D01*
X245647D01*
X232647Y129302D01*
X169266D01*
G37*
G36*
G01X188758Y57680D02*
G03X188615Y59172I-1700J591D01*
G02X188962Y59773I346J200D01*
G01X204810D01*
G02X205161Y59181I0J-400D01*
G03X205056Y57689I1581J-861D01*
G02X204681Y57149I-375J-140D01*
G01X189135D01*
G02X188758Y57680I0J400D01*
G37*
G36*
G01X213649Y36169D02*
X210011Y39807D01*
Y49643D01*
X231032D01*
Y40822D01*
X228318D01*
Y40215D01*
G02X227779Y39840I-400J0D01*
G03X226345Y39759I-625J-1688D01*
G02X225765Y40117I-180J357D01*
G01Y40822D01*
X225428D01*
Y42314D01*
G03X222828I-1300J1245D01*
G01Y40822D01*
X222491D01*
Y36169D01*
X220253D01*
Y40822D01*
X216979D01*
Y40005D01*
G02X216364Y39668I-400J0D01*
G03X214144Y36856I-970J-1517D01*
G02X213866Y36169I-278J-288D01*
G01X213649D01*
G37*
G36*
G01X195456Y43475D02*
G03X196699Y45075I-553J1713D01*
G01X196704Y45150D01*
X196885Y45332D01*
G02X197568Y45049I283J-283D01*
G01Y43744D01*
G03X200168I1300J-1245D01*
G01Y49643D01*
X207410D01*
Y38730D01*
X211220Y34921D01*
G02X210937Y34238I-283J-283D01*
G01X203869D01*
X195296Y42811D01*
G02X195456Y43475I283J283D01*
G37*
G36*
G01X238653Y27669D02*
X263631D01*
G02X263914Y26986I0J-400D01*
G01X249661Y12733D01*
X249520Y12862D01*
G03X242677Y3757I-3861J-4222D01*
G02X242469Y3016I-208J-341D01*
G01X228850D01*
G02X228642Y3757I0J400D01*
G03X227109Y14175I-2982J4883D01*
G01X226960Y14214D01*
Y15975D01*
X238653Y27669D01*
G37*
G36*
G01X248850Y3016D02*
G02X248642Y3757I0J400D01*
G03X251117Y10358I-2982J4883D01*
G01X251080Y10474D01*
X266275Y25670D01*
X282918D01*
G02X283201Y24987I0J-400D01*
G01X270574Y12360D01*
G02X269988Y12381I-283J283D01*
G03X262677Y3757I-4329J-3741D01*
G02X262469Y3016I-208J-341D01*
G01X248850D01*
G37*
G36*
G01X243613Y36798D02*
G02X242930Y37081I-283J283D01*
G01Y40822D01*
X239657D01*
Y40338D01*
G02X239212Y39941I-400J0D01*
G03X237778Y39462I-200J-1789D01*
G02X237103Y39753I-274J291D01*
G01Y40822D01*
X236767D01*
Y42613D01*
X244216Y50062D01*
X248177D01*
G02X248459Y49379I0J-400D01*
G01X245505Y46424D01*
Y40822D01*
X245168D01*
Y38354D01*
X243613Y36798D01*
G37*
G36*
G01X245413Y34921D02*
X245974Y35481D01*
X248442D01*
Y36228D01*
G02X249036Y36578I400J0D01*
G03X250471Y36441I874J1574D01*
G02X250996Y36061I125J-380D01*
G01Y35481D01*
X252669D01*
G02X252952Y34799I0J-400D01*
G01X252392Y34238D01*
X245696D01*
G02X245413Y34921I0J400D01*
G37*
G36*
G01X248105Y45347D02*
X253299Y50540D01*
X253374Y50545D01*
G03X254534Y51069I-113J1797D01*
G01X256300Y52835D01*
X258418D01*
G02X258700Y52152I0J-400D01*
G01X256844Y50295D01*
Y40822D01*
X256507D01*
Y38354D01*
X254952Y36798D01*
G02X254269Y37081I-283J283D01*
G01Y40822D01*
X250996D01*
Y40242D01*
G02X250471Y39862I-400J0D01*
G03X249036Y39726I-561J-1711D01*
G02X248442Y40075I-194J350D01*
G01Y40822D01*
X248105D01*
Y45347D01*
G37*
G36*
G01X323135Y56435D02*
X320791Y58779D01*
Y63852D01*
X317518D01*
Y63063D01*
G02X317008Y62678I-400J0D01*
G03X315706Y62553I-491J-1732D01*
G02X315126Y62910I-180J357D01*
G01Y75832D01*
X311390Y79568D01*
X307154D01*
Y84108D01*
X303880D01*
Y80367D01*
G02X303197Y80085I-400J0D01*
G01X301642Y81640D01*
Y84108D01*
X298368D01*
Y83505D01*
G02X297831Y83129I-400J0D01*
G03Y79747I-617J-1691D01*
G02X298368Y79371I137J-376D01*
G01Y78768D01*
X300837D01*
X301566Y78039D01*
G02X301283Y77356I-283J-283D01*
G01X298368D01*
Y76756D01*
G02X297833Y76380I-400J0D01*
G03Y72992I-609J-1694D01*
G02X298368Y72615I135J-376D01*
G01Y72016D01*
X300042D01*
G02X300325Y71333I0J-400D01*
G01X299596Y70604D01*
X298368D01*
Y70091D01*
G02X297890Y69699I-400J0D01*
G03X296956Y69637I-352J-1765D01*
G02X296427Y70016I-129J379D01*
G01Y70618D01*
X293176Y73869D01*
X287455D01*
Y74304D01*
G02X288044Y74656I400J0D01*
G03Y77827I853J1585D01*
G02X287455Y78180I-189J352D01*
G01Y78912D01*
X284181D01*
Y75226D01*
G02X283498Y74943I-400J0D01*
G01X281943Y76498D01*
Y78912D01*
X278669D01*
Y78319D01*
G02X278137Y77941I-400J0D01*
G03Y74542I-593J-1700D01*
G02X278669Y74164I132J-378D01*
G01Y73571D01*
X281192D01*
X283495Y71269D01*
X284181D01*
Y66304D01*
X283053D01*
X281943Y67414D01*
Y71382D01*
X279474D01*
X278641Y72216D01*
X245731D01*
Y79458D01*
X249277D01*
X253626Y75109D01*
X253630Y75034D01*
G03X257097Y74474I1797J113D01*
G02X257786Y74566I371J-149D01*
G03X260811Y74814I1433J1089D01*
G02X261477Y74877I354J-187D01*
G03X262998Y77796I1408J1122D01*
G01X262922Y77800D01*
X257446Y83277D01*
G02X257729Y83960I283J283D01*
G01X270284D01*
X273508Y87184D01*
X322874D01*
G02X323266Y86703I0J-400D01*
G03X323376Y85626I1763J-365D01*
G01X323392Y85588D01*
Y79836D01*
X323982D01*
Y72384D01*
X324040D01*
Y65122D01*
X327905D01*
Y67378D01*
X328545D01*
X330734Y65190D01*
Y58624D01*
X332240Y57118D01*
G02X331957Y56435I-283J-283D01*
G01X323135D01*
G37*
G36*
G01X261489D02*
G02X261167Y57073I0J400D01*
G03X261477Y57753I-1447J1070D01*
G02X262147Y57953I390J-87D01*
G03X263517Y61038I1257J1288D01*
G01X263442Y61042D01*
X258174Y66310D01*
X245731D01*
Y69615D01*
X277564D01*
X278669Y68510D01*
Y66042D01*
X279637D01*
X281145Y64535D01*
G02X280862Y63852I-283J-283D01*
G01X278669D01*
Y63106D01*
G02X278075Y62756I-400J0D01*
G03Y59607I-872J-1575D01*
G02X278669Y59257I194J-350D01*
G01Y58511D01*
X279006D01*
Y57932D01*
X279820Y57118D01*
G02X279537Y56435I-283J-283D01*
G01X261489D01*
G37*
G36*
G01X253809Y101003D02*
Y98252D01*
X260431Y91630D01*
Y89162D01*
X263704D01*
Y91630D01*
X265260Y93186D01*
G02X265943Y92903I283J-283D01*
G01Y89162D01*
X268572D01*
G02X268713Y88821I0J-200D01*
G01X268461Y88569D01*
X259367D01*
X257835Y90101D01*
X245731D01*
Y91269D01*
X249421D01*
G03Y93869I1245J1300D01*
G01X245731D01*
Y103080D01*
X252439D01*
Y101003D01*
X253809D01*
G37*
G36*
G01X268850Y3016D02*
G02X268642Y3757I0J400D01*
G03X271338Y9338I-2982J4883D01*
G01X271326Y9435D01*
X290668Y28776D01*
X297910D01*
X306999Y37866D01*
Y43164D01*
X307336D01*
Y48404D01*
X311767Y52835D01*
X316049D01*
G02X316310Y52131I0J-400D01*
G03X316181Y49519I1171J-1367D01*
G01Y48505D01*
X315881D01*
Y43164D01*
X316218D01*
Y41860D01*
X315881D01*
Y36520D01*
X316218D01*
Y35209D01*
X306182Y25173D01*
X296417D01*
X288296Y17052D01*
Y14214D01*
X288147Y14175D01*
G03X286614Y3757I1450J-5535D01*
G02X286406Y3016I-208J-341D01*
G01X268850D01*
G37*
G36*
G01X269116Y28270D02*
G02X268834Y28953I0J400D01*
G01X277683Y37802D01*
X280513D01*
Y36520D01*
X283787D01*
Y41860D01*
X283362D01*
Y43164D01*
X283698D01*
Y48882D01*
G03X280412Y49096I-1595J834D01*
G01X280425Y49063D01*
Y43164D01*
X280761D01*
Y41860D01*
X280513D01*
Y40402D01*
X276605D01*
X271802Y35599D01*
G02X271120Y35882I-283J283D01*
G01Y37950D01*
X276367Y43197D01*
Y52835D01*
X307124D01*
G02X307406Y52152I0J-400D01*
G01X304399Y49144D01*
Y48505D01*
X304062D01*
Y43164D01*
X304399D01*
Y38943D01*
X296833Y31376D01*
X290441D01*
G02X290158Y32059I0J400D01*
G01X294619Y36520D01*
X295517D01*
Y41860D01*
X295180D01*
Y43164D01*
X295517D01*
Y48505D01*
X292243D01*
Y48146D01*
G02X291662Y47790I-400J0D01*
G03X289834Y47676I-817J-1604D01*
G02X289210Y48008I-224J331D01*
G01Y48505D01*
X285936D01*
Y43164D01*
X289210D01*
Y44365D01*
G02X289834Y44696I400J0D01*
G03X291662Y44582I1010J1490D01*
G02X292243Y44226I182J-356D01*
G01Y43164D01*
X292580D01*
Y41860D01*
X292244D01*
Y37822D01*
X282691Y28270D01*
X269116D01*
G37*
G36*
G01X270314Y40822D02*
X268651D01*
X264341Y45132D01*
X264327Y45155D01*
G03X263163Y42500I-1560J-898D01*
G01X263270Y42525D01*
X264290Y41505D01*
G02X264008Y40822I-283J-283D01*
G01X262334D01*
Y40264D01*
G02X261822Y39880I-400J0D01*
G03X260387Y39693I-505J-1728D01*
G02X259781Y40036I-207J343D01*
G01Y40822D01*
X259444D01*
Y49218D01*
X263061Y52835D01*
X273766D01*
Y44274D01*
X270314Y40822D01*
G37*
G36*
G01X261236Y94503D02*
X256409Y99330D01*
Y101003D01*
X257711D01*
G02X258111Y100594I0J-400D01*
G03X260992Y99113I1800J-41D01*
G02X261632Y98793I240J-320D01*
G01Y96997D01*
X264428D01*
G02X264710Y96314I0J-400D01*
G01X262899Y94503D01*
X261236D01*
G37*
G36*
G01X292787Y3016D02*
G02X292579Y3757I0J400D01*
G03X291046Y14175I-2982J4883D01*
G01X290897Y14214D01*
Y15975D01*
X297494Y22573D01*
X307259D01*
X318818Y34132D01*
Y36520D01*
X319155D01*
Y41860D01*
X318818D01*
Y43164D01*
X319155D01*
Y48505D01*
X318781D01*
Y49519D01*
G03X318652Y52131I-1300J1245D01*
G02X318912Y52835I260J304D01*
G01X333029D01*
G02X333345Y52190I0J-400D01*
G03X333468Y49842I1423J-1102D01*
G01Y48505D01*
X333212D01*
Y43164D01*
X333548D01*
Y41860D01*
X333212D01*
Y36474D01*
X310940Y14202D01*
X310833Y14226D01*
G03X306614Y3757I-1237J-5586D01*
G02X306406Y3016I-208J-341D01*
G01X292787D01*
G37*
G36*
G01X287411Y57021D02*
G03X287471Y58571I-1594J837D01*
G01X287455Y58609D01*
Y61286D01*
G02X288137Y61568I400J0D01*
G01X288799Y60906D01*
Y57350D01*
X289031Y57118D01*
G02X288749Y56435I-283J-283D01*
G01X287765D01*
G02X287411Y57021I0J400D01*
G37*
G36*
G01X283358Y57257D02*
X281943Y58672D01*
Y63703D01*
X284181D01*
Y58609D01*
X284165Y58571D01*
G03X284036Y57598I1653J-713D01*
G02X283358Y57257I-396J-58D01*
G37*
G36*
G01X293392Y56435D02*
X291400Y58427D01*
Y61984D01*
X287455Y65929D01*
Y67108D01*
G02X288128Y67400I400J0D01*
G03Y70025I1232J1313D01*
G02X287455Y70316I-274J292D01*
G01Y71269D01*
X292099D01*
X293827Y69541D01*
Y57282D01*
X293991Y57118D01*
G02X293708Y56435I-283J-283D01*
G01X293392D01*
G37*
G36*
G01X311767D02*
X310480Y57722D01*
Y63278D01*
X308305Y65454D01*
G02X308565Y66136I283J283D01*
G03X307719Y69572I-100J1797D01*
G02X307154Y69936I-166J364D01*
G01Y70604D01*
X304239D01*
G02X303956Y71287I0J400D01*
G01X304685Y72016D01*
X307154D01*
Y76968D01*
X310313D01*
X312525Y74755D01*
Y56909D01*
X312658Y56777D01*
G02X312516Y56435I-141J-141D01*
G01X311767D01*
G37*
G36*
G01X303466Y66010D02*
X301642Y67834D01*
Y68972D01*
X303197Y70527D01*
G02X303880Y70245I283J-283D01*
G01Y66010D01*
X303466D01*
G37*
G36*
G01X339856Y43164D02*
Y20738D01*
X332618Y13501D01*
X332485Y13578D01*
G03X326614Y3757I-2889J-4939D01*
G02X326406Y3016I-208J-341D01*
G01X312787D01*
G02X312579Y3757I0J400D01*
G03X313654Y12674I-2982J4883D01*
G02X313654Y13239I284J282D01*
G01X336149Y35733D01*
Y36520D01*
X336485D01*
Y41860D01*
X336149D01*
Y43164D01*
X336485D01*
Y48505D01*
X336068D01*
Y49842D01*
G03X336191Y52190I-1300J1245D01*
G02X336507Y52835I316J245D01*
G01X343227D01*
G02X343510Y52152I0J-400D01*
G01X339862Y48505D01*
X339519D01*
Y43164D01*
X339856D01*
G37*
G36*
G01X336600Y56435D02*
X333334Y59701D01*
Y66267D01*
X329622Y69978D01*
X327905D01*
Y72234D01*
X327846D01*
Y79496D01*
X326666D01*
Y85588D01*
X326682Y85626D01*
G03X325792Y87969I-1653J713D01*
G02X325679Y88614I170J362D01*
G01X335256Y98190D01*
X338182D01*
Y97509D01*
X345884D01*
Y98190D01*
X347272D01*
X349422Y96040D01*
Y93551D01*
G03X349171Y91394I1300J-1245D01*
G02X348826Y90791I-345J-203D01*
G01X345884D01*
Y91472D01*
X338182D01*
Y87478D01*
X335122Y84418D01*
Y82413D01*
X334785D01*
Y77072D01*
X338059D01*
Y82413D01*
X337722D01*
Y83341D01*
X341890Y87509D01*
X345884D01*
Y88190D01*
X353109D01*
Y82413D01*
X352772D01*
Y77072D01*
X356046D01*
Y82413D01*
X355709D01*
Y87406D01*
X356494Y88190D01*
X356608D01*
X361693Y83106D01*
G02X361410Y82423I-283J-283D01*
G01X359736D01*
Y81781D01*
G02X359181Y81412I-400J0D01*
G03Y78093I-697J-1660D01*
G02X359736Y77724I155J-369D01*
G01Y77082D01*
X363010D01*
Y80823D01*
G02X363692Y81106I400J0D01*
G01X365248Y79550D01*
Y78371D01*
X362204Y75327D01*
X359736D01*
Y69987D01*
X363010D01*
Y72455D01*
X364565Y74010D01*
G02X365248Y73728I283J-283D01*
G01Y69987D01*
X368521D01*
Y71210D01*
X370126D01*
G03Y73810I1245J1300D01*
G01X368521D01*
Y75327D01*
X366848D01*
G02X366565Y76010I0J400D01*
G01X367637Y77082D01*
X368521D01*
Y78452D01*
X372548D01*
X374383Y76617D01*
Y59133D01*
X376398Y57118D01*
G02X376116Y56435I-283J-283D01*
G01X362903D01*
X359255Y60084D01*
Y68394D01*
X355416Y72233D01*
X352433D01*
G02X352165Y72929I0J400D01*
G03X350124Y75860I-1207J1335D01*
G02X349539Y76215I-185J355D01*
G01Y77072D01*
X350534D01*
Y79540D01*
X352023Y81029D01*
Y82712D01*
G03X349372Y82766I-1300J1245D01*
G01X349422Y82709D01*
Y82413D01*
X347260D01*
Y76935D01*
X346265D01*
Y72233D01*
X345156D01*
X344027Y73361D01*
Y76935D01*
X343571D01*
Y82807D01*
X343580Y82836D01*
G03X340297Y82491I-1717J542D01*
G01Y77072D01*
X340753D01*
Y75565D01*
X339923D01*
G03Y72964I-1245J-1300D01*
G01X340753D01*
Y71594D01*
X342116D01*
X343139Y70571D01*
G02X342856Y69888I-283J-283D01*
G01X340753D01*
Y68283D01*
X340033D01*
X339976Y68333D01*
G03Y65633I-1191J-1350D01*
G01X340033Y65683D01*
X340753D01*
Y64548D01*
X344027D01*
Y69632D01*
X346265D01*
Y64548D01*
X349539D01*
Y65071D01*
G02X350026Y65461I400J0D01*
G03Y68975I392J1757D01*
G02X349539Y69365I-87J390D01*
G01Y69632D01*
X354339D01*
X356654Y67317D01*
Y59006D01*
X358543Y57118D01*
G02X358260Y56435I-283J-283D01*
G01X346047D01*
X344027Y58455D01*
Y62842D01*
X340753D01*
Y61472D01*
X340308D01*
X340251Y61522D01*
G03Y58822I-1191J-1350D01*
G01X340308Y58872D01*
X340753D01*
Y57502D01*
X341303D01*
X341686Y57118D01*
G02X341404Y56435I-283J-283D01*
G01X336600D01*
G37*
G36*
G01X369024Y36520D02*
Y13806D01*
X369534Y13297D01*
G02X369531Y12728I-283J-283D01*
G03X370551Y3757I4003J-4088D01*
G02X370343Y3016I-208J-341D01*
G01X356724D01*
G02X356516Y3757I0J400D01*
G03X358472Y11528I-2982J4883D01*
G01X358394Y11662D01*
X359786Y13054D01*
Y36520D01*
X360123D01*
Y41860D01*
X359786D01*
Y43164D01*
X360123D01*
Y48505D01*
X359716D01*
Y49115D01*
X359766Y49171D01*
G03X357065I-1350J1191D01*
G01X357115Y49115D01*
Y48505D01*
X356849D01*
Y43164D01*
X357186D01*
Y41860D01*
X356849D01*
Y36520D01*
X357186D01*
Y14131D01*
X356556Y13501D01*
X356422Y13578D01*
G03X350551Y3757I-2889J-4939D01*
G02X350343Y3016I-208J-341D01*
G01X332787D01*
G02X332579Y3757I0J400D01*
G03X334535Y11528I-2982J4883D01*
G01X334457Y11662D01*
X342456Y19660D01*
Y43164D01*
X342792D01*
Y47757D01*
X347870Y52835D01*
X379673D01*
G02X379956Y52152I0J-400D01*
G01X376309Y48505D01*
X374975D01*
Y48458D01*
G02X374415Y48092I-400J0D01*
G03X372503Y47792I-721J-1649D01*
G01X372446Y47742D01*
X371961D01*
Y48505D01*
X368688D01*
Y43164D01*
X369024D01*
Y41860D01*
X368688D01*
Y36520D01*
X369024D01*
G37*
G36*
G01X396724Y3016D02*
G02X396516Y3757I0J400D01*
G03X390645Y13578I-2982J4883D01*
G01X390512Y13501D01*
X377912Y26100D01*
Y43164D01*
X378249D01*
Y46767D01*
X379804Y48323D01*
G02X380487Y48040I283J-283D01*
G01Y43164D01*
X383760D01*
Y48505D01*
X380952D01*
G02X380669Y49188I0J400D01*
G01X384316Y52835D01*
X400966D01*
X418626Y35175D01*
X419754D01*
G02X420036Y34493I0J-400D01*
G01X406370Y20826D01*
Y12418D01*
X396968Y3016D01*
X396724D01*
G37*
G36*
G01X375312Y43164D02*
Y25023D01*
X388673Y11662D01*
X388595Y11528D01*
G03X390551Y3757I4939J-2889D01*
G02X390343Y3016I-208J-341D01*
G01X376724D01*
G02X376516Y3757I0J400D01*
G03X372390Y14246I-2982J4883D01*
G01X372284Y14224D01*
X371625Y14884D01*
Y36520D01*
X371961D01*
Y41860D01*
X371625D01*
Y43164D01*
X371961D01*
Y45142D01*
X372446D01*
X372503Y45092D01*
G03X374415Y44793I1191J1350D01*
G02X374975Y44426I160J-366D01*
G01Y43164D01*
X375312D01*
G37*
G36*
G01X420298Y121697D02*
X419944Y122052D01*
G02X420227Y122735I283J283D01*
G01X427449D01*
Y121697D01*
X420298D01*
G37*
G36*
G01X440756Y98892D02*
Y105887D01*
X441342D01*
X444082Y103147D01*
Y101253D01*
X441438Y98609D01*
G02X440756Y98892I-283J283D01*
G37*
%LPC*%
G75*
G36*
G01X34626Y128199D02*
X31352D01*
Y133540D01*
X31689D01*
Y134314D01*
X31352D01*
Y139655D01*
X34626D01*
Y138363D01*
X35375D01*
X35432Y138413D01*
G02Y135713I1191J-1350D01*
G01X35375Y135763D01*
X34626D01*
Y134314D01*
X34289D01*
Y133540D01*
X34626D01*
Y132876D01*
G03X35190Y132512I400J0D01*
G02Y129227I737J-1642D01*
G03X34626Y128862I-164J-365D01*
G01Y128199D01*
G37*
G36*
G01X25840D02*
Y128820D01*
G03X25295Y129192I-400J0D01*
G02Y132546I-654J1677D01*
G03X25840Y132919I145J373D01*
G01Y133540D01*
X29114D01*
Y128199D01*
X25840D01*
G37*
G36*
G01X25840Y122084D02*
Y122704D01*
G03X25295Y123077I-400J0D01*
G02Y126431I-654J1677D01*
G03X25840Y126804I145J373D01*
G01Y127424D01*
X29114D01*
Y122084D01*
X25840D01*
G37*
G36*
G01X36014Y123405D02*
X34626D01*
Y122084D01*
X34289D01*
Y121309D01*
X34626D01*
Y119939D01*
X35238D01*
X35295Y119989D01*
G02Y117289I1191J-1350D01*
G01X35238Y117339D01*
X34626D01*
Y115969D01*
X31352D01*
Y121309D01*
X31689D01*
Y122084D01*
X31352D01*
Y127424D01*
X34626D01*
Y126005D01*
X36014D01*
G02Y123405I1245J-1300D01*
G37*
G36*
G01X25840Y115969D02*
Y116589D01*
G03X25295Y116962I-400J0D01*
G02Y120316I-654J1677D01*
G03X25840Y120688I145J373D01*
G01Y121309D01*
X29114D01*
Y115969D01*
X25840D01*
G37*
G36*
G01X34626Y110475D02*
Y109853D01*
X31352D01*
Y115194D01*
X34626D01*
Y114572D01*
G03X35172Y114200I400J0D01*
G02Y110848I657J-1676D01*
G03X34626Y110475I-146J-372D01*
G37*
G36*
G01X35206Y105107D02*
X35150Y105157D01*
X34626D01*
Y103738D01*
X34289D01*
Y102964D01*
X34626D01*
Y101594D01*
X35120D01*
X35177Y101644D01*
G02Y98943I1191J-1350D01*
G01X35120Y98993D01*
X34626D01*
Y97623D01*
X31352D01*
Y102964D01*
X31689D01*
Y103738D01*
X31352D01*
Y109079D01*
X34626D01*
Y107758D01*
X35150D01*
X35206Y107808D01*
G02Y105107I1191J-1350D01*
G37*
G36*
G01X25840Y97623D02*
Y98244D01*
G03X25295Y98616I-400J0D01*
G02Y101970I-654J1677D01*
G03X25840Y102343I145J373D01*
G01Y102964D01*
X29114D01*
Y97623D01*
X25840D01*
G37*
G36*
G01X25840Y91508D02*
Y92128D01*
G03X25295Y92501I-400J0D01*
G02Y95855I-654J1677D01*
G03X25840Y96228I145J373D01*
G01Y96848D01*
X29114D01*
Y91508D01*
X25840D01*
G37*
G36*
G01X55644Y89483D02*
G02Y92272I-1139J1394D01*
G03X56297Y92582I253J310D01*
G01Y93548D01*
X59571D01*
Y88207D01*
X56297D01*
Y89173D01*
G03X55644Y89483I-400J0D01*
G37*
G36*
G01X34626Y85392D02*
X31352D01*
Y90733D01*
X31689D01*
Y91508D01*
X31352D01*
Y96848D01*
X34626D01*
Y95547D01*
X35456D01*
G02Y92946I1245J-1300D01*
G01X34626D01*
Y91508D01*
X34289D01*
Y90733D01*
X34626D01*
Y90180D01*
G03X35135Y89795I400J0D01*
G02Y86331I491J-1732D01*
G03X34626Y85946I-109J-385D01*
G01Y85392D01*
G37*
G36*
G01X25840D02*
Y86013D01*
G03X25295Y86386I-400J0D01*
G02Y89740I-654J1677D01*
G03X25840Y90112I145J373D01*
G01Y90733D01*
X29114D01*
Y85392D01*
X25840D01*
G37*
G36*
G01X92936Y89983D02*
Y98216D01*
G03X91921Y99231I-1016J0D01*
G01X87405D01*
Y98550D01*
X79702D01*
Y102513D01*
X87405D01*
Y101832D01*
X91921D01*
G02X95537Y98216I0J-3616D01*
G01Y89984D01*
G03X96716Y88804I1179J0D01*
G01X100962D01*
Y92513D01*
X108664D01*
Y88804D01*
X111769D01*
Y90643D01*
X115042D01*
Y85302D01*
X111769D01*
Y86204D01*
X96716D01*
G02X92936Y89983I0J3780D01*
G37*
G36*
G01X138098Y73815D02*
X138094Y73890D01*
X134443Y77541D01*
X133631D01*
Y76072D01*
X129668D01*
Y81610D01*
X133631D01*
Y80141D01*
X135520D01*
X139932Y75729D01*
X140008Y75724D01*
G02X138098Y73815I-113J-1797D01*
G37*
G36*
G01X73582Y74102D02*
X69012D01*
X67996Y73085D01*
X67991Y73010D01*
G02X66081Y74919I-1797J113D01*
G01X66157Y74924D01*
X67935Y76703D01*
X76001D01*
X78632Y79334D01*
G03X78428Y80009I-283J283D01*
G02X80549Y82130I356J1765D01*
G03X81224Y81926I392J79D01*
G01X83536Y84238D01*
X89035D01*
X91075Y82197D01*
X93543D01*
Y76857D01*
X93207D01*
Y75504D01*
X93543D01*
Y74144D01*
X96049D01*
G02Y71543I1245J-1300D01*
G01X93543D01*
Y70163D01*
X90270D01*
Y75504D01*
X90606D01*
Y76857D01*
X90270D01*
Y79325D01*
X88714Y80880D01*
G03X88032Y80598I-283J-283D01*
G01Y76857D01*
X84758D01*
Y80817D01*
G03X84075Y81100I-400J0D01*
G01X78221Y75246D01*
G03X78345Y74595I283J-283D01*
G02X73898Y73456I-1487J-3446D01*
G03X73582Y74102I-315J246D01*
G37*
G36*
G01X46439Y133352D02*
Y114700D01*
X53330Y107809D01*
G02X53686Y107304I-1273J-1273D01*
G01X53740Y107190D01*
X57557D01*
Y107571D01*
X64669D01*
Y107196D01*
X65646D01*
Y107283D01*
X70986D01*
Y107196D01*
X72006D01*
Y107283D01*
X77346D01*
Y107082D01*
X79702D01*
Y107513D01*
X87405D01*
Y107082D01*
X100962D01*
Y107513D01*
X108664D01*
Y103550D01*
X100962D01*
Y103981D01*
X87405D01*
Y103550D01*
X79702D01*
Y103981D01*
X74148D01*
X74120Y104009D01*
X72006D01*
Y104096D01*
X70986D01*
Y104009D01*
X65646D01*
Y104096D01*
X64669D01*
Y103707D01*
X57557D01*
Y104089D01*
X52312D01*
X51610Y104792D01*
X51560Y104806D01*
G02X51334Y104888I498J1730D01*
G03X50773Y104522I-161J-366D01*
G01Y81583D01*
X40603Y71414D01*
X40607Y71326D01*
G02X39125Y74141I-3749J-176D01*
G01X39264Y74035D01*
X47972Y82743D01*
Y108075D01*
X42839Y113209D01*
Y133352D01*
G02X46439I1800J0D01*
G37*
G36*
G01X111044Y94480D02*
G02X109159Y93782I-1461J1051D01*
G03X108696Y93550I-94J-389D01*
G01X100923D01*
G03X100479Y93770I-361J-172D01*
G02Y97293I-371J1762D01*
G03X100923Y97513I82J391D01*
G01X108696D01*
G03X109159Y97281I368J157D01*
G02X111044Y96583I424J-1750D01*
G03X111769Y96816I325J234D01*
G01Y97070D01*
X111855D01*
Y97280D01*
G03X111419Y98333I-1489J0D01*
G01X111207Y98545D01*
G03X110154Y98981I-1053J-1053D01*
G01X108664D01*
Y98550D01*
X100962D01*
Y102513D01*
X108664D01*
Y102082D01*
X110154D01*
G02X113399Y100738I0J-4590D01*
G01X113612Y100525D01*
G02X114956Y97280I-3245J-3245D01*
G01Y97070D01*
X115042D01*
Y91729D01*
X111769D01*
Y94247D01*
G03X111044Y94480I-400J0D01*
G37*
G36*
G01X34626Y84618D02*
Y83302D01*
G03X35341Y83056I400J0D01*
G02Y80840I1419J-1108D01*
G03X34626Y80593I-315J-246D01*
G01Y79277D01*
X31352D01*
Y84618D01*
X34626D01*
G37*
G36*
G01X126418Y57531D02*
Y51560D01*
X126423Y51538D01*
G02X123144Y52108I-1757J-392D01*
G01Y57531D01*
X126418D01*
G37*
G36*
G01X145270Y159184D02*
Y155910D01*
X139929D01*
Y159184D01*
X141299D01*
Y160161D01*
G02X143900I1300J1245D01*
G01Y159184D01*
X145270D01*
G37*
G36*
G01X129455Y150398D02*
Y148706D01*
G02X126854I-1300J-1245D01*
G01Y150398D01*
X125484D01*
Y153672D01*
X130825D01*
Y150398D01*
X129455D01*
G37*
G36*
G01X138048D02*
X132707D01*
Y152725D01*
X129522Y155910D01*
X125484D01*
Y156200D01*
G03X124768Y156444I-400J0D01*
G02X122265Y156107I-1423J1103D01*
G01X122212Y156147D01*
X121711D01*
Y155910D01*
X116371D01*
Y159184D01*
X121711D01*
Y158947D01*
X122212D01*
X122265Y158987D01*
G02X124768Y158650I1080J-1440D01*
G03X125484Y158895I316J245D01*
G01Y159184D01*
X130825D01*
Y158568D01*
X132024Y157368D01*
G03X132707Y157651I283J283D01*
G01Y159184D01*
X133260D01*
G03X133645Y159693I0J400D01*
G02X137109I1732J491D01*
G03X137494Y159184I385J-109D01*
G01X138048D01*
Y155910D01*
X134448D01*
G03X134165Y155227I0J-400D01*
G01X135721Y153672D01*
X138048D01*
Y153435D01*
X139929D01*
Y153672D01*
X145270D01*
Y150398D01*
X139929D01*
Y150635D01*
X138048D01*
Y150398D01*
G37*
G36*
G01X287642Y81469D02*
Y80944D01*
X284368D01*
Y86284D01*
X287642D01*
Y85759D01*
G03X288131Y85369I400J0D01*
G02Y81859I401J-1755D01*
G03X287642Y81469I-89J-390D01*
G37*
G36*
G01X282130Y86284D02*
Y80944D01*
X278856D01*
Y82098D01*
X278264D01*
X278207Y82048D01*
G02Y84748I-1191J1350D01*
G01X278264Y84698D01*
X278856D01*
Y86284D01*
X282130D01*
G37*
G36*
G01X321015Y65122D02*
X317151D01*
Y72384D01*
X317092D01*
Y79496D01*
X317880D01*
Y80180D01*
G03X317286Y80530I-400J0D01*
G02X317433Y83587I-873J1574D01*
G01X317485Y83552D01*
X317880D01*
Y85177D01*
X321154D01*
Y79836D01*
X320956D01*
Y72234D01*
X321015D01*
Y65122D01*
G37*
G36*
G01X326303Y59322D02*
Y58511D01*
X323029D01*
Y63852D01*
X326303D01*
Y63041D01*
G03X326917Y62703I400J0D01*
G02Y59660I962J-1522D01*
G03X326303Y59322I-214J-338D01*
G37*
G36*
G01X301029Y47899D02*
Y43164D01*
X297755D01*
Y48505D01*
X299799D01*
G03X300136Y49120I0J400D01*
G02X301470Y48297I1518J968D01*
G03X301029Y47899I-41J-398D01*
G37*
G36*
G01X346394Y92759D02*
G03X345908Y92509I-109J-385D01*
G01X338182D01*
Y96472D01*
X345908D01*
G03X346394Y96223I376J136D01*
G02Y92759I491J-1732D01*
G37*
G36*
G01X369901Y63988D02*
X368521D01*
Y62892D01*
X365248D01*
Y68232D01*
X368521D01*
Y66588D01*
X369901D01*
G02Y63988I1245J-1300D01*
G37*
G36*
G01X350194Y61560D02*
G02Y58784I1146J-1388D01*
G03X349539Y58476I-255J-308D01*
G01Y57502D01*
X346265D01*
Y62842D01*
X349539D01*
Y61868D01*
G03X350194Y61560I400J0D01*
G37*
G54D42*
X61319Y59790D03*
X120824Y73539D03*
X120758Y109449D03*
X51577Y32928D03*
X83182Y11486D03*
X72187Y20119D03*
X108378Y19424D03*
X123317Y147004D03*
X144060Y147431D03*
X144628Y18924D03*
X179085Y35927D03*
X197705Y97334D03*
X203644Y76910D03*
X217080Y114591D03*
X203899Y39396D03*
X248224Y19874D03*
X265972Y18159D03*
X272058Y66767D03*
X249165Y98509D03*
X304055Y29812D03*
X318706Y29037D03*
X331750Y20119D03*
X365893Y19179D03*
X363482Y28959D03*
X396606Y36476D03*
X377682Y17473D03*
G54D44*
X36858Y41150D03*
X26858D03*
Y71150D03*
G54D48*
X61113Y98750D03*
G54D46*
X68316Y100134D03*
X74676D03*
X140934Y122851D03*
G54D45*
X86395Y72834D03*
X311211Y45835D03*
X287662Y39190D03*
X299392Y39190D03*
X323030D03*
X329337D03*
X323030Y45835D03*
X329337D03*
X361373Y65562D03*
X352974Y39190D03*
X346668Y45835D03*
X352974D03*
X364813Y39190D03*
Y45835D03*
G54D53*
X124169Y78841D03*
G54D50*
X83553Y90532D03*
%LPD*%
G75*
G54D10*
X17087Y11811D03*
Y208661D03*
X51299Y191127D03*
X236496D03*
X270098Y191166D03*
X455295D03*
X489528Y11811D03*
Y208661D03*
G54D11*
X7713Y58382D03*
Y50508D03*
Y42634D03*
Y76974D03*
Y92722D03*
Y84848D03*
Y111315D03*
Y127063D03*
Y119189D03*
X36858Y41150D03*
X26858D03*
X36858Y71150D03*
X26858D03*
X76858Y41150D03*
Y71150D03*
X172758Y154202D03*
X162758D03*
X192758D03*
X182758D03*
X212758D03*
X202758D03*
X384883Y70724D03*
Y80724D03*
X392455Y151278D03*
X394883Y70724D03*
Y80724D03*
X412140Y151278D03*
X402297D03*
X431825D03*
X421982D03*
X451510D03*
X441667D03*
X461352D03*
G54D20*
X116831Y55236D03*
X107776Y58976D03*
X116831Y62717D03*
G54D30*
X433269Y122216D03*
G54D21*
X127909Y69786D03*
X124169Y78841D03*
X131650D03*
G54D12*
G01X64131Y1215D02*
X45982D01*
X40190Y7007D01*
Y18532D01*
X31958Y26764D01*
G01X20590Y55370D02*
Y38132D01*
X31958Y26764D01*
G01X20590Y55370D02*
Y75215D01*
G01D02*
Y106732D01*
G01D02*
Y137220D01*
X26578Y143207D01*
X40914D01*
X55194Y128929D01*
X93316D01*
G01X52058Y106536D02*
X49372Y109221D01*
G01X44639Y133352D02*
Y113954D01*
X49372Y109221D01*
G01X109691Y1215D02*
X64131D01*
G01X93316Y128929D02*
X123794D01*
G01X177370Y1215D02*
X109691D01*
G01X428160Y40070D02*
X408170Y20080D01*
Y11672D01*
X397713Y1215D01*
X177370D01*
G01X253261Y52342D02*
X255555Y54635D01*
X263022D01*
G01D02*
X275066D01*
G01X284141D02*
X293353D01*
G01X275066D02*
X284141D01*
G01X298312D02*
X304447D01*
G01X293353D02*
X298312D01*
G01X311728D02*
X316638D01*
G01X304447D02*
X311728D01*
G01X316638D02*
X323096D01*
G01D02*
X336561D01*
G01X334405Y128897D02*
X330998D01*
X329442Y127342D01*
X325518D01*
G01X336561Y54635D02*
X346009D01*
G01D02*
X347831D01*
G01D02*
X362865D01*
G01X340607Y128858D02*
X334445D01*
X334405Y128897D01*
G01X356524Y125499D02*
X353177Y128845D01*
X348439D01*
G01D02*
X348427Y128858D01*
X340607D01*
G01X362865Y54635D02*
X380720D01*
G01X356279Y156663D02*
X362067Y150875D01*
Y119956D01*
G01X380720Y54635D02*
X384278D01*
G01D02*
X401712D01*
X419371Y36976D01*
X424467D01*
X428160Y40668D01*
G01Y41793D02*
Y40668D01*
G01D02*
Y40070D01*
X8428Y175547D03*
X31086Y45609D03*
X23942Y81948D03*
X35626Y88063D03*
X36701Y94246D03*
X36760Y81948D03*
X24640Y94178D03*
X24640Y88063D03*
X23481Y112524D03*
X36368Y100293D03*
X36397Y106457D03*
X24641Y100293D03*
X24640Y106408D03*
X35829Y112524D03*
X35927Y130869D03*
X36485Y118639D03*
X37260Y124705D03*
X24640Y118639D03*
X24641Y130869D03*
X24640Y124754D03*
X36623Y137063D03*
X24640Y136984D03*
X51577Y32928D03*
X43120Y44551D03*
X54505Y90878D03*
X55390Y113533D03*
X44639Y133352D03*
X57155Y145156D03*
X72187Y20119D03*
X72853Y45472D03*
X72804Y58408D03*
X66194Y73123D03*
X61319Y59790D03*
X69085Y86676D03*
X76515Y111289D03*
X73715D03*
X70915D03*
X68115D03*
X65315D03*
X62515D03*
X59715D03*
Y137389D03*
X83182Y11486D03*
X85133Y34232D03*
X97294Y72843D03*
X78784Y81773D03*
X79315Y111289D03*
X96461Y113014D03*
X95618Y137729D03*
X82746Y136735D03*
X97274Y157549D03*
X94874Y183946D03*
X108378Y19424D03*
X104223Y33555D03*
X99049Y57800D03*
X97882Y68241D03*
X113556Y62716D03*
X100108Y95532D03*
X109583D03*
X100285Y112818D03*
X103085D03*
X105885D03*
X107055Y154879D03*
X98882Y154546D03*
X97726Y145902D03*
X100285Y148595D03*
X120707Y57987D03*
X130293Y50585D03*
X119137Y41456D03*
X124666Y51146D03*
X121275Y65660D03*
X120824Y73539D03*
X120758Y109449D03*
X128155Y136612D03*
X136590Y128363D03*
X128155Y147461D03*
X123317Y147004D03*
X123345Y157547D03*
X135377Y160184D03*
X144628Y18924D03*
X139895Y73928D03*
X144854Y71040D03*
X146677Y68453D03*
X152508Y77704D03*
X153025Y63041D03*
X145952Y89548D03*
Y86748D03*
X144555Y82845D03*
X146535Y80865D03*
X148646Y78528D03*
X152527Y87308D03*
X145952Y106348D03*
Y103548D03*
Y100748D03*
Y97948D03*
X151439Y115359D03*
Y112559D03*
X151910Y109074D03*
X151439Y118159D03*
X144952Y128360D03*
X145648Y140767D03*
X144060Y147431D03*
X154144Y147500D03*
X142600Y161406D03*
X164797Y7801D03*
X160637Y53396D03*
X172725Y69531D03*
X167539Y86663D03*
X168986Y103130D03*
X168344Y98411D03*
X167372Y130822D03*
X169187Y145099D03*
X160367Y165620D03*
X179085Y35927D03*
X194902Y45188D03*
X187057Y58271D03*
X177086Y108317D03*
X186357Y131624D03*
X187964Y143188D03*
X198868Y42499D03*
X203899Y39396D03*
X206742Y58320D03*
X210337Y61073D03*
X203644Y76910D03*
X197705Y97334D03*
X207584Y145844D03*
X208240Y142609D03*
X196735Y169560D03*
X203830Y222303D03*
X227154Y38152D03*
X215394D03*
X224128Y43559D03*
X218216Y58437D03*
X233671Y88376D03*
X217080Y114591D03*
X232333Y132172D03*
X216394Y147222D03*
X233122Y162602D03*
X248224Y19874D03*
X249910Y38152D03*
X239012D03*
X250666Y92569D03*
X236248Y92149D03*
X248048Y111034D03*
X249165Y98509D03*
X252036Y119776D03*
X237180Y120128D03*
X265972Y18159D03*
X261317Y38152D03*
X262767Y44257D03*
X259720Y58143D03*
X255094Y57977D03*
X255427Y75146D03*
X263404Y59241D03*
X259220Y75656D03*
X262885Y75999D03*
X272058Y66767D03*
X270543Y116795D03*
X259911Y100553D03*
X255427Y123157D03*
X263816Y135103D03*
X261425Y136730D03*
X265995Y132924D03*
X267647Y130503D03*
X256476Y144217D03*
X264914Y141002D03*
X282103Y49715D03*
X290844Y46186D03*
X285818Y57859D03*
X277544Y76242D03*
X277203Y61182D03*
X288896Y76242D03*
X289360Y68712D03*
X288532Y83614D03*
X277016Y83398D03*
X277526Y109868D03*
X278986Y98627D03*
X274910Y150028D03*
X275233Y215698D03*
X304055Y29812D03*
X301654Y50088D03*
X305517Y57759D03*
X297224Y74686D03*
X297538Y67934D03*
X297440Y61182D03*
X308465Y67934D03*
X297215Y81438D03*
X302907Y104741D03*
X295039Y116385D03*
X298635Y142208D03*
X307595Y139703D03*
X331750Y20119D03*
X318706Y29037D03*
X317481Y50764D03*
X316518Y60946D03*
X327879Y61182D03*
X316413Y82104D03*
X325029Y86338D03*
X316404Y104741D03*
X322922Y143759D03*
X319558Y162327D03*
X334768Y51087D03*
X338786Y66983D03*
X339060Y60172D03*
X338678Y74265D03*
X351340Y60172D03*
X350418Y67218D03*
X350958Y74265D03*
X350722Y83957D03*
Y92306D03*
X341863Y83378D03*
X346884Y94491D03*
X336728Y101989D03*
X340971Y112896D03*
X339844Y151096D03*
X334405Y139768D03*
X340607Y139932D03*
X348439Y140454D03*
X365893Y19179D03*
X363482Y28959D03*
X358415Y50362D03*
X371371Y72510D03*
X371146Y65288D03*
X358484Y79752D03*
X367940Y94491D03*
X367660Y89491D03*
X367989Y99491D03*
X368130Y104491D03*
X369695Y123549D03*
X356279Y156663D03*
X377682Y17473D03*
X373694Y46442D03*
X387335Y60966D03*
X380621Y127184D03*
X373782Y149391D03*
X396606Y36476D03*
X408346Y64974D03*
X407901Y102895D03*
X398742Y172970D03*
X418768Y52876D03*
X429495Y69933D03*
X418425Y64126D03*
X418754Y97128D03*
X413662Y112391D03*
X418989Y100979D03*
X430259Y35985D03*
X434162Y69759D03*
X432572Y97088D03*
X432909Y102022D03*
X462668Y75891D03*
X467548Y144815D03*
X449751Y142178D03*
X472819Y63535D03*
G54D40*
G01X417471Y8640D02*
X426718Y-608D01*
G01D02*
X477109D01*
G01X433160Y29184D02*
X417471Y13495D01*
Y8640D01*
G01X483130Y90209D02*
Y46266D01*
X466049Y29184D01*
X433160D01*
G01X477109Y-608D02*
X489528Y11811D01*
G01X483130Y111128D02*
Y90209D01*
G54D31*
X423426Y114716D03*
Y119716D03*
Y124716D03*
Y129716D03*
X443111Y114716D03*
Y129716D03*
Y124716D03*
Y119716D03*
G54D13*
X32989Y94178D03*
X27477D03*
X32989Y81948D03*
X27477D03*
X27477Y88063D03*
X32989D03*
X32989Y106408D03*
X27477D03*
X32989Y112524D03*
X27477D03*
X27477Y100293D03*
X32989D03*
X32989Y124754D03*
X27477D03*
X32989Y136984D03*
X27477D03*
X27477Y130869D03*
X32989D03*
X27477Y118639D03*
X32989D03*
X57934Y81773D03*
Y90878D03*
X63446Y81773D03*
X74597Y90878D03*
X69085D03*
Y81773D03*
X74597D03*
X63446Y90878D03*
X91906Y52753D03*
X86395D03*
X91906Y66140D03*
X86395D03*
X91906Y72834D03*
X86395D03*
Y59447D03*
X91906D03*
X86395Y79527D03*
X91906D03*
X115364Y69547D03*
X109852D03*
X113406Y94399D03*
Y87972D03*
X124781Y54861D03*
X130293D03*
Y61701D03*
X124781D03*
X118917Y94399D03*
Y87972D03*
X229955Y38152D03*
X224128D03*
X218616D03*
X235467D03*
X246805D03*
X241293D03*
X252632D03*
X258144D03*
X269483D03*
X263971D03*
X267580Y91832D03*
X262068D03*
X262501Y119273D03*
X268013D03*
X287662Y39190D03*
X282150D03*
X282061Y45835D03*
X287573D03*
X280306Y61182D03*
X285818D03*
X280306Y68712D03*
X285818D03*
X280306Y76242D03*
X285818D03*
X280493Y83614D03*
X286005D03*
X292958Y127902D03*
X292731Y121711D03*
X288461Y135152D03*
X299392Y39190D03*
X293880D03*
X293880Y45835D03*
X299392D03*
X311211D03*
X305699D03*
X300005Y61182D03*
X305517D03*
X300005Y67934D03*
X305517D03*
Y74686D03*
X300005D03*
Y81438D03*
X305517D03*
X306477Y98215D03*
X311989D03*
X311910Y104741D03*
X306398D03*
X298470Y127902D03*
X301926Y134507D03*
X307438D03*
X298243Y121711D03*
X293973Y135152D03*
X307595Y143858D03*
X302084D03*
X323030Y39190D03*
X317518D03*
X329337D03*
X317518Y45835D03*
X323030D03*
X329337D03*
X319154Y61182D03*
X324666D03*
X325029Y82506D03*
X319517D03*
X325558Y98186D03*
X320047D03*
X325533Y104741D03*
X320021D03*
X319446Y134556D03*
X313934D03*
X319544Y143759D03*
X314032D03*
X334848Y39190D03*
Y45835D03*
X346668D03*
X341156D03*
X342390Y60172D03*
X347902D03*
X342390Y67218D03*
X347902D03*
X342390Y74265D03*
X347902D03*
X348897Y79742D03*
X341934D03*
X336422D03*
X335460Y116918D03*
X340971D03*
X335568Y123129D03*
X341080D03*
X352974Y39190D03*
X358486D03*
X364813D03*
X370324D03*
X358486Y45835D03*
X352974D03*
X370324D03*
X364813D03*
X361373Y65562D03*
X366885D03*
Y72657D03*
X361373D03*
X366885Y79752D03*
X361373D03*
X354409Y79742D03*
X382124Y45835D03*
X376612D03*
X422648Y41793D03*
X428160D03*
X426674Y74254D03*
X421162D03*
X441330Y63240D03*
X435818D03*
X448869D03*
X436211Y135374D03*
X430699D03*
X465749Y74254D03*
X454381Y63240D03*
X453938Y74254D03*
X459450D03*
X471261D03*
G54D22*
X157726Y61073D03*
Y63041D03*
Y65010D03*
Y66978D03*
Y68947D03*
Y70915D03*
Y72884D03*
Y74852D03*
Y76821D03*
Y78789D03*
Y80758D03*
Y82726D03*
Y84695D03*
Y86663D03*
Y88632D03*
Y90600D03*
Y92569D03*
Y94537D03*
Y96506D03*
Y98474D03*
Y100443D03*
Y102412D03*
Y104380D03*
Y106348D03*
Y108317D03*
Y110286D03*
Y112254D03*
Y114222D03*
Y116191D03*
Y118160D03*
Y120128D03*
Y122096D03*
Y124065D03*
Y126034D03*
Y128002D03*
Y129970D03*
X241978Y76821D03*
Y74852D03*
Y72884D03*
Y70915D03*
Y68947D03*
Y66978D03*
Y65010D03*
Y63041D03*
Y61073D03*
Y96506D03*
Y94537D03*
Y92569D03*
Y90600D03*
Y88632D03*
Y86663D03*
Y84695D03*
Y82726D03*
Y80758D03*
Y78789D03*
Y116191D03*
Y114222D03*
Y112254D03*
Y110286D03*
Y108317D03*
Y106348D03*
Y104380D03*
Y102412D03*
Y100443D03*
Y98474D03*
Y129970D03*
Y128002D03*
Y126034D03*
Y124065D03*
Y122096D03*
Y120128D03*
Y118160D03*
G54D32*
X434162Y74533D03*
X447548D03*
G54D14*
X49124Y8640D03*
X69124D03*
X93061D03*
X113061D03*
X136999D03*
X156999D03*
X180935D03*
X200935D03*
X225659D03*
X245659D03*
X265659D03*
X289597D03*
X309596D03*
X329596D03*
X353534D03*
X373534D03*
X393534D03*
X417471D03*
X437470D03*
X457470D03*
G54D23*
X175246Y53396D03*
X173278D03*
X171309D03*
X169341D03*
X167372D03*
X165404D03*
Y137648D03*
X167372D03*
X169341D03*
X171309D03*
X173278D03*
X175246D03*
X192963Y53396D03*
X190994D03*
X189026D03*
X187057D03*
X185089D03*
X183120D03*
X181152D03*
X179183D03*
X177215D03*
Y137648D03*
X179183D03*
X181152D03*
X183120D03*
X185089D03*
X187057D03*
X189026D03*
X190994D03*
X192963D03*
X212648Y53396D03*
X210679D03*
X208711D03*
X206742D03*
X204774D03*
X202805D03*
X200837D03*
X198868D03*
X196900D03*
X194931D03*
Y137648D03*
X196900D03*
X198868D03*
X200837D03*
X202805D03*
X204774D03*
X206742D03*
X208711D03*
X210679D03*
X212648D03*
X232333Y53396D03*
X230364D03*
X228396D03*
X226427D03*
X224459D03*
X222490D03*
X220522D03*
X218553D03*
X216585D03*
X214616D03*
Y137648D03*
X216585D03*
X218553D03*
X220522D03*
X222490D03*
X224459D03*
X226427D03*
X228396D03*
X230364D03*
X232333D03*
X234301Y53396D03*
Y137648D03*
G54D33*
X437593Y88763D03*
Y102149D03*
G54D15*
X57155Y118533D03*
Y141073D03*
X77628Y118533D03*
X75069D03*
X72510D03*
X69951D03*
X67392D03*
X64833D03*
X62274D03*
X59715D03*
Y141073D03*
X62274D03*
X64833D03*
X67392D03*
X69951D03*
X72510D03*
X75069D03*
X77628D03*
X85305Y118533D03*
X82746D03*
X80187D03*
Y141073D03*
X82746D03*
X85305D03*
X115640Y118533D03*
X113081D03*
X110522D03*
X107963D03*
X105404D03*
X102844D03*
X100286D03*
X97726D03*
Y141073D03*
X100286D03*
X102844D03*
X105404D03*
X107963D03*
X110522D03*
X113081D03*
X115640D03*
X125876Y118533D03*
X123317D03*
X120758D03*
X118199D03*
Y141073D03*
X120758D03*
X123317D03*
X125876D03*
G54D24*
X264597Y100553D03*
Y110395D03*
X272471D03*
Y100553D03*
G54D34*
X464834Y112728D03*
Y132019D03*
G54D16*
X51260Y152037D03*
X57234D03*
X51260Y157549D03*
X57234D03*
X68316Y100134D03*
Y105646D03*
X74676Y100134D03*
Y105646D03*
X63209Y152037D03*
X69183D03*
X75158D03*
X63209Y157549D03*
X69183D03*
X75158D03*
X88180Y36121D03*
X96648Y36170D03*
X88180Y41633D03*
X96648Y41682D03*
X91092Y135453D03*
X91326Y117343D03*
Y122855D03*
X91092Y140965D03*
X81132Y152037D03*
X87106D03*
X93081D03*
X81132Y157549D03*
X87106D03*
X93081D03*
X106212Y35944D03*
X114611Y35778D03*
X106212Y41456D03*
X114611Y41289D03*
X111230Y152035D03*
X103419D03*
X111230Y157547D03*
X103419D03*
X123304Y35944D03*
X131849Y35944D03*
X123304Y41456D03*
X131849Y41456D03*
X132619Y135013D03*
X132835Y122851D03*
Y128363D03*
X132619Y140524D03*
X119041Y152035D03*
X128155Y152035D03*
X135377D03*
X119041Y157547D03*
X128155Y157547D03*
X135377D03*
X140718Y135012D03*
X140934Y128363D03*
Y122851D03*
X140718Y140524D03*
X142600Y152035D03*
Y157547D03*
X255109Y102639D03*
Y108151D03*
X260788Y166582D03*
Y161071D03*
X289649Y153819D03*
Y159331D03*
X281662Y166598D03*
Y172110D03*
X289649Y166598D03*
Y172110D03*
X297107Y112330D03*
Y106818D03*
X340607Y134369D03*
Y128858D03*
X334405Y134409D03*
Y128897D03*
X378496Y149344D03*
Y143832D03*
X422481Y97128D03*
Y91616D03*
X428770Y97088D03*
Y91576D03*
X422481Y100838D03*
Y106350D03*
X428652Y106301D03*
Y100789D03*
X413662Y115130D03*
Y130169D03*
Y124657D03*
Y120641D03*
X453662Y114460D03*
Y119972D03*
G54D25*
X267602Y157074D03*
Y166522D03*
X271342D03*
X275083Y157074D03*
Y166522D03*
G54D35*
G01X17087Y-7874D02*
X489528D01*
G03X509213Y11811I0J19685D01*
G01Y208661D01*
G03X489528Y228346I-19685J0D01*
G01X17087D01*
G03X-2598Y208661I0J-19685D01*
G01Y11811D01*
G03X17087Y-7874I19685J0D01*
G54D26*
X288428Y142208D03*
X295318D03*
X325914Y75940D03*
X319024D03*
X319083Y68678D03*
X325972D03*
X422078Y52876D03*
X428967D03*
X422078Y64126D03*
X428967D03*
X468121Y63535D03*
X461231D03*
G54D17*
X61113Y98750D03*
Y105639D03*
X282093Y153816D03*
Y160706D03*
X348439Y135735D03*
Y128845D03*
G54D36*
G01X17087Y1952D02*
Y11811D01*
G01D02*
Y21670D01*
G01X7228Y11811D02*
X17087D01*
G01D02*
X26945D01*
G01X8428Y173547D02*
Y175547D01*
G01D02*
Y177548D01*
G01X6428Y175547D02*
X8428D01*
G01D02*
X10428D01*
G01X17087Y198803D02*
Y208661D01*
G01D02*
Y218520D01*
G01X7228Y208661D02*
X17087D01*
G01D02*
X26945D01*
G01X86395Y52753D02*
Y51291D01*
X83878Y48774D01*
G01X31086Y45609D02*
X33379Y47902D01*
X61691D01*
X66542Y52753D01*
X86395D01*
G01X20590Y75215D02*
X20744D01*
X27477Y81948D01*
G01D02*
X23942D01*
G01X36701Y94246D02*
X33057D01*
X32989Y94178D01*
G01X32989Y88063D02*
Y94178D01*
G01X35626Y88063D02*
X32989D01*
G01X32989Y81948D02*
X36760D01*
G01X27477Y94178D02*
X24640D01*
G01X27477Y88063D02*
X24640D01*
G01Y86063D02*
Y88063D01*
G01D02*
Y90063D01*
G01X24640Y92178D02*
Y94178D01*
G01D02*
Y96178D01*
G01X36760Y79947D02*
Y81948D01*
G01D02*
Y83948D01*
G01Y81948D02*
X38760D01*
G01X27477Y85192D02*
Y88063D01*
G01D02*
Y90933D01*
G01Y88063D02*
X29314D01*
G01X32989Y79077D02*
Y81948D01*
G01D02*
Y84818D01*
G01X31152Y81948D02*
X32989D01*
G01X27477Y91308D02*
Y94178D01*
G01D02*
Y97048D01*
G01Y94178D02*
X29314D01*
G01X20590Y106732D02*
X21266D01*
X27058Y112524D01*
G01D02*
X23481D01*
G01X27477D02*
X27058D01*
G01X32989Y106408D02*
Y100293D01*
G01X36397Y106457D02*
X33038D01*
X32989Y106408D01*
G01X32989Y100293D02*
X36368D01*
G01X27477D02*
X24641D01*
G01X27477Y106408D02*
X24640D01*
G01X32989Y112524D02*
X35829D01*
G01X24640Y116639D02*
Y118639D01*
G01X35829Y110523D02*
Y112524D01*
G01D02*
Y114524D01*
G01Y112524D02*
X37829D01*
G01X27477Y115769D02*
Y118639D01*
G01X32989Y109653D02*
Y112524D01*
G01D02*
Y115394D01*
G01X31152Y112524D02*
X32989D01*
G01X27477Y103538D02*
Y106408D01*
G01D02*
Y109279D01*
G01Y106408D02*
X29314D01*
G01X24641Y98293D02*
Y100293D01*
G01D02*
Y102294D01*
G01X27477Y97423D02*
Y100293D01*
G01D02*
Y103164D01*
G01Y100293D02*
X29314D01*
G01X32989Y136984D02*
Y130869D01*
G01X32989Y130869D02*
X35927D01*
G01X32989Y124754D02*
Y118639D01*
G01X37260Y124705D02*
X33038D01*
X32989Y124754D01*
G01X32989Y118639D02*
X36485D01*
G01X27477D02*
X24640D01*
G01X27477Y130869D02*
X24641D01*
G01X27477Y124754D02*
X24640D01*
G01Y122754D02*
Y124754D01*
G01D02*
Y126754D01*
G01X24641Y128869D02*
Y130869D01*
G01D02*
Y132869D01*
G01X27477Y127999D02*
Y130869D01*
G01D02*
Y133740D01*
G01Y130869D02*
X29314D01*
G01X27477Y134114D02*
Y136984D01*
G01Y121884D02*
Y124754D01*
G01D02*
Y127624D01*
G01Y124754D02*
X29314D01*
G01X24640Y118639D02*
Y120639D01*
G01X27477Y118639D02*
Y121509D01*
G01Y118639D02*
X29314D01*
G01X36623Y137063D02*
X33067D01*
X32989Y136984D01*
G01X27477D02*
X24640D01*
G01X27477D02*
Y139855D01*
G01Y136984D02*
X29314D01*
G01X49124Y8640D02*
Y16514D01*
X66420Y33810D01*
X79958D01*
X87781Y41633D01*
X88180D01*
G01X51577Y30928D02*
Y32928D01*
G01D02*
Y34928D01*
G01X49577Y32928D02*
X51577D01*
G01D02*
X53578D01*
G01X43120Y42551D02*
Y44551D01*
G01X41120D02*
X43120D01*
G01D02*
X45120D01*
G01X57934Y90878D02*
X54505D01*
G01Y88877D02*
Y90878D01*
G01D02*
Y92878D01*
G01X52505Y90878D02*
X54505D01*
G01X57934Y88007D02*
Y90878D01*
G01D02*
Y93748D01*
G01Y90878D02*
X59771D01*
G01X55390Y111533D02*
Y113533D01*
G01D02*
Y115533D01*
G01X53389Y113533D02*
X55390D01*
G01D02*
X57390D01*
G01X57357Y98750D02*
X61113D01*
G01X57155Y118533D02*
Y122093D01*
G01X55368Y118533D02*
X57155D01*
G01X57714Y137389D02*
X59715D01*
G01X57155Y137514D02*
Y141073D01*
G01X55368D02*
X57155D01*
G01X51299Y181269D02*
Y191127D01*
G01D02*
Y200986D01*
G01X41441Y191127D02*
X51299D01*
G01D02*
X61158D01*
G01X64131Y1215D02*
X59368Y5978D01*
Y18463D01*
X70541Y29635D01*
X87024D01*
X92443Y35055D01*
Y38779D01*
X95346Y41682D01*
X96648D01*
G01X69124Y8640D02*
X70595D01*
X96648Y34692D01*
Y36170D01*
G01X72187Y18119D02*
Y20119D01*
G01D02*
Y22120D01*
G01X70187Y20119D02*
X72187D01*
G01D02*
X74187D01*
G01X72853Y45472D02*
X88102D01*
X92081Y49451D01*
X98250D01*
X107776Y58976D01*
G01X61319Y57790D02*
Y59790D01*
G01X91906Y79527D02*
X88496Y82937D01*
X84074D01*
X76539Y75402D01*
X68474D01*
X66194Y73123D01*
G01X91906Y59447D02*
X88565Y62789D01*
X82428D01*
X78047Y58408D01*
X72804D01*
G01X61319Y59790D02*
Y61790D01*
G01X59318Y59790D02*
X61319D01*
G01D02*
X63319D01*
G01X67085Y86676D02*
X69085D01*
G01D02*
X71086D01*
G01X74597Y78903D02*
Y81773D01*
G01X72760D02*
X74597D01*
G01X69085Y90878D02*
Y93748D01*
G01X67249Y90878D02*
X69085D01*
G01D02*
X70922D01*
G01X61113Y96617D02*
Y98750D01*
G01X77628Y118533D02*
X77628Y118534D01*
Y115276D01*
X79315Y113589D01*
Y111289D01*
G01X75069Y118533D02*
Y115035D01*
X76515Y113589D01*
Y111289D01*
G01X72510Y118533D02*
Y114794D01*
X73715Y113589D01*
Y111289D01*
G01X69951Y118533D02*
Y114553D01*
X70915Y113589D01*
Y111289D01*
G01X67392Y118533D02*
Y114312D01*
X68115Y113589D01*
Y111289D01*
G01X64833Y118533D02*
Y114071D01*
X65315Y113589D01*
Y111289D01*
G01X62274Y118533D02*
Y113830D01*
X62515Y113589D01*
Y111289D01*
G01X59715Y118533D02*
Y111289D01*
G01X74676Y98298D02*
Y100134D01*
G01D02*
Y101971D01*
G01X71806Y100134D02*
X74676D01*
G01D02*
X77546D01*
G01X68316Y98298D02*
Y100134D01*
G01D02*
Y101971D01*
G01X65446Y100134D02*
X68316D01*
G01D02*
X71186D01*
G01X61113Y98750D02*
Y100882D01*
G01Y98750D02*
X64869D01*
G01X59715Y135389D02*
Y137389D01*
G01X93061Y8640D02*
Y27450D01*
X106212Y40601D01*
G01X83182Y9485D02*
Y11486D01*
G01D02*
Y13486D01*
G01X81182Y11486D02*
X83182D01*
G01D02*
X85183D01*
G01X88180Y36121D02*
X87022D01*
X85133Y34232D01*
G01Y32231D02*
Y34232D01*
G01X83133D02*
X85133D01*
G01D02*
X87133D01*
G01X88180Y34284D02*
Y36121D01*
G01D02*
Y37958D01*
G01X86395Y52753D02*
X89678Y56036D01*
X97285D01*
X99049Y57800D01*
G01X88180Y41633D02*
X94019Y47471D01*
X177155D01*
X179183Y49500D01*
Y53396D01*
G01X86395Y56576D02*
Y59447D01*
G01X90070Y52753D02*
X91906D01*
G01D02*
X93743D01*
G01X91906Y79527D02*
Y72834D01*
G01X97294Y72843D02*
X91916D01*
X91906Y72834D01*
G01Y66140D02*
Y59447D01*
G01X97882Y68241D02*
X94007D01*
X91906Y66140D01*
G01X86395Y79527D02*
Y72834D01*
G01Y69963D02*
Y72834D01*
G01X84558D02*
X86395D01*
G01D02*
X88232D01*
G01X86395Y66140D02*
Y69011D01*
G01X84558Y66140D02*
X86395D01*
G01D02*
X88232D01*
G01X84558Y59447D02*
X86395D01*
G01D02*
X88232D01*
G01X83553Y100532D02*
X91921D01*
G02X94237Y98216I0J-2316D01*
G01Y89984D01*
G03X96716Y87504I2479J0D01*
G01X112937D01*
X113406Y87972D01*
G01X83553Y88350D02*
Y90532D01*
G01D02*
Y92713D01*
G01X79502Y90532D02*
X83553D01*
G01D02*
X87605D01*
G01X84558Y79527D02*
X86395D01*
G01D02*
X88232D01*
G01X96461Y111014D02*
Y113014D01*
G01D02*
Y115014D01*
G01X94461Y113014D02*
X96461D01*
G01X82746Y134734D02*
Y136735D01*
G01X91326Y121018D02*
Y122855D01*
G01D02*
Y124692D01*
G01X88456Y122855D02*
X91326D01*
G01D02*
X94196D01*
G01X91092Y133616D02*
Y135453D01*
G01D02*
Y137290D01*
G01X88222Y135453D02*
X91092D01*
G01D02*
X93963D01*
G01X95726Y145902D02*
X97726D01*
G01X80746Y136735D02*
X82746D01*
G01D02*
X84746D01*
G01X83917Y191584D02*
Y196127D01*
G01D02*
Y200671D01*
G01X79374Y196127D02*
X83917D01*
G01D02*
X88461D01*
G01X94823D02*
Y200671D01*
G01X90279Y196127D02*
X94823D01*
G01D02*
X99366D01*
G01X109691Y1215D02*
X103449Y7458D01*
Y23481D01*
X110162Y30194D01*
Y37201D01*
X114250Y41289D01*
X114611D01*
G01X113061Y8640D02*
Y34228D01*
X114611Y35778D01*
G01X108378Y17423D02*
Y19424D01*
G01X106212Y35944D02*
Y35544D01*
X104223Y33555D01*
G01Y31555D02*
Y33555D01*
G01X102223D02*
X104223D01*
G01D02*
X106223D01*
G01X108378Y19424D02*
Y21424D01*
G01X106378Y19424D02*
X108378D01*
G01D02*
X110378D01*
G01X109852Y69547D02*
Y62215D01*
X116831Y55236D01*
G01X106212Y40601D02*
X111161Y45550D01*
X178282D01*
X181152Y48420D01*
Y53396D01*
G01X106212Y40601D02*
Y41456D01*
G01X115364Y69547D02*
X117388D01*
X121275Y65660D01*
G01X116831Y62717D02*
Y62716D01*
X113556D01*
G01X109583Y93531D02*
Y95532D01*
G01D02*
Y97532D01*
G01X104813Y93350D02*
Y95532D01*
G01D02*
Y97713D01*
G01X100108Y93531D02*
Y95532D01*
G01D02*
Y97532D01*
G01X98108Y95532D02*
X100108D01*
G01X100286Y118533D02*
X100285Y118534D01*
Y112818D01*
G01X102844Y118533D02*
Y115359D01*
X103085Y115118D01*
Y112818D01*
G01X105404Y118533D02*
X105404Y118534D01*
Y115600D01*
X105885Y115118D01*
Y112818D01*
G01X97726Y145902D02*
Y147902D01*
G01X100285Y148595D02*
Y150596D01*
G01X98285Y148595D02*
X100285D01*
G01X136999Y8640D02*
Y16514D01*
X123304Y30209D01*
Y35944D01*
G01X156999Y8640D02*
Y16514D01*
X137568Y35944D01*
X131849D01*
G01X123304Y35944D02*
X125565D01*
X127508Y37887D01*
Y42003D01*
X129256Y43750D01*
X179294D01*
X183120Y47576D01*
Y53396D01*
G01X177370Y1215D02*
X137130Y41456D01*
X131849D01*
G01X130293Y61701D02*
Y54861D01*
G01D02*
Y50585D01*
G01X123304Y41456D02*
X119137Y41456D01*
G01X124781Y54861D02*
X124782D01*
Y51262D01*
X124666Y51146D01*
G01X122666D02*
X124666D01*
G01D02*
X126666D01*
G01X124781Y54861D02*
Y57731D01*
G01X122944Y54861D02*
X124781D01*
G01X119137Y39456D02*
Y41456D01*
G01D02*
Y43456D01*
G01X127909Y69786D02*
Y64084D01*
X130293Y61701D01*
G01X124169Y78841D02*
X124169Y76884D01*
X120824Y73539D01*
G01Y71539D02*
Y73539D01*
G01D02*
Y75540D01*
G01X118824Y73539D02*
X120824D01*
G01D02*
X122824D01*
G01X124169Y75872D02*
Y78841D01*
G01X116831Y62717D02*
Y64898D01*
G01Y62717D02*
X119799D01*
G01X131650Y78841D02*
X134982Y78841D01*
X139895Y73928D01*
G01X118917Y87972D02*
X132054D01*
G02X135589Y86508I0J-5000D01*
G01X145780Y76317D01*
G03X149316Y74852I3536J3536D01*
G01X157726D01*
G01X124169Y78841D02*
Y81810D01*
G01X121988Y78841D02*
X124169D01*
G01D02*
X126351D01*
G01X120758Y107449D02*
Y109449D01*
G01X118758D02*
X120758D01*
G01D02*
X122758D01*
G01X123794Y128929D02*
X125558Y130693D01*
X134231D01*
X136534Y132996D01*
Y137357D01*
X139701Y140524D01*
X140718D01*
G01X132835Y126526D02*
Y128363D01*
G01X129964D02*
X132835D01*
G01X132619Y133176D02*
Y135013D01*
G01D02*
Y136849D01*
G01X128155Y152035D02*
Y147461D01*
G01X123317Y147004D02*
Y149004D01*
G01X121317Y147004D02*
X123317D01*
G01D02*
X125317D01*
G01X135377Y155710D02*
Y157547D01*
G01D02*
Y160184D01*
G01D02*
Y162184D01*
G01X133377Y160184D02*
X135377D01*
G01D02*
X137377D01*
G01X135377Y157547D02*
X138248D01*
G01X144628Y16923D02*
Y18924D01*
G01D02*
Y20924D01*
G01X142628Y18924D02*
X144628D01*
G01D02*
X146628D01*
G01X144854Y71040D02*
X144979Y70915D01*
X157726D01*
G01Y68947D02*
X147170D01*
X146677Y68453D01*
G01X157726Y78789D02*
X153593D01*
X152508Y77704D01*
G01X157726Y63041D02*
X153025Y63041D01*
G01Y61041D02*
Y63041D01*
G01D02*
Y65042D01*
G01X151025Y63041D02*
X153025D01*
G01X157726Y94537D02*
X153240D01*
X148252Y89548D01*
X145952D01*
G01Y86748D02*
X148006D01*
X153826Y92569D01*
X157726D01*
G01Y84695D02*
X147189D01*
X146965Y84471D01*
X144555Y82845D01*
G01X146535Y80865D02*
X148396Y82726D01*
X157726D01*
G01Y80758D02*
X150877D01*
X148646Y78528D01*
G01X157726Y88632D02*
X153851D01*
X152527Y87308D01*
G01X157726Y106348D02*
X145952Y106348D01*
G01X157726Y104380D02*
X149083Y104380D01*
X148252Y103548D01*
X145952D01*
G01X157726Y102412D02*
Y102411D01*
X149915D01*
X148252Y100748D01*
X145952D01*
G01X157726Y100443D02*
X150746Y100443D01*
X148252Y97948D01*
X145952D01*
G01X157726Y116191D02*
X153826Y116191D01*
X152995Y115359D01*
X151439D01*
G01X157726Y114222D02*
X154404Y114222D01*
X152741Y112559D01*
X151439D01*
G01X157726Y110286D02*
Y110285D01*
X153121D01*
X151910Y109074D01*
G01X157726Y118160D02*
Y118159D01*
X151439D01*
G01X136590Y126362D02*
Y128363D01*
G01D02*
Y130363D01*
G01X140934Y121014D02*
Y122851D01*
G01D02*
Y124688D01*
G01X138064Y122851D02*
X140934D01*
G01D02*
X143804D01*
G01X140718Y133175D02*
Y135012D01*
G01D02*
Y136849D01*
G01Y135012D02*
X143588D01*
G01X144952Y128360D02*
X140936D01*
X140934Y128363D01*
G01X145648Y140767D02*
X140961D01*
X140718Y140524D01*
G01X144060Y145431D02*
Y147431D01*
G01D02*
Y149431D01*
G01X142060Y147431D02*
X144060D01*
G01D02*
X146060D01*
G01X154144Y145500D02*
Y147500D01*
G01D02*
Y149500D01*
G01X152144Y147500D02*
X154144D01*
G01D02*
X156144D01*
G01X142600Y157547D02*
Y161406D01*
G01X164797Y5801D02*
Y7801D01*
G01D02*
Y9801D01*
G01Y7801D02*
X166797D01*
G01X165404Y53396D02*
X160637D01*
G01X157726Y61073D02*
X210337Y61073D01*
G01X218216Y58437D02*
Y59045D01*
X212252Y65010D01*
X157726D01*
G01Y66978D02*
X170172Y66978D01*
X172725Y69531D01*
G01X157726Y86663D02*
X167539D01*
G01X157726Y96506D02*
X166439Y96506D01*
X168344Y98411D01*
G01X157726Y108317D02*
X177086Y108317D01*
G01X168986Y103130D02*
X164330Y98474D01*
X157726D01*
G01X264914Y141002D02*
X246186D01*
X233185Y128002D01*
X157726D01*
G01X167372Y137648D02*
X167372Y130822D01*
G01X165404Y137648D02*
X165404Y141315D01*
X169187Y145099D01*
G01X162758Y150249D02*
Y154202D01*
G01D02*
Y158155D01*
G01X158805Y154202D02*
X162758D01*
G01D02*
X166711D01*
G01X160367Y165620D02*
Y196016D01*
X160256Y196127D01*
G01X172071Y186127D02*
X176614D01*
G01X179085Y33927D02*
Y35927D01*
G01D02*
Y37927D01*
G01X177085Y35927D02*
X179085D01*
G01D02*
X181085D01*
G01X189026Y53396D02*
Y47243D01*
X203330Y32938D01*
X252930D01*
X258144Y38152D01*
G01X196900Y53396D02*
Y47185D01*
X194902Y45188D01*
G01X187057Y53396D02*
Y58271D01*
G01X185057D02*
X187057D01*
G01D02*
X189057D01*
G01X185089Y137648D02*
Y132892D01*
X186357Y131624D01*
G01X192963Y137648D02*
Y153998D01*
X192758Y154202D01*
G01X190994Y137648D02*
Y145966D01*
X182758Y154202D01*
G01X194931Y137648D02*
Y146375D01*
X202758Y154202D01*
G01X187057Y137648D02*
Y142281D01*
X187964Y143188D01*
G01D02*
Y145188D01*
G01X185964Y143188D02*
X187964D01*
G01X194735Y169560D02*
X196735D01*
G01X187520Y181584D02*
Y186127D01*
G01D02*
Y190671D01*
G01X182976Y186127D02*
X187520D01*
G01D02*
X192063D01*
G01X193882D02*
X198425D01*
G01X176614Y181584D02*
Y186127D01*
G01D02*
Y190671D01*
G01Y186127D02*
X181158D01*
G01X246805Y38152D02*
X243522Y34868D01*
X213111D01*
X208711Y39268D01*
Y53396D01*
G01X213394Y38152D02*
X215394D01*
G01X203899Y37396D02*
Y39396D01*
G01X198868Y53396D02*
Y42499D01*
G01X206742Y53396D02*
X206742Y58320D01*
G01X203899Y39396D02*
Y41396D01*
G01X201899Y39396D02*
X203899D01*
G01D02*
X205899D01*
G01X203644Y74910D02*
Y76910D01*
G01D02*
Y78911D01*
G01X201644Y76910D02*
X203644D01*
G01D02*
X205644D01*
G01X204742Y58320D02*
X206742D01*
G01D02*
X208742D01*
G01X197705Y95333D02*
Y97334D01*
G01D02*
Y99334D01*
G01X195705Y97334D02*
X197705D01*
G01D02*
X199705D01*
G01X216394Y147222D02*
Y146912D01*
X212648Y143166D01*
Y137648D01*
G01X207584Y145844D02*
X207045D01*
X204774Y143573D01*
Y137648D01*
G01X196900Y137648D02*
Y140970D01*
X210131Y154202D01*
X212758D01*
G01X206742Y137648D02*
X206742Y141111D01*
X208240Y142609D01*
G01X196735Y167559D02*
Y169560D01*
G01D02*
Y171560D01*
G01Y169560D02*
X198735D01*
G01X209331Y181584D02*
Y186127D01*
G01D02*
Y190671D01*
G01X204787Y186127D02*
X209331D01*
G01D02*
X213874D01*
G01X198425Y181584D02*
Y186127D01*
G01D02*
Y190671D01*
G01Y186127D02*
X202969D01*
G01X203830Y220303D02*
Y222303D01*
G01D02*
Y224303D01*
G01X201830Y222303D02*
X203830D01*
G01D02*
X205830D01*
G01X282150Y39190D02*
X282062Y39102D01*
X277144D01*
X267011Y28969D01*
X238115D01*
X225659Y16514D01*
Y8640D01*
G01X229955Y38152D02*
X227154D01*
G01X218616D02*
X215394D01*
G01D02*
Y40152D01*
G01X218616Y38152D02*
Y41022D01*
G01Y38152D02*
X220453D01*
G01X224128D02*
X224128Y43559D01*
G01X232333Y47093D02*
Y40225D01*
X234406Y38152D01*
X235467D01*
G01X232333Y53396D02*
Y47093D01*
G01D02*
X234301Y49061D01*
Y53396D01*
G01X222490D02*
Y77195D01*
X233671Y88376D01*
G01X217080Y112591D02*
Y114591D01*
G01D02*
Y116592D01*
G01X215080Y114591D02*
X217080D01*
G01D02*
X219080D01*
G01X232333Y137648D02*
Y132172D01*
G01Y130172D02*
Y132172D01*
G01X230332D02*
X232333D01*
G01D02*
X234333D01*
G01X256476Y144217D02*
X232897D01*
X230364Y141684D01*
Y137648D01*
G01X306477Y98215D02*
G02X299988Y98215I-3244J3244D01*
G01X285302Y112902D01*
G02X283837Y116437I3535J3536D01*
G01Y132532D01*
G03X282373Y136067I-5000J0D01*
G01X268436Y150004D01*
G03X264900Y151469I-3536J-3536D01*
G01X234057D01*
G03X230521Y150004I0J-5000D01*
G01X227892Y147375D01*
G03X226427Y143839I3536J-3536D01*
G01Y137648D01*
G01X320047Y98186D02*
X317013Y95152D01*
G02X313477Y93688I-3535J3536D01*
G01X301716D01*
G02X298180Y95152I0J5000D01*
G01X281891Y111441D01*
G02X280427Y114977I3536J3535D01*
G01Y130611D01*
G03X278963Y134147I-5000J0D01*
G01X266231Y146878D01*
G03X262696Y148342I-3536J-3536D01*
G01X235566D01*
G03X232030Y146878I0J-5000D01*
G01X229860Y144708D01*
G03X228396Y141172I3536J-3536D01*
G01Y137648D01*
G01X233122Y160601D02*
Y162602D01*
G01D02*
Y164602D01*
G01X231122Y162602D02*
X233122D01*
G01D02*
X235123D01*
G01X226638Y191127D02*
X236496D01*
G01X293880Y39190D02*
Y37620D01*
X283230Y26970D01*
X265737D01*
X246986Y8218D01*
X246081D01*
X245659Y8640D01*
G01X248224Y17874D02*
Y19874D01*
G01X252282Y51362D02*
X243677D01*
X235467Y43152D01*
Y38152D01*
G01X246805D02*
Y45886D01*
X252282Y51362D01*
G01X252632Y38152D02*
X249910D01*
G01X241293D02*
X239012D01*
G01X249910Y36151D02*
Y38152D01*
G01D02*
Y40152D01*
G01X252632Y35281D02*
Y38152D01*
G01D02*
Y41022D01*
G01Y38152D02*
X254469D01*
G01X241293D02*
Y41022D01*
G01Y38152D02*
X243130D01*
G01X248224Y19874D02*
Y21875D01*
G01X246224Y19874D02*
X248224D01*
G01D02*
X250224D01*
G01X252282Y51362D02*
X253261Y52342D01*
G01X241978Y70915D02*
X278103D01*
X280306Y68712D01*
G01X241978Y80758D02*
X249816D01*
X255427Y75146D01*
G01X241978Y65010D02*
X257635Y65010D01*
X263404Y59241D01*
G01X241978Y63041D02*
X254822Y63041D01*
X259720Y58143D01*
G01X241978Y61073D02*
X251998Y61073D01*
X255094Y57977D01*
G01X241978Y92569D02*
X250666D01*
G01X241978Y82726D02*
X252149D01*
X259220Y75656D01*
G01X241978Y84695D02*
X254189D01*
X262885Y75999D01*
G01X342033Y99491D02*
X334717D01*
X323711Y88484D01*
X272969D01*
X269745Y85260D01*
X256907D01*
X255503Y86663D01*
X241978D01*
G01Y88632D02*
X242147Y88800D01*
X257297D01*
X258828Y87269D01*
X269000D01*
X272046Y90315D01*
X322438D01*
X334111Y101989D01*
X336728D01*
G01X241978Y90600D02*
X237798D01*
G01D02*
X236248Y92149D01*
G01X249165Y96509D02*
Y98509D01*
G01X236248Y90149D02*
Y92149D01*
G01D02*
Y94149D01*
G01X234248Y92149D02*
X236248D01*
G01X241978Y108317D02*
X245331Y108317D01*
X248048Y111034D01*
G01X241978Y106348D02*
X253306Y106348D01*
X255109Y108151D01*
G01X267647Y130503D02*
X267288D01*
X252976Y116191D01*
X241978D01*
G01X249165Y98509D02*
Y100510D01*
G01X247165Y98509D02*
X249165D01*
G01D02*
X251165D01*
G01X241978Y104380D02*
X253369Y104380D01*
X255109Y102639D01*
G01X255427Y123157D02*
X254519Y124065D01*
X241978D01*
G01Y122096D02*
X249715D01*
X252036Y119776D01*
G01X241978Y118160D02*
X241978Y118159D01*
X250420D01*
X252036Y119776D01*
G01X263816Y135103D02*
X256715Y128002D01*
X241978D01*
G01X261425Y136730D02*
X254666Y129970D01*
X241978D01*
G01X265995Y132924D02*
X265782D01*
X258892Y126034D01*
X241978D01*
G01Y120128D02*
X237180D01*
G01Y118128D02*
Y120128D01*
G01D02*
Y122128D01*
G01X235179Y120128D02*
X237180D01*
G01X236496Y181269D02*
Y191127D01*
G01D02*
Y200986D01*
G01Y191127D02*
X246355D01*
G01X305699Y45835D02*
Y38404D01*
X297371Y30076D01*
X290129D01*
X268780Y8728D01*
X265747D01*
X265659Y8640D01*
G01X265972Y16159D02*
Y18159D01*
G01D02*
Y20160D01*
G01X263972Y18159D02*
X265972D01*
G01D02*
X267972D01*
G01X258144Y38152D02*
Y49757D01*
X263022Y54635D01*
G01X269483Y38152D02*
X275066Y43735D01*
Y54635D01*
G01X269483Y38152D02*
X263377Y44257D01*
X262767D01*
G01X263971Y38152D02*
X261317D01*
G01Y36151D02*
Y38152D01*
G01D02*
Y40152D01*
G01X263971Y35281D02*
Y38152D01*
G01D02*
Y41022D01*
G01Y38152D02*
X265808D01*
G01X272058Y64767D02*
Y66767D01*
G01D02*
Y68767D01*
G01X270058Y66767D02*
X272058D01*
G01D02*
X274058D01*
G01X255109Y102639D02*
Y98791D01*
X262068Y91832D01*
G01D02*
X266178Y95942D01*
X270225D01*
X272471Y98188D01*
Y100553D01*
G01X255109Y108151D02*
Y114322D01*
X259565Y118778D01*
X262501D01*
G01X264597Y110395D02*
X264597Y116682D01*
X262501Y118778D01*
G01X270543Y116795D02*
X269697D01*
X268013Y118480D01*
Y119273D01*
G01X264597Y100553D02*
X259911Y100553D01*
G01X270543Y114795D02*
Y116795D01*
G01X272471Y106639D02*
Y110395D01*
G01D02*
Y114151D01*
G01X269306Y110395D02*
X272471D01*
G01X259911Y98553D02*
Y100553D01*
G01D02*
Y102553D01*
G01X257911Y100553D02*
X259911D01*
G01X264597Y100553D02*
Y104309D01*
G01Y100553D02*
X267763D01*
G01X262501Y118778D02*
Y119273D01*
G01X270543Y116795D02*
Y118795D01*
G01Y116795D02*
X272544D01*
G01X268013Y119273D02*
Y122144D01*
G01X266176Y119273D02*
X268013D01*
G01D02*
X269849D01*
G01X272909Y150028D02*
X274910D01*
G01X275083Y157074D02*
X271322Y153313D01*
X263902D01*
X260788Y156428D01*
Y161071D01*
G01X267602Y166522D02*
X260848D01*
X260788Y166582D01*
G01X270098Y181308D02*
Y191166D01*
G01D02*
Y201025D01*
G01X260240Y191166D02*
X270098D01*
G01D02*
X279957D01*
G01X317518Y39190D02*
Y34670D01*
X306720Y23873D01*
X296956D01*
X289597Y16514D01*
Y8640D01*
G01X287662Y36320D02*
Y39190D01*
G01X280306Y61182D02*
Y58470D01*
X284141Y54635D01*
G01X293353D02*
X290100Y57889D01*
Y61445D01*
X286541Y65004D01*
X282515D01*
X280306Y67212D01*
Y68712D01*
G01X282061Y45835D02*
Y39279D01*
X282150Y39190D01*
G01X282103Y49715D02*
Y45876D01*
X282061Y45835D01*
G01X290844Y46186D02*
X293529D01*
X293880Y45835D01*
G01X285818Y61182D02*
Y57859D01*
G01X283818D02*
X285818D01*
G01D02*
X287818D01*
G01X287573Y42964D02*
Y45835D01*
G01D02*
Y48705D01*
G01X285736Y45835D02*
X287573D01*
G01X287662Y39190D02*
Y42060D01*
G01X285825Y39190D02*
X287662D01*
G01D02*
X289499D01*
G01X298312Y54635D02*
X295127Y57820D01*
Y70080D01*
X292638Y72569D01*
X284034D01*
X280361Y76242D01*
X280306D01*
G01D02*
X277544D01*
G01X280306Y61182D02*
X277203D01*
G01X285818Y76242D02*
X288896D01*
G01X285818Y68712D02*
X289360D01*
G01X288896Y76242D02*
Y78242D01*
G01Y76242D02*
X290897D01*
G01X289360Y66712D02*
Y68712D01*
G01D02*
Y70712D01*
G01Y68712D02*
X291360D01*
G01X285818Y76242D02*
Y79112D01*
G01X283981Y76242D02*
X285818D01*
G01X283981Y61182D02*
X285818D01*
G01D02*
X287654D01*
G01X286005Y83614D02*
X288532D01*
G01Y81614D02*
Y83614D01*
G01D02*
Y85614D01*
G01Y83614D02*
X290532D01*
G01X278986Y96627D02*
Y98627D01*
G01X286005Y80744D02*
Y83614D01*
G01D02*
Y86484D01*
G01X284168Y83614D02*
X286005D01*
G01X277016Y83398D02*
X280277D01*
X280493Y83614D01*
G01X278986Y98627D02*
Y100627D01*
G01X276986Y98627D02*
X278986D01*
G01D02*
X280986D01*
G01X277526Y107868D02*
Y109868D01*
G01D02*
Y111868D01*
G01Y109868D02*
X279526D01*
G01X295039Y116385D02*
X292731Y118692D01*
G01D02*
Y121711D01*
G01X290894D02*
X292731D01*
G01D02*
X294568D01*
G01X292136Y135152D02*
X293973D01*
G01X274910Y148028D02*
Y150028D01*
G01D02*
Y152028D01*
G01Y150028D02*
X276910D01*
G01X282093Y158573D02*
Y160706D01*
G01D02*
Y162838D01*
G01X278337Y160706D02*
X282093D01*
G01D02*
X285849D01*
G01X289649Y164761D02*
Y166598D01*
G01D02*
Y168435D01*
G01X281662Y164761D02*
Y166598D01*
G01D02*
Y168435D01*
G01X278792Y166598D02*
X281662D01*
G01X289649Y157494D02*
Y159331D01*
G01D02*
Y161167D01*
G01X275083Y163062D02*
Y166522D01*
G01D02*
Y169983D01*
G01X275233Y213698D02*
Y215698D01*
G01D02*
Y217698D01*
G01X273233Y215698D02*
X275233D01*
G01D02*
X277233D01*
G01X334848Y39190D02*
Y36272D01*
X309596Y11020D01*
Y8640D01*
G01X304055Y27811D02*
Y29812D01*
G01D02*
Y31812D01*
G01X302055Y29812D02*
X304055D01*
G01D02*
X306055D01*
G01X299392Y36320D02*
Y39190D01*
G01X311728Y54635D02*
X309180Y57183D01*
Y62740D01*
X307210Y64709D01*
X302928D01*
X300005Y67632D01*
Y67934D01*
G01Y61182D02*
Y59076D01*
X304447Y54635D01*
G01X305699Y45835D02*
Y48606D01*
X311728Y54635D01*
G01X293880Y39190D02*
Y45835D01*
G01X299392Y47826D02*
X301654Y50088D01*
G01X299392Y47826D02*
Y48705D01*
G01Y45835D02*
Y47826D01*
G01X305517Y61182D02*
Y57759D01*
G01X301654Y48088D02*
Y50088D01*
G01D02*
Y52088D01*
G01X299654Y50088D02*
X301654D01*
G01D02*
X303654D01*
G01X311211Y42964D02*
Y45835D01*
G01D02*
Y48705D01*
G01X309374Y45835D02*
X311211D01*
G01D02*
X313048D01*
G01X299392Y42964D02*
Y45835D01*
G01X297555D02*
X299392D01*
G01D02*
X301229D01*
G01X299392Y39190D02*
Y42060D01*
G01X297555Y39190D02*
X299392D01*
G01D02*
X301229D01*
G01X300005Y74686D02*
X297224D01*
G01X300005Y67934D02*
Y69174D01*
X305517Y74686D01*
G01X316638Y54635D02*
X313826Y57448D01*
Y75293D01*
X310851Y78268D01*
X303176D01*
X300005Y81438D01*
G01Y67934D02*
X297538D01*
G01X300005Y61182D02*
X297440D01*
G01X305517Y67934D02*
X308465D01*
G01D02*
Y69934D01*
G01Y67934D02*
X310465D01*
G01X305517D02*
Y70804D01*
G01X303680Y67934D02*
X305517D01*
G01X300005Y81438D02*
X297215D01*
G01X305517D02*
Y84308D01*
G01X303680Y81438D02*
X305517D01*
G01D02*
X307354D01*
G01X311910Y104741D02*
Y114959D01*
X309527Y117342D01*
X304259D01*
G01X311910Y104741D02*
Y98294D01*
X311989Y98215D01*
G01X306398Y104741D02*
X302907D01*
G01Y102741D02*
Y104741D01*
G01D02*
Y106741D01*
G01X300906Y104741D02*
X302907D01*
G01X306398Y101871D02*
Y104741D01*
G01D02*
Y107611D01*
G01Y104741D02*
X308235D01*
G01X297107Y104981D02*
Y106818D01*
G01D02*
Y108655D01*
G01X294236Y106818D02*
X297107D01*
G01D02*
X299977D01*
G01X295039Y116385D02*
Y118385D01*
G01X293039Y116385D02*
X295039D01*
G01D02*
X297039D01*
G01X293973Y132282D02*
Y135152D01*
G01D02*
Y138022D01*
G01Y135152D02*
X295809D01*
G01X295318Y142208D02*
X298635D01*
G01X307595Y143858D02*
Y146728D01*
G01X305758Y143858D02*
X307595D01*
G01D02*
X309432D01*
G01X298635Y140208D02*
Y142208D01*
G01D02*
Y144208D01*
G01X307595Y137703D02*
Y139703D01*
G01X305595D02*
X307595D01*
G01D02*
X309596D01*
G01X295318Y138452D02*
Y142208D01*
G01D02*
Y145964D01*
G01X293186Y142208D02*
X295318D01*
G01X298675Y158543D02*
Y160872D01*
G01D02*
Y163201D01*
G01X309078Y196166D02*
X313622D01*
G01X341156Y45835D02*
Y20199D01*
X329596Y8640D01*
G01X331750Y18119D02*
Y20119D01*
G01X318706Y27037D02*
Y29037D01*
G01D02*
Y31038D01*
G01X316706Y29037D02*
X318706D01*
G01D02*
X320706D01*
G01X329337Y36320D02*
Y39190D01*
G01X323030Y36320D02*
Y39190D01*
G01X331750Y20119D02*
Y22120D01*
G01X329749Y20119D02*
X331750D01*
G01D02*
X333750D01*
G01X319154Y61182D02*
Y58577D01*
X323096Y54635D01*
G01X317518Y45835D02*
Y39190D01*
G01X317481Y50764D02*
Y45872D01*
X317518Y45835D01*
G01X329337Y42964D02*
Y45835D01*
G01D02*
Y48705D01*
G01X327500Y45835D02*
X329337D01*
G01D02*
X331174D01*
G01X323030Y42964D02*
Y45835D01*
G01D02*
Y48705D01*
G01X321193Y45835D02*
X323030D01*
G01D02*
X324867D01*
G01X329337Y39190D02*
Y42060D01*
G01X327500Y39190D02*
X329337D01*
G01D02*
X331174D01*
G01X323030D02*
Y42060D01*
G01X321193Y39190D02*
X323030D01*
G01D02*
X324866D01*
G01X319024Y75940D02*
Y68737D01*
X319083Y68678D01*
G01X319372Y82361D02*
Y76289D01*
X319024Y75940D01*
G01X316518Y60946D02*
X316716D01*
X316912Y60750D01*
X318723D01*
X319154Y61182D01*
G01X336561Y54635D02*
X332034Y59163D01*
Y65729D01*
X329084Y68678D01*
X325972D01*
G01X324666Y61182D02*
X327879D01*
G01Y59181D02*
Y61182D01*
G01D02*
Y63182D01*
G01Y61182D02*
X329879D01*
G01X323782Y75940D02*
X325914D01*
G01D02*
X328046D01*
G01X324666Y58311D02*
Y61182D01*
G01D02*
Y64052D01*
G01X322829Y61182D02*
X324666D01*
G01X319517Y82506D02*
X319372Y82361D01*
G01X316413Y82104D02*
X316559Y82252D01*
X319262D01*
X319372Y82361D01*
G01X325029Y82506D02*
Y86338D01*
G01X323028D02*
X325029D01*
G01D02*
X327029D01*
G01X323192Y82506D02*
X325029D01*
G01D02*
X326866D01*
G01X325533Y104741D02*
Y98212D01*
X325558Y98186D01*
G01X325518Y112342D02*
Y104755D01*
X325533Y104741D01*
G01X320021D02*
X316404D01*
G01X320021Y101871D02*
Y104741D01*
G01D02*
Y107611D01*
G01Y104741D02*
X321858D01*
G01X316404Y102741D02*
Y104741D01*
G01D02*
Y106741D01*
G01X314404Y104741D02*
X316404D01*
G01X331535Y134409D02*
X334405D01*
G01X322922Y141759D02*
Y143759D01*
G01D02*
Y145759D01*
G01Y143759D02*
X324923D01*
G01X319544Y140889D02*
Y143759D01*
G01D02*
Y146629D01*
G01X317707Y143759D02*
X319544D01*
G01X319558Y160327D02*
Y162327D01*
G01D02*
Y164327D01*
G01X317558Y162327D02*
X319558D01*
G01D02*
X321559D01*
G01X324528Y191623D02*
Y196166D01*
G01X314531Y186166D02*
X319075D01*
G01D02*
X323618D01*
G01X313622Y191623D02*
Y196166D01*
G01X324528D02*
X329071D01*
G01X313622D02*
Y200710D01*
G01X342390Y60172D02*
Y58253D01*
X346009Y54635D01*
G01X341156Y45835D02*
Y47959D01*
X347831Y54635D01*
G01X334848Y45835D02*
Y39190D01*
G01X334768Y51087D02*
Y45915D01*
X334848Y45835D01*
G01X347902Y57302D02*
Y60172D01*
G01X351138Y45835D02*
X352974D01*
G01X346668Y42964D02*
Y45835D01*
G01D02*
Y48705D01*
G01X344831Y45835D02*
X346668D01*
G01D02*
X348504D01*
G01X351138Y39190D02*
X352974D01*
G01X338786Y66983D02*
X342155D01*
X342390Y67218D01*
G01Y74265D02*
Y73159D01*
X344617Y70932D01*
X354878D01*
X357955Y67855D01*
Y59545D01*
X362865Y54635D01*
G01X342390Y74265D02*
X338678D01*
G01X342390Y60172D02*
X339060D01*
G01X347902D02*
X351340D01*
G01X347902Y67218D02*
X350418D01*
G01X347902Y74265D02*
X350958D01*
G01X350418Y65218D02*
Y67218D01*
G01D02*
X352419D01*
G01X350958Y74265D02*
Y76265D01*
G01Y74265D02*
X352958D01*
G01X347902Y64348D02*
Y67218D01*
G01X346065D02*
X347902D01*
G01X351340Y58172D02*
Y60172D01*
G01D02*
Y62172D01*
G01Y60172D02*
X353340D01*
G01X347902D02*
Y63042D01*
G01X346065Y60172D02*
X347902D01*
G01X342033Y89491D02*
X355956D01*
G01X336422Y79742D02*
X336422Y83880D01*
X342033Y89491D01*
G01X350722Y83957D02*
Y81568D01*
X348897Y79742D01*
G01X350722Y92306D02*
Y96579D01*
X347811Y99491D01*
X342033D01*
G01X341863Y83378D02*
Y79813D01*
X341934Y79742D01*
G01X342033Y94491D02*
X346884D01*
G01Y92490D02*
Y94491D01*
G01D02*
Y96491D01*
G01Y94491D02*
X348884D01*
G01X342033Y92309D02*
Y94491D01*
G01D02*
Y96672D01*
G01X337982Y94491D02*
X342033D01*
G01X336728Y101989D02*
X339230Y104491D01*
X342033D01*
G01X340971Y110896D02*
Y112896D01*
G01X338971D02*
X340971D01*
G01D02*
X342972D01*
G01X334405Y134409D02*
Y139768D01*
G01X340607Y134369D02*
Y139932D01*
G01X348439Y135735D02*
Y140454D01*
G01X340607Y132533D02*
Y134369D01*
G01X337736D02*
X340607D01*
G01D02*
X343477D01*
G01X348439Y133603D02*
Y135735D01*
G01X344683D02*
X348439D01*
G01D02*
X352195D01*
G01X340971Y116918D02*
Y119789D01*
G01X339134Y116918D02*
X340971D01*
G01D02*
X342808D01*
G01X334405Y132572D02*
Y134409D01*
G01D02*
X337276D01*
G01X348439Y140454D02*
Y142454D01*
G01X346439Y140454D02*
X348439D01*
G01D02*
X350439D01*
G01X339844Y149096D02*
Y151096D01*
G01D02*
Y153097D01*
G01X337844Y151096D02*
X339844D01*
G01D02*
X341845D01*
G01X340607Y139932D02*
Y141932D01*
G01X338606Y139932D02*
X340607D01*
G01D02*
X342607D01*
G01X334405Y139768D02*
Y141768D01*
G01X332405Y139768D02*
X334405D01*
G01D02*
X336406D01*
G01X358486Y39190D02*
Y13593D01*
X353534Y8640D01*
G01X370324Y39190D02*
Y14345D01*
X373534Y11136D01*
Y8640D01*
G01X365893Y17178D02*
Y19179D01*
G01X363482Y26959D02*
Y28959D01*
G01D02*
Y30959D01*
G01X361482Y28959D02*
X363482D01*
G01D02*
X365482D01*
G01X364813Y36320D02*
Y39190D01*
G01X365893Y19179D02*
Y21179D01*
G01X363893Y19179D02*
X365893D01*
G01D02*
X367893D01*
G01X352974Y36320D02*
Y39190D01*
G01X358486Y45835D02*
Y39190D01*
G01X358415Y50362D02*
Y45905D01*
X358486Y45835D01*
G01X370324D02*
Y39190D01*
G01X373694Y46442D02*
X370932D01*
X370324Y45835D01*
G01X364813Y42964D02*
Y45835D01*
G01D02*
Y48705D01*
G01X362976Y45835D02*
X364813D01*
G01D02*
X366650D01*
G01X364813Y39190D02*
Y42060D01*
G01X362976Y39190D02*
X364813D01*
G01D02*
X366650D01*
G01X352974Y42964D02*
Y45835D01*
G01D02*
Y48705D01*
G01Y45835D02*
X354811D01*
G01X352974Y39190D02*
Y42060D01*
G01Y39190D02*
X354811D01*
G01X366885Y79752D02*
Y78168D01*
X361373Y72657D01*
G01Y62692D02*
Y65562D01*
G01D02*
Y68432D01*
G01Y65562D02*
X363210D01*
G01X361373Y76882D02*
Y79752D01*
G01X371371Y72510D02*
X367032D01*
X366885Y72657D01*
G01X371146Y65288D02*
X367159D01*
X366885Y65562D01*
G01X380720Y54635D02*
X375683Y59672D01*
Y77156D01*
X373086Y79752D01*
X366885D01*
G01X355956Y89491D02*
X357146D01*
X366885Y79752D01*
G01X354409Y79742D02*
X354409Y87944D01*
X355956Y89491D01*
G01X361373Y79752D02*
X358484D01*
G01X363293Y94491D02*
X367940D01*
G01X363293Y89491D02*
X367660D01*
G01Y87490D02*
Y89491D01*
G01D02*
Y91491D01*
G01Y89491D02*
X369660D01*
G01X367940Y92490D02*
Y94491D01*
G01D02*
Y96491D01*
G01Y94491D02*
X369940D01*
G01X363293Y87309D02*
Y89491D01*
G01D02*
Y91672D01*
G01Y92309D02*
Y94491D01*
G01D02*
Y96672D01*
G01X359242Y94491D02*
X363293D01*
G01X358484Y77752D02*
Y79752D01*
G01D02*
Y81753D01*
G01X361373Y79752D02*
Y82623D01*
G01Y79752D02*
X363210D01*
G01X363293Y99491D02*
X367989D01*
G01X363293Y104491D02*
X368130D01*
G01Y102490D02*
Y104491D01*
G01D02*
Y106491D01*
G01Y104491D02*
X370130D01*
G01X363293Y102309D02*
Y104491D01*
G01D02*
Y106672D01*
G01X359242Y104491D02*
X363293D01*
G01X367989Y97490D02*
Y99491D01*
G01D02*
Y101491D01*
G01Y99491D02*
X369989D01*
G01X363293Y97309D02*
Y99491D01*
G01D02*
Y101672D01*
G01X359242Y99491D02*
X363293D01*
G01X369695Y121548D02*
Y123549D01*
G01D02*
Y125549D01*
G01X367695Y123549D02*
X369695D01*
G01D02*
X371695D01*
G01X376612Y45835D02*
Y25561D01*
X393534Y8640D01*
G01X377682Y15473D02*
Y17473D01*
G01D02*
Y19474D01*
G01X375682Y17473D02*
X377682D01*
G01D02*
X379682D01*
G01X376612Y45835D02*
Y46969D01*
X384278Y54635D01*
G01X382124Y42964D02*
Y45835D01*
G01D02*
Y48705D01*
G01X380287Y45835D02*
X382124D01*
G01D02*
X383960D01*
G01X384883Y76771D02*
Y80724D01*
G01X387335Y58966D02*
Y60966D01*
G01D02*
Y62966D01*
G01X385335Y60966D02*
X387335D01*
G01D02*
X389335D01*
G01X384883Y80724D02*
Y84677D01*
G01X380930Y80724D02*
X384883D01*
G01D02*
X388836D01*
G01X380621Y125184D02*
Y127184D01*
G01X378621D02*
X380621D01*
G01D02*
X382621D01*
G01X380621Y132521D02*
Y136671D01*
G01X376471Y132521D02*
X380621D01*
G01D02*
X384771D01*
G01X378496Y141996D02*
Y143832D01*
G01D02*
Y145669D01*
G01X375625Y143832D02*
X378496D01*
G01D02*
X381366D01*
G01X388502Y151278D02*
X392455D01*
G01X396606Y34475D02*
Y36476D01*
G01D02*
Y38476D01*
G01X394606Y36476D02*
X396606D01*
G01D02*
X398606D01*
G01X408346Y62974D02*
Y64974D01*
G01D02*
Y66974D01*
G01X406346Y64974D02*
X408346D01*
G01D02*
X410347D01*
G01X394883Y76771D02*
Y80724D01*
G01D02*
Y84677D01*
G01X390930Y80724D02*
X394883D01*
G01D02*
X398836D01*
G01X407901Y100895D02*
Y102895D01*
G01D02*
Y104895D01*
G01X405901Y102895D02*
X407901D01*
G01X392455Y147325D02*
Y151278D01*
G01D02*
X396408D01*
G01X398742Y170970D02*
Y172970D01*
G01D02*
Y174970D01*
G01X396742Y172970D02*
X398742D01*
G01D02*
X400743D01*
G01X406319Y181623D02*
Y186166D01*
G01D02*
Y190710D01*
G01Y186166D02*
X410862D01*
G01X400866Y191623D02*
Y196166D01*
G01D02*
Y200710D01*
G01X396323Y196166D02*
X400866D01*
G01D02*
X405410D01*
G01X411549Y8640D02*
X417471D01*
G01D02*
X423392D01*
G01X418768Y50875D02*
Y52876D01*
G01D02*
Y54876D01*
G01X416768Y52876D02*
X418768D01*
G01X422078Y49120D02*
Y52876D01*
G01D02*
Y56632D01*
G01Y52876D02*
X424210D01*
G01X422648Y41793D02*
Y44663D01*
G01X420812Y41793D02*
X422648D01*
G01D02*
X424485D01*
G01X418425Y62125D02*
Y64126D01*
G01D02*
Y66126D01*
G01X416425Y64126D02*
X418425D01*
G01X429495Y69933D02*
Y71933D01*
G01X427495Y69933D02*
X429495D01*
G01D02*
X431495D01*
G01X429619Y74533D02*
X434162D01*
G01X422078Y60370D02*
Y64126D01*
G01D02*
X424210D01*
G01X418754Y95127D02*
Y97128D01*
G01X428770Y95251D02*
Y97088D01*
G01X425900D02*
X428770D01*
G01X422481Y95291D02*
Y97128D01*
G01Y99001D02*
Y100838D01*
G01D02*
Y102675D01*
G01Y100838D02*
X425351D01*
G01X416754Y97128D02*
X418754D01*
G01X422481D02*
Y98964D01*
G01Y97128D02*
X425351D01*
G01X413662Y110390D02*
Y112391D01*
G01X411662D02*
X413662D01*
G01D02*
X415662D01*
G01X413958Y100566D02*
Y102895D01*
G01D02*
X418403D01*
G01X413662Y115130D02*
Y116966D01*
G01X410792Y115130D02*
X413662D01*
G01D02*
X416532D01*
G01X427249Y122216D02*
X433269D01*
G01X441969Y40635D02*
Y42816D01*
G01D02*
Y44998D01*
G01X441330Y60370D02*
Y63240D01*
G01D02*
Y66110D01*
G01X439493Y63240D02*
X441330D01*
G01D02*
X443166D01*
G01X434162Y67759D02*
Y69759D01*
G01X432162D02*
X434162D01*
G01D02*
X436162D01*
G01X434162Y74533D02*
Y77896D01*
G01Y74533D02*
X438706D01*
G01X447934Y94306D02*
Y96488D01*
G01D02*
Y98669D01*
G01Y89307D02*
Y91488D01*
G01D02*
Y93669D01*
G01X443882Y91488D02*
X447934D01*
G01X432572Y95088D02*
Y97088D01*
G01D02*
Y99088D01*
G01Y97088D02*
X434572D01*
G01X443111Y112535D02*
Y114716D01*
G01D02*
Y116897D01*
G01X433269Y114424D02*
Y122216D01*
G01X437593Y97606D02*
Y102149D01*
G01D02*
X440956D01*
G01X433269Y122216D02*
Y130008D01*
G01X447751Y142178D02*
X449751D01*
G01X445437Y191166D02*
X455295D01*
G01X463229Y40635D02*
Y42816D01*
G01D02*
Y44998D01*
G01Y42816D02*
X467281D01*
G01X463229Y45635D02*
Y47816D01*
G01D02*
Y49998D01*
G01Y47816D02*
X467281D01*
G01X468121Y59779D02*
Y63535D01*
G01D02*
Y67291D01*
G01X465989Y63535D02*
X468121D01*
G01X465749Y74254D02*
Y77124D01*
G01Y74254D02*
X467586D01*
G01X464834Y107200D02*
Y112728D01*
G01X459306D02*
X464834D01*
G01D02*
X470361D01*
G01X453662Y112623D02*
Y114460D01*
G01D02*
Y116297D01*
G01X450792Y114460D02*
X453662D01*
G01D02*
X456532D01*
G01X467548Y142814D02*
Y144815D01*
G01D02*
Y146815D01*
G01X465548Y144815D02*
X467548D01*
G01D02*
X469548D01*
G01X449751Y140178D02*
Y142178D01*
G01D02*
Y144179D01*
G01Y142178D02*
X451752D01*
G01X455295Y181308D02*
Y191166D01*
G01D02*
Y201025D01*
G01Y191166D02*
X465154D01*
G01X479669Y11811D02*
X489528D01*
G01X472819Y61535D02*
Y63535D01*
G01D02*
Y65535D01*
G01Y63535D02*
X474819D01*
G01X469194Y94306D02*
Y96488D01*
G01D02*
Y98669D01*
G01X479669Y208661D02*
X489528D01*
G01Y1952D02*
Y11811D01*
G01D02*
Y21670D01*
G01Y11811D02*
X499386D01*
G01X489528Y198803D02*
Y208661D01*
G01D02*
Y218520D01*
G01Y208661D02*
X499386D01*
G54D18*
X78465Y186127D03*
X94823Y196127D03*
X83917D03*
X89370Y186127D03*
X116634Y196127D03*
X105728D03*
X111181Y186127D03*
X100276D03*
X138445Y196127D03*
X127539D03*
X132992Y186127D03*
X122087D03*
X149350Y196127D03*
X154803Y186127D03*
X143898D03*
X171161Y196127D03*
X160256D03*
X176614Y186127D03*
X165709D03*
X192972Y196127D03*
X182067D03*
X187520Y186127D03*
X203878Y196127D03*
X209331Y186127D03*
X198425D03*
X302716Y196166D03*
X313622D03*
X297264Y186166D03*
X308169D03*
X324528Y196166D03*
X319075Y186166D03*
X329980D03*
X335433Y196166D03*
X346339D03*
X340886Y186166D03*
X351791D03*
X357244Y196166D03*
X368150D03*
X362697Y186166D03*
X373602D03*
X379055Y196166D03*
X389961D03*
X384508Y186166D03*
X400866Y196166D03*
X411772D03*
X395413Y186166D03*
X406319D03*
X422677Y196166D03*
X417224Y186166D03*
X428130D03*
G54D27*
X298675Y160872D03*
Y172093D03*
X413958Y91675D03*
Y102895D03*
G54D37*
G01X83878Y48774D02*
X72138D01*
X67669Y44306D01*
X49499D01*
X31958Y26764D01*
G01X57934Y81773D02*
Y73163D01*
X46844Y62073D01*
X27293D01*
X20590Y55370D01*
G01X49372Y109221D02*
Y82163D01*
X38359Y71150D01*
X36858D01*
G01X51260Y152037D02*
X54621Y148676D01*
X58261D01*
X62274Y144663D01*
Y141073D01*
G01X64833D02*
Y145476D01*
X58271Y152037D01*
X57234D01*
G01X57155Y141073D02*
Y145156D01*
G01X57234Y157549D02*
X57521D01*
X73843Y173872D01*
X83241D01*
X89370Y180000D01*
Y186127D01*
G01X78465D02*
Y185755D01*
X51260Y158550D01*
Y157549D01*
G01X75069Y141073D02*
Y145974D01*
X81132Y152037D01*
G01X67392Y141073D02*
Y147854D01*
X63209Y152037D01*
G01X87106D02*
X85839D01*
X77628Y143827D01*
Y141073D01*
G01X69951D02*
Y151270D01*
X69183Y152037D01*
G01X72510Y141073D02*
Y149390D01*
X75158Y152037D01*
G01X59715Y141073D02*
Y137389D01*
G01X122087Y186127D02*
X102158Y166198D01*
X83807D01*
X75158Y157549D01*
G01X111181Y186127D02*
X93487Y168433D01*
X80067D01*
X69183Y157549D01*
G01X63209D02*
X76827Y171167D01*
X86514D01*
X100276Y184928D01*
Y186127D01*
G01X91326Y117343D02*
X87859Y113876D01*
X83829D01*
X82746Y114959D01*
Y118534D01*
X82746Y118533D01*
G01X97726D02*
Y114279D01*
X96461Y113014D01*
G01X91326Y117343D02*
X86495D01*
X85305Y118534D01*
Y118533D01*
G01X93316Y128929D02*
X96579Y125665D01*
Y122500D01*
X91422Y117343D01*
X91326D01*
G01X91092Y140965D02*
X85413D01*
X85305Y141073D01*
G01X93081Y152037D02*
Y149940D01*
X89680Y146539D01*
X83347D01*
X80187Y143379D01*
Y141073D01*
G01X132992Y186127D02*
X110702Y163836D01*
X87420D01*
X81132Y157549D01*
G01X93081D02*
X97274D01*
G01X143898Y186127D02*
X118869Y161099D01*
X90656D01*
X87106Y157549D01*
G01X94874Y183946D02*
Y189081D01*
X96863Y191070D01*
X122483D01*
X127539Y196127D01*
G01X105404Y141073D02*
X105404Y146209D01*
X111230Y152035D01*
G01X102844Y141073D02*
Y151460D01*
X103419Y152035D01*
G01X107963Y141073D02*
Y144380D01*
X110857Y147274D01*
X115875D01*
X119041Y150440D01*
Y152035D01*
G01X111230Y157547D02*
X109723Y157547D01*
X107055Y154879D01*
G01X103419Y157547D02*
X101885Y157549D01*
X98882Y154546D01*
G01X97726Y141073D02*
Y145902D01*
G01X100286Y141073D02*
X100285D01*
Y148595D01*
G01X120707Y57987D02*
X124421Y61701D01*
X124781D01*
G01X149322Y196099D02*
X149350Y196127D01*
G01X132835Y120741D02*
Y114146D01*
X131252Y112563D01*
X124822D01*
X123317Y114068D01*
Y118533D01*
G01X120758D02*
Y109449D01*
G01X125876Y118533D02*
Y118534D01*
X130627D01*
X132835Y120741D01*
G01Y122851D02*
Y120741D01*
G01X123794Y128929D02*
X129872Y122851D01*
X132835D01*
G01Y128363D02*
X136590D01*
G01X132619Y140524D02*
X126424D01*
X125876Y141073D01*
G01X135377Y152035D02*
X142600D01*
G01X128155Y157547D02*
X129865Y157547D01*
X135377Y152035D01*
G01X123317Y141073D02*
Y147004D01*
G01X119041Y157547D02*
X123345D01*
G01X373782Y149391D02*
X378448D01*
X378496Y149344D01*
G01X428160Y40070D02*
Y38085D01*
X430259Y35985D01*
G54D19*
X83553Y90532D03*
Y95532D03*
Y100532D03*
Y105532D03*
X104813Y95532D03*
Y90532D03*
Y105532D03*
Y100532D03*
X304259Y112342D03*
Y117342D03*
Y122342D03*
Y127342D03*
X325518Y117342D03*
Y112342D03*
Y127342D03*
Y122342D03*
X342033Y89491D03*
Y94491D03*
Y99491D03*
Y104491D03*
X363293Y94491D03*
Y89491D03*
Y104491D03*
Y99491D03*
X441969Y37816D03*
Y42816D03*
Y47816D03*
Y52816D03*
X447934Y86488D03*
Y91488D03*
Y96488D03*
Y101488D03*
X463229Y37816D03*
Y52816D03*
Y47816D03*
Y42816D03*
X469194Y96488D03*
Y91488D03*
Y86488D03*
Y101488D03*
G54D28*
X390060Y98053D03*
Y122462D03*
G54D38*
G01X63446Y90878D02*
Y87285D01*
X57934Y81773D01*
G01X61113Y105639D02*
X52954D01*
X52058Y106536D01*
G01X57155Y118533D02*
Y115299D01*
X55390Y113533D01*
G01X63446Y81773D02*
X69085D01*
G01X74597Y90878D02*
Y87285D01*
X69085Y81773D01*
G01X83553Y95532D02*
X79251D01*
X74597Y90878D01*
G01Y81773D02*
X78784D01*
G01X69085Y90878D02*
Y86676D01*
G01X68316Y105646D02*
X61120D01*
X61113Y105639D01*
G01X74676Y105646D02*
X68316D01*
G01X83553Y105532D02*
X74791D01*
X74676Y105646D01*
G01X83553Y105532D02*
X104813D01*
G01X80187Y118533D02*
Y121945D01*
G01D02*
X81291Y123049D01*
G01D02*
X91132D01*
X91326Y122855D01*
G01X91092Y140965D02*
X92383D01*
X95618Y137729D01*
G01X82746Y141073D02*
X82746Y136735D01*
G01X104813Y100532D02*
X110154D01*
G02X112303Y99641I0J-3039D01*
G01X112515Y99429D01*
G02X113406Y97280I-2149J-2149D01*
G01Y94399D01*
G01X104813Y95532D02*
X109583D01*
G01X104813D02*
X100108D01*
G01X118917Y94399D02*
X121773D01*
G03X126135Y96206I0J6170D01*
G01X147126Y117197D01*
G03X149322Y122500I-5304J5303D01*
G01Y196099D01*
G01X128155Y136612D02*
X128707D01*
X132619Y140524D01*
G01X123317Y141073D02*
Y135638D01*
G01D02*
X125411Y133544D01*
G01D02*
X130556D01*
X132024Y135013D01*
X132619D01*
G01X267580Y91832D02*
X270664D01*
G01D02*
X271197Y92365D01*
X272724D01*
G01D02*
X278986Y98627D01*
G01X281662Y172110D02*
X273814D01*
X271313Y169609D01*
Y166552D01*
X271342Y166522D01*
G01D02*
Y163650D01*
X267602Y159910D01*
Y157074D01*
G01X297107Y112330D02*
X292792D01*
X288461Y116661D01*
Y135152D01*
G01X292958Y127902D02*
Y126996D01*
X298243Y121711D01*
G01X288428Y142208D02*
Y135184D01*
X288461Y135152D01*
G01X282093Y153816D02*
X281941Y153664D01*
X277252D01*
X275083Y155833D01*
Y157074D01*
G01X289389Y153819D02*
X282096D01*
X282093Y153816D01*
G01X289389Y153819D02*
X289649D01*
G01X288428Y142208D02*
Y152859D01*
X289389Y153819D01*
G01X281662Y172110D02*
X289649D01*
G01X298675Y172093D02*
X289666D01*
X289649Y172110D01*
G01X281662Y166598D02*
X289649D01*
G01X275083Y166522D02*
X281586D01*
X281662Y166598D01*
G01X307297D02*
X289649D01*
G01Y159331D02*
X283468D01*
X282093Y160706D01*
G01X289649Y159331D02*
X294757D01*
X296298Y160872D01*
X298675D01*
G01X304259Y112342D02*
X297119D01*
X297107Y112330D01*
G01X304259Y122342D02*
X298874D01*
X298243Y121711D01*
G01X304259Y127342D02*
X299030D01*
X298470Y127902D01*
G01X304259Y127342D02*
X306135Y129217D01*
G03X307438Y132364I-3147J3146D01*
G01Y134507D01*
G01X302084Y143858D02*
Y134665D01*
X301926Y134507D01*
G01X302084Y143858D02*
Y147978D01*
G02X304280Y153282I7500J0D01*
G01X319086Y168088D01*
G02X324390Y170285I5303J-5304D01*
G01X387149D01*
G03X392452Y172481I0J7500D01*
G01X398741Y178770D01*
G03X400938Y184073I-5304J5303D01*
G01Y185426D01*
G02X403134Y190729I7500J0D01*
G01X407546Y195141D01*
G02X410022Y196166I2475J-2475D01*
G01X411772D01*
G01X307595Y143858D02*
Y139703D01*
G01X298675Y172093D02*
X305608D01*
X308169Y174654D01*
Y186166D01*
G01X307297Y166598D02*
X301571Y160872D01*
X298675D01*
G01X319075Y178376D02*
X307297Y166598D01*
G01X325518Y117342D02*
X335036D01*
X335459Y116918D01*
X335460D01*
G01X319446Y134556D02*
X319588Y134414D01*
Y124342D01*
G03X321589Y122342I2001J0D01*
G01X325518D01*
G01X335568Y123129D02*
X334780Y122342D01*
X325518D01*
G01X314032Y143759D02*
Y134655D01*
X313934Y134556D01*
G01X314032Y143759D02*
Y146760D01*
G02X315942Y151371I6521J0D01*
G01X326799Y162228D01*
G02X332102Y164424I5303J-5303D01*
G01X393734D01*
G03X399038Y166621I0J7500D01*
G01X417224Y184808D01*
Y186166D01*
G01X319544Y143759D02*
X322922D01*
G01X319075Y186166D02*
Y178376D01*
G01X340971Y116918D02*
Y112896D01*
G01X335460Y116918D02*
X335459D01*
Y117509D01*
X341080Y123129D01*
G01X380621Y132521D02*
Y127184D01*
G01X402297Y151278D02*
X397735Y155840D01*
X382122D01*
X378496Y152214D01*
Y149344D01*
G01X413958Y102895D02*
X407901Y102895D01*
G01X422078Y52876D02*
X418768D01*
G01X426674Y74254D02*
Y72754D01*
X429495Y69933D01*
G01X422078Y64126D02*
X418425D01*
G01X428770Y97088D02*
X432572D01*
G01X422481Y97128D02*
X418754D01*
G01X422481Y106350D02*
X428603D01*
X428652Y106301D01*
G01X422481Y106350D02*
Y113771D01*
X423426Y114716D01*
G01X447934Y101488D02*
X441985Y107437D01*
X434718D01*
X428652Y101372D01*
Y100789D01*
G01X413662Y115130D02*
Y112391D01*
G01X422481Y100838D02*
X419130D01*
X418989Y100979D01*
G01X413662Y130169D02*
X417441Y126390D01*
Y122363D01*
X420087Y119716D01*
X423426D01*
G01X430699Y135374D02*
Y133798D01*
X426617Y129716D01*
X423426D01*
G01X413662Y124657D02*
Y120641D01*
G01X448869Y63240D02*
Y60573D01*
X445234Y56938D01*
G01X453938Y74254D02*
X447828D01*
X447548Y74533D01*
G01X447934Y101488D02*
X446509D01*
X437593Y92572D01*
Y88763D01*
G01Y102149D02*
X433037D01*
X432909Y102022D01*
G01X443111Y119716D02*
X443367Y119972D01*
X453662D01*
G01X443111Y129716D02*
X440428D01*
X436211Y133934D01*
Y135374D01*
G01X471261Y74254D02*
Y73449D01*
X467999Y70188D01*
X462452D01*
X459450Y73190D01*
Y74254D01*
G01X454381Y63240D02*
X460936D01*
X461231Y63535D01*
G01X468121D02*
X472819D01*
G01X465749Y74254D02*
X464306D01*
X462668Y75891D01*
G01X471261Y74254D02*
X473532D01*
X476819Y77540D01*
Y88768D01*
X474100Y91488D01*
X469194D01*
G54D29*
X380621Y132521D03*
X398337D03*
G54D39*
G01X17087Y11811D02*
X32700Y-3802D01*
G01D02*
X406926D01*
G01X329980Y186166D02*
Y190714D01*
X335433Y196166D01*
G01X313622D02*
X327185Y209730D01*
G01X313622Y196166D02*
X319075Y190714D01*
G01D02*
Y186166D01*
G01X324528Y196166D02*
X313622D01*
G01X337992Y209730D02*
X324528Y196265D01*
Y196166D01*
G01X327185Y209730D02*
X337992D01*
G01X362067Y119956D02*
X356524Y125499D01*
G01X335433Y196166D02*
X344282Y205016D01*
X464236D01*
X493107Y176145D01*
Y121304D01*
G01X340886Y186166D02*
Y190714D01*
X335433Y196166D01*
G01X489528Y208661D02*
X488459Y209730D01*
X337992D01*
G01X362067Y119956D02*
X372714Y109309D01*
Y97098D01*
X382308Y87504D01*
X403721D01*
X416972Y74254D01*
X421162D01*
G01X413958Y91675D02*
X413893Y91610D01*
X398576D01*
X392134Y98053D01*
X390060D01*
G01X398337Y132521D02*
Y130740D01*
X390060Y122462D01*
G01X406926Y-3802D02*
X417471Y6742D01*
Y8640D01*
G01X398337Y132521D02*
X399272Y133456D01*
X416422D01*
X420162Y129716D01*
X423426D01*
G01X441969Y52816D02*
X429026D01*
X428967Y52876D01*
G01D02*
X428515Y52423D01*
Y47971D01*
G01D02*
Y42148D01*
X428160Y41793D01*
G01X441969Y47816D02*
X428669D01*
X428515Y47971D01*
G01X421162Y74254D02*
Y71931D01*
X428967Y64126D01*
G01X421162Y74254D02*
Y74348D01*
X427302Y80487D01*
X441353D01*
X447307Y74533D01*
X447548D01*
G01X428967Y64126D02*
X429853Y63240D01*
X435818D01*
G01X428770Y91576D02*
X434780D01*
X437593Y88763D01*
G01X422481Y91616D02*
X428731Y91616D01*
X428770Y91576D01*
G01X413958Y91675D02*
X422422D01*
X422481Y91616D01*
G01X437470Y8640D02*
Y9922D01*
X451588Y24039D01*
X467619D01*
X493107Y49527D01*
Y121304D01*
G01X433160Y29184D02*
X434081Y30106D01*
Y38965D01*
X437933Y42816D01*
G01X454171Y56938D02*
X445234D01*
G01D02*
X441108D01*
X435818Y62228D01*
Y63240D01*
G01X456098Y42816D02*
X441969D01*
G01X437933D02*
X441969D01*
G01X469194Y86488D02*
X459503D01*
X447548Y74533D01*
G01X434162D02*
Y69759D01*
G01X437593Y88763D02*
X439869Y86488D01*
X447934D01*
G01Y96488D02*
X460189D01*
G01X455189Y91488D02*
X447934D01*
G01X433269Y122216D02*
X434676D01*
X436276Y120616D01*
Y118632D01*
X440192Y114716D01*
X443111D01*
G01D02*
X453884D01*
X453901Y114699D01*
X462862D01*
X464834Y112728D01*
X481530D01*
G01X443111Y124716D02*
X457530D01*
X464834Y132019D01*
G01X454171Y56938D02*
X469224D01*
X473330Y52832D01*
Y42375D01*
X468772Y37816D01*
X463229D01*
G01Y52816D02*
X458293D01*
X454171Y56938D01*
G01X463229Y42816D02*
X456098D01*
G01D02*
X461098Y47816D01*
X463229D01*
G01X469194Y96488D02*
X460189D01*
G01D02*
X455189Y91488D01*
G01X476852Y96488D02*
X469194D01*
G01X493107Y121304D02*
X481631Y132780D01*
X465594D01*
X464834Y132019D01*
G01X483130Y90209D02*
X476852Y96488D01*
G01X481530Y112728D02*
X483130Y111128D01*
M02*
